<svg width="140" height="121" viewBox="0 0 140 121" fill="none" xmlns="http://www.w3.org/2000/svg">
<g clip-path="url(#clip0_347_5396)">
<path d="M30.8678 98.2142C21.9312 89.9521 17.4402 77.7418 17.4402 61.597C17.4402 45.452 21.9314 33.2425 30.867 25.0479C39.8097 16.8467 52.7124 12.6907 69.6207 12.6907C86.529 12.6907 99.4317 16.8467 108.374 25.0479C117.31 33.2425 121.801 45.452 121.801 61.597C121.801 77.7418 117.31 89.9521 108.374 98.2142C99.4311 106.482 86.5291 110.638 69.6207 110.638C52.7124 110.638 39.8103 106.482 30.8678 98.2142Z" stroke="#E63950" stroke-width="0.595238"/>
<path d="M112.064 109.29C118.073 104.774 122.112 98.3623 125.245 91.7685C131.037 79.5856 131.183 59.6106 117.572 51.4907C109.288 46.5484 102.125 54.7279 97.2396 43.8328C96.1754 41.457 95.7909 38.8547 95.2036 36.3269C92.9978 26.8446 87.3162 17.7291 78.2572 13.3174C69.1983 8.90563 56.61 10.4259 50.2965 18.2358C47.5988 21.5744 46.0994 25.8252 42.6922 28.5169C35.1177 34.5026 29.6031 32.5113 20.9615 36.9797C13.077 41.0546 5.23727 52.8857 4.57849 57.065C0.786794 81.1178 12.8713 88.1944 23.838 101.269C33.0401 112.241 38.3341 112.539 52.4844 116.733C66.6347 120.928 85.3011 122.355 98.0295 114.736" stroke="#D1A092" stroke-miterlimit="10"/>
<g clip-path="url(#clip1_347_5396)">
<path d="M102.908 12.5098H29.9277V65.4806H102.908V12.5098Z" fill="#243976"/>
<path d="M103.418 66.005H29.418V12H103.418V66.005ZM30.4524 64.9709H102.398V13.0341H30.4524V64.9709Z" fill="#E63950"/>
<path d="M102.908 63.0338H29.9277V65.4806H102.908V63.0338Z" fill="#E63950"/>
<path d="M48.01 82.5793C48.01 82.5793 48.01 82.5793 47.9955 82.5793C47.9809 82.5793 47.9517 82.5793 47.9372 82.5793H35.6694C35.5091 82.5938 35.3926 82.4336 35.3926 82.2443V81.152C35.3926 80.9626 35.5091 80.8024 35.6694 80.8024H47.8498C47.8498 80.8024 47.9663 80.7587 47.9955 80.7878C47.9955 80.7878 48.01 80.7878 48.0246 80.7878C48.0537 80.8752 48.0246 80.9772 47.9809 81.0791C47.9372 81.1811 47.8935 81.283 47.8789 81.3559C47.8206 81.5889 47.8206 81.851 47.8789 82.0841C47.908 82.186 47.9372 82.288 47.9809 82.3608C47.9809 82.3608 47.9809 82.3608 47.9809 82.3754C48.01 82.4336 48.0683 82.5065 48.01 82.5647V82.5793Z" fill="#7FAFC6"/>
<path d="M47.9799 82.3899H44.1189C44.0024 82.3899 43.9004 82.2734 43.9004 82.1278V81.3704C43.9004 81.2248 43.9878 81.0937 44.1189 81.0937H47.9654C47.9217 81.1811 47.8779 81.283 47.8634 81.3558C47.8051 81.5889 47.8051 81.851 47.8634 82.0841C47.8925 82.186 47.9217 82.288 47.9654 82.3608C47.9654 82.3608 47.9654 82.3608 47.9654 82.3754L47.9799 82.3899Z" fill="white"/>
<path d="M53.386 95.3377C53.386 95.3377 53.386 95.3377 53.3714 95.3523C53.3568 95.3523 53.3277 95.3523 53.3131 95.3523H41.2202C41.0745 95.3669 40.9434 95.163 40.9434 94.9154V93.5026C40.9434 93.255 41.0599 93.0511 41.2202 93.0511H53.2257C53.2257 93.0511 53.3423 93.0074 53.3714 93.0366C53.3714 93.0366 53.386 93.0366 53.4005 93.0366C53.4297 93.1531 53.4005 93.2842 53.3568 93.4152C53.3131 93.5463 53.2694 93.6628 53.2548 93.7648C53.1966 94.0706 53.1966 94.3911 53.2548 94.6969C53.284 94.8134 53.3131 94.9445 53.3568 95.061C53.3568 95.061 53.3568 95.0756 53.3568 95.0901C53.386 95.163 53.4442 95.2649 53.386 95.3377Z" fill="#E63950"/>
<path d="M53.3563 95.0902H49.5536C49.437 95.0902 49.3496 94.9445 49.3496 94.7552V93.7794C49.3496 93.59 49.437 93.4298 49.5536 93.4298H53.3417C53.298 93.5463 53.2543 93.6774 53.2397 93.7794C53.1815 94.0852 53.1815 94.4056 53.2397 94.7115C53.2689 94.828 53.298 94.9591 53.3417 95.0756C53.3417 95.0756 53.3417 95.0902 53.3417 95.1047L53.3563 95.0902Z" fill="white"/>
<path d="M52.6714 93.0657C52.6714 93.0657 52.6714 93.0657 52.6569 93.0657C52.6423 93.0657 52.6132 93.0657 52.5986 93.0657H39.3255C39.1652 93.0803 39.0195 92.9346 39.0195 92.7599V91.7549C39.0195 91.5801 39.1507 91.4345 39.3109 91.4345H52.482C52.482 91.4345 52.6132 91.3908 52.6423 91.4199C52.6423 91.4199 52.6569 91.4199 52.6714 91.4199C52.7006 91.4927 52.6714 91.5947 52.6277 91.6967C52.584 91.784 52.5403 91.8714 52.5112 91.9442C52.4383 92.1627 52.4529 92.3957 52.5112 92.6142C52.5403 92.7016 52.5694 92.8035 52.6132 92.8764C52.6132 92.8764 52.6132 92.8764 52.6132 92.8909C52.6423 92.9346 52.7006 93.0075 52.6423 93.0657H52.6714Z" fill="#E63950"/>
<path d="M52.6416 92.891H46.3328C46.1143 92.891 45.9395 92.789 45.9395 92.6579V91.9588C45.9395 91.8278 46.1143 91.7112 46.3328 91.7112H52.627C52.5833 91.7986 52.5396 91.886 52.5104 91.9588C52.4376 92.1773 52.4522 92.4103 52.5104 92.6288C52.5396 92.7162 52.5687 92.8181 52.6124 92.891C52.6124 92.891 52.6124 92.891 52.6124 92.9055L52.6416 92.891Z" fill="white"/>
<path d="M55.4996 91.3908C55.4996 91.3908 55.4996 91.3908 55.485 91.3908C55.4704 91.3908 55.4413 91.3908 55.4267 91.3908H42.1536C41.9934 91.4053 41.8477 91.2597 41.8477 91.0849V90.08C41.8477 89.9052 41.9788 89.7596 42.1391 89.7596H55.3101C55.3101 89.7596 55.4413 89.7159 55.4704 89.745C55.4704 89.745 55.485 89.745 55.4996 89.745C55.5287 89.8178 55.4996 89.9198 55.4558 90.0217C55.4121 90.1091 55.3684 90.1965 55.3393 90.2693C55.2664 90.4878 55.281 90.7208 55.3393 90.9393C55.3684 91.0267 55.3976 91.1286 55.4413 91.2014C55.4413 91.2014 55.4413 91.2014 55.4413 91.216C55.4704 91.2597 55.5287 91.3325 55.4704 91.3908H55.4996Z" fill="#7FAFC6"/>
<path d="M55.4697 91.216H49.161C48.9424 91.216 48.7676 91.1141 48.7676 90.983V90.2839C48.7676 90.1528 48.9424 90.0363 49.161 90.0363H55.4551C55.4114 90.1237 55.3677 90.2111 55.3386 90.2839C55.2657 90.5024 55.2803 90.7354 55.3386 90.9539C55.3677 91.0413 55.3968 91.1432 55.4405 91.216C55.4405 91.216 55.4405 91.216 55.4405 91.2306L55.4697 91.216Z" fill="white"/>
<path d="M56.2991 74.9767H53.5892H52.0156V79.2149C52.0156 80.482 52.4673 81.6909 53.2541 82.5793H53.5892H56.2991H56.6343C57.421 81.6763 57.8581 80.4675 57.8581 79.2003V74.9621H56.2846L56.2991 74.9767Z" fill="#7FAFC6"/>
<path d="M57.6095 81.3704C57.0267 81.3704 56.473 81.0937 56.0651 80.5985C55.6717 80.1179 55.4531 79.4916 55.4531 78.8217C55.4531 77.4235 56.4147 76.2729 57.6095 76.2729C58.8042 76.2729 59.7804 77.4089 59.7804 78.8217C59.7804 79.4916 59.5618 80.1179 59.1684 80.5985C58.7605 81.0937 58.2068 81.3704 57.624 81.3704H57.6095ZM57.6095 76.9283C56.7644 76.9283 56.0942 77.7876 56.0942 78.8362C56.0942 79.3605 56.2545 79.8412 56.5604 80.2053C56.8518 80.5548 57.2161 80.7442 57.6095 80.7442C58.0028 80.7442 58.3817 80.5548 58.6585 80.2053C58.9644 79.8412 59.1247 79.3605 59.1247 78.8362C59.1247 77.7876 58.4399 76.9429 57.6095 76.9429V76.9283Z" fill="#7FAFC6"/>
<path d="M38.054 83.8764L36.4805 83.8789L36.534 117.974L38.1076 117.972L38.054 83.8764Z" fill="#E63950"/>
<path d="M62.3312 95.3151L36.4844 95.3557L36.5065 109.41L62.3532 109.37L62.3312 95.3151Z" fill="#E63950"/>
<path d="M62.3274 83.8529L60.7539 83.8553L60.8076 117.994L62.3811 117.992L62.3274 83.8529Z" fill="#E63950"/>
<path d="M38.0879 108.184V96.7068L60.7585 96.6777V108.154L38.0879 108.184ZM38.4521 97.1V107.79L60.3797 107.761V97.0709L38.4521 97.1Z" fill="#F49262"/>
<path d="M49.6141 97.0245L49.2207 97.0251L49.2381 108.109L49.6315 108.108L49.6141 97.0245Z" fill="#F49262"/>
<path d="M47.9652 102.11C47.9652 102.402 47.7321 102.62 47.4553 102.62C47.1639 102.62 46.9453 102.387 46.9453 102.11C46.9453 101.819 47.1784 101.6 47.4553 101.6C47.7467 101.6 47.9652 101.833 47.9652 102.11Z" fill="#F49262"/>
<path d="M51.8988 102.169C51.8988 102.46 51.6657 102.678 51.3888 102.678C51.0975 102.678 50.8789 102.445 50.8789 102.169C50.8789 101.877 51.112 101.659 51.3888 101.659C51.6802 101.659 51.8988 101.892 51.8988 102.169Z" fill="#F49262"/>
<path d="M65.5606 82.5662L33.2012 82.617L33.205 85.0638L65.5645 85.013L65.5606 82.5662Z" fill="#9E554E"/>
<path d="M69.7471 62.0434C69.5577 64.0096 69.4265 65.9904 69.3828 67.9566C69.3828 68.1168 69.3828 68.2916 69.4557 68.4372C69.7471 68.9324 72.3988 68.4081 72.9524 68.3789C74.2783 68.2915 75.6187 68.2187 76.9445 68.1313C79.6108 67.9711 82.2625 67.7964 84.9288 67.6362C86.0944 67.5633 86.1672 67.1264 86.1818 66.0486C86.1818 65.0146 86.0507 63.995 85.905 62.9901C85.6281 60.9948 85.3367 59.014 85.0308 57.0332C84.8851 56.072 84.6228 54.9068 83.6029 54.5282C82.583 54.1495 81.2572 54.2951 80.2227 54.3534C80.1645 54.3534 80.0916 54.3534 80.0333 54.3534C78.6929 54.3534 77.6439 54.5427 76.3763 54.6738C75.8227 54.7321 75.2399 54.7612 74.6425 54.7612C74.5988 54.7612 74.5405 54.7612 74.4968 54.7612C73.4332 54.7612 72.2239 54.4553 71.204 54.9068C70.5775 55.1836 70.4173 55.9846 70.3298 56.6691C70.1259 58.4606 69.9219 60.252 69.7616 62.058L69.7471 62.0434Z" fill="#FABA4D"/>
<path d="M76.3025 103.916C76.1713 105.445 76.0548 106.989 75.9528 108.519C75.8799 109.582 75.8071 110.66 75.7342 111.723C75.6905 112.466 75.6468 113.223 75.7051 113.966C75.7197 114.199 75.7488 114.446 75.6468 114.65C75.472 114.971 74.8746 114.898 74.5687 114.912C74.0733 114.942 73.3011 115.087 73.0097 114.563C72.8786 114.315 72.864 114.024 72.8494 113.733C72.7474 111.563 72.5289 109.378 72.1646 107.237C71.509 103.261 70.8242 99.2556 71.101 95.1921C71.203 93.692 71.5381 92.221 71.6984 90.7354C71.8732 89.1479 71.7858 87.5021 71.713 85.9C71.611 83.9484 70.9116 82.055 70.8242 80.0742C70.8242 79.8266 70.8242 79.5791 70.9116 79.346C71.0428 79.0256 71.3342 78.7926 71.6693 78.6761C71.9898 78.5595 72.3395 78.5304 72.6892 78.5158C73.8984 78.4576 75.1077 78.4867 76.317 78.5741C76.9144 78.6178 77.7594 78.9237 78.1091 79.448C78.3714 79.8412 78.3568 80.3655 78.3422 80.8462C78.1965 83.7445 78.0654 86.6574 77.9197 89.5557C77.8906 90.0072 77.876 90.4733 77.8032 90.9247C77.5992 92.2355 77.2349 93.5027 77.1912 94.8135C77.1329 96.3282 76.8707 97.8574 76.7396 99.3721C76.5939 100.887 76.4627 102.387 76.3316 103.902L76.3025 103.916Z" fill="#F7967C"/>
<path d="M72.3106 115.655C72.5292 115.801 72.7768 115.903 73.0245 115.946C73.1702 115.976 73.3013 116.005 73.4325 116.019C73.855 116.092 74.263 116.165 74.6563 116.413C75.1663 116.733 75.5597 117.199 75.9385 117.665C76.0259 117.782 76.1279 117.884 76.2299 117.985H78.561C78.561 117.854 78.4445 117.782 78.2842 117.752C78.0074 117.709 77.7597 117.534 77.5703 117.33C77.5703 117.33 77.512 117.257 77.4829 117.228C77.2789 116.966 77.1332 116.66 76.9875 116.369C76.769 115.888 76.5358 115.422 76.3173 114.942C76.1862 114.65 76.0405 114.373 75.9093 114.082C75.9093 114.082 75.9093 114.068 75.9093 114.053C75.8802 113.98 75.8365 113.907 75.8074 113.835C75.7636 113.762 75.7345 113.674 75.6908 113.602C75.6617 113.529 75.6179 113.456 75.5888 113.398C75.5451 113.325 75.516 113.267 75.4722 113.194C75.3411 112.961 75.1809 112.757 75.006 112.582C74.7146 112.305 74.3649 112.131 73.8987 112.145C73.7967 112.145 73.6947 112.16 73.5927 112.174C73.5782 112.174 73.549 112.174 73.5345 112.174C73.5345 112.174 73.5345 112.174 73.5199 112.174C73.4908 112.174 73.4762 112.174 73.447 112.189C73.3742 112.218 73.3013 112.233 73.2285 112.276C73.2139 112.276 73.1994 112.291 73.1848 112.305C73.1119 112.349 73.0537 112.393 72.9954 112.451C72.9954 112.451 72.9954 112.451 72.9808 112.451C72.8351 112.582 72.7331 112.757 72.6457 112.946C72.602 113.034 72.5583 113.121 72.5146 113.223C72.398 113.47 72.2669 113.704 72.1358 113.922C72.1358 113.937 72.1066 113.966 72.0921 113.98C72.0338 114.068 71.9755 114.155 71.9318 114.242C71.8589 114.388 71.7861 114.534 71.7569 114.694C71.6841 115.116 71.9901 115.422 72.3106 115.641V115.655Z" fill="#F7967C"/>
<path d="M72.1939 116.136C72.325 116.383 72.3396 116.675 72.3396 116.937C72.3396 117.243 72.3687 117.563 72.3833 117.869C72.3833 118.044 72.5435 117.956 72.6601 117.956C72.6892 117.956 73.0826 117.956 73.0826 117.956C73.0826 117.723 73.0826 117.505 73.0826 117.272C73.0826 117.082 73.0826 116.879 73.0826 116.689C73.0826 116.514 72.9952 116.296 73.1992 116.194C73.1992 116.194 73.2138 116.194 73.2283 116.194C73.3303 116.15 73.4469 116.165 73.5634 116.194C73.578 116.194 73.5926 116.194 73.6071 116.209C73.7528 116.252 73.884 116.311 74.0005 116.369C74.729 116.66 75.2098 117.199 75.6615 117.854C75.7052 117.913 75.7343 117.956 75.778 118H78.7794C78.7357 117.884 78.6629 117.782 78.5609 117.694C78.4297 117.592 78.284 117.519 78.1383 117.461C77.9635 117.388 77.8032 117.345 77.6284 117.315C77.6138 117.315 77.5847 117.315 77.5701 117.315C77.2642 117.272 76.9436 117.272 76.6377 117.214C76.5939 117.214 76.5648 117.214 76.5357 117.184C76.39 117.155 76.2443 117.097 76.1131 117.039C75.8072 116.908 75.5303 116.704 75.2681 116.485C74.9038 116.179 74.5542 115.844 74.2191 115.51C74.0297 115.335 73.8257 115.175 73.6508 114.985C73.5197 114.854 73.3886 114.708 73.272 114.563C73.1555 114.403 73.0972 114.257 73.0243 114.082C72.9369 113.907 72.7912 113.733 72.6601 113.587C72.5873 113.514 72.529 113.441 72.427 113.398C72.427 113.398 72.4124 113.398 72.3978 113.398C72.0482 113.281 71.8151 114.213 71.7568 114.461C71.6839 114.796 71.6694 115.16 71.8151 115.48C71.917 115.713 72.0627 115.932 72.1793 116.15L72.1939 116.136Z" fill="#243976"/>
<path d="M70.5187 93.5609C70.6207 95.8912 70.7227 98.2215 70.8247 100.552C70.9267 103.013 70.9558 105.475 71.0578 107.951C71.087 108.548 71.1161 109.159 71.1452 109.757C71.1452 109.844 71.1452 109.975 71.1452 110.121H76.5798C77.8619 98.0613 79.3189 85.9291 79.9308 73.8261C80.0037 72.2968 79.96 70.7384 80.0911 69.2237C80.1931 68.0294 80.2514 66.8934 79.8143 65.7428C79.4355 64.7087 78.6924 63.8786 77.8328 63.296C76.201 62.2037 73.9135 62.1308 72.1943 63.0193C67.8379 65.2622 68.5955 71.1462 68.7704 75.166C69.0472 81.3268 70.2128 87.4293 70.4896 93.5463L70.5187 93.5609Z" fill="#7FAFC6"/>
<path d="M87.4784 103.916C87.3473 105.446 87.2307 106.989 87.1287 108.519C87.0559 109.582 86.983 110.66 86.9102 111.723C86.8665 112.466 86.8227 113.223 86.881 113.966C86.8956 114.199 86.9247 114.446 86.8227 114.65C86.6479 114.971 86.0505 114.898 85.7446 114.912C85.2492 114.942 84.477 115.087 84.1856 114.563C84.0545 114.315 84.0399 114.024 84.0253 113.733C83.7777 108.169 82.5101 102.707 83.53 97.1438C83.7048 96.1825 84.0836 95.0902 85.0015 94.8135C85.7883 94.5804 86.6479 95.0902 87.0704 95.7893C87.493 96.4884 87.5949 97.3477 87.6824 98.1633C87.8863 100.1 87.6387 101.965 87.4784 103.916Z" fill="#F7967C"/>
<path d="M83.4864 115.655C83.7049 115.801 83.9526 115.903 84.2003 115.946C84.346 115.976 84.4771 116.005 84.6083 116.019C85.0308 116.092 85.4387 116.165 85.8321 116.413C86.3421 116.733 86.7354 117.199 87.1143 117.665C87.2017 117.782 87.3037 117.884 87.4057 117.985H89.7368C89.7368 117.854 89.6203 117.782 89.46 117.752C89.1832 117.709 88.9355 117.534 88.7461 117.33C88.7461 117.33 88.6878 117.257 88.6587 117.228C88.4547 116.966 88.309 116.66 88.1633 116.369C87.9447 115.888 87.7116 115.422 87.4931 114.942C87.362 114.65 87.2163 114.373 87.0851 114.082C87.0851 114.082 87.0851 114.068 87.0851 114.053C87.056 113.98 87.0123 113.907 86.9831 113.835C86.9394 113.762 86.9103 113.674 86.8666 113.602C86.8374 113.529 86.7937 113.456 86.7646 113.398C86.7209 113.325 86.6917 113.267 86.648 113.194C86.5169 112.961 86.3566 112.757 86.1818 112.582C85.8904 112.305 85.5407 112.131 85.0745 112.145C84.9725 112.145 84.8705 112.16 84.7685 112.174C84.754 112.174 84.7248 112.174 84.7102 112.174C84.7102 112.174 84.7102 112.174 84.6957 112.174C84.6665 112.174 84.652 112.174 84.6228 112.189C84.55 112.218 84.4771 112.233 84.4043 112.276C84.3897 112.276 84.3751 112.291 84.3606 112.305C84.2877 112.349 84.2294 112.393 84.1712 112.451C84.1712 112.451 84.1712 112.451 84.1566 112.451C84.0109 112.582 83.9089 112.757 83.8215 112.946C83.7778 113.034 83.7341 113.121 83.6904 113.223C83.5738 113.47 83.4427 113.704 83.3115 113.922C83.3115 113.937 83.2824 113.966 83.2678 113.98C83.2096 114.068 83.1513 114.155 83.1076 114.242C83.0347 114.388 82.9619 114.534 82.9327 114.694C82.8599 115.116 83.1658 115.422 83.4864 115.641V115.655Z" fill="#F7967C"/>
<path d="M83.3696 116.136C83.5008 116.383 83.5153 116.675 83.5153 116.937C83.5153 117.243 83.5445 117.563 83.5591 117.869C83.5591 118.044 83.7193 117.956 83.8359 117.956C83.865 117.956 84.2584 117.956 84.2584 117.956C84.2584 117.723 84.2584 117.505 84.2584 117.272C84.2584 117.082 84.2584 116.879 84.2584 116.689C84.2584 116.514 84.171 116.296 84.375 116.194C84.375 116.194 84.3895 116.194 84.4041 116.194C84.5061 116.15 84.6227 116.165 84.7392 116.194C84.7538 116.194 84.7683 116.194 84.7829 116.209C84.9286 116.252 85.0597 116.311 85.1763 116.369C85.9048 116.66 86.3856 117.199 86.8373 117.854C86.881 117.913 86.9101 117.956 86.9538 118H89.9552C89.9115 117.884 89.8386 117.782 89.7367 117.694C89.6055 117.592 89.4598 117.519 89.3141 117.461C89.1393 117.388 88.979 117.345 88.8042 117.315C88.7896 117.315 88.7605 117.315 88.7459 117.315C88.4399 117.272 88.1194 117.272 87.8134 117.214C87.7697 117.214 87.7406 117.214 87.7114 117.184C87.5657 117.155 87.4201 117.097 87.2889 117.039C86.983 116.908 86.7061 116.704 86.4439 116.485C86.0796 116.179 85.73 115.844 85.3948 115.51C85.2054 115.335 85.0015 115.175 84.8266 114.985C84.6955 114.854 84.5644 114.708 84.4478 114.563C84.3313 114.403 84.273 114.257 84.2001 114.082C84.1127 113.907 83.967 113.733 83.8359 113.587C83.763 113.514 83.7048 113.441 83.6028 113.398C83.6028 113.398 83.5882 113.398 83.5736 113.398C83.2239 113.281 82.9908 114.213 82.9326 114.461C82.8597 114.796 82.8451 115.16 82.9908 115.48C83.0928 115.713 83.2385 115.932 83.3551 116.15L83.3696 116.136Z" fill="#243976"/>
<path d="M79.6836 84.6912C80.1498 86.6137 80.5869 88.5362 80.9803 90.4732C81.7088 94.0852 81.9856 97.4059 82.073 101.062C82.1459 104.076 82.3207 107.106 82.583 110.106H87.9447C88.4109 105.649 88.8771 101.28 89.0811 96.7942C89.2414 93.124 89.1977 89.5557 88.8917 85.9C88.4109 80.2636 87.8864 74.6708 87.0122 69.0635C86.5751 66.2671 86.3566 62.3202 83.5446 60.7181C82.0876 59.8879 80.3247 59.6986 78.6928 59.8005C77.2067 59.8879 75.5895 60.3831 75.5895 62.0871C75.5895 64.8981 75.4146 67.6071 75.9246 70.418C76.4637 73.4183 77.3961 76.3312 78.2412 79.2441C78.7511 81.0355 79.2319 82.8415 79.6836 84.662V84.6912Z" fill="#7FAFC6"/>
<path d="M70.46 61.6793C70.0666 63.5581 69.8189 65.4661 69.7024 67.3886C69.7024 67.5488 69.6878 67.7236 69.7606 67.8546C70.0229 68.3498 72.4852 67.942 72.9951 67.9275C74.2336 67.8983 75.4574 67.8692 76.6959 67.8401C79.1582 67.7818 81.635 67.7236 84.0973 67.6799C84.549 67.6799 85.0881 67.6071 85.3212 67.1847C85.4669 66.908 85.4377 66.573 85.4086 66.2526C85.1026 63.5873 84.6947 60.9511 84.1847 58.3295C83.9953 57.3246 83.7622 56.2905 83.1794 55.4894C82.3635 54.368 81.4019 54.5428 80.2363 54.5573C80.178 54.5573 80.1198 54.5573 80.0615 54.5573C78.8231 54.4991 77.8469 54.6447 76.6667 54.7175C76.1568 54.7467 75.6031 54.7467 75.0495 54.7321C75.0058 54.7321 74.9621 54.7321 74.9183 54.7321C74.2044 54.703 73.0388 54.1932 72.4706 54.8486C72.1938 55.169 72.0335 56.1448 71.8733 56.5818C71.6256 57.2663 71.407 57.9654 71.2031 58.6791C70.9117 59.6694 70.664 60.6744 70.46 61.6793Z" fill="#7EABC4"/>
<path d="M81.6358 62.4949C81.6358 62.2037 81.6213 61.9124 81.6067 61.6356C81.5776 60.4996 81.5338 59.3636 81.5047 58.213C81.4901 57.5722 81.461 56.9168 81.4464 56.2759C81.4464 56.2177 81.3007 56.2177 81.3007 56.2759C81.3299 57.3974 81.3736 58.5043 81.4027 59.6258C81.4173 60.1938 81.4319 60.7472 81.461 61.3152C81.461 61.592 81.4756 61.8687 81.4901 62.1454C81.4901 62.2765 81.4901 62.4076 81.4901 62.5386C81.4901 62.6697 81.4901 62.8008 81.4901 62.9173C81.4464 63.2232 81.1405 63.3397 80.9073 63.4853C80.6888 63.6164 80.4557 63.7329 80.2226 63.8349C80.2517 61.8687 80.2226 59.9025 80.106 57.9508C80.0769 57.3974 80.0332 56.8294 79.9894 56.2759C79.9894 56.2177 79.8438 56.2177 79.8438 56.2759C79.9894 58.2567 80.0769 60.252 80.0769 62.2474C80.0769 62.8008 80.0769 63.3688 80.0769 63.9223C80.0769 63.9805 80.1789 63.966 80.1934 63.9514C80.4411 63.8349 80.6742 63.7184 80.9073 63.5873C81.0239 63.5145 81.1405 63.4562 81.257 63.3834C81.3444 63.3251 81.4464 63.2669 81.5193 63.1795C81.6795 62.9901 81.6358 62.728 81.6358 62.4949Z" fill="#B7D2E4"/>
<path d="M83.0053 65.4515L82.1311 66.8206C81.9854 67.0391 81.8397 67.2575 81.7085 67.4906C81.5774 67.6945 81.4463 67.8838 81.2423 68.0294C81.1695 68.0731 81.3006 68.1168 81.3443 68.0877C81.5337 67.9566 81.6648 67.7818 81.796 67.5925C81.9417 67.374 82.0874 67.141 82.2331 66.908C82.539 66.4274 82.845 65.9613 83.151 65.4807C83.1801 65.437 83.0344 65.4078 83.0053 65.4661V65.4515Z" fill="#B7D2E4"/>
<path d="M67.0966 46.6196C66.9946 46.9401 66.8781 47.2605 66.7907 47.5809C66.7761 47.6683 66.747 47.7557 66.7907 47.8285C66.8198 47.9159 66.9072 47.9887 66.9801 48.047C67.4754 48.4402 67.8688 48.95 68.1311 49.5325C68.2914 49.8966 68.4079 50.2899 68.5099 50.6686C68.8159 51.8191 69.049 52.9843 69.2238 54.164C69.2967 54.7175 69.4424 55.3146 69.4132 55.8681C69.3987 56.2759 69.2967 56.6982 69.253 57.106C69.049 58.8975 68.8741 60.6889 68.6847 62.4803C68.4225 65.0874 68.2039 67.6944 68 70.3014C68 70.4471 67.9562 70.651 67.9125 70.884H87.5963C87.2467 66.5292 86.4162 62.189 86.0519 57.8343C85.6731 53.3338 86.6784 48.8043 86.1831 44.2748C86.0519 43.0659 85.7023 41.9736 85.3817 40.8084C85.2215 40.2113 85.0466 39.5996 84.7552 39.0461C84.391 38.3616 83.7936 37.6334 83.1963 37.1236C82.4678 36.4974 81.5353 36.5265 80.7194 36.1332C80.2823 35.9148 79.9472 35.5507 79.481 35.3613C79.0439 35.1866 78.5631 35.0846 78.0968 35.0409C77.0915 34.939 76.0716 35.0846 75.0809 35.2157C74.4398 35.3031 73.7696 35.405 73.2305 35.7546C71.7153 36.7449 69.9815 37.2547 68.4079 38.1868C68.1748 38.3325 67.9417 38.4781 67.7814 38.6966C67.49 39.1044 67.4754 40.0074 67.4754 40.5026C67.49 41.7551 67.4317 43.0222 67.388 44.2748C67.3735 44.8282 67.4317 45.3962 67.3297 45.9351C67.286 46.1681 67.2132 46.4012 67.1258 46.6196H67.0966Z" fill="#7FAFC6"/>
<path d="M79.29 36.3371C79.6106 37.1673 79.5377 37.9975 79.5231 38.8859C79.494 39.92 79.4503 40.9395 79.3337 41.9736C79.2463 42.7892 79.1298 43.5902 78.9403 44.3913C78.8529 44.7845 78.7509 45.1778 78.6344 45.571C78.5907 45.7312 78.3284 46.3575 78.4158 46.5031C78.0224 45.804 77.5416 45.1195 77.1337 44.4204C76.6675 43.6485 76.1284 42.9057 75.7058 42.1192C74.8171 40.5317 74.176 38.7111 74.176 36.876C74.176 36.4682 74.1177 36.1041 74.4383 35.9148C74.7442 35.74 75.3999 35.7691 75.7496 35.74C76.5218 35.6672 77.294 35.6526 78.0662 35.7109C78.7801 35.7546 79.1006 35.8128 79.3046 36.3517L79.29 36.3371Z" fill="#F7967C"/>
<path d="M74.8768 40.3715C75.1099 40.9687 75.3867 41.5512 75.6927 42.1193C76.1298 42.9057 76.6689 43.634 77.1205 44.4204C77.5285 45.1195 78.0093 45.8041 78.4027 46.5032C78.3153 46.3575 78.5775 45.7312 78.6212 45.571C78.7378 45.1778 78.8398 44.7845 78.9272 44.3913C79.102 43.5903 79.2332 42.7892 79.3206 41.9736C79.3789 41.4493 79.408 40.9104 79.4371 40.3861H74.8477L74.8768 40.3715Z" fill="#E63950"/>
<path d="M93.3653 49.3869C94.1375 47.0712 94.3415 44.668 94.2978 42.2503C94.2978 42.1921 94.2978 42.1193 94.2687 42.0756C94.1958 41.959 94.0501 41.959 93.919 41.959C93.0011 42.0027 91.9812 42.1193 91.413 42.8329C91.2382 43.0659 91.1216 43.3427 91.005 43.6194C90.7136 44.3622 90.4077 45.105 90.1163 45.8478C89.7957 46.6488 89.4752 47.4353 89.1692 48.2363C88.7759 49.2267 87.5811 52.7804 89.6209 52.8387C91.2819 52.8824 92.564 51.2949 93.1905 49.853C93.2634 49.6928 93.3216 49.5326 93.3799 49.3723L93.3653 49.3869Z" fill="#7FAFC6"/>
<path d="M90.1161 47.4352C89.5915 46.5614 89.0816 45.6875 88.5571 44.7991C87.7849 43.4883 86.9981 42.1629 86.2259 40.8521C85.2206 39.1626 84.0696 36.876 81.8841 36.5702C81.2285 36.4828 80.8497 37.0071 80.6748 37.6043C80.3252 38.7985 80.704 40.1967 81.0245 41.3619C82.0007 44.77 83.5742 48.2363 85.9637 50.8725C86.5319 51.5133 87.1147 52.1541 87.8723 52.5619C89.5041 53.4358 91.6605 52.3435 91.4856 50.3481C91.4273 49.6636 91.0631 49.0519 90.7134 48.4548C90.5094 48.1198 90.3055 47.7702 90.1015 47.4352H90.1161Z" fill="#7FAFC6"/>
<path d="M92.0973 49.2849L95.4921 34.4729L85.3078 34.8953L81.8984 49.7073L92.0973 49.2849Z" fill="white"/>
<path d="M93.6994 41.6386C93.6994 41.8425 93.7868 42.1192 94.0199 42.1775C94.1802 42.2066 94.355 42.0755 94.457 41.9736C94.6901 41.726 94.7921 41.3619 94.8795 41.0415C94.9815 40.6774 95.0835 40.2841 95.0544 39.8909C95.0544 39.6287 95.1127 39.4831 95.1418 39.2355C95.1709 39.017 95.0398 38.8131 94.9087 38.6238C94.5444 38.0849 94.2385 37.5169 93.9762 36.9197C93.9325 36.8178 93.8742 36.7013 93.7577 36.6867C93.6411 36.6867 93.5537 36.7887 93.5246 36.8906C93.4808 37.0654 93.5391 37.2402 93.5974 37.4149C93.6848 37.6771 93.8451 37.9392 93.9616 38.1868C93.8305 38.1577 93.6848 38.1431 93.5683 38.114C93.4371 38.0703 93.3351 37.9684 93.1894 37.9684C93.0583 37.9684 92.8835 38.0703 92.898 38.216C92.9272 38.449 93.3643 38.6383 93.5391 38.7403C93.7431 38.8422 93.9616 38.9442 94.1365 39.0898C94.1365 39.1627 94.1511 39.2355 94.1511 39.3083C94.0491 39.2792 93.9616 39.2355 93.8597 39.2209C93.5683 39.1335 93.2332 39.0316 92.9418 39.1627C92.8835 39.1918 92.7378 39.2792 92.7815 39.3666C92.9126 39.6579 93.2914 39.6287 93.5537 39.7015C93.7431 39.7598 93.9325 39.8618 94.0928 39.9783C94.0782 40.0657 94.0491 40.153 94.0199 40.2404C93.8597 40.153 93.6994 40.0657 93.51 40.0074C93.3934 39.9783 93.2623 39.9346 93.1457 39.9637C93.0146 39.9928 92.8252 40.1239 92.898 40.2841C93 40.488 93.2769 40.5317 93.4663 40.6045C93.5974 40.6628 93.7285 40.7211 93.8451 40.8084C93.7431 41.0852 93.6994 41.3619 93.714 41.6532L93.6994 41.6386Z" fill="#F7967C"/>
<path d="M94.0643 38.1431C94.0643 38.1431 93.9332 38.2014 93.9915 38.2159C94.3266 38.3033 94.6034 38.5509 94.8511 38.7694C94.8803 38.7985 94.9822 38.7257 94.9385 38.6966C94.6763 38.4635 94.3994 38.2305 94.0643 38.1431Z" fill="#5E0C04"/>
<path d="M94.2538 39.2646C94.2538 39.2646 94.1227 39.3228 94.1809 39.3374C94.3704 39.3957 94.5452 39.5267 94.6617 39.687C94.6909 39.7161 94.7929 39.6578 94.7637 39.6287C94.6472 39.4539 94.4578 39.3228 94.2538 39.2646Z" fill="#5E0C04"/>
<path d="M94.1795 40.2841C94.1795 40.2841 94.1212 40.2841 94.1066 40.2987C94.1066 40.2987 94.0629 40.3424 94.092 40.3569C94.1795 40.4006 94.2669 40.4589 94.3397 40.5463C94.3543 40.5608 94.3834 40.5463 94.4126 40.5463C94.4126 40.5463 94.4417 40.5317 94.4417 40.5171C94.4417 40.5171 94.4417 40.5026 94.4417 40.488C94.3689 40.4006 94.2815 40.3424 94.1795 40.2841Z" fill="#5E0C04"/>
<path d="M70.5497 44.6098C70.5497 45.236 70.5205 45.8769 70.4768 46.4886C70.3894 47.7848 69.6609 48.047 68.5245 48.3091C66.9218 48.6733 65.3191 48.9791 63.7019 49.2558C60.5111 49.7947 57.3057 50.2025 54.115 50.6395C53.0805 50.7851 52.046 50.9307 51.0116 51.0618C50.6765 51.1055 50.1665 51.2512 49.6712 51.324C49.1758 51.3968 48.695 51.4114 48.4036 51.222C48.2288 51.1055 48.1705 50.887 48.1122 50.6686C47.8645 49.6054 47.6751 48.5276 47.5294 47.4353C47.5003 47.2459 47.4857 47.042 47.544 46.8673C47.5877 46.7508 47.6751 46.6488 47.8062 46.5614C48.3453 46.1973 49.4672 46.1245 49.948 46.0371C50.9533 45.8478 51.9732 45.7312 52.9785 45.5419C55.5719 45.0758 58.0925 44.2748 60.482 43.1533C61.6475 42.5999 62.8423 42.0027 63.9204 41.3182C64.2701 41.0997 64.6489 40.9104 64.9549 40.6337C65.3046 40.3278 65.5231 39.8909 65.7854 39.4831C65.9019 39.2938 66.033 39.1044 66.2079 38.9733C66.3536 38.8568 66.5138 38.784 66.6887 38.7257C67.5337 38.3762 68.3642 38.0412 69.2093 37.6917C69.4569 37.5897 69.7629 37.5023 69.9669 37.6625C70.1563 37.8082 70.1709 38.0995 70.1709 38.3471C70.1709 39.0899 70.3603 39.8181 70.4331 40.5609C70.5643 41.9154 70.5643 43.2698 70.5497 44.6243V44.6098Z" fill="#7FAFC6"/>
<path d="M49.6707 51.3094C49.6707 51.3094 49.6707 51.324 49.6707 51.3386C49.1753 51.4114 48.6945 51.4259 48.4031 51.2366C48.2283 51.1201 48.17 50.9016 48.1117 50.6831C48.0243 50.319 47.9515 49.9695 47.8786 49.6054C47.7329 48.8917 47.6164 48.1781 47.5289 47.4498C47.5144 47.2751 47.4852 47.1003 47.5289 46.9255C47.5289 46.911 47.5289 46.8818 47.5435 46.8673C47.5872 46.7508 47.6746 46.6488 47.8058 46.5614C48.0389 46.4595 48.3303 46.4595 48.578 46.6051C48.7237 46.6925 48.8402 46.809 48.9422 46.9547C49.2045 47.3333 49.321 47.8431 49.423 48.2655C49.4959 48.6004 49.5541 48.95 49.5979 49.2995C49.6416 49.6636 49.6707 50.0132 49.6853 50.3773C49.6998 50.6832 49.729 51.0036 49.6853 51.3094H49.6707Z" fill="#55788E"/>
<path d="M49.5975 49.2995C49.0875 49.3869 48.5776 49.4161 48.0822 49.5326C48.0094 49.5471 47.9511 49.5763 47.8782 49.6054C47.6888 49.6928 47.514 49.8239 47.3246 49.9112C47.0623 50.0278 46.7855 50.1006 46.5087 50.1734C45.9987 50.3191 45.4888 50.4356 44.9789 50.5375C44.6292 50.5958 44.2795 50.654 43.9298 50.7123C43.6384 50.756 43.2451 50.9016 42.9537 50.7997C42.8808 50.7705 42.808 50.6977 42.7934 50.6103C42.7934 50.523 42.8225 50.4356 42.8954 50.3773C42.9537 50.3191 43.0265 50.3045 43.1139 50.2754C43.551 50.1588 44.0027 50.086 44.3961 49.8384C44.4106 49.8384 44.4398 49.8093 44.4398 49.7802C44.4398 49.751 44.4252 49.7365 44.4106 49.7219C44.1192 49.5908 43.7404 49.7219 43.449 49.7365C42.8808 49.7802 42.1815 49.9841 41.6424 49.7656C41.5987 49.751 41.5404 49.7219 41.4967 49.6782C41.351 49.5326 41.4384 49.3432 41.6132 49.2704C41.7007 49.2413 41.7881 49.2267 41.8755 49.2267C42.5603 49.183 43.2451 49.0956 43.9298 48.9791C44.0173 48.9791 44.1629 48.9354 44.1921 48.848C44.2358 48.7607 44.1484 48.7024 44.061 48.6878C43.6967 48.6441 43.3179 48.7461 42.9537 48.8044C42.5166 48.8626 42.0795 48.848 41.6278 48.8335C41.5258 48.8335 41.4238 48.8335 41.3218 48.8044C41.249 48.7898 41.1907 48.7607 41.147 48.7024C41.0887 48.615 41.1179 48.4694 41.1761 48.3965C41.2344 48.3237 41.3364 48.2946 41.4093 48.2655C41.6278 48.1926 41.8609 48.1926 42.094 48.1926C42.7351 48.1926 43.3762 48.1344 44.0027 48.0616C44.0464 48.0616 44.1338 48.0616 44.1484 48.0179C44.1775 47.945 44.1047 47.8577 44.0464 47.8431C43.4053 47.814 42.7642 47.7848 42.1232 47.7266C42.0212 47.7266 41.8901 47.6975 41.8318 47.5955C41.7589 47.4644 41.8318 47.2896 41.9192 47.2023C42.0212 47.1149 42.1669 47.1149 42.2834 47.1149L44.0173 47.0712C44.2795 47.0712 44.5418 47.0712 44.804 47.0421C45.0954 47.0129 45.3722 46.9692 45.6636 46.9401C45.8822 46.911 45.6636 46.7216 45.5908 46.6488C45.4742 46.5177 45.3431 46.4012 45.1974 46.3138C44.8914 46.1099 44.4543 45.8332 44.4252 45.3526C44.4252 45.2798 44.4252 45.1924 44.4981 45.1632C44.5418 45.1341 44.5855 45.1487 44.6292 45.1632C44.9206 45.2506 45.1537 45.5856 45.416 45.7458C45.8822 46.0371 46.4213 46.1973 46.9021 46.474C47.1206 46.6051 47.2809 46.809 47.4994 46.9401C47.5431 46.9692 47.5723 46.9838 47.616 46.9984C47.6597 47.0129 47.6888 47.0275 47.7325 47.0275C48.0968 47.1003 48.5339 47.0566 48.9127 46.9547C49.175 47.3333 49.2915 47.8431 49.3935 48.2655C49.4664 48.6004 49.5246 48.95 49.5683 49.2995H49.5975Z" fill="#F7967C"/>
<path d="M46.8283 47.7703C46.6681 47.7412 46.5078 47.7266 46.3621 47.6392C46.2018 47.5518 46.129 47.3771 46.027 47.2314C45.9978 47.1877 45.925 47.1731 45.8667 47.1877C45.8376 47.1877 45.7502 47.2168 45.7793 47.2751C45.8376 47.3625 45.8813 47.4499 45.9396 47.5373C45.9979 47.6246 46.0853 47.6829 46.1727 47.7412C46.3475 47.8431 46.5515 47.8722 46.7555 47.9014C46.7992 47.9014 46.8866 47.9014 46.9157 47.8577C46.9449 47.814 46.8575 47.7849 46.8283 47.7703Z" fill="#5E0C04"/>
<path d="M77.5433 57.9362C77.4122 57.8634 77.2519 57.8488 77.0916 57.878C76.9751 57.9071 76.8731 57.9799 76.8003 58.0673C76.7565 58.0964 76.7128 58.1256 76.6837 58.1838C76.5963 58.3003 76.5671 58.446 76.5817 58.5916C76.6108 58.7955 76.742 58.9557 76.9168 59.0431C76.9751 59.0722 77.0479 59.1014 77.1208 59.1159C77.2665 59.1451 77.4268 59.1159 77.5579 59.0431C77.689 58.9703 77.7619 58.8392 77.8056 58.6936C77.8784 58.4168 77.8056 58.111 77.5287 57.9653L77.5433 57.9362Z" fill="white"/>
<path d="M82.8304 57.9362C82.6993 57.8634 82.539 57.8488 82.3788 57.878C82.2622 57.9071 82.1602 57.9799 82.0874 58.0673C82.0437 58.0964 81.9999 58.1256 81.9708 58.1838C81.8834 58.3003 81.8542 58.446 81.8688 58.5916C81.898 58.7955 82.0291 58.9557 82.2039 59.0431C82.2622 59.0722 82.335 59.1014 82.4079 59.1159C82.5536 59.1451 82.7139 59.1159 82.845 59.0431C82.9761 58.9703 83.049 58.8392 83.0927 58.6936C83.1655 58.4168 83.0927 58.111 82.8159 57.9653L82.8304 57.9362Z" fill="white"/>
<path d="M86.9395 70.8112H83.9381V57.8343C83.9381 57.2954 83.7196 56.9604 83.4719 56.4944C83.2533 56.072 83.0348 55.6642 82.8162 55.2418C81.5778 52.8678 80.3831 50.4647 79.2175 48.047C79.0718 47.7411 78.9261 47.4498 78.795 47.144C78.8387 47.144 78.8824 47.1294 78.897 47.1003C79.4215 46.0662 79.946 45.0176 80.4705 43.9835C80.7328 43.4592 80.995 42.9349 81.2718 42.4105L81.6652 41.6386C81.7235 41.5075 81.7964 41.391 81.8546 41.26C81.8983 41.158 81.9858 41.056 81.9712 40.9395C81.9712 40.8376 81.8838 40.7502 81.8255 40.6774C81.7381 40.5754 81.6361 40.4735 81.5341 40.3715C81.3447 40.1967 81.1407 40.0365 80.9222 39.8909C81.3884 39.6579 81.8546 39.4103 82.3209 39.1772C82.35 39.1772 82.3646 39.1481 82.35 39.119C81.9712 38.216 81.5778 37.3276 81.1553 36.4391C81.1116 36.3663 80.8639 36.3809 80.9076 36.4682C81.3301 37.3421 81.7235 38.216 82.0877 39.1044L80.6599 39.8326C80.6599 39.8326 80.6162 39.8909 80.6599 39.92C80.8785 40.0657 81.0824 40.2113 81.2718 40.3861C81.3593 40.4589 81.4321 40.5463 81.5195 40.6191C81.5924 40.7065 81.7381 40.8085 81.7235 40.9395C81.7235 41.0706 81.6069 41.2017 81.5632 41.3182C81.505 41.4493 81.4321 41.5658 81.3738 41.6969L80.995 42.4397L79.5235 45.3526L78.7221 46.9255C78.5764 46.6197 78.4307 46.2992 78.2705 46.008C78.2413 45.9643 78.2268 45.9206 78.183 45.8914C78.1393 45.8623 78.0811 45.8623 78.0519 45.8914C78.0228 45.9206 78.0373 45.9643 78.0519 46.008C78.1102 46.2701 78.2996 46.5468 78.4162 46.7944C78.5473 47.0712 78.6784 47.3624 78.8095 47.6392C79.9606 50.0569 81.1553 52.46 82.3937 54.8486C82.7288 55.4894 83.0639 56.1302 83.4136 56.7711C81.7089 54.6447 80.0188 52.5328 78.3142 50.4064C76.6095 48.28 74.9048 46.1682 73.375 43.9252C73.1565 43.6048 72.9525 43.2844 72.7485 42.964C72.6465 42.8038 72.5445 42.6436 72.4425 42.4834C72.3551 42.3377 72.2094 42.1629 72.1657 41.9882C72.1366 41.7988 72.3114 41.6532 72.428 41.5221L72.8651 41.056C73.1419 40.7648 73.4187 40.4589 73.6955 40.1676C73.7393 40.1239 73.6955 40.0948 73.6518 40.0802C73.0399 39.8763 72.3843 39.7889 71.7432 39.8035C72.2823 38.4781 72.8359 37.1382 73.375 35.8129C73.4187 35.7255 73.1565 35.6963 73.1273 35.7837L71.4518 39.8618C71.4518 39.8618 71.5392 39.9492 71.5829 39.9492C72.2094 39.92 72.8214 39.9928 73.4187 40.1822C73.1856 40.4298 72.9671 40.6774 72.7339 40.9104C72.4862 41.1726 72.224 41.4202 72.0054 41.6969C71.8015 41.959 71.9763 42.1921 72.122 42.4251C72.2968 42.7164 72.4863 43.0077 72.6757 43.299C73.4333 44.4641 74.2346 45.5856 75.0651 46.6779C76.7843 48.95 78.6056 51.1492 80.3831 53.363C81.4175 54.6447 82.4374 55.9409 83.4719 57.2226C83.501 57.2663 83.5884 57.2663 83.6467 57.2517C83.6613 57.2808 83.6759 57.3245 83.705 57.3537V70.7821H69.0186C68.8584 70.7821 68.8584 70.9132 69.0186 70.9132H86.9541C87.1143 70.9132 87.1143 70.7821 86.9541 70.7821L86.9395 70.8112Z" fill="#55788E"/>
<path d="M66.3521 42.8038C66.3521 42.7164 66.0898 42.7164 66.0898 42.8038C66.2793 44.4204 66.6144 46.0079 67.066 47.5663C67.0952 47.6392 67.3428 47.6246 67.3137 47.5372C66.862 45.9934 66.5415 44.4058 66.3521 42.8038Z" fill="#55788E"/>
<path d="M86.7505 49.853C86.7505 49.7656 86.4883 49.7656 86.4883 49.853C86.532 50.3773 86.5903 50.9016 86.634 51.4259C86.634 51.5133 86.8962 51.5133 86.8962 51.4259C86.8525 50.9016 86.7942 50.3773 86.7505 49.853Z" fill="#55788E"/>
<path d="M74.4238 65.1602H69.5138C69.1204 65.1602 68.8145 64.8398 68.8145 64.4611V62.9027C68.8145 62.5095 69.135 62.2036 69.5138 62.2036H74.4238C74.8172 62.2036 75.1232 62.524 75.1232 62.9027V64.4611C75.1232 64.8543 74.8026 65.1602 74.4238 65.1602ZM69.5138 62.4512C69.2661 62.4512 69.0621 62.6551 69.0621 62.9027V64.4611C69.0621 64.7087 69.2661 64.9126 69.5138 64.9126H74.4238C74.6715 64.9126 74.8755 64.7087 74.8755 64.4611V62.9027C74.8755 62.6551 74.6715 62.4512 74.4238 62.4512H69.5138Z" fill="#55788E"/>
<path d="M79.96 75.3844C79.7706 77.9769 79.5375 80.5694 79.2461 83.1473C79.2461 83.2347 79.4938 83.2347 79.5084 83.1473C79.7997 80.5694 80.0329 77.9769 80.2223 75.3844C80.2223 75.2971 79.9746 75.2971 79.96 75.3844Z" fill="#55788E"/>
<path d="M71.6845 28.0209C71.16 28.6908 70.7811 29.7395 70.8977 30.5988C70.9705 31.1085 71.2328 31.6183 71.1308 32.1281C71.0725 32.3902 70.9123 32.6232 70.7957 32.8708C70.5189 33.4097 70.4315 34.036 70.5189 34.6331C70.5335 34.7351 70.5626 34.837 70.6354 34.8953C70.7083 34.9681 70.8249 34.9827 70.9268 34.9827C72.5295 35.1138 74.1176 35.2303 75.7203 35.3614C76.1865 35.3905 76.6528 35.4342 77.119 35.4196C77.8038 35.4051 78.5031 35.274 79.1879 35.2448C79.829 35.2157 80.4701 35.274 81.1111 35.2157C81.7085 35.1575 82.539 35.1138 82.4661 34.371C82.437 34.1088 82.4078 33.8321 82.3059 33.5845C82.2039 33.3369 82.0436 33.1184 81.9853 32.8563C81.8979 32.4776 82.029 32.0989 82.1019 31.7202C82.1747 31.327 82.1893 30.9192 82.0873 30.5405C81.9562 30.0745 81.6356 29.6667 81.5191 29.186C81.4317 28.8219 81.4608 28.4432 81.4171 28.0646C81.3005 27.1761 80.7323 26.4042 80.3826 25.6032C80.0912 24.9332 79.4356 24.4672 78.7508 24.2341C78.1098 24.0157 77.4541 23.9865 76.7839 23.9428C76.2302 23.9137 75.764 24.0885 75.2395 24.2633C74.5693 24.4817 73.8554 24.7876 73.36 25.3119C72.8355 25.8799 72.8792 26.7101 72.3984 27.2927C72.1944 27.5403 71.9176 27.715 71.7136 27.9626C71.7136 27.9626 71.699 27.9772 71.6845 27.9917V28.0209Z" fill="#E63950"/>
<path d="M78.8672 34.9245C78.8672 35.3323 78.9401 35.711 78.9255 36.0896C78.9255 36.3372 78.8672 36.5703 78.7507 36.8179C78.5904 37.1674 78.3282 37.4587 78.0805 37.75C77.658 38.2306 77.352 37.9976 76.8712 37.7208C76.3175 37.415 75.7785 37.1091 75.2248 36.7887C75.0645 36.7013 74.9043 36.614 74.7586 36.4974C74.5837 36.3809 74.3943 36.1916 74.336 35.9586C74.2778 35.6964 74.3797 35.376 74.4089 35.1138C74.4963 34.4584 74.5546 33.803 74.5983 33.1476C74.6129 32.8563 74.5546 32.3174 74.7003 32.0553C74.8606 31.7786 75.1957 31.9533 75.4433 31.9388L77.5705 31.8368C77.9785 31.8223 78.707 31.6183 78.7653 32.3029C78.7653 32.3466 78.7653 32.4048 78.7653 32.4485L78.8381 34.7788C78.8381 34.7788 78.8381 34.8371 78.8381 34.8662L78.8672 34.9245Z" fill="#F7967C"/>
<path d="M78.7939 32.5068L78.8668 34.8371C78.7065 35.0556 78.5025 35.2449 78.2694 35.3469C77.876 35.5071 77.4389 35.5216 77.031 35.4197C76.2151 35.2303 75.4283 34.6332 75.1369 33.8467C74.9038 33.235 75.1078 32.9146 75.6177 32.667C76.0694 32.4485 76.5648 32.3757 77.0601 32.3611C77.4389 32.3611 77.7886 32.4777 78.1529 32.4777C78.2257 32.4777 78.2986 32.4777 78.3714 32.4777C78.5171 32.4777 78.6482 32.4777 78.7794 32.5068H78.7939Z" fill="#5E0C04"/>
<path d="M79.1017 25.6761C78.3004 25.0935 77.4262 24.8022 76.4355 25.0207C75.5321 25.2246 74.7017 25.7197 74.1189 26.4334C73.1573 27.5986 73.0116 29.0113 73.3467 30.4386C73.5361 31.2542 73.8858 32.0262 74.3374 32.7252C74.8037 33.468 75.4156 34.138 76.1878 34.6041C76.96 35.0701 78.2713 35.1575 79.0143 34.5312C79.5243 34.0797 79.9031 33.5991 80.1216 32.9291C80.1945 32.6961 80.2528 32.4631 80.311 32.2301C80.5733 31.0358 80.5587 29.958 80.4422 28.7346C80.3402 27.6859 80.0633 26.4917 79.2329 25.778C79.1892 25.7489 79.1455 25.7052 79.1017 25.6761Z" fill="#F7967C"/>
<path d="M73.084 31.5164C72.8946 31.5164 72.6906 31.2979 72.6032 31.1377C72.4721 30.9047 72.4575 30.6425 72.4429 30.3949C72.3701 28.8511 72.8363 27.249 73.8416 26.0693C73.9145 25.9819 73.9873 25.8945 74.0747 25.8071C74.5701 25.2828 75.1821 24.875 75.8523 24.5983C76.4496 24.3507 77.2947 24.1176 77.9357 24.2778C79.1887 24.5837 80.3398 25.676 80.8351 26.8412C80.9954 27.2199 81.0391 27.6131 81.0682 28.0209C81.0828 28.3413 81.0974 28.6763 81.1411 28.9967C81.1848 29.288 81.2868 29.5502 81.0682 29.7832C80.9954 29.856 80.8788 29.9143 80.7769 29.8706C80.5437 29.7978 80.3835 29.2298 80.2815 29.0258C80.1212 28.6909 80.0047 28.3413 79.9318 27.9772C79.859 27.584 79.7861 27.1616 79.5967 26.7975C79.451 26.5208 79.247 26.2586 78.9993 26.0838C78.3291 25.6178 77.2218 25.7052 76.8139 26.4771C76.4933 27.0742 76.6536 27.8898 76.1874 28.385C75.9688 28.618 75.6337 28.7491 75.4297 29.0113C75.284 29.2006 75.2258 29.4337 75.0946 29.623C74.9052 29.8706 74.6284 30.0017 74.3661 30.1619C74.0893 30.3367 73.9436 30.6279 73.7688 30.8901C73.6377 31.0794 73.3463 31.5309 73.0986 31.5455L73.084 31.5164Z" fill="#E63950"/>
<path d="M76.9596 29.0696C76.9596 29.0696 76.843 29.1424 76.7702 29.1569C76.6099 29.1861 76.4496 29.2152 76.2894 29.2006C76.0708 29.2006 75.8377 29.1569 75.6192 29.2443C75.488 29.288 75.386 29.3754 75.2841 29.4482C75.2258 29.5065 75.1529 29.5793 75.0801 29.6084C75.1675 29.4919 75.2258 29.3608 75.2841 29.2298C75.3715 29.1715 75.4589 29.1132 75.5172 29.0696C75.896 28.822 76.3331 28.6909 76.7847 28.7346C76.945 28.7491 77.1344 28.9239 76.9596 29.0696Z" fill="#9E554E"/>
<path d="M78.0516 29.6958C77.9205 29.7249 78.0079 30.0745 78.0225 30.1619C78.0662 30.3512 78.1245 30.5405 78.2119 30.7153C78.3139 30.9338 78.4742 31.1231 78.5761 31.3416C78.7073 31.6183 78.3867 31.8222 78.1828 31.9242C78.0808 31.9824 78.1828 32.0407 78.2556 31.997C78.445 31.9096 78.6927 31.7494 78.7655 31.5455C78.8093 31.4435 78.7656 31.3416 78.7218 31.2396C78.649 31.1231 78.5761 31.0066 78.5033 30.8901C78.4013 30.7153 78.3139 30.526 78.2556 30.3221C78.2265 30.2201 78.1973 30.1182 78.1828 30.0162C78.1828 29.9288 78.1828 29.7832 78.139 29.7249C78.1245 29.7104 78.0953 29.6958 78.0808 29.6958H78.0516Z" fill="#5E0C04"/>
<path d="M80.2378 28.9385C80.2378 28.9385 80.1649 28.8948 80.1212 28.8802C80.0192 28.8219 79.9318 28.7637 79.8298 28.7346C79.6987 28.6909 79.553 28.6763 79.4219 28.6909C79.2907 28.72 79.1742 28.7928 79.0431 28.8365C78.9556 28.8656 78.8682 28.8948 78.7808 28.8948C78.6934 28.8948 78.606 28.8948 78.5768 28.8074C78.4603 28.5743 78.7371 28.5161 78.8682 28.487C79.1159 28.4433 79.349 28.4141 79.5967 28.4578C79.8007 28.487 79.961 28.5743 80.1358 28.7054C80.1649 28.7783 80.1941 28.8656 80.2378 28.9385Z" fill="#9E554E"/>
<path d="M76.5232 30.0017C76.5232 30.0017 76.3483 29.9434 76.2755 30.0017C76.2026 30.0308 76.1443 30.0745 76.1006 30.1473C76.0424 30.2347 76.0424 30.3512 76.0569 30.4677C76.0715 30.5697 76.1006 30.6571 76.1735 30.7444C76.2463 30.8318 76.3629 30.8464 76.4649 30.8027C76.4794 30.8027 76.494 30.7881 76.5086 30.7736C76.5086 30.7736 76.5232 30.7736 76.5377 30.759C76.5523 30.759 76.5814 30.7299 76.596 30.7153C76.6689 30.6279 76.6834 30.4823 76.6689 30.3803C76.6689 30.3075 76.6397 30.2493 76.6106 30.1764C76.5814 30.1182 76.5523 30.0745 76.5232 30.0308V30.0017Z" fill="#723737"/>
<path d="M79.6113 29.7249C79.6113 29.7249 79.451 29.6521 79.3636 29.6958C79.2908 29.7103 79.2179 29.754 79.1742 29.8123C79.1159 29.8997 79.0868 30.0162 79.1014 30.1182C79.1014 30.2201 79.1305 30.3221 79.1888 30.3949C79.2616 30.4823 79.3636 30.526 79.4802 30.4968C79.4948 30.4968 79.5093 30.4968 79.5239 30.4823C79.5239 30.4823 79.5385 30.4823 79.553 30.4677C79.5676 30.4677 79.5967 30.4386 79.6113 30.424C79.6987 30.3366 79.7279 30.2055 79.7133 30.089C79.7133 30.0162 79.6987 29.9434 79.6696 29.8851C79.655 29.8269 79.6259 29.7686 79.5967 29.7249H79.6113Z" fill="#723737"/>
<path d="M78.5922 32.8563C78.5922 32.8563 78.6214 32.798 78.6214 32.7543C78.6651 32.463 78.3737 32.5796 78.228 32.6232C77.9075 32.7106 77.5286 32.6232 77.1935 32.6378C77.0187 32.6378 76.9459 32.7252 76.975 32.9C77.0187 33.1621 77.4412 33.235 77.6598 33.2495C77.9803 33.2641 78.33 33.1913 78.534 32.9437C78.5631 32.9145 78.5777 32.8854 78.5922 32.8563Z" fill="white"/>
<path d="M73.4913 30.1764C73.4913 30.1764 73.433 30.2056 73.4039 30.2201C73.1854 30.3366 73.0397 30.5551 72.996 30.8027C72.9522 31.0357 72.996 31.2979 73.0688 31.5164C73.1999 31.8513 73.433 32.1426 73.7244 32.3465C73.8556 32.4339 73.9867 32.5067 74.147 32.5067C74.3364 32.5067 74.5258 32.4339 74.5986 32.2591C74.6278 32.1572 74.6423 32.0552 74.6423 31.9533C74.6423 31.8659 74.5841 31.7931 74.5841 31.7203C74.5404 31.429 74.5841 31.1231 74.5258 30.8318C74.4384 30.3658 73.9576 29.9871 73.4913 30.1764Z" fill="#F7967C"/>
<path d="M76.0268 26.477C75.8957 27.0014 75.75 27.5257 75.444 27.9772C75.3129 28.1811 75.1526 28.3559 74.9487 28.5015C74.7156 28.6763 74.4533 28.7491 74.1765 28.8365C74.0599 28.8656 74.2056 28.9384 74.2785 28.9239C74.5407 28.8511 74.8175 28.7637 75.0507 28.618C75.2546 28.4869 75.4295 28.3122 75.5752 28.1083C75.9103 27.6422 76.0705 27.0596 76.2162 26.5062C76.2308 26.4334 76.0414 26.4188 76.0268 26.477Z" fill="#F49262"/>
<path d="M75.182 26.7392C75.0946 27.4092 74.4681 27.7878 73.9144 28.0791C73.8853 28.0937 73.8853 28.1228 73.9144 28.152C73.9581 28.1665 74.0164 28.1665 74.0456 28.152C74.6284 27.8461 75.2694 27.4529 75.3714 26.7538C75.3714 26.6955 75.182 26.681 75.182 26.7538V26.7392Z" fill="#F49262"/>
<path d="M74.4684 25.1371C74.4684 25.1371 74.3664 25.108 74.3373 25.1371C74.0022 25.341 73.7691 25.676 73.6816 26.0692C73.6816 26.1275 73.8565 26.142 73.871 26.0692C73.9439 25.7197 74.1624 25.3993 74.4684 25.2099C74.4976 25.1953 74.5121 25.1662 74.4684 25.1371Z" fill="#F49262"/>
<path d="M71.5102 29.3316C71.3354 29.754 71.3208 30.2346 71.4665 30.6716C71.4811 30.7298 71.6705 30.7153 71.6559 30.6424C71.5102 30.2201 71.5394 29.754 71.6996 29.3462C71.7288 29.2734 71.5394 29.2588 71.5102 29.3171V29.3316Z" fill="#F49262"/>
<path d="M71.6852 34.1671C71.219 33.7447 71.3501 33.0602 71.4813 32.5213C71.4813 32.463 71.3064 32.4485 71.2919 32.5213C71.1607 33.0747 71.0296 33.7738 71.525 34.2108C71.5687 34.2545 71.7581 34.2108 71.6852 34.1671Z" fill="#F49262"/>
<path d="M72.3545 33.9777C72.1214 33.701 72.034 33.3223 72.0923 32.9728C72.0923 32.9145 71.9175 32.8999 71.9029 32.9728C71.8446 33.3369 71.9466 33.7156 72.1651 34.0068C72.1943 34.036 72.238 34.0505 72.2817 34.036C72.2963 34.036 72.3837 34.0068 72.3545 33.9777Z" fill="#F49262"/>
<path d="M81.4323 30.4968C81.4323 30.4968 81.2138 30.4677 81.2429 30.5259C81.5489 30.992 81.6363 31.6037 81.4615 32.1426C81.4323 32.2154 81.6217 32.23 81.6509 32.1717C81.8257 31.6182 81.7529 30.992 81.4323 30.5113V30.4968Z" fill="#F49262"/>
</g>
</g>
<defs>
<clipPath id="clip0_347_5396">
<rect width="139.102" height="120" fill="white" transform="translate(0 0.612793)"/>
</clipPath>
<clipPath id="clip1_347_5396">
<rect width="74" height="106" fill="white" transform="translate(29.418 12)"/>
</clipPath>
</defs>
</svg>
