<svg width="140" height="121" viewBox="0 0 140 121" fill="none" xmlns="http://www.w3.org/2000/svg">
<g clip-path="url(#clip0_347_5846)">
<path d="M30.8678 98.2142C21.9312 89.9521 17.4402 77.7418 17.4402 61.597C17.4402 45.452 21.9314 33.2425 30.867 25.0479C39.8097 16.8467 52.7124 12.6907 69.6207 12.6907C86.529 12.6907 99.4317 16.8467 108.374 25.0479C117.31 33.2425 121.801 45.452 121.801 61.597C121.801 77.7418 117.31 89.9521 108.374 98.2142C99.4311 106.482 86.5291 110.638 69.6207 110.638C52.7124 110.638 39.8103 106.482 30.8678 98.2142Z" stroke="#E63950" stroke-width="0.595238"/>
<path d="M112.064 109.29C118.073 104.774 122.112 98.3623 125.245 91.7685C131.037 79.5856 131.183 59.6106 117.572 51.4907C109.288 46.5484 102.125 54.7279 97.2396 43.8328C96.1754 41.457 95.7909 38.8547 95.2036 36.3269C92.9978 26.8446 87.3162 17.7291 78.2572 13.3174C69.1983 8.90563 56.61 10.4259 50.2965 18.2358C47.5988 21.5744 46.0994 25.8252 42.6922 28.5169C35.1177 34.5026 29.6031 32.5113 20.9615 36.9797C13.077 41.0546 5.23727 52.8857 4.57849 57.065C0.786794 81.1178 12.8713 88.1944 23.838 101.269C33.0401 112.241 38.3341 112.539 52.4844 116.733C66.6347 120.928 85.3011 122.355 98.0295 114.736" stroke="#D1A092" stroke-miterlimit="10"/>
<g clip-path="url(#clip1_347_5846)">
<path d="M97.1327 101.11C96.3327 100.07 95.5827 98.94 94.8727 97.72C94.8327 97.66 94.8027 97.6 94.7627 97.54C94.1327 96.44 93.5227 95.29 92.9527 94.08C92.9527 94.08 92.9494 94.0734 92.9427 94.06C92.9427 94.06 92.8927 93.96 92.8727 93.91H92.8627C92.8627 93.91 92.8427 93.86 92.8327 93.84C92.3227 92.74 91.8227 91.61 91.3527 90.44C91.3527 90.44 91.3327 90.4 91.3327 90.39C91.3227 90.37 91.3127 90.35 91.3127 90.33C91.3127 90.32 91.3127 90.31 91.2927 90.3C91.2927 90.28 91.2827 90.27 91.2827 90.26C91.2727 90.24 91.2627 90.21 91.2527 90.19C91.1227 89.86 90.9827 89.52 90.8527 89.18C90.8327 89.12 90.8127 89.06 90.7827 89C90.6827 88.73 90.5827 88.45 90.4827 88.18C90.4827 88.18 90.4794 88.1734 90.4727 88.16C90.5127 88.06 90.5527 87.97 90.6027 87.88C90.6627 87.79 90.7327 87.72 90.8327 87.67C90.8627 87.66 90.8927 87.65 90.9127 87.65H90.9527V85.03H89.3827C89.3827 85.03 89.3527 84.94 89.3327 84.9C89.1027 84.18 88.8727 83.46 88.6427 82.73L88.6127 82.64C88.6127 82.64 88.6027 82.58 88.5927 82.55C88.5927 82.55 88.5927 82.54 88.5827 82.54C88.5827 82.52 88.5827 82.51 88.5727 82.5C88.3527 81.78 88.1427 81.05 87.9427 80.33C87.9227 80.28 87.9127 80.22 87.8927 80.17V80.15V80.13C87.6827 79.39 87.4827 78.65 87.2827 77.91C87.2827 77.88 87.2727 77.85 87.2627 77.82C87.2527 77.79 87.2527 77.76 87.2427 77.73C87.0627 77.06 86.8927 76.4 86.7327 75.74H87.6127V74.66H86.4727C86.4727 74.66 86.4627 74.62 86.4527 74.6V74.57C86.1627 73.38 85.9027 72.2 85.6527 71.05C85.6327 70.99 85.6227 70.93 85.6127 70.87C85.4327 70.01 85.2627 69.17 85.0927 68.35C85.0827 68.29 85.0727 68.23 85.0527 68.17C84.8827 67.31 84.7227 66.46 84.5727 65.64C84.5627 65.61 84.5627 65.58 84.5527 65.55C84.5427 65.52 84.5427 65.49 84.5327 65.46C84.3727 64.58 84.2227 63.74 84.0827 62.94L84.0527 62.76C83.9027 61.88 83.7627 61.04 83.6327 60.24V60.21C83.6327 60.21 83.6227 60.13 83.6127 60.09C83.6127 60.08 83.6127 60.06 83.6027 60.05C83.4627 59.15 83.3327 58.3 83.2227 57.53C83.2227 57.51 83.2227 57.49 83.2127 57.47V57.45C83.2127 57.45 83.2027 57.38 83.2027 57.35C83.2027 57.33 83.2027 57.32 83.2027 57.31C83.0727 56.42 82.9627 55.61 82.8727 54.92C82.8727 54.89 82.8627 54.86 82.8627 54.82C82.8527 54.75 82.8427 54.69 82.8427 54.64C82.6927 53.51 82.6027 52.71 82.5627 52.33C82.5627 52.32 82.5627 52.31 82.5527 52.3C82.5527 52.22 82.5427 52.16 82.5327 52.12H83.2327V50.31H82.6027V49.59H81.3827V44.9H80.6627V49.59H79.4427V50.31H78.8127V52.12H79.5027C79.5027 52.12 79.5027 52.22 79.4827 52.3V52.33C79.4427 52.71 79.3527 53.51 79.2027 54.64C79.2027 54.68 79.1927 54.72 79.1927 54.76C79.1827 54.78 79.1827 54.8 79.1827 54.82C79.1727 54.86 79.1727 54.9 79.1627 54.94C79.0727 55.63 78.9727 56.42 78.8427 57.31C78.8427 57.32 78.8427 57.33 78.8427 57.35C78.8427 57.35 78.8327 57.42 78.8327 57.45C78.8227 57.47 78.8227 57.5 78.8227 57.53C78.8227 57.53 78.8227 57.54 78.8127 57.55C78.7027 58.32 78.5827 59.16 78.4427 60.05C78.4327 60.06 78.4327 60.08 78.4327 60.09C78.4327 60.14 78.4127 60.18 78.4127 60.23C78.2827 61.03 78.1427 61.88 77.9927 62.76C77.9827 62.8 77.9727 62.85 77.9727 62.9V62.93V62.94C77.8327 63.75 77.6827 64.59 77.5227 65.46C77.5027 65.52 77.4927 65.58 77.4827 65.64C77.3327 66.46 77.1727 67.31 76.9927 68.17L76.9627 68.35C76.7927 69.17 76.6227 70.02 76.4327 70.87C76.4227 70.93 76.4127 70.99 76.3927 71.05C76.1427 72.2 75.8827 73.37 75.6027 74.55C75.5927 74.59 75.5827 74.62 75.5727 74.66H74.5727V75.74H75.3127C75.1427 76.4 74.9827 77.06 74.8027 77.73C74.7927 77.79 74.7727 77.85 74.7527 77.91C74.5627 78.64 74.3627 79.38 74.1527 80.12C74.1527 80.13 74.1527 80.14 74.1527 80.15C74.1527 80.16 74.1527 80.18 74.1427 80.19C74.1327 80.23 74.1127 80.28 74.1027 80.33C73.8927 81.06 73.6827 81.79 73.4627 82.51V82.53C73.4627 82.53 73.4527 82.54 73.4527 82.55C73.4527 82.57 73.4527 82.58 73.4527 82.6C73.4427 82.61 73.4427 82.62 73.4427 82.63C73.4327 82.65 73.4227 82.67 73.4227 82.69C73.4227 82.7 73.4227 82.72 73.4027 82.73C73.1827 83.46 72.9627 84.18 72.7227 84.89C72.7027 84.94 72.6927 84.98 72.6727 85.03H71.0927V87.65H71.1427C71.1427 87.65 71.1927 87.66 71.2227 87.67C71.2527 87.69 71.2827 87.71 71.3127 87.74C71.3627 87.77 71.4127 87.82 71.4527 87.88C71.4727 87.92 71.5027 87.97 71.5127 88.02C71.5427 88.07 71.5627 88.12 71.5827 88.17C71.3227 88.87 71.0527 89.57 70.7727 90.26C70.7727 90.26 70.7627 90.29 70.7627 90.3C70.7427 90.35 70.7227 90.39 70.7027 90.44C70.2227 91.62 69.7227 92.77 69.2027 93.87C69.2027 93.88 69.1927 93.89 69.1927 93.9L69.1627 93.96C69.1627 93.96 69.1527 93.98 69.1427 94V94.03C69.1427 94.03 69.1127 94.06 69.1027 94.08C68.5327 95.28 67.9227 96.44 67.2927 97.54C67.2527 97.6 67.2227 97.66 67.1827 97.72C66.4627 98.95 65.6927 100.1 64.8927 101.15C64.8627 101.19 64.8327 101.23 64.8027 101.26H70.9827C70.9827 101.26 71.0027 101.23 71.0327 101.18C71.1927 100.87 71.8027 99.7 72.6427 97.75C72.6527 97.74 72.6527 97.73 72.6627 97.72C72.6627 97.69 72.6827 97.66 72.7027 97.63C72.7027 97.6 72.7227 97.57 72.7427 97.54C72.7627 97.47 72.7927 97.41 72.8127 97.35C72.8627 97.25 72.9127 97.14 72.9527 97.02H72.9727C72.9727 97.02 73.0027 96.92 73.0227 96.87C73.1627 96.53 73.3127 96.17 73.4627 95.79C73.5627 95.58 73.6727 95.38 73.8027 95.18C74.0327 94.79 74.2927 94.42 74.5827 94.08C74.6427 94.02 74.6927 93.96 74.7427 93.9C76.2927 92.16 78.5527 91.07 81.0627 91.07C83.5727 91.07 85.8327 92.16 87.3827 93.9L87.5327 94.08C87.8427 94.43 88.1127 94.82 88.3427 95.22C88.4627 95.4 88.5627 95.6 88.6627 95.79C88.8127 96.17 88.9627 96.53 89.1027 96.87C89.1227 96.92 89.1427 96.97 89.1527 97.02H89.1727C89.2227 97.15 89.2727 97.27 89.3227 97.38C89.3427 97.44 89.3727 97.5 89.3927 97.56C89.4127 97.6 89.4327 97.64 89.4427 97.68C89.4527 97.69 89.4627 97.7 89.4627 97.72C89.8927 98.7 90.2527 99.48 90.5327 100.06C90.8127 100.64 91.0127 101.02 91.0927 101.18C91.1227 101.23 91.1427 101.26 91.1427 101.26H97.3127C97.2727 101.21 97.2327 101.16 97.2027 101.11H97.1327ZM77.0127 85C77.0127 85 77.0127 84.96 77.0227 84.95C77.2127 84.25 77.4027 83.53 77.5927 82.8C77.5927 82.78 77.5927 82.75 77.6127 82.73C77.6227 82.67 77.6427 82.61 77.6527 82.55C77.8327 81.83 78.0127 81.09 78.1927 80.33C78.2027 80.27 78.2227 80.21 78.2327 80.15C78.4027 79.43 78.5627 78.7 78.7227 77.94C78.7227 77.93 78.7227 77.92 78.7327 77.91H83.2527C83.2527 77.91 83.2527 77.94 83.2527 77.95C83.4127 78.7 83.5727 79.43 83.7427 80.15L83.7727 80.3C83.7727 80.3 83.7827 80.32 83.7827 80.33C83.9627 81.1 84.1427 81.84 84.3227 82.55C84.3227 82.56 84.3227 82.57 84.3327 82.58C84.3327 82.61 84.3327 82.64 84.3527 82.67C84.3527 82.67 84.3527 82.7 84.3627 82.72C84.3627 82.72 84.3827 82.78 84.3827 82.81C84.5727 83.54 84.7627 84.25 84.9527 84.94C84.9527 84.97 84.9527 85 84.9727 85.03H76.9927C76.9927 85.03 76.9927 85.01 76.9927 85H77.0127Z" fill="#7FAFC6"/>
<path d="M90.943 84.94H89.353C89.353 84.94 89.353 84.91 89.343 84.9L87.003 83.82L88.653 82.74C88.653 82.74 88.633 82.67 88.623 82.64C88.623 82.64 88.603 82.58 88.593 82.56C88.593 82.56 88.593 82.55 88.593 82.54C88.593 82.53 88.593 82.52 88.583 82.5L86.363 81.41L87.923 80.33H87.953C87.933 80.28 87.923 80.22 87.903 80.17C87.903 80.17 87.903 80.16 87.903 80.15V80.13L85.693 78.99L87.193 77.91H87.293C87.293 77.91 87.273 77.85 87.273 77.82C87.273 77.79 87.253 77.76 87.253 77.73H87.203L85.843 76.68L86.753 75.83H87.623V75.65H74.543V75.83H75.233L76.163 76.69L74.873 77.72H74.773C74.753 77.78 74.743 77.84 74.723 77.9H74.813L76.313 78.98L74.123 80.11C74.123 80.11 74.113 80.16 74.103 80.18C74.093 80.23 74.073 80.27 74.063 80.32H74.073L75.643 81.41L73.433 82.51C73.433 82.51 73.433 82.53 73.423 82.54V82.58H73.413C73.413 82.61 73.393 82.64 73.383 82.67C73.383 82.69 73.383 82.7 73.373 82.72L75.013 83.8L72.693 84.88C72.693 84.88 72.683 84.91 72.673 84.93H71.043V85.11H90.973V84.93L90.943 84.94ZM89.003 84.94H85.293L86.833 83.93L89.003 84.94ZM77.603 82.8C77.603 82.8 77.613 82.76 77.623 82.74C77.623 82.72 77.623 82.7 77.633 82.69C77.633 82.69 77.633 82.65 77.643 82.64C77.643 82.62 77.653 82.59 77.663 82.57H77.593L75.983 81.46L78.193 80.35V80.34C78.203 80.28 78.223 80.22 78.233 80.17H78.213L76.643 79.04L78.723 77.97H78.743L78.733 77.93H83.243H83.253C83.253 77.93 83.253 77.96 83.253 77.98L85.313 79.04L83.743 80.17C83.753 80.22 83.763 80.27 83.773 80.32C83.773 80.32 83.773 80.34 83.773 80.35C83.773 80.35 83.773 80.35 83.773 80.36L85.963 81.46L84.353 82.57H84.303C84.303 82.57 84.303 82.6 84.313 82.61C84.313 82.63 84.323 82.66 84.333 82.68C84.333 82.69 84.333 82.71 84.333 82.72C84.333 82.72 84.333 82.74 84.333 82.75C84.333 82.77 84.343 82.8 84.353 82.82L86.573 83.85L84.913 84.95H76.973L75.323 83.84L77.553 82.81L77.603 82.8ZM84.443 75.84L85.553 76.7L84.443 77.73L83.423 76.79L84.443 75.84ZM80.983 76.91L81.873 77.73H80.093L80.983 76.91ZM79.833 77.73L78.813 76.79L79.833 75.85L80.853 76.79L79.833 77.73ZM81.113 76.79L82.133 75.85L83.153 76.79L82.133 77.73L81.113 76.79ZM83.283 76.91L84.173 77.73H82.393L83.283 76.91ZM83.283 76.66L82.393 75.84H84.173L83.283 76.66ZM80.983 76.66L80.093 75.84H81.873L80.983 76.66ZM78.683 76.66L77.793 75.84H79.573L78.683 76.66ZM78.553 76.78L77.533 77.72L76.433 76.7L77.533 75.83L78.553 76.78ZM78.683 76.9L79.573 77.72H77.793L78.683 76.9ZM86.813 83.72L84.683 82.73H88.303L86.813 83.72ZM88.233 82.55H84.723L86.193 81.53L88.233 82.55ZM86.193 81.31L84.193 80.32H87.613L86.193 81.31ZM87.553 80.14H84.083L85.523 79.1L87.543 80.14H87.553ZM85.513 78.89L83.593 77.9H86.893L85.523 78.89H85.513ZM86.903 77.72H84.713L85.713 76.8L86.913 77.72H86.903ZM85.693 76.56L84.743 75.83H86.483L85.693 76.56ZM75.493 75.83H77.243L76.303 76.58L75.493 75.83ZM76.293 76.82L77.273 77.73H75.163L76.293 76.82ZM75.123 77.91H78.423L76.503 78.9L75.133 77.91H75.123ZM77.923 80.15H74.453L76.473 79.11L77.913 80.15H77.923ZM74.393 80.33H77.823L75.833 81.32L74.393 80.33ZM77.293 82.55H73.783L75.823 81.53L77.293 82.55ZM73.763 82.73H77.333L75.223 83.71L73.763 82.73ZM75.183 83.93L76.713 84.94H73.003L75.173 83.93H75.183Z" fill="#55788E"/>
<path d="M97.1324 101.11L93.2024 99.29L94.7624 97.72H94.8724C94.8324 97.66 94.8024 97.6 94.7624 97.54H94.7424L91.2324 95.72L92.9224 94.08H92.9524C92.9524 94.08 92.9424 94.07 92.9424 94.06C92.9124 94.01 92.8924 93.96 92.8724 93.91H92.8624C92.8624 93.91 92.8424 93.86 92.8324 93.84L89.7924 92.08L91.3324 90.44H91.3524C91.3524 90.44 91.3324 90.4 91.3324 90.39C91.3224 90.37 91.3124 90.35 91.3124 90.33C91.3124 90.32 91.3124 90.31 91.2924 90.3C91.2924 90.28 91.2824 90.27 91.2824 90.26C91.2724 90.24 91.2624 90.21 91.2524 90.19L90.1424 89.18H90.8524C90.8324 89.12 90.8124 89.06 90.7824 89H89.9424L89.9124 88.97L90.4824 88.18L90.8024 87.74H90.9324V87.56H89.7424V86.29H90.9324V86.11H71.0024V86.29H72.2324V87.56H71.0024V87.74H71.2424L71.4424 88.02L72.1324 88.97L72.0924 89H71.2024V89.18H71.8924L70.7024 90.26C70.7024 90.26 70.6924 90.29 70.6924 90.3C70.6724 90.35 70.6524 90.39 70.6324 90.44H70.6924L72.2424 92.08L69.1324 93.87C69.1324 93.87 69.1224 93.89 69.1224 93.9L69.0924 93.96C69.0924 93.96 69.0824 93.98 69.0724 94V94.03C69.0724 94.03 69.0424 94.06 69.0324 94.08H69.1024L70.7524 95.67L67.2824 97.54H67.2224C67.1824 97.6 67.1524 97.66 67.1124 97.72H67.2724L68.8324 99.29L64.8224 101.15C64.8224 101.15 64.7624 101.23 64.7324 101.26H65.0124L68.9624 99.43L70.7924 101.26H71.0224C71.1924 100.93 72.3024 98.82 73.7324 95.18C73.8724 94.83 74.0124 94.46 74.1524 94.08H74.5124C74.5724 94.02 74.6224 93.96 74.6724 93.9H74.2224C74.6124 92.85 75.0324 91.69 75.4424 90.44H86.5324C86.9524 91.69 87.3624 92.85 87.7624 93.9H87.3124L87.4624 94.08H87.8324C87.8324 94.08 87.8524 94.15 87.8724 94.18C88.0124 94.54 88.1424 94.89 88.2724 95.22C89.6924 98.83 90.7924 100.94 90.9624 101.26H91.2424L93.0624 99.42L97.0324 101.26H97.2424C97.2024 101.21 97.1624 101.16 97.1324 101.11ZM94.3524 97.54H89.4124C89.4124 97.54 89.4024 97.51 89.4024 97.49L91.0924 95.85L94.3524 97.54ZM92.5824 93.9H88.0724L89.6624 92.22L92.5824 93.9ZM89.6324 91.99L86.9424 90.44H91.0824L89.6324 91.99ZM89.5324 89.18L88.7824 90.22L87.6624 89.18H89.5324ZM87.4924 89L88.2824 87.74L89.6724 88.99H89.6624L87.4924 89ZM91.0624 90.26H88.9724L89.7624 89.18H89.8724L91.0624 90.26ZM90.5724 87.74L89.7724 88.85L88.5524 87.74H90.5724ZM88.1724 86.29H89.5624V87.56H88.1724V86.29ZM87.3524 88.89L86.1124 87.74H88.0624L87.3524 88.89ZM85.7424 87.95C85.9424 88.62 86.1524 89.26 86.3524 89.89L85.3524 88.68L85.7424 87.95ZM85.2324 88.53L84.5724 87.74H85.6424L85.2324 88.53ZM85.8724 87.76L87.2024 89H86.2524C86.1324 88.59 86.0024 88.18 85.8724 87.76ZM86.5924 86.29H87.9924V87.56H86.5924V86.29ZM85.0224 86.29H86.4124V87.56H85.0224V86.29ZM83.4424 86.29H84.8424V87.56H83.4424V86.29ZM84.1724 87.74L83.2424 88.86L82.3224 87.74H84.1724ZM81.8724 86.29H83.2624V87.56H81.8724V86.29ZM81.9224 87.74L80.9924 88.86L80.0624 87.74H81.9224ZM80.2924 86.29H81.6924V87.56H80.2924V86.29ZM78.7224 86.29H80.1124V87.56H78.7224V86.29ZM79.6624 87.74L78.7424 88.86L77.8124 87.74H79.6624ZM77.1424 86.29H78.5424V87.56H77.1424V86.29ZM77.5024 87.74L76.8224 88.55L76.3824 87.74H77.5024ZM75.5724 86.29H76.9624V87.56H75.5724V86.29ZM73.9924 86.29H75.3924V87.56H73.9924V86.29ZM75.9324 87.74L74.6924 88.89L73.9724 87.74H75.9324ZM76.0924 87.83C75.9724 88.23 75.8524 88.62 75.7224 89H74.8424L76.0924 87.83ZM72.3724 89L73.7624 87.74L74.5524 89H72.3724ZM74.3824 89.18L73.2624 90.22L72.5024 89.18H74.3824ZM72.4124 86.29H73.8124V87.56H72.4124V86.29ZM71.4624 87.74H73.4924L72.2624 88.84L71.4624 87.74ZM72.1624 89.18H72.2824L73.0624 90.26H70.9724L72.1624 89.18ZM70.9424 90.44H75.0824L72.4024 91.99L70.9424 90.44ZM69.3624 94.08H73.7124L70.9224 95.58L69.3624 94.08ZM70.8824 95.8L72.6024 97.46C72.6024 97.46 72.5824 97.51 72.5724 97.54H67.6624L70.8824 95.8ZM67.5224 97.72H72.2224L69.0024 99.21L67.5224 97.72ZM70.8924 101.11L69.1424 99.34L72.4524 97.81C71.6524 99.65 71.0724 100.77 70.8924 101.11ZM72.6724 97.28L71.0524 95.71L73.9324 94.17C73.4824 95.35 73.0524 96.39 72.6724 97.28ZM69.4524 93.9L72.3624 92.22L73.9524 93.9H69.4524ZM74.0824 93.77L72.5324 92.12L75.2124 90.58C74.8224 91.73 74.4424 92.79 74.0824 93.77ZM75.3124 90.26H73.4924L74.6524 89.18H74.6624L75.3224 90.24C75.3224 90.24 75.3224 90.25 75.3124 90.26ZM75.3924 90.02L74.8724 89.18H75.6724C75.5824 89.46 75.4824 89.74 75.3924 90.02ZM76.2624 87.89L76.7024 88.7L75.5724 90.07C75.8024 89.37 76.0324 88.64 76.2624 87.89ZM75.6424 90.26L76.7924 88.87L77.5424 90.26H75.6424ZM76.9224 88.72L77.6524 87.83L78.6224 89L77.6824 90.14L76.9224 88.72ZM77.8124 90.26L78.7424 89.14L79.6624 90.26H77.8124ZM78.8524 89L79.8624 87.78L80.8724 89L79.8624 90.22L78.8524 89ZM80.0624 90.26L80.9924 89.14L81.9224 90.26H80.0624ZM81.1124 89L82.1224 87.78L83.1324 89L82.1224 90.22L81.1124 89ZM82.3224 90.26L83.2424 89.14L84.1724 90.26H82.3224ZM83.3624 89L84.3724 87.78L85.1424 88.7L84.3624 90.2L83.3624 89ZM84.5324 90.26L85.2624 88.85L86.4324 90.26H84.5324ZM86.3124 89.18H87.1724L86.6124 90.08C86.5124 89.79 86.4124 89.48 86.3124 89.18ZM87.3824 89.18L88.5424 90.26H86.7024L87.3724 89.18H87.3824ZM86.7624 90.55L89.5024 92.12L87.9224 93.8C87.5424 92.81 87.1624 91.72 86.7624 90.55ZM92.6624 94.08L91.0624 95.63L88.0524 94.08H92.6624ZM88.1124 94.31L90.9224 95.76L89.3224 97.31C88.9524 96.45 88.5424 95.44 88.1124 94.31ZM91.0924 101.11C90.9124 100.77 90.3224 99.63 89.5224 97.78L92.8724 99.33L91.0924 101.11ZM93.0124 99.2L89.8124 97.72H94.5024L93.0124 99.2Z" fill="#55788E"/>
<path d="M79.2133 74.76H79.4333H82.5433H82.6433H87.5833V74.58H86.4233L82.4433 73.1C82.3933 72.83 82.3533 72.55 82.3133 72.28L85.6233 71.07C85.6133 71.01 85.5933 70.95 85.5833 70.89L81.9233 69.75C81.9033 69.62 81.8833 69.5 81.8733 69.37L84.9833 68.38H85.0633C85.0533 68.32 85.0433 68.26 85.0233 68.2H84.9833L81.5633 66.96C81.5633 66.89 81.5433 66.82 81.5433 66.76L84.5433 65.68L84.5333 65.61C84.5333 65.57 84.5233 65.53 84.5133 65.5V65.49L81.2733 64.16C81.2733 64.16 81.2733 64.14 81.2733 64.13L84.0133 62.99H84.0633C84.0633 62.93 84.0433 62.87 84.0333 62.81H84.0133L81.2433 61.45L83.6233 60.3C83.6233 60.3 83.6233 60.28 83.6233 60.27C83.6233 60.27 83.6133 60.19 83.6033 60.15C83.6033 60.14 83.6033 60.13 83.6033 60.11L81.1833 58.75L83.2233 57.59C83.2233 57.59 83.2233 57.55 83.2233 57.53C83.2233 57.53 83.2233 57.52 83.2233 57.51C83.2233 57.48 83.2233 57.44 83.2133 57.41C83.2133 57.41 83.2133 57.39 83.2133 57.38L81.1933 56.08L82.8833 54.99C82.8833 54.99 82.8833 54.92 82.8733 54.89C82.8733 54.89 82.8733 54.89 82.8733 54.87C82.8733 54.81 82.8633 54.76 82.8533 54.71H82.8233L81.1833 53.46L82.5733 52.4C82.5733 52.4 82.5733 52.38 82.5733 52.37C82.5733 52.29 82.5533 52.23 82.5533 52.19H82.6133V50.21H79.4533V52.19H79.5133C79.5133 52.19 79.5033 52.29 79.4933 52.37C79.4933 52.37 79.4933 52.39 79.4933 52.4L80.8833 53.46L79.2433 54.71H79.2133C79.2133 54.71 79.2133 54.79 79.1933 54.83C79.1933 54.83 79.1933 54.87 79.1933 54.89C79.1933 54.93 79.1933 54.97 79.1733 55.01L80.8533 56.09L78.8433 57.38C78.8433 57.38 78.8433 57.4 78.8433 57.42C78.8433 57.45 78.8433 57.49 78.8333 57.52C78.8333 57.55 78.8333 57.57 78.8233 57.6C78.8233 57.6 78.8233 57.61 78.8233 57.62L80.8433 58.76L78.4433 60.12C78.4433 60.12 78.4433 60.15 78.4433 60.16C78.4433 60.21 78.4233 60.26 78.4233 60.3H78.5233L80.8633 61.45L78.0733 62.82H78.0033C77.9933 62.88 77.9833 62.94 77.9733 63H77.9833L80.7733 64.15C80.7733 64.15 80.7733 64.17 80.7733 64.18L77.5333 65.53H77.5233C77.5233 65.59 77.5033 65.64 77.4933 65.7H77.5433L80.5133 66.77C80.5133 66.85 80.4933 66.92 80.4833 67L77.0933 68.22H77.0133C77.0033 68.28 76.9933 68.34 76.9733 68.4H77.0033L80.1733 69.39C80.1533 69.52 80.1433 69.65 80.1233 69.77L76.4933 70.92H76.4533C76.4433 70.97 76.4333 71.02 76.4233 71.07V71.08C76.4233 71.08 76.4233 71.09 76.4233 71.1L79.7533 72.32C79.7133 72.59 79.6633 72.86 79.6233 73.13L75.6333 74.59C75.6333 74.59 75.6333 74.6 75.6333 74.61H74.6133V74.79H79.3033L79.2133 74.76ZM79.4733 74.58C79.5533 74.13 79.6333 73.68 79.7133 73.23L80.9833 72.76L82.2833 73.24C82.3633 73.69 82.4333 74.13 82.5133 74.58H79.4633H79.4733ZM85.9233 74.58H82.7133C82.6433 74.17 82.5633 73.75 82.4933 73.32L85.9133 74.58H85.9233ZM82.2533 73.01L81.2933 72.65L82.1433 72.34C82.1833 72.56 82.2133 72.79 82.2533 73.01ZM81.9433 71.06C82.0033 71.43 82.0533 71.79 82.1133 72.16L81.0333 72.56L79.8933 72.14C79.9533 71.78 80.0033 71.43 80.0633 71.07H81.9433V71.06ZM80.0833 70.88C80.1333 70.55 80.1833 70.21 80.2333 69.88L81.0233 69.63L81.7733 69.86C81.8233 70.2 81.8733 70.54 81.9233 70.88H80.0933H80.0833ZM82.3033 72.09C82.2533 71.75 82.1933 71.41 82.1433 71.06H85.1133L82.3033 72.09ZM85.0333 70.88H82.1133C82.0633 70.56 82.0233 70.24 81.9733 69.92L85.0333 70.88ZM81.7433 69.66L81.3233 69.53L81.7133 69.41C81.7233 69.49 81.7333 69.58 81.7533 69.66H81.7433ZM81.5633 68.35C81.6033 68.64 81.6333 68.93 81.6733 69.21L81.0033 69.42L80.3233 69.21C80.3633 68.92 80.4033 68.63 80.4333 68.35H81.5633ZM80.4533 68.17C80.5033 67.81 80.5433 67.44 80.5833 67.08L81.0133 66.92L81.3933 67.06C81.4333 67.43 81.4833 67.8 81.5333 68.17H80.4533ZM81.8633 69.15C81.8233 68.88 81.7933 68.61 81.7533 68.35H84.4033L81.8633 69.15ZM84.4733 68.17H81.7333C81.6933 67.82 81.6433 67.48 81.6033 67.13L84.4733 68.17ZM81.3833 66.86L81.2933 66.83L81.3833 66.8C81.3833 66.8 81.3833 66.84 81.3833 66.86ZM81.0033 64L80.9233 63.97C80.9533 63.68 80.9733 63.4 81.0033 63.11C81.0233 63.39 81.0533 63.68 81.0833 63.96L81.0033 63.99V64ZM81.0033 64.19L81.1033 64.23C81.1433 64.64 81.1833 65.05 81.2233 65.46H80.7733C80.8133 65.05 80.8533 64.64 80.8933 64.23L80.9933 64.19H81.0033ZM81.2533 65.64C81.2833 65.96 81.3233 66.28 81.3633 66.61L81.0333 66.73L80.6633 66.59C80.7033 66.27 80.7333 65.96 80.7733 65.64H81.2633H81.2533ZM81.5433 66.54C81.5033 66.24 81.4733 65.94 81.4433 65.64H84.0333L81.5433 66.54ZM84.0933 65.46H81.4233C81.3833 65.08 81.3433 64.69 81.3033 64.31L84.0933 65.46ZM81.2633 63.89C81.2333 63.57 81.2033 63.25 81.1733 62.93H83.5533L81.2633 63.89ZM81.1633 62.75C81.1433 62.5 81.1233 62.25 81.1033 62V61.51L83.6233 62.75H81.1633ZM81.1033 61.24V60.22H83.1733L81.1033 61.24ZM81.1033 60.04V58.84L83.2433 60.04H81.1033ZM81.1033 58.51V57.51H82.8633L81.1033 58.51ZM82.9133 57.33H81.1033V56.17L82.9133 57.33ZM81.1033 55.83V54.8H82.6933L81.1033 55.83ZM82.5033 54.62H81.1033V53.55L82.5033 54.62ZM80.6033 52.1V50.3H81.4133V52.1H80.6033ZM81.1033 53.19V52.28H82.2933L81.1033 53.19ZM82.4133 52.1H81.6033V50.3H82.4133V52.1ZM79.6133 50.3H80.4233V52.1H79.6133V50.3ZM79.7233 52.28H80.9133V53.19L79.7233 52.28ZM80.9133 53.55V54.62H79.5133L80.9133 53.55ZM79.3033 54.8H80.9133V55.83L79.3033 54.8ZM80.9133 56.16V57.33H79.1033L80.9133 56.16ZM80.9133 57.51V58.52L79.1133 57.51H80.9133ZM80.9133 58.82V60.04H78.7733L80.9133 58.82ZM80.9133 60.22V61.22L78.8933 60.22H80.9133ZM80.9133 61.55V62C80.8933 62.25 80.8733 62.5 80.8533 62.75H78.4433L80.9133 61.55ZM78.4133 62.93H80.8333C80.8033 63.25 80.7833 63.57 80.7533 63.89L78.4133 62.93ZM80.7033 64.31C80.6633 64.69 80.6333 65.07 80.5933 65.46H77.9533L80.7033 64.31ZM78.0133 65.64H80.5633C80.5333 65.94 80.5033 66.23 80.4633 66.53L78.0133 65.64ZM80.6233 66.77L80.7533 66.82L80.6133 66.87C80.6133 66.87 80.6133 66.8 80.6233 66.77ZM80.4033 67.14C80.3633 67.48 80.3233 67.82 80.2833 68.16H77.5733L80.4033 67.14ZM77.5533 68.34H80.2533C80.2233 68.61 80.1833 68.88 80.1433 69.15L77.5533 68.34ZM80.2933 69.39L80.7033 69.52L80.2533 69.66C80.2633 69.57 80.2833 69.48 80.2933 69.39ZM80.0333 69.93C79.9933 70.24 79.9433 70.56 79.8933 70.87H77.0833L80.0333 69.93ZM77.0033 71.05H79.8633C79.8133 71.39 79.7633 71.72 79.7033 72.06L77.0033 71.05ZM79.8433 72.34L80.7133 72.66L79.7333 73.02C79.7733 72.79 79.8033 72.57 79.8433 72.34ZM79.5033 73.29C79.4333 73.72 79.3533 74.14 79.2833 74.57H76.0233L79.5133 73.29H79.5033Z" fill="#55788E"/>
<path d="M99.0413 23.35H98.7812V28.63H99.0413V23.35Z" fill="#F49262"/>
<path d="M99.2605 23.35C99.2605 23.54 99.1005 23.7 98.9105 23.7C98.7205 23.7 98.5605 23.54 98.5605 23.35C98.5605 23.16 98.7205 23 98.9105 23C99.1005 23 99.2605 23.16 99.2605 23.35Z" fill="#F49262"/>
<path d="M104.232 45.6H93.5918V104.51H104.232V45.6Z" fill="#FFBE7C"/>
<path d="M101.851 36.72H95.9609V41.94H101.851V36.72Z" fill="#FFBE7C"/>
<path d="M97.2205 38.47H97.2505C97.4805 38.47 97.6605 38.65 97.6605 38.88V42.25H96.8105V38.88C96.8105 38.65 96.9905 38.47 97.2205 38.47Z" fill="#F49262"/>
<path d="M98.8905 38.47H98.9205C99.1505 38.47 99.3305 38.65 99.3305 38.88V42.25H98.4805V38.88C98.4805 38.65 98.6605 38.47 98.8905 38.47Z" fill="#F49262"/>
<path d="M100.56 38.47H100.59C100.82 38.47 101 38.65 101 38.88V42.25H100.15V38.88C100.15 38.65 100.33 38.47 100.56 38.47Z" fill="#F49262"/>
<path d="M98.9109 26.43C98.8309 26.43 98.7709 26.48 98.7509 26.56L97.7709 31C97.6109 31.71 97.4009 32.4 97.1409 33.07L95.7109 36.71H102.131L100.691 32.89C100.481 32.33 100.301 31.75 100.171 31.17L99.0909 26.55C99.0709 26.48 99.0109 26.42 98.9309 26.42L98.9109 26.43Z" fill="#F49262"/>
<path d="M101.801 37.07L102.121 36.72H95.7012L96.0212 37.07H101.801Z" fill="#F49262"/>
<path d="M106.211 49.99H91.6113V61.24H106.211V49.99Z" fill="#FFBE7C"/>
<path d="M105.371 60.81H92.4512V63.54H105.371V60.81Z" fill="#FFBE7C"/>
<path d="M101.852 40.85H96.142L93.332 45.6H104.492L101.852 40.85Z" fill="#F49262"/>
<path d="M104.242 45.95L104.492 45.6H93.332L93.592 45.95H104.242Z" fill="#F49262"/>
<path d="M95.8812 33.2H95.7012V36.72H95.8812V33.2Z" fill="#F49262"/>
<path d="M95.7913 34.16C95.9348 34.16 96.0513 34.0436 96.0513 33.9C96.0513 33.7564 95.9348 33.64 95.7913 33.64C95.6477 33.64 95.5312 33.7564 95.5312 33.9C95.5312 34.0436 95.6477 34.16 95.7913 34.16Z" fill="#F49262"/>
<path d="M102.121 33.2H101.941V36.72H102.121V33.2Z" fill="#F49262"/>
<path d="M102.291 33.9C102.291 34.05 102.171 34.16 102.031 34.16C101.891 34.16 101.771 34.04 101.771 33.9C101.771 33.76 101.891 33.64 102.031 33.64C102.171 33.64 102.291 33.76 102.291 33.9Z" fill="#F49262"/>
<path d="M95.9612 70.48H95.7012V72.5H95.9612V70.48Z" fill="#F49262"/>
<path d="M97.1916 70.48H96.9316V72.5H97.1916V70.48Z" fill="#F49262"/>
<path d="M98.4221 70.48H98.1621V72.5H98.4221V70.48Z" fill="#F49262"/>
<path d="M99.6506 70.48H99.3906V72.5H99.6506V70.48Z" fill="#F49262"/>
<path d="M100.881 70.48H100.621V72.5H100.881V70.48Z" fill="#F49262"/>
<path d="M102.112 70.48H101.852V72.5H102.112V70.48Z" fill="#F49262"/>
<path d="M95.9612 46.86H95.7012V48.88H95.9612V46.86Z" fill="#F49262"/>
<path d="M97.1916 46.86H96.9316V48.88H97.1916V46.86Z" fill="#F49262"/>
<path d="M98.4221 46.86H98.1621V48.88H98.4221V46.86Z" fill="#F49262"/>
<path d="M99.6506 46.86H99.3906V48.88H99.6506V46.86Z" fill="#F49262"/>
<path d="M100.881 46.86H100.621V48.88H100.881V46.86Z" fill="#F49262"/>
<path d="M102.112 46.86H101.852V48.88H102.112V46.86Z" fill="#F49262"/>
<path d="M95.1916 61.25H94.9316V63.62H95.1916V61.25Z" fill="#F49262"/>
<path d="M96.2913 61.25H96.0312V63.62H96.2913V61.25Z" fill="#F49262"/>
<path d="M97.3909 61.25H97.1309V63.62H97.3909V61.25Z" fill="#F49262"/>
<path d="M98.4924 61.25H98.2324V63.62H98.4924V61.25Z" fill="#F49262"/>
<path d="M99.592 61.25H99.332V63.62H99.592V61.25Z" fill="#F49262"/>
<path d="M100.682 61.25H100.422V63.62H100.682V61.25Z" fill="#F49262"/>
<path d="M101.781 61.25H101.521V63.62H101.781V61.25Z" fill="#F49262"/>
<path d="M102.881 61.25H102.621V63.62H102.881V61.25Z" fill="#F49262"/>
<path d="M95.9612 81.03H95.7012V83.05H95.9612V81.03Z" fill="#F49262"/>
<path d="M97.1916 81.03H96.9316V83.05H97.1916V81.03Z" fill="#F49262"/>
<path d="M98.4221 81.03H98.1621V83.05H98.4221V81.03Z" fill="#F49262"/>
<path d="M99.6506 81.03H99.3906V83.05H99.6506V81.03Z" fill="#F49262"/>
<path d="M100.881 81.03H100.621V83.05H100.881V81.03Z" fill="#F49262"/>
<path d="M102.112 81.03H101.852V83.05H102.112V81.03Z" fill="#F49262"/>
<path d="M95.9612 91.58H95.7012V93.6H95.9612V91.58Z" fill="#F49262"/>
<path d="M97.1916 91.58H96.9316V93.6H97.1916V91.58Z" fill="#F49262"/>
<path d="M98.4221 91.58H98.1621V93.6H98.4221V91.58Z" fill="#F49262"/>
<path d="M99.6506 91.58H99.3906V93.6H99.6506V91.58Z" fill="#F49262"/>
<path d="M100.881 91.58H100.621V93.6H100.881V91.58Z" fill="#F49262"/>
<path d="M102.112 91.58H101.852V93.6H102.112V91.58Z" fill="#F49262"/>
<path d="M93.1213 49.9901H92.8613V61.2401H93.1213V49.9901Z" fill="#F49262"/>
<path d="M93.7405 61.25H93.4805V63.54H93.7405V61.25Z" fill="#F49262"/>
<path d="M95.012 63.62H94.752V104.51H95.012V63.62Z" fill="#F49262"/>
<path d="M103.063 63.62H102.803V104.51H103.063V63.62Z" fill="#F49262"/>
<path d="M104.332 61.25H104.072V63.54H104.332V61.25Z" fill="#F49262"/>
<path d="M104.951 49.9901H104.691V61.2401H104.951V49.9901Z" fill="#F49262"/>
<path d="M93.512 42.08H93.332V45.6H93.512V42.08Z" fill="#F49262"/>
<path d="M93.6821 42.78C93.6821 42.93 93.5621 43.04 93.4221 43.04C93.2821 43.04 93.1621 42.92 93.1621 42.78C93.1621 42.64 93.2821 42.52 93.4221 42.52C93.5621 42.52 93.6821 42.64 93.6821 42.78Z" fill="#F49262"/>
<path d="M104.502 42.08H104.322V45.6H104.502V42.08Z" fill="#F49262"/>
<path d="M104.672 42.78C104.672 42.93 104.552 43.04 104.412 43.04C104.272 43.04 104.152 42.92 104.152 42.78C104.152 42.64 104.272 42.52 104.412 42.52C104.552 42.52 104.672 42.64 104.672 42.78Z" fill="#F49262"/>
<path d="M91.7913 46.48H91.6113V50H91.7913V46.48Z" fill="#FFBE7C"/>
<path d="M91.9614 47.18C91.9614 47.33 91.8414 47.44 91.7014 47.44C91.5614 47.44 91.4414 47.32 91.4414 47.18C91.4414 47.04 91.5614 46.92 91.7014 46.92C91.8414 46.92 91.9614 47.04 91.9614 47.18Z" fill="#FFBE7C"/>
<path d="M106.211 46.48H106.031V50H106.211V46.48Z" fill="#FFBE7C"/>
<path d="M106.381 47.18C106.381 47.33 106.261 47.44 106.121 47.44C105.981 47.44 105.861 47.32 105.861 47.18C105.861 47.04 105.981 46.92 106.121 46.92C106.261 46.92 106.381 47.04 106.381 47.18Z" fill="#FFBE7C"/>
<path d="M96.9311 44.54C96.9111 44.04 96.6811 43.64 96.4011 43.64C96.1211 43.64 95.8911 44.04 95.8711 44.54H96.9211H96.9311Z" fill="#FFBE7C"/>
<path d="M99.4819 44.54C99.4619 44.04 99.2319 43.64 98.9519 43.64C98.6719 43.64 98.4419 44.04 98.4219 44.54H99.4719H99.4819Z" fill="#FFBE7C"/>
<path d="M102.031 44.54C102.011 44.04 101.781 43.64 101.501 43.64C101.221 43.64 100.991 44.04 100.971 44.54H102.021H102.031Z" fill="#FFBE7C"/>
<path d="M98.2006 42.96C98.1806 42.46 97.9506 42.06 97.6706 42.06C97.3906 42.06 97.1606 42.46 97.1406 42.96H98.1906H98.2006Z" fill="#FFBE7C"/>
<path d="M100.751 42.96C100.731 42.46 100.501 42.06 100.221 42.06C99.9414 42.06 99.7114 42.46 99.6914 42.96H100.741H100.751Z" fill="#FFBE7C"/>
<path d="M97.4519 35.69C97.4419 35.32 97.2719 35.02 97.0619 35.02C96.8519 35.02 96.6819 35.32 96.6719 35.69H97.4519Z" fill="#FFBE7C"/>
<path d="M99.3425 35.69C99.3325 35.32 99.1625 35.02 98.9525 35.02C98.7425 35.02 98.5725 35.32 98.5625 35.69H99.3425Z" fill="#FFBE7C"/>
<path d="M101.241 35.69C101.231 35.32 101.061 35.02 100.851 35.02C100.641 35.02 100.471 35.32 100.461 35.69H101.241Z" fill="#FFBE7C"/>
<path d="M98.4011 33.99C98.3911 33.62 98.2211 33.32 98.0111 33.32C97.8011 33.32 97.6311 33.62 97.6211 33.99H98.4011Z" fill="#FFBE7C"/>
<path d="M100.292 33.99C100.282 33.62 100.112 33.32 99.9017 33.32C99.6917 33.32 99.5217 33.62 99.5117 33.99H100.292Z" fill="#FFBE7C"/>
<path d="M99.321 32.32C99.311 31.95 99.141 31.65 98.931 31.65C98.721 31.65 98.551 31.95 98.541 32.32H99.321Z" fill="#FFBE7C"/>
<path d="M103.392 51.14H94.4219V60.11H103.392V51.14Z" fill="white"/>
<path d="M103.521 60.24H94.291V51.01H103.521V60.24ZM94.551 59.98H103.251V51.28H94.551V59.98Z" fill="#F49262"/>
<path d="M103.131 55.62C103.131 57.95 101.241 59.84 98.9114 59.84C96.5814 59.84 94.6914 57.95 94.6914 55.62C94.6914 53.29 96.5814 51.4 98.9114 51.4C101.241 51.4 103.131 53.29 103.131 55.62Z" fill="white"/>
<path d="M99.2196 55.62C99.2196 55.79 99.0796 55.93 98.9096 55.93C98.7396 55.93 98.5996 55.79 98.5996 55.62C98.5996 55.45 98.7396 55.31 98.9096 55.31C99.0796 55.31 99.2196 55.45 99.2196 55.62Z" fill="#F49262"/>
<path d="M98.9105 59.97C96.5105 59.97 94.5605 58.02 94.5605 55.62C94.5605 53.22 96.5105 51.27 98.9105 51.27C101.311 51.27 103.261 53.22 103.261 55.62C103.261 58.02 101.311 59.97 98.9105 59.97ZM98.9105 51.53C96.6605 51.53 94.8205 53.36 94.8205 55.62C94.8205 57.88 96.6505 59.71 98.9105 59.71C101.171 59.71 103.001 57.88 103.001 55.62C103.001 53.36 101.171 51.53 98.9105 51.53Z" fill="#F49262"/>
<path d="M98.9102 58.78C97.1602 58.78 95.7402 57.36 95.7402 55.61C95.7402 53.86 97.1602 52.44 98.9102 52.44C100.66 52.44 102.08 53.86 102.08 55.61C102.08 57.36 100.66 58.78 98.9102 58.78ZM98.9102 52.89C97.4102 52.89 96.1802 54.11 96.1802 55.62C96.1802 57.13 97.4002 58.35 98.9102 58.35C100.42 58.35 101.64 57.13 101.64 55.62C101.64 54.11 100.42 52.89 98.9102 52.89Z" fill="#FFBE7C"/>
<path d="M98.9123 52.82C98.9123 52.82 98.8223 52.78 98.8223 52.73V51.77C98.8223 51.77 98.8623 51.68 98.9123 51.68C98.9623 51.68 99.0023 51.72 99.0023 51.77V52.73C99.0023 52.73 98.9623 52.82 98.9123 52.82Z" fill="#F49262"/>
<path d="M98.9123 59.51C98.9123 59.51 98.8223 59.47 98.8223 59.42V58.46C98.8223 58.46 98.8623 58.37 98.9123 58.37C98.9623 58.37 99.0023 58.41 99.0023 58.46V59.42C99.0023 59.42 98.9623 59.51 98.9123 59.51Z" fill="#F49262"/>
<path d="M96.052 55.69H95.092C95.092 55.69 95.002 55.65 95.002 55.6C95.002 55.55 95.042 55.51 95.092 55.51H96.052C96.052 55.51 96.142 55.55 96.142 55.6C96.142 55.65 96.102 55.69 96.052 55.69Z" fill="#F49262"/>
<path d="M102.732 55.69H101.772C101.772 55.69 101.682 55.65 101.682 55.6C101.682 55.55 101.722 55.51 101.772 55.51H102.732C102.732 55.51 102.822 55.55 102.822 55.6C102.822 55.65 102.782 55.69 102.732 55.69Z" fill="#F49262"/>
<path d="M96.8822 53.66C96.8822 53.66 96.8422 53.66 96.8222 53.63L96.1422 52.95C96.1422 52.95 96.1122 52.86 96.1422 52.83C96.1722 52.8 96.2322 52.8 96.2622 52.83L96.9422 53.51C96.9422 53.51 96.9722 53.6 96.9422 53.63C96.9222 53.65 96.9022 53.66 96.8822 53.66Z" fill="#F49262"/>
<path d="M101.613 58.39C101.613 58.39 101.573 58.39 101.553 58.36L100.873 57.68C100.873 57.68 100.843 57.59 100.873 57.56C100.903 57.53 100.963 57.53 100.993 57.56L101.673 58.24C101.673 58.24 101.703 58.33 101.673 58.36C101.653 58.38 101.633 58.39 101.613 58.39Z" fill="#F49262"/>
<path d="M96.2016 58.39C96.2016 58.39 96.1616 58.39 96.1416 58.36C96.1116 58.33 96.1116 58.27 96.1416 58.24L96.8216 57.56C96.8216 57.56 96.9116 57.53 96.9416 57.56C96.9716 57.59 96.9716 57.65 96.9416 57.68L96.2616 58.36C96.2616 58.36 96.2216 58.39 96.2016 58.39Z" fill="#F49262"/>
<path d="M100.932 53.66C100.932 53.66 100.892 53.66 100.872 53.63C100.842 53.6 100.842 53.54 100.872 53.51L101.552 52.83C101.552 52.83 101.642 52.8 101.672 52.83C101.702 52.86 101.702 52.92 101.672 52.95L100.992 53.63C100.992 53.63 100.952 53.66 100.932 53.66Z" fill="#F49262"/>
<path d="M98.9105 55.71C98.9105 55.71 98.8805 55.71 98.8705 55.71C98.8005 55.69 98.7605 55.61 98.7805 55.54L99.3405 53.79C99.3605 53.72 99.4405 53.68 99.5105 53.7C99.5805 53.72 99.6205 53.8 99.6005 53.87L99.0405 55.62C99.0205 55.68 98.9705 55.71 98.9105 55.71Z" fill="#F49262"/>
<path d="M99.7801 54C99.7601 53.85 99.7001 53.73 99.6201 53.66C99.6001 53.65 99.5901 53.64 99.5701 53.63C99.5501 53.63 99.5301 53.63 99.5101 53.63C99.4101 53.63 99.2901 53.7 99.1801 53.81C99.0201 53.98 98.9701 54.18 99.0601 54.27C99.1301 54.34 99.2601 54.32 99.3901 54.24C99.4501 54.38 99.5401 54.47 99.6401 54.45C99.7701 54.43 99.8401 54.23 99.8101 54H99.7801Z" fill="#F49262"/>
<path d="M96.4516 56.15C96.3916 56.15 96.3316 56.1 96.3216 56.04C96.3116 55.97 96.3616 55.9 96.4316 55.89L98.8816 55.47C98.9516 55.46 99.0216 55.51 99.0316 55.58C99.0416 55.65 98.9916 55.72 98.9216 55.73L96.4716 56.15C96.4716 56.15 96.4616 56.15 96.4516 56.15Z" fill="#F49262"/>
<path d="M95.5203 51.97C95.5203 52.16 95.3603 52.32 95.1703 52.32C94.9803 52.32 94.8203 52.16 94.8203 51.97C94.8203 51.78 94.9803 51.62 95.1703 51.62C95.3603 51.62 95.5203 51.78 95.5203 51.97Z" fill="#FFBE7C"/>
<path d="M103.001 51.97C103.001 52.16 102.841 52.32 102.651 52.32C102.461 52.32 102.301 52.16 102.301 51.97C102.301 51.78 102.461 51.62 102.651 51.62C102.841 51.62 103.001 51.78 103.001 51.97Z" fill="#FFBE7C"/>
<path d="M95.5203 59.27C95.5203 59.46 95.3603 59.62 95.1703 59.62C94.9803 59.62 94.8203 59.46 94.8203 59.27C94.8203 59.08 94.9803 58.92 95.1703 58.92C95.3603 58.92 95.5203 59.08 95.5203 59.27Z" fill="#FFBE7C"/>
<path d="M103.001 59.27C103.001 59.46 102.841 59.62 102.651 59.62C102.461 59.62 102.301 59.46 102.301 59.27C102.301 59.08 102.461 58.92 102.651 58.92C102.841 58.92 103.001 59.08 103.001 59.27Z" fill="#FFBE7C"/>
<path d="M103.931 49.92H93.8109C93.7609 49.92 93.6309 49.93 93.6309 49.99C93.6309 50.05 93.7609 50.06 93.8109 50.06H103.931C103.981 50.06 104.111 50.05 104.111 49.99C104.111 49.93 103.981 49.92 103.931 49.92Z" fill="#F49262"/>
<path d="M104.031 63.55H93.7913C93.7413 63.55 93.6113 63.56 93.6113 63.62C93.6113 63.68 93.7413 63.69 93.7913 63.69H104.031C104.081 63.69 104.211 63.68 104.211 63.62C104.211 63.56 104.081 63.55 104.031 63.55Z" fill="#F49262"/>
<path d="M105.151 61.17H92.6614C92.6014 61.17 92.4414 61.18 92.4414 61.24C92.4414 61.3 92.6014 61.31 92.6614 61.31H105.151C105.211 61.31 105.371 61.3 105.371 61.24C105.371 61.18 105.211 61.17 105.151 61.17Z" fill="#F49262"/>
<path d="M97.1815 95.29H29.1615C28.1177 95.29 27.2715 96.1362 27.2715 97.18V102.57C27.2715 103.614 28.1177 104.46 29.1615 104.46H97.1815C98.2253 104.46 99.0715 103.614 99.0715 102.57V97.18C99.0715 96.1362 98.2253 95.29 97.1815 95.29Z" fill="#F26061"/>
<path d="M77.0309 97.85H49.3209C48.2494 97.85 47.3809 98.7185 47.3809 99.79V99.94C47.3809 101.011 48.2494 101.88 49.3209 101.88H77.0309C78.1023 101.88 78.9709 101.011 78.9709 99.94V99.79C78.9709 98.7185 78.1023 97.85 77.0309 97.85Z" fill="#DD5259"/>
<path d="M35.5113 95.29H34.3613V104.51H35.5113V95.29Z" fill="#DD5259"/>
<path d="M33.1012 95.29H31.9512V104.51H33.1012V95.29Z" fill="#DD5259"/>
<path d="M94.402 95.29H93.252V104.51H94.402V95.29Z" fill="#DD5259"/>
<path d="M91.9918 95.29H90.8418V104.51H91.9918V95.29Z" fill="#DD5259"/>
<path d="M36.7314 26.73H66.5214C68.2014 26.73 69.5614 28.09 69.5614 29.77V91.83C69.5614 93.51 68.2014 94.87 66.5214 94.87H36.7314C35.0514 94.87 33.6914 93.51 33.6914 91.83V29.77C33.6914 28.09 35.0514 26.73 36.7314 26.73Z" fill="white"/>
<path d="M33.7715 34.3V31.91C33.7715 30.23 35.1315 28.87 36.8115 28.87H66.6015C68.2815 28.87 69.6415 30.23 69.6415 31.91V34.3H33.7715Z" fill="#7FAFC6"/>
<path d="M69.6415 29.82V30.27H33.7715V29.82C33.7715 28.14 35.1315 26.78 36.8115 26.78H66.6015C68.2815 26.78 69.6415 28.14 69.6415 29.82Z" fill="#1A73E8"/>
<path d="M67.2617 95.5H36.1617C34.5617 95.5 33.2617 94.02 33.2617 92.2V29.49C33.2617 27.67 34.5617 26.19 36.1617 26.19H67.2517C68.8517 26.19 70.1517 27.67 70.1517 29.49V92.2C70.1517 94.02 68.8517 95.5 67.2517 95.5H67.2617ZM36.1617 27.36C35.1217 27.36 34.2817 28.32 34.2817 29.5V92.21C34.2817 93.39 35.1217 94.35 36.1617 94.35H67.2517C68.2917 94.35 69.1317 93.39 69.1317 92.21V29.49C69.1317 28.31 68.2917 27.35 67.2517 27.35H36.1617V27.36Z" fill="#1A73E8"/>
<path d="M47.1927 28.3C47.1927 28.85 46.7127 29.3 46.1227 29.3C45.5327 29.3 45.0527 28.85 45.0527 28.3C45.0527 27.75 45.5327 27.3 46.1227 27.3C46.7127 27.3 47.1927 27.75 47.1927 28.3Z" fill="#243976"/>
<path d="M43.9916 28.3C43.9916 28.85 43.5116 29.3 42.9216 29.3C42.3316 29.3 41.8516 28.85 41.8516 28.3C41.8516 27.75 42.3316 27.3 42.9216 27.3C43.5116 27.3 43.9916 27.75 43.9916 28.3Z" fill="#243976"/>
<path d="M53.5627 27.97H49.8527C49.7809 27.97 49.7227 28.0282 49.7227 28.1V28.62C49.7227 28.6918 49.7809 28.75 49.8527 28.75H53.5627C53.6345 28.75 53.6927 28.6918 53.6927 28.62V28.1C53.6927 28.0282 53.6345 27.97 53.5627 27.97Z" fill="#243976"/>
<mask id="mask0_347_5846" style="mask-type:luminance" maskUnits="userSpaceOnUse" x="27" y="26" width="43" height="69">
<path d="M66.5123 26.73H36.7323C35.0523 26.73 33.6923 28.09 33.6923 29.77V49.67H27.1523V67.87H33.6823V91.83C33.6823 93.51 35.0423 94.87 36.7223 94.87H66.5123C68.1923 94.87 69.5523 93.51 69.5523 91.83V29.77C69.5523 28.09 68.1923 26.73 66.5123 26.73Z" fill="white"/>
</mask>
<g mask="url(#mask0_347_5846)">
<path d="M39.1736 67.94C39.3036 67.61 39.4436 67.29 39.5736 66.98C40.2336 65.4 40.8836 63.83 41.5436 62.25C41.8436 61.54 42.1336 60.82 42.4836 60.13C43.0336 59.03 43.7236 57.99 44.5136 57.05C45.2036 56.23 45.9436 55.23 47.0536 55.02C47.7636 54.89 48.2236 55.46 48.4336 56.11C48.8736 57.42 48.5236 58.98 48.2136 60.28C47.5336 63.09 45.7736 65.8 44.2436 68.22C43.6536 69.15 43.0336 70.07 42.2036 70.79C42.0536 70.92 41.9036 71.04 41.7136 71.11C41.5236 71.18 41.3136 71.19 41.1136 71.18C40.5236 71.16 39.9336 71.05 39.3736 70.84C38.8236 70.63 38.4336 70.39 38.5736 69.78C38.7136 69.15 38.9436 68.53 39.1836 67.93L39.1736 67.94Z" fill="#FFBE7C"/>
<path d="M58.6126 48.64C58.8026 48.77 59.0326 48.87 59.2326 48.99C59.9726 49.46 60.0726 50.22 60.1326 51.03C60.1526 51.29 60.1526 51.55 60.2726 51.78C60.5826 52.39 61.4826 52.44 61.8826 53C62.0826 53.27 62.1226 53.62 62.1226 53.95C62.1226 54.32 62.0526 54.67 62.0226 55.03C61.9926 55.4 62.2426 55.78 62.4026 56.1C62.5926 56.46 62.7426 56.9 62.5826 57.27C62.4326 57.59 62.0926 57.77 61.7626 57.91C60.5526 58.4 59.0326 58.75 57.7126 58.55C57.1026 58.46 56.4826 58.65 55.8626 58.71C55.1226 58.79 54.3726 58.83 53.6226 58.82C52.8126 58.82 52.0026 58.76 51.2026 58.66C50.8726 58.62 50.4626 58.63 50.1726 58.48C49.8626 58.32 49.5626 58 49.3226 57.75C49.1026 57.53 48.8926 57.28 48.8326 56.97C48.7626 56.67 48.8526 56.35 48.7726 56.05C48.7026 55.77 48.4926 55.55 48.3626 55.3C48.0226 54.64 48.2126 53.82 48.6326 53.21C48.9626 52.72 49.4526 52.28 49.4926 51.69C49.5226 51.19 49.2126 50.73 49.2426 50.23C49.2726 49.69 49.6626 49.28 49.9826 48.89C50.3226 48.48 50.4726 47.96 50.8326 47.59C51.4326 46.97 52.1926 46.79 53.0026 46.63C53.4126 46.55 53.8026 46.33 54.2126 46.23C54.6626 46.11 55.1326 46.03 55.6026 46C55.9126 45.98 56.2326 45.98 56.5326 46.06C56.7726 46.13 57.0026 46.24 57.2126 46.37C57.6426 46.64 58.0426 47.01 58.1626 47.5C58.2326 47.78 58.2026 48.09 58.3426 48.34C58.4126 48.46 58.5126 48.56 58.6226 48.64H58.6126Z" fill="#9E554E"/>
<path d="M40.6833 66.38C40.4233 66.24 40.1533 66.11 39.8833 65.98C36.9333 64.57 33.9833 63.16 31.0333 61.75C30.7133 61.6 30.1633 61.34 29.9033 61.68C29.6833 61.97 29.4833 62.62 29.5533 62.98C29.6333 63.39 30.2233 63.84 30.5033 64.09C32.0133 65.47 33.5533 66.82 35.1533 68.09C36.6933 69.31 38.2533 70.58 40.1533 71.17C40.7133 71.34 41.3333 71.4 41.7833 70.97C42.2133 70.56 42.3933 69.88 42.5733 69.33C42.8133 68.62 42.3733 67.76 41.8933 67.26C41.5433 66.9 41.1233 66.62 40.6833 66.38Z" fill="#F7967C"/>
<path d="M63.4534 82.47C63.2134 80.85 62.8534 79.25 62.3234 77.7C62.1234 77.12 61.9034 76.54 61.6534 75.98C61.4334 75.5 61.4034 75.25 60.8834 75.23C60.3534 75.21 59.8134 75.23 59.2734 75.23H49.4434C48.6734 75.23 47.1534 74.84 46.9634 75.89C46.2234 79.99 45.4834 84.09 45.2634 88.25C45.2534 88.53 45.2434 88.82 45.3634 89.06C45.6234 89.57 46.3234 89.33 46.7834 89.34C49.7334 89.4 52.6834 89.46 55.6334 89.53C57.1134 89.56 58.5834 89.59 60.0634 89.62C60.3434 89.62 60.6134 89.67 60.8934 89.69C61.7034 89.77 62.6634 89.95 63.4734 89.75C63.8834 89.65 63.9434 89.56 63.9634 89.14C63.9934 88.37 63.9134 87.57 63.8734 86.79C63.7934 85.34 63.6734 83.89 63.4534 82.45V82.47Z" fill="#FFBE7C"/>
<path d="M56.043 118.88C55.883 123.72 55.753 128.55 55.553 133.39C55.483 134.96 55.413 136.53 55.323 138.11C55.323 138.24 48.973 138 48.393 137.96C46.853 137.86 46.993 137.83 46.923 136.37C46.863 135.16 46.793 133.94 46.723 132.73C46.343 125.56 45.983 118.39 45.663 111.22C45.343 104.24 44.613 97.1199 44.983 90.1399C45.023 89.3999 45.243 88.6299 45.233 87.8899C45.223 87.2499 45.233 86.6099 45.423 85.9999C45.613 85.3899 45.993 84.8199 46.553 84.5299C47.123 84.2399 47.783 84.2499 48.363 84.0099C49.023 83.7299 49.653 83.4899 50.373 83.3999C51.713 83.2299 53.123 83.4599 54.323 84.1099C57.033 85.5799 57.253 88.6199 57.243 91.6299C57.213 98.4199 56.623 105.16 56.303 111.93C56.193 114.24 56.103 116.56 56.033 118.87L56.043 118.88Z" fill="#FFBE7C"/>
<path d="M64.8245 106.94C65.0145 109.92 65.2545 112.89 65.7845 115.8C66.3945 119.1 67.5845 122.22 68.5445 125.44C69.3645 128.2 70.1045 130.98 70.7745 133.78C70.8945 134.3 71.2845 135.17 70.9545 135.5C70.7145 135.74 69.4945 135.97 69.1145 136.14C67.7345 136.75 66.3445 137.35 64.9645 137.95C64.7045 138.06 64.4145 138.17 64.1645 138.05C63.9645 137.95 63.8645 137.73 63.7745 137.52C62.7445 135.11 61.7245 132.7 60.7445 130.28C59.7845 127.93 58.5845 125.48 57.9645 123.02C56.7145 118.08 55.3045 113.15 54.1745 108.17C53.1345 103.57 52.1545 99.01 52.2845 94.25C52.3145 93.18 52.5745 91.98 52.4345 90.93C52.2745 89.8 51.6645 88.5 52.0445 87.42C52.4245 86.33 53.5545 85.51 54.5745 85.09C55.7445 84.61 57.0345 84.49 58.3045 84.42C59.3045 84.37 60.3345 84.34 61.2945 84.62C63.5345 85.26 63.9745 87.66 64.0345 89.69C64.0345 93.64 64.1845 97.65 64.4845 101.58C64.6145 103.36 64.7145 105.16 64.8345 106.95L64.8245 106.94Z" fill="#FFBE7C"/>
<path d="M55.8337 114.11C55.4537 112.46 55.1037 110.82 54.7637 109.16C54.4237 107.5 54.1037 105.83 53.7937 104.16C53.4937 102.5 53.2037 100.84 52.9437 99.1699C52.6737 97.4999 52.4337 95.8299 52.2037 94.1599C52.0337 92.9199 51.8737 91.6799 51.7237 90.4399H51.5137C51.6837 91.8899 51.8737 93.3399 52.0737 94.7799C52.3137 96.4599 52.5637 98.1399 52.8337 99.8099C53.1037 101.48 53.3937 103.14 53.7037 104.8C54.0137 106.46 54.3337 108.12 54.6837 109.77C55.0237 111.42 55.3937 113.07 55.7737 114.71C55.7937 114.79 56.0037 114.77 55.9837 114.71C55.9337 114.51 55.8937 114.3 55.8437 114.1L55.8337 114.11Z" fill="#611908"/>
<path d="M41.8936 67.26C41.5436 66.9 41.1236 66.62 40.6836 66.38C40.4236 66.24 40.1536 66.11 39.8836 65.98C38.9436 65.53 38.0036 65.08 37.0636 64.63C36.9536 64.82 36.8336 65.01 36.7136 65.19C36.1236 66.1 35.4236 66.93 34.6836 67.72C34.8336 67.84 34.9936 67.97 35.1436 68.09C36.6836 69.31 38.2436 70.58 40.1436 71.17C40.7036 71.34 41.3236 71.4 41.7736 70.97C42.2036 70.56 42.3836 69.88 42.5636 69.33C42.8036 68.62 42.3636 67.76 41.8836 67.26H41.8936Z" fill="#FFBE7C"/>
<path d="M63.8736 59.42C63.7836 60.32 63.6036 61.34 63.3536 62.21C63.0736 63.16 62.9736 64.14 62.8036 65.12C62.4536 67.26 62.2536 69.43 62.1936 71.6C62.1636 72.57 62.1936 73.53 62.2136 74.5C62.2236 75.14 62.2436 75.78 62.2936 76.42C62.3336 76.89 62.6736 77.63 62.0536 77.7C56.9636 78.23 51.8236 78.22 46.7436 77.69C46.6236 77.68 46.5036 77.66 46.4036 77.59C46.2336 77.46 46.3436 77.14 46.3536 76.96C46.5136 73.49 46.1236 70.07 45.4136 66.68C45.3136 66.19 45.2136 65.7 45.1536 65.21C44.9936 63.68 45.2936 62.16 45.6336 60.68C45.9536 59.26 46.2036 57.83 46.5036 56.4C46.6436 55.75 46.6836 55.27 47.2236 54.91C47.7436 54.57 48.4836 54.4 49.0736 54.23C49.6336 54.06 50.2036 53.95 50.7636 53.85C51.2736 53.76 51.7836 53.67 52.2836 53.57C53.3736 53.34 54.2736 53.03 55.4236 53.12C56.4336 53.2 57.4236 53.44 58.4036 53.69C58.4536 53.7 58.5036 53.72 58.5636 53.73C59.3536 53.93 60.1336 54.13 60.9236 54.34C61.5036 54.49 62.0836 54.64 62.5936 54.96C63.2436 55.37 63.5536 56.01 63.7236 56.73C63.9236 57.58 63.9536 58.57 63.8636 59.43L63.8736 59.42Z" fill="#FFBE7C"/>
<path d="M46.2936 52.18H28.1836V64.31H46.2936V52.18Z" fill="#F26061"/>
<path d="M58.4132 53.68C57.7732 54.71 57.0032 55.66 56.1232 56.48C55.4132 57.14 53.9732 58.44 52.9232 58.1C52.2432 57.88 51.8832 57.16 51.6332 56.49C51.4032 55.89 50.9632 54.84 50.7832 53.84C51.2932 53.75 51.8032 53.66 52.3032 53.56C53.3932 53.33 54.2932 53.02 55.4432 53.11C56.4532 53.19 57.4432 53.43 58.4232 53.68H58.4132Z" fill="#F7967C"/>
<path d="M63.7036 63.35C63.4936 64.56 63.2936 65.77 63.0836 66.97C62.9936 67.51 62.8936 68.05 62.7636 68.58C62.6136 69.15 62.6036 69.74 62.4336 70.31C61.9836 71.78 60.8136 72.69 59.2336 72.32C58.7736 72.21 58.3036 72.08 57.9636 71.76C57.5636 71.38 57.4336 70.8 57.4336 70.25C57.4336 69.29 57.5836 68.35 57.7636 67.41C58.2936 64.61 58.8336 61.8 59.3636 59C59.6436 57.52 60.0936 55.08 62.0436 55.02C63.0336 54.99 63.7536 56.02 64.0136 56.86C64.6636 59 64.0836 61.21 63.7136 63.35H63.7036Z" fill="#FFBE7C"/>
<path d="M40.3932 65.07C40.5132 65.09 40.6332 65.11 40.7532 65.12C41.4432 65.2 42.1532 65.2 42.8432 65.1C43.1532 65.06 43.4232 65.05 43.7332 64.97C44.0832 64.88 44.4432 64.78 44.7932 64.69C45.0732 64.62 45.3532 64.54 45.5832 64.38C46.0032 64.08 45.7332 63.49 45.3932 63.25C45.1332 63.07 44.8132 63 44.5032 62.96C43.7232 62.87 42.9932 63.06 42.2232 63.12C41.9932 63.14 41.7632 63.14 41.5432 63.19C41.3632 63.23 40.8632 63.38 40.9732 63.64C41.0132 63.72 41.1032 63.78 41.1932 63.8C41.2832 63.82 41.3832 63.8 41.4732 63.8C41.8032 63.76 42.1432 63.71 42.4732 63.73C42.5532 63.73 42.7632 63.73 42.7632 63.86C42.7632 63.99 42.5232 63.97 42.4432 63.98C41.7932 64.06 41.1332 64.08 40.4732 64.06C40.1032 64.05 39.7432 63.99 39.3832 63.97C39.1132 63.96 38.8132 63.97 38.5432 63.99C38.4732 63.99 38.3732 64.03 38.3932 64.1C38.4132 64.21 38.7432 64.4 38.8332 64.47C39.0132 64.6 39.2132 64.71 39.4132 64.79C39.7232 64.92 40.0532 65.01 40.3832 65.07H40.3932Z" fill="#F7967C"/>
<path d="M54.123 66.12C55.703 66.32 57.293 66.53 58.733 67.18C59.773 67.65 60.443 68.15 60.923 69.18C61.133 69.62 61.193 70.13 61.093 70.61C61.043 70.85 60.933 71.03 60.843 71.25C60.753 71.45 60.723 71.68 60.643 71.89C60.613 71.96 60.593 72.02 60.543 72.08C60.163 72.53 59.493 72.44 58.973 72.38C58.613 72.34 58.273 72.18 57.923 72.1C57.543 72.02 57.163 71.91 56.793 71.77C52.243 70.09 47.923 67.78 44.003 64.93C43.493 64.56 42.943 64 43.673 63.55C45.133 62.66 46.963 64.02 48.233 64.65C49.893 65.48 51.763 65.8 53.603 66.04C53.783 66.06 53.963 66.09 54.143 66.11L54.123 66.12Z" fill="#F7967C"/>
<path d="M60.922 69.18C60.442 68.16 59.772 67.65 58.732 67.18C57.292 66.53 55.702 66.32 54.122 66.12C54.002 66.1 53.882 66.09 53.762 66.07C53.762 66.08 53.762 66.1 53.762 66.11C53.552 67.46 53.082 68.74 52.582 70.01C53.952 70.66 55.352 71.24 56.782 71.77C57.152 71.91 57.532 72.01 57.912 72.1C58.262 72.18 58.602 72.33 58.962 72.38C59.492 72.45 60.152 72.53 60.532 72.08C60.582 72.03 60.602 71.96 60.632 71.89C60.712 71.68 60.752 71.45 60.832 71.25C60.922 71.03 61.032 70.85 61.082 70.61C61.182 70.13 61.122 69.62 60.912 69.18H60.922Z" fill="#FFBE7C"/>
<path d="M28.9134 55.03C28.9134 55.03 28.9034 54.96 28.8934 54.93C28.8534 54.8 28.8034 54.68 28.7234 54.58C28.5734 54.38 28.2234 54.13 27.9634 54.21C27.7234 54.28 27.5834 54.54 27.6134 54.78C27.6634 55.15 27.9934 55.37 28.3134 55.49C28.5234 55.57 28.8234 55.55 28.9034 55.3C28.9334 55.21 28.9234 55.12 28.9034 55.03H28.9134Z" fill="#F7967C"/>
<path d="M28.6829 58.14C28.6829 58.14 28.6729 58.07 28.6629 58.04C28.6229 57.91 28.5729 57.79 28.4929 57.69C28.3429 57.49 27.9929 57.24 27.7329 57.32C27.4929 57.39 27.3529 57.65 27.3829 57.89C27.4329 58.26 27.7629 58.48 28.0829 58.6C28.2929 58.68 28.5929 58.66 28.6729 58.41C28.7029 58.32 28.6929 58.23 28.6729 58.14H28.6829Z" fill="#F7967C"/>
<path d="M29.1829 56.06C29.1829 56.06 29.1529 56.01 29.1429 55.98C28.9629 55.68 28.4429 55.17 28.0129 55.28C27.7429 55.35 27.5929 55.61 27.6229 55.85C27.6629 56.23 28.1129 56.53 28.4829 56.65C28.6629 56.71 28.8629 56.72 29.0529 56.66C29.1129 56.64 29.1829 56.61 29.2129 56.56C29.2329 56.53 29.2429 56.49 29.2529 56.45C29.2729 56.31 29.2529 56.17 29.1829 56.05V56.06Z" fill="#F7967C"/>
<path d="M29.1732 57.08C29.1732 57.08 29.1432 57.03 29.1332 57C28.9532 56.7 28.4332 56.19 28.0032 56.3C27.7332 56.37 27.5832 56.63 27.6132 56.87C27.6532 57.25 28.1032 57.55 28.4732 57.67C28.6532 57.73 28.8532 57.74 29.0432 57.68C29.1032 57.66 29.1732 57.63 29.2032 57.58C29.2232 57.55 29.2332 57.51 29.2432 57.47C29.2632 57.33 29.2432 57.19 29.1732 57.07V57.08Z" fill="#F7967C"/>
<path d="M57.2825 53.77C57.2525 54.03 57.0625 54.25 56.8825 54.4C56.7325 54.53 56.5625 54.65 56.3925 54.77C55.8125 55.17 55.2225 55.58 54.6425 55.98C54.1425 56.32 53.8225 56.63 53.2825 56.15C52.9625 55.87 52.6325 55.58 52.4025 55.21C52.2425 54.95 52.1525 54.69 52.1125 54.43C52.0425 54.02 52.0725 53.59 52.0325 53.14C52.0325 53.11 52.0325 53.08 52.0325 53.05L51.9825 52.48L51.8125 50.5C51.8125 50.45 51.8125 50.39 51.8125 50.34C51.8125 50.32 51.8125 50.29 51.8125 50.27C51.8325 49.6 52.6525 49.72 53.1025 49.69L55.5225 49.54C55.7925 49.52 56.1525 49.29 56.3725 49.57C56.5725 49.83 56.5725 50.42 56.6325 50.74C56.7725 51.45 56.9325 52.16 57.1025 52.86C57.1725 53.14 57.3325 53.48 57.2925 53.77H57.2825Z" fill="#F7967C"/>
<path d="M56.283 51.08C56.053 51.97 55.253 52.72 54.343 53.03C53.893 53.18 53.403 53.23 52.933 53.1C52.553 52.99 52.213 52.78 51.963 52.48L51.793 50.5C51.793 50.45 51.793 50.39 51.793 50.34C51.793 50.32 51.793 50.29 51.793 50.27C51.853 50.2 51.913 50.14 51.993 50.1C52.113 50.03 52.253 50 52.433 49.98C52.513 49.98 52.593 49.97 52.673 49.96C53.083 49.91 53.473 49.74 53.903 49.7C54.463 49.65 55.043 49.67 55.573 49.86C56.193 50.07 56.453 50.4 56.273 51.09L56.283 51.08Z" fill="#E63950"/>
<path d="M51.5324 42.48C52.3724 41.8 53.3224 41.44 54.4224 41.62C55.4224 41.79 56.3524 42.3 57.0324 43.05C58.1524 44.27 58.3824 45.83 58.0824 47.4C57.9124 48.3 57.5724 49.17 57.1224 49.97C56.6524 50.81 56.0124 51.58 55.1924 52.13C54.3724 52.68 52.9324 52.85 52.0924 52.19C51.5024 51.72 51.0724 51.21 50.7924 50.49C50.6924 50.24 50.6224 49.98 50.5524 49.72C50.2124 48.43 50.1624 47.23 50.2324 45.89C50.2924 44.73 50.5324 43.41 51.4024 42.59C51.4424 42.55 51.4924 42.51 51.5324 42.47V42.48Z" fill="#F7967C"/>
<path d="M49.3134 45.07C49.3034 45.22 49.2734 45.36 49.2134 45.51C49.0334 45.95 48.6434 46.36 48.7134 46.83C48.7634 47.21 49.0934 47.49 49.2334 47.85C49.3634 48.17 49.3234 48.55 49.1434 48.84C49.5734 48.78 49.8934 48.32 49.8134 47.9C49.7834 47.77 49.7334 47.64 49.7134 47.51C49.6734 47.23 49.8334 47 49.9834 46.78C50.1734 46.5 50.3434 46.25 50.3834 45.9C50.4334 45.47 50.4834 45.23 50.7334 44.87C51.0134 44.46 51.2734 44.05 51.3834 43.56C51.6634 44.34 52.4834 44.88 53.3134 44.84C53.5634 44.83 53.8234 44.77 54.0634 44.84C54.3134 44.92 54.5034 45.12 54.7034 45.28C54.9634 45.48 55.2834 45.62 55.6034 45.68C55.7834 45.71 55.9634 45.72 56.1434 45.78C56.3934 45.87 56.5934 46.07 56.7334 46.29C56.9734 46.67 57.0634 47.11 57.2134 47.53C57.3534 47.95 57.6534 48.65 58.1734 48.14C58.3134 48 58.3934 47.81 58.4434 47.62C58.5634 47.15 58.5134 46.64 58.6334 46.17C58.6734 46.02 58.7334 45.87 58.7734 45.72C58.8634 45.41 58.8734 45.08 58.8334 44.76C58.7634 44.32 58.5734 43.91 58.2834 43.57C58.0734 43.32 58.0334 43.03 57.9234 42.74C57.8234 42.47 57.6234 42.25 57.4034 42.08C57.1634 41.9 56.8834 41.77 56.6134 41.65C56.3334 41.52 56.0434 41.39 55.7634 41.26C55.5734 41.17 55.3834 41.09 55.1834 41.02C54.3934 40.74 53.4934 40.77 52.7134 41.06C52.3034 41.21 51.9734 41.44 51.6334 41.7C51.4534 41.83 51.3534 41.94 51.2434 42.14C51.2134 42.2 51.0034 42.77 51.0034 42.77C50.4134 42.82 49.6834 43.26 49.4534 43.84C49.2934 44.24 49.3734 44.66 49.3434 45.07H49.3134Z" fill="#9E554E"/>
<path d="M53.1435 46.6C53.1435 46.6 53.1435 46.6 53.1635 46.6C53.3135 46.61 53.2635 47.04 53.2635 47.14C53.2435 47.37 53.2035 47.59 53.1335 47.81C53.0435 48.08 52.9035 48.33 52.8135 48.6C52.7035 48.94 53.0835 49.12 53.3235 49.2C53.4435 49.24 53.3435 49.33 53.2535 49.3C53.0335 49.23 52.7535 49.09 52.6335 48.86C52.5735 48.74 52.6035 48.62 52.6435 48.5C52.7035 48.35 52.7735 48.2 52.8335 48.05C52.9235 47.83 52.9935 47.59 53.0335 47.35C53.0535 47.23 53.0635 47.11 53.0735 46.98C53.0735 46.88 53.0335 46.72 53.0935 46.63C53.1035 46.61 53.1335 46.59 53.1535 46.59L53.1435 46.6Z" fill="#E63950"/>
<path d="M50.7037 46.36C50.7037 46.36 50.6837 46.37 50.6737 46.38C50.6637 46.38 50.6037 46.43 50.5938 46.41C50.5938 46.39 50.5938 46.37 50.5938 46.35C50.6438 46.24 50.7337 46.16 50.8237 46.09C51.0137 45.93 51.2138 45.83 51.4438 45.79C51.7238 45.75 52.0037 45.76 52.2837 45.81C52.3837 45.83 52.5937 45.85 52.6337 45.96C52.6737 46.07 52.5237 46.18 52.4137 46.2C52.3137 46.21 52.2237 46.18 52.1237 46.15C51.9637 46.11 51.8037 46.07 51.6437 46.05C51.4937 46.03 51.3338 46.05 51.1838 46.1C51.0638 46.14 50.9538 46.2 50.8438 46.26C50.7938 46.29 50.7537 46.32 50.7037 46.35V46.36Z" fill="#9E554E"/>
<path d="M56.7037 46.58C56.6337 46.34 56.2337 46.13 56.0337 46.03C55.5937 45.81 55.0937 45.74 54.6137 45.84C54.4337 45.88 54.2537 46.09 54.4637 46.24C54.5237 46.28 54.6037 46.29 54.6837 46.3C54.8637 46.32 55.0437 46.31 55.2237 46.29C55.4637 46.25 55.7137 46.18 55.9537 46.23C56.1037 46.26 56.2237 46.34 56.3537 46.42C56.4437 46.48 56.6037 46.61 56.7137 46.58H56.7037Z" fill="#9E554E"/>
<path d="M55.1333 46.98C55.2133 46.91 55.3233 46.92 55.4033 46.97C55.4833 47 55.5533 47.05 55.5933 47.12C55.6533 47.22 55.6633 47.35 55.6533 47.46C55.6333 47.57 55.6033 47.67 55.5333 47.76C55.4533 47.86 55.3233 47.88 55.2133 47.84C55.2133 47.84 55.2133 47.84 55.1933 47.84C55.1733 47.84 55.1633 47.82 55.1433 47.81C55.1333 47.81 55.1233 47.8 55.1133 47.79C55.0933 47.78 55.0733 47.76 55.0533 47.74C54.9733 47.64 54.9533 47.49 54.9633 47.37C54.9633 47.3 54.9933 47.22 55.0333 47.15C55.0533 47.09 55.0933 47.03 55.1333 46.99V46.98Z" fill="#723737"/>
<path d="M51.7331 46.9C51.8031 46.82 51.9131 46.82 52.0031 46.86C52.0831 46.88 52.1631 46.93 52.2031 46.99C52.2731 47.08 52.3031 47.21 52.2931 47.33C52.2931 47.44 52.2631 47.55 52.2031 47.64C52.1331 47.74 52.0131 47.78 51.8931 47.75C51.8931 47.75 51.8831 47.75 51.8731 47.75C51.8531 47.75 51.8431 47.74 51.8231 47.73C51.8131 47.73 51.8031 47.73 51.7931 47.71C51.7731 47.7 51.7431 47.68 51.7231 47.66C51.6331 47.57 51.5931 47.42 51.6031 47.3C51.6031 47.23 51.6131 47.15 51.6431 47.07C51.6631 47.01 51.6831 46.95 51.7231 46.9H51.7331Z" fill="#723737"/>
<path d="M57.8124 47.44C57.8124 47.44 57.8724 47.47 57.9024 47.49C58.1224 47.64 58.2624 47.89 58.3024 48.16C58.3324 48.43 58.2724 48.7 58.1524 48.94C57.9824 49.29 57.7024 49.59 57.3624 49.79C57.2124 49.87 57.0524 49.94 56.8924 49.94C56.6924 49.94 56.4724 49.83 56.4224 49.62C56.3924 49.51 56.3824 49.4 56.3924 49.28C56.4024 49.18 56.4624 49.11 56.4824 49.04C56.5524 48.72 56.5424 48.39 56.6224 48.08C56.7624 47.57 57.3124 47.2 57.8124 47.45V47.44Z" fill="#F7967C"/>
<path d="M54.4242 49.79C54.4242 49.79 54.3842 49.79 54.3742 49.79C53.8042 49.89 53.2242 49.91 52.6442 49.86C52.3642 49.84 52.2242 49.98 52.4242 50.22C52.8542 50.73 53.5642 50.87 54.1542 50.55C54.3542 50.44 54.5542 50.23 54.6442 50.02C54.6642 49.98 54.6742 49.93 54.6642 49.89C54.6342 49.8 54.5242 49.78 54.4242 49.79Z" fill="white"/>
<path d="M53.7134 44.11C53.7134 44.11 53.6034 44.07 53.5634 44.08C52.8734 44.25 52.2034 43.75 52.0934 43.07C52.0834 42.99 51.8634 42.99 51.8734 43.06C51.9334 43.44 52.1534 43.77 52.4634 43.99C52.8134 44.23 53.2634 44.29 53.6734 44.19C53.7134 44.19 53.7434 44.15 53.7134 44.11Z" fill="#7F3D3D"/>
<path d="M53.8934 43.55C53.5234 43.5 53.1933 43.25 53.0333 42.91C53.0033 42.84 52.7834 42.85 52.8134 42.93C52.9934 43.32 53.3934 43.6 53.8234 43.66C53.8634 43.66 53.9433 43.67 53.9633 43.63C53.9833 43.59 53.9234 43.56 53.8934 43.56V43.55Z" fill="#7F3D3D"/>
<path d="M56.5034 42.03C56.5034 42.03 56.3834 42.03 56.3634 42.06C56.3434 42.1 56.4034 42.13 56.4334 42.13C56.8934 42.23 57.2434 42.68 57.2734 43.15C57.2734 43.23 57.5034 43.24 57.4934 43.16C57.4634 42.61 57.0334 42.14 56.5034 42.02V42.03Z" fill="#7F3D3D"/>
<path d="M50.3731 43.47C50.3731 43.47 50.2631 43.44 50.2131 43.47C49.8831 43.63 49.6531 43.99 49.6731 44.36C49.6731 44.41 49.7431 44.42 49.7831 44.42C49.8131 44.42 49.9031 44.42 49.8931 44.37C49.8731 44.04 50.0531 43.7 50.3631 43.56C50.4031 43.54 50.4031 43.5 50.3631 43.48L50.3731 43.47Z" fill="#7F3D3D"/>
<path d="M59.0332 49.31C58.9732 49.27 58.7732 49.31 58.8732 49.38C59.4332 49.79 59.6732 50.58 59.4632 51.23C59.4332 51.32 59.6532 51.34 59.6732 51.27C59.9132 50.56 59.6432 49.74 59.0332 49.3V49.31Z" fill="#7F3D3D"/>
<path d="M58.6939 49.89C58.6539 49.83 58.4339 49.86 58.5039 49.94C58.7739 50.28 58.8939 50.74 58.8439 51.17C58.8439 51.25 59.0539 51.26 59.0639 51.18C59.1239 50.72 58.9839 50.25 58.7039 49.89H58.6939Z" fill="#7F3D3D"/>
<path d="M49.9027 49.8C49.7327 50.1 49.7027 50.46 49.8227 50.78C49.8527 50.85 50.0627 50.84 50.0427 50.76C49.9327 50.46 49.9627 50.12 50.1227 49.84C50.1627 49.77 49.9427 49.73 49.9127 49.8H49.9027Z" fill="#7F3D3D"/>
<path d="M59.1535 60.11C58.7735 61.8 58.3935 63.49 58.0235 65.18C57.9135 65.66 57.8135 66.14 57.7035 66.62C57.6935 66.68 57.8835 66.69 57.8935 66.62C58.2735 64.93 58.6535 63.24 59.0235 61.55C59.1335 61.07 59.2335 60.59 59.3435 60.11C59.3535 60.05 59.1635 60.04 59.1535 60.11Z" fill="#F49262"/>
<path d="M60.7326 68.1099C60.1626 67.4699 59.3526 67.1299 58.5526 66.8999C57.5926 66.6199 56.6026 66.4499 55.6226 66.2999C55.0526 66.2099 54.4826 66.1399 53.9026 66.0699C53.8726 66.0699 53.7926 66.0699 53.7826 66.0999C53.7726 66.1399 53.8226 66.1599 53.8526 66.1599C54.8426 66.2899 55.8426 66.4199 56.8326 66.6099C57.7126 66.7799 58.6226 66.9699 59.4426 67.3499C59.8626 67.5499 60.2625 67.8199 60.5725 68.1699C60.6125 68.2199 60.8026 68.1899 60.7426 68.1199L60.7326 68.1099Z" fill="#F49262"/>
<path d="M61.7431 71.36C61.7431 71.36 61.6431 71.36 61.6131 71.38C60.6831 72.06 59.4731 72.15 58.3631 71.97C57.7431 71.87 57.1331 71.69 56.5331 71.5C55.9431 71.31 55.3531 71.11 54.7731 70.89C54.1031 70.64 53.4431 70.37 52.8031 70.06C52.7631 70.04 52.7031 70.04 52.6631 70.06C52.6331 70.08 52.6231 70.11 52.6631 70.13C53.8531 70.69 55.0831 71.14 56.3331 71.55C57.5231 71.94 58.7731 72.28 60.0331 72.11C60.6631 72.02 61.2731 71.81 61.7931 71.43C61.8331 71.4 61.7931 71.37 61.7631 71.36H61.7431Z" fill="#F49262"/>
<path d="M42.6126 68.18C42.1126 67.27 41.2926 66.55 40.3226 66.16C40.2826 66.14 40.2226 66.13 40.1826 66.16C40.1526 66.18 40.1426 66.21 40.1826 66.23C41.1326 66.61 41.9326 67.31 42.4226 68.2C42.4526 68.26 42.6426 68.24 42.6126 68.17V68.18Z" fill="#F49262"/>
<path d="M31.043 55.71C31.043 54.91 31.363 54.42 32.083 54.42C32.803 54.42 33.103 54.88 33.103 55.68C33.103 56.48 32.803 57.01 32.083 57.01C31.363 57.01 31.043 56.52 31.043 55.72V55.71ZM32.693 55.68C32.693 55.04 32.553 54.74 32.083 54.74C31.613 54.74 31.453 55.1 31.453 55.72C31.453 56.34 31.613 56.69 32.083 56.69C32.553 56.69 32.693 56.28 32.693 55.68Z" fill="white"/>
<path d="M33.543 54.46H34.203L34.833 56.02L35.083 56.73L35.063 56.02V54.46H35.443V56.95H34.803L34.163 55.39L33.913 54.67L33.933 55.39V56.95H33.543V54.46Z" fill="white"/>
<path d="M36.0234 54.46H36.4434V56.61C36.8634 56.61 37.4134 56.58 37.4134 56.58C37.4134 56.66 37.3634 56.96 37.3534 56.96H36.0334V54.47L36.0234 54.46Z" fill="white"/>
<path d="M37.8438 54.46H38.2538V56.95H37.8438V54.46Z" fill="white"/>
<path d="M38.8438 54.46H39.5038L40.1337 56.02L40.3837 56.73L40.3638 56.02V54.46H40.7438V56.95H40.1038L39.4638 55.39L39.2138 54.67L39.2338 55.39V56.95H38.8438V54.46Z" fill="white"/>
<path d="M41.3127 54.46H42.7427C42.7427 54.46 42.7427 54.5 42.7427 54.55C42.7427 54.59 42.7327 54.68 42.6827 54.79C42.6827 54.79 42.1627 54.77 41.7327 54.77V55.52C42.0227 55.52 42.6127 55.5 42.6127 55.5C42.6127 55.5 42.6127 55.55 42.6127 55.6C42.6127 55.62 42.5927 55.76 42.5627 55.82C42.5627 55.82 41.9627 55.82 41.7227 55.82V56.64C42.1527 56.64 42.7527 56.61 42.7527 56.61C42.7527 56.61 42.7527 56.66 42.7527 56.72C42.7527 56.77 42.7527 56.86 42.7227 56.95H41.3027V54.46H41.3127Z" fill="white"/>
<path d="M30.9336 58.97H31.3536V61.12C31.7736 61.12 32.3236 61.09 32.3236 61.09C32.3236 61.17 32.2736 61.47 32.2636 61.47H30.9436V58.98L30.9336 58.97Z" fill="white"/>
<path d="M32.7541 58.97H34.1841C34.1841 58.97 34.1841 59.01 34.1841 59.06C34.1841 59.1 34.1741 59.19 34.1241 59.3C34.1241 59.3 33.6041 59.28 33.1741 59.28V60.03C33.4641 60.03 34.0541 60.01 34.0541 60.01C34.0541 60.01 34.0541 60.06 34.0541 60.11C34.0541 60.13 34.0341 60.27 34.0041 60.33C34.0041 60.33 33.4041 60.33 33.1641 60.33V61.15C33.5941 61.15 34.1941 61.12 34.1941 61.12C34.1941 61.12 34.1941 61.18 34.1941 61.23C34.1941 61.28 34.1941 61.37 34.1641 61.46H32.7441V58.97H32.7541Z" fill="white"/>
<path d="M34.6132 61.04C34.6132 61.04 34.9532 61.16 35.2032 61.16C35.5932 61.16 35.7132 61.04 35.7132 60.81C35.7132 60.55 35.5732 60.46 35.2632 60.38C34.7232 60.23 34.5332 60.04 34.5332 59.67C34.5332 59.14 34.8732 58.92 35.4032 58.92C35.8032 58.92 36.0232 59.07 36.0232 59.07C36.0232 59.07 36.0132 59.21 35.8932 59.38C35.8932 59.38 35.7132 59.25 35.4032 59.25C35.0632 59.25 34.9332 59.36 34.9332 59.6C34.9332 59.87 35.0632 59.94 35.4132 60.03C35.9232 60.17 36.1232 60.33 36.1232 60.74C36.1232 61.25 35.8732 61.5 35.2232 61.5C34.8432 61.5 34.5332 61.36 34.5332 61.36C34.5332 61.36 34.5332 61.22 34.6132 61.03V61.04Z" fill="white"/>
<path d="M36.5937 61.04C36.5937 61.04 36.9337 61.16 37.1837 61.16C37.5737 61.16 37.6937 61.04 37.6937 60.81C37.6937 60.55 37.5537 60.46 37.2437 60.38C36.7037 60.23 36.5137 60.04 36.5137 59.67C36.5137 59.14 36.8537 58.92 37.3837 58.92C37.7837 58.92 38.0037 59.07 38.0037 59.07C38.0037 59.07 37.9937 59.21 37.8737 59.38C37.8737 59.38 37.6937 59.25 37.3837 59.25C37.0437 59.25 36.9137 59.36 36.9137 59.6C36.9137 59.87 37.0437 59.94 37.3937 60.03C37.9037 60.17 38.1037 60.33 38.1037 60.74C38.1037 61.25 37.8537 61.5 37.2037 61.5C36.8237 61.5 36.5137 61.36 36.5137 61.36C36.5137 61.36 36.5137 61.22 36.5937 61.03V61.04Z" fill="white"/>
<path d="M38.4531 60.22C38.4531 59.42 38.7731 58.93 39.4931 58.93C40.2131 58.93 40.5131 59.39 40.5131 60.19C40.5131 60.99 40.2131 61.52 39.4931 61.52C38.7731 61.52 38.4531 61.03 38.4531 60.23V60.22ZM40.1031 60.19C40.1031 59.55 39.9631 59.25 39.4931 59.25C39.0231 59.25 38.8631 59.61 38.8631 60.23C38.8631 60.85 39.0231 61.2 39.4931 61.2C39.9631 61.2 40.1031 60.79 40.1031 60.19Z" fill="white"/>
<path d="M40.9531 58.97H41.6131L42.2431 60.53L42.4931 61.24L42.4731 60.53V58.97H42.8531V61.46H42.2131L41.5731 59.9L41.3231 59.18L41.3431 59.9V61.46H40.9531V58.97Z" fill="white"/>
</g>
<path d="M43.6916 31.59H35.9316V33.02H43.6916V31.59Z" fill="#D7EEFE"/>
<path d="M66.6113 31.77H66.5413C66.5013 31.51 66.2513 31.31 65.9513 31.31H61.4613C61.1313 31.31 60.8613 31.55 60.8613 31.85V32.77C60.8613 33.07 61.1313 33.3 61.4613 33.3H65.9513C66.2513 33.3 66.5013 33.1 66.5413 32.84H66.6113C66.8113 32.84 66.9613 32.7 66.9613 32.52V32.08C66.9613 31.9 66.8013 31.76 66.6113 31.76V31.77Z" fill="white"/>
<path d="M64.6513 31.31H61.4613C61.1313 31.31 60.8613 31.55 60.8613 31.85V32.77C60.8613 33.07 61.1313 33.31 61.4613 33.31H64.6013C64.6013 33.31 64.6313 33.23 64.6413 33.19V31.32L64.6513 31.31Z" fill="#FFBE7C"/>
<path d="M65.9617 33.4H61.4717C61.0817 33.4 60.7617 33.11 60.7617 32.76V31.84C60.7617 31.49 61.0817 31.2 61.4717 31.2H65.9617C66.2817 31.2 66.5617 31.39 66.6417 31.66C66.8917 31.67 67.0917 31.86 67.0917 32.08V32.52C67.0917 32.74 66.8917 32.93 66.6417 32.94C66.5517 33.21 66.2717 33.4 65.9617 33.4ZM61.4717 31.41C61.2017 31.41 60.9917 31.6 60.9917 31.84V32.76C60.9917 33 61.2117 33.19 61.4717 33.19H65.9617C66.2017 33.19 66.4017 33.03 66.4417 32.82V32.73H66.6217C66.7517 32.73 66.8617 32.63 66.8617 32.52V32.08C66.8617 31.96 66.7517 31.87 66.6217 31.87H66.4517V31.78C66.4017 31.57 66.2017 31.41 65.9617 31.41H61.4717Z" fill="white"/>
<path d="M69.1417 76.28H34.2617V85.06H69.1417V76.28Z" fill="#7FAFC6"/>
<path d="M69.1417 75.34H34.2617V76.64H69.1417V75.34Z" fill="#D7EEFE"/>
<path d="M39.5517 75.34H34.2617V76.64H39.5517V75.34Z" fill="#F26061"/>
<path d="M41.2408 75.99C41.2408 76.94 40.4708 77.71 39.5208 77.71C38.5708 77.71 37.8008 76.94 37.8008 75.99C37.8008 75.04 38.5708 74.27 39.5208 74.27C40.4708 74.27 41.2408 75.04 41.2408 75.99Z" fill="#F26061"/>
<path d="M54.842 81.03C54.842 82.5 53.652 83.7 52.172 83.7C50.692 83.7 49.502 82.51 49.502 81.03C49.502 79.55 50.692 78.36 52.172 78.36C53.652 78.36 54.842 79.55 54.842 81.03Z" fill="white"/>
<path d="M51.0723 81.0301V79.1301L52.7223 80.0801L54.3823 81.0301L52.7223 81.9901L51.0723 82.9401V81.0301Z" fill="#D7EEFE"/>
<path d="M58.9805 81.03V79.73L60.1105 80.38L61.2405 81.03L60.1105 81.69L58.9805 82.34V81.03Z" fill="white"/>
<path d="M62.0607 79.73H61.4707V82.34H62.0607V79.73Z" fill="white"/>
<path d="M45.3616 81.03V79.73L44.2316 80.38L43.1016 81.03L44.2316 81.69L45.3616 82.34V81.03Z" fill="white"/>
<path d="M42.2811 82.34H42.8711V79.73H42.2811V82.34Z" fill="white"/>
<path d="M69.133 85.04V90.52C68.583 91.62 67.653 92.34 66.603 92.34H36.823C35.763 92.34 34.833 91.62 34.293 90.52V85.04H69.133Z" fill="#D7EEFE"/>
<path d="M69.6432 89.72V91.87C69.6432 93.55 68.2832 94.91 66.6032 94.91H36.8232C35.1432 94.91 33.7832 93.55 33.7832 91.87V89.72H69.6432Z" fill="#1A73E8"/>
<path d="M39.6822 86.52H36.6722C36.5722 86.52 36.4922 86.44 36.4922 86.34C36.4922 86.24 36.5722 86.16 36.6722 86.16H39.6822C39.7822 86.16 39.8622 86.24 39.8622 86.34C39.8622 86.44 39.7822 86.52 39.6822 86.52Z" fill="#7FAFC6"/>
<path d="M39.692 87.51H36.682C36.582 87.51 36.502 87.43 36.502 87.33C36.502 87.23 36.582 87.15 36.682 87.15H39.692C39.792 87.15 39.872 87.23 39.872 87.33C39.872 87.43 39.792 87.51 39.692 87.51Z" fill="#7FAFC6"/>
<path d="M39.7115 88.5H36.7015C36.6015 88.5 36.5215 88.42 36.5215 88.32C36.5215 88.22 36.6015 88.14 36.7015 88.14H39.7115C39.8115 88.14 39.8915 88.22 39.8915 88.32C39.8915 88.42 39.8115 88.5 39.7115 88.5Z" fill="#7FAFC6"/>
<path d="M53.0722 86.7H49.7422V88.5H53.0722V86.7Z" fill="#7FAFC6"/>
<path d="M52.0628 86.89L51.5628 86.11C51.5328 86.06 51.4728 86.02 51.4028 86.03C51.3428 86.03 51.2828 86.06 51.2528 86.12L50.7928 86.89L50.6328 86.79L51.0928 86.02C51.1628 85.91 51.2728 85.84 51.4028 85.84C51.5328 85.84 51.6528 85.9 51.7228 86.01L52.2228 86.79L52.0628 86.89Z" fill="#7FAFC6"/>
<path d="M46.4628 86.15H43.1328V88.51H46.4628V86.15Z" fill="#7FAFC6"/>
<path d="M46.4628 86.15V86.23L44.7928 87.39L43.1328 86.23V86.15H43.2528L44.7928 87.22L46.3428 86.15H46.4628Z" fill="#D7EEFE"/>
<path d="M59.442 87.35C59.442 87.7 59.312 88.02 59.112 88.27C58.852 88.58 58.452 88.78 58.012 88.78C57.572 88.78 57.172 88.58 56.912 88.27C56.702 88.02 56.582 87.7 56.582 87.35C56.582 86.56 57.222 85.92 58.012 85.92C58.802 85.92 59.442 86.56 59.442 87.35Z" fill="#7FAFC6"/>
<path d="M59.1121 88.2701C58.8521 88.5801 58.4521 88.7801 58.0121 88.7801C57.5721 88.7801 57.1721 88.5801 56.9121 88.2701C56.9821 88.0901 57.1221 87.9801 57.2921 87.9001C57.4621 87.8201 57.6421 87.7201 57.6521 87.5101C57.6521 87.3901 57.5621 87.3301 57.5221 87.2301C57.4821 87.1301 57.4821 87.0201 57.4821 86.9101C57.4821 86.7601 57.5021 86.6001 57.6021 86.4801C57.7121 86.3501 57.8521 86.2801 58.0121 86.3001C58.1621 86.2801 58.3121 86.3501 58.4221 86.4801C58.5121 86.6001 58.5421 86.7601 58.5421 86.9101C58.5421 87.0201 58.5421 87.1301 58.5021 87.2301C58.4621 87.3301 58.3721 87.4001 58.3721 87.5101C58.3721 87.7201 58.5621 87.8201 58.7321 87.9001C58.9021 87.9801 59.0421 88.1001 59.1121 88.2701Z" fill="#D7EEFE"/>
<path d="M65.722 86.7501H63.502V88.5101H65.722V86.7501Z" fill="#7FAFC6"/>
<path d="M64.612 86.05L63.502 86.75H65.722L64.612 86.05Z" fill="#7FAFC6"/>
<path d="M64.9822 87.2601H64.2422V88.0001H64.9822V87.2601Z" fill="#D7EEFE"/>
</g>
</g>
<defs>
<clipPath id="clip0_347_5846">
<rect width="139.102" height="120" fill="white" transform="translate(0 0.612793)"/>
</clipPath>
<clipPath id="clip1_347_5846">
<rect width="80" height="82" fill="white" transform="translate(27.1523 23)"/>
</clipPath>
</defs>
</svg>
