<svg width="140" height="121" viewBox="0 0 140 121" fill="none" xmlns="http://www.w3.org/2000/svg">
<g clip-path="url(#clip0_347_6296)">
<path d="M30.8678 98.2142C21.9312 89.9521 17.4402 77.7418 17.4402 61.597C17.4402 45.452 21.9314 33.2425 30.867 25.0479C39.8097 16.8467 52.7124 12.6907 69.6207 12.6907C86.529 12.6907 99.4317 16.8467 108.374 25.0479C117.31 33.2425 121.801 45.452 121.801 61.597C121.801 77.7418 117.31 89.9521 108.374 98.2142C99.4311 106.482 86.5291 110.638 69.6207 110.638C52.7124 110.638 39.8103 106.482 30.8678 98.2142Z" stroke="#E63950" stroke-width="0.595238"/>
<path d="M112.064 109.29C118.073 104.774 122.112 98.3623 125.245 91.7685C131.037 79.5856 131.183 59.6106 117.572 51.4907C109.288 46.5484 102.125 54.7279 97.2396 43.8328C96.1754 41.457 95.7909 38.8547 95.2036 36.3269C92.9978 26.8446 87.3162 17.7291 78.2572 13.3174C69.1983 8.90563 56.61 10.4259 50.2965 18.2358C47.5988 21.5744 46.0994 25.8252 42.6922 28.5169C35.1177 34.5026 29.6031 32.5113 20.9615 36.9797C13.077 41.0546 5.23727 52.8857 4.57849 57.065C0.786794 81.1178 12.8713 88.1944 23.838 101.269C33.0401 112.241 38.3341 112.539 52.4844 116.733C66.6347 120.928 85.3011 122.355 98.0295 114.736" stroke="#D1A092" stroke-miterlimit="10"/>
<g clip-path="url(#clip1_347_6296)">
<path d="M128.824 72.4423V73.4215C128.824 76.1706 126.94 78.405 124.63 78.405H-0.56804C-1.03257 78.405 -1.8612 78.5306 -1.94909 77.815C-1.98675 77.5263 -1.88631 77.3255 -1.73565 77.1497C-1.63521 77.0368 -1.52222 76.9363 -1.40922 76.8485C-1.38411 76.8359 -1.37156 76.8108 -1.34645 76.7982C-1.34645 76.7982 -1.32134 76.7857 -1.32134 76.7731C-1.30878 76.7731 -1.29623 76.748 -1.28367 76.7355C-1.27112 76.7355 -1.25856 76.7104 -1.24601 76.6978C-1.2209 76.6727 -1.18323 76.6476 -1.15812 76.6225C-1.13301 76.5974 -1.1079 76.5723 -1.08279 76.5472C-1.08279 76.5472 -1.07024 76.5346 -1.05768 76.5221C-1.03257 76.497 -1.00746 76.4719 -0.969799 76.4342C-0.94469 76.4091 -0.91958 76.3714 -0.894469 76.3463C-0.831695 76.271 -0.76892 76.1957 -0.706145 76.1204C-0.681035 76.0953 -0.66848 76.0702 -0.655925 76.0451C-0.655925 76.0451 -0.64337 76.02 -0.630815 76.0074C-0.61826 75.9823 -0.59315 75.9572 -0.580595 75.9321C-0.56804 75.9195 -0.555485 75.8944 -0.54293 75.8819C-0.530375 75.8568 -0.505265 75.8317 -0.49271 75.8066C-0.4676 75.7689 -0.44249 75.7312 -0.41738 75.6936C-0.39227 75.6559 -0.379715 75.6183 -0.354605 75.5806C-0.329495 75.5429 -0.304385 75.5053 -0.29183 75.4676C-0.203945 75.317 -0.128615 75.1538 -0.0658405 74.9906C-0.0658405 74.9655 -0.0407306 74.9404 -0.0281756 74.9027C0.00948942 74.8149 0.0345994 74.7395 0.0597093 74.6517C0.0722644 74.6015 0.0973742 74.5512 0.109929 74.501C0.135039 74.4006 0.160149 74.3002 0.185259 74.1998C0.185259 74.1495 0.210369 74.0993 0.222924 74.0491C0.248034 73.911 0.273144 73.773 0.285699 73.6349C0.298254 73.5219 0.310809 73.4215 0.310809 73.3085C0.310809 73.2834 0.310809 73.2583 0.310809 73.2332C0.310809 73.2081 0.310809 73.1704 0.310809 73.1453C0.310809 73.1202 0.310809 73.1076 0.310809 73.0825C0.310809 73.0449 0.310809 72.9947 0.310809 72.957C0.310809 72.9068 0.310809 72.8566 0.310809 72.8189C0.310809 72.8189 0.310809 72.8189 0.310809 72.7938C0.310809 72.7436 0.310809 72.7059 0.310809 72.6557C0.310809 72.6055 0.310809 72.5553 0.310809 72.5051C0.310809 72.4549 0.310809 72.4047 0.298254 72.3545C0.298254 72.3168 0.298254 72.2666 0.285699 72.2289V72.2038C0.285699 72.1536 0.273144 72.116 0.260589 72.0657C0.260589 72.0155 0.248034 71.9779 0.235479 71.9277C0.235479 71.9277 0.235479 71.9151 0.235479 71.9025C0.235479 71.8774 0.235479 71.8523 0.222924 71.8147C0.222924 71.7896 0.222924 71.7645 0.210369 71.7268C0.197814 71.6515 0.172704 71.5762 0.160149 71.5134C0.109929 71.3502 0.0597093 71.1745 -0.00306559 71.0113C-0.153725 70.6096 -0.354605 70.233 -0.605705 69.8941C-0.655925 69.8313 -0.706145 69.756 -0.756365 69.6932C-0.76892 69.6681 -0.79403 69.643 -0.806585 69.6304C-0.894469 69.53 -0.982354 69.4421 -1.07024 69.3417C-1.09535 69.3166 -1.12046 69.2915 -1.14557 69.2664C-1.18323 69.2287 -1.20834 69.2036 -1.24601 69.166C-1.27112 69.1409 -1.30878 69.1158 -1.33389 69.0907C-1.37156 69.0656 -1.39667 69.0404 -1.43433 69.0028C-1.54733 68.9149 -1.64777 68.827 -1.7231 68.7266C-1.82354 68.6011 -1.88631 68.4505 -1.91142 68.2245C-1.94909 67.8354 -1.76076 67.4713 -1.40922 67.4713H124.63C126.953 67.4713 128.824 69.7058 128.824 72.4549V72.4423Z" fill="#F26061"/>
<path d="M123.15 72.4423V73.4215C123.15 76.1706 121.266 78.405 118.956 78.405H114.512C116.834 78.405 118.705 76.1706 118.705 73.4215V72.4423C118.705 69.6932 116.822 67.4587 114.512 67.4587H118.956C121.279 67.4587 123.15 69.6932 123.15 72.4423Z" fill="#DD5259"/>
<path d="M65.3956 72.4423V73.4215C65.3956 76.1706 63.5124 78.405 61.2023 78.405H56.7578C59.0805 78.405 60.9512 76.1706 60.9512 73.4215V72.4423C60.9512 69.6932 59.0679 67.4587 56.7578 67.4587H61.2023C63.525 67.4587 65.3956 69.6932 65.3956 72.4423Z" fill="#DD5259"/>
<path d="M47.2292 72.367V73.5093C47.2292 75.5178 45.8607 77.1497 44.1533 77.1497H-1.72266C-1.62222 77.0368 -1.50922 76.9363 -1.39623 76.8485C-1.37112 76.8359 -1.35856 76.8108 -1.33345 76.7983C-1.33345 76.7983 -1.30834 76.7857 -1.30834 76.7731C-1.29579 76.7731 -1.28323 76.748 -1.27068 76.7355C-1.25812 76.7229 -1.23301 76.7104 -1.22046 76.6978C-1.19535 76.6727 -1.15768 76.6476 -1.13257 76.6225C-1.10746 76.5974 -1.08235 76.5723 -1.05724 76.5472C-1.05724 76.5472 -1.04469 76.5346 -1.03213 76.5221C-1.00702 76.497 -0.981912 76.4593 -0.944247 76.4342C-0.919137 76.4091 -0.894027 76.3714 -0.868917 76.3463C-0.806142 76.271 -0.743367 76.1957 -0.680593 76.1204C-0.655483 76.0953 -0.642928 76.0702 -0.630373 76.0451C-0.630373 76.0451 -0.617818 76.02 -0.605263 76.0074C-0.592708 75.9823 -0.567598 75.9572 -0.555043 75.9321C-0.542488 75.9195 -0.529933 75.8944 -0.517378 75.8819C-0.504823 75.8568 -0.479713 75.8317 -0.467158 75.8066C-0.442048 75.7689 -0.416938 75.7312 -0.391828 75.6936C-0.366718 75.6559 -0.341608 75.6183 -0.329053 75.5806C-0.303943 75.5429 -0.278833 75.5053 -0.266278 75.4676C-0.178393 75.317 -0.103063 75.1538 -0.0402883 74.9906C-0.0402883 74.9655 -0.0151784 74.9404 -0.00262344 74.9027C0.0350416 74.8149 0.0601517 74.7395 0.0852617 74.6517C0.0978167 74.6015 0.122927 74.5512 0.135482 74.501C0.160592 74.4006 0.198256 74.3002 0.210811 74.1998C0.210811 74.1496 0.235921 74.0993 0.248476 74.0491C0.273586 73.911 0.298696 73.773 0.311251 73.6349C0.323806 73.5219 0.336361 73.4215 0.336361 73.3085C0.336361 73.2834 0.336361 73.2583 0.336361 73.2332C0.336361 73.2081 0.336361 73.1704 0.336361 73.1453C0.336361 73.1202 0.336361 73.1076 0.336361 73.0825C0.336361 73.0449 0.336361 72.9947 0.336361 72.957C0.336361 72.9068 0.336361 72.8566 0.336361 72.8189C0.336361 72.8189 0.336361 72.8189 0.336361 72.7938C0.336361 72.7436 0.336361 72.7059 0.336361 72.6557C0.336361 72.6055 0.336361 72.5553 0.336361 72.5051C0.336361 72.4549 0.336361 72.4047 0.323806 72.3545C0.323806 72.3168 0.323806 72.2666 0.311251 72.2289V72.2038C0.311251 72.1536 0.298696 72.116 0.286141 72.0657C0.286141 72.0155 0.273586 71.9779 0.261031 71.9277C0.261031 71.9277 0.261031 71.9151 0.261031 71.9025C0.261031 71.8774 0.261031 71.8523 0.248476 71.8147C0.248476 71.7896 0.248476 71.7645 0.235921 71.7268C0.223366 71.6515 0.198256 71.5762 0.185701 71.5134C0.135482 71.3377 0.0852618 71.1745 0.0224868 71.0113C-0.128173 70.6096 -0.329053 70.233 -0.580153 69.8941C-0.630373 69.8313 -0.680592 69.756 -0.730812 69.6932C-0.743367 69.6681 -0.768477 69.643 -0.781032 69.6304C-0.868917 69.53 -0.956802 69.4421 -1.04469 69.3417C-1.0698 69.3166 -1.09491 69.2915 -1.12002 69.2664C-1.18279 69.2036 -1.24557 69.1534 -1.30834 69.0907C-1.34601 69.0656 -1.37112 69.0404 -1.40878 69.0028C-1.52178 68.9149 -1.62222 68.827 -1.69755 68.7266H44.1533C45.8482 68.7266 47.2292 70.3585 47.2292 72.367Z" fill="white"/>
<path d="M14.8881 70.2204H2.50892C2.50892 70.2204 2.3457 70.233 2.3457 70.3083C2.3457 70.371 2.4587 70.3961 2.50892 70.3961H14.8881C14.8881 70.3961 15.0513 70.3836 15.0513 70.3083C15.0513 70.2455 14.9384 70.2204 14.8881 70.2204Z" fill="#7FAFC6"/>
<path d="M15.013 72.731H8.5597C8.5597 72.731 8.39648 72.7436 8.39648 72.8189C8.39648 72.8817 8.50948 72.9068 8.5597 72.9068H15.013C15.013 72.9068 15.1762 72.8942 15.1762 72.8189C15.1762 72.7561 15.0632 72.731 15.013 72.731Z" fill="#7FAFC6"/>
<path d="M7.64339 75.9822H3.16126C3.16126 75.9822 2.99805 75.9948 2.99805 76.0701C2.99805 76.1329 3.11104 76.158 3.16126 76.158H7.64339C7.64339 76.158 7.80661 76.1454 7.80661 76.0701C7.80661 76.0073 7.69361 75.9822 7.64339 75.9822Z" fill="#7FAFC6"/>
<path d="M35.2894 74.7646H23.2492C23.2492 74.7646 23.0859 74.7771 23.0859 74.8525C23.0859 74.9152 23.1989 74.9403 23.2492 74.9403H35.2894C35.2894 74.9403 35.4526 74.9278 35.4526 74.8525C35.4526 74.7897 35.3396 74.7646 35.2894 74.7646Z" fill="#7FAFC6"/>
<path d="M42.6717 70.8355H35.3019C35.3019 70.8355 35.1387 70.8481 35.1387 70.9234C35.1387 70.9861 35.2517 71.0113 35.3019 71.0113H42.6717C42.6717 71.0113 42.8349 70.9987 42.8349 70.9234C42.8349 70.8606 42.7219 70.8355 42.6717 70.8355Z" fill="#7FAFC6"/>
<path d="M23.374 71.5761H21.2648C21.2648 71.5761 21.1016 71.5887 21.1016 71.664C21.1016 71.7267 21.2146 71.7519 21.2648 71.7519H23.374C23.374 71.7519 23.5372 71.7393 23.5372 71.664C23.5372 71.6012 23.4242 71.5761 23.374 71.5761Z" fill="#7FAFC6"/>
<path d="M-0.153229 70.258C-0.454549 69.7183 -0.856308 69.2287 -1.3334 68.827C-1.39617 68.7768 -1.48406 68.7768 -1.55939 68.8019C-1.60961 68.8144 -1.67238 68.8647 -1.62216 68.9149C-0.793533 69.6178 -0.178339 70.597 0.0476508 71.6765C0.185756 72.2791 0.198311 72.9193 0.110426 73.5344C0.0225408 74.1495 -0.190894 74.7395 -0.467104 75.2918C-0.768423 75.8944 -1.14507 76.4467 -1.57194 76.9488C-1.67238 77.0618 -1.35851 77.112 -1.29573 77.0367C-0.893973 76.5722 -0.554988 76.0827 -0.266224 75.5429C0.0350959 74.9906 0.273641 74.4006 0.386635 73.7855C0.612625 72.5929 0.4243 71.3251 -0.165784 70.2706L-0.153229 70.258Z" fill="#7FAFC6"/>
<path d="M135.05 84.5937V85.8113C135.05 89.2258 133.217 91.9874 130.957 91.9874H8.9607C8.50872 91.9874 7.7052 92.1506 7.61732 91.2468C7.57965 90.8953 7.68009 90.6443 7.83075 90.4309C7.91864 90.2928 8.04419 90.1798 8.14463 90.0543C8.16974 90.0292 8.18229 90.0166 8.2074 89.9915L8.23251 89.9664C8.24507 89.9538 8.25762 89.9413 8.27018 89.9287C8.28273 89.9162 8.29529 89.9036 8.30784 89.8911C8.33295 89.8534 8.37062 89.8283 8.39573 89.7906C8.42084 89.7655 8.44595 89.7279 8.47106 89.7028C8.47106 89.7028 8.48361 89.6777 8.49617 89.6777C8.52128 89.64 8.54639 89.6024 8.5715 89.5772C8.59661 89.5396 8.62172 89.5019 8.64683 89.4643C8.7096 89.3764 8.77238 89.2885 8.8226 89.1881C8.83515 89.163 8.86026 89.1253 8.87282 89.1002C8.87282 89.0877 8.88537 89.0751 8.89793 89.0626C8.91048 89.0375 8.93559 88.9998 8.94815 88.9747C8.9607 88.9496 8.97326 88.9245 8.98581 88.9119C8.99837 88.8743 9.02348 88.8492 9.03603 88.8115C9.06114 88.7613 9.08625 88.7236 9.11136 88.6734C9.13647 88.6232 9.14903 88.5856 9.17414 88.5353C9.19925 88.4851 9.2118 88.4349 9.23691 88.3847C9.31224 88.1964 9.38757 87.9956 9.45035 87.7822C9.45035 87.7445 9.47546 87.7194 9.48801 87.6817C9.51312 87.5813 9.55079 87.4683 9.5759 87.3679C9.58845 87.3051 9.61356 87.2424 9.62612 87.1796C9.65123 87.0541 9.67634 86.9285 9.70145 86.803C9.70145 86.7402 9.72656 86.6775 9.73911 86.6147C9.76422 86.439 9.78933 86.2758 9.80189 86.1C9.81444 85.962 9.827 85.8364 9.827 85.6983C9.827 85.6732 9.827 85.6356 9.827 85.6105C9.827 85.5728 9.827 85.5352 9.827 85.4975C9.827 85.4724 9.827 85.4473 9.827 85.4222C9.827 85.372 9.827 85.3218 9.827 85.2715C9.827 85.2088 9.827 85.1586 9.827 85.0958C9.827 85.0958 9.827 85.0832 9.827 85.0707C9.827 85.0205 9.827 84.9577 9.827 84.9075C9.827 84.8447 9.827 84.782 9.827 84.7192C9.827 84.6564 9.827 84.5937 9.81444 84.5309C9.81444 84.4807 9.81444 84.4179 9.80189 84.3677C9.80189 84.3677 9.80189 84.3426 9.80189 84.3301C9.80189 84.2799 9.78933 84.2171 9.77678 84.1669C9.77678 84.1167 9.76422 84.0539 9.75167 84.0037C9.75167 84.0037 9.75167 83.9786 9.75167 83.966C9.75167 83.9284 9.75167 83.9033 9.73911 83.8656C9.72656 83.8279 9.73911 83.8028 9.72656 83.7652C9.714 83.6773 9.68889 83.5894 9.67634 83.5016C9.62612 83.2882 9.5759 83.0873 9.51312 82.8865C9.36246 82.3843 9.16158 81.9199 8.92304 81.4931C8.87282 81.4052 8.8226 81.3299 8.77238 81.242C8.75982 81.2169 8.73471 81.1918 8.72216 81.1541C8.63427 81.0286 8.55894 80.9156 8.47106 80.8026C8.44595 80.765 8.42084 80.7399 8.39573 80.7148C8.35806 80.6771 8.33295 80.6395 8.29529 80.6018C8.27018 80.5641 8.23251 80.539 8.2074 80.5139C8.16974 80.4763 8.14463 80.4512 8.10696 80.4135C7.99397 80.3005 7.90608 80.2001 7.8182 80.062C7.71776 79.9114 7.65498 79.7105 7.64243 79.4344C7.60476 78.9448 7.78053 78.5054 8.13207 78.5054H130.97C133.23 78.5054 135.063 81.2671 135.063 84.6815L135.05 84.5937Z" fill="#E63950"/>
<path d="M55.5265 84.4932V85.9117C55.5265 88.4098 54.1831 90.4308 52.5384 90.4308H7.83008C7.91796 90.2928 8.04351 90.1798 8.14395 90.0543C8.16906 90.0292 8.18162 90.0166 8.20673 89.9915L8.23184 89.9664C8.24439 89.9538 8.25695 89.9413 8.2695 89.9287C8.28206 89.9162 8.30717 89.8911 8.31972 89.8785C8.34483 89.8409 8.3825 89.8158 8.40761 89.7781C8.43272 89.753 8.45783 89.7153 8.48294 89.6902C8.48294 89.6902 8.49549 89.6651 8.50805 89.6651C8.53316 89.6275 8.55827 89.5898 8.58338 89.5647C8.60849 89.527 8.6336 89.4894 8.65871 89.4517C8.72148 89.3638 8.78426 89.276 8.83448 89.1755C8.84703 89.1504 8.87214 89.1128 8.8847 89.0877C8.8847 89.0751 8.89725 89.0626 8.90981 89.05C8.92236 89.0249 8.94747 88.9872 8.96003 88.9621C8.97258 88.937 8.98514 88.9119 8.99769 88.8994C9.01025 88.8617 9.03536 88.8366 9.04791 88.7989C9.07302 88.7487 9.09813 88.7111 9.12324 88.6609C9.14835 88.6107 9.17346 88.5604 9.18602 88.5102C9.21113 88.46 9.22368 88.4098 9.24879 88.3596C9.32412 88.1713 9.39945 87.9704 9.46223 87.757C9.46223 87.7194 9.48734 87.6943 9.49989 87.6566C9.53756 87.5562 9.56267 87.4558 9.58778 87.3428C9.60033 87.28 9.62544 87.2173 9.638 87.1545C9.66311 87.029 9.68822 86.9034 9.71333 86.7779C9.71333 86.7151 9.73844 86.6524 9.75099 86.5896C9.7761 86.4264 9.80121 86.2507 9.81377 86.0749C9.82632 85.9369 9.83888 85.8113 9.83888 85.6732C9.83888 85.6481 9.83888 85.6105 9.83888 85.5854C9.83888 85.5477 9.83888 85.51 9.83888 85.4724C9.83888 85.4473 9.83888 85.4222 9.83888 85.3971C9.83888 85.3469 9.83888 85.2966 9.83888 85.2464C9.83888 85.1837 9.83888 85.1335 9.83888 85.0707C9.83888 85.0707 9.83888 85.0581 9.83888 85.0456C9.83888 84.9954 9.83888 84.9326 9.83888 84.8824C9.83888 84.8196 9.83888 84.7569 9.83888 84.6941C9.83888 84.6313 9.83888 84.5686 9.82632 84.5058C9.82632 84.4556 9.82632 84.3928 9.81377 84.3426C9.81377 84.3426 9.81377 84.3175 9.81377 84.305C9.81377 84.2547 9.80121 84.192 9.78866 84.1418C9.78866 84.0915 9.7761 84.0288 9.76355 83.9786C9.76355 83.9786 9.76355 83.9535 9.76355 83.9409C9.76355 83.9033 9.76355 83.8781 9.75099 83.8405C9.73844 83.8028 9.75099 83.7777 9.73844 83.7401C9.72588 83.6522 9.70077 83.5643 9.68822 83.4764C9.638 83.263 9.58778 83.0622 9.525 82.8613C9.37434 82.3592 9.17346 81.8948 8.93492 81.468C8.8847 81.3801 8.83448 81.3048 8.78426 81.2169C8.7717 81.1918 8.74659 81.1667 8.73404 81.129C8.64615 81.0035 8.57082 80.8905 8.48294 80.7775C8.45783 80.7399 8.43272 80.7148 8.40761 80.6897C8.34483 80.6143 8.28206 80.5516 8.21928 80.4763C8.18162 80.4386 8.15651 80.4135 8.11884 80.3758C8.00585 80.2629 7.91796 80.1624 7.83008 80.0244H52.5384C54.1956 80.0244 55.5265 82.0454 55.5265 84.5435V84.4932Z" fill="white"/>
<path d="M24.0148 81.832H11.962C11.962 81.832 11.8114 81.8445 11.7988 81.9324C11.7988 82.0203 11.9118 82.0328 11.962 82.0328H24.0274C24.0274 82.0328 24.178 82.0203 24.1906 81.9324C24.1906 81.8445 24.0776 81.832 24.0274 81.832H24.0148Z" fill="#7FAFC6"/>
<path d="M24.1408 84.9451H17.8507C17.8507 84.9451 17.7001 84.9577 17.6875 85.0456C17.6875 85.1334 17.8005 85.146 17.8507 85.146H24.1408C24.1408 85.146 24.2914 85.1334 24.2914 85.0456C24.2914 84.9577 24.1784 84.9451 24.1408 84.9451Z" fill="#7FAFC6"/>
<path d="M16.9584 88.9747H12.6018C12.6018 88.9747 12.4512 88.9872 12.4512 89.0751C12.4512 89.163 12.5642 89.1755 12.6018 89.1755H16.9584C16.9584 89.1755 17.1091 89.163 17.1216 89.0751C17.1216 88.9872 17.0086 88.9747 16.9584 88.9747Z" fill="#7FAFC6"/>
<path d="M43.9021 87.4683H32.1632C32.1632 87.4683 32.0126 87.4809 32 87.5687C32 87.6566 32.113 87.6692 32.1632 87.6692H43.9021C43.9021 87.6692 44.0528 87.6566 44.0653 87.5687C44.0653 87.4809 43.9523 87.4683 43.9021 87.4683Z" fill="#7FAFC6"/>
<path d="M51.0841 82.5852H43.9026C43.9026 82.5852 43.752 82.5978 43.752 82.6856C43.752 82.7735 43.8649 82.7861 43.9026 82.7861H51.0841C51.0841 82.7861 51.2347 82.7735 51.2473 82.6856C51.2473 82.5978 51.1343 82.5852 51.0841 82.5852Z" fill="#7FAFC6"/>
<path d="M32.2886 83.5141H30.2296C30.2296 83.5141 30.079 83.5267 30.0664 83.6145C30.0664 83.7024 30.1794 83.7149 30.2296 83.7149H32.2886C32.2886 83.7149 32.4393 83.7024 32.4393 83.6145C32.4393 83.5267 32.3263 83.5141 32.2886 83.5141Z" fill="#7FAFC6"/>
<path d="M9.36301 81.8697C9.06169 81.1918 8.67249 80.5892 8.20795 80.0997C8.15773 80.0369 8.05729 80.0369 7.99452 80.062C7.9443 80.0746 7.88152 80.1499 7.9443 80.2001C8.76037 81.0663 9.35046 82.2839 9.57644 83.6271C9.70199 84.3803 9.7271 85.1586 9.63922 85.9243C9.55133 86.69 9.35045 87.4181 9.07424 88.1085C8.78548 88.8492 8.42139 89.5521 7.99452 90.1672C7.89408 90.3053 8.1954 90.3681 8.27073 90.2677C8.65993 89.7028 8.99891 89.0751 9.27512 88.4098C9.56389 87.7194 9.80243 86.9913 9.91543 86.2256C10.1414 84.7443 9.95309 83.1626 9.37557 81.8571L9.36301 81.8697Z" fill="#7FAFC6"/>
<path d="M79.295 33.2767C79.4331 34.5069 79.5837 35.7246 79.7218 36.9548C79.747 37.1431 79.7595 37.3314 79.7218 37.5071C79.5963 38.1348 78.7425 38.2979 78.2403 38.5239C77.6754 38.775 77.0476 38.8754 76.4199 38.8879C75.428 38.913 74.4613 38.7247 73.4695 38.6369C72.3897 38.5364 71.2974 38.436 70.2554 38.1473C69.8034 38.0218 69.3514 37.8335 69.0752 37.4694C68.8492 37.1682 68.7739 36.7916 68.7237 36.415C68.3094 33.8918 68.121 30.854 68.8618 28.3685C69.0752 27.6655 69.3263 26.9751 69.7281 26.36C70.9208 24.5021 73.3941 23.5732 75.5159 24.1883C76.2567 24.4017 76.8467 24.7406 77.3615 25.3055C78.73 26.7742 78.73 28.4312 78.9434 30.2891C79.0564 31.2808 79.1694 32.2725 79.295 33.2642V33.2767Z" fill="#9E554E"/>
<path d="M93.0417 60.2031C93.1045 60.0775 93.1421 59.9394 93.1672 59.8014C93.2551 59.2616 92.9287 58.8473 92.4893 58.5335C91.6104 57.9184 90.4805 57.7301 89.4007 57.8054C88.321 57.8682 87.2789 58.1695 86.2369 58.4331C82.4076 59.3997 78.4528 59.9018 74.5105 59.9646C74.498 59.9646 74.4729 59.9646 74.4603 59.9646C74.3222 59.9646 74.1715 59.9646 74.0334 59.9646C73.9581 59.9646 73.8702 59.9646 73.7949 59.9646C73.7196 59.9646 73.6317 59.9646 73.5563 59.9646C73.4182 59.9646 73.2676 59.9646 73.1295 59.9646C73.1169 59.9646 73.0918 59.9646 73.0793 59.9646C69.1244 59.9018 65.1822 59.3997 61.3529 58.4331C60.3108 58.1695 59.2688 57.8807 58.189 57.8054C57.1093 57.7427 55.9919 57.9184 55.1005 58.5335C54.6485 58.8473 54.3221 59.2616 54.4225 59.8014C54.4477 59.9394 54.4853 60.0775 54.5481 60.2031C54.3472 60.8935 54.3723 61.6341 54.5732 62.3245C54.8243 63.1907 55.3516 63.9815 56.0547 64.5464C56.8205 65.1615 57.7622 65.5005 58.7038 65.7892C63.1859 67.1575 67.9066 67.4964 72.5896 67.4964C72.9914 67.4964 73.3931 67.4964 73.8074 67.4713C74.2092 67.4964 74.611 67.4964 75.0253 67.4964C79.7083 67.4964 84.4415 67.1575 88.9111 65.7892C89.8527 65.5005 90.7943 65.1615 91.5602 64.5464C92.2633 63.9815 92.7906 63.1907 93.0417 62.3245C93.2426 61.6341 93.2677 60.8935 93.0668 60.2031H93.0417Z" fill="#E63950"/>
<path d="M77.4236 37.2686C77.0595 37.8837 76.4192 38.2854 75.7287 38.4988C75.0507 38.6996 74.3226 38.7247 73.6069 38.7122C73.0168 38.7122 72.4519 38.6368 71.912 38.4109C71.3094 38.1598 70.7821 37.7079 70.4933 37.1179C70.4054 36.9422 70.305 36.7037 70.2422 36.4526C72.1757 35.9756 74.1593 35.7998 76.256 36.1011C76.7331 36.1639 77.1977 36.2643 77.6496 36.3898C77.6747 36.6911 77.5743 37.0049 77.4111 37.2811L77.4236 37.2686Z" fill="#F7967C"/>
<path d="M83.5117 40.8839C83.5117 40.9592 83.4992 41.0345 83.4866 41.0973C83.4992 41.273 83.5117 41.4488 83.5117 41.6245C83.5494 42.7543 83.3611 43.9092 83.2481 45.0264C83.1727 45.7419 83.0848 46.4575 83.0095 47.173C82.9467 47.7253 82.884 48.2777 82.8337 48.83C82.658 50.7506 82.6078 52.6963 82.6203 54.617C82.6203 55.7467 82.8086 56.8891 82.9216 58.0063C82.9593 58.3954 83.0095 58.8348 82.9216 59.2239C82.8337 59.5629 82.5575 59.7763 82.2688 59.952C81.4527 60.4541 80.5487 60.8182 79.6197 61.0567C78.678 61.2826 77.7113 61.3705 76.7446 61.4458C74.1206 61.6592 71.4589 61.835 68.8977 61.245C67.6673 60.9563 66.4872 60.5044 65.3195 60.0399C65.0308 59.9269 64.7043 59.7763 64.629 59.475C64.5914 59.3495 64.629 59.2114 64.629 59.0733C64.8801 57.6046 65.1187 56.1108 65.1187 54.617C65.1187 52.6838 65.081 50.7506 64.9052 48.83C64.855 48.2777 64.7922 47.7253 64.7295 47.173C64.5537 45.6792 64.1896 44.2607 63.8506 42.792C63.7 42.1769 63.5618 41.5492 63.6121 40.909C63.6874 40.0931 64.1017 39.3273 64.6918 38.7499C66.0854 37.3565 68.2323 36.8418 70.0779 36.3774C70.2034 36.3397 70.329 36.3146 70.4545 36.2895C70.7935 36.2142 71.1325 36.1388 71.4715 36.1012C71.6975 36.0635 71.9235 36.0384 72.1495 36.0259C72.6768 35.9757 73.1915 35.9505 73.6937 35.9631C73.7565 35.9631 73.8067 35.9631 73.8695 35.9631C73.9323 35.9631 73.9825 35.9631 74.0453 35.9631C74.3466 35.9631 74.6605 35.9631 74.9743 35.9757C75.0622 35.9757 75.1501 35.9757 75.2254 35.9882C75.3133 35.9882 75.4012 36.0008 75.4891 36.0133C75.5267 36.0133 75.5644 36.0133 75.5895 36.0133C75.8155 36.0384 76.0415 36.0635 76.2675 36.0886C76.6441 36.1388 77.0082 36.2142 77.3598 36.302C77.4602 36.3271 77.5607 36.3522 77.6611 36.3774C78.0252 36.4652 78.3893 36.5656 78.7408 36.6661C78.8538 36.7163 78.9543 36.7539 79.0673 36.8042C79.3686 36.9422 79.6573 37.0678 79.9587 37.2059C80.486 37.4444 81.0509 37.6201 81.5908 37.8461C82.0805 38.0469 82.432 38.3733 82.8589 38.6746C83.4489 39.0763 83.5243 40.0931 83.5117 40.7709C83.5117 40.8086 83.5117 40.8462 83.5117 40.8839Z" fill="white"/>
<path d="M76.7938 36.415C76.819 36.5656 76.7562 36.779 76.6683 37.0552C76.3167 38.2226 76.0657 39.3775 75.6513 40.5198C75.1491 41.9007 74.6218 43.269 74.0694 44.6247C74.0066 44.7628 73.9062 44.926 73.7681 44.9009C73.6677 44.8883 73.6049 44.7879 73.5547 44.6875C72.7637 43.1685 72.1485 41.5743 71.5961 39.9675C71.3199 39.1641 71.0562 38.3482 70.8051 37.5322C70.7423 37.3188 70.3782 36.5782 70.4536 36.3773C70.554 36.1388 71.2445 36.1263 71.4831 36.0886C71.7091 36.0509 71.9351 36.0258 72.161 36.0133C72.6884 35.9631 73.2031 35.938 73.7053 35.9505C73.7681 35.9505 73.8183 35.9505 73.8811 35.9505C73.9439 35.9505 73.9941 35.9505 74.0569 35.9505C74.3582 35.9505 74.672 35.9505 74.9859 35.9631C75.0738 35.9631 75.1617 35.9631 75.237 35.9756C75.3249 35.9756 75.4128 35.9882 75.5007 36.0007C75.5383 36.0007 75.576 36.0007 75.6011 36.0007C75.8271 36.0258 76.0531 36.0509 76.2791 36.0761C76.6432 36.1263 76.7813 36.2267 76.8064 36.3899L76.7938 36.415Z" fill="#F7967C"/>
<path d="M90.6693 52.847C90.029 51.2778 89.238 49.7966 88.4722 48.2902C87.5557 46.47 86.6266 44.6624 85.6724 42.8673C85.12 41.8379 84.5299 40.8211 83.8771 39.842C83.8394 39.7918 83.8017 39.7416 83.7641 39.6788C83.6134 39.5407 83.4502 39.4026 83.2995 39.2645C83.1112 39.1014 82.9103 38.9507 82.722 38.8001C82.6216 38.7499 82.5086 38.6997 82.4081 38.662C80.55 37.8335 79.0057 38.775 78.8299 40.8337C78.7546 41.8003 78.8048 43.1183 79.3824 43.9343C81.705 47.1981 83.7766 50.6753 85.9737 54.027C86.4634 54.7676 86.953 55.5333 87.6812 56.0355C88.4596 56.5752 89.7779 56.638 90.5563 56.0731C91.5733 55.3325 91.0711 53.8136 90.6693 52.847Z" fill="#F7967C"/>
<path d="M89.4141 49.5204C89.4141 49.2317 89.0249 48.7044 88.8868 48.4408C88.6984 48.0642 88.5101 47.6876 88.3092 47.311C87.7945 46.3194 87.3048 45.3151 86.7775 44.336C86.087 43.0556 85.3965 41.7751 84.5176 40.6077C84.0154 39.9424 83.4253 39.1139 82.7348 38.6369C82.1322 38.2226 81.3663 37.7205 80.6005 37.846C79.7467 37.9967 79.0311 38.5616 78.5917 39.2896C78.0141 40.2562 78.0518 41.3107 78.3657 42.3777C78.6293 43.2815 79.0688 44.1226 79.4956 44.9511C80.1987 46.3068 80.9143 47.65 81.6174 49.0057C81.9815 49.6961 82.3331 50.3866 82.6972 51.077C82.8604 51.4034 83.0864 51.7297 83.2245 52.0687C83.2872 52.257 83.2998 52.4704 83.4128 52.621C83.463 52.6838 83.5258 52.7214 83.6137 52.7591C83.8271 52.8344 84.0656 52.7716 84.2791 52.6963C84.5553 52.5959 84.8189 52.4578 85.0826 52.3323C85.9363 51.9055 86.7901 51.4787 87.6564 51.0519C88.3343 50.7129 88.9872 50.3112 89.6275 49.9597C89.5522 49.8091 89.4894 49.6585 89.4141 49.5078V49.5204Z" fill="white"/>
<path d="M79.6959 58.4958C79.6959 58.4958 79.7084 58.5084 79.6959 58.5084C79.4448 58.659 79.1434 58.7343 78.8547 58.772C78.704 58.7971 78.5659 58.8097 78.4153 58.8222C78.3148 58.8222 78.1893 58.8599 78.139 58.9603C78.1014 59.0482 78.1767 59.136 78.2395 59.1863C78.6161 59.4373 79.2188 59.2239 79.6456 59.1863C80.4994 59.1109 81.3782 58.8599 82.1064 58.3703C82.3575 58.2071 82.8095 57.9309 82.935 57.6548C83.048 57.4037 82.935 57.0146 82.8848 56.751C82.7969 56.2739 82.7091 55.9852 82.3575 55.8095C82.2571 55.7593 82.1441 55.7216 82.006 55.6839C81.7549 55.6212 81.5038 55.6086 81.2652 55.5333C81.0643 55.4705 80.8635 55.4203 80.65 55.3827C80.0976 55.2823 79.5703 55.1191 79.0053 55.1567C78.93 55.1567 78.8547 55.1693 78.7919 55.232C78.7166 55.3074 78.7291 55.4454 78.7919 55.5333C78.8672 55.6212 78.9677 55.6588 79.0807 55.6839C79.2062 55.7091 79.3318 55.7342 79.4573 55.7342C79.608 55.7342 79.7837 55.7467 79.8591 55.8848C79.8967 55.9476 79.8842 56.0229 79.8591 56.0856C79.7461 56.2614 79.3443 56.3116 79.156 56.3493C79.043 56.3744 78.93 56.3869 78.817 56.412C78.6036 56.4497 78.3901 56.4748 78.1893 56.4873C77.9507 56.4873 77.6996 56.4748 77.4611 56.5125C77.3732 56.525 77.2225 56.5627 77.1849 56.6631C77.1095 56.8639 77.5113 57.0397 77.6494 57.0648C77.8377 57.1024 78.0512 57.0773 78.2395 57.0648C78.5659 57.0271 78.9049 57.0146 79.2313 56.9518C79.3694 56.9267 79.2188 57.0397 79.1685 57.0522C79.1058 57.0773 79.0304 57.0773 78.9677 57.0899C78.817 57.1276 78.6789 57.1652 78.5282 57.1903C78.2395 57.2531 77.9382 57.3033 77.6494 57.2782C77.4736 57.2782 77.3104 57.2405 77.1346 57.2531C77.0091 57.2531 76.871 57.341 76.9087 57.4916C76.9589 57.6422 77.1095 57.7552 77.2476 57.818C77.3732 57.8682 77.5364 57.9058 77.6745 57.9058C77.8126 57.9058 77.9507 57.9058 78.1014 57.8933C78.4278 57.8682 78.7542 57.7929 79.0807 57.7301C79.156 57.7301 79.3569 57.6548 79.3318 57.7929C79.3066 57.8933 79.1434 57.9435 79.0555 57.9686C78.7668 58.0565 78.478 58.1067 78.1767 58.1192C78.026 58.1192 77.8754 58.1192 77.7373 58.1192C77.6243 58.1192 77.4736 58.069 77.3606 58.0941C77.2225 58.1192 77.2476 58.2824 77.2979 58.3703C77.3732 58.4958 77.4862 58.5837 77.6243 58.6339C77.8126 58.7092 78.026 58.6967 78.2269 58.6841C78.5031 58.6716 78.7793 58.6465 79.0555 58.5963C79.156 58.5837 79.2564 58.5335 79.3569 58.5084C79.4196 58.4958 79.4824 58.4707 79.5452 58.4707C79.5703 58.4707 79.608 58.4582 79.6331 58.4707C79.6331 58.4707 79.6582 58.4833 79.6833 58.4958H79.6959Z" fill="#F7967C"/>
<path d="M84.1277 55.5207C84.3411 55.4078 84.5545 55.2948 84.768 55.1818C86.1239 54.4663 87.4924 53.4871 89.112 53.7131C89.9281 53.8261 91.3719 54.7048 90.9074 55.6965C90.3926 56.8012 88.3587 57.4288 87.3166 57.7928C85.5966 58.4079 83.8389 58.9477 82.0812 59.4122C81.6167 59.5377 81.127 59.6507 80.6499 59.6005C80.5118 59.5879 80.3612 59.5503 80.2356 59.4875C80.085 59.4122 79.972 59.2867 79.8715 59.1486C79.4195 58.5209 79.3568 58.069 80.0598 57.6924C81.4158 56.9643 82.7717 56.2363 84.1277 55.5207Z" fill="#F7967C"/>
<path d="M90.3174 53.4369C89.8905 53.1608 89.3632 53.211 88.8861 53.2863C88.3337 53.3616 87.7938 53.5122 87.2791 53.7005C86.9903 53.8135 86.7015 53.939 86.4128 54.0897C86.3374 54.1273 86.4755 54.165 86.5132 54.1525C87.1033 53.8386 87.731 53.6127 88.3713 53.462C88.6852 53.3993 88.9991 53.3365 89.313 53.3114C89.6268 53.2863 89.9407 53.3114 90.2044 53.4871C90.242 53.5122 90.3801 53.4871 90.3048 53.4244L90.3174 53.4369Z" fill="#DB6357"/>
<path d="M57.0847 52.847C57.725 51.2778 58.5159 49.7966 59.2818 48.2902C60.1983 46.47 61.1274 44.6624 62.0816 42.8673C62.634 41.8379 63.2241 40.8211 63.8769 39.842C63.9146 39.7918 63.9522 39.7416 63.9899 39.6788C64.1406 39.5407 64.3038 39.4026 64.4544 39.2645C64.6428 39.1014 64.8436 38.9507 65.032 38.8001C65.1324 38.7499 65.2454 38.6997 65.3458 38.662C67.204 37.8335 68.7483 38.775 68.924 40.8337C68.9994 41.8003 68.9491 43.1183 68.3716 43.9343C66.0489 47.1981 63.9774 50.6753 61.7802 54.027C61.2906 54.7676 60.8009 55.5333 60.0728 56.0355C59.2943 56.5752 57.9761 56.638 57.1977 56.0731C56.1807 55.3325 56.6829 53.8136 57.0847 52.847Z" fill="#F7967C"/>
<path d="M58.3278 49.5204C58.3278 49.2317 58.717 48.7044 58.8551 48.4408C59.0435 48.0642 59.2318 47.6876 59.4327 47.311C59.9474 46.3194 60.4371 45.3151 60.9644 44.336C61.6549 43.0556 62.3454 41.7751 63.2243 40.6077C63.7265 39.9424 64.3166 39.1139 65.0071 38.6369C65.6097 38.2226 66.3756 37.7205 67.1414 37.846C67.9952 37.9967 68.7108 38.5616 69.1502 39.2896C69.7278 40.2562 69.6901 41.3107 69.3762 42.3777C69.1126 43.2815 68.6731 44.1226 68.2463 44.9511C67.5432 46.3068 66.8276 47.65 66.1245 49.0057C65.7604 49.6961 65.4088 50.3866 65.0448 51.077C64.8815 51.4034 64.6555 51.7297 64.53 52.0687C64.4672 52.257 64.4547 52.4704 64.3417 52.621C64.2915 52.6838 64.2287 52.7214 64.1408 52.7591C63.9274 52.8344 63.6888 52.7716 63.4754 52.6963C63.1992 52.5959 62.9355 52.4578 62.6719 52.3323L60.0981 51.0519C59.4201 50.7129 58.7673 50.3112 58.127 49.9597C58.2023 49.8091 58.2651 49.6585 58.3404 49.5078L58.3278 49.5204Z" fill="white"/>
<path d="M68.0592 58.4958C68.0592 58.4958 68.0467 58.5084 68.0592 58.5084C68.3103 58.659 68.6116 58.7343 68.9004 58.772C69.0511 58.7971 69.1892 58.8097 69.3398 58.8222C69.4403 58.8222 69.5658 58.8599 69.616 58.9603C69.6537 59.0482 69.5784 59.136 69.5156 59.1863C69.1389 59.4373 68.5363 59.2239 68.1094 59.1863C67.2557 59.1109 66.3768 58.8599 65.6487 58.3703C65.3976 58.2071 64.9456 57.9309 64.82 57.6548C64.707 57.4037 64.82 57.0146 64.8702 56.751C64.9581 56.2739 65.046 55.9852 65.3975 55.8095C65.498 55.7593 65.611 55.7216 65.7491 55.6839C66.0002 55.6212 66.2513 55.6086 66.4898 55.5333C66.6907 55.4705 66.8916 55.4203 67.105 55.3827C67.6574 55.2823 68.1848 55.1191 68.7497 55.1567C68.8251 55.1567 68.9004 55.1693 68.9632 55.232C69.0385 55.3074 69.0259 55.4454 68.9632 55.5333C68.8878 55.6212 68.7874 55.6588 68.6744 55.6839C68.5489 55.7091 68.4233 55.7342 68.2978 55.7342C68.1471 55.7342 67.9713 55.7467 67.896 55.8848C67.8583 55.9476 67.8709 56.0229 67.896 56.0856C68.009 56.2614 68.4107 56.3116 68.5991 56.3493C68.7121 56.3744 68.8251 56.3869 68.9381 56.412C69.1515 56.4497 69.3649 56.4748 69.5784 56.4873C69.8169 56.4873 70.068 56.4748 70.3065 56.5125C70.3944 56.525 70.5451 56.5627 70.5828 56.6631C70.6581 56.8639 70.2563 57.0397 70.1182 57.0648C69.9299 57.1024 69.7165 57.0773 69.5281 57.0648C69.2017 57.0271 68.8627 57.0146 68.5363 56.9518C68.3982 56.9267 68.5488 57.0397 68.5991 57.0522C68.6618 57.0773 68.7372 57.0773 68.7999 57.0899C68.9506 57.1276 69.0887 57.1652 69.2394 57.1903C69.5281 57.2531 69.8295 57.3033 70.1182 57.2782C70.294 57.2782 70.4572 57.2405 70.633 57.2531C70.7585 57.2531 70.9092 57.341 70.859 57.4916C70.8088 57.6422 70.6581 57.7552 70.52 57.818C70.3944 57.8682 70.2312 57.9058 70.0931 57.9058C69.955 57.9058 69.8169 57.9058 69.6662 57.8933C69.3398 57.8682 69.0134 57.7929 68.687 57.7301C68.6116 57.7301 68.4107 57.6548 68.4359 57.7929C68.461 57.8933 68.6242 57.9435 68.7121 57.9686C69.0008 58.0565 69.2896 58.1067 69.5909 58.1192C69.7416 58.1192 69.8922 58.1192 70.0303 58.1192C70.1433 58.1192 70.294 58.069 70.407 58.0941C70.5451 58.1192 70.52 58.2824 70.4698 58.3703C70.3944 58.4958 70.2814 58.5837 70.1433 58.6339C69.955 58.7092 69.7416 58.6967 69.5407 58.6841C69.2645 58.6716 68.9883 58.6465 68.7121 58.5963C68.6116 58.5837 68.5112 58.5335 68.4107 58.5084C68.348 58.4958 68.2852 58.4707 68.2224 58.4707C68.1973 58.4707 68.1596 58.4582 68.1345 58.4707C68.1345 58.4707 68.1094 58.4833 68.0843 58.4958H68.0592Z" fill="#F7967C"/>
<path d="M63.6139 55.5207C63.4004 55.4078 63.187 55.2948 62.9736 55.1818C61.6176 54.4663 60.2491 53.4871 58.6296 53.7131C57.8135 53.8261 56.3697 54.7048 56.8342 55.6965C57.3489 56.8012 59.3828 57.4288 60.4249 57.7928C62.1449 58.4079 63.9026 58.9477 65.6603 59.4122C66.1249 59.5377 66.6145 59.6507 67.0916 59.6005C67.2297 59.5879 67.3804 59.5503 67.5059 59.4875C67.6566 59.4122 67.7696 59.2867 67.87 59.1486C68.322 58.5209 68.3848 58.069 67.6817 57.6924C66.3258 56.9643 64.9698 56.2363 63.6139 55.5207Z" fill="#F7967C"/>
<path d="M57.4236 53.4369C57.8505 53.1608 58.3778 53.211 58.8549 53.2863C59.4073 53.3616 59.9472 53.5122 60.4619 53.7005C60.7507 53.8135 61.0395 53.939 61.3282 54.0897C61.4036 54.1273 61.2655 54.165 61.2278 54.1525C60.6377 53.8386 60.01 53.6127 59.3697 53.462C59.0558 53.3993 58.7419 53.3365 58.428 53.3114C58.1142 53.2863 57.8003 53.3114 57.5366 53.4871C57.499 53.5122 57.3609 53.4871 57.4362 53.4244L57.4236 53.4369Z" fill="#DB6357"/>
<path d="M82.0432 49.8844H65.8975C64.9822 49.8844 64.2402 50.6263 64.2402 51.5414V60.1403C64.2402 61.0554 64.9822 61.7973 65.8975 61.7973H82.0432C82.9585 61.7973 83.7005 61.0554 83.7005 60.1403V51.5414C83.7005 50.6263 82.9585 49.8844 82.0432 49.8844Z" fill="#243976"/>
<path d="M74.8247 52.1816C74.8247 52.4327 74.448 52.621 73.9709 52.621C73.4938 52.621 73.1172 52.4201 73.1172 52.1816C73.1172 51.9431 73.4938 51.7422 73.9709 51.7422C74.448 51.7422 74.8247 51.9431 74.8247 52.1816Z" fill="#7095AF"/>
<path d="M82.7579 50.4493C82.5068 50.2861 82.1804 50.2861 81.8916 50.3112C81.854 50.3112 81.7912 50.3363 81.8163 50.3865C81.8289 50.4242 81.9168 50.4242 81.9544 50.4242C82.1804 50.3991 82.4315 50.4117 82.6198 50.5372C82.7956 50.6627 82.9086 50.8636 82.8709 51.077C82.8584 51.1523 83.0718 51.1648 83.0969 51.077C83.1471 50.8259 82.9839 50.5874 82.7705 50.4493H82.7579Z" fill="#7095AF"/>
<path d="M82.9844 52.395V58.0941C82.9844 58.1694 83.2104 58.1694 83.2104 58.0941V52.395C83.2104 52.3197 82.9844 52.3197 82.9844 52.395Z" fill="#7095AF"/>
<path d="M69.6008 50.2986H67.0271C67.0271 50.2986 66.9141 50.2986 66.9141 50.3614C66.9141 50.4242 66.9894 50.4242 67.0271 50.4242H69.6008C69.6008 50.4242 69.7138 50.4242 69.7138 50.3614C69.7138 50.2986 69.6385 50.2986 69.6008 50.2986Z" fill="#7095AF"/>
<path d="M87.2795 74.4759C87.2795 74.4759 87.2168 74.501 87.1916 74.5136C86.5388 74.7144 85.798 74.4132 85.2331 74.1119C83.8018 73.3587 82.4208 72.4925 81.1653 71.4632C81.0774 71.3879 80.9769 71.3126 80.9142 71.2121C80.8263 71.074 80.7886 70.8983 80.7635 70.7351C80.7007 70.1828 80.9644 69.7434 81.0271 69.2287C81.0523 69.0153 81.0146 68.9275 81.2029 68.7517C81.68 68.2998 82.245 68.1492 82.8978 68.0864C82.9857 68.0864 83.0611 68.0739 83.1489 68.0613C83.3875 68.0488 83.6386 68.0613 83.8646 68.1366C84.2161 68.2622 84.4798 68.5383 84.7309 68.8019C85.3963 69.5175 86.0491 70.2581 86.7899 70.8858C87.0787 71.1368 87.3549 71.4255 87.5683 71.7645C87.7817 72.1034 88.0579 72.4925 88.1207 72.8942C88.2212 73.5345 87.8822 74.2374 87.2921 74.4759H87.2795Z" fill="white"/>
<path d="M86.8769 72.5553C86.8769 72.5553 86.7639 72.5176 86.7263 72.5302C86.5254 72.5929 86.3371 72.6683 86.1362 72.731C85.9604 72.7938 85.7219 72.9193 85.5461 72.7938C85.3955 72.6934 85.2825 72.5427 85.1569 72.4172C85.0188 72.2791 84.8807 72.1536 84.7426 72.0281C84.1902 71.5259 83.6001 71.074 82.9723 70.6598C82.8845 70.6096 82.7966 70.5593 82.7212 70.484C82.6459 70.4087 82.6459 70.2957 82.6459 70.1953C82.6459 69.9568 82.6459 69.7308 82.6459 69.4923C82.6459 69.417 82.4199 69.417 82.4199 69.4923C82.4199 69.7183 82.4199 69.9442 82.4199 70.1702C82.4199 70.2455 82.4199 70.3334 82.445 70.4087C82.4701 70.4966 82.5455 70.5468 82.6208 70.597C82.9598 70.823 83.2988 71.0489 83.6252 71.3C83.9516 71.551 84.2655 71.8147 84.5794 72.0908C84.73 72.2289 84.8807 72.367 85.0314 72.5176C85.1569 72.6432 85.2825 72.8189 85.4582 72.8942C85.6717 72.9946 85.9102 72.9319 86.1111 72.8566C86.3496 72.7687 86.5882 72.6934 86.8393 72.6055C86.8769 72.5929 86.9146 72.5678 86.8769 72.5302V72.5553Z" fill="#7095AF"/>
<path d="M87.2801 74.4759C87.2801 74.4759 87.2174 74.501 87.1923 74.5136C87.2048 74.4759 87.2299 74.4257 87.255 74.3881C87.2927 74.3127 87.3304 74.2374 87.3806 74.1747C87.5438 73.8859 87.6568 73.5972 87.6568 73.2708C87.6568 72.957 87.5564 72.6432 87.4182 72.367C87.1169 71.777 86.5896 71.3377 86.1 70.9109C85.5727 70.4589 85.0956 69.9819 84.6436 69.4547C84.4678 69.2539 84.3046 69.0656 84.1288 68.8647C83.9531 68.7266 83.7899 68.576 83.6141 68.4379C83.4634 68.3124 83.3128 68.1868 83.1621 68.0613C83.4007 68.0488 83.6518 68.0613 83.8777 68.1366C84.2293 68.2622 84.4929 68.5383 84.744 68.8019C85.4095 69.5175 86.0623 70.2581 86.8031 70.8858C87.0918 71.1368 87.368 71.4255 87.5815 71.7645C87.7949 72.1034 88.0711 72.4925 88.1339 72.8942C88.2343 73.5345 87.8953 74.2374 87.3052 74.4759H87.2801Z" fill="#7095AF"/>
<path d="M85.2087 73.8985C85.0706 73.6725 84.8948 73.4842 84.694 73.3211C84.468 73.1453 84.2169 73.0072 83.9783 72.8566C83.451 72.5302 82.9237 72.2164 82.3964 71.89L81.505 71.3502C81.505 71.3502 81.2413 71.3628 81.3543 71.4255L83.3129 72.6181C83.6268 72.8064 83.9532 73.0072 84.2671 73.2081C84.5684 73.3964 84.8195 73.6349 85.0078 73.9362C85.0455 73.9989 85.2589 73.9738 85.2213 73.911L85.2087 73.8985Z" fill="#7095AF"/>
<path d="M83.4493 70.9736C83.4493 70.9736 83.3364 70.9485 83.2987 70.9736C83.1104 71.0866 82.9095 71.187 82.7086 71.2749C82.7839 71.0113 82.8969 70.7727 83.035 70.5342C83.0727 70.4715 82.8593 70.4338 82.8216 70.5091C82.6584 70.7853 82.5328 71.074 82.4575 71.3878C82.3696 71.4255 82.2692 71.4632 82.1813 71.5008C82.1185 71.5259 82.0432 71.551 81.9804 71.5761C81.9176 71.6013 81.8549 71.6264 81.7921 71.6264C81.7544 71.6264 81.6791 71.6264 81.654 71.664C81.6414 71.7017 81.7042 71.7268 81.7293 71.7393C81.8925 71.7393 82.0306 71.7017 82.1687 71.6515C82.2566 71.6264 82.332 71.5887 82.4198 71.5636C82.3822 71.7519 82.3696 71.9527 82.3696 72.1536C82.3696 72.2289 82.5956 72.2289 82.5956 72.1536C82.5956 71.9151 82.6207 71.6891 82.6709 71.4632C82.9472 71.3502 83.2108 71.2121 83.4619 71.074C83.4996 71.0489 83.4996 71.0113 83.4619 70.9987L83.4493 70.9736Z" fill="#7095AF"/>
<path d="M84.5161 71.777C84.5161 71.777 84.4031 71.7519 84.3528 71.777C84.1771 71.8774 84.0013 71.9778 83.8255 72.0657C83.9009 71.8021 83.9887 71.5385 84.1017 71.3C84.1394 71.2246 83.9134 71.1995 83.8883 71.2748C83.7628 71.5761 83.6498 71.8774 83.587 72.1912C83.3735 72.2791 83.1601 72.367 82.9341 72.4423C82.8965 72.4423 82.8588 72.4799 82.8965 72.5176C82.9341 72.5553 83.0094 72.5553 83.0471 72.5427C83.2229 72.4925 83.3861 72.4297 83.5493 72.3544C83.5117 72.5176 83.4865 72.6682 83.474 72.8314C83.474 72.9067 83.6874 72.9067 83.7 72.8314C83.7251 72.6306 83.7502 72.4423 83.8004 72.2414C84.0515 72.1285 84.2901 72.0029 84.5286 71.8648C84.5663 71.8397 84.5663 71.8021 84.5286 71.7895L84.5161 71.777Z" fill="#7095AF"/>
<path d="M84.993 72.48C84.993 72.48 84.88 72.5428 84.8173 72.5804C84.8549 72.4172 84.8926 72.2666 84.9177 72.1034C84.9302 72.0281 84.7168 72.0155 84.6917 72.1034C84.654 72.3168 84.6038 72.5177 84.5536 72.7185C84.3527 72.8315 84.1518 72.9319 83.9384 73.0323C83.9007 73.0574 83.9007 73.0951 83.9384 73.1076C83.9886 73.1328 84.0514 73.1328 84.0891 73.1076C84.2272 73.0449 84.3653 72.9696 84.5034 72.9068C84.4532 73.1202 84.4155 73.3462 84.4029 73.5596C84.4029 73.6349 84.6164 73.6349 84.6289 73.5596C84.654 73.2959 84.7043 73.0323 84.767 72.7687C84.8172 72.7436 84.8675 72.7185 84.9051 72.6934C84.9428 72.6683 84.993 72.6432 85.0307 72.6181C85.0558 72.6181 85.0684 72.593 85.0935 72.5804C85.1562 72.6055 85.2692 72.5804 85.2567 72.5302C85.2567 72.4172 85.0558 72.4423 84.9805 72.4674L84.993 72.48Z" fill="#7095AF"/>
<path d="M85.4823 72.7687C85.2815 73.1202 85.0053 73.4214 84.6914 73.6725C84.6537 73.7102 84.6914 73.7353 84.729 73.7478C84.7793 73.7604 84.842 73.7478 84.8797 73.7227C85.2061 73.4717 85.4823 73.1453 85.6958 72.7938C85.7334 72.7185 85.52 72.6934 85.4823 72.7687Z" fill="#7095AF"/>
<path d="M81.0901 70.9987C81.1026 70.8355 81.1403 70.6598 81.1403 70.6221C81.2031 70.3334 81.2784 70.0572 81.4667 69.8187C81.6802 69.53 82.0317 69.3417 82.3958 69.3668C82.446 69.3668 82.4962 69.3668 82.5339 69.3417C82.559 69.3166 82.559 69.2664 82.5464 69.2162C82.5213 69.0153 82.4711 68.827 82.3581 68.6638C82.1447 68.3375 81.5797 68.2998 81.2407 68.1743C80.7636 68.0111 80.2865 67.8479 79.8095 67.6721C78.8553 67.3458 77.9137 67.0068 76.9595 66.6805C76.7586 66.6051 76.5577 66.5424 76.3443 66.5298C75.817 66.5047 75.3775 67.0194 75.1264 67.4336C74.6242 68.2496 74.5991 69.4045 75.4152 70.0196C76.1057 70.5342 77.1478 70.5719 77.9639 70.7351C78.9683 70.9359 79.9727 71.1493 80.9771 71.3502C80.9771 71.3502 80.9896 71.3502 81.0022 71.3502C81.0524 71.3502 81.1152 71.3753 81.1779 71.3753C81.0901 71.3753 81.0901 71.1996 81.1026 71.0113L81.0901 70.9987Z" fill="#F7967C"/>
<path d="M57.0342 58.1193C57.1472 58.1193 57.2727 58.1193 57.3857 58.1193C58.9425 58.1946 60.4114 58.8473 61.8427 59.5001C67.0028 61.8224 72.1504 64.1573 77.3105 66.4796C77.6494 66.6302 78.2019 66.8688 78.2646 67.283C78.2897 67.4462 78.2646 67.6219 78.2144 67.7851C77.9884 68.8396 77.9759 69.9443 77.7373 70.9987C77.7122 71.1117 77.6871 71.2247 77.5992 71.2874C77.4862 71.3753 76.8208 71.1745 76.645 71.1619C76.2182 71.1117 75.8039 71.0113 75.377 70.9234C73.1296 70.4087 70.8823 69.8438 68.6601 69.2162C67.6557 68.94 66.5508 68.4379 65.5213 68.35C64.5923 68.2747 63.7134 68.0111 62.7843 67.8228C61.3029 67.509 59.8339 67.1449 58.365 66.7809C57.6242 66.5926 56.8835 66.4043 56.2055 66.0779C55.1007 65.5381 54.1967 64.6218 53.6694 63.5171C53.1044 62.3245 52.7529 60.768 53.6318 59.6382C54.4227 58.6214 55.7535 58.1569 57.0216 58.1318L57.0342 58.1193Z" fill="#E63950"/>
<path d="M60.4603 74.4759C60.4603 74.4759 60.523 74.501 60.5481 74.5136C61.201 74.7144 61.9417 74.4132 62.5067 74.1119C63.938 73.3587 65.319 72.4925 66.5745 71.4632C66.6624 71.3879 66.7629 71.3126 66.8256 71.2121C66.9135 71.074 66.9512 70.8983 66.9763 70.7351C67.0391 70.1828 66.7754 69.7434 66.7126 69.2287C66.6875 69.0153 66.7252 68.9275 66.5369 68.7517C66.0598 68.2998 65.4948 68.1492 64.8419 68.0864C64.7541 68.0864 64.6787 68.0739 64.5908 68.0613C64.3523 68.0488 64.1012 68.0613 63.8752 68.1366C63.5237 68.2622 63.26 68.5383 63.0089 68.8019C62.3435 69.5175 61.6906 70.2581 60.9499 70.8858C60.6611 71.1368 60.3849 71.4255 60.1715 71.7645C59.9581 72.1034 59.6818 72.4925 59.6191 72.8942C59.5186 73.5345 59.8576 74.2374 60.4477 74.4759H60.4603Z" fill="white"/>
<path d="M60.8633 72.5553C60.8633 72.5553 60.9763 72.5176 61.0139 72.5302C61.2148 72.5929 61.4031 72.6683 61.604 72.731C61.7798 72.7938 62.0183 72.9193 62.1941 72.7938C62.3447 72.6934 62.4577 72.5427 62.5833 72.4172C62.7214 72.2791 62.8595 72.1536 62.9976 72.0281C63.55 71.5259 64.1401 71.074 64.7679 70.6598C64.8557 70.6096 64.9436 70.5593 65.019 70.484C65.0943 70.4087 65.0943 70.2957 65.0943 70.1953C65.0943 69.9568 65.0943 69.7308 65.0943 69.4923C65.0943 69.417 65.3203 69.417 65.3203 69.4923C65.3203 69.7183 65.3203 69.9442 65.3203 70.1702C65.3203 70.2455 65.3203 70.3334 65.2952 70.4087C65.2701 70.4966 65.1947 70.5468 65.1194 70.597C64.7804 70.823 64.4414 71.0489 64.115 71.3C63.7886 71.551 63.4747 71.8147 63.1608 72.0908C63.0102 72.2289 62.8595 72.367 62.7088 72.5176C62.5833 72.6432 62.4577 72.8189 62.282 72.8942C62.0685 72.9946 61.83 72.9319 61.6291 72.8566C61.3906 72.7687 61.152 72.6934 60.9009 72.6055C60.8633 72.5929 60.8256 72.5678 60.8633 72.5302V72.5553Z" fill="#7095AF"/>
<path d="M60.4611 74.4759C60.4611 74.4759 60.5239 74.501 60.549 74.5136C60.5364 74.4759 60.5113 74.4257 60.4862 74.3881C60.4485 74.3127 60.4109 74.2374 60.3607 74.1747C60.1974 73.8859 60.0844 73.5972 60.0844 73.2708C60.0844 72.957 60.1849 72.6432 60.323 72.367C60.6243 71.777 61.1516 71.3377 61.6413 70.9109C62.1686 70.4589 62.6457 69.9819 63.0976 69.4547C63.2734 69.2539 63.4366 69.0656 63.6124 68.8647C63.7882 68.7266 63.9514 68.576 64.1272 68.4379C64.2778 68.3124 64.4285 68.1868 64.5791 68.0613C64.3406 68.0488 64.0895 68.0613 63.8635 68.1366C63.512 68.2622 63.2483 68.5383 62.9972 68.8019C62.3318 69.5175 61.6789 70.2581 60.9382 70.8858C60.6494 71.1368 60.3732 71.4255 60.1598 71.7645C59.9463 72.1034 59.6701 72.4925 59.6074 72.8942C59.5069 73.5345 59.8459 74.2374 60.436 74.4759H60.4611Z" fill="#7095AF"/>
<path d="M62.5326 73.8985C62.6707 73.6725 62.8465 73.4842 63.0474 73.3211C63.2734 73.1453 63.5245 73.0072 63.763 72.8566C64.2903 72.5302 64.8176 72.2164 65.3449 71.89L66.2363 71.3502C66.2363 71.3502 66.5 71.3628 66.387 71.4255L64.4284 72.6181C64.1145 72.8064 63.7881 73.0072 63.4742 73.2081C63.1729 73.3964 62.9218 73.6349 62.7335 73.9362C62.6958 73.9989 62.4824 73.9738 62.5201 73.911L62.5326 73.8985Z" fill="#7095AF"/>
<path d="M64.2908 70.9736C64.2908 70.9736 64.4038 70.9485 64.4415 70.9736C64.6298 71.0866 64.8307 71.187 65.0315 71.2749C64.9562 71.0113 64.8432 70.7727 64.7051 70.5342C64.6675 70.4715 64.8809 70.4338 64.9186 70.5091C65.0818 70.7853 65.2073 71.074 65.2826 71.3878C65.3705 71.4255 65.471 71.4632 65.5589 71.5008C65.6216 71.5259 65.697 71.551 65.7597 71.5761C65.8225 71.6013 65.8853 71.6264 65.9481 71.6264C65.9857 71.6264 66.0611 71.6264 66.0862 71.664C66.0987 71.7017 66.0359 71.7268 66.0108 71.7393C65.8476 71.7393 65.7095 71.7017 65.5714 71.6515C65.4835 71.6264 65.4082 71.5887 65.3203 71.5636C65.358 71.7519 65.3705 71.9527 65.3705 72.1536C65.3705 72.2289 65.1445 72.2289 65.1445 72.1536C65.1445 71.9151 65.1194 71.6891 65.0692 71.4632C64.793 71.3502 64.5293 71.2121 64.2782 71.074C64.2406 71.0489 64.2406 71.0113 64.2782 70.9987L64.2908 70.9736Z" fill="#7095AF"/>
<path d="M63.2361 71.777C63.2361 71.777 63.3491 71.7519 63.3868 71.777C63.5625 71.8774 63.7383 71.9778 63.9141 72.0657C63.8388 71.8021 63.7509 71.5385 63.6379 71.3C63.6002 71.2246 63.8262 71.1995 63.8513 71.2748C63.9769 71.5761 64.0899 71.8774 64.1652 72.1912C64.3786 72.2791 64.5921 72.367 64.818 72.4423C64.8557 72.4423 64.8934 72.4799 64.8557 72.5176C64.818 72.5553 64.7427 72.5553 64.705 72.5427C64.5293 72.4925 64.3661 72.4297 64.2028 72.3544C64.2405 72.5176 64.2656 72.6682 64.2782 72.8314C64.2782 72.9067 64.0647 72.9067 64.0522 72.8314C64.0271 72.6306 64.002 72.4423 63.9518 72.2414C63.7007 72.1285 63.4621 72.0029 63.2236 71.8648C63.1859 71.8397 63.1859 71.8021 63.2236 71.7895L63.2361 71.777Z" fill="#7095AF"/>
<path d="M62.7451 72.48C62.7451 72.48 62.8581 72.5428 62.9209 72.5804C62.8832 72.4172 62.8455 72.2666 62.8204 72.1034C62.8079 72.0281 63.0213 72.0155 63.0464 72.1034C63.0841 72.3168 63.1343 72.5177 63.1845 72.7185C63.3854 72.8315 63.5863 72.9319 63.7997 73.0323C63.8374 73.0574 63.8374 73.0951 63.7997 73.1076C63.7495 73.1328 63.6867 73.1328 63.6365 73.1076C63.4984 73.0449 63.3603 72.9696 63.2222 72.9068C63.2724 73.1202 63.3101 73.3462 63.3226 73.5596C63.3226 73.6349 63.1092 73.6349 63.0966 73.5596C63.0715 73.2959 63.0213 73.0323 62.9711 72.7687C62.9209 72.7436 62.8706 72.7185 62.833 72.6934C62.7953 72.6683 62.7451 72.6432 62.7074 72.6181C62.6823 72.6181 62.6698 72.593 62.6446 72.5804C62.5819 72.6055 62.4689 72.5804 62.4814 72.5302C62.4814 72.4172 62.6823 72.4423 62.7576 72.4674L62.7451 72.48Z" fill="#7095AF"/>
<path d="M62.2687 72.7687C62.4695 73.1202 62.7457 73.4214 63.0596 73.6725C63.0973 73.7102 63.0596 73.7353 63.022 73.7478C62.9717 73.7604 62.909 73.7478 62.8713 73.7227C62.5449 73.4717 62.2687 73.1453 62.0552 72.7938C62.0176 72.7185 62.231 72.6934 62.2687 72.7687Z" fill="#7095AF"/>
<path d="M66.6502 70.9987C66.6376 70.8355 66.5999 70.6598 66.5999 70.6221C66.5372 70.3334 66.4618 70.0572 66.2735 69.8187C66.0601 69.53 65.7085 69.3417 65.3445 69.3668C65.2942 69.3668 65.244 69.3668 65.2064 69.3417C65.1812 69.3166 65.1812 69.2664 65.1938 69.2162C65.2189 69.0153 65.2691 68.827 65.3821 68.6638C65.5956 68.3375 66.1605 68.2998 66.4995 68.1743C66.9766 68.0111 67.4537 67.8479 67.9308 67.6721C68.885 67.3458 69.8266 67.0068 70.7808 66.6805C70.9816 66.6051 71.1825 66.5424 71.396 66.5298C71.9233 66.5047 72.3627 67.0194 72.6138 67.4336C73.116 68.2496 73.1411 69.4045 72.325 70.0196C71.6345 70.5342 70.5924 70.5719 69.7764 70.7351C68.772 70.9359 67.7676 71.1493 66.7632 71.3502C66.7632 71.3502 66.7506 71.3502 66.7381 71.3502C66.6878 71.3502 66.6251 71.3753 66.5623 71.3753C66.6502 71.3753 66.6502 71.1996 66.6376 71.0113L66.6502 70.9987Z" fill="#F7967C"/>
<path d="M90.7188 58.1193C90.6058 58.1193 90.4803 58.1193 90.3673 58.1193C88.8105 58.1946 87.3416 58.8473 85.9103 59.5001C80.7502 61.8224 75.6026 64.1573 70.4425 66.4796C70.1036 66.6302 69.5511 66.8688 69.4884 67.283C69.4633 67.4462 69.4884 67.6219 69.5386 67.7851C69.7646 68.8396 69.7771 69.9443 70.0157 70.9987C70.0408 71.1117 70.0659 71.2247 70.1538 71.2874C70.2668 71.3753 70.9322 71.1745 71.108 71.1619C71.5348 71.1117 71.9491 71.0113 72.376 70.9234C74.6234 70.4087 76.8707 69.8438 79.0929 69.2162C80.0973 68.94 81.2022 68.4379 82.2317 68.35C83.1607 68.2747 84.0396 68.0111 84.9687 67.8228C86.4502 67.509 87.9191 67.1449 89.388 66.7809C90.1288 66.5926 90.8695 66.4043 91.5475 66.0779C92.6523 65.5381 93.5563 64.6218 94.0836 63.5171C94.6486 62.3245 95.0001 60.768 94.1212 59.6382C93.3303 58.6214 91.9995 58.1569 90.7314 58.1318L90.7188 58.1193Z" fill="#E63950"/>
<path d="M88.0064 58.6967C86.776 59.1611 85.5581 59.6758 84.3529 60.203C83.1476 60.7303 81.9549 61.2826 80.7621 61.8475C79.5694 62.4124 78.3767 62.9773 77.184 63.5422C76.167 64.0192 75.1501 64.4836 74.1206 64.9481C72.1369 64.0568 70.1532 63.153 68.1569 62.2617C66.1733 61.3705 64.177 60.5043 62.1682 59.6633C61.0383 59.1862 59.8958 58.7218 58.7658 58.2699C58.7156 58.2448 58.6528 58.2448 58.6152 58.2699C58.5775 58.295 58.5649 58.3326 58.6152 58.3452C60.6365 59.1486 62.6453 59.9896 64.6415 60.8558C66.6503 61.722 68.6466 62.6258 70.6303 63.5171C71.7351 64.0192 72.8525 64.5213 73.9573 65.0234C73.8443 65.0736 73.7188 65.1238 73.6058 65.1741C72.388 65.7013 71.1701 66.2034 69.9272 66.6679C69.7765 66.7306 69.6259 66.7809 69.4752 66.8311C69.3371 66.8813 69.5129 66.9566 69.5882 66.9315C70.8186 66.4796 72.049 65.99 73.2543 65.4628C74.4595 64.9481 75.6523 64.3958 76.845 63.8434C78.0377 63.2911 79.2304 62.7137 80.4232 62.1488C81.6159 61.5839 82.8086 61.0315 84.0013 60.4918C85.2066 59.952 86.4244 59.4373 87.6548 58.9603C87.8055 58.8975 87.9562 58.8473 88.1068 58.7845C88.2449 58.7343 88.0691 58.659 87.9938 58.6841L88.0064 58.6967Z" fill="#F49262"/>
<path d="M74.1851 46.583C74.1851 46.4449 74.1349 46.2817 73.9968 46.2189C73.9089 46.1687 73.7959 46.1561 73.6954 46.1813C73.6201 46.1813 73.5448 46.2189 73.4946 46.2691C73.4443 46.3193 73.4318 46.3821 73.4192 46.4449C73.3941 46.5327 73.3941 46.6206 73.4192 46.7085C73.4192 46.7587 73.4443 46.8215 73.482 46.8591C73.5197 46.9219 73.5824 46.9595 73.6452 46.9972C73.6452 46.9972 73.6703 46.9972 73.6829 46.9972C73.7582 47.0349 73.8335 47.0349 73.9089 47.0349C73.9591 47.0349 73.9968 47.0349 74.0344 47.0098C74.0721 46.9972 74.1223 46.9721 74.1349 46.9344C74.1851 46.8215 74.2102 46.6959 74.1976 46.583H74.1851Z" fill="#7095AF"/>
<path d="M73.9207 48.9806C73.8454 48.9178 73.7324 48.9053 73.6445 48.9178C73.5943 48.9178 73.5566 48.9178 73.519 48.9429C73.4813 48.9555 73.4311 48.9806 73.4185 49.0183C73.406 49.0559 73.3934 49.081 73.3809 49.1187C73.3809 49.1438 73.3809 49.1563 73.3809 49.1814C73.3809 49.1814 73.3809 49.1814 73.3809 49.194C73.3809 49.2819 73.3809 49.3823 73.3934 49.4702C73.3934 49.4953 73.406 49.5204 73.4311 49.5455C73.4436 49.5455 73.4562 49.5706 73.4687 49.5706C73.4939 49.5831 73.5315 49.5957 73.5566 49.5957C73.6068 49.5957 73.6571 49.6082 73.6947 49.5957C73.745 49.5957 73.8077 49.5957 73.858 49.558C73.9207 49.5204 73.9709 49.4827 74.0086 49.4074C74.0337 49.3572 74.0463 49.307 74.0463 49.2568C74.0463 49.1438 74.0086 49.0434 73.9207 48.968V48.9806Z" fill="#7095AF"/>
<path d="M82.4829 43.3443C82.1942 44.8381 82.0058 46.3445 81.9431 47.8634C81.918 48.3027 81.918 48.7295 81.918 49.1689C81.918 49.2317 82.0812 49.2317 82.0812 49.1689C82.0812 47.65 82.1942 46.1311 82.4327 44.6372C82.4955 44.2104 82.5708 43.7836 82.6587 43.3568C82.6587 43.3066 82.5081 43.2941 82.4955 43.3568L82.4829 43.3443Z" fill="#7095AF"/>
<path d="M65.785 44.8883C65.785 44.8883 65.6092 44.8381 65.6217 44.8883C65.8603 46.47 65.9858 48.0517 66.0109 49.6459C66.0109 49.7087 66.1742 49.7087 66.1742 49.6459C66.149 48.0517 66.0235 46.4574 65.785 44.8883Z" fill="#7095AF"/>
<path d="M78.2646 36.7288C78.2646 36.7288 78.0888 36.6786 78.1014 36.7288C78.2395 37.5071 78.3148 38.3105 78.2897 39.1013C78.2897 39.1892 78.2897 39.2896 78.2897 39.3775C78.2771 39.503 78.2269 39.5658 78.1265 39.6286C77.9633 39.729 77.8 39.8169 77.6368 39.9047L76.5571 40.5198C76.5571 40.5198 76.532 40.5324 76.532 40.5449C76.532 40.6705 76.6199 40.7709 76.6952 40.8713C76.7956 40.9968 76.8961 41.1098 76.9086 41.2856C76.9337 41.5994 76.7329 41.9007 76.5445 42.1392C76.306 42.4404 76.0423 42.7292 75.8038 43.0179C75.5527 43.3192 75.289 43.6079 75.0379 43.9092C74.7492 44.2481 74.4604 44.587 74.1716 44.926C74.1214 44.9887 74.2846 45.0138 74.3098 44.9636C74.8371 44.3485 75.3518 43.746 75.8791 43.1309C76.1302 42.8296 76.3939 42.5283 76.645 42.227C76.8333 42.0011 77.0342 41.7249 77.0718 41.4111C77.0844 41.2605 77.0467 41.0973 76.9589 40.9717C76.8584 40.8337 76.7203 40.7332 76.6952 40.5575L77.7875 39.9424C77.9633 39.842 78.1516 39.7541 78.3022 39.6411C78.4529 39.5281 78.4529 39.3775 78.4655 39.2143C78.4906 38.3733 78.4278 37.5447 78.2771 36.7162L78.2646 36.7288Z" fill="#7095AF"/>
<path d="M69.1242 36.7288C69.1242 36.7288 69.3 36.6786 69.2874 36.7288C69.1493 37.5071 69.074 38.3105 69.0991 39.1013C69.0991 39.1892 69.0991 39.2896 69.0991 39.3775C69.1117 39.503 69.1619 39.5658 69.2623 39.6286C69.4255 39.729 69.5888 39.8169 69.752 39.9047L70.8317 40.5198C70.8317 40.5198 70.8568 40.5324 70.8568 40.5449C70.8568 40.6705 70.7689 40.7709 70.6936 40.8713C70.5932 40.9968 70.4927 41.1098 70.4802 41.2856C70.4551 41.5994 70.6559 41.9007 70.8443 42.1392C71.0828 42.4404 71.3465 42.7292 71.585 43.0179C71.8361 43.3192 72.0998 43.6079 72.3509 43.9092C72.6396 44.2481 72.9284 44.587 73.2172 44.926C73.2674 44.9887 73.1042 45.0138 73.079 44.9636C72.5517 44.3485 72.037 43.746 71.5097 43.1309C71.2586 42.8296 70.9949 42.5283 70.7438 42.227C70.5555 42.0011 70.3546 41.7249 70.317 41.4111C70.3044 41.2605 70.3421 41.0973 70.4299 40.9717C70.5304 40.8337 70.6685 40.7332 70.6936 40.5575L69.6013 39.9424C69.4256 39.842 69.2372 39.7541 69.0866 39.6411C68.9359 39.5281 68.9359 39.3775 68.9233 39.2143C68.8982 38.3733 68.961 37.5447 69.1117 36.7162L69.1242 36.7288Z" fill="#7095AF"/>
<path d="M76.4934 36.7162C76.4934 36.4652 76.4307 36.2016 76.393 35.9505C76.3051 35.1973 76.2172 34.4441 76.1293 33.6909C76.0666 33.1512 75.4137 33.1261 74.9994 33.1763C74.8738 33.2014 74.1959 33.4022 74.1959 33.5403C74.1959 33.6282 74.0703 33.6909 73.9197 33.7537C73.769 33.6909 73.6435 33.6282 73.6435 33.5403C73.6435 33.4022 72.978 33.1888 72.8399 33.1763C72.1243 33.0758 71.6096 33.3897 71.5719 34.1554C71.5342 34.8458 71.5719 35.5488 71.4714 36.2392C71.3961 36.7288 71.2329 37.1179 71.597 37.5322C72.1871 38.2101 73.1413 38.072 73.9197 38.1347C74.6604 38.1975 75.7778 38.1473 76.28 37.482C76.4558 37.256 76.4934 36.9799 76.4809 36.7037L76.4934 36.7162Z" fill="#F7967C"/>
<path d="M75.6008 34.1554C75.3622 33.8541 74.9856 33.716 74.6215 33.6282C74.4081 33.578 74.1695 33.5152 73.9435 33.5277C73.7175 33.5277 73.4915 33.5654 73.2656 33.6282C72.914 33.716 72.5248 33.8541 72.2863 34.1554C72.1231 34.3563 72.0979 34.645 72.1482 34.9086C72.1733 34.9965 72.1984 35.0843 72.2361 35.1722C72.4118 35.5237 72.6629 35.7873 72.9517 35.9756C73.5418 36.3647 74.3202 36.3647 74.9103 35.9756C75.199 35.7873 75.4501 35.5111 75.6259 35.1722C75.6636 35.0969 75.7012 35.009 75.7138 34.9086C75.7766 34.645 75.7389 34.3688 75.5757 34.1554H75.6008Z" fill="#DB6357"/>
<path d="M77.7226 29.4229C77.7226 28.9961 77.7226 28.5568 77.6975 28.13C77.6724 27.7157 77.5468 27.3517 77.3459 27.0002C77.1953 26.7491 77.0195 26.4981 76.8186 26.2972C76.3917 25.8955 75.8268 25.6445 75.2492 25.5566C74.6717 25.4687 74.0691 25.5189 73.4915 25.6319C72.8638 25.7574 72.2486 25.9708 71.6962 26.2972C71.1312 26.6487 70.4156 27.2261 70.3402 27.9166C70.2524 28.7827 70.3026 29.6614 70.403 30.5276C70.6039 32.2976 71.0935 34.4316 72.6629 35.4359C73.1651 35.7497 73.7803 35.8501 74.3578 35.7371C74.86 35.6367 75.4376 35.461 75.8268 35.122C75.9649 34.9965 76.0904 34.8584 76.2034 34.6952C76.4796 34.3061 76.7182 33.9546 76.9065 33.5027C77.0948 33.0508 77.2455 32.5738 77.3836 32.0967C77.4966 31.695 77.5845 31.2933 77.6724 30.8791C77.7477 30.5276 77.7226 30.1259 77.7226 29.7619C77.7226 29.6363 77.7226 29.5108 77.7226 29.3978V29.4229Z" fill="#F7967C"/>
<path d="M77.7986 27.3642C77.6605 26.9625 77.4722 26.5859 77.2462 26.2344C77.1206 26.0336 77.0077 25.9834 76.8444 25.8202C76.6436 25.6319 76.5933 25.4059 76.4301 25.18C76.1162 24.7406 75.5638 24.5147 75.0491 24.4142C73.9693 24.2008 73.0026 24.4393 72.0987 25.0419C71.3077 25.5566 70.6423 26.2846 70.2154 27.1257C69.7509 28.0421 69.5625 29.084 69.663 30.1008C69.6881 30.3518 69.7258 30.6029 69.7885 30.854C69.8262 30.9921 69.889 31.4816 70.0396 31.5444C70.2154 31.6197 70.5167 30.6406 70.5921 30.4774C70.7427 30.1635 70.8934 29.8372 71.1445 29.5987C71.3454 29.4104 71.5965 29.2723 71.835 29.1468C72.626 28.7451 73.4671 28.4438 74.2204 27.9542C74.7603 27.6153 75.6643 26.7366 76.3548 27.1006C76.7691 27.3266 76.8444 28.268 76.9574 28.7074C77.0704 29.1216 77.1834 29.5484 77.2839 29.9627C77.648 31.3938 78.1125 29.925 78.1125 29.197C78.1125 28.5819 77.9995 27.9542 77.7861 27.3642H77.7986Z" fill="#9E554E"/>
<path d="M77.3096 30.4146C78.1382 29.8874 78.6028 30.7661 78.5023 31.3185C78.4396 31.6699 78.2261 31.9838 78.0127 32.2976C77.8244 32.5612 77.4854 32.9378 77.0334 32.7621C76.8576 32.6993 76.7823 32.5487 76.7321 32.4106C76.5438 31.8833 76.6316 31.2306 76.9706 30.741C77.0585 30.6155 77.1715 30.5025 77.3222 30.4021L77.3096 30.4146Z" fill="#F7967C"/>
<path d="M72.2613 28.971C72.1106 28.9835 71.9725 29.0212 71.8595 29.0589C71.6712 29.1216 71.4829 29.2095 71.3196 29.335C71.2569 29.3852 70.9179 29.6363 71.0811 29.7116C71.1815 29.7618 71.3699 29.5986 71.4452 29.561C71.5833 29.4982 71.7214 29.448 71.8595 29.4103C72.1483 29.3476 72.4621 29.3476 72.7509 29.4103C72.8513 29.4355 72.9392 29.4606 73.0397 29.4606C73.2657 29.4606 73.3661 29.2974 73.1778 29.1467C72.9518 28.9584 72.5877 28.9208 72.2613 28.9584V28.971Z" fill="#9E554E"/>
<path d="M72.0098 30.9418C72.0098 30.7912 72.0725 30.6029 72.2609 30.5527C72.3864 30.515 72.5245 30.5652 72.5999 30.6656C72.6375 30.7159 72.6501 30.7786 72.6626 30.8288C72.6877 30.9669 72.7003 31.1552 72.5747 31.2556C72.4994 31.3184 72.3864 31.3561 72.286 31.3184C72.0977 31.2431 72.0098 31.1427 72.0223 30.9418H72.0098Z" fill="#723737"/>
<path d="M75.7145 28.971C75.8651 28.9835 76.0032 29.0212 76.1162 29.0589C76.3046 29.1216 76.4929 29.2095 76.6561 29.335C76.7189 29.3852 77.0579 29.6363 76.8946 29.7116C76.7942 29.7618 76.6059 29.5986 76.5305 29.561C76.3924 29.4982 76.2543 29.448 76.1162 29.4103C75.8275 29.3476 75.5136 29.3476 75.2248 29.4103C75.1244 29.4355 75.0365 29.4606 74.9361 29.4606C74.7101 29.4606 74.6096 29.2974 74.798 29.1467C75.024 28.9584 75.388 28.9208 75.7145 28.9584V28.971Z" fill="#9E554E"/>
<path d="M75.9642 30.9418C75.9642 30.7912 75.9014 30.6029 75.7131 30.5527C75.5875 30.515 75.4494 30.5652 75.3741 30.6656C75.3364 30.7159 75.3239 30.7786 75.3113 30.8288C75.2862 30.9669 75.2736 31.1552 75.3992 31.2556C75.4745 31.3184 75.5875 31.3561 75.688 31.3184C75.8763 31.2431 75.9642 31.1427 75.9516 30.9418H75.9642Z" fill="#723737"/>
<path d="M74.0827 32.762C73.8693 32.762 73.6307 32.6742 73.568 32.4482C73.5177 32.2976 73.568 32.1218 73.6307 31.9712C73.6684 31.8457 73.7061 31.7201 73.7437 31.5946C73.8693 31.0674 73.8944 30.5025 73.7186 29.9753C73.7061 29.925 73.5554 29.9376 73.5805 30.0004C73.7814 30.6029 73.7186 31.2431 73.5303 31.8457C73.455 32.0842 73.3294 32.3729 73.5052 32.6114C73.6433 32.7871 73.8818 32.8499 74.0953 32.8374C74.1831 32.8374 74.1831 32.7495 74.0953 32.762H74.0827Z" fill="#DB6357"/>
<path d="M74.9857 33.2893C74.8225 33.2265 74.6342 33.3395 74.4835 33.3646C74.2701 33.4023 74.0316 33.3897 73.8181 33.3646C73.7051 33.3646 73.5796 33.3395 73.4666 33.3018C73.3787 33.2767 73.2908 33.2391 73.2029 33.2767C73.1025 33.3144 73.0397 33.4023 73.0899 33.5027C73.1402 33.5906 73.2532 33.6659 73.341 33.7161C73.567 33.8416 73.8307 33.8667 74.0692 33.8667C74.2827 33.8667 74.5212 33.8291 74.7095 33.7412C74.81 33.691 75.1866 33.465 75.036 33.3144C75.0234 33.3018 75.0109 33.2893 74.9857 33.2893Z" fill="white"/>
<path d="M70.1534 32.9126C69.9901 32.6741 69.8144 32.4356 69.6261 32.2097C69.3122 31.808 68.7974 31.3812 68.6217 30.8916C68.584 30.8916 68.5463 30.8916 68.5087 30.9167C68.4208 30.9669 68.3831 31.1552 68.3831 31.2431C68.4208 34.9965 67.6926 38.6996 67.2029 42.4028C67.1151 43.043 67.0774 43.8087 67.5921 44.2104C67.8181 44.3862 68.1069 44.4489 68.3957 44.4991C69.9023 44.7376 71.773 44.7627 71.8357 42.7919C71.8608 42.227 71.8357 41.6621 71.7981 41.0973C71.7227 39.7415 71.4967 38.2979 71.5721 36.9547C71.6349 35.7622 71.321 34.8333 70.7058 33.7788C70.53 33.4775 70.3417 33.1888 70.1408 32.9126H70.1534Z" fill="#9E554E"/>
<path d="M75.0881 26.3976C74.3097 27.2889 73.3179 27.9919 72.2131 28.4061C71.8992 28.5191 71.5853 28.6195 71.2589 28.6948C71.2212 28.6948 71.2087 28.7199 71.2338 28.7576C71.2589 28.7827 71.3217 28.7827 71.3468 28.7702C72.5144 28.5065 73.6067 27.9417 74.5106 27.1634C74.7743 26.9374 75.0128 26.6989 75.2388 26.4353C75.289 26.3725 75.1258 26.3474 75.1007 26.3976H75.0881Z" fill="#7F3D3D"/>
<path d="M74.1346 26.2093C73.5822 26.7868 72.8791 27.2136 72.1007 27.4019C72.063 27.4019 72.0505 27.427 72.0756 27.4646C72.1007 27.4898 72.1634 27.4898 72.1886 27.4772C72.9921 27.2764 73.7203 26.8621 74.2852 26.2596C74.3355 26.2093 74.1722 26.1717 74.1471 26.2219L74.1346 26.2093Z" fill="#7F3D3D"/>
<path d="M72.5008 24.6026C71.7601 24.8536 71.0821 25.2679 70.5297 25.8328C70.4795 25.883 70.6301 25.9081 70.6678 25.8704C71.1951 25.3306 71.8479 24.9164 72.5761 24.6779C72.6766 24.6402 72.551 24.59 72.4883 24.6026H72.5008Z" fill="#7F3D3D"/>
<path d="M68.6849 44.1226C68.2078 43.6079 68.0572 42.8924 68.0195 42.2145C67.9819 41.3986 68.0446 40.5575 68.1702 39.7541C68.1702 39.7039 68.007 39.6913 68.007 39.7541C67.9065 40.432 67.8438 41.1224 67.8438 41.8128C67.8438 42.3526 67.8814 42.9049 68.0697 43.4196C68.1702 43.6958 68.3208 43.9594 68.5343 44.1728C68.5719 44.2104 68.7352 44.1853 68.6724 44.1351L68.6849 44.1226Z" fill="#7F3D3D"/>
<path d="M69.3639 42.453C69.05 42.0513 68.8617 41.5618 68.824 41.0471C68.824 40.9843 68.6482 40.9843 68.6608 41.0471C68.6985 41.5618 68.8868 42.0639 69.2007 42.4781C69.2383 42.5283 69.4015 42.5032 69.3639 42.453Z" fill="#7F3D3D"/>
<path d="M70.7322 36.4652C70.7322 36.4652 70.5564 36.415 70.569 36.4652C70.6318 36.892 70.682 37.3188 70.6946 37.7456C70.6946 37.8084 70.8578 37.8084 70.8578 37.7456C70.8452 37.3188 70.795 36.892 70.7322 36.4652Z" fill="#7F3D3D"/>
<path d="M77.8873 69.7057C77.8873 69.7057 77.7743 69.6806 77.7367 69.6806C76.6444 69.9442 75.5646 70.2204 74.4849 70.5091C74.4472 70.5091 74.4096 70.5468 74.4472 70.5844C74.4849 70.6221 74.5602 70.6095 74.5979 70.6095C75.6776 70.3208 76.7699 70.0446 77.8496 69.781C77.8873 69.781 77.925 69.7434 77.8873 69.7057Z" fill="#C9644D"/>
</g>
</g>
<defs>
<clipPath id="clip0_347_6296">
<rect width="139.102" height="120" fill="white" transform="translate(0 0.612793)"/>
</clipPath>
<clipPath id="clip1_347_6296">
<rect width="137" height="68" fill="white" transform="translate(-1.94922 24)"/>
</clipPath>
</defs>
</svg>
