<svg width="140" height="121" viewBox="0 0 140 121" fill="none" xmlns="http://www.w3.org/2000/svg">
<g clip-path="url(#clip0_347_6746)">
<path d="M30.8678 98.2142C21.9312 89.9521 17.4402 77.7418 17.4402 61.597C17.4402 45.452 21.9314 33.2425 30.867 25.0479C39.8097 16.8467 52.7124 12.6907 69.6207 12.6907C86.529 12.6907 99.4317 16.8467 108.374 25.0479C117.31 33.2425 121.801 45.452 121.801 61.597C121.801 77.7418 117.31 89.9521 108.374 98.2142C99.4311 106.482 86.5291 110.638 69.6207 110.638C52.7124 110.638 39.8103 106.482 30.8678 98.2142Z" stroke="#E63950" stroke-width="0.595238"/>
<path d="M112.064 109.29C118.073 104.774 122.112 98.3623 125.245 91.7685C131.037 79.5856 131.183 59.6106 117.572 51.4907C109.288 46.5484 102.125 54.7279 97.2396 43.8328C96.1754 41.457 95.7909 38.8547 95.2036 36.3269C92.9978 26.8446 87.3162 17.7291 78.2572 13.3174C69.1983 8.90563 56.61 10.4259 50.2965 18.2358C47.5988 21.5744 46.0994 25.8252 42.6922 28.5169C35.1177 34.5026 29.6031 32.5113 20.9615 36.9797C13.077 41.0546 5.23727 52.8857 4.57849 57.065C0.786794 81.1178 12.8713 88.1944 23.838 101.269C33.0401 112.241 38.3341 112.539 52.4844 116.733C66.6347 120.928 85.3011 122.355 98.0295 114.736" stroke="#D1A092" stroke-miterlimit="10"/>
<g clip-path="url(#clip1_347_6746)">
<path d="M95.6714 28.7653L94.8047 28.4325L97.0714 22.7098C97.1825 22.4325 97.3936 22.2107 97.6825 22.0887C97.9602 21.9667 98.2713 21.9778 98.5491 22.0887L98.5936 22.1109C99.1491 22.3438 99.4158 22.9649 99.2047 23.5194L98.5825 25.1608L97.7047 24.8392L98.3269 23.1978C98.3602 23.1091 98.3269 23.0092 98.2269 22.9649L98.1825 22.9427C98.1158 22.9205 98.0713 22.9316 98.038 22.9427C98.0158 22.9427 97.9602 22.976 97.938 23.0425L95.6714 28.7653Z" fill="#7FAFC6"/>
<path d="M96.9713 32.0037C96.9713 32.0037 96.9602 32.037 96.9491 32.0481C96.9491 32.0481 96.9491 32.0481 96.9491 32.0591C96.8491 32.2477 96.738 32.4251 96.6269 32.6026C96.5269 32.7357 96.4269 32.8798 96.338 33.0129C96.1491 33.268 95.9602 33.512 95.7713 33.7671C95.6269 33.9556 95.4824 34.1331 95.338 34.3216C95.038 34.6987 94.5491 36.0739 94.1269 36.1737C93.8713 36.2403 93.5824 35.9408 93.3713 35.8299C92.9713 35.6192 92.538 35.4639 92.1269 35.2865C91.7269 35.1201 91.3158 34.9427 90.9824 34.6654C90.6491 34.3882 90.3935 33.9778 90.4046 33.5453C90.4158 33.1682 90.6158 32.8355 90.8269 32.5139C91.6046 31.3272 92.5935 30.3179 93.4158 29.1867C93.7491 28.732 94.0157 28.2107 94.4602 27.878C94.8935 27.5564 95.2269 27.1349 95.7824 27.1904C96.1602 27.2237 96.4491 27.5786 96.638 27.9556C97.1269 28.8983 97.2491 30.0961 97.1157 31.2717C97.0824 31.5379 97.0824 31.7819 96.9824 32.0148L96.9713 32.0037Z" fill="#F7967C"/>
<path d="M96.9719 32.0037C96.9719 32.0037 96.9608 32.037 96.9497 32.0481C96.9497 32.0481 96.9497 32.0481 96.9497 32.0592C96.8497 32.2477 96.7386 32.4252 96.6275 32.6026C96.5275 32.7357 96.4275 32.8799 96.3386 33.013C96.1497 33.268 95.9608 33.512 95.7719 33.7671C95.4608 33.5231 95.1941 33.2015 94.9941 32.8133C94.7275 32.281 94.3608 31.0167 94.8941 30.6507C95.3608 30.329 95.9497 30.8836 96.3053 31.2606C96.5497 31.5046 96.7941 31.7375 96.983 32.0148L96.9719 32.0037Z" fill="#DB6357"/>
<path d="M101.104 26.0592C101.06 26.6026 100.893 27.0906 100.704 27.6008C100.515 28.0887 100.348 28.5767 100.493 29.098C100.637 29.586 100.915 30.0296 101.082 30.5065C101.137 30.6507 101.16 30.9057 101.104 31.061C101.06 31.183 100.904 31.2052 100.771 31.2052C100.604 31.2052 100.448 31.2052 100.282 31.2052C100.182 31.2052 100.071 31.2052 99.9818 31.2496C99.904 31.2828 99.8374 31.3383 99.7818 31.4048C99.6152 31.5934 99.5707 31.8263 99.504 32.0592C99.404 32.3808 99.2818 32.7024 99.1485 33.013C99.0374 33.2569 98.8929 33.5897 98.6263 33.6895C98.3485 33.8004 97.9818 33.8115 97.6818 33.7671C96.404 33.5786 95.1263 32.7135 94.4263 31.6377C94.0818 31.1165 94.0263 30.6063 93.8485 30.0296C93.7041 29.5527 93.1263 29.464 92.804 29.1645C92.0818 28.5102 91.9707 27.3124 92.2263 26.4252C92.3485 25.9704 92.6041 25.5601 92.8485 25.1497C93.0485 24.817 93.2485 24.4843 93.5263 24.2181C93.8041 23.952 94.1374 23.7523 94.4818 23.5638C94.9707 23.2865 95.4596 23.0203 96.004 22.8984C96.6485 22.7653 97.304 22.8651 97.9485 22.976C98.7818 23.1202 99.6374 23.3087 100.315 23.8078C100.571 23.9963 100.804 24.2403 100.937 24.5398C101.048 24.7837 101.082 25.061 101.104 25.3272C101.115 25.5712 101.115 25.8152 101.104 26.0592Z" fill="#F7967C"/>
<path d="M97.7264 27.1904C97.8597 27.0906 97.9042 27.0684 98.1597 27.1127C98.5486 27.1793 98.9042 26.6469 99.2708 26.7911C99.4153 26.8466 99.5042 26.9797 99.6264 27.0573C100.149 27.4011 100.471 26.78 100.915 26.6691C101.393 26.536 101.915 26.7246 102.082 26.0924C102.104 26.0037 102.115 25.9039 102.182 25.8373C102.315 25.6932 102.571 25.7708 102.715 25.6488C102.826 25.5601 102.849 25.4048 102.837 25.2717C102.837 25.0832 102.771 24.8614 102.604 24.7837C102.549 24.7505 102.482 24.7505 102.415 24.7172C102.215 24.6063 102.271 24.3401 102.204 24.1627C102.137 23.9519 101.993 23.7745 101.771 23.7079C101.571 23.6414 101.349 23.6747 101.149 23.6192C100.66 23.4861 100.36 22.8651 99.8486 22.8761C99.6042 22.8761 99.3708 23.0536 99.1153 23.0092C98.8708 22.976 98.6486 22.8318 98.4042 22.7763C98.0931 22.7098 97.7931 22.5989 97.4819 22.5323C96.8819 22.3992 96.2375 22.3327 95.6264 22.4658C94.5931 22.6876 93.6264 23.109 92.9486 23.9408C92.2486 24.7837 91.9375 26.2366 91.9375 27.3124C91.9375 27.7449 92.0153 28.1774 92.0819 28.61C92.1708 29.1312 92.2375 31.1053 93.1819 30.1516C93.5264 29.9408 93.8597 29.7079 94.1708 29.4639C94.4708 29.231 94.7708 29.0092 95.0486 28.7763C95.1486 28.6876 95.2375 28.5767 95.3597 28.5212C95.5597 28.4325 95.6931 28.5656 95.8819 28.5545C96.0819 28.5545 96.2708 28.3992 96.3708 28.244C96.5375 28 96.4486 27.7893 96.7708 27.6562C97.0264 27.5453 97.3264 27.4566 97.5486 27.2902C97.5931 27.2569 97.6375 27.2236 97.6708 27.2015L97.7264 27.1904Z" fill="#9E554E"/>
<path d="M95.1048 27.2791C94.927 27.3456 94.7604 27.4676 94.6381 27.6229C94.3826 27.9445 94.2937 28.366 94.327 28.7652C94.3715 29.1645 94.5381 29.5527 94.7492 29.8965C94.9715 30.2292 95.2048 30.3845 95.5492 30.1405C95.8492 29.9298 96.0604 29.6081 96.1715 29.2643C96.2937 28.8651 96.3381 28.4103 96.1937 28.0111C96.0604 27.6451 95.8381 27.2347 95.3826 27.2347C95.2826 27.2347 95.1826 27.2569 95.0937 27.2902L95.1048 27.2791Z" fill="#F7967C"/>
<path d="M100.294 27.8669C100.294 27.8004 100.272 27.7227 100.205 27.6784C100.061 27.5897 99.9273 27.5453 99.7496 27.5453C99.5496 27.5453 99.3384 27.5453 99.1384 27.6229C99.0273 27.6562 98.9162 27.7116 98.8162 27.7893C98.7829 27.8115 98.5385 28.0444 98.5273 28.0444C98.694 28.0998 98.8829 28 99.0607 27.9667C99.3162 27.9113 99.5496 27.9445 99.794 27.9889C99.9162 28.0111 100.038 28.0665 100.172 28.0333C100.261 28.0111 100.305 27.9445 100.305 27.878L100.294 27.8669Z" fill="#9E554E"/>
<path d="M99.6503 28.8207C99.6281 28.7652 99.5836 28.7098 99.5169 28.6876C99.3614 28.6322 99.2503 28.7431 99.1947 28.8429C99.1947 28.8429 99.1947 28.8429 99.1947 28.854C99.1614 28.8983 99.1392 28.9427 99.1281 28.9871C99.0947 29.0758 99.0614 29.1756 99.0725 29.2754C99.0725 29.3198 99.0947 29.3641 99.1169 29.3974C99.1503 29.4418 99.2169 29.4639 99.2725 29.4639C99.2725 29.4639 99.2725 29.4639 99.2836 29.4639C99.3058 29.4639 99.3392 29.4639 99.3614 29.4639C99.4614 29.4418 99.5392 29.3641 99.5836 29.2754C99.5947 29.2421 99.6058 29.2089 99.6169 29.1756C99.6392 29.1423 99.6503 29.098 99.6614 29.0647C99.6614 29.0425 99.6614 29.0314 99.6725 29.0092C99.6836 28.976 99.6947 28.9316 99.6836 28.8872C99.6836 28.8651 99.6725 28.8429 99.6614 28.8207H99.6503Z" fill="#723737"/>
<path d="M97.7268 29.0425C97.2602 30.2292 95.9046 30.817 94.7046 30.3623C93.5046 29.8965 92.9046 28.5656 93.3713 27.3678C93.838 26.1811 95.1935 25.5933 96.3935 26.0481C97.5935 26.5139 98.1935 27.8447 97.7268 29.0425C98.1935 27.8558 97.2602 30.2292 97.7268 29.0425Z" fill="#2F4A79"/>
<path d="M96.8481 28.7098C96.5703 29.4196 95.7592 29.7745 95.037 29.4972C94.3148 29.2199 93.9592 28.4214 94.237 27.7005C94.5148 26.9907 95.3259 26.6358 96.0481 26.9131C96.7703 27.1904 97.1259 27.9889 96.8481 28.7098C97.1259 28 96.5703 29.4196 96.8481 28.7098Z" fill="#7FAFC6"/>
<path d="M95.6714 28.7653L94.8047 28.4325L97.0714 22.7098C97.1825 22.4325 97.3936 22.2107 97.6825 22.0887C97.9602 21.9667 98.2713 21.9778 98.5491 22.0887L98.5936 22.1109C98.7713 22.1885 98.838 22.4769 98.7936 22.6433C98.7714 22.7209 98.7158 22.7985 98.638 22.8207C98.5825 22.8318 98.538 22.8207 98.4825 22.8207C98.3825 22.8096 98.2825 22.7985 98.1825 22.8318C98.0491 22.8762 97.9714 22.9538 97.9269 23.0758C97.8491 23.2643 97.7825 23.4529 97.7047 23.6414C97.5602 24.0074 97.4158 24.3734 97.2713 24.7394C97.0936 25.183 96.9158 25.6377 96.738 26.0813C96.5602 26.5139 96.3936 26.9575 96.2158 27.39C96.0825 27.7227 95.9491 28.0555 95.8269 28.3882C95.7714 28.5213 95.7269 28.6543 95.6714 28.7874V28.7653Z" fill="#7FAFC6"/>
<path d="M98.7611 32.0037C98.7611 32.0037 98.6723 31.9704 98.65 31.9704C98.4945 31.9815 98.3278 31.915 98.2167 31.8152C98.0834 31.7043 97.9945 31.5601 97.9278 31.4048C97.9056 31.3494 97.7167 31.3605 97.75 31.427C97.8278 31.6045 97.9389 31.7708 98.0945 31.8928C98.2723 32.0259 98.4834 32.0814 98.6945 32.0592C98.7167 32.0592 98.7723 32.037 98.7611 32.0037Z" fill="#DB6357"/>
<path d="M93.5711 23.7967C93.0711 24.2736 92.7822 24.939 92.7933 25.6155C92.7933 25.6821 92.9822 25.6821 92.9822 25.6155C92.9822 24.9501 93.26 24.2958 93.7377 23.841C93.7933 23.7856 93.6155 23.7523 93.5822 23.7967H93.5711Z" fill="#723737"/>
<path d="M93.6383 24.2292C93.4272 24.573 93.2938 24.9501 93.2383 25.3494C93.2383 25.4048 93.4161 25.4159 93.4272 25.3494C93.4827 24.9612 93.6161 24.5952 93.8161 24.2514C93.8494 24.1959 93.6716 24.1738 93.6383 24.2292Z" fill="#723737"/>
<path d="M101.883 24.2292C101.816 24.0961 101.705 24.0074 101.561 23.9741C101.528 23.9741 101.461 23.9741 101.45 24.0074C101.428 24.0407 101.494 24.0628 101.516 24.0628C101.516 24.0628 101.55 24.0739 101.572 24.085C101.594 24.0961 101.616 24.1183 101.639 24.1405C101.683 24.1848 101.705 24.2292 101.728 24.2847C101.783 24.4177 101.772 24.573 101.75 24.7172C101.75 24.7837 101.928 24.7837 101.939 24.7172C101.95 24.5619 101.961 24.3845 101.894 24.2403L101.883 24.2292Z" fill="#723737"/>
<path d="M101.339 24.1848C101.339 24.1848 101.261 24.1405 101.227 24.1516C101.205 24.1516 101.139 24.1737 101.161 24.207C101.327 24.4177 101.361 24.7283 101.239 24.9723C101.205 25.0388 101.394 25.0499 101.416 24.9944C101.55 24.7394 101.516 24.4066 101.339 24.1848Z" fill="#723737"/>
<path d="M100.138 24.8614C100.127 24.7949 99.9381 24.8059 99.9492 24.8614C100.005 25.1608 99.8936 25.4825 99.6603 25.6821C99.627 25.7043 99.6603 25.7375 99.6936 25.7486C99.727 25.7597 99.7936 25.7486 99.8158 25.7265C100.06 25.5157 100.183 25.183 100.127 24.8614H100.138Z" fill="#723737"/>
<path d="M99.5493 24.9612C99.5271 24.9057 99.3493 24.9168 99.3715 24.9833C99.416 25.1164 99.3715 25.2606 99.3049 25.3826C99.2271 25.4935 99.116 25.5601 98.9938 25.6155C98.9604 25.6266 98.9604 25.671 98.9938 25.6821C99.0382 25.7042 99.0826 25.7042 99.1271 25.6821C99.2715 25.6266 99.3938 25.5379 99.4826 25.4048C99.5715 25.2717 99.6049 25.1053 99.5493 24.9612Z" fill="#723737"/>
<path d="M99.8497 23.2311C99.8497 23.2311 99.6274 23.2089 99.6941 23.2754C99.783 23.3863 99.8163 23.5416 99.783 23.6747C99.783 23.6858 99.8052 23.708 99.8052 23.708C99.8275 23.708 99.8497 23.719 99.8719 23.719C99.9052 23.719 99.9608 23.719 99.9608 23.6747C99.9941 23.5194 99.9608 23.342 99.8497 23.22V23.2311Z" fill="#723737"/>
<path d="M103.971 53.1978C103.793 53.1978 103.627 53.1867 103.438 53.1423C102.171 52.8983 101.371 51.7117 101.004 51.024C100.538 50.1368 100.238 49.1941 99.9265 48.0518C99.7154 47.2643 99.5154 46.4547 99.3265 45.6673C99.0154 44.3697 98.6821 43.0277 98.2821 41.7301C97.5265 39.3124 96.5821 37.4159 95.4043 35.9298L95.5265 35.83C96.7154 37.3272 97.671 39.2348 98.4265 41.6747C98.8265 42.9723 99.1598 44.3142 99.471 45.6229C99.6598 46.3993 99.8598 47.2089 100.071 47.9963C100.371 49.1276 100.671 50.0703 101.138 50.9353C101.493 51.6008 102.26 52.7431 103.471 52.976C105.438 53.3531 106.982 51.4455 108.104 49.7486C109.415 47.7745 110.249 45.5009 110.527 43.183L110.682 43.2052C110.404 45.5564 109.56 47.8521 108.238 49.8373C107.182 51.4233 105.771 53.1867 103.971 53.1867V53.1978Z" fill="#2F4A79"/>
<path d="M109.184 81.3678C109.184 81.6007 109.184 81.8226 109.173 82.0555C109.139 83.7634 108.962 85.4714 108.639 87.146C108.606 87.3013 108.573 87.4677 108.617 87.634C108.784 88.2218 110.606 87.8447 111.062 87.7671C111.262 87.7338 112.362 87.4787 111.973 87.0906C111.862 86.9686 111.673 86.9242 111.606 86.769C111.562 86.6802 111.562 86.5804 111.573 86.4917C111.639 85.3383 112.006 84.2958 112.317 83.1867C112.65 81.9889 112.962 80.7911 113.239 79.5823C113.55 78.2514 112.073 78.085 111.073 78.1738C110.606 78.2181 110.117 78.3179 109.795 78.6507C109.562 78.8946 109.439 79.2274 109.362 79.5601C109.228 80.159 109.195 80.769 109.184 81.3789V81.3678Z" fill="white"/>
<path d="M116.561 89.3087C116.561 89.3087 116.539 89.3309 116.539 89.342L108.072 89.3753C108.072 89.3198 108.061 89.2643 108.05 89.1978C108.039 89.0647 108.039 88.9316 108.039 88.7985C108.05 88.2995 108.172 87.8115 108.439 87.3679C108.495 87.268 108.572 87.1682 108.684 87.1461C108.806 87.1239 108.928 87.2015 109.039 87.257C109.461 87.4899 110.072 87.6119 110.539 87.4455C110.839 87.3346 111.106 87.135 111.317 86.9131C111.406 86.8133 111.495 86.7024 111.617 86.6359C111.75 86.5582 111.906 86.5472 112.05 86.5804C112.472 86.6692 112.839 87.013 113.217 87.2015C113.65 87.4233 114.095 87.6229 114.55 87.7782C114.939 87.9113 115.339 88.0222 115.706 88.1997C115.939 88.3106 116.328 88.5102 116.517 88.7653C116.639 88.9316 116.684 89.1091 116.55 89.2976L116.561 89.3087Z" fill="#FFBE7C"/>
<path d="M116.561 89.3087C116.561 89.3087 116.539 89.3309 116.539 89.342L108.072 89.3752C108.072 89.3198 108.061 89.2643 108.05 89.1978C108.039 89.0647 108.039 88.9316 108.039 88.7985L116.528 88.7653C116.65 88.9316 116.695 89.1091 116.561 89.2976V89.3087Z" fill="#F49262"/>
<path d="M114.639 88.0777C114.595 87.9889 114.473 87.9668 114.384 87.9335C113.895 87.7449 113.428 87.5231 112.973 87.268C112.717 87.1239 112.473 86.9686 112.228 86.8133C112.195 86.7912 112.139 86.7801 112.095 86.7912C112.073 86.7912 112.017 86.8355 112.062 86.8577C112.517 87.1682 113.006 87.4455 113.506 87.6784C113.751 87.8004 114.006 87.9002 114.262 88C114.317 88.0222 114.395 88.0333 114.428 88.0777C114.473 88.122 114.428 88.1997 114.395 88.244C114.351 88.3217 114.084 88.5989 114.151 88.6876C114.262 88.8318 114.428 88.5546 114.462 88.488C114.484 88.4326 114.517 88.3771 114.551 88.3327C114.595 88.2551 114.673 88.1664 114.639 88.0777Z" fill="#F49262"/>
<path d="M109.64 88.6654C109.518 88.122 109.24 87.5897 108.707 87.3013C108.673 87.2791 108.607 87.2791 108.562 87.3013C108.529 87.3235 108.529 87.3568 108.562 87.3678C109.051 87.6451 109.318 88.1553 109.429 88.6654C109.44 88.732 109.64 88.732 109.629 88.6654H109.64Z" fill="#F49262"/>
<path d="M112.917 86.8577C112.917 86.8577 112.862 86.8577 112.839 86.8577C112.817 86.8577 112.795 86.8577 112.784 86.8798C112.684 86.9797 112.573 87.0906 112.473 87.1904C112.439 87.2237 112.473 87.2458 112.506 87.2569C112.528 87.2569 112.562 87.2569 112.584 87.2569C112.606 87.2569 112.628 87.2569 112.639 87.2347C112.739 87.1349 112.851 87.024 112.951 86.9242C112.984 86.8909 112.951 86.8688 112.917 86.8577Z" fill="#2F4A79"/>
<path d="M113.36 87.1128C113.36 87.1128 113.26 87.1017 113.227 87.135C113.127 87.2237 113.027 87.3235 112.949 87.4233C112.949 87.4344 112.927 87.4455 112.949 87.4677C112.949 87.4788 112.983 87.4899 112.994 87.501C113.016 87.501 113.049 87.501 113.072 87.501C113.094 87.501 113.116 87.501 113.127 87.4788C113.216 87.379 113.305 87.2792 113.405 87.1904C113.438 87.1572 113.405 87.135 113.372 87.1239L113.36 87.1128Z" fill="#2F4A79"/>
<path d="M113.894 87.3679C113.894 87.3679 113.861 87.3457 113.85 87.3346C113.828 87.3346 113.794 87.3346 113.772 87.3346C113.75 87.3346 113.728 87.3346 113.716 87.3568C113.639 87.4455 113.561 87.5342 113.494 87.634C113.494 87.6451 113.472 87.6562 113.494 87.6784C113.494 87.6895 113.528 87.7006 113.539 87.7117C113.561 87.7117 113.594 87.7117 113.616 87.7117C113.639 87.7117 113.661 87.7117 113.672 87.6895C113.75 87.6008 113.828 87.512 113.894 87.4122C113.894 87.4011 113.916 87.39 113.894 87.3679Z" fill="#2F4A79"/>
<path d="M114.407 87.5342C114.407 87.5342 114.307 87.5342 114.273 87.5564C114.162 87.6562 114.062 87.7671 113.984 87.8891C113.984 87.9002 113.984 87.9224 113.984 87.9335C113.995 87.9446 114.029 87.9557 114.04 87.9557C114.084 87.9557 114.14 87.9557 114.162 87.9224C114.184 87.8891 114.195 87.867 114.218 87.8337C114.218 87.8226 114.24 87.8115 114.251 87.7893V87.7671C114.318 87.7117 114.362 87.6673 114.418 87.623C114.451 87.5897 114.418 87.5675 114.384 87.5564L114.407 87.5342Z" fill="#2F4A79"/>
<path d="M87.5051 64.3105C87.9829 65.3198 88.7384 66.1959 89.7384 66.6839C91.3495 67.4714 93.0718 66.9945 94.7829 67.1165C95.8718 67.1941 96.894 67.427 97.9829 67.4714C99.2384 67.5268 100.483 67.4714 101.738 67.427C103.627 67.3383 105.583 67.0277 107.383 67.6821C108.55 68.1035 109.772 68.7024 111.027 68.7357C112.316 68.769 113.45 68.3475 114.694 68.1812C115.738 68.037 116.638 67.6821 117.316 66.817C118.272 65.6081 118.538 63.4898 117.194 62.4473C116.483 61.8928 115.583 61.6488 114.705 61.4159C114.527 61.3715 114.361 61.3272 114.183 61.2828C111.694 60.6507 109.183 60.0961 106.683 59.464C104.283 58.8651 101.938 58.1664 99.5162 57.6451C99.3162 57.6007 99.1051 57.5564 98.9607 57.4122C98.8607 57.3124 98.8051 57.1682 98.7495 57.0351C98.6273 56.7246 98.494 56.4141 98.3718 56.1035C98.2384 55.7708 98.2495 55.6932 97.9273 55.5934C97.3829 55.427 96.694 55.4492 96.1273 55.3826C94.9051 55.2385 93.6718 55.0943 92.4495 55.0499C91.0162 54.9945 89.5384 55.0943 88.1051 55.1386C87.9384 55.1386 87.7607 55.1497 87.6051 55.2274C87.294 55.3715 87.1495 55.7375 87.0829 56.0702C86.9384 56.7024 86.9273 57.3568 86.9162 58.0111C86.8829 59.6081 86.7162 61.2606 87.0273 62.8355C87.1273 63.3457 87.294 63.8447 87.5162 64.3105H87.5051Z" fill="#2F4A79"/>
<path d="M108.161 77.9076C107.761 80.1479 107.361 82.3993 106.961 84.6395C106.939 84.7726 106.928 84.939 107.05 85.0055C107.106 85.0388 107.172 85.0277 107.239 85.0055C109.55 84.6617 111.85 84.2181 114.084 83.6081C115.839 77.7745 117.528 71.6081 118.05 65.5194C118.184 64.0222 117.45 62.7024 115.95 62.2366C114.906 61.915 113.75 62.0702 112.717 62.4473C111.784 62.78 110.995 63.3235 110.572 64.2329C110.106 65.2643 109.972 66.5397 109.761 67.6599C109.528 68.9131 109.328 70.122 109.295 71.3752C109.25 72.7948 108.784 74.3253 108.528 75.7338C108.395 76.4547 108.272 77.1867 108.139 77.9076H108.161Z" fill="#2F4A79"/>
<path d="M114.406 81.268C114.406 81.268 114.317 81.2348 114.295 81.2348C112.928 81.3679 111.572 81.6229 110.239 81.9446C110.506 80.0592 110.784 78.1738 111.05 76.2884C111.239 74.9464 111.439 73.6045 111.628 72.2514C111.728 71.5749 111.817 70.9094 111.917 70.2329C112.017 69.5786 112.117 68.9131 112.106 68.2477C112.106 67.8817 112.039 67.5268 112.028 67.1608C112.028 66.9834 112.028 66.8059 112.061 66.6396C112.084 66.4732 112.161 66.3069 112.106 66.1405C112.028 65.8854 111.75 65.7523 111.639 65.5083C111.517 65.2311 111.561 64.9094 111.739 64.6765C111.772 64.6322 111.661 64.6211 111.65 64.6211C109.928 64.5545 108.195 64.4769 106.472 64.4104C104.75 64.3438 103.039 64.2662 101.317 64.1996C99.5946 64.1331 97.8613 64.0555 96.1391 63.9889C95.3724 63.9557 94.6057 63.9335 93.8613 63.7228C93.2057 63.5342 92.628 63.2015 92.1724 62.7024C91.3168 61.7819 90.9391 60.4954 90.7724 59.2754C90.7502 59.1202 90.7391 58.976 90.7279 58.8207C90.7279 58.7542 90.5391 58.7542 90.5391 58.8207C90.6502 60.0629 90.9502 61.3494 91.6946 62.3697C92.0613 62.8688 92.528 63.2902 93.0946 63.5564C93.7724 63.878 94.5168 63.9889 95.2613 64.0444C96.0946 64.0998 96.9391 64.122 97.7724 64.1553C98.6613 64.1886 99.5391 64.2329 100.428 64.2662C102.184 64.3327 103.95 64.4104 105.706 64.4769C107.461 64.5435 109.228 64.6211 110.984 64.6876L111.517 64.7098C111.406 64.8873 111.361 65.1091 111.395 65.3198C111.428 65.5638 111.572 65.7301 111.739 65.9076C111.839 66.0185 111.939 66.1294 111.939 66.2847C111.939 66.4399 111.884 66.5952 111.861 66.7505C111.828 67.0721 111.861 67.3937 111.884 67.7043C111.939 68.3697 111.906 69.024 111.817 69.6895C111.728 70.366 111.628 71.0314 111.528 71.708C111.139 74.3919 110.75 77.0869 110.361 79.7708C110.25 80.5139 110.15 81.2459 110.039 81.9889C109.706 82.0666 109.372 82.1442 109.039 82.2329C108.539 82.3549 108.05 82.488 107.55 82.6211C107.517 82.6211 107.495 82.6544 107.517 82.6876C107.539 82.7209 107.617 82.7098 107.639 82.7098C108.428 82.4991 109.217 82.2995 110.017 82.1109C109.906 82.8429 109.806 83.586 109.695 84.3179C109.695 84.3734 109.872 84.3845 109.884 84.3179C109.995 83.5638 110.106 82.8096 110.206 82.0555C111.072 81.8558 111.95 81.6673 112.828 81.5231C113.328 81.4455 113.828 81.3789 114.328 81.3346C114.361 81.3346 114.406 81.3124 114.395 81.2791L114.406 81.268Z" fill="#7095AF"/>
<path d="M99.8158 56.7801C99.7491 56.5693 99.6936 56.3586 99.6269 56.1479C99.3936 55.061 98.8936 53.9741 98.0269 53.2976C97.0269 52.5102 95.6936 52.0666 94.4269 52.0666C92.4491 52.0444 90.5158 52.9538 89.0825 54.3179C89.0491 54.3512 89.0158 54.3845 88.9825 54.4178C88.4714 54.9168 88.0047 55.4825 87.6491 56.1035C87.4047 56.525 87.238 56.9797 87.0491 57.4344C86.8714 57.8558 86.5825 58.1996 86.5047 58.6655C86.3603 59.4862 86.3158 60.329 86.3602 61.1719C86.3825 61.5601 86.4158 62.1146 86.7269 62.403C87.0491 62.7024 87.5936 62.3142 87.9491 62.1812C89.038 61.7597 90.0714 61.2274 91.1714 60.8614C92.7936 60.3179 94.538 60.1405 96.1047 59.464C96.7714 59.1756 97.3936 58.7985 98.0825 58.5545C98.5825 58.3771 99.1936 58.2773 99.5936 57.9224C99.9158 57.6451 99.938 57.2015 99.8269 56.8022L99.8158 56.7801Z" fill="white"/>
<path d="M85.6273 49.4492C85.5828 52.6433 85.7273 55.8706 85.8273 59.0314C85.8384 59.4418 85.8717 60.4288 86.4495 60.4621C86.7939 60.4843 87.1384 60.3956 87.4828 60.3069C90.1606 59.6192 92.8495 58.9316 95.5273 58.244C96.1495 58.0887 96.7606 57.9224 97.3717 57.7449C97.8828 57.6007 98.3828 57.4233 98.8273 57.146C99.1828 56.9131 99.6384 56.525 99.7384 56.0924C99.8495 55.6044 99.7162 54.9501 99.6828 54.451C99.4273 50.6248 99.1495 46.7542 98.4939 42.9612C98.2939 41.8189 98.0606 40.6765 97.7828 39.5564C97.5495 38.5915 97.1828 37.6599 96.9828 36.695C96.7717 35.6414 96.705 34.976 95.9273 34.1664C95.3273 33.5453 94.6606 32.9797 93.9384 32.4917C92.3384 31.4048 90.3828 30.9834 88.4384 31.0166C87.7273 31.0277 86.9939 31.1165 86.3606 31.4492C85.4717 31.915 84.8828 32.891 84.8828 33.878C84.8828 34.8651 85.4717 35.841 86.3606 36.3068C86.4495 36.3512 86.5495 36.3956 86.605 36.4843C86.6939 36.6174 86.6606 36.7837 86.6161 36.939C85.8717 39.9002 85.9384 42.9945 85.7384 46.0222C85.6606 47.1534 85.6273 48.2958 85.605 49.4492H85.6273Z" fill="#FFBE7C"/>
<path d="M88.2382 37.1164C87.9048 38.1922 87.9937 39.3678 88.2937 40.4658C88.5937 41.5527 89.1048 42.5841 89.6048 43.5933C90.9826 46.3771 92.3715 49.1719 94.1159 51.756C94.4159 52.2107 94.7937 52.6876 95.3382 52.7652C95.7159 52.8207 96.0826 52.6654 96.4271 52.5102C96.8826 52.3105 97.3604 52.0887 97.6826 51.7116C97.9271 51.4233 98.0715 51.0573 98.1826 50.6913C98.2493 50.4806 98.3048 50.2588 98.3271 50.037C98.3715 49.3604 97.9937 48.7394 97.6493 48.1516C95.6826 44.8022 94.5826 41.0425 93.3715 37.3604C93.0826 36.4843 92.7604 35.5638 92.0271 35.0092C90.4382 33.8004 88.7159 35.6747 88.2604 37.1164H88.2382Z" fill="#FFBE7C"/>
<path d="M94.3599 51.5675C94.4043 51.8891 94.4932 52.1886 94.6599 52.4325C95.4377 53.5527 97.3821 53.1202 98.4488 52.7542C99.9821 52.2218 101.404 51.4233 102.76 50.5361C103.427 50.0924 104.082 49.6377 104.727 49.1608C105.282 48.7616 105.915 48.5398 105.938 47.7412C105.949 47.3087 105.782 46.8873 105.582 46.5102C105.371 46.1331 105.127 45.7782 104.949 45.3789C104.771 44.9908 104.66 44.5582 104.404 44.2255C103.804 43.4381 103.027 43.9593 102.338 44.3032C101.027 44.9575 99.7043 45.6118 98.3932 46.2662C96.7043 47.098 94.1266 48.085 94.2821 50.3919C94.3043 50.7579 94.3043 51.1682 94.3599 51.5675Z" fill="#FFBE7C"/>
<path d="M109.904 45.5231L108.049 44.2477C107.949 44.1812 107.927 44.0481 107.993 43.9483L111.827 38.4806C111.893 38.3808 112.027 38.3586 112.127 38.4252L113.982 39.7006C114.082 39.7671 114.104 39.9002 114.038 40L110.204 45.4677C110.138 45.5675 110.004 45.5897 109.904 45.5231Z" fill="#F26061"/>
<path d="M108.116 44.2921L108.005 44.2144C107.927 44.159 107.905 44.0481 107.961 43.9704L111.838 38.4362C111.894 38.3586 112.005 38.3364 112.083 38.3919L112.194 38.4695C112.272 38.525 112.294 38.6359 112.238 38.7135L108.349 44.2477C108.294 44.3253 108.183 44.3475 108.105 44.2921H108.116Z" fill="#DD5259"/>
<path d="M112.861 39.7449L112.75 39.6673C112.75 39.6673 112.694 39.5675 112.727 39.5231L112.805 39.4122C112.805 39.4122 112.905 39.3568 112.95 39.39L113.061 39.4677C113.061 39.4677 113.116 39.5675 113.083 39.6118L113.005 39.7227C113.005 39.7227 112.905 39.7782 112.861 39.7449Z" fill="#2F4A79"/>
<path d="M113.283 40.0222L113.172 39.9446C113.172 39.9446 113.116 39.8448 113.149 39.8004L113.227 39.6895C113.227 39.6895 113.327 39.634 113.372 39.6673L113.483 39.7449C113.483 39.7449 113.538 39.8448 113.505 39.8891L113.427 40C113.427 40 113.327 40.0555 113.283 40.0222Z" fill="#2F4A79"/>
<path d="M106.493 43.7153C106.06 44.1701 105.504 44.5139 105.004 44.902C104.849 45.024 104.671 45.1793 104.693 45.3789C104.693 45.4677 104.76 45.5564 104.804 45.6229C105.038 45.9667 105.293 46.2884 105.582 46.5878C105.627 46.6322 105.682 46.6876 105.738 46.6876C106.038 46.7209 106.427 46.2994 106.682 46.1774C107.071 46 107.504 45.9002 107.927 45.8669C108.238 45.8447 108.549 45.9002 108.86 45.8669C109.227 45.8226 109.582 45.7338 109.938 45.634C110.282 45.5342 110.593 45.3457 110.849 45.0906C110.916 45.024 110.982 44.9464 110.993 44.8466C111.004 44.7579 110.938 44.647 110.849 44.647C111.038 44.5471 111.193 44.403 111.327 44.2366C111.382 44.1701 111.427 44.0924 111.427 44.0037C111.427 43.915 111.349 43.8373 111.26 43.8484C111.36 43.793 111.449 43.7264 111.527 43.6377C111.593 43.549 111.638 43.427 111.604 43.3272C111.571 43.2163 111.449 43.1386 111.338 43.183C111.604 42.9945 111.827 42.7505 112.06 42.5287C112.093 42.4954 112.127 42.4621 112.138 42.4177C112.149 42.3512 112.093 42.2847 112.027 42.2514C111.96 42.2292 111.882 42.2292 111.816 42.2514C110.927 42.3623 110.06 42.7061 109.171 42.7616C109.127 42.7616 109.082 42.7616 109.06 42.7283C109.038 42.7061 109.038 42.6728 109.038 42.6506C109.038 42.4954 109.216 42.2847 109.06 42.1627C109.004 42.1183 108.938 42.1183 108.871 42.1072C108.582 42.0961 108.282 42.0739 108.027 42.1959C107.66 42.3512 107.393 42.7616 107.127 43.0499C106.916 43.2717 106.716 43.4824 106.504 43.7043L106.493 43.7153Z" fill="#F7967C"/>
<path d="M105.916 44.1812C105.85 44.0924 105.772 44.0037 105.683 43.9261C105.639 43.8928 105.594 43.8484 105.539 43.8484C105.494 43.8484 105.461 43.8595 105.416 43.8817C104.939 44.0924 104.494 44.3586 104.083 44.6802C104.039 44.7135 103.994 44.7468 103.972 44.7911C103.894 44.9131 103.972 45.0684 104.039 45.1904C104.339 45.6895 104.75 46.2218 104.916 46.7875C104.983 47.0204 105.083 47.3309 105.394 47.3309C105.483 47.3309 105.561 47.2976 105.639 47.2643C106.05 47.0758 106.45 46.854 106.816 46.5878C106.861 46.5545 106.916 46.5213 106.95 46.4658C107.128 46.1996 106.805 45.7893 106.683 45.5564C106.45 45.1017 106.239 44.5915 105.916 44.1812Z" fill="#FFBE7C"/>
<path d="M111.171 43.2274C111.171 43.2274 111.083 43.2274 111.06 43.2384C110.927 43.3494 110.749 43.3715 110.594 43.4048C110.394 43.4381 110.194 43.4714 109.983 43.4824C109.96 43.4824 109.905 43.5046 109.927 43.5379C109.938 43.5712 110.005 43.5712 110.027 43.5712C110.249 43.5601 110.471 43.5157 110.694 43.4824C110.871 43.4492 111.06 43.4159 111.205 43.2939C111.238 43.2717 111.205 43.2384 111.171 43.2384V43.2274Z" fill="#DB6357"/>
<path d="M111.205 43.9149C111.205 43.9149 111.116 43.8928 111.082 43.9149C110.794 44.0924 110.471 44.2255 110.138 44.3031C110.105 44.3031 110.082 44.3364 110.105 44.3586C110.127 44.3808 110.182 44.3808 110.216 44.3697C110.56 44.292 110.894 44.1589 111.194 43.9704C111.227 43.9482 111.227 43.926 111.194 43.9149H111.205Z" fill="#DB6357"/>
<path d="M110.806 44.7135C110.806 44.7135 110.728 44.7135 110.695 44.7246C110.528 44.8466 110.328 44.9353 110.117 44.9797C110.095 44.9797 110.04 45.0019 110.062 45.0351C110.073 45.0684 110.14 45.0684 110.162 45.0684C110.406 45.0129 110.64 44.9242 110.84 44.78C110.873 44.7579 110.84 44.7246 110.806 44.7246V44.7135Z" fill="#DB6357"/>
<path d="M108.906 42.7283C108.717 42.7283 108.528 42.7283 108.339 42.7283C108.317 42.7283 108.25 42.7283 108.25 42.7726C108.25 42.817 108.306 42.817 108.339 42.817C108.528 42.817 108.717 42.817 108.906 42.817C108.928 42.817 108.994 42.817 108.994 42.7726C108.994 42.7283 108.939 42.7283 108.906 42.7283Z" fill="#DB6357"/>
<path d="M105.572 46.8651C105.039 46.2773 104.716 45.5231 104.683 44.7357C104.683 44.6692 104.494 44.6692 104.494 44.7357C104.527 45.5453 104.861 46.3216 105.405 46.9205C105.45 46.9649 105.627 46.9316 105.561 46.8762L105.572 46.8651Z" fill="#F49262"/>
<path d="M98.5164 52.366C97.0053 53.1756 95.1387 52.7209 93.8164 51.7671C92.372 50.7246 91.4275 49.1608 90.572 47.6525C89.9942 46.6432 89.4387 45.634 88.8831 44.6137C88.8498 44.5582 88.672 44.5804 88.7053 44.6358C89.2164 45.5896 89.7387 46.5323 90.272 47.475C90.7275 48.2846 91.1942 49.0943 91.7387 49.8373C92.272 50.5693 92.8831 51.2569 93.6164 51.7893C94.2942 52.2883 95.0942 52.6432 95.9164 52.7985C96.8387 52.9649 97.8053 52.8761 98.6275 52.4325C98.7164 52.3882 98.5498 52.3327 98.4942 52.366H98.5164Z" fill="#F49262"/>
<path d="M96.1723 36.2847C96.0834 36.2514 95.7167 35.8632 95.5945 35.7745C95.4389 35.6636 95.2723 35.5527 95.1167 35.4418C94.4834 35.0203 93.8389 34.6322 93.1278 34.3549C92.4278 34.0776 91.6612 33.9113 90.9056 33.9778C90.5167 34.0111 90.1723 34.1442 89.8501 34.3549C89.5389 34.5545 89.2501 34.7985 88.9612 35.0425C88.3056 35.5749 87.6389 36.1405 86.8278 36.4178C86.7167 36.4621 86.8501 36.5176 86.9167 36.4954C87.5167 36.2847 88.0501 35.9409 88.5501 35.5527C88.8056 35.3531 89.0501 35.1423 89.3056 34.9427C89.5723 34.732 89.8278 34.5102 90.1278 34.3327C90.7501 33.9667 91.5167 34.0222 92.1945 34.1775C92.8501 34.3216 93.4612 34.5989 94.0501 34.9316C94.3834 35.1202 94.7056 35.3198 95.0278 35.5416C95.1834 35.6525 95.3501 35.7634 95.5056 35.8743C95.7167 36.0296 95.9278 36.207 96.1834 36.2958L96.1723 36.2847Z" fill="#F49262"/>
<path d="M97.9607 57.0019C97.9607 57.0019 97.8607 56.9797 97.8385 56.9797C94.9829 57.634 92.1163 58.1996 89.2274 58.6765C88.4163 58.8096 87.5941 58.9427 86.7829 59.0647C86.6607 59.0869 86.7496 59.1645 86.8274 59.1534C89.7496 58.7209 92.6496 58.1996 95.5385 57.5897C96.3385 57.4233 97.1385 57.2458 97.9385 57.0573C97.9718 57.0573 97.9941 57.024 97.9718 56.9908L97.9607 57.0019Z" fill="#F49262"/>
<path d="M98.4166 46.3216C98.4166 46.3216 98.3166 46.2995 98.2833 46.3216C98.0166 46.4658 97.7277 46.5213 97.4277 46.488C97.4055 46.488 97.3833 46.488 97.3611 46.488C97.1388 46.0777 96.9166 45.6562 96.7055 45.2459C96.25 44.3808 95.7944 43.5268 95.3611 42.6507C94.9611 41.8521 94.65 41.0204 94.4055 40.1553C94.1833 39.3789 94.0055 38.5915 93.7722 37.8263C93.5055 36.9723 93.15 36.1294 92.5833 35.4196C92.5388 35.3642 92.3611 35.3974 92.4055 35.4418C93.4166 36.7283 93.7277 38.3586 94.1388 39.8891C94.3611 40.732 94.65 41.5527 95.0166 42.3512C95.4277 43.2163 95.8944 44.0703 96.3388 44.9131C96.8611 45.9002 97.3833 46.8873 97.9055 47.8743C97.9388 47.9298 98.1166 47.9076 98.0833 47.8521C97.8611 47.4307 97.6277 46.9982 97.4055 46.5767C97.75 46.6211 98.1055 46.5545 98.4166 46.3882C98.45 46.366 98.45 46.3438 98.4166 46.3216Z" fill="#F49262"/>
<path d="M107.415 67.6266V67.5379C107.415 67.2052 107.182 66.939 106.893 66.939H23.3485C21.3819 66.939 19.793 68.7468 19.793 70.976V73.5934C19.793 75.8226 21.3819 77.6303 23.3485 77.6303H106.893C107.182 77.6303 107.415 77.3642 107.415 77.0314V76.9427C107.415 76.61 107.182 76.3438 106.893 76.3438H105.56L105.815 76.122C105.326 75.3235 105.104 74.3475 105.026 73.3716C104.982 72.8059 104.982 72.2292 105.026 71.6525C105.071 71.0425 105.171 70.4326 105.371 69.8669C105.537 69.4011 105.771 68.9575 106.071 68.6026L105.815 68.2144H106.882C107.171 68.2144 107.404 67.9483 107.404 67.6156L107.415 67.6266Z" fill="#9E554E"/>
<path d="M84.5161 68.2256H23.3383C22.0828 68.2256 21.0605 69.379 21.0605 70.7875V73.7819C21.0605 75.2015 22.0828 76.3439 23.3383 76.3439H105.705C105.649 76.2773 105.605 76.1997 105.561 76.122C105.061 75.3235 104.838 74.3475 104.772 73.3716C104.727 72.806 104.727 72.2292 104.772 71.6525C104.816 71.0426 104.916 70.4326 105.116 69.867C105.283 69.4012 105.516 68.9575 105.827 68.6026C105.883 68.5472 105.927 68.4806 105.983 68.4252L106.016 68.2921L106.038 68.2034H84.5161V68.2256Z" fill="white"/>
<path d="M23.7148 68.2255H23.3481C22.0925 68.2255 21.0703 69.3789 21.0703 70.7874V73.7819C21.0703 75.2015 22.0925 76.3438 23.3481 76.3438H23.7148V68.2255Z" fill="#D7EEFE"/>
<path d="M37.3932 69.6229H25.1376C25.071 69.6229 24.9043 69.6451 24.9043 69.7449C24.9043 69.8447 25.071 69.8669 25.1376 69.8669H37.3932C37.4599 69.8669 37.6265 69.8447 37.6265 69.7449C37.6265 69.6451 37.4599 69.6229 37.3932 69.6229Z" fill="#7FAFC6"/>
<path d="M68.2707 72.7838H31.0263C30.9596 72.7838 30.793 72.8059 30.793 72.9057C30.793 73.0056 30.9596 73.0277 31.0263 73.0277H68.2707C68.3374 73.0277 68.5041 73.0056 68.5041 72.9057C68.5041 72.8059 68.3374 72.7838 68.2707 72.7838Z" fill="#7FAFC6"/>
<path d="M89.0701 70.0999H61.5146C61.4479 70.0999 61.2812 70.122 61.2812 70.2219C61.2812 70.3217 61.4479 70.3438 61.5146 70.3438H89.0701C89.1368 70.3438 89.3035 70.3217 89.3035 70.2219C89.3035 70.122 89.1368 70.0999 89.0701 70.0999Z" fill="#7FAFC6"/>
<path d="M102.37 72.5952H81.0927C81.026 72.5952 80.8594 72.6174 80.8594 72.7172C80.8594 72.817 81.026 72.8392 81.0927 72.8392H102.37C102.437 72.8392 102.604 72.817 102.604 72.7172C102.604 72.6174 102.437 72.5952 102.37 72.5952Z" fill="#7FAFC6"/>
<path d="M103.983 78.3845V78.2847C103.983 77.9298 103.749 77.6303 103.46 77.6303H18.5048C16.5492 77.6303 14.9492 79.6044 14.9492 82.0444V84.9057C14.9492 87.3457 16.5381 89.3198 18.5048 89.3198H103.46C103.749 89.3198 103.983 89.0314 103.983 88.6654V88.5656C103.983 88.2107 103.749 87.9113 103.46 87.9113H102.127L102.383 87.6784C101.894 86.8022 101.671 85.7264 101.594 84.6617C101.549 84.0407 101.549 83.4085 101.594 82.7874C101.638 82.122 101.738 81.4566 101.938 80.8355C101.971 80.7357 102.005 80.6359 102.038 80.5471C102.038 80.536 102.049 80.5139 102.06 80.5028C102.094 80.414 102.138 80.3253 102.171 80.2366C102.171 80.2144 102.183 80.2033 102.194 80.1811C102.238 80.0924 102.283 80.0037 102.327 79.915C102.327 79.915 102.327 79.9039 102.338 79.8928C102.383 79.8152 102.438 79.7375 102.483 79.6599C102.527 79.5933 102.571 79.5268 102.627 79.4603L102.505 79.2606L102.371 79.0388H103.438C103.727 79.0388 103.96 78.7505 103.96 78.3845H103.983Z" fill="#F26061"/>
<path d="M102.395 79.0388H18.3168C18.2057 79.0388 18.0835 79.0499 17.9724 79.0721C16.8835 79.2717 16.0391 80.4362 16.0391 81.8447V85.1165C16.0391 86.525 16.8835 87.6895 17.9724 87.8891C18.0835 87.9113 18.1946 87.9224 18.3168 87.9224H102.239C102.195 87.8447 102.139 87.7671 102.095 87.6895C101.595 86.8133 101.372 85.7375 101.306 84.6728C101.261 84.0518 101.261 83.4196 101.306 82.7985C101.35 82.1331 101.45 81.4677 101.65 80.8466C101.817 80.3364 102.05 79.8595 102.35 79.4603C102.395 79.3937 102.45 79.3272 102.506 79.2717L102.539 79.1275L102.561 79.0388H102.384H102.395Z" fill="white"/>
<path d="M19.4057 79.0388H18.3168C18.2057 79.0388 18.0835 79.0499 17.9724 79.0721C16.8835 79.2717 16.0391 80.4362 16.0391 81.8447V85.1165C16.0391 86.525 16.8835 87.6895 17.9724 87.8891C18.0835 87.9113 18.1946 87.9224 18.3168 87.9224H19.4057V79.0388Z" fill="#D7EEFE"/>
<path d="M34.3596 81.0906H25.2374C25.1596 81.0906 24.9707 81.1128 24.9707 81.2237C24.9707 81.3346 25.1596 81.3568 25.2374 81.3568H34.3596C34.4374 81.3568 34.6263 81.3346 34.6263 81.2237C34.6263 81.1128 34.4374 81.0906 34.3596 81.0906Z" fill="#7FAFC6"/>
<path d="M46.6382 84.8281H29.0382C28.9604 84.8281 28.7715 84.8502 28.7715 84.9611C28.7715 85.0721 28.9604 85.0942 29.0382 85.0942H46.6382C46.7159 85.0942 46.9048 85.0721 46.9048 84.9611C46.9048 84.8502 46.7159 84.8281 46.6382 84.8281Z" fill="#7FAFC6"/>
<path d="M69.0156 81.8226H49.7823C49.7045 81.8226 49.5156 81.8448 49.5156 81.9557C49.5156 82.0666 49.7045 82.0887 49.7823 82.0887H69.0045C69.0823 82.0887 69.2712 82.0666 69.2712 81.9557C69.2712 81.8448 69.0823 81.8226 69.0045 81.8226H69.0156Z" fill="#7FAFC6"/>
<path d="M79.4375 85.0388H62.3819C62.3041 85.0388 62.1152 85.061 62.1152 85.1719C62.1152 85.2828 62.3041 85.305 62.3819 85.305H79.4375C79.5152 85.305 79.7041 85.2828 79.7041 85.1719C79.7041 85.061 79.5152 85.0388 79.4375 85.0388Z" fill="#7FAFC6"/>
<path d="M96.8167 82.0222H83.0167C82.9389 82.0222 82.75 82.0443 82.75 82.1552C82.75 82.2662 82.9389 82.2883 83.0167 82.2883H96.8167C96.8944 82.2883 97.0833 82.2662 97.0833 82.1552C97.0833 82.0443 96.8944 82.0222 96.8167 82.0222Z" fill="#7FAFC6"/>
<path d="M118.949 90.0185V89.9298C118.949 89.597 118.682 89.3309 118.36 89.3309H23.8152C21.593 89.3309 19.793 91.1386 19.793 93.3567V95.9741C19.793 98.2033 21.593 100 23.8152 100H118.36C118.682 100 118.949 99.7338 118.949 99.4011V99.3124C118.949 98.9797 118.682 98.7135 118.36 98.7135H116.849L117.137 98.4917C116.582 97.6932 116.326 96.7172 116.249 95.7412C116.204 95.1756 116.204 94.5989 116.249 94.0222C116.304 93.4122 116.415 92.8022 116.637 92.2366C116.826 91.7708 117.082 91.3383 117.426 90.9723L117.137 90.5841H118.349C118.671 90.5841 118.937 90.3179 118.937 89.9852L118.949 90.0185Z" fill="#2F4A79"/>
<path d="M93.0383 90.6063H23.8161C22.3938 90.6063 21.2383 91.7486 21.2383 93.1682V96.1627C21.2383 97.5823 22.3938 98.7246 23.8161 98.7246H117.016C116.961 98.658 116.905 98.5804 116.849 98.5028C116.294 97.7043 116.038 96.7283 115.949 95.7523C115.905 95.1867 115.905 94.61 115.949 94.0333C116.005 93.4233 116.116 92.8133 116.338 92.2477C116.527 91.7819 116.794 91.3494 117.138 90.9834C117.194 90.9279 117.249 90.8614 117.316 90.8059L117.349 90.6728L117.372 90.5841H93.0161L93.0383 90.6063Z" fill="white"/>
<path d="M24.0155 90.6063H23.8043C22.3821 90.6063 21.2266 91.7486 21.2266 93.1682V96.1626C21.2266 97.5822 22.3821 98.7246 23.8043 98.7246H24.0155V90.6063Z" fill="#D7EEFE"/>
<path d="M76.1484 93.2902H60.3818C60.3151 93.2902 60.1484 93.3124 60.1484 93.4122C60.1484 93.512 60.3151 93.5342 60.3818 93.5342H76.1484C76.2151 93.5342 76.3818 93.512 76.3818 93.4122C76.3818 93.3124 76.2151 93.2902 76.1484 93.2902Z" fill="#7FAFC6"/>
<path d="M100.948 95.9409H73.204C73.1374 95.9409 72.9707 95.963 72.9707 96.0629C72.9707 96.1627 73.1374 96.1849 73.204 96.1849H100.948C101.015 96.1849 101.182 96.1627 101.182 96.0629C101.182 95.963 101.015 95.9409 100.948 95.9409Z" fill="#7FAFC6"/>
<path d="M110.449 93.1017H93.249C93.1823 93.1017 93.0156 93.1239 93.0156 93.2237C93.0156 93.3235 93.1823 93.3457 93.249 93.3457H110.449C110.516 93.3457 110.682 93.3235 110.682 93.2237C110.682 93.1239 110.516 93.1017 110.449 93.1017Z" fill="#7FAFC6"/>
<path d="M51.4478 96.2292H45.3701C45.3034 96.2292 45.1367 96.2514 45.1367 96.3512C45.1367 96.451 45.3034 96.4732 45.3701 96.4732H51.4478C51.5145 96.4732 51.6812 96.451 51.6812 96.3512C51.6812 96.2514 51.5145 96.2292 51.4478 96.2292Z" fill="#7FAFC6"/>
<path d="M46.3266 93.6673H28.4599C28.3932 93.6673 28.2266 93.6895 28.2266 93.7893C28.2266 93.8891 28.3932 93.9113 28.4599 93.9113H46.3266C46.3932 93.9113 46.5599 93.8891 46.5599 93.7893C46.5599 93.6895 46.3932 93.6673 46.3266 93.6673Z" fill="#7FAFC6"/>
<path d="M31.5924 96.2292H28.8368C28.7702 96.2292 28.6035 96.2514 28.6035 96.3512C28.6035 96.451 28.7702 96.4732 28.8368 96.4732H31.5924C31.6591 96.4732 31.8257 96.451 31.8257 96.3512C31.8257 96.2514 31.6591 96.2292 31.5924 96.2292Z" fill="#7FAFC6"/>
<path d="M24.7351 64.9296C24.7351 65.3563 24.5644 65.7403 24.2231 66.0816C23.8817 66.423 23.4657 66.5936 22.9751 66.5936C22.4844 66.5936 22.0684 66.423 21.7271 66.0816C21.3857 65.7403 21.2151 65.3563 21.2151 64.9296V45.6016C21.2151 45.1323 21.3964 44.7056 21.7591 44.3216C22.1431 43.9163 22.6231 43.7136 23.1991 43.7136H31.8711C32.3617 43.7136 32.7777 43.8843 33.1191 44.2256C33.4604 44.5456 33.6311 44.9296 33.6311 45.3776C33.6311 45.847 33.4604 46.231 33.1191 46.5296C32.7777 46.8283 32.3617 46.9776 31.8711 46.9776H24.7351V53.3136H31.2631C31.6897 53.3136 32.0844 53.4736 32.4471 53.7936C32.8097 54.0923 32.9911 54.4763 32.9911 54.9456C32.9911 55.415 32.8204 55.8096 32.4791 56.1296C32.1591 56.4496 31.7537 56.6096 31.2631 56.6096H24.7351V64.9296ZM52.0036 50.3056C52.0036 51.9696 51.5769 53.3136 50.7236 54.3376C49.8916 55.3616 48.7502 56.055 47.2996 56.4176C48.0889 57.6976 48.8782 58.9563 49.6676 60.1936C50.4569 61.4096 51.2462 62.6576 52.0356 63.9376C52.1209 64.023 52.1849 64.1616 52.2276 64.3536C52.2702 64.5456 52.2916 64.695 52.2916 64.8016C52.2916 65.2923 52.0889 65.7083 51.6836 66.0496C51.2996 66.3696 50.8942 66.5296 50.4676 66.5296C49.8062 66.5296 49.3156 66.2736 48.9956 65.7616L43.4596 56.7376H40.5476V64.8656C40.5476 65.3136 40.3662 65.7083 40.0036 66.0496C39.6622 66.391 39.2462 66.5616 38.7556 66.5616C38.2862 66.5616 37.8809 66.4016 37.5396 66.0816C37.1982 65.7403 37.0276 65.335 37.0276 64.8656V45.6336C37.0276 45.1216 37.2196 44.6736 37.6036 44.2896C37.9876 43.9056 38.4462 43.7136 38.9796 43.7136H44.5476C45.9556 43.7136 47.1289 43.9056 48.0676 44.2896C49.0276 44.6736 49.7956 45.175 50.3716 45.7936C50.9689 46.4123 51.3849 47.1163 51.6196 47.9056C51.8756 48.695 52.0036 49.495 52.0036 50.3056ZM48.4836 50.3056C48.4836 49.9003 48.4196 49.5056 48.2916 49.1216C48.1849 48.7163 47.9822 48.3643 47.6836 48.0656C47.3849 47.7456 46.9689 47.4896 46.4356 47.2976C45.9236 47.1056 45.2516 47.0096 44.4196 47.0096H40.5476V53.5056H44.6116C45.8702 53.5056 46.8302 53.239 47.4916 52.7056C48.1529 52.151 48.4836 51.351 48.4836 50.3056ZM68.3261 64.5776C68.3261 65.0683 68.1554 65.4736 67.8141 65.7936C67.4727 66.1136 67.0567 66.2736 66.5661 66.2736H58.0861C57.4247 66.2736 56.8381 66.1456 56.3261 65.8896C55.8354 65.6123 55.5901 65.111 55.5901 64.3856V45.6016C55.5901 45.1323 55.7714 44.7056 56.1341 44.3216C56.5181 43.9163 56.9981 43.7136 57.5741 43.7136H66.2461C66.7367 43.7136 67.1527 43.8843 67.4941 44.2256C67.8354 44.5456 68.0061 44.9403 68.0061 45.4096C68.0061 45.879 67.8354 46.263 67.4941 46.5616C67.1527 46.8603 66.7367 47.0096 66.2461 47.0096H59.1101V53.3136H65.6381C66.0647 53.3136 66.4594 53.4736 66.8221 53.7936C67.1847 54.0923 67.3661 54.4763 67.3661 54.9456C67.3661 55.415 67.1954 55.8096 66.8541 56.1296C66.5341 56.4496 66.1287 56.6096 65.6381 56.6096H59.1101V63.0096H66.5661C67.0354 63.0096 67.4407 63.1696 67.7821 63.4896C68.1447 63.7883 68.3261 64.151 68.3261 64.5776ZM84.1386 64.5776C84.1386 65.0683 83.9679 65.4736 83.6266 65.7936C83.2852 66.1136 82.8692 66.2736 82.3786 66.2736H73.8986C73.2372 66.2736 72.6506 66.1456 72.1386 65.8896C71.6479 65.6123 71.4026 65.111 71.4026 64.3856V45.6016C71.4026 45.1323 71.5839 44.7056 71.9466 44.3216C72.3306 43.9163 72.8106 43.7136 73.3866 43.7136H82.0586C82.5492 43.7136 82.9652 43.8843 83.3066 44.2256C83.6479 44.5456 83.8186 44.9403 83.8186 45.4096C83.8186 45.879 83.6479 46.263 83.3066 46.5616C82.9652 46.8603 82.5492 47.0096 82.0586 47.0096H74.9226V53.3136H81.4506C81.8772 53.3136 82.2719 53.4736 82.6346 53.7936C82.9972 54.0923 83.1786 54.4763 83.1786 54.9456C83.1786 55.415 83.0079 55.8096 82.6666 56.1296C82.3466 56.4496 81.9412 56.6096 81.4506 56.6096H74.9226V63.0096H82.3786C82.8479 63.0096 83.2532 63.1696 83.5946 63.4896C83.9572 63.7883 84.1386 64.151 84.1386 64.5776Z" fill="#243976"/>
</g>
</g>
<defs>
<clipPath id="clip0_347_6746">
<rect width="139.102" height="120" fill="white" transform="translate(0 0.612793)"/>
</clipPath>
<clipPath id="clip1_347_6746">
<rect width="104" height="78" fill="white" transform="translate(14.9492 22)"/>
</clipPath>
</defs>
</svg>
