<svg width="140" height="121" viewBox="0 0 140 121" fill="none" xmlns="http://www.w3.org/2000/svg">
<g clip-path="url(#clip0_348_11230)">
<path d="M30.8678 97.6995C21.9312 89.4373 17.4402 77.2271 17.4402 61.0823C17.4402 44.9372 21.9314 32.7278 30.867 24.5332C39.8097 16.332 52.7124 12.176 69.6207 12.176C86.529 12.176 99.4317 16.332 108.374 24.5332C117.31 32.7278 121.801 44.9372 121.801 61.0823C121.801 77.2271 117.31 89.4373 108.374 97.6995C99.4311 105.967 86.5291 110.123 69.6207 110.123C52.7124 110.123 39.8103 105.967 30.8678 97.6995Z" stroke="#E63950" stroke-width="0.595238"/>
<path d="M112.064 108.775C118.073 104.259 122.112 97.8475 125.245 91.2537C131.037 79.0708 131.183 59.0959 117.572 50.9759C109.288 46.0336 102.125 54.2132 97.2396 43.318C96.1754 40.9422 95.7909 38.3399 95.2036 35.8121C92.9978 26.3299 87.3162 17.2143 78.2572 12.8026C69.1983 8.39086 56.61 9.91112 50.2965 17.7211C47.5988 21.0597 46.0994 25.3104 42.6922 28.0022C35.1177 33.9878 29.6031 31.9966 20.9615 36.4649C13.077 40.5398 5.23727 52.371 4.57849 56.5502C0.786794 80.603 12.8713 87.6797 23.838 100.754C33.0401 111.727 38.3341 112.025 52.4844 116.219C66.6347 120.413 85.3011 121.841 98.0295 114.222" stroke="#D1A092" stroke-miterlimit="10"/>
<g clip-path="url(#clip1_348_11230)">
<path d="M113.737 68.9255L99.5402 52.8639C98.4094 51.5856 96.7953 50.8479 95.0939 50.835L48.3548 50.4919C45.0116 50.4683 42.2923 53.1942 42.3008 56.5592L42.3796 89.892C42.3881 93.2399 45.0925 95.9465 48.4166 95.9315L94.9917 95.7342C96.7336 95.7278 98.3881 94.9578 99.5253 93.626L113.805 76.8952C115.769 74.5961 115.739 71.1882 113.737 68.9234V68.9255ZM105.839 74.7076C104.808 77.2619 101.917 78.4909 99.3805 77.4528C96.8443 76.4148 95.6241 73.5023 96.6548 70.948C97.6854 68.3936 100.577 67.1647 103.113 68.2027C105.65 69.2408 106.87 72.1533 105.839 74.7076Z" fill="#E63950"/>
<g opacity="0.4">
<path d="M113.737 68.9255L99.5402 52.8639C98.4094 51.5856 96.7953 50.8479 95.0939 50.835L48.3548 50.4919C45.0116 50.4683 42.2923 53.1942 42.3008 56.5592L42.3796 89.892C42.3881 93.2399 45.0925 95.9465 48.4166 95.9315L94.9917 95.7342C96.7336 95.7278 98.3881 94.9578 99.5253 93.626L113.805 76.8952C115.769 74.5961 115.739 71.1882 113.737 68.9234V68.9255ZM105.839 74.7076C104.808 77.2619 101.917 78.4909 99.3805 77.4528C96.8443 76.4148 95.6241 73.5023 96.6548 70.948C97.6854 68.3936 100.577 67.1647 103.113 68.2027C105.65 69.2408 106.87 72.1533 105.839 74.7076Z" fill="black"/>
</g>
<path d="M116.198 68.9255L102.001 52.8639C100.87 51.5856 99.2563 50.8479 97.5548 50.835L50.8157 50.4919C47.4725 50.4683 44.7532 53.1942 44.7617 56.5592L44.8405 89.892C44.849 93.2399 47.5534 95.9465 50.8775 95.9315L97.4526 95.7342C99.1945 95.7278 100.849 94.9578 101.986 93.626L116.266 76.8952C118.23 74.5961 118.2 71.1882 116.198 68.9234V68.9255ZM108.3 74.7076C107.269 77.2619 104.378 78.4909 101.841 77.4528C99.3052 76.4148 98.0851 73.5023 99.1157 70.948C100.146 68.3936 103.038 67.1647 105.574 68.2027C108.11 69.2408 109.331 72.1533 108.3 74.7076Z" fill="#E63950"/>
<path d="M60.3073 67.8082C60.3456 63.7676 62.8157 61.2219 66.2825 61.2562C69.7513 61.2884 72.1406 63.8449 72.1022 67.9198C72.0639 71.9947 69.6278 74.5061 66.159 74.474C62.6922 74.4418 60.2668 71.851 60.3051 67.8104L60.3073 67.8082ZM68.7037 67.8876C68.7271 65.3204 67.7539 64.0786 66.2569 64.0636C64.7961 64.0507 63.7633 65.3075 63.7399 67.8404C63.7165 70.3733 64.7237 71.6494 66.1867 71.6644C67.6836 71.6794 68.6802 70.4548 68.7037 67.8876ZM80.456 61.6637L84.502 61.7023L68.0307 85.517L63.9848 85.4784L80.456 61.6637ZM76.3845 79.2609C76.4207 75.2203 78.893 72.6746 82.3257 72.7089C85.7924 72.741 88.2178 75.3318 88.1795 79.3724C88.1412 83.413 85.671 85.9588 82.2022 85.9245C78.7695 85.8923 76.3441 83.3015 76.3824 79.2609H76.3845ZM84.7469 79.3403C84.7703 76.8074 83.795 75.5313 82.3001 75.5163C80.8393 75.5034 79.8066 76.7259 79.7831 79.2931C79.7597 81.8603 80.7669 83.1042 82.2299 83.1171C83.7269 83.1321 84.7234 81.8732 84.7469 79.3403Z" fill="white"/>
<path d="M114.644 78.8427C114.656 78.8277 114.816 78.9435 115.108 79.1795C115.4 79.4154 115.825 79.7671 116.364 80.2325C116.903 80.6958 117.559 81.2727 118.298 81.9654C119.037 82.6582 119.861 83.471 120.713 84.4254C121.562 85.3819 122.452 86.4779 123.253 87.7647C123.353 87.9255 123.453 88.0885 123.555 88.2515C123.649 88.4188 123.745 88.5882 123.841 88.7598C124.037 89.0965 124.218 89.459 124.382 89.8322C124.705 90.5807 124.971 91.4064 124.997 92.305C125.01 92.7511 124.95 93.2143 124.801 93.6562C124.654 94.098 124.413 94.5183 124.1 94.8722C123.477 95.5864 122.603 96.0668 121.664 96.2748C120.721 96.4829 119.731 96.4228 118.788 96.2062C117.84 95.9896 116.929 95.6271 116.043 95.1896C114.271 94.3081 112.753 93.0792 111.462 91.7517C110.817 91.0868 110.227 90.3876 109.691 89.6777C109.156 88.9721 108.647 88.2708 108.166 87.5759C106.245 84.7921 104.759 82.107 103.822 79.7092C103.588 79.1108 103.383 78.536 103.209 77.9827C103.123 77.7061 103.042 77.4358 102.976 77.1677C102.913 76.8996 102.842 76.6466 102.823 76.3742C102.753 75.8423 102.887 75.3061 103.172 74.9351C103.456 74.5598 103.835 74.3453 104.184 74.2274C104.358 74.163 104.531 74.1373 104.691 74.1094C104.852 74.1008 105.006 74.0815 105.146 74.0987C105.43 74.1094 105.659 74.1823 105.838 74.2509C106.013 74.3324 106.141 74.4075 106.209 74.4804C106.281 74.5469 106.315 74.5834 106.309 74.5898C106.303 74.5962 106.256 74.5748 106.177 74.5255C106.1 74.4719 105.97 74.4161 105.802 74.356C105.628 74.3089 105.408 74.2552 105.142 74.2638C105.01 74.2552 104.869 74.2831 104.718 74.2981C104.571 74.3324 104.414 74.3646 104.256 74.4311C103.943 74.5533 103.615 74.7614 103.387 75.0917C103.155 75.4177 103.057 75.8638 103.132 76.3356C103.153 76.5694 103.23 76.8246 103.298 77.0798C103.368 77.3372 103.456 77.5988 103.545 77.869C103.73 78.4074 103.943 78.9736 104.186 79.5591C105.153 81.8968 106.658 84.5369 108.583 87.2778C109.067 87.9641 109.576 88.6547 110.11 89.3517C110.64 90.0445 111.217 90.7222 111.85 91.3678C113.113 92.6546 114.586 93.8406 116.29 94.6878C117.139 95.1081 118.019 95.4556 118.909 95.6614C119.797 95.8673 120.704 95.9188 121.549 95.7365C122.386 95.5542 123.166 95.1274 123.704 94.514C124.254 93.9071 124.505 93.105 124.488 92.3114C124.473 91.5157 124.239 90.7394 123.936 90.0252C123.783 89.667 123.617 89.3196 123.428 88.9871C123.336 88.8199 123.244 88.6526 123.155 88.4874C123.057 88.3266 122.961 88.1657 122.865 88.007C122.099 86.7395 121.241 85.6457 120.421 84.6849C119.597 83.7241 118.798 82.9005 118.085 82.1885C117.371 81.4764 116.739 80.8802 116.224 80.3912C115.71 79.9022 115.312 79.5226 115.038 79.261C114.769 78.9993 114.635 78.8556 114.648 78.8406L114.644 78.8427Z" fill="#263238"/>
<path d="M92.461 45.5528C92.4312 45.5571 91.8328 41.3599 91.1279 36.1805C90.421 30.9989 89.8737 26.7953 89.9035 26.791C89.9333 26.7867 90.5317 30.9839 91.2365 36.1655C91.9435 41.3449 92.4908 45.5507 92.461 45.555V45.5528Z" fill="#263238"/>
<path d="M110.018 22.598C110.018 22.598 110.013 22.6216 109.998 22.6623C109.981 22.7095 109.958 22.7717 109.93 22.8489C109.864 23.0184 109.773 23.2586 109.656 23.5631C109.413 24.1894 109.068 25.0816 108.64 26.1839C107.786 28.3973 106.621 31.462 105.384 34.8635C104.147 38.2671 103.069 41.3641 102.303 43.6096C101.921 44.727 101.613 45.6342 101.398 46.269C101.291 46.5778 101.208 46.8202 101.148 46.9918C101.121 47.069 101.097 47.1312 101.08 47.1783C101.065 47.2212 101.055 47.2405 101.055 47.2405C101.055 47.2405 101.059 47.217 101.07 47.1741C101.085 47.1247 101.104 47.0625 101.127 46.9832C101.182 46.8095 101.259 46.565 101.357 46.254C101.557 45.6213 101.855 44.7077 102.23 43.5817C102.978 41.3298 104.044 38.2285 105.282 34.8228C106.521 31.4191 107.696 28.3586 108.569 26.1518C109.006 25.0494 109.364 24.1572 109.617 23.5438C109.743 23.2435 109.841 23.0055 109.911 22.8382C109.943 22.7631 109.971 22.7031 109.99 22.6559C110.009 22.6152 110.018 22.5937 110.02 22.5958L110.018 22.598Z" fill="#263238"/>
<path d="M122.6 39.1037C122.619 39.1273 119.57 41.5315 115.792 44.474C112.012 47.4165 108.935 49.78 108.916 49.7564C108.897 49.7328 111.944 47.3286 115.724 44.3861C119.502 41.4457 122.581 39.0801 122.6 39.1037Z" fill="#263238"/>
<path d="M85.0677 46.3353C85.0442 46.3546 83.8645 44.8405 82.4357 42.9574C81.0068 41.0723 79.8676 39.5302 79.891 39.5109C79.9144 39.4916 81.0941 41.0058 82.523 42.891C83.9518 44.7762 85.0911 46.3182 85.0677 46.3375V46.3353Z" fill="#263238"/>
<path d="M121.159 58.1572C121.15 58.1873 119.283 57.6639 116.987 56.9905C114.692 56.3171 112.839 55.7466 112.848 55.7166C112.856 55.6865 114.724 56.2098 117.019 56.8833C119.315 57.5567 121.167 58.1272 121.159 58.1572Z" fill="#263238"/>
<path d="M26.9783 92.1504C26.9783 92.1504 18.0858 94.6297 17.7281 94.7562C17.1914 94.9471 17.283 96.9223 18.1156 96.8923C18.5096 96.8773 24.9469 97.1347 25.7582 97.0832C26.5716 97.0317 28.7607 96.161 28.7607 96.161L26.9762 92.1525L26.9783 92.1504Z" fill="#243976"/>
<path d="M23.2734 95.5692C23.2287 95.5756 23.1691 95.1017 22.8816 94.6084C22.6026 94.1108 22.2257 93.8191 22.2534 93.7848C22.2683 93.7505 22.7112 94.0036 23.0115 94.5355C23.316 95.0631 23.3117 95.5756 23.2734 95.5713V95.5692Z" fill="#263238"/>
<path d="M24.2001 95.1445C24.1575 95.1531 24.066 94.7285 23.8296 94.2609C23.5975 93.7912 23.3143 93.4652 23.3462 93.4352C23.3718 93.4052 23.7189 93.699 23.9638 94.1944C24.2129 94.6877 24.2385 95.1424 24.2023 95.1445H24.2001Z" fill="#263238"/>
<path d="M25.0712 94.9108C25.0265 94.9086 25.0606 94.4604 24.8625 93.965C24.673 93.4652 24.3472 93.1607 24.3791 93.1264C24.3962 93.0921 24.7965 93.3687 25.0031 93.9092C25.216 94.4475 25.1074 94.9236 25.0733 94.9108H25.0712Z" fill="#263238"/>
<path d="M24.9122 93.7524C24.8973 93.7567 24.8185 93.5058 24.8164 93.0854C24.8164 92.8753 24.842 92.6265 24.9058 92.3541C24.9378 92.219 24.9825 92.0796 25.0379 91.938C25.0677 91.8673 25.0996 91.7858 25.1805 91.7193C25.2636 91.6442 25.4148 91.6592 25.4851 91.7343C25.566 91.8051 25.5915 91.9059 25.6043 91.9874C25.6128 92.0689 25.6171 92.1461 25.6149 92.2233C25.6128 92.3777 25.5937 92.5257 25.5596 92.6608C25.4936 92.9353 25.3871 93.1627 25.2849 93.345C25.0783 93.7074 24.8973 93.894 24.8845 93.8833C24.8633 93.8683 25.0123 93.6602 25.1912 93.2956C25.2785 93.1133 25.3701 92.8881 25.4254 92.6308C25.4531 92.5021 25.468 92.3648 25.468 92.2211C25.4638 92.0839 25.468 91.9123 25.3871 91.8458C25.3445 91.8115 25.3062 91.8072 25.27 91.8351C25.2316 91.8651 25.1976 91.9273 25.172 91.9916C25.1167 92.1246 25.0719 92.2576 25.0379 92.3863C24.9676 92.6436 24.9335 92.8838 24.9207 93.0854C24.8952 93.4908 24.9357 93.7439 24.9101 93.7482L24.9122 93.7524Z" fill="#263238"/>
<path d="M24.9239 93.6625C24.9196 93.6454 25.1347 93.5725 25.4967 93.5703C25.6777 93.5703 25.8949 93.5896 26.127 93.6475C26.242 93.6797 26.3655 93.7097 26.4912 93.7826C26.6125 93.8448 26.7403 94.0143 26.6913 94.1923C26.653 94.3596 26.5125 94.4754 26.3719 94.5118C26.2314 94.5526 26.093 94.5376 25.9737 94.5118C25.7288 94.4561 25.5393 94.3338 25.3966 94.2266C25.1113 94.0014 24.9729 93.8298 24.9835 93.817C24.9984 93.7976 25.1666 93.9456 25.4563 94.1408C25.6011 94.2352 25.7842 94.336 26.0014 94.3789C26.11 94.4003 26.225 94.4067 26.3315 94.3746C26.4358 94.3445 26.5231 94.2652 26.5487 94.1622C26.5742 94.0614 26.5146 93.9714 26.4166 93.9113C26.3208 93.8513 26.2037 93.817 26.0951 93.7848C25.8758 93.7204 25.6692 93.6926 25.4967 93.6797C25.1496 93.6561 24.9303 93.6904 24.926 93.6668L24.9239 93.6625Z" fill="#263238"/>
<path d="M21.906 95.6633C21.8613 95.659 21.906 95.2751 21.7314 94.8547C21.5653 94.4322 21.2672 94.1877 21.297 94.1534C21.3119 94.117 21.6824 94.3293 21.8698 94.799C22.0615 95.2665 21.9422 95.6783 21.9081 95.6633H21.906Z" fill="#263238"/>
<path d="M28.1104 96.0773C28.1104 96.0773 27.9911 96.1438 27.7654 96.2403C27.5376 96.3282 27.2032 96.4483 26.7752 96.5491C25.9256 96.7657 24.7118 96.888 23.3809 96.873C22.0479 96.858 20.8469 96.7979 19.9759 96.7615C19.5628 96.74 19.2178 96.7207 18.9453 96.7057C18.7025 96.6885 18.5684 96.6757 18.5684 96.6649C18.5684 96.6542 18.7046 96.6478 18.9474 96.6478C19.22 96.6478 19.5671 96.6521 19.9802 96.6542C20.8809 96.6714 22.0692 96.695 23.383 96.7207C24.7097 96.7357 25.9064 96.6306 26.7539 96.444C27.6036 96.2682 28.0997 96.0473 28.1104 96.0752V96.0773Z" fill="#263238"/>
<path d="M28.3757 96.2812C28.3629 96.3026 28.1202 96.1589 27.7092 95.9766C27.3025 95.8007 26.6956 95.5906 26.0269 95.6957C25.3562 95.7986 24.8813 96.2533 24.5725 96.5664C24.2616 96.8924 24.0785 97.109 24.0593 97.094C24.0466 97.0833 24.1978 96.8452 24.4937 96.4956C24.6428 96.3219 24.8345 96.1224 25.0836 95.9401C25.3306 95.7579 25.6479 95.6034 26.0014 95.5477C26.719 95.4361 27.3493 95.6785 27.7518 95.8822C28.1606 96.0924 28.3821 96.2683 28.3736 96.2833L28.3757 96.2812Z" fill="#263238"/>
<path d="M19.4525 96.6691C19.4354 96.6584 19.5121 96.5404 19.5824 96.3303C19.6526 96.1222 19.708 95.8155 19.6484 95.4895C19.5887 95.1614 19.429 94.8954 19.2885 94.726C19.1479 94.5566 19.0351 94.4729 19.0479 94.4558C19.0543 94.4429 19.1884 94.503 19.3524 94.6681C19.5163 94.829 19.7016 95.1121 19.7676 95.4659C19.8336 95.822 19.7591 96.1522 19.6633 96.3603C19.5674 96.5726 19.4652 96.6755 19.4546 96.667L19.4525 96.6691Z" fill="#263238"/>
<path d="M36.2551 92.4165C36.2551 92.4165 45.3776 93.8127 45.746 93.8963C46.2997 94.0207 46.4445 95.9939 45.614 96.0625C45.2201 96.0947 38.8616 97.1198 38.0481 97.167C37.2347 97.2142 34.6836 96.5407 34.6836 96.5407L36.2573 92.4165H36.2551Z" fill="#243976"/>
<path d="M40.3374 95.3655C40.3822 95.3655 40.3864 94.8894 40.6121 94.3639C40.8315 93.8364 41.1701 93.5018 41.1381 93.4696C41.1189 93.4374 40.7101 93.7398 40.4737 94.3039C40.2331 94.8658 40.2991 95.372 40.3353 95.3634L40.3374 95.3655Z" fill="#263238"/>
<path d="M39.3656 95.0567C39.4104 95.0588 39.4487 94.6277 39.6297 94.1344C39.8043 93.639 40.0492 93.283 40.013 93.2573C39.9853 93.2315 39.6744 93.5639 39.4891 94.0851C39.2996 94.6041 39.3273 95.0609 39.3656 95.0588V95.0567Z" fill="#263238"/>
<path d="M38.4749 94.9282C38.5196 94.9196 38.4323 94.4799 38.5707 93.963C38.6985 93.444 38.9881 93.103 38.9519 93.073C38.9306 93.0408 38.5664 93.3647 38.4259 93.9244C38.279 94.4842 38.4408 94.9432 38.4749 94.926V94.9282Z" fill="#263238"/>
<path d="M38.4961 93.7613C38.5131 93.7613 38.56 93.5061 38.5131 93.0878C38.4876 92.8798 38.4344 92.6332 38.3385 92.3737C38.2895 92.2428 38.2299 92.1099 38.1575 91.9769C38.1213 91.9104 38.0787 91.8332 37.9893 91.7753C37.8977 91.7109 37.7508 91.7431 37.6869 91.8268C37.6145 91.9083 37.6017 92.0112 37.5996 92.0927C37.5996 92.1763 37.606 92.2514 37.6166 92.3286C37.6379 92.4809 37.6741 92.6267 37.7231 92.7576C37.8211 93.0214 37.9531 93.2358 38.0766 93.4052C38.3257 93.742 38.5259 93.905 38.5366 93.8921C38.5557 93.8749 38.3832 93.6862 38.1639 93.3452C38.0553 93.1736 37.9382 92.9634 37.853 92.7125C37.8104 92.5881 37.7785 92.453 37.7614 92.3115C37.7487 92.1742 37.7274 92.0048 37.7976 91.9276C37.836 91.8868 37.8722 91.8804 37.9126 91.904C37.9552 91.9297 37.9957 91.9855 38.0276 92.0477C38.0979 92.1742 38.1575 92.3007 38.2086 92.423C38.3087 92.6696 38.3705 92.9034 38.4088 93.1028C38.4833 93.5018 38.4727 93.7591 38.4961 93.7591V93.7613Z" fill="#263238"/>
<path d="M38.4743 93.6711C38.4764 93.6539 38.2549 93.6067 37.8929 93.6475C37.7141 93.6689 37.5011 93.714 37.2754 93.7998C37.1647 93.8448 37.0454 93.8898 36.9304 93.9778C36.8176 94.055 36.7111 94.2394 36.7792 94.4089C36.8367 94.5697 36.9922 94.6684 37.1348 94.6877C37.2796 94.7113 37.4138 94.6791 37.5309 94.6383C37.7673 94.5526 37.9398 94.411 38.0697 94.2845C38.3252 94.0271 38.4445 93.8384 38.4317 93.8276C38.4146 93.8105 38.2634 93.9778 37.9994 94.2051C37.8652 94.3166 37.697 94.4389 37.4862 94.5075C37.3819 94.5418 37.2669 94.5611 37.1583 94.5418C37.0518 94.5247 36.956 94.456 36.9176 94.3574C36.8814 94.2609 36.9304 94.1622 37.0199 94.0936C37.1072 94.0228 37.22 93.9756 37.3244 93.9284C37.5352 93.8384 37.7353 93.7848 37.9078 93.7526C38.2507 93.6861 38.4721 93.6968 38.4721 93.6711H38.4743Z" fill="#263238"/>
<path d="M41.7045 95.2968C41.7471 95.2861 41.6598 94.9108 41.7833 94.4732C41.8983 94.0336 42.1644 93.7569 42.1325 93.7247C42.1133 93.6904 41.7705 93.9456 41.6385 94.4325C41.5022 94.9193 41.6704 95.3161 41.7024 95.2947L41.7045 95.2968Z" fill="#263238"/>
<path d="M35.592 96.4509C35.592 96.4509 35.7176 96.5023 35.9518 96.571C36.1882 96.6289 36.5353 96.7104 36.9718 96.7597C37.8407 96.8712 39.0608 96.8476 40.3811 96.6739C41.7035 96.5002 42.8874 96.2943 43.7477 96.1571C44.1545 96.0863 44.4952 96.0262 44.7635 95.979C45.002 95.934 45.134 95.904 45.134 95.8933C45.134 95.8825 44.9977 95.8933 44.755 95.9211C44.4845 95.9554 44.1417 96.0005 43.7307 96.052C42.8385 96.1763 41.6609 96.3436 40.3598 96.5259C39.0438 96.6997 37.8428 96.7383 36.9804 96.6546C36.1158 96.5817 35.5962 96.423 35.5898 96.4509H35.592Z" fill="#263238"/>
<path d="M35.3541 96.6844C35.369 96.7037 35.5926 96.5322 35.9802 96.3027C36.3635 96.0796 36.9427 95.7987 37.6177 95.8223C38.2949 95.8437 38.8208 96.2384 39.1637 96.5129C39.5108 96.7981 39.7194 96.9933 39.7344 96.974C39.7471 96.9611 39.5683 96.7424 39.2318 96.4314C39.0615 96.277 38.8506 96.1011 38.5802 95.951C38.314 95.7987 37.9818 95.6829 37.622 95.6721C36.8979 95.6486 36.2974 95.9638 35.9227 96.2126C35.5415 96.47 35.3413 96.6716 35.352 96.6844H35.3541Z" fill="#263238"/>
<path d="M64.6273 54.6678C64.5527 54.4898 64.3611 54.404 64.3611 54.404L64.5783 53.9665C64.5783 53.9665 64.557 53.7113 64.4527 53.5247C64.3483 53.3402 63.9735 53.3553 63.9735 53.3553L64.0289 53.233C64.1098 53.0571 64.0928 52.8513 63.9821 52.6925C63.965 52.669 63.948 52.6454 63.9267 52.6196C63.7755 52.433 63.4539 52.3773 63.4539 52.3773C63.4539 52.3773 63.6669 51.9655 63.5711 51.7939C63.4454 51.5666 62.9961 51.3221 62.6639 51.4336C62.3041 51.5559 61.5396 51.929 61.0136 52.2271C60.8049 52.3451 60.543 52.2464 60.46 52.0234C60.3002 51.5945 60.0213 50.9425 59.6529 50.4964C59.2526 50.0117 58.8756 50.0503 58.6584 50.1339C58.5541 50.1747 58.5094 50.3012 58.569 50.3977C58.7351 50.6744 59.0609 51.2277 59.1482 51.4615C59.2526 51.7403 59.3675 53.855 59.3675 53.855L58.7926 54.9573L52.9835 64.1945C52.9835 64.1945 44.2208 58.2452 44.2549 58.0972L43.8418 64.9173L50.4473 69.3354C51.5951 70.1032 53.0218 70.3177 54.3421 69.923C55.6559 69.5306 56.7313 68.574 57.2786 67.3108L61.7227 57.5975L62.2615 56.8039L64.3547 55.4528C64.3547 55.4528 64.6954 54.848 64.623 54.67L64.6273 54.6678Z" fill="#FFBE9D"/>
<path d="M63.6646 52.3924C63.6646 52.3924 63.6518 52.4074 63.622 52.431C63.5879 52.4589 63.5475 52.4911 63.4964 52.5318C63.3792 52.624 63.2217 52.7463 63.0279 52.8986C62.8277 53.053 62.5914 53.2353 62.3294 53.4369C62.1953 53.5355 62.0654 53.6492 61.9078 53.7457C61.7545 53.8401 61.5437 53.9023 61.352 53.8186C61.2583 53.7757 61.1859 53.6942 61.1455 53.6063C61.105 53.5162 61.0922 53.4176 61.0965 53.3232C61.1071 53.1302 61.2093 52.9693 61.3179 52.8428C61.4308 52.7163 61.5543 52.6155 61.6672 52.5211C61.78 52.4267 61.8844 52.3388 61.9823 52.2573C62.1719 52.1007 62.3273 51.972 62.4402 51.8798C62.4913 51.8391 62.5339 51.8048 62.5658 51.779C62.5956 51.7554 62.6105 51.7447 62.6126 51.7469C62.6126 51.7469 62.5999 51.7619 62.5722 51.7876C62.5402 51.8155 62.4998 51.8519 62.4529 51.897C62.3422 51.9935 62.191 52.1265 62.0058 52.2895C61.9099 52.371 61.8056 52.461 61.6949 52.5575C61.5841 52.6541 61.4606 52.7549 61.3541 52.8771C61.2498 52.9993 61.1561 53.1516 61.1476 53.3275C61.1348 53.4969 61.2051 53.6964 61.3712 53.7714C61.4521 53.8079 61.5458 53.8143 61.6331 53.7972C61.7204 53.7822 61.8035 53.7457 61.878 53.7007C62.0292 53.6084 62.1633 53.4948 62.2975 53.3983C62.5615 53.201 62.8 53.0208 63.0023 52.8707C63.2004 52.7248 63.3622 52.6069 63.4815 52.5189C63.5347 52.4803 63.5773 52.4503 63.6135 52.4246C63.6433 52.4031 63.6603 52.3924 63.6625 52.3945L63.6646 52.3924Z" fill="#EB996E"/>
<path d="M64.1282 53.3831C64.1282 53.3831 64.0963 53.4153 64.0324 53.4646C63.9685 53.514 63.8727 53.5826 63.7535 53.6663C63.515 53.8335 63.1806 54.0544 62.7995 54.2818C62.7036 54.3375 62.6121 54.3954 62.5141 54.4383C62.4162 54.4812 62.3118 54.507 62.2096 54.4962C62.0052 54.4727 61.8604 54.3225 61.8157 54.1767C61.7709 54.0287 61.8071 53.9022 61.8433 53.8292C61.8625 53.7928 61.8817 53.7671 61.8966 53.7499C61.9115 53.7349 61.92 53.7263 61.9221 53.7284C61.9264 53.7306 61.8945 53.7649 61.8646 53.8378C61.8348 53.9107 61.8093 54.0308 61.854 54.1638C61.8987 54.2946 62.035 54.4276 62.2181 54.4469C62.3076 54.4555 62.4034 54.4319 62.4971 54.389C62.5908 54.3483 62.6802 54.2904 62.776 54.2346C63.1551 54.0094 63.4937 53.7928 63.7343 53.6341C63.8493 53.559 63.9451 53.4968 64.0218 53.4453C64.0899 53.4003 64.1282 53.3789 64.1304 53.381L64.1282 53.3831Z" fill="#EB996E"/>
<path d="M64.402 54.3527C64.402 54.3527 64.3679 54.3763 64.3019 54.4127C64.2253 54.4513 64.1294 54.5006 64.0187 54.5564C63.7781 54.6765 63.4459 54.8374 63.0754 55.0132C62.9838 55.0561 62.8944 55.1033 62.7985 55.1333C62.7048 55.1655 62.6048 55.1784 62.5111 55.1569C62.4195 55.1376 62.3364 55.0797 62.2981 55.0025C62.2577 54.9253 62.2534 54.8438 62.2662 54.7752C62.2917 54.6336 62.379 54.5478 62.4323 54.4985C62.4898 54.4492 62.5281 54.4299 62.5302 54.432C62.5324 54.4363 62.4983 54.4599 62.4472 54.5135C62.3982 54.565 62.3215 54.6529 62.3024 54.7795C62.2939 54.8417 62.3024 54.9167 62.3364 54.9789C62.3705 55.0433 62.4408 55.0904 62.5217 55.1055C62.6026 55.1226 62.6942 55.1119 62.7815 55.0797C62.8709 55.0497 62.9582 55.0025 63.0519 54.9596C63.4225 54.7837 63.7568 54.6293 64.0017 54.5178C64.1167 54.4663 64.2125 54.4234 64.2913 54.3891C64.3594 54.3591 64.3999 54.3462 64.3999 54.3484L64.402 54.3527Z" fill="#EB996E"/>
<path d="M64.5518 55.2512C64.5518 55.2512 64.4261 55.292 64.2196 55.3392C64.013 55.3864 63.7255 55.4485 63.4083 55.5129C63.3295 55.5279 63.2507 55.5451 63.1761 55.5601C63.1016 55.5751 63.0271 55.5901 62.9526 55.588C62.878 55.5858 62.8056 55.5622 62.7545 55.5172C62.7013 55.4721 62.6757 55.4057 62.6779 55.3477C62.6864 55.2298 62.7588 55.159 62.8056 55.1226C62.8567 55.0861 62.8908 55.0818 62.8908 55.0839C62.8908 55.0882 62.861 55.1011 62.8184 55.1397C62.7779 55.1762 62.7183 55.2491 62.7162 55.3477C62.7162 55.3971 62.7375 55.4485 62.7822 55.4829C62.8269 55.5193 62.8887 55.5386 62.9547 55.5386C63.0207 55.5386 63.091 55.5258 63.1676 55.5086C63.2422 55.4936 63.321 55.4764 63.3997 55.4614C63.717 55.3971 64.0045 55.3413 64.2132 55.3027C64.4219 55.2641 64.5518 55.2448 64.5539 55.2534L64.5518 55.2512Z" fill="#EB996E"/>
<path d="M62.2799 54.8243C62.2756 54.8415 62.0158 54.7471 61.6836 54.7643C61.3515 54.7771 61.1023 54.8972 61.0959 54.8801C61.0874 54.8694 61.3365 54.7257 61.6815 54.7107C62.0265 54.6935 62.2863 54.8136 62.2799 54.8243Z" fill="#EB996E"/>
<path d="M30.9895 52.8017C30.9895 52.8017 28.0424 50.2967 28.7259 48.5724C29.4095 46.8481 31.3004 45.9923 32.2288 42.8568C32.972 40.3518 37.3991 35.5262 42.6461 39.1529C42.6461 39.1529 44.422 38.8698 45.4314 39.6848C46.4407 40.4998 46.6835 42.1254 47.1136 44.002C47.7738 46.8952 48.1358 49.1193 46.8581 50.5326C45.5783 51.946 45.112 52.3299 45.1801 53.9384C45.2695 56.0381 46.1895 55.7571 45.3952 57.2884L40.9936 55.8429L40.9489 54.6226L40.5038 55.77L37.9443 54.8435L30.9895 52.7996V52.8017Z" fill="#263238"/>
<path d="M45.6427 42.2437C45.3574 42.9064 45.5916 43.6699 45.862 44.3369C46.1346 45.0039 46.4476 45.7116 46.3114 46.4194C46.0686 47.674 44.5205 48.3732 44.3501 49.6407C44.2586 50.3206 44.5972 51.0112 44.4651 51.6825C44.3395 52.3323 43.7986 52.8234 43.2258 53.1494C42.653 53.4776 42.0184 53.6942 41.4818 54.0759C41.4818 54.0759 40.2978 55.0539 38.2578 53.4411" fill="#263238"/>
<path d="M37.2872 40.6049C36.74 40.4762 36.1842 40.7914 36.0096 41.3298L31.7805 55.4633C31.2354 57.1169 33.2988 58.882 35.062 59.4567C36.84 60.0379 37.2021 59.1865 37.7664 57.6294C38.7118 55.0301 39.0504 54.0478 39.0461 54.0628C39.0461 54.0628 41.4056 54.4703 42.8813 51.6994C43.6138 50.3225 44.3676 47.9054 44.9191 45.9065C45.4153 44.1093 45.0043 41.5442 43.1986 41.1217L37.2851 40.6027L37.2872 40.6049Z" fill="#FFBE9D"/>
<path d="M43.4228 47.3885C43.3611 47.5901 43.1417 47.7037 42.9309 47.6415C42.7222 47.5815 42.6008 47.3692 42.6626 47.1676C42.7243 46.966 42.9437 46.8523 43.1524 46.9145C43.3611 46.9745 43.4824 47.1869 43.4207 47.3885H43.4228Z" fill="#263238"/>
<path d="M44.008 46.8761C43.9441 46.9082 43.7355 46.5994 43.333 46.46C42.9327 46.3141 42.5664 46.4192 42.5408 46.3549C42.5259 46.3249 42.6047 46.2541 42.7666 46.2048C42.9263 46.1554 43.1733 46.1404 43.4224 46.2284C43.6716 46.3163 43.8505 46.4836 43.9399 46.6208C44.0315 46.7602 44.0421 46.8632 44.0123 46.8761H44.008Z" fill="#263238"/>
<path d="M39.4384 46.1082C39.3767 46.3098 39.1573 46.4235 38.9465 46.3613C38.7378 46.3012 38.6165 46.0889 38.6782 45.8873C38.74 45.6857 38.9593 45.572 39.168 45.6342C39.3767 45.6943 39.4981 45.9066 39.4363 46.1082H39.4384Z" fill="#263238"/>
<path d="M39.9979 45.6641C39.934 45.6963 39.7232 45.3875 39.3228 45.2481C38.9225 45.1022 38.5562 45.2073 38.5307 45.143C38.5179 45.113 38.5946 45.0422 38.7564 44.9929C38.9161 44.9435 39.1631 44.9285 39.4123 45.0164C39.6614 45.1065 39.8403 45.2717 39.9297 45.4089C40.0191 45.5483 40.0319 45.6513 40.0021 45.6641H39.9979Z" fill="#263238"/>
<path d="M40.4202 49.177C40.4266 49.1534 40.6907 49.1963 41.1144 49.2864C41.2209 49.3121 41.3252 49.325 41.3657 49.2607C41.4147 49.1942 41.4104 49.0676 41.4019 48.9304C41.3912 48.6473 41.3806 48.3492 41.3699 48.0382C41.3359 46.7707 41.3487 45.7412 41.3998 45.7412C41.4509 45.7412 41.519 46.7664 41.5552 48.036C41.5616 48.347 41.568 48.6451 41.5722 48.9304C41.5722 49.0612 41.5914 49.2178 41.4849 49.355C41.4317 49.4215 41.3359 49.4515 41.2635 49.4472C41.1911 49.4451 41.1336 49.4258 41.0803 49.4108C40.6651 49.2907 40.4117 49.2027 40.4181 49.1792L40.4202 49.177Z" fill="#263238"/>
<path d="M39.0468 54.0627C39.0468 54.0627 37.043 53.5051 35.5098 51.6499C35.5098 51.6499 35.7972 54.0112 38.8061 54.7576L39.0468 54.0627Z" fill="#EB996E"/>
<path d="M39.9154 50.093C39.8366 49.8507 39.6215 49.6555 39.3596 49.5955C39.1786 49.5526 38.9741 49.5762 38.8187 49.6813C38.6633 49.7864 38.5717 49.9815 38.6207 50.1531C38.676 50.344 38.8911 50.4598 39.1019 50.4727C39.3127 50.4855 39.5214 50.4147 39.7216 50.344C39.7769 50.3247 39.8344 50.3032 39.877 50.2646C39.9196 50.226 39.9473 50.166 39.9281 50.1145" fill="#EB996E"/>
<path d="M40.2979 44.5058C40.2341 44.6131 39.8273 44.4779 39.3269 44.4436C38.8265 44.3986 38.4027 44.4672 38.358 44.3514C38.3389 44.2956 38.4283 44.2013 38.6093 44.1219C38.7882 44.0426 39.0607 43.9847 39.361 44.0082C39.6612 44.0318 39.921 44.1305 40.0871 44.2377C40.2532 44.345 40.3277 44.4522 40.2979 44.5037V44.5058Z" fill="#263238"/>
<path d="M44.5874 45.5333C44.4746 45.602 44.1637 45.4089 43.7569 45.2888C43.3545 45.1559 42.9882 45.1387 42.935 45.0186C42.9137 44.9607 42.9946 44.8835 43.1692 44.8363C43.3417 44.7891 43.61 44.7891 43.889 44.8749C44.1658 44.9607 44.3851 45.1151 44.5001 45.2524C44.6172 45.3896 44.6364 45.499 44.5853 45.5333H44.5874Z" fill="#263238"/>
<path d="M32.3654 49.8786C33.1576 47.2042 33.9518 44.5298 34.744 41.8553C34.9058 41.3063 35.0954 40.7208 35.5468 40.3755C35.9748 40.0495 36.5498 40.0109 37.0864 40.0002C39.4011 39.953 41.7243 40.1825 43.9858 40.6865C44.0944 41.2312 43.6259 41.7481 43.1042 41.924C42.5825 42.0998 42.0139 42.0376 41.4624 42.0441C40.9109 42.0505 40.3125 42.1492 39.9377 42.5588C39.5416 42.9942 39.5012 43.6655 39.1264 44.1201C38.4812 44.9008 37.1311 44.7357 36.4901 45.5228C36.0046 46.1168 36.1367 46.9854 35.9769 47.7361C35.8563 48.3037 35.5752 49.005 35.1337 49.84C34.727 50.61 35.7491 52.077 34.7312 53.9793L32.7551 53.4131L33.6218 50.4749L32.4463 53.2308L32.3633 49.8786H32.3654Z" fill="#263238"/>
<path d="M39.2264 49.1281C39.269 49.1517 39.2477 49.259 39.2435 49.4134C39.2392 49.5656 39.2605 49.7737 39.3585 49.9646C39.4585 50.1554 39.6161 50.2906 39.7418 50.3742C39.8695 50.46 39.9675 50.5029 39.9654 50.5522C39.9654 50.5951 39.844 50.6401 39.6523 50.5951C39.4649 50.5522 39.2094 50.4021 39.0625 50.1211C38.9177 49.8402 38.939 49.5421 39.0114 49.364C39.0838 49.1796 39.1881 49.1067 39.2243 49.1303L39.2264 49.1281Z" fill="#263238"/>
<path d="M38.641 42.6807C38.641 42.6807 38.6048 42.7064 38.5303 42.7429C38.4558 42.7772 38.3493 42.8372 38.2173 42.9166C37.9532 43.0796 37.587 43.3541 37.242 43.7938C36.9013 44.2292 36.5776 44.8361 36.4733 45.5653C36.4179 45.9299 36.4349 46.3159 36.4818 46.717C36.5244 47.1181 36.5883 47.5384 36.5563 47.9781C36.5414 48.1968 36.4967 48.4135 36.42 48.6151C36.3434 48.8167 36.239 48.999 36.1368 49.1727C35.9281 49.5201 35.7386 49.8568 35.6918 50.2214C35.6364 50.5817 35.6747 50.9356 35.7173 51.2616C35.762 51.5876 35.8195 51.8921 35.8429 52.1774C35.8919 52.7436 35.8004 53.2154 35.647 53.4964C35.5746 53.6401 35.4916 53.7323 35.4362 53.7945C35.3745 53.8524 35.3425 53.8803 35.3404 53.876C35.3298 53.8674 35.4746 53.758 35.6087 53.4749C35.745 53.1961 35.8238 52.7372 35.7642 52.1817C35.7365 51.905 35.6747 51.6005 35.6257 51.2723C35.5768 50.9442 35.5342 50.5839 35.5895 50.2043C35.6726 49.415 36.4285 48.836 36.4456 47.9674C36.4754 47.5449 36.4136 47.1288 36.3732 46.7256C36.3285 46.3224 36.3114 45.9213 36.3732 45.546C36.486 44.7954 36.8267 44.1777 37.1802 43.7402C37.5401 43.2984 37.9213 43.0281 38.1938 42.8737C38.3323 42.7965 38.443 42.745 38.5197 42.715C38.5963 42.6828 38.6368 42.67 38.6389 42.6721L38.641 42.6807Z" fill="#263238"/>
<path d="M48.1818 54.7405C48.1818 54.7405 48.1711 54.7512 48.1456 54.7705C48.12 54.7876 48.0859 54.8177 48.0327 54.8477C47.9305 54.9099 47.7708 54.9893 47.5493 55.0472C47.3279 55.1051 47.0446 55.1308 46.7231 55.0772C46.4037 55.0236 46.0417 54.8756 45.7436 54.586C45.4476 54.2987 45.2176 53.8783 45.1558 53.3915C45.1239 53.1491 45.1345 52.8917 45.2048 52.6387C45.2751 52.3877 45.3965 52.1432 45.5562 51.9223C45.8734 51.4762 46.3164 51.1138 46.7337 50.7127C46.9403 50.5111 47.1447 50.2967 47.313 50.0543C47.4812 49.812 47.6132 49.5374 47.709 49.2479C47.9007 48.6667 47.9475 48.0576 47.9326 47.4785C47.9177 46.8973 47.8453 46.3375 47.7601 45.8078C47.5876 44.7505 47.3215 43.8175 47.051 43.054C46.7806 42.2884 46.5038 41.6943 46.3036 41.2868C46.2035 41.083 46.1226 40.9265 46.0672 40.8214C46.0119 40.7142 45.9863 40.6584 45.9884 40.6562C45.9927 40.6562 46.0246 40.7077 46.0864 40.8107C46.1481 40.9136 46.2355 41.0659 46.3419 41.2675C46.5527 41.6707 46.8423 42.2626 47.1234 43.0283C47.4066 43.7918 47.6813 44.7269 47.8602 45.7928C47.9475 46.3247 48.0242 46.8866 48.0412 47.4764C48.0561 48.064 48.0114 48.6838 47.8134 49.2844C47.7133 49.5825 47.577 49.8656 47.4024 50.1186C47.2278 50.3717 47.0191 50.5883 46.8083 50.7921C46.3866 51.1974 45.948 51.5534 45.6392 51.9824C45.4838 52.1947 45.3688 52.4263 45.2985 52.6644C45.2304 52.9025 45.2197 53.1491 45.2474 53.3807C45.3006 53.8461 45.5178 54.2536 45.7968 54.5303C46.0779 54.8112 46.4228 54.9592 46.7316 55.0171C47.0425 55.075 47.3215 55.0557 47.5387 55.0064C47.9773 54.9035 48.1732 54.7276 48.1818 54.7448V54.7405Z" fill="#263238"/>
<path d="M30.0705 51.8323C30.062 51.813 30.3622 51.8023 30.754 51.4892C31.1395 51.1846 31.5654 50.5391 31.6612 49.6447C31.7165 49.2008 31.708 48.7096 31.6974 48.1799C31.691 47.6523 31.6803 47.0754 31.8273 46.4877C31.8975 46.1939 32.0083 45.9022 32.1701 45.6277C32.3341 45.3575 32.5577 45.1066 32.843 44.9328C33.4201 44.5768 34.1292 44.594 34.7574 44.3731C35.0747 44.2658 35.3472 44.0728 35.573 43.8369C35.7987 43.5988 35.9776 43.3243 36.15 43.0519C36.4908 42.5115 36.8166 41.9431 37.3361 41.6086C37.5895 41.4413 37.8791 41.3469 38.1602 41.3062C38.4413 41.2633 38.7182 41.2633 38.9822 41.2697C39.5082 41.2869 39.9958 41.3233 40.4366 41.259C41.3203 41.1367 41.9677 40.7678 42.3701 40.4804C42.5746 40.3368 42.7151 40.2038 42.8152 40.1159C42.8578 40.0751 42.894 40.0408 42.9238 40.0129C42.9493 39.9893 42.9621 39.9786 42.9643 39.9807C42.9643 39.9807 42.7982 40.2081 42.3978 40.5169C41.9996 40.8172 41.348 41.2032 40.4515 41.3383C40.0043 41.4112 39.5082 41.3769 38.9843 41.3641C38.469 41.3533 37.8834 41.3726 37.3958 41.6965C36.906 42.0139 36.5866 42.5672 36.2459 43.112C36.0734 43.3865 35.8924 43.6675 35.6581 43.9141C35.426 44.1607 35.1322 44.3688 34.8 44.4803C34.1441 44.7076 33.4457 44.6926 32.9069 45.0293C32.366 45.3596 32.0743 45.9537 31.9338 46.5156C31.7868 47.0861 31.7932 47.6545 31.7953 48.1821C31.8017 48.7096 31.806 49.2072 31.7442 49.6576C31.6356 50.567 31.1884 51.2232 30.786 51.5256C30.5837 51.6801 30.4006 51.7573 30.2728 51.7937C30.211 51.8152 30.1599 51.8195 30.1259 51.828C30.0918 51.8345 30.0747 51.8366 30.0747 51.8345L30.0705 51.8323Z" fill="#243976"/>
<path d="M32.2012 42.9488C32.2054 42.9359 32.3438 43.0217 32.6207 43.0625C32.8954 43.1054 33.3149 43.0818 33.7706 42.8716C34.2284 42.6657 34.6841 42.2625 35.1462 41.78C35.3804 41.5397 35.6232 41.2824 35.9021 41.04C36.179 40.7998 36.4941 40.5703 36.8625 40.4202C37.2288 40.2701 37.6163 40.2186 37.9847 40.2122C38.3531 40.2057 38.7045 40.2401 39.0388 40.2701C39.371 40.3023 39.6883 40.3344 39.9821 40.3387C40.276 40.343 40.5507 40.3194 40.7977 40.2722C41.2896 40.18 41.6601 39.9848 41.8667 39.7983C42.0775 39.6138 42.1584 39.4723 42.1691 39.4808C42.1733 39.4808 42.152 39.5173 42.1116 39.5795C42.0924 39.6117 42.0647 39.6503 42.0285 39.691C41.9945 39.7339 41.9519 39.7811 41.8965 39.8304C41.6921 40.032 41.3152 40.2465 40.8126 40.3494C40.5614 40.4031 40.2824 40.4309 39.9821 40.4309C39.6819 40.4309 39.3625 40.4009 39.0303 40.373C38.6981 40.3452 38.3489 40.313 37.989 40.3216C37.6291 40.3301 37.2565 40.3795 36.9072 40.5232C36.2024 40.817 35.6956 41.381 35.2228 41.8507C34.7544 42.3311 34.2838 42.7386 33.8068 42.9402C33.334 43.1483 32.8975 43.159 32.6185 43.1011C32.478 43.0753 32.3737 43.0303 32.3055 43.0024C32.2395 42.9681 32.2054 42.9488 32.2054 42.9445L32.2012 42.9488Z" fill="#243976"/>
<path d="M47.6095 48.9629C47.5946 48.9565 47.6883 48.8257 47.7139 48.5554C47.7458 48.2874 47.6649 47.8842 47.4094 47.4724C47.1623 47.0499 46.7045 46.6831 46.2403 46.2263C46.0103 45.9947 45.7803 45.7309 45.6206 45.4027C45.4609 45.0768 45.3821 44.7036 45.3566 44.324C45.3076 43.5626 45.4375 42.8506 45.4205 42.205C45.4162 41.5616 45.2607 40.9804 44.952 40.6051C44.6539 40.2233 44.2812 40.0431 44.0172 40.0003C43.751 39.9552 43.5998 40.0045 43.5977 39.9895C43.5977 39.9852 43.6339 39.9767 43.7041 39.9617C43.7765 39.9488 43.883 39.9402 44.0214 39.9574C44.2961 39.9874 44.6922 40.1654 45.0095 40.5557C45.3417 40.9396 45.5099 41.5487 45.5184 42.2029C45.5397 42.8613 45.4141 43.5733 45.463 44.3154C45.4886 44.6843 45.5631 45.0424 45.7143 45.3534C45.8634 45.6644 46.0848 45.9239 46.3084 46.1534C46.7599 46.6081 47.2241 46.9898 47.4711 47.4316C47.7245 47.8627 47.799 48.2852 47.7501 48.5619C47.7309 48.7013 47.6904 48.8042 47.6606 48.8686C47.6266 48.9329 47.6074 48.9651 47.6031 48.9651L47.6095 48.9629Z" fill="#243976"/>
<path d="M28.7643 50.2474C28.7643 50.2474 28.7153 50.226 28.628 50.1723C28.5429 50.1166 28.4215 50.0222 28.2958 49.8721C28.0446 49.5825 27.7763 49.0163 27.887 48.3065C27.9211 48.1327 27.9786 47.9547 28.068 47.7831C28.1638 47.6137 28.2916 47.4572 28.4428 47.3156C28.7494 47.0346 29.1434 46.8309 29.5501 46.6293C29.9547 46.4256 30.3891 46.2154 30.7341 45.8701C31.0812 45.5269 31.2749 45.0401 31.4048 44.5361C31.5347 44.0278 31.622 43.5131 31.7881 43.0369C31.95 42.5608 32.165 42.1233 32.4057 41.7308C32.8869 40.9437 33.4768 40.3432 34.0262 39.9185C34.5734 39.4918 35.0781 39.2344 35.4337 39.0864C35.6105 39.0071 35.7531 38.962 35.849 38.9298C35.9448 38.8977 35.9959 38.8827 35.998 38.8869C36.0023 38.8998 35.7979 38.9642 35.4508 39.1272C35.1037 39.288 34.6096 39.5518 34.073 39.9829C33.5385 40.4097 32.9614 41.0081 32.493 41.7866C32.2587 42.1748 32.0479 42.6059 31.8903 43.0734C31.7285 43.5409 31.6433 44.0492 31.5113 44.564C31.3814 45.0765 31.1791 45.587 30.8107 45.9473C30.4466 46.3097 30.0015 46.5199 29.5948 46.7215C29.186 46.921 28.8005 47.1183 28.5045 47.3842C28.3576 47.5193 28.2362 47.6673 28.1425 47.826C28.0552 47.9869 27.9977 48.1563 27.9637 48.3215C27.904 48.656 27.9381 48.9713 28.0148 49.2287C28.0935 49.4882 28.2107 49.6962 28.3299 49.8442C28.5684 50.1466 28.775 50.2324 28.7643 50.2474Z" fill="#263238"/>
<path d="M48.208 49.1621C48.208 49.1621 48.2995 49.0592 48.4337 48.8576C48.57 48.656 48.7275 48.3343 48.8106 47.9075C48.8936 47.4807 48.8936 46.9509 48.7574 46.3933C48.6232 45.8335 48.3421 45.2566 47.995 44.6883C47.6437 44.1199 47.2668 43.6052 46.9473 43.1162C46.6279 42.6294 46.3681 42.1683 46.1935 41.7608C46.0189 41.3533 45.9273 41.0037 45.8869 40.7592C45.8677 40.6369 45.8549 40.5426 45.8528 40.4761C45.8485 40.4118 45.8485 40.3774 45.8528 40.3774C45.8635 40.3774 45.8762 40.5126 45.9316 40.7506C45.9848 40.9887 46.087 41.3297 46.268 41.7286C46.449 42.1275 46.711 42.5779 47.0346 43.0583C47.3562 43.5409 47.7374 44.0534 48.093 44.6282C48.4443 45.2009 48.7275 45.7907 48.8617 46.3676C48.9959 46.9424 48.9873 47.4871 48.8915 47.9225C48.7957 48.36 48.6211 48.6838 48.472 48.8812C48.3954 48.9798 48.3336 49.0527 48.2846 49.0956C48.2378 49.1407 48.2122 49.1643 48.2101 49.16L48.208 49.1621Z" fill="#263238"/>
<path d="M26.0923 79.0591L24.344 82.1239C24.344 82.1239 15.6538 78.9219 10.5665 79.8548C8.63299 80.2087 6.56104 84.6289 9.38042 87.4685C12.1295 90.2373 17.0485 94.1535 26.2733 95.421C26.5033 95.4532 30.283 96.2703 30.0488 96.2424C29.8167 96.2146 35.3468 97.096 35.3468 97.096L36.6458 92.1504L46.9501 93.7782C53.0233 93.36 55.996 86.8208 52.3376 84.7147C48.9263 82.7502 42.5103 82.5936 42.5103 82.5936L40.1849 78.9219L26.0901 79.0591H26.0923Z" fill="#263238"/>
<path d="M35.5518 97.2741C35.5795 97.1068 35.6519 96.6564 35.8031 95.7321C35.884 95.2388 35.9862 94.6383 36.1161 93.9455C36.1821 93.6003 36.2545 93.2314 36.3418 92.8432C36.3865 92.6501 36.4334 92.4507 36.4887 92.2491C36.5185 92.1483 36.5484 92.0453 36.5846 91.9445C36.6229 91.8416 36.6548 91.7387 36.74 91.64L36.7549 91.7151C34.5616 90.9301 31.8189 89.8942 28.8973 88.6546C27.1 87.8846 25.405 87.1083 23.9144 86.2976C23.1712 85.8901 22.4706 85.4804 21.8701 85.0215C21.2632 84.5711 20.7245 84.1207 20.2177 83.7282C19.2147 82.9325 18.3054 82.4178 17.6261 82.1969C17.4601 82.1326 17.3046 82.0961 17.1726 82.0618C17.0406 82.0232 16.9256 82.0017 16.834 81.9889C16.7467 81.9717 16.6764 81.961 16.6232 81.9503C16.5763 81.9417 16.5508 81.9353 16.5508 81.9331C16.5508 81.9331 16.5763 81.9331 16.6232 81.9395C16.6764 81.946 16.7467 81.9567 16.8361 81.9674C16.9298 81.9781 17.0448 81.9953 17.179 82.0318C17.3131 82.0639 17.4707 82.0961 17.6389 82.1583C17.9839 82.2612 18.3864 82.4435 18.8314 82.6923C19.2765 82.9433 19.7556 83.2757 20.2645 83.666C20.7756 84.0564 21.3186 84.5024 21.9234 84.9485C22.5239 85.4032 23.2181 85.8064 23.9612 86.2096C25.4497 87.0117 27.1447 87.786 28.9399 88.5538C31.8593 89.7934 34.5978 90.8379 36.7847 91.6336L36.8465 91.655L36.8018 91.7086C36.7443 91.7751 36.7017 91.8823 36.6676 91.9789C36.6314 92.0775 36.6016 92.1783 36.5718 92.277C36.5143 92.4764 36.4674 92.6737 36.4206 92.8668C36.3312 93.2528 36.2545 93.6196 36.1864 93.9648C36.0501 94.6554 35.9415 95.2538 35.852 95.7449C35.7626 96.2318 35.6923 96.6135 35.6433 96.8816C35.6178 97.0125 35.5965 97.1111 35.5816 97.1776C35.5667 97.2441 35.5539 97.2763 35.5539 97.2763L35.5518 97.2741Z" fill="#243976"/>
<path d="M50.3387 85.3132C50.3387 85.3132 50.3195 85.3132 50.2833 85.3089C50.2407 85.3025 50.1875 85.2939 50.1236 85.2832C49.9831 85.2639 49.7786 85.2103 49.5082 85.1845C48.9737 85.1052 48.1879 85.0537 47.2233 85.103C46.2565 85.1502 45.1151 85.3368 43.8779 85.6585C43.2604 85.8258 42.6173 86.021 41.9593 86.2505C41.3013 86.4799 40.6305 86.7459 39.9427 87.0204C39.2549 87.3014 38.5607 87.518 37.8857 87.7046C37.2107 87.8912 36.5527 88.0391 35.9224 88.1614C34.6617 88.408 33.5161 88.5603 32.5514 88.6804C31.5889 88.7984 30.8074 88.8777 30.2687 88.9335C30.0046 88.9592 29.7981 88.9807 29.6469 88.9957C29.5809 89 29.5276 89.0064 29.4851 89.0085C29.4489 89.0107 29.4297 89.0107 29.4297 89.0085C29.4297 89.0085 29.4489 89.0021 29.4829 88.9957C29.5255 88.9892 29.5787 88.9807 29.6426 88.9721C29.7938 88.9528 30.0004 88.9249 30.2623 88.8906C30.8096 88.8219 31.5847 88.7233 32.5408 88.601C33.5012 88.4724 34.6447 88.3115 35.9011 88.0606C36.5292 87.9362 37.1851 87.7882 37.8559 87.5995C38.5267 87.4129 39.2166 87.1963 39.9001 86.9175C40.588 86.6429 41.2609 86.377 41.9231 86.1475C42.5832 85.918 43.2306 85.725 43.8524 85.5599C45.0981 85.2425 46.248 85.0623 47.2212 85.0237C48.1922 84.9829 48.9822 85.0473 49.5167 85.1417C49.7871 85.1738 49.9894 85.2339 50.13 85.2618C50.1939 85.2768 50.2471 85.2896 50.2876 85.2982C50.3238 85.3068 50.3408 85.3132 50.3408 85.3154L50.3387 85.3132Z" fill="#243976"/>
<path d="M34.4634 83.5328C34.4698 83.6058 34.0013 83.7237 33.2304 83.7966C32.4596 83.8696 31.3842 83.8846 30.2066 83.758C29.029 83.6294 27.9792 83.387 27.2424 83.1511C26.5035 82.9152 26.0713 82.7007 26.0925 82.6299C26.1415 82.4734 27.9665 82.9623 30.2641 83.2026C32.5597 83.4578 34.4485 83.3698 34.4613 83.5328H34.4634Z" fill="#263238"/>
<path d="M42.6084 82.6644C42.6084 82.6644 42.4892 82.7052 42.2677 82.7566C42.157 82.7802 42.0228 82.8145 41.8695 82.8617C41.7162 82.9046 41.5394 82.9539 41.3499 83.0226C40.9645 83.1427 40.5216 83.3314 40.0339 83.548C39.5527 83.7775 39.0331 84.052 38.505 84.3716C37.4509 85.0128 36.5565 85.6906 35.9262 86.1989C35.6111 86.4519 35.3577 86.6621 35.1852 86.808C35.0106 86.9538 34.9126 87.031 34.9084 87.0267C34.9041 87.0203 34.9914 86.9323 35.1575 86.7758C35.3215 86.6192 35.5685 86.4005 35.8772 86.1367C36.4969 85.6112 37.387 84.9206 38.4496 84.2751C38.982 83.9555 39.5058 83.681 39.9935 83.4537C40.4854 83.2392 40.9368 83.0569 41.3286 82.9454C41.5224 82.881 41.7013 82.8381 41.8567 82.7995C42.0122 82.7588 42.1485 82.7287 42.2613 82.7137C42.4849 82.6751 42.6084 82.658 42.6105 82.6644H42.6084Z" fill="#243976"/>
<path d="M32.9492 87.0246C32.9449 87.0375 32.7064 86.986 32.3381 86.8487C31.9697 86.7136 31.4756 86.4884 30.9433 86.2139C30.4322 85.9437 29.968 85.6992 29.5911 85.4997C29.2461 85.3174 29.0289 85.2102 29.0353 85.1952C29.0417 85.1823 29.2695 85.2638 29.6251 85.4289C29.9808 85.5919 30.462 85.8407 30.9923 86.1131C31.5225 86.3855 32.0059 86.6214 32.3657 86.7737C32.7235 86.9281 32.9513 87.0053 32.9471 87.0225L32.9492 87.0246Z" fill="#243976"/>
<path d="M33.8872 79.4239C33.9043 79.4239 33.8745 79.7456 33.8425 80.2624C33.8106 80.7793 33.7808 81.4935 33.7957 82.2849C33.8106 83.0741 33.8681 83.7883 33.9192 84.3031C33.9724 84.8178 34.0129 85.1373 33.9958 85.1395C33.9873 85.1395 33.9682 85.0623 33.9405 84.9207C33.9107 84.7792 33.8766 84.5711 33.8404 84.3138C33.768 83.7991 33.6998 83.0827 33.6828 82.287C33.6679 81.4935 33.7084 80.775 33.7616 80.256C33.7872 79.9965 33.8148 79.7885 33.8383 79.6448C33.8617 79.5011 33.8766 79.4217 33.8851 79.4239H33.8872Z" fill="#243976"/>
<path d="M34.8541 79.7413C34.8541 79.7413 34.8179 79.7757 34.7625 79.8379C34.7071 79.9 34.6475 80.0073 34.6262 80.1531C34.6092 80.2968 34.6347 80.4855 34.7604 80.6228C34.8817 80.7644 35.1117 80.8051 35.3161 80.7279C35.5206 80.6528 35.6675 80.4705 35.6696 80.2839C35.676 80.0974 35.5738 79.9365 35.4673 79.84C35.3566 79.7435 35.2416 79.7006 35.1607 79.6899C35.0776 79.677 35.0308 79.6856 35.0287 79.6749C35.0287 79.6706 35.0734 79.647 35.1628 79.647C35.2523 79.647 35.3864 79.6791 35.5163 79.7799C35.6419 79.8807 35.7718 80.0566 35.7697 80.2861C35.774 80.5199 35.5908 80.7472 35.3523 80.833C35.116 80.9252 34.8306 80.8716 34.6837 80.6914C34.5346 80.5156 34.5176 80.299 34.5474 80.1402C34.5815 79.9773 34.6603 79.8636 34.7305 79.8057C34.7987 79.7456 34.8498 79.7349 34.8519 79.7392L34.8541 79.7413Z" fill="#243976"/>
<path d="M37.5016 76.2089C37.5016 76.2089 37.4484 76.2904 37.3355 76.4277C37.2248 76.5649 37.0502 76.7536 36.8245 76.9724C36.5988 77.1933 36.3091 77.4357 35.9727 77.6823C35.632 77.9247 35.2423 78.1691 34.8121 78.3879C34.3799 78.6024 33.9519 78.7697 33.5536 78.8962C33.1554 79.0184 32.7892 79.1042 32.4783 79.1536C32.1674 79.205 31.914 79.2308 31.7394 79.2372C31.5648 79.2458 31.4668 79.2458 31.4668 79.2372C31.4668 79.2158 31.8522 79.1943 32.4655 79.0742C32.7721 79.0163 33.132 78.9219 33.5238 78.7975C33.9135 78.6667 34.3373 78.4994 34.7632 78.2871C35.1869 78.0726 35.5745 77.8324 35.9131 77.5987C36.2495 77.3585 36.5391 77.1247 36.7712 76.9145C37.2355 76.4941 37.4867 76.196 37.5016 76.2089Z" fill="#263238"/>
<path d="M41.3887 78.5897C41.3887 78.624 41.0054 78.624 40.554 78.7377C40.1004 78.8471 39.7618 79.0272 39.7448 78.9972C39.7277 78.9736 40.0557 78.7441 40.5263 78.6283C40.9969 78.5103 41.393 78.5618 41.3887 78.5897Z" fill="#263238"/>
<g opacity="0.3">
<path d="M32.4506 79.1256C34.2862 78.7932 35.994 77.8002 37.1972 76.3633C37.425 77.0367 37.2355 77.8345 36.7308 78.3321C37.2717 78.5895 37.9041 78.4179 38.4982 78.3364C39.0924 78.2549 39.8142 78.3364 40.0974 78.8661C37.4484 79.1128 34.7845 79.19 32.127 79.0956" fill="black"/>
</g>
<path d="M27.1643 74.9243C27.1473 74.9478 26.8833 74.5768 26.2466 74.3237C25.9335 74.1972 25.5289 74.1136 25.0817 74.1264C24.6346 74.1393 24.1469 74.2572 23.6891 74.5017C22.7607 74.9864 22.2113 75.8143 21.7896 76.3462C21.5916 76.625 21.4617 76.8738 21.3723 77.0432C21.2828 77.2148 21.2317 77.3092 21.2253 77.3049C21.2189 77.3027 21.2551 77.2019 21.3339 77.0239C21.4127 76.848 21.532 76.5907 21.7257 76.3011C21.9217 76.0116 22.1772 75.6921 22.4732 75.3382C22.7756 74.9929 23.1652 74.6519 23.638 74.4031C24.1086 74.1522 24.6175 74.0299 25.0796 74.0235C25.5417 74.0149 25.9569 74.1114 26.2764 74.2508C26.6 74.3859 26.8258 74.5639 26.9684 74.6948C27.0387 74.7613 27.0898 74.817 27.1218 74.8578C27.1537 74.8985 27.1686 74.92 27.1665 74.9221L27.1643 74.9243Z" fill="#263238"/>
<path d="M32.7383 54.3525L29.7656 54.9874L31.252 60.5915L36.516 61.7303L40.1254 59.1502L40.6215 56.0597L37.5253 54.8801L32.7383 54.3525Z" fill="#FFBE9D"/>
<path d="M30.6454 54.758C30.6454 54.758 32.6577 60.643 36.3757 60.1004C40.0937 59.5578 39.7828 55.7424 39.7828 55.7424C39.7828 55.7424 43.6627 56.9327 44.8637 58.2024C46.0625 59.4699 45.3598 62.2258 45.3598 62.2258L44.3526 67.2058L42.1635 76.7454C42.1635 76.7454 43.0004 79.3469 40.8625 79.9903L40.1874 78.9223L27.3533 79.2869C27.3533 79.2869 24.6084 82.4739 23.7524 81.3758C22.8964 80.2756 22.0723 78.133 22.0723 78.133L27.9623 55.4593L30.6433 54.7559L30.6454 54.758Z" fill="#243976"/>
<path d="M43.8475 57.4473C43.9518 57.5073 52.9594 64.1023 52.9594 64.1023C52.9594 64.1023 52.2524 69.5262 56.573 68.6619C56.573 68.6619 54.8269 73.1979 52.4632 72.2457C51.7903 71.9754 43.4897 66.6823 43.4897 66.6823L41.7266 62.8969L43.8496 57.4473H43.8475Z" fill="#243976"/>
<path d="M30.6446 55.0474C30.6446 55.0474 30.4402 55.0538 30.0974 55.086C28.3342 55.2575 21.8266 56.6151 21.224 61.2391C20.9088 63.6583 20.8194 70.7337 20.4766 73.6998C20.4766 73.6998 21.0217 77.8219 21.224 78.5875C21.5839 79.9473 28.1127 77.7704 28.1127 77.7704L28.1255 64.677L30.4402 55.0517" fill="#243976"/>
<path d="M26.5271 66.9335C26.5271 66.9335 26.5335 66.9699 26.5377 67.0407C26.5377 67.1094 26.542 67.2123 26.559 67.3431C26.5867 67.6048 26.6655 67.9801 26.8337 68.4198C26.9998 68.8616 27.2532 69.3634 27.5066 69.9382C27.6323 70.2256 27.7558 70.5344 27.8473 70.8669C27.9368 71.1993 27.9964 71.5532 28.0241 71.9178C28.0794 72.647 28.0241 73.3397 27.973 73.9638C27.9197 74.5879 27.8686 75.152 27.7898 75.6216C27.7153 76.0913 27.6173 76.4667 27.5322 76.7176C27.4896 76.8441 27.4534 76.9406 27.4257 77.005C27.398 77.0693 27.3831 77.1015 27.3789 77.1015C27.3703 77.0972 27.4193 76.9599 27.4896 76.7047C27.5599 76.4495 27.645 76.0763 27.711 75.6088C27.7771 75.1412 27.8218 74.5793 27.8686 73.9531C27.9155 73.329 27.9666 72.6405 27.9112 71.9242C27.8857 71.566 27.826 71.2207 27.7409 70.8947C27.6535 70.5687 27.5343 70.2642 27.4129 69.9768C27.1659 69.4042 26.9189 68.8937 26.7592 68.4434C26.5995 67.993 26.5292 67.6091 26.5143 67.3431C26.5037 67.2102 26.5079 67.1072 26.5143 67.0364C26.5186 66.9657 26.5228 66.9292 26.5271 66.9292V66.9335Z" fill="#263238"/>
<path d="M26.8208 65.2839C26.8379 65.2839 26.8549 65.6163 26.9294 66.1482C27.0018 66.6801 27.1445 67.4093 27.4043 68.1857C27.4703 68.3787 27.5363 68.5674 27.6087 68.7454C27.6258 68.7862 27.6428 68.8441 27.662 68.8677C27.6875 68.9084 27.7131 68.947 27.7386 68.9856C27.7876 69.065 27.8345 69.1465 27.8749 69.228C28.041 69.5518 28.1177 69.88 28.1155 70.1566C28.1155 70.4333 28.0453 70.6499 27.9899 70.7893C27.9218 70.9266 27.8792 70.9973 27.8728 70.9931C27.843 70.9845 28.0517 70.6907 28.0389 70.1566C28.0304 69.8928 27.9516 69.584 27.7876 69.2752C27.7471 69.198 27.7003 69.1207 27.6513 69.0435C27.6258 69.0049 27.6002 68.9663 27.5747 68.9256C27.5385 68.8698 27.5321 68.8334 27.5108 68.7862C27.4363 68.606 27.3681 68.4151 27.3021 68.22C27.0402 67.435 26.9081 66.6951 26.8549 66.1568C26.8251 65.8887 26.8187 65.6678 26.8145 65.5177C26.8145 65.3654 26.8166 65.2839 26.8251 65.2817L26.8208 65.2839Z" fill="#263238"/>
<path d="M27.0855 63.3173C27.0684 63.3238 26.9705 63.0493 26.7788 62.6268C26.5872 62.2021 26.2869 61.6338 25.8781 61.0547C25.4671 60.4756 25.0305 60.0038 24.6962 59.6821C24.3619 59.3604 24.1362 59.1781 24.149 59.1652C24.1532 59.1588 24.215 59.1995 24.3193 59.2746C24.4258 59.3497 24.5727 59.4698 24.7495 59.6242C25.1008 59.933 25.5523 60.4027 25.9675 60.9903C26.3806 61.5758 26.6745 62.1614 26.8512 62.5967C26.9385 62.8155 27.0024 62.9935 27.0386 63.12C27.0769 63.2466 27.094 63.3173 27.0855 63.3195V63.3173Z" fill="#263238"/>
<path d="M45.5428 59.4738C45.5577 59.476 45.5364 59.6754 45.498 59.9929C45.4597 60.3124 45.4065 60.7521 45.3554 61.2389C45.3043 61.7258 45.2681 62.1676 45.2404 62.4871C45.2127 62.8067 45.1935 63.0062 45.1765 63.004C45.1616 63.004 45.1531 62.8046 45.1616 62.4829C45.1701 62.1611 45.1957 61.7151 45.2446 61.2261C45.2957 60.7371 45.3618 60.2974 45.4193 59.98C45.4767 59.6626 45.5257 59.4696 45.5406 59.4717L45.5428 59.4738Z" fill="#263238"/>
<path d="M47.3928 64.9819C47.3949 65.0033 47.1117 65.029 46.6751 65.1556C46.2407 65.2757 45.6551 65.5438 45.1739 66.0413C44.9354 66.2901 44.7523 66.5668 44.6011 66.8263C44.4605 67.0922 44.3498 67.341 44.271 67.5555C44.2348 67.6584 44.1986 67.7571 44.1667 67.8472C44.1432 67.9287 44.1198 68.0016 44.0985 68.0702C44.0602 68.1925 44.0346 68.2611 44.0283 68.2589C44.0197 68.2589 44.0304 68.186 44.0581 68.0595C44.073 67.9887 44.09 67.9115 44.107 67.83C44.1347 67.7378 44.1645 67.637 44.1965 67.5298C44.2667 67.3089 44.3711 67.0515 44.5095 66.777C44.6586 66.5089 44.846 66.2215 45.093 65.9641C45.5913 65.4473 46.2067 65.1813 46.6517 65.0784C46.7646 65.0505 46.8668 65.029 46.9562 65.0162C47.0457 65.0012 47.1245 64.9904 47.1883 64.9861C47.3161 64.9754 47.3885 64.9733 47.3885 64.9819H47.3928Z" fill="#263238"/>
<path d="M53.3596 70.9501C53.3596 70.9501 53.3021 70.8686 53.2148 70.7099C53.1701 70.6306 53.1189 70.534 53.0678 70.4161C53.0146 70.2981 52.9507 70.1673 52.8954 70.015C52.7718 69.7148 52.6547 69.348 52.5525 68.932C52.4567 68.5137 52.3779 68.0483 52.3438 67.5551C52.314 67.0618 52.3289 66.5878 52.3694 66.161C52.4162 65.7342 52.4844 65.3546 52.5653 65.0415C52.5994 64.8828 52.6462 64.7455 52.6845 64.6211C52.7207 64.4967 52.7591 64.3938 52.791 64.3101C52.8549 64.1407 52.8954 64.0506 52.9017 64.0528C52.923 64.0592 52.7804 64.4324 52.642 65.0586C52.5717 65.3718 52.5121 65.7492 52.4716 66.1696C52.4375 66.5921 52.4247 67.0575 52.4567 67.5465C52.4908 68.0333 52.5653 68.4944 52.6547 68.9084C52.7506 69.3201 52.8592 69.6869 52.972 69.9871C53.1935 70.5898 53.383 70.9394 53.3638 70.9501H53.3596Z" fill="#263238"/>
<path d="M51.0179 69.3399C51.0179 69.3399 50.9817 69.2605 50.9349 69.1104C50.8901 68.9603 50.8369 68.7372 50.8007 68.4584C50.7262 67.9029 50.7411 67.103 51.0009 66.2794C51.2564 65.4537 51.7015 64.791 52.089 64.3835C52.2892 64.1797 52.5085 64.0704 52.6746 64.0661C52.7555 64.0639 52.8173 64.0854 52.8556 64.1004C52.8918 64.1218 52.911 64.1347 52.9089 64.1368C52.9046 64.1476 52.8279 64.0918 52.6789 64.109C52.5298 64.124 52.3318 64.2355 52.1465 64.4371C51.7824 64.8489 51.3565 65.503 51.1073 66.3116C50.8518 67.118 50.8241 67.8986 50.8795 68.4477C50.9327 69.001 51.0392 69.3313 51.0179 69.3377V69.3399Z" fill="#263238"/>
<path d="M36.3743 68.2718C36.3743 68.2718 36.3637 68.364 36.3211 68.527C36.3019 68.6085 36.2742 68.7071 36.2338 68.8187C36.1933 68.9302 36.155 69.061 36.0911 69.1961C35.9782 69.4749 35.8143 69.7924 35.6035 70.1269C35.3884 70.4594 35.1222 70.8068 34.8049 71.1349C34.4855 71.4609 34.1469 71.7354 33.8211 71.9606C33.4932 72.1794 33.1801 72.3531 32.9076 72.4711C32.7734 72.5376 32.6457 72.5805 32.5349 72.6233C32.4242 72.6662 32.3284 72.6963 32.2475 72.7177C32.0877 72.7628 31.9983 72.7842 31.9962 72.7756C31.9898 72.7542 32.3454 72.6577 32.8735 72.4003C33.1397 72.2738 33.4421 72.0958 33.7615 71.8748C34.0766 71.6475 34.4088 71.3751 34.724 71.0556C35.0349 70.7317 35.2989 70.3907 35.5161 70.069C35.727 69.7409 35.8973 69.432 36.0166 69.1618C36.2593 68.6235 36.3488 68.2632 36.37 68.2696L36.3743 68.2718Z" fill="#263238"/>
<g opacity="0.3">
<path d="M28.9999 70.3969C28.591 68.8935 28.1822 67.3879 27.7733 65.8823C27.7137 65.6614 27.6136 65.4041 27.39 65.3633C27.1835 65.3268 26.9918 65.522 26.9535 65.7322C26.9152 65.9402 26.9216 66.1804 26.9428 66.3928C27.0387 67.3729 27.1153 68.0377 27.5689 68.797C28.4526 70.2768 27.8692 70.9953 27.8692 70.9953C27.9394 72.7968 27.7882 75.2546 27.2324 77.1055L27.7584 79.3381C28.2567 77.6781 29.396 76.2948 29.5876 74.5705C29.7431 73.1657 29.3704 71.7609 28.9999 70.3969Z" fill="black"/>
</g>
<g opacity="0.3">
<path d="M44.3516 67.2336C45.8102 67.9971 47.1071 69.0523 48.5274 69.8694C47.9695 68.7006 47.041 67.5446 45.9103 66.9247C45.6058 66.7575 45.2651 66.6138 44.9223 66.6609C44.5794 66.7103 44.3303 66.9054 44.3835 67.2507" fill="black"/>
</g>
<g opacity="0.3">
<path d="M52.7102 64.0014C52.212 63.9885 51.835 64.4454 51.5923 64.8829C50.9045 66.1161 50.6191 67.5723 50.7874 68.975C50.8172 69.228 50.9109 69.5326 51.16 69.5819C51.341 69.6184 51.5199 69.4854 51.6008 69.3181C51.6817 69.1508 51.6839 68.9599 51.6839 68.7734C51.6817 67.9133 51.6264 67.049 51.7477 66.1976C51.8691 65.3461 52.1885 64.4904 52.8188 63.9092" fill="black"/>
</g>
<path d="M30.1863 65.6121C30.1863 65.6121 30.2033 65.6078 30.2352 65.6056C30.2736 65.6035 30.3204 65.5992 30.3822 65.5949C30.5184 65.5885 30.7101 65.5777 30.9592 65.5649C31.4682 65.5413 32.2071 65.507 33.1398 65.4641C35.0201 65.3826 37.6883 65.2689 40.8633 65.1338H40.9144V65.1831C40.9783 67.7996 41.0507 70.8087 41.1273 73.9978C41.1294 74.1051 41.1316 74.2123 41.1358 74.3174V74.3731H41.0805C37.5818 74.4117 34.3195 74.7034 31.5725 75.0873L31.5299 75.0938L31.5193 75.053C30.7633 72.252 30.4865 69.8371 30.3843 68.1535C30.3332 67.3107 30.3247 66.6458 30.3247 66.1954C30.3247 65.9702 30.3289 65.7965 30.3311 65.6785C30.3311 65.6228 30.3332 65.5799 30.3353 65.5456C30.3353 65.5155 30.3374 65.5005 30.3396 65.5005C30.3396 65.5005 30.3417 65.5155 30.3438 65.5456C30.3438 65.5799 30.3438 65.6228 30.3481 65.6785C30.3481 65.8008 30.3523 65.9724 30.3545 66.1933C30.363 66.6458 30.3822 67.3085 30.4397 68.1492C30.5568 69.8285 30.8464 72.2349 31.6108 75.0273L31.5576 74.993C34.3067 74.5983 37.5754 74.3002 41.0783 74.2616L41.023 74.3195C41.0208 74.2144 41.0187 74.1072 41.0145 74C40.9421 70.8129 40.8718 67.8018 40.8122 65.1853L40.8633 65.2346C37.6883 65.3547 35.0201 65.4533 33.1377 65.5241C32.2028 65.5563 31.466 65.5799 30.955 65.597C30.7058 65.6035 30.5142 65.6099 30.3779 65.6121C30.3161 65.6121 30.2672 65.6121 30.2288 65.6121C30.1948 65.6121 30.1777 65.6121 30.1777 65.6121H30.1863Z" fill="white"/>
<path d="M32.9925 72.1126C32.9627 72.1169 32.6965 70.6692 32.3984 68.8763C32.1003 67.0833 31.8831 65.6249 31.9129 65.6206C31.9427 65.6163 32.2089 67.064 32.507 68.857C32.8051 70.6499 33.0223 72.1062 32.9925 72.1126Z" fill="white"/>
<path d="M33.3136 74.8793C33.2838 74.8836 33.1773 74.3603 33.0751 73.7105C32.975 73.0606 32.9175 72.5287 32.9473 72.5244C32.9771 72.5202 33.0836 73.0435 33.1858 73.6933C33.2859 74.3431 33.3434 74.875 33.3136 74.8793Z" fill="white"/>
<path d="M35.1454 70.6778C35.1454 70.6778 35.1177 70.6091 35.0857 70.4783C35.0538 70.3496 35.0133 70.1588 34.9686 69.925C34.8792 69.4553 34.7791 68.8033 34.7067 68.0784C34.6343 67.3535 34.6066 66.6929 34.6024 66.2147C34.6002 65.9766 34.6024 65.7836 34.6087 65.6485C34.613 65.5155 34.6215 65.4404 34.6279 65.4404C34.645 65.4404 34.6556 65.7343 34.6812 66.2104C34.7067 66.6865 34.7472 67.3428 34.8174 68.0655C34.8898 68.7883 34.9771 69.4381 35.0474 69.91C35.1156 70.3818 35.1624 70.6713 35.1454 70.6756V70.6778Z" fill="white"/>
<path d="M34.9061 74.5919C34.8763 74.5962 34.7677 73.9163 34.6633 73.0756C34.559 72.2349 34.5015 71.5507 34.5313 71.5464C34.5611 71.5421 34.6697 72.222 34.774 73.0627C34.8784 73.9034 34.9359 74.5876 34.9061 74.5919Z" fill="white"/>
<path d="M37.311 74.4181C37.311 74.4181 37.2876 74.2937 37.2684 74.0643C37.2471 73.8176 37.2194 73.4916 37.1854 73.0991C37.1151 72.2842 37.0108 71.1603 36.8702 69.9207C36.7275 68.6811 36.5764 67.5615 36.4614 66.753C36.406 66.3627 36.3592 66.0388 36.3251 65.7943C36.2931 65.567 36.2804 65.4426 36.2868 65.4404C36.2953 65.4404 36.323 65.5627 36.3677 65.7879C36.4124 66.0131 36.472 66.3391 36.538 66.7423C36.6743 67.5487 36.8383 68.6682 36.981 69.91C37.1215 71.1496 37.2131 72.2777 37.2642 73.0948C37.2897 73.5023 37.3046 73.8348 37.3131 74.0621C37.3195 74.2916 37.3217 74.4181 37.3131 74.4181H37.311Z" fill="white"/>
<path d="M39.3583 74.534C39.3583 74.534 39.3455 74.4053 39.3434 74.1737C39.3413 73.9227 39.3392 73.5925 39.3349 73.1935C39.3264 72.3657 39.3051 71.2204 39.2455 69.9593C39.1858 68.6961 39.1007 67.5551 39.0304 66.7294C38.9963 66.3305 38.9686 66.0024 38.9473 65.7515C38.9282 65.5198 38.9218 65.3933 38.9282 65.3911C38.9346 65.389 38.958 65.5177 38.9899 65.7472C39.024 65.9766 39.0645 66.3091 39.1092 66.7209C39.1986 67.5444 39.2987 68.6875 39.3583 69.9529C39.4179 71.2183 39.4265 72.3635 39.4158 73.1935C39.4094 73.6075 39.4009 73.9442 39.3881 74.1758C39.3775 74.4074 39.3668 74.5361 39.3605 74.5361L39.3583 74.534Z" fill="white"/>
<g opacity="0.3">
<path d="M32.1692 72.7948C32.4929 73.0178 32.8996 73.095 33.2914 73.0693C33.6832 73.0435 34.0622 72.9213 34.4243 72.769C34.9034 72.5696 35.3719 72.3079 35.7126 71.9133C36.0788 71.4929 36.2769 70.946 36.362 70.3927C36.4494 69.8415 36.4323 69.2775 36.4174 68.7198C36.4174 68.6962 36.4174 68.6705 36.4004 68.6491C36.3748 68.6126 36.3152 68.6169 36.279 68.6469C36.2428 68.6769 36.23 68.722 36.2151 68.7649C35.5827 70.6329 33.9941 72.1449 32.1074 72.6747" fill="black"/>
</g>
<path d="M30.8488 90.7584L29.5478 88.3006L26.6219 74.508C26.6219 74.508 23.9303 72.9531 21.7284 76.3632C21.639 76.5005 24.7586 86.3789 25.6296 89.1263L25.751 91.7535C25.751 91.7535 25.5955 94.8655 25.751 95.1379C25.9064 95.4102 26.2918 95.5668 26.2918 95.5668C26.2918 95.5668 26.1768 96.3453 27.0648 96.4225C27.0648 96.4225 27.1415 97.2783 27.7995 97.1625C28.4554 97.0466 28.6875 96.6177 28.6875 96.6177C28.6875 96.6177 28.6875 97.7072 29.2667 97.5893C29.8459 97.4734 29.9396 97.0059 30.0482 96.8493C30.1546 96.6928 30.2782 95.0993 30.2782 95.0993L30.2675 92.4634L31.7751 93.6945C32.2117 93.9132 32.8484 94.1835 33.2104 93.8575L30.8488 90.7563V90.7584Z" fill="#FFBE9D"/>
<path d="M30.2681 92.335C30.3001 92.3307 30.3917 92.9677 30.3533 93.7548C30.3363 94.1194 30.3193 94.4518 30.3065 94.7563C30.2937 95.0116 30.2852 95.1703 30.2681 95.1724C30.2341 95.1724 30.2043 94.5333 30.2426 93.7526C30.2809 92.972 30.2383 92.3414 30.2681 92.3371V92.335Z" fill="#EB996E"/>
<path d="M28.606 94.1704C28.6358 94.1704 28.6698 94.7538 28.6784 95.4722C28.689 96.1929 28.672 96.7762 28.64 96.7762C28.6102 96.7762 28.5761 96.1929 28.5676 95.4744C28.557 94.7538 28.574 94.1704 28.606 94.1704Z" fill="#EB996E"/>
<path d="M27.2133 94.6489C27.2431 94.6468 27.292 95.0564 27.2431 95.5626C27.1962 96.0687 27.0684 96.4612 27.0408 96.4526C27.0088 96.444 27.0855 96.0473 27.1323 95.5518C27.1813 95.0564 27.1813 94.6511 27.2133 94.6489Z" fill="#EB996E"/>
<path d="M26.3148 94.3443C26.3446 94.3464 26.3446 94.6123 26.3127 94.9362C26.2808 95.26 26.2296 95.5195 26.1998 95.5174C26.17 95.5153 26.17 95.2493 26.202 94.9255C26.2339 94.6016 26.285 94.3421 26.3148 94.3443Z" fill="#EB996E"/>
</g>
</g>
<defs>
<clipPath id="clip0_348_11230">
<rect width="139.102" height="120" fill="white" transform="translate(0 0.0981445)"/>
</clipPath>
<clipPath id="clip1_348_11230">
<rect width="117" height="75" fill="white" transform="translate(8 22.5981)"/>
</clipPath>
</defs>
</svg>
