<svg width="140" height="121" viewBox="0 0 140 121" fill="none" xmlns="http://www.w3.org/2000/svg">
<g clip-path="url(#clip0_348_10949)">
<path d="M30.8678 98.1995C21.9312 89.9373 17.4402 77.7271 17.4402 61.5823C17.4402 45.4372 21.9314 33.2278 30.867 25.0332C39.8097 16.832 52.7124 12.676 69.6207 12.676C86.529 12.676 99.4317 16.832 108.374 25.0332C117.31 33.2278 121.801 45.4372 121.801 61.5823C121.801 77.7271 117.31 89.9373 108.374 98.1995C99.4311 106.467 86.5291 110.623 69.6207 110.623C52.7124 110.623 39.8103 106.467 30.8678 98.1995Z" stroke="#E63950" stroke-width="0.595238"/>
<path d="M112.064 109.275C118.073 104.759 122.112 98.3475 125.245 91.7537C131.037 79.5708 131.183 59.5959 117.572 51.4759C109.288 46.5336 102.125 54.7132 97.2396 43.818C96.1754 41.4422 95.7909 38.8399 95.2036 36.3121C92.9978 26.8299 87.3162 17.7143 78.2572 13.3026C69.1983 8.89086 56.61 10.4111 50.2965 18.2211C47.5988 21.5597 46.0994 25.8104 42.6922 28.5022C35.1177 34.4878 29.6031 32.4966 20.9615 36.9649C13.077 41.0398 5.23727 52.871 4.57849 57.0502C0.786794 81.103 12.8713 88.1797 23.838 101.254C33.0401 112.227 38.3341 112.525 52.4844 116.719C66.6347 120.913 85.3011 122.341 98.0295 114.722" stroke="#D1A092" stroke-miterlimit="10"/>
<g clip-path="url(#clip1_348_10949)">
<path d="M81.9802 79.0097C81.9802 79.0097 81.9802 78.9897 81.9802 78.9797C81.9702 78.9397 81.9402 78.9197 81.9102 78.8997C81.8902 78.8997 81.8802 78.8797 81.8602 78.8797C81.8802 78.8397 81.9102 78.7997 81.9402 78.7597C81.9702 78.7297 81.9402 78.6797 81.9102 78.6597C81.8702 78.6197 81.8002 78.5997 81.7502 78.5997C81.6402 78.5897 81.4902 78.5997 81.4202 78.6997C81.3302 78.8197 81.2602 78.9497 81.2102 79.0997C81.1802 79.1797 81.1602 79.2597 81.1502 79.3397C81.1402 79.3997 81.1302 79.4597 81.1502 79.5197C81.1702 79.6097 81.2102 79.6697 81.2902 79.7197C81.3502 79.7497 81.4102 79.7697 81.4802 79.7697C81.5702 79.7697 81.6702 79.7697 81.7502 79.7197C81.9002 79.6397 81.9602 79.4497 81.9902 79.2897C82.0102 79.2097 82.0102 79.1197 81.9902 79.0397L81.9802 79.0097Z" fill="white"/>
<path d="M108.421 69.9495H24.6409C24.1209 69.9495 23.6309 69.8895 23.1209 69.9495H14.4109C13.8109 69.9495 13.2309 69.8695 12.6409 69.9895C12.4409 70.0295 12.2509 70.0995 12.1209 70.2095C12.0309 70.2995 11.9909 70.3895 12.0109 70.4795C12.0309 70.5695 12.1309 70.6495 12.3009 70.6895C12.3909 70.7095 12.6609 70.7195 12.7209 70.7695C12.8009 70.8395 12.7209 70.8895 12.6809 70.9595C12.5109 71.2895 12.6409 71.6395 12.6809 71.9795C12.7209 72.3895 12.7009 72.7995 12.7109 73.2095C12.7309 74.0395 12.7409 74.8695 12.7609 75.6895C12.7609 75.9695 12.7209 76.2395 12.7609 76.5195C12.7809 76.6495 12.8109 76.8095 12.9209 76.9195C12.9609 76.9695 13.2809 77.1395 13.3609 77.0995C13.2409 77.1695 13.0709 77.1895 12.9109 77.2195C12.6509 77.2595 12.3409 77.3495 12.2709 77.5395C12.2109 77.7095 12.3609 77.8795 12.6009 77.9295C13.1309 78.0195 13.9909 77.9495 14.5709 77.9495H22.9909C23.5209 78.0095 24.2609 77.9495 24.7909 77.9495H108.421C110.091 77.9495 111.441 77.0195 111.441 75.8695V72.0495C111.441 70.8995 110.091 69.9695 108.421 69.9695V69.9495Z" fill="#243976"/>
<path d="M102.31 72.0297V75.8497C102.31 76.9997 100.96 77.9297 99.2901 77.9297H95.5801C97.2501 77.9297 98.6001 76.9997 98.6001 75.8497V72.0297C98.6001 70.8797 97.2501 69.9497 95.5801 69.9497H99.2901C100.96 69.9497 102.31 70.8797 102.31 72.0297Z" fill="#F49262"/>
<path d="M95.4214 72.0297V75.8497C95.4214 76.9997 94.0714 77.9297 92.4014 77.9297H88.6914C90.3614 77.9297 91.7114 76.9997 91.7114 75.8497V72.0297C91.7114 70.8797 90.3614 69.9497 88.6914 69.9497H92.4014C94.0714 69.9497 95.4214 70.8797 95.4214 72.0297Z" fill="#F49262"/>
<path d="M54.6109 72.0297V75.8497C54.6109 76.9997 53.2609 77.9297 51.5909 77.9297H47.8809C49.5509 77.9297 50.9009 76.9997 50.9009 75.8497V72.0297C50.9009 70.8797 49.5509 69.9497 47.8809 69.9497H51.5909C53.2609 69.9497 54.6109 70.8797 54.6109 72.0297Z" fill="#F49262"/>
<path d="M47.7202 72.0297V75.8497C47.7202 76.9997 46.3702 77.9297 44.7002 77.9297H40.9902C42.6602 77.9297 44.0102 76.9997 44.0102 75.8497V72.0297C44.0102 70.8797 42.6602 69.9497 40.9902 69.9497H44.7002C46.3702 69.9497 47.7202 70.8797 47.7202 72.0297Z" fill="#F49262"/>
<path d="M12.9808 77.1895C12.8908 77.1895 12.8208 77.2195 12.7608 77.2595H32.8708C33.7208 77.2595 34.4108 76.7695 34.4108 76.1595V71.8295C34.4108 71.2195 33.7208 70.7295 32.8708 70.7295H12.5508C12.7008 70.7295 12.8508 71.0195 12.8608 71.0995C13.0708 72.1395 13.1108 73.2195 13.1108 74.2695C13.1208 74.7995 13.1208 75.3195 13.1108 75.8495C13.1108 76.3195 13.2508 76.7595 12.9608 77.1995L12.9808 77.1895Z" fill="white"/>
<path d="M23.0697 71.7593H31.7097C31.7097 71.7593 31.8497 71.7593 31.8497 71.8093C31.8497 71.8593 31.7497 71.8593 31.7097 71.8593H23.0697C23.0697 71.8593 22.9297 71.8593 22.9297 71.8093C22.9297 71.7593 23.0297 71.7593 23.0697 71.7593Z" fill="#7FAFC6"/>
<path d="M25.1595 73.0493H28.5395C28.5395 73.0493 28.6795 73.0493 28.6795 73.0993C28.6795 73.1493 28.5795 73.1493 28.5395 73.1493H25.1595C25.1595 73.1493 25.0195 73.1493 25.0195 73.0993C25.0195 73.0493 25.1195 73.0493 25.1595 73.0493Z" fill="#7FAFC6"/>
<path d="M15.7201 75.5391H29.9901C29.9901 75.5391 30.1301 75.5391 30.1301 75.5891C30.1301 75.6391 30.0301 75.6391 29.9901 75.6391H15.7201C15.7201 75.6391 15.5801 75.6391 15.5801 75.5891C15.5801 75.5391 15.6801 75.5391 15.7201 75.5391Z" fill="#7FAFC6"/>
<path d="M15.2904 73.4995H18.1304C18.1304 73.4995 18.2704 73.4995 18.2704 73.5495C18.2704 73.5995 18.1704 73.5995 18.1304 73.5995H15.2904C15.2904 73.5995 15.1504 73.5995 15.1504 73.5495C15.1504 73.4995 15.2504 73.4995 15.2904 73.4995Z" fill="#7FAFC6"/>
<path d="M123.432 77.9096H32.2516C31.6816 77.9096 31.1416 77.8196 30.5916 77.9096H18.5216C18.4316 77.9196 18.3416 77.9396 18.2516 77.9696C18.0316 78.0296 17.8216 78.1296 17.6816 78.2996C17.5816 78.4296 17.5416 78.5696 17.5616 78.6996C17.5816 78.8396 17.6916 78.9596 17.8716 79.0096C17.9616 79.0296 18.2616 79.0596 18.3216 79.1296C18.4116 79.2296 18.3216 79.3096 18.2816 79.4196C18.1016 79.9096 18.2416 80.4296 18.2816 80.9296C18.3216 81.5296 18.3016 82.1496 18.3116 82.7496C18.3316 83.9796 18.3516 85.2096 18.3716 86.4396C18.3716 86.8496 18.3216 87.2596 18.3716 87.6696C18.3916 87.8596 18.4316 88.0896 18.5416 88.2596C18.5916 88.3296 18.9316 88.5896 19.0216 88.5196C18.8916 88.6296 18.7016 88.6596 18.5316 88.6896C18.2516 88.7496 17.9116 88.8796 17.8416 89.1596C17.7816 89.4196 17.9416 89.6696 18.2016 89.7396C18.2616 89.7496 18.3216 89.7596 18.3816 89.7696H30.4516C31.0316 89.8596 31.8416 89.7696 32.4116 89.7696H123.432C125.242 89.7696 126.712 88.3896 126.712 86.6796V80.9996C126.712 79.2896 125.242 77.9096 123.432 77.9096Z" fill="#E63950"/>
<path d="M115.932 80.9997V86.6797C115.932 88.3897 114.462 89.7697 112.652 89.7697H18.3819C18.3219 89.7697 18.2619 89.7497 18.2019 89.7397C17.9319 89.6697 17.7719 89.4197 17.8419 89.1597C17.9119 88.8797 18.2519 88.7497 18.5319 88.6897C18.7019 88.6497 18.8919 88.6197 19.0219 88.5197C18.9319 88.5897 18.5919 88.3197 18.5419 88.2597C18.4219 88.0997 18.3919 87.8597 18.3619 87.6697C18.3119 87.2597 18.3619 86.8497 18.3619 86.4397C18.3419 85.2097 18.3219 83.9797 18.3019 82.7497C18.3019 82.1497 18.3119 81.5297 18.2719 80.9297C18.2419 80.4297 18.0919 79.9097 18.2719 79.4197C18.3119 79.3097 18.4019 79.2297 18.3119 79.1297C18.2519 79.0597 17.9519 79.0297 17.8619 79.0097C17.6819 78.9597 17.5719 78.8397 17.5519 78.6997C17.5319 78.5697 17.5719 78.4297 17.6719 78.2997C17.8019 78.1297 18.0219 78.0297 18.2319 77.9697C18.3219 77.9497 18.4119 77.9297 18.5019 77.9097H112.652C114.462 77.9097 115.932 79.2997 115.932 80.9997Z" fill="#F26061"/>
<path d="M54.9019 80.9997V86.6797C54.9019 88.3897 53.4319 89.7697 51.6219 89.7697H18.3819C18.3219 89.7697 18.2619 89.7497 18.2019 89.7397C17.9319 89.6697 17.7719 89.4197 17.8419 89.1597C17.9119 88.8797 18.2519 88.7497 18.5319 88.6897C18.7019 88.6497 18.8919 88.6197 19.0219 88.5197C18.9319 88.5897 18.5919 88.3197 18.5419 88.2597C18.4219 88.0997 18.3919 87.8597 18.3619 87.6697C18.3119 87.2597 18.3619 86.8497 18.3619 86.4397C18.3419 85.2097 18.3219 83.9797 18.3019 82.7497C18.3019 82.1497 18.3119 81.5297 18.2719 80.9297C18.2419 80.4297 18.0919 79.9097 18.2719 79.4197C18.3119 79.3097 18.4019 79.2297 18.3119 79.1297C18.2519 79.0597 17.9519 79.0297 17.8619 79.0097C17.6819 78.9597 17.5719 78.8397 17.5519 78.6997C17.5319 78.5697 17.5719 78.4297 17.6719 78.2997C17.8019 78.1297 18.0219 78.0297 18.2319 77.9697C18.3219 77.9497 18.4119 77.9297 18.5019 77.9097H51.6219C53.4319 77.9097 54.9019 79.2997 54.9019 80.9997Z" fill="#E63950"/>
<path d="M18.6221 88.6596C18.5321 88.6596 18.4421 88.6996 18.3821 88.7596H40.2721C41.2021 88.7596 41.9521 88.0296 41.9521 87.1196V80.6996C41.9521 79.7896 41.2021 79.0596 40.2721 79.0596H18.1621C18.3321 79.0596 18.4821 79.4896 18.5021 79.5996C18.7321 81.1396 18.7721 82.7496 18.7721 84.3096C18.7821 85.0896 18.7821 85.8696 18.7821 86.6596C18.7821 87.3596 18.9321 88.0096 18.6121 88.6596H18.6221Z" fill="white"/>
<path d="M29.6129 80.5898H39.0129C39.0129 80.5898 39.1629 80.5998 39.1629 80.6598C39.1629 80.7198 39.0529 80.7298 39.0129 80.7298H29.6129C29.6129 80.7298 29.4629 80.7198 29.4629 80.6598C29.4629 80.5998 29.5729 80.5898 29.6129 80.5898Z" fill="#7FAFC6"/>
<path d="M31.8824 82.52H35.5624C35.5624 82.52 35.7124 82.53 35.7124 82.59C35.7124 82.65 35.6024 82.66 35.5624 82.66H31.8824C31.8824 82.66 31.7324 82.65 31.7324 82.59C31.7324 82.53 31.8424 82.52 31.8824 82.52Z" fill="#7FAFC6"/>
<path d="M21.6129 86.21H37.1429C37.1429 86.21 37.2929 86.22 37.2929 86.28C37.2929 86.34 37.1829 86.35 37.1429 86.35H21.6129C21.6129 86.35 21.4629 86.34 21.4629 86.28C21.4629 86.22 21.5729 86.21 21.6129 86.21Z" fill="#7FAFC6"/>
<path d="M21.1422 83.1797H24.2422C24.2422 83.1797 24.3922 83.1897 24.3922 83.2497C24.3922 83.3097 24.2822 83.3197 24.2422 83.3197H21.1422C21.1422 83.3197 20.9922 83.3097 20.9922 83.2497C20.9922 83.1897 21.1022 83.1797 21.1422 83.1797Z" fill="#7FAFC6"/>
<path d="M34.0221 82.5098C33.4021 82.5898 32.8421 82.9298 32.5521 83.4398L31.5221 85.2098H28.9121L29.9421 83.4398C30.2721 82.8698 30.9321 82.5098 31.6521 82.5098H34.0321H34.0221Z" fill="#7FAFC6"/>
<path d="M69.6322 84.9597C70.3999 84.9597 71.0222 84.4583 71.0222 83.8397C71.0222 83.2212 70.3999 82.7197 69.6322 82.7197C68.8645 82.7197 68.2422 83.2212 68.2422 83.8397C68.2422 84.4583 68.8645 84.9597 69.6322 84.9597Z" fill="#E63950"/>
<path d="M81.3913 83.8397C81.3913 84.4597 80.7713 84.9597 80.0013 84.9597C79.2313 84.9597 78.6113 84.4597 78.6113 83.8397C78.6113 83.2197 79.2313 82.7197 80.0013 82.7197C80.7713 82.7197 81.3913 83.2197 81.3913 83.8397Z" fill="#E63950"/>
<path d="M90.3724 84.9597C91.1401 84.9597 91.7624 84.4583 91.7624 83.8397C91.7624 83.2212 91.1401 82.7197 90.3724 82.7197C89.6047 82.7197 88.9824 83.2212 88.9824 83.8397C88.9824 84.4583 89.6047 84.9597 90.3724 84.9597Z" fill="#E63950"/>
<path d="M102.132 83.8397C102.132 84.4597 101.512 84.9597 100.742 84.9597C99.9716 84.9597 99.3516 84.4597 99.3516 83.8397C99.3516 83.2197 99.9716 82.7197 100.742 82.7197C101.512 82.7197 102.132 83.2197 102.132 83.8397Z" fill="#E63950"/>
<path d="M29.7715 70.0297H28.8915C27.7215 70.0297 26.7715 69.0797 26.7715 67.9097V63.7197H31.8815V67.9097C31.8815 69.0797 30.9315 70.0297 29.7615 70.0297H29.7715Z" fill="white"/>
<path d="M26.6205 68.7997H26.1105C25.2605 68.7997 24.5605 68.1097 24.5605 67.2497V65.9597C24.5605 65.1097 25.2505 64.4097 26.1105 64.4097H26.6205C27.4705 64.4097 28.1705 65.0997 28.1705 65.9597V67.2497C28.1705 68.0997 27.4805 68.7997 26.6205 68.7997ZM26.1105 64.9497C25.5505 64.9497 25.1005 65.3997 25.1005 65.9597V67.2497C25.1005 67.8097 25.5505 68.2597 26.1105 68.2597H26.6205C27.1805 68.2597 27.6305 67.8097 27.6305 67.2497V65.9597C27.6305 65.3997 27.1805 64.9497 26.6205 64.9497H26.1105Z" fill="white"/>
<path d="M36.4994 69.2394C36.6294 69.3994 36.7694 69.5494 36.9194 69.6794C37.7294 70.3494 38.8594 70.4794 39.9094 70.5694C43.8894 70.8994 47.8894 70.9994 51.8894 70.8494C52.9894 70.8094 54.3394 70.8494 55.3494 70.3694C56.1994 69.9594 57.0294 69.4494 57.7794 68.8794C58.3194 68.4694 59.2194 68.1894 59.5494 67.5994C59.8894 67.0094 59.8694 66.1694 59.6694 65.5394C59.4294 64.7494 58.8994 64.0694 58.2394 63.5694C57.6494 63.1194 56.8494 62.9694 56.1394 62.7694C55.3394 62.5494 54.5194 62.4094 53.6994 62.2894C51.4994 61.9494 49.2794 61.6994 47.0594 61.5594C46.8394 61.5494 46.6094 61.5294 46.4094 61.4294C45.9594 61.2194 45.7794 60.6794 45.6794 60.1894C45.5494 59.5094 45.4994 58.8194 45.5394 58.1294C45.5594 57.8694 45.5594 57.5594 45.3594 57.3994C45.2594 57.3194 45.1394 57.2994 45.0194 57.2794C43.3394 56.9694 41.6294 56.7994 40.0394 56.1894C38.9294 55.7694 38.1194 55.4294 37.5194 56.7094C36.0294 59.8994 34.7994 64.0594 35.7194 67.5794C35.8694 68.1694 36.1194 68.7594 36.4894 69.2394H36.4994Z" fill="#7FAFC6"/>
<path d="M62.4393 90.2195L60.7093 90.1894C60.5793 90.0994 60.4693 89.9694 60.3593 89.8494C60.0493 89.4894 59.7393 89.0994 59.3293 88.8494C59.0093 88.6494 58.6893 88.5995 58.3493 88.5395C58.2393 88.5195 58.1393 88.4994 58.0293 88.4794C57.8293 88.4394 57.6293 88.3595 57.4493 88.2395C57.1893 88.0695 56.9493 87.8194 57.0093 87.4794C57.0293 87.3494 57.0793 87.2394 57.1493 87.1194C57.1893 87.0494 57.2393 86.9794 57.2793 86.9094C57.2793 86.8894 57.2993 86.8795 57.3093 86.8595C57.4193 86.6795 57.5193 86.4895 57.6093 86.2895C57.6393 86.2195 57.6793 86.1394 57.7093 86.0694C57.7793 85.9194 57.8593 85.7795 57.9693 85.6795C57.9693 85.6795 57.9693 85.6794 57.9793 85.6694C58.0293 85.6294 58.0793 85.5895 58.1393 85.5595C58.1493 85.5595 58.1693 85.5495 58.1793 85.5395C58.2393 85.5095 58.2893 85.4895 58.3493 85.4695C58.3693 85.4695 58.3893 85.4594 58.3993 85.4594C58.3993 85.4594 58.3993 85.4594 58.4093 85.4594C58.4293 85.4594 58.4393 85.4595 58.4593 85.4495C58.5393 85.4295 58.6193 85.4194 58.6993 85.4194C59.0693 85.4094 59.3493 85.5495 59.5793 85.7695C59.7193 85.9095 59.8493 86.0794 59.9493 86.2594C59.9793 86.3094 60.0093 86.3694 60.0393 86.4194C60.0693 86.4794 60.0993 86.5294 60.1293 86.5894C60.1593 86.6494 60.1893 86.7194 60.2193 86.7794C60.2493 86.8394 60.2793 86.8994 60.3093 86.9594C60.3093 86.9594 60.3093 86.9794 60.3193 86.9794C60.4293 87.2094 60.5393 87.4394 60.6493 87.6694C60.8293 88.0494 61.0093 88.4295 61.1893 88.8095C61.2993 89.0495 61.4193 89.2894 61.5893 89.4994C61.6093 89.5294 61.6393 89.5595 61.6593 89.5795C61.8193 89.7495 62.0093 89.8794 62.2293 89.9194C62.3993 89.9494 62.4993 90.0395 62.4193 90.2195H62.4393Z" fill="#F7967C"/>
<path d="M62.6384 90.1794C62.6184 90.0594 62.5484 89.9494 62.4584 89.8794C62.3584 89.7994 62.2384 89.7394 62.1184 89.6894C61.9884 89.6294 61.8484 89.5994 61.7084 89.5794C61.6884 89.5794 61.6784 89.5794 61.6684 89.5794C61.4184 89.5494 61.1684 89.5494 60.9184 89.4994C60.8884 89.4994 60.8584 89.4894 60.8284 89.4794C60.7084 89.4494 60.5984 89.4094 60.4984 89.3694C60.2584 89.2594 60.0384 89.0994 59.8184 88.9194C59.5284 88.6794 59.2484 88.4094 58.9784 88.1394C58.8184 87.9994 58.6684 87.8694 58.5184 87.7194C58.4084 87.6094 58.3084 87.4994 58.2084 87.3794C58.1084 87.2494 58.0684 87.1394 58.0084 86.9994C57.9384 86.8494 57.8184 86.7194 57.7184 86.5994C57.6684 86.5394 57.6084 86.4794 57.5384 86.4494H57.5184C57.2384 86.3594 57.0484 87.0994 56.9984 87.2994C56.9384 87.5694 56.9284 87.8594 57.0484 88.1194C57.1284 88.3094 57.2484 88.4794 57.3484 88.6594C57.4484 88.8594 57.4584 89.0894 57.4684 89.3094C57.4784 89.5594 57.4884 89.8094 57.4984 90.0594C57.4984 90.1994 57.6284 90.1294 57.7184 90.1294C57.7384 90.1294 58.0584 90.1294 58.0584 90.1294C58.0584 89.9494 58.0584 89.7694 58.0584 89.5794C58.0584 89.4194 58.0584 89.2694 58.0584 89.1094C58.0584 88.9594 57.9884 88.7994 58.1584 88.7194C58.1584 88.7194 58.1684 88.7194 58.1784 88.7194C58.2684 88.6894 58.3584 88.6894 58.4484 88.7194C58.4584 88.7194 58.4784 88.7194 58.4884 88.7294C58.5984 88.7594 58.7084 88.8194 58.8084 88.8494C59.3984 89.0794 59.7784 89.5094 60.1384 90.0394C60.1884 90.1094 60.2284 90.1594 60.2784 90.1994H60.6784V90.2094H60.7884L62.4484 90.2594H62.6884C62.6884 90.2594 62.6784 90.2394 62.6584 90.2094L62.6384 90.1794Z" fill="white"/>
<path d="M58.6186 87.8396C57.7886 87.8896 56.9586 87.9596 56.1286 88.0096C55.9086 88.0196 55.6886 88.0396 55.4786 87.9696C55.4186 87.9496 55.3586 87.9196 55.3186 87.8696C55.2786 87.8096 55.2786 87.7396 55.2686 87.6696C55.2386 86.7496 55.2386 85.8196 55.2686 84.8996C55.2986 84.0496 55.4086 83.2896 55.5686 82.4696C55.7086 81.7396 55.7786 81.1696 55.7386 80.4396C55.7186 79.9696 55.6886 79.4896 55.6786 79.0196C55.5786 76.0796 55.6486 73.1196 56.0186 70.2096C56.0886 69.6496 56.1886 69.0796 56.1986 68.5196C56.2186 67.5496 55.8986 66.6896 55.7386 65.7496C55.6186 65.0796 55.5886 63.1896 56.5386 63.1396C57.6286 63.0696 58.6486 63.9696 59.2286 64.7996C59.9886 65.8896 59.9686 67.2496 60.1086 68.5296C60.3886 70.9896 60.5986 73.4496 60.7386 75.9196C60.8486 77.8696 60.8586 79.8296 60.9986 81.7696C61.1386 83.6996 61.2686 85.6196 61.2386 87.5596C61.2386 87.8496 58.9886 87.8196 58.6286 87.8396H58.6186Z" fill="#7FAFC6"/>
<path d="M57.0995 90.2195L55.3695 90.1894C55.2395 90.0994 55.1295 89.9694 55.0195 89.8494C54.7095 89.4894 54.3995 89.0994 53.9895 88.8494C53.6695 88.6494 53.3495 88.5995 53.0095 88.5395C52.8995 88.5195 52.7995 88.4994 52.6895 88.4794C52.4895 88.4394 52.2895 88.3595 52.1095 88.2395C51.8495 88.0695 51.6095 87.8194 51.6695 87.4794C51.6895 87.3494 51.7395 87.2394 51.8095 87.1194C51.8495 87.0494 51.8995 86.9794 51.9395 86.9094C51.9395 86.8894 51.9595 86.8795 51.9695 86.8595C52.0795 86.6795 52.1795 86.4895 52.2695 86.2895C52.2995 86.2195 52.3395 86.1394 52.3695 86.0694C52.4395 85.9194 52.5195 85.7795 52.6295 85.6795C52.6295 85.6795 52.6295 85.6794 52.6395 85.6694C52.6895 85.6294 52.7395 85.5895 52.7995 85.5595C52.8095 85.5595 52.8295 85.5495 52.8395 85.5395C52.8995 85.5095 52.9495 85.4895 53.0095 85.4695C53.0295 85.4695 53.0495 85.4594 53.0595 85.4594C53.0595 85.4594 53.0595 85.4594 53.0695 85.4594C53.0895 85.4594 53.0995 85.4595 53.1195 85.4495C53.1995 85.4295 53.2795 85.4194 53.3595 85.4194C53.7295 85.4094 54.0095 85.5495 54.2395 85.7695C54.3795 85.9095 54.5095 86.0794 54.6095 86.2594C54.6395 86.3094 54.6695 86.3694 54.6995 86.4194C54.7295 86.4794 54.7595 86.5294 54.7895 86.5894C54.8195 86.6494 54.8495 86.7194 54.8795 86.7794C54.9095 86.8394 54.9395 86.8994 54.9695 86.9594C54.9695 86.9594 54.9695 86.9794 54.9795 86.9794C55.0895 87.2094 55.1995 87.4394 55.3095 87.6694C55.4895 88.0494 55.6695 88.4295 55.8495 88.8095C55.9595 89.0495 56.0795 89.2894 56.2495 89.4994C56.2695 89.5294 56.2995 89.5595 56.3195 89.5795C56.4795 89.7495 56.6695 89.8794 56.8895 89.9194C57.0595 89.9494 57.1595 90.0395 57.0795 90.2195H57.0995Z" fill="#F7967C"/>
<path d="M57.2986 90.1794C57.2786 90.0594 57.2086 89.9494 57.1186 89.8794C57.0186 89.7994 56.8986 89.7394 56.7786 89.6894C56.6486 89.6294 56.5086 89.5994 56.3686 89.5794C56.3586 89.5794 56.3386 89.5794 56.3286 89.5794C56.0786 89.5494 55.8286 89.5494 55.5786 89.4994C55.5486 89.4994 55.5186 89.4894 55.4886 89.4794C55.3686 89.4494 55.2586 89.4094 55.1586 89.3694C54.9186 89.2594 54.6986 89.0994 54.4786 88.9194C54.1886 88.6794 53.9086 88.4094 53.6386 88.1394C53.4786 87.9994 53.3286 87.8694 53.1786 87.7194C53.0686 87.6094 52.9686 87.4994 52.8686 87.3794C52.7686 87.2494 52.7286 87.1394 52.6686 86.9994C52.5986 86.8494 52.4786 86.7194 52.3786 86.5994C52.3286 86.5394 52.2686 86.4794 52.1986 86.4494H52.1786C51.8986 86.3594 51.7086 87.0994 51.6586 87.2994C51.5986 87.5694 51.5886 87.8594 51.7086 88.1194C51.7886 88.3094 51.9086 88.4794 52.0086 88.6594C52.1086 88.8594 52.1186 89.0894 52.1286 89.3094C52.1386 89.5594 52.1486 89.8094 52.1586 90.0594C52.1586 90.1994 52.2886 90.1294 52.3786 90.1294C52.3986 90.1294 52.7186 90.1294 52.7186 90.1294C52.7186 89.9494 52.7186 89.7694 52.7186 89.5794C52.7186 89.4194 52.7186 89.2694 52.7186 89.1094C52.7186 88.9594 52.6486 88.7994 52.8186 88.7194C52.8186 88.7194 52.8286 88.7194 52.8386 88.7194C52.9286 88.6894 53.0186 88.6894 53.1086 88.7194C53.1186 88.7194 53.1386 88.7194 53.1486 88.7294C53.2586 88.7594 53.3686 88.8194 53.4686 88.8494C54.0586 89.0794 54.4386 89.5094 54.7986 90.0394C54.8486 90.1094 54.8886 90.1594 54.9386 90.1994H55.3386V90.2094H55.4486L57.1086 90.2594H57.3486C57.3486 90.2594 57.3386 90.2394 57.3186 90.2094L57.2986 90.1794Z" fill="white"/>
<path d="M57.8288 85.1092C57.8688 85.8092 57.9187 86.5192 57.9587 87.2192C57.9687 87.4392 57.9788 87.6892 57.8288 87.8492C57.6788 88.0192 57.4087 88.0292 57.1787 88.0292C54.9987 88.0292 52.8288 88.0292 50.6488 88.0292C50.4088 88.0292 50.1587 88.0292 49.9688 87.8892C50.7387 82.7592 51.5187 77.5892 51.8787 72.4092C51.9687 71.1292 52.0187 69.8492 52.3187 68.5992C52.5087 67.7992 52.7987 67.0292 53.2287 66.3292C53.4487 65.9692 53.7187 65.6592 54.0087 65.3592C54.2187 65.1392 54.4087 64.8492 54.6687 64.6692C55.3687 64.1792 56.3687 64.7792 56.7587 65.3992C57.1187 65.9692 57.2187 66.6592 57.2887 67.3392C57.5687 69.9592 57.5387 72.5992 57.5187 75.2392C57.4987 76.8792 57.4087 78.5392 57.5187 80.1792C57.6187 81.8192 57.8288 83.4892 57.8288 85.1292V85.1092Z" fill="#7FAFC6"/>
<path d="M49.5192 50.0392C49.4292 50.3392 49.3492 50.6392 49.2492 50.9392C48.8992 52.0792 48.5492 53.3892 47.5992 54.1492C47.3392 54.3592 47.0292 54.4292 46.7592 54.5992C46.1892 54.9492 45.5692 54.9392 45.1592 54.2992C44.9792 54.0292 44.8992 53.7092 44.8692 53.3892C44.7692 52.4092 45.2292 51.4792 45.7592 50.7392C46.4592 49.7392 47.1592 48.7492 47.8692 47.7492C48.2692 47.1792 48.6792 46.5992 49.0792 46.0292C49.3692 45.6192 49.6592 45.2092 50.0092 44.8392C50.1792 44.6592 50.4992 44.4092 50.7492 44.3692C50.8792 44.3392 50.9692 44.4392 51.0792 44.5192C51.5692 44.8692 51.1892 45.4792 51.0292 45.9092C50.8292 46.4592 50.5992 46.9992 50.3792 47.5392C50.1992 47.9892 50.0292 48.4392 49.9092 48.9092C49.7992 49.2992 49.6392 49.6492 49.5292 50.0392H49.5192Z" fill="#F7967C"/>
<path d="M51.6009 42.6393C51.6009 42.6393 51.6409 42.6193 51.6709 42.6093C51.7209 42.5893 51.7609 42.5793 51.8109 42.5693C51.9309 42.5693 52.0409 42.6293 52.1309 42.6993C52.4009 42.9293 52.5809 43.2593 52.6209 43.6093C52.6709 44.0293 52.2909 44.2693 51.9409 44.3793C51.8009 44.4293 51.6609 44.4593 51.5109 44.4893C51.4009 44.5093 51.2809 44.5293 51.1609 44.4893C50.9809 44.4093 50.8809 44.1993 50.8509 44.0093C50.8009 43.7193 50.7809 43.3993 50.9109 43.1293C51.0409 42.8593 51.3209 42.7293 51.5909 42.6293L51.6009 42.6393Z" fill="#F7967C"/>
<path d="M49.9999 44.5392C50.0299 44.3092 50.1199 44.0892 50.2099 43.8692C50.5599 42.9592 50.8099 41.9992 50.9599 41.0392C50.9799 40.9292 51.0599 40.6592 51.2199 40.7392C51.5699 40.9192 51.4199 41.5592 51.3499 41.8592C51.3099 42.0092 51.2799 42.1492 51.2599 42.2992C51.2599 42.3492 51.2599 42.4092 51.2599 42.4592C51.2499 42.5192 51.2199 42.5792 51.2099 42.6492C51.1499 42.9092 51.1799 43.1892 51.2099 43.4492C51.2299 43.5892 51.2399 43.7592 51.2899 43.8792C51.3599 44.0392 51.5599 44.1392 51.7299 44.0792C51.8499 44.0392 51.9699 43.9792 52.0699 43.9092C52.1299 43.8692 52.1899 43.8192 52.2599 43.7892C52.3199 43.7592 52.3799 43.7492 52.4399 43.7392C52.6399 43.6992 52.8699 43.6492 53.0599 43.7392C53.1199 43.7692 53.1799 43.8092 53.2099 43.8692C53.3099 44.0592 53.0899 44.1592 52.9399 44.1892C52.3199 44.3092 52.1599 44.8592 51.7399 45.2392C51.5299 45.4292 51.2799 45.6092 50.9899 45.6292C50.7099 45.6492 50.3399 45.4992 50.1499 45.2792C49.9999 45.0992 49.9799 44.7792 50.0099 44.5592L49.9999 44.5392Z" fill="#F7967C"/>
<path d="M51.1806 42.7294C51.1806 42.7294 51.1506 42.7594 51.1506 42.7794C51.1506 42.8694 51.1506 42.9594 51.1406 43.0494C51.1406 43.1394 51.1406 43.2194 51.1506 43.2994C51.1706 43.3794 51.1906 43.4594 51.2006 43.5394C51.2006 43.6094 51.2106 43.6794 51.2006 43.7494C51.1706 43.7494 51.1506 43.7394 51.1206 43.7294C51.0906 43.7294 51.0606 43.7994 51.0906 43.7994C51.2406 43.8194 51.3805 43.8694 51.5105 43.9294C51.6105 43.9794 51.7206 44.0494 51.8406 44.0394C51.8906 44.0394 51.9306 44.0194 51.9706 43.9894C51.9706 43.9894 51.9806 43.9894 51.9906 43.9894C51.9906 43.9894 52.0005 43.9894 52.0105 43.9694C52.0705 43.9394 52.1206 43.8994 52.1806 43.8794C52.3006 43.8194 52.4306 43.7794 52.5606 43.7594C52.5806 43.7594 52.6106 43.6794 52.5706 43.6894C52.4406 43.7194 52.3206 43.7494 52.2006 43.8094C52.1406 43.8394 52.0906 43.8594 52.0406 43.8894C52.0406 43.8894 52.0306 43.8894 52.0206 43.8994C52.0206 43.8394 52.0406 43.7694 52.0606 43.7094C52.0706 43.6694 52.0906 43.6394 52.1106 43.5994C52.1306 43.5694 52.1506 43.5494 52.1506 43.5094C52.1506 43.4794 52.1205 43.4594 52.1005 43.4394C52.0805 43.4194 52.0506 43.3894 52.0306 43.3594C51.9906 43.2994 51.9606 43.2394 51.9406 43.1694C51.9406 43.1494 51.9106 43.1694 51.9006 43.1694C51.8106 43.2894 51.6605 43.3594 51.5105 43.3494C51.4805 43.3494 51.4506 43.4194 51.4806 43.4194C51.6406 43.4294 51.7906 43.3594 51.8906 43.2394C51.9106 43.2894 51.9306 43.3494 51.9606 43.3894C51.9806 43.4194 52.0006 43.4394 52.0206 43.4694C52.0306 43.4794 52.0406 43.4894 52.0506 43.4994C52.0506 43.4994 52.0706 43.5194 52.0806 43.5294C52.0806 43.5294 52.0706 43.5494 52.0606 43.5494C52.0506 43.5694 52.0406 43.5794 52.0306 43.5994C52.0106 43.6394 51.9906 43.6694 51.9806 43.7094C51.9606 43.7694 51.9506 43.8294 51.9406 43.8994C51.9006 43.9194 51.8706 43.9294 51.8206 43.9294C51.7006 43.9294 51.5906 43.8494 51.4906 43.7994C51.4006 43.7594 51.3106 43.7294 51.2206 43.7094C51.2306 43.5494 51.2205 43.3894 51.1705 43.2294C51.1505 43.1394 51.1506 43.0594 51.1506 42.9694C51.1506 42.8794 51.1506 42.7794 51.1606 42.6894C51.1606 42.6694 51.1506 42.6694 51.1406 42.6794L51.1806 42.7294Z" fill="#DB6357"/>
<path d="M46.3303 53.4892C46.3203 53.7992 46.3203 54.1192 46.3203 54.4292C46.3003 55.8392 46.1703 57.2492 46.1303 58.6592C46.1103 59.4792 46.6203 60.5592 46.4403 61.3292C46.2803 61.9792 45.4403 62.2792 44.8703 62.3892C42.0603 62.9392 39.1603 62.4992 36.3203 62.0592C36.1603 62.0392 35.9803 61.9992 35.8903 61.8592C35.8103 61.7392 35.8303 61.5792 35.8603 61.4392C36.1403 59.9092 36.2703 58.5592 36.1903 56.9992C36.0903 55.0992 35.9903 53.2092 35.9003 51.3092C35.8603 50.5692 35.9903 49.8692 35.9703 49.1192C35.9503 48.2592 35.9503 47.3992 36.1603 46.5592C36.4203 45.5692 36.9103 44.6392 37.6303 43.9092C37.9403 43.5892 38.3803 43.4492 38.7903 43.2692C39.2903 43.0492 39.8303 42.9192 40.3703 42.9092C41.1503 42.9092 41.9303 43.1592 42.5203 43.6692C42.8703 43.9692 43.0903 44.3692 43.4003 44.6892C43.7203 45.0192 43.9903 45.3592 44.2503 45.7492C44.8503 46.6292 45.4003 47.5292 45.9003 48.4692C46.1203 48.8892 46.3403 49.3292 46.4603 49.7892C46.7403 50.9192 46.4103 52.1092 46.3403 53.2692C46.3403 53.3392 46.3403 53.4092 46.3303 53.4692V53.4892Z" fill="#F26061"/>
<path d="M60.8001 49.7595C60.6501 50.2895 60.4901 50.8095 60.3401 51.3395C60.3301 51.3795 60.3201 51.4195 60.2901 51.4495C60.2701 51.4695 60.2401 51.4895 60.2101 51.5095C60.1901 51.5095 60.1801 51.5195 60.1601 51.5295C59.2301 51.8895 58.2901 52.2495 57.3501 52.5895C56.9101 52.7495 56.4701 52.9095 56.0301 53.0695C56.0001 53.0795 55.9701 53.0895 55.9401 53.0995C55.8001 53.1495 55.0901 53.4395 54.9801 53.2995C54.9801 53.2995 54.9701 53.2795 54.9601 53.2695C54.9401 53.2195 54.9601 53.1595 54.9601 53.0995C55.0701 52.7695 55.2401 52.4695 55.4601 52.1895L55.5901 52.3495C55.8101 52.0595 56.0601 51.7895 56.3301 51.5395C56.9301 50.9895 57.6301 50.5495 58.3901 50.2395C59.1401 49.9295 59.9501 49.7595 60.7701 49.7495C60.7701 49.7495 60.7901 49.7495 60.8001 49.7495V49.7595Z" fill="white"/>
<path d="M55.3001 53.4897L55.0801 52.9497C55.2501 52.8797 59.1001 51.3397 61.1101 51.0397C61.1901 51.0297 61.2701 51.0897 61.2801 51.1697L61.3101 51.4497C61.3101 51.5297 61.2601 51.5997 61.1801 51.6197C59.2401 51.9097 55.3301 53.4797 55.2901 53.4897H55.3001Z" fill="#7FAFC6"/>
<path d="M56.0298 53.0696C55.9998 53.1296 55.9498 53.1896 55.8798 53.2096L46.5898 56.8596C46.4898 56.8996 46.3698 56.8596 46.2998 56.7796L43.2998 52.9096C43.2098 52.7896 43.2398 52.6096 43.3698 52.5296L51.5798 47.8296C51.6898 47.7696 51.8198 47.7896 51.8998 47.8896L55.4598 52.1896L55.5898 52.3496L55.6898 52.4696L55.9798 52.8196C56.0298 52.8796 56.0498 52.9596 56.0298 53.0296C56.0298 53.0396 56.0298 53.0496 56.0198 53.0596L56.0298 53.0696Z" fill="#7FAFC6"/>
<path d="M39.2403 57.3496C39.3103 57.4596 39.3903 57.5696 39.4703 57.6896C39.6903 57.9996 39.9103 58.3096 40.1803 58.5896C40.2903 58.6996 40.4003 58.8096 40.5203 58.8996C40.9403 59.2396 41.4603 59.4696 42.0003 59.4496C42.5103 59.4296 43.7503 59.0596 43.7903 58.4296C43.8503 57.5296 43.3703 56.6896 42.9603 55.8796C41.8603 53.7196 41.1203 51.3896 40.5303 49.0396C40.1703 47.6096 39.8303 46.0996 38.8303 45.0196C37.5503 43.6196 36.3303 45.7196 36.0703 46.8696C35.7303 48.3996 35.9303 49.9996 36.3603 51.4996C36.6603 52.5396 37.1703 53.4996 37.6303 54.4796C38.0003 55.2896 38.4303 56.0696 38.9003 56.8196C39.1003 57.1396 39.3403 57.4196 39.5303 57.7496C39.7403 58.1296 39.9803 58.4896 40.2803 58.8096C40.7003 59.2396 41.2703 59.5496 41.8603 59.5096C42.3203 59.4796 42.7703 59.2396 43.0403 58.8696L39.2403 57.3596V57.3496Z" fill="#F7967C"/>
<path d="M37.9505 55.1393C39.2205 54.4793 40.5505 53.9693 41.8905 53.4893C41.3405 52.0393 40.9005 50.5493 40.5205 49.0493C40.1605 47.6193 39.8205 46.1093 38.8205 45.0293C37.5405 43.6293 36.3205 45.7293 36.0605 46.8793C35.7205 48.4093 35.9205 50.0093 36.3505 51.5093C36.6505 52.5493 37.1605 53.5093 37.6205 54.4893C37.7205 54.7093 37.8305 54.9393 37.9405 55.1593L37.9505 55.1393Z" fill="#F26061"/>
<path d="M51.8186 55.9196C51.3886 56.0096 50.9586 56.0696 50.5186 56.0496C50.4486 56.0496 50.3686 56.0496 50.3086 55.9996C50.2586 55.9696 50.2286 55.9196 50.1986 55.8796C50.1786 55.8396 50.1686 55.7796 50.1386 55.7496C50.1186 55.7196 50.0886 55.7196 50.0686 55.6896C49.8786 55.3396 49.7886 54.9196 49.9386 54.5496C49.9786 54.4396 50.0486 54.3496 50.1186 54.2596C50.2086 54.1396 50.3086 54.0296 50.4086 53.9296C50.5386 53.7996 50.6886 53.6896 50.8086 53.5496C50.9086 53.4296 50.9686 53.2896 51.0686 53.1796C51.1386 53.0996 51.1886 52.9796 51.2686 52.9096C51.3186 52.8696 51.3786 52.8396 51.4386 52.8496C51.4586 52.8496 51.4886 52.8496 51.5086 52.8696C51.5486 52.8996 51.5486 52.9596 51.5386 53.0096C51.4886 53.3396 51.1686 53.5696 51.0386 53.8796C51.0286 53.9096 51.0186 53.9396 51.0386 53.9696C51.0786 54.0396 51.3086 53.9696 51.3586 53.9496C51.5286 53.9096 51.6886 53.8496 51.8486 53.7796C52.1086 53.6696 52.3586 53.5496 52.6086 53.4296C52.8786 53.2896 53.1986 53.0696 53.5086 53.0696C53.5486 53.0696 53.5886 53.0696 53.6286 53.0896C53.6786 53.1096 53.7286 53.1596 53.7086 53.2196C53.6986 53.2396 53.6786 53.2596 53.6586 53.2796C53.5086 53.4196 53.3386 53.5196 53.1786 53.6296C52.9386 53.7996 52.6986 53.9696 52.4686 54.1396C53.1286 54.0396 53.6986 53.5996 54.3486 53.4296C54.3986 53.4196 54.4386 53.4096 54.4886 53.4196C54.5386 53.4196 54.5786 53.4596 54.5986 53.4996C54.6186 53.5596 54.5686 53.6196 54.5286 53.6696C54.3486 53.8596 54.1086 53.9896 53.8886 54.1296C53.6386 54.2896 53.3886 54.4396 53.1286 54.5896C53.3786 54.4996 53.6186 54.4096 53.8686 54.2996C54.0886 54.1996 54.2786 54.0796 54.5286 54.0296C54.5786 54.0296 54.6286 54.0196 54.6586 54.0496C54.6986 54.0896 54.6786 54.1596 54.6386 54.2096C54.5286 54.3696 54.3486 54.4596 54.1786 54.5396C53.8686 54.6996 53.5586 54.8596 53.2586 55.0296C53.6786 54.9096 54.0286 54.5996 54.4586 54.5296C54.4586 54.5296 54.5286 54.6796 54.5286 54.6896C54.5086 54.8296 54.3986 54.9296 54.2786 55.0096C53.6586 55.4596 52.9086 55.6896 52.1686 55.8596C52.0486 55.8896 51.9286 55.9196 51.8086 55.9396L51.8186 55.9196Z" fill="#F7967C"/>
<path d="M46.4695 58.0794C46.1995 58.2294 45.9195 58.3794 45.6395 58.5194C44.4895 59.1094 43.3495 59.6194 42.0195 59.5394C41.3795 59.4994 40.3795 59.2394 40.4295 58.4294C40.4495 58.0594 40.5995 57.7094 40.8095 57.4094C41.1695 56.8894 41.5495 56.5894 42.1295 56.3694C42.7595 56.1294 43.4395 56.0694 44.0995 55.9694C45.9395 55.6994 47.7095 55.1194 49.5195 54.6894C49.8195 54.6194 50.1195 54.5494 50.4195 54.5694C50.8595 54.5994 51.4295 54.8794 51.4995 55.3294C51.5895 55.9194 50.8895 56.0794 50.4695 56.2694C49.9395 56.5094 49.3895 56.7194 48.8495 56.9494C48.3995 57.1394 47.9595 57.3294 47.5395 57.5694C47.1895 57.7694 46.8195 57.8894 46.4595 58.0894L46.4695 58.0794Z" fill="#F7967C"/>
<path d="M57.8902 80.9794C57.8902 78.7594 57.8602 76.5394 57.8402 74.3194C57.8302 73.2094 57.8102 72.0994 57.8002 70.9894C57.7902 69.8994 57.7702 68.8094 57.6102 67.7294C57.4802 66.8794 57.2602 65.9794 56.7202 65.2894C56.1602 64.5694 55.3102 64.2294 54.4502 63.9994C52.3902 63.4494 50.2602 63.1694 48.1402 63.1094C47.7102 63.0994 47.3002 63.1094 46.8702 63.1594C46.6202 63.1894 46.3802 63.2194 46.1302 63.2494C45.6402 63.3094 45.1402 63.3794 44.6502 63.4394C44.6102 63.4394 44.5402 63.4694 44.5602 63.5194C44.5802 63.5694 44.6902 63.5694 44.7202 63.5694L46.3602 63.3594C46.6202 63.3294 46.9002 63.2694 47.1602 63.2694C47.5102 63.2694 47.8602 63.2394 48.2102 63.2494C48.5802 63.2594 48.9502 63.2794 49.3202 63.3094C50.0602 63.3594 50.7902 63.4394 51.5202 63.5494C52.2402 63.6594 52.9502 63.7894 53.6502 63.9594C54.5402 64.1694 55.5002 64.3894 56.1902 65.0394C56.8302 65.6394 57.1202 66.5194 57.2802 67.3594C57.4802 68.3994 57.5102 69.4694 57.5302 70.5194C57.5502 71.6094 57.5602 72.6994 57.5702 73.7894C57.5902 75.9594 57.6102 78.1194 57.6202 80.2894C57.6202 82.4694 57.6202 84.6594 57.6102 86.8394C57.6102 87.1094 57.6102 87.3694 57.6102 87.6394C57.6102 87.7294 57.8802 87.7394 57.8802 87.6394C57.9102 85.4194 57.9102 83.1994 57.9002 80.9794H57.8902Z" fill="#55788E"/>
<path d="M53.8014 69.7296C53.7714 69.6696 53.7114 69.6196 53.6714 69.5596C53.5414 69.3196 53.5314 69.0296 53.6414 68.7796C53.6714 68.7096 53.5514 68.6896 53.5114 68.6896C50.8514 68.6196 48.1814 68.5396 45.5214 68.4696C44.8514 68.4496 44.1714 68.4296 43.5014 68.4096C42.9514 68.3896 42.3914 68.3896 41.8414 68.3296C41.3414 68.2796 40.8414 68.1796 40.3814 67.9496C39.9014 67.7196 39.5214 67.3496 39.2714 66.8796C38.9514 66.2896 38.7714 65.6096 38.6514 64.9596C38.5214 64.2496 38.4814 63.5296 38.5214 62.8096C38.5214 62.7196 38.2614 62.7096 38.2514 62.8096C38.1814 64.0696 38.3514 65.4096 38.8514 66.5796C39.0614 67.0696 39.3714 67.5196 39.8114 67.8196C40.2214 68.1096 40.7014 68.2696 41.1914 68.3696C41.7114 68.4696 42.2414 68.5096 42.7614 68.5196C43.4314 68.5396 44.0914 68.5596 44.7614 68.5696C46.1414 68.6096 47.5114 68.6496 48.8914 68.6796C50.3814 68.7196 51.8714 68.7596 53.3614 68.7996C53.3014 68.9796 53.2914 69.1696 53.3414 69.3596C53.3714 69.4696 53.4114 69.5696 53.4814 69.6596C53.5214 69.7096 53.5514 69.7296 53.5614 69.7996C53.5614 69.8796 53.5414 69.9796 53.5314 70.0596C53.4714 70.6896 53.4114 71.3096 53.3614 71.9396C53.2514 73.1996 53.1514 74.4696 53.0614 75.7296C52.8814 78.2496 52.7514 80.7696 52.6514 83.2996C52.6014 84.7296 52.5614 86.1496 52.5314 87.5796C52.5314 87.6696 52.8014 87.6796 52.8014 87.5796C52.8514 85.0596 52.9314 82.5496 53.0614 80.0296C53.1914 77.5296 53.3614 75.0396 53.5714 72.5496C53.6314 71.8396 53.6914 71.1396 53.7614 70.4296C53.7814 70.2496 53.7914 70.0796 53.8114 69.8996C53.8114 69.8296 53.8414 69.7696 53.8114 69.7096L53.8014 69.7296Z" fill="#55788E"/>
<path d="M37.7704 68.5497C37.7504 68.4697 37.6904 68.3997 37.6404 68.3297C37.5904 68.2497 37.5304 68.1597 37.4804 68.0797C37.3804 67.9097 37.2804 67.7297 37.2004 67.5497C36.8504 66.8197 36.6204 66.0297 36.5304 65.2197C36.4804 64.7697 36.4704 64.3197 36.5104 63.8697C36.5104 63.8097 36.3904 63.7897 36.3104 63.8097C36.0904 63.7897 35.8704 63.7597 35.6504 63.7397C35.6004 63.7397 35.5104 63.7397 35.4904 63.7897C35.4604 63.8397 35.5504 63.8697 35.5804 63.8697C35.8004 63.8897 36.0204 63.9197 36.2404 63.9397C36.1404 65.4697 36.5304 67.0297 37.3704 68.3297C37.4204 68.4097 37.5304 68.5197 37.5204 68.6297C37.5104 68.7397 37.4204 68.8697 37.3704 68.9697C37.2604 69.2097 37.1404 69.4497 37.0304 69.6897C36.9904 69.7797 37.2504 69.8097 37.2904 69.7297C37.3904 69.5197 37.4904 69.3097 37.5804 69.1097C37.6304 69.0097 37.6804 68.8997 37.7304 68.7997C37.7704 68.7197 37.8004 68.6397 37.7804 68.5497H37.7704Z" fill="#55788E"/>
<path d="M37.6206 55.2596C37.4306 55.0596 37.3306 54.7996 37.2206 54.5496C37.1006 54.2696 36.9906 53.9896 36.8706 53.7096C36.6506 53.1496 36.4406 52.5896 36.2406 52.0296C36.2206 51.9596 36.0106 51.9796 36.0306 52.0596C36.2406 52.6396 36.4506 53.2196 36.6806 53.7896C36.7906 54.0696 36.9106 54.3496 37.0306 54.6296C37.1406 54.8796 37.2406 55.1196 37.4306 55.3196C37.4806 55.3696 37.6806 55.3396 37.6106 55.2596H37.6206Z" fill="#E63950"/>
<path d="M41.3012 49.7495C41.2812 49.6695 41.0712 49.6895 41.0912 49.7495C41.4012 50.9495 41.7112 52.1595 42.0212 53.3595C42.0412 53.4395 42.2512 53.4195 42.2312 53.3595C41.9212 52.1595 41.6112 50.9495 41.3012 49.7495Z" fill="#E63950"/>
<path d="M43.6584 41.8191C43.6584 41.8191 43.6584 41.8191 43.6584 41.8391C43.6584 41.9091 43.6384 41.9791 43.6384 42.0391C43.5784 42.5791 43.4584 43.0991 43.3884 43.6391C43.3884 43.7091 43.3684 43.7791 43.3584 43.8491C43.3184 44.2591 43.4984 44.5591 43.5884 44.9491C43.6384 45.1791 43.5884 45.4791 43.3684 45.5691C43.2684 45.6091 43.1584 45.6091 43.0484 45.5891C41.8984 45.4691 40.7884 45.0591 39.8384 44.4091C39.7184 44.3191 39.5884 44.2291 39.5284 44.0891C39.4784 43.9691 39.4884 43.8391 39.4984 43.7091C39.5584 42.9691 39.8584 42.3391 40.0284 41.6291C40.1384 41.1591 40.2484 40.6291 40.8584 40.7091C41.1184 40.7391 41.3384 40.6691 41.5984 40.6591C41.9884 40.6491 42.3984 40.7191 42.7584 40.8791C43.2084 41.0791 43.7184 41.2391 43.6584 41.8091V41.8191Z" fill="#F7967C"/>
<path d="M43.6589 41.819C43.6589 41.819 43.6589 41.819 43.6589 41.839C43.6589 41.909 43.6389 41.979 43.6389 42.039C43.5789 42.579 43.4589 43.099 43.3889 43.639C43.0089 43.489 42.6689 43.219 42.4389 42.879C42.3489 42.759 42.2789 42.619 42.2589 42.469C42.1989 41.979 42.6889 41.739 43.1089 41.729C43.3189 41.729 43.5089 41.749 43.6689 41.819H43.6589Z" fill="#DB6357"/>
<path d="M44.9594 36.5794C45.5394 37.5394 44.7094 38.8094 45.5794 39.3794C45.7994 39.5894 46.1394 39.8194 46.1394 40.1494C46.1194 40.3094 45.9794 40.4194 45.8594 40.5094C45.6094 40.6994 45.5594 41.0994 45.5394 41.3894C45.5094 42.0294 45.5394 42.6894 44.8194 42.9594C44.1194 43.2194 43.2794 42.9594 42.6494 42.6194C42.3794 42.4694 42.1294 42.2794 41.8994 42.0694C41.6994 41.8794 41.4594 41.6194 41.3494 41.3594C41.2194 41.0394 40.8994 41.0394 40.5994 41.1294C40.3394 41.1894 39.9394 41.2294 39.7094 41.0494C39.4594 40.8494 39.2894 40.5494 39.1394 40.2594C38.9994 39.9994 38.8594 39.7294 38.7394 39.4594C38.6094 39.1594 38.6094 38.8694 38.6394 38.5494C38.7294 37.6294 38.7794 36.6594 39.5194 36.0094C41.0594 34.4094 43.9394 34.4394 44.9494 36.5794H44.9594Z" fill="#F7967C"/>
<path d="M43.5801 38.3395C43.6001 38.0095 44.0201 37.7495 44.3201 37.6695C44.5001 37.5795 45.0101 37.7195 44.6601 37.9195C44.2701 37.9695 43.8701 38.0095 43.5801 38.3395Z" fill="#243976"/>
<path d="M44.6794 38.8194C44.6394 38.6994 44.5294 38.6194 44.4294 38.6694C44.2794 38.7394 44.3194 39.0294 44.3694 39.1694C44.3894 39.3394 44.5594 39.3994 44.6594 39.2894C44.7494 39.1794 44.7394 38.9694 44.6794 38.8294V38.8194Z" fill="#723737"/>
<path d="M45.0106 41.3495C45.0406 41.2395 45.0506 41.0695 44.9806 40.9795C44.9206 40.9095 44.8206 40.9195 44.7306 40.9095C44.6606 40.9095 44.6006 40.9095 44.5306 40.8895C44.4506 40.8795 44.3706 40.8495 44.2906 40.8495C43.9006 40.8195 44.0206 41.2895 44.2506 41.4295C44.4006 41.5195 44.5706 41.5395 44.7406 41.5495C44.8606 41.5495 44.9606 41.4795 45.0006 41.3695C45.0006 41.3695 45.0006 41.3495 45.0006 41.3395L45.0106 41.3495Z" fill="white"/>
<path d="M36.8298 45.5894C37.0298 45.3494 37.2798 45.1294 37.5098 44.9294C37.8498 44.6294 38.0798 44.5394 38.4998 44.7994C38.8398 45.0094 39.1198 45.3594 39.3098 45.7194C39.6098 46.2794 39.9798 46.8294 40.2498 47.4094C40.5298 47.9994 40.7098 48.5894 41.1398 49.0894C41.5598 49.5794 42.1798 49.9494 42.8198 49.9194C43.2098 49.9094 43.6398 49.8094 43.6598 49.3994C43.6798 48.9494 43.5198 48.4494 43.2998 48.0594C43.2098 47.8994 43.0998 47.7394 43.0298 47.5594C42.9198 47.2694 42.9398 46.9394 42.9598 46.6294C42.9698 46.2994 42.9598 45.9594 42.8998 45.6394C42.8798 45.5594 42.8598 45.4794 42.8298 45.3994C42.5298 44.5094 41.8098 43.8494 41.5398 42.9294C41.2598 41.9794 41.3498 40.9494 41.5998 39.9994C41.6998 39.6294 41.8298 39.2694 42.0098 38.9394C42.5098 38.0194 43.3898 37.4394 44.0798 36.6794C44.4298 36.2894 44.8698 35.6094 44.4498 35.1594C44.0598 34.7394 43.2798 34.5594 42.7398 34.4394C42.0498 34.2994 41.3198 34.2994 40.6298 34.4694C39.9098 34.6494 39.2498 35.0294 38.7198 35.5494C38.2198 36.0394 37.7498 36.6094 37.6098 37.3194C37.5098 37.8294 37.5098 38.3494 37.3998 38.8594C37.3098 39.2894 37.1398 39.7094 36.8998 40.0794C36.7598 40.2994 36.5998 40.4994 36.4798 40.7294C36.0698 41.5094 36.2198 42.4694 35.9698 43.3094C35.5898 44.6394 35.0398 45.9394 35.3598 47.3594C35.3898 47.5094 35.4598 47.6694 35.6098 47.6994C35.7498 47.7294 35.8698 47.6094 35.9498 47.4894C36.2398 47.0594 36.3398 46.5494 36.5298 46.0794C36.5998 45.9094 36.6998 45.7494 36.8198 45.5994L36.8298 45.5894Z" fill="#243976"/>
<path d="M42.3801 38.9995C42.1801 38.7795 41.8201 38.7295 41.5701 38.8795C41.3401 39.0195 41.2101 39.2895 41.2001 39.5595C41.1901 39.8295 41.2701 40.0895 41.3801 40.3395C41.4601 40.5295 41.5501 40.7095 41.6601 40.8895C41.7401 41.0295 41.8501 41.1795 42.0201 41.1895C42.1801 41.2095 42.3201 41.0895 42.4101 40.9595C42.6201 40.6495 42.6301 40.2695 42.6101 39.9095C42.5901 39.5995 42.6301 39.2495 42.4001 39.0095L42.3801 38.9995Z" fill="#F7967C"/>
<path d="M44.0201 35.1696C44.0101 35.0896 43.8001 35.0996 43.8101 35.1696C43.8501 35.4396 43.6701 35.7096 43.5301 35.9296C43.3901 36.1396 43.2401 36.3396 43.0701 36.5196C42.7301 36.8796 42.3201 37.1796 41.8701 37.4096C41.8301 37.4296 41.8401 37.4596 41.8701 37.4896C41.9101 37.5196 41.9801 37.5096 42.0201 37.4896C42.4901 37.2596 42.9201 36.9396 43.2701 36.5596C43.4401 36.3696 43.6001 36.1696 43.7401 35.9496C43.8801 35.7296 44.0601 35.4596 44.0201 35.1796V35.1696Z" fill="#F49262"/>
<path d="M43.0411 35.2996C42.8811 35.7596 42.5711 36.1496 42.1711 36.4296C42.1311 36.4596 42.1811 36.4996 42.2111 36.4996C42.2611 36.5096 42.3111 36.4996 42.3611 36.4796C42.7711 36.1996 43.0911 35.7896 43.2611 35.3296C43.2911 35.2496 43.0811 35.2296 43.0511 35.2996H43.0411Z" fill="#F49262"/>
<path d="M39.2195 35.6696C39.2195 35.6696 39.1095 35.6596 39.0695 35.6896C38.6195 36.0396 38.3295 36.5696 38.2695 37.1396C38.2695 37.2096 38.4795 37.2196 38.4795 37.1396C38.5295 36.5896 38.8195 36.0796 39.2495 35.7496C39.2895 35.7196 39.2495 35.6796 39.2095 35.6796L39.2195 35.6696Z" fill="#F49262"/>
<path d="M42.5411 45.5498C42.4411 45.1598 42.2911 44.7898 42.0111 44.4898C41.9611 44.4398 41.7611 44.4698 41.8311 44.5498C42.1011 44.8398 42.2511 45.2098 42.3411 45.5798C42.4311 45.9398 42.5211 46.3598 42.3211 46.6998C42.2811 46.7698 42.4911 46.7898 42.5311 46.7298C42.7511 46.3698 42.6511 45.9298 42.5511 45.5498H42.5411Z" fill="#F49262"/>
<path d="M41.5899 45.0394C41.5599 44.9794 41.3499 44.9994 41.3799 45.0694C41.5699 45.4394 41.6099 45.8594 41.5099 46.2594C41.4899 46.3194 41.6999 46.3394 41.7199 46.2594C41.8199 45.8494 41.7699 45.4194 41.5799 45.0494L41.5899 45.0394Z" fill="#F49262"/>
<path d="M37.2603 40.3594C36.9203 40.8194 36.8003 41.4294 36.9203 41.9894C36.9403 42.0694 37.1503 42.0594 37.1303 41.9894C37.0103 41.4394 37.1303 40.8494 37.4603 40.3894C37.5003 40.3294 37.3003 40.2994 37.2503 40.3594H37.2603Z" fill="#F49262"/>
<path d="M38.2402 40.9897C38.2402 40.9897 38.2202 40.9597 38.2102 40.9497C38.1902 40.9397 38.1602 40.9297 38.1302 40.9297C38.0902 40.9297 38.0302 40.9297 38.0202 40.9797C37.9802 41.1697 37.9802 41.3597 38.0202 41.5497C38.0202 41.5897 38.0902 41.6097 38.1302 41.5997C38.1502 41.5997 38.2502 41.5897 38.2402 41.5497C38.2002 41.3597 38.2002 41.1697 38.2402 40.9797V40.9897Z" fill="#F49262"/>
<path d="M87.5609 44.8197C88.1709 44.0997 88.8909 43.4297 89.7909 43.1297C90.4309 42.9197 91.1009 42.9297 91.7309 43.1697C92.1809 43.3397 92.6609 43.5697 92.8609 44.0197C92.9209 44.1597 92.9509 44.3197 92.9509 44.4797C92.9309 45.3697 92.0909 45.4997 91.4809 45.8497C90.6709 46.3197 89.8009 46.6797 88.9909 47.1597C87.7109 47.9297 86.5609 49.1097 85.0709 49.4797C84.5009 49.6197 84.4509 49.2397 84.6209 48.7797C84.8509 48.1397 85.3409 47.6797 85.7509 47.1597C86.3609 46.3897 86.9209 45.5697 87.5609 44.8297V44.8197Z" fill="#F7967C"/>
<path d="M78.2804 47.3195C78.6304 47.5795 79.0104 47.8095 79.4104 47.9695C79.4804 47.9995 79.5504 48.0195 79.6204 48.0095C79.6804 47.9995 79.7304 47.9695 79.7704 47.9295C79.8104 47.8995 79.8404 47.8495 79.8804 47.8195C79.9104 47.7995 79.9404 47.8095 79.9704 47.7895C80.3004 47.5295 80.5704 47.1395 80.5904 46.7295C80.5904 46.6095 80.5904 46.4895 80.5604 46.3695C80.5304 46.2195 80.4904 46.0695 80.4404 45.9295C80.3704 45.7495 80.2904 45.5795 80.2404 45.3895C80.2004 45.2395 80.2004 45.0695 80.1704 44.9195C80.1504 44.8095 80.1504 44.6695 80.1104 44.5695C80.0904 44.5095 80.0404 44.4595 79.9804 44.4395C79.9604 44.4395 79.9304 44.4295 79.9104 44.4395C79.8604 44.4495 79.8304 44.5095 79.8204 44.5595C79.7204 44.9095 79.9204 45.2595 79.9004 45.6095C79.9004 45.6395 79.9004 45.6795 79.8704 45.6995C79.8104 45.7495 79.6304 45.5795 79.5804 45.5495C79.4404 45.4395 79.3204 45.3195 79.2004 45.1895C79.0104 44.9795 78.8304 44.7595 78.6604 44.5395C78.4704 44.2995 78.2804 43.9495 77.9904 43.8195C77.9504 43.7995 77.9104 43.7895 77.8704 43.7895C77.8204 43.7895 77.7404 43.8195 77.7404 43.8895C77.7404 43.9195 77.7404 43.9395 77.7604 43.9695C77.8404 44.1595 77.9504 44.3295 78.0504 44.5095C78.1904 44.7695 78.3404 45.0395 78.4804 45.2995C77.9104 44.9395 77.5904 44.2795 77.0704 43.8495C77.0304 43.8195 76.9904 43.7895 76.9504 43.7795C76.9004 43.7695 76.8504 43.7795 76.8204 43.8195C76.7804 43.8695 76.7904 43.9495 76.8204 44.0095C76.9104 44.2695 77.0704 44.4895 77.2104 44.7195C77.3704 44.9795 77.5304 45.2295 77.7004 45.4795C77.5104 45.2895 77.3304 45.0995 77.1504 44.8995C76.9904 44.7195 76.8704 44.5195 76.6704 44.3695C76.6304 44.3395 76.5804 44.3195 76.5404 44.3395C76.4904 44.3695 76.4804 44.4395 76.4904 44.4995C76.5204 44.6995 76.6404 44.8595 76.7604 45.0095C76.9804 45.2895 77.1904 45.5695 77.3904 45.8595C77.0604 45.5695 76.8704 45.1295 76.5104 44.8795C76.5104 44.8795 76.3804 44.9995 76.3704 45.0095C76.3304 45.1495 76.3904 45.2995 76.4504 45.4295C76.8204 46.1195 77.4104 46.6395 78.0104 47.1095C78.1104 47.1895 78.2104 47.2595 78.3104 47.3295L78.2804 47.3195Z" fill="#F7967C"/>
<path d="M80.9896 52.1095C81.0796 52.4095 81.1596 52.7095 81.2496 53.0095C81.5996 54.1495 81.9396 55.4595 82.8896 56.2195C83.1496 56.4295 83.4596 56.4995 83.7296 56.6695C84.2996 57.0195 84.9196 57.0095 85.3296 56.3695C85.5096 56.0995 85.5896 55.7795 85.6296 55.4595C85.7296 54.4795 85.2696 53.5495 84.7496 52.7995C84.0496 51.7995 83.3496 50.7995 82.6496 49.8095C82.2496 49.2395 81.8396 48.6595 81.4396 48.0895C81.1496 47.6795 80.8596 47.2695 80.5096 46.8995C80.3396 46.7195 80.0196 46.4695 79.7696 46.4195C79.6396 46.3895 79.5496 46.4895 79.4396 46.5695C78.9496 46.9195 79.3296 47.5295 79.4796 47.9595C79.6796 48.5095 79.9096 49.0495 80.1196 49.5895C80.2996 50.0395 80.4696 50.4895 80.5896 50.9595C80.6996 51.3495 80.8596 51.6995 80.9696 52.0895L80.9896 52.1095Z" fill="#F7967C"/>
<path d="M79.9813 46.8894C79.7513 46.6194 79.6413 46.2494 79.6813 45.8994C79.6813 45.8394 79.5313 45.8294 79.5213 45.8994C79.4813 46.2694 79.6013 46.6494 79.8413 46.9394C79.8713 46.9794 80.0313 46.9594 79.9813 46.9094V46.8894Z" fill="#DB6357"/>
<path d="M67.6107 88.9093C67.7007 88.8693 67.7907 88.8393 67.8807 88.8093C68.0807 88.7393 68.2907 88.6893 68.4907 88.6093C68.6107 88.5593 68.7207 88.4893 68.8407 88.4293C69.2407 88.2093 69.6507 88.0193 70.0007 87.7193C70.4207 87.3593 71.1807 86.8993 71.1807 86.3193C71.1807 85.2193 71.1207 84.1193 71.0207 83.0293C70.9407 82.2393 70.8407 81.4593 70.7507 80.6793C70.5107 78.7093 70.3107 76.7393 70.1407 74.7693C69.9007 72.0293 69.4307 69.1493 69.7207 66.4293C69.9407 64.3393 71.5707 62.9893 73.5907 62.6993C74.2507 62.6093 74.8107 62.5093 75.4807 62.5893C76.3407 62.6993 77.2107 62.7893 78.0707 62.8593C79.7707 62.9893 81.4807 63.0293 83.1907 62.9893C84.2907 62.9593 85.3907 62.8893 86.4807 63.0193C87.5707 63.1493 88.6607 63.4993 89.5007 64.2193C90.5307 65.0993 90.6607 66.6593 90.0907 67.8293C89.6807 68.6693 88.8207 69.2193 87.9307 69.4893C86.7007 69.8693 85.3807 69.8093 84.1007 69.6993C82.6507 69.5693 81.2107 69.3593 79.7707 69.1393C78.9107 69.0093 78.0407 68.8693 77.2207 68.5893C76.5407 68.3593 75.8407 68.3293 75.1207 68.2393C75.2707 68.2593 75.3507 70.1293 75.3607 70.3293C75.3907 71.0093 75.3407 71.6793 75.2907 72.3493C75.1707 73.8193 75.1507 75.2793 74.9707 76.7493C74.7907 78.2293 74.5507 79.7093 74.3607 81.1893C74.2607 81.9393 74.1707 82.6893 74.1007 83.4393C74.0407 84.1293 73.9307 84.8093 73.8607 85.4993C73.7807 86.3393 74.0507 87.0893 74.2107 87.9093C74.2607 88.1793 74.3107 88.4493 74.2807 88.7093C74.2507 88.9493 74.1407 89.3293 73.8807 89.3693C73.5207 89.4193 73.0807 89.2593 72.7007 89.2793C72.5907 89.2793 71.4307 89.3093 71.4307 89.3193C70.9907 89.3193 70.5407 89.4893 70.1007 89.5293C69.6407 89.5693 69.1807 89.5493 68.7207 89.5293C68.4307 89.5093 68.1407 89.4993 67.8507 89.4393C67.7207 89.4093 67.4907 89.3593 67.4207 89.2293C67.3507 89.0893 67.5207 88.9693 67.6307 88.9193L67.6107 88.9093Z" fill="#F7967C"/>
<path d="M71.5012 89.3192C71.3612 89.3492 70.9912 89.4692 70.8712 89.3692C70.8312 89.3292 70.8012 89.2692 70.7812 89.2092C70.5812 88.7292 70.3112 88.2792 69.9912 87.8692C69.9512 87.8292 69.9212 87.7792 69.9012 87.7292C69.8512 87.5592 70.0312 87.4692 70.1212 87.3492C70.2112 87.2292 70.3512 87.0992 70.5212 87.1892C70.5712 87.2192 70.6012 87.2592 70.6412 87.3092C70.8812 87.6292 71.0612 87.9692 71.2512 88.3092C71.4312 88.6092 71.5712 88.9292 71.6312 89.2792C71.6312 89.2792 71.5812 89.2992 71.5012 89.3192Z" fill="white"/>
<path d="M69.7306 89.6993C69.7306 89.6993 69.7006 89.6993 69.6906 89.6993C69.4906 89.6993 69.2906 89.7193 69.0906 89.6993C68.9806 89.6893 68.9906 89.6493 68.9706 89.5693C68.9506 89.4793 68.9206 89.3993 68.8806 89.3193C68.7906 89.1293 68.6906 88.9393 68.5906 88.7593C68.5606 88.7093 68.5306 88.6593 68.5206 88.6093C68.4906 88.4293 68.6906 88.3693 68.7906 88.2693C68.9006 88.1593 69.0506 88.0593 69.2006 88.1693C69.2406 88.1993 69.2706 88.2493 69.3006 88.2993C69.4206 88.5093 69.5206 88.7393 69.6106 88.9593C69.6906 89.1493 69.8506 89.3893 69.8306 89.5993C69.8306 89.6393 69.8106 89.6893 69.7806 89.7093C69.7706 89.7093 69.7606 89.7193 69.7406 89.7193L69.7306 89.6993Z" fill="white"/>
<path d="M71.34 88.6295C71.29 88.6695 71.24 88.7095 71.21 88.7595C71.01 89.0295 71.41 89.3395 71.73 89.2695C71.8 89.2495 71.86 89.2295 71.91 89.1995C72.7 88.8295 73.49 88.4495 74.28 88.0795C74.32 88.0595 74.37 88.0395 74.39 87.9995C74.42 87.9595 74.39 87.8995 74.39 87.8595C74.33 87.7095 74.29 87.3995 74.14 87.3095C74.01 87.2295 73.78 87.3395 73.65 87.3895C73.42 87.4895 73.21 87.6395 73 87.7595C72.54 88.0195 72.07 88.2695 71.6 88.4995C71.52 88.5395 71.43 88.5795 71.36 88.6395L71.34 88.6295Z" fill="white"/>
<path d="M74.1905 89.8895L67.2305 89.8495C67.2305 89.8495 67.1905 89.8295 67.1805 89.8195C67.1605 89.8095 67.1505 89.7995 67.1305 89.7795C67.0305 89.6795 67.0505 89.5295 67.0505 89.3695C67.0505 89.2695 67.0705 89.1995 67.1005 89.1595C67.1205 89.1295 67.1505 89.1195 67.1805 89.0995H67.6205C67.8405 89.1295 68.0605 89.1495 68.2805 89.1595C68.7405 89.1895 69.1905 89.1795 69.6505 89.1595C69.8805 89.1495 70.1105 89.1295 70.3405 89.1095L73.6205 89.1295C73.9105 89.1295 74.3505 88.8995 74.3705 89.3995C74.3705 89.5795 74.3305 89.7895 74.1905 89.8795V89.8895Z" fill="white"/>
<path d="M72.6607 89.2094C72.7407 89.1594 72.8306 89.1194 72.9206 89.0794C73.1206 88.9894 73.3206 88.9194 73.5106 88.8194C73.6206 88.7594 73.7307 88.6794 73.8407 88.6094C74.2107 88.3494 74.6106 88.1194 74.9206 87.7894C75.3006 87.3894 76.0207 86.8594 75.9607 86.2794C75.8507 85.1894 75.6907 84.0994 75.4807 83.0194C75.3307 82.2494 75.1507 81.4794 74.9807 80.6994C74.5507 78.7694 74.1707 76.8194 73.8007 74.8794C73.2907 72.1794 72.5507 69.3594 72.5707 66.6194C72.5907 64.5194 74.0806 63.0094 76.0606 62.5294C76.7106 62.3694 77.2607 62.2194 77.9307 62.2394C78.8007 62.2694 79.6707 62.2694 80.5407 62.2594C82.2507 62.2294 83.9507 62.0994 85.6507 61.8894C86.7407 61.7494 87.8307 61.5794 88.9307 61.6094C90.0307 61.6394 91.1507 61.8794 92.0507 62.5094C93.1607 63.2794 93.4406 64.8194 92.9906 66.0494C92.6706 66.9294 91.8607 67.5494 91.0007 67.9094C89.8106 68.4094 88.4906 68.4794 87.2006 68.4894C85.7406 68.4894 84.2907 68.4294 82.8307 68.3494C81.9607 68.2994 81.0906 68.2494 80.2406 68.0494C79.5406 67.8894 78.8407 67.9194 78.1207 67.8994C78.2707 67.8994 78.5306 69.7594 78.5606 69.9594C78.6606 70.6394 78.6707 71.2994 78.6807 71.9794C78.7107 73.4494 78.8307 74.9094 78.7907 76.3894C78.7507 77.8794 78.6607 79.3794 78.6107 80.8694C78.5807 81.6194 78.5707 82.3794 78.5707 83.1294C78.5707 83.8194 78.5306 84.5094 78.5306 85.1994C78.5306 86.0394 78.8707 86.7694 79.1107 87.5694C79.1907 87.8294 79.2607 88.0894 79.2607 88.3594C79.2607 88.6094 79.1806 88.9894 78.9206 89.0594C78.5606 89.1494 78.1206 89.0294 77.7406 89.0794C77.6306 89.0994 76.4807 89.2294 76.4807 89.2394C76.0407 89.2794 75.6107 89.4994 75.1807 89.5794C74.7307 89.6694 74.2607 89.6894 73.8007 89.7094C73.5107 89.7194 73.2207 89.7394 72.9307 89.7094C72.7907 89.6994 72.5607 89.6694 72.4807 89.5394C72.4007 89.4094 72.5607 89.2694 72.6607 89.2094Z" fill="#F7967C"/>
<path d="M76.5801 89.2292C76.4501 89.2692 76.0901 89.4292 75.9601 89.3392C75.9101 89.2992 75.8801 89.2492 75.8501 89.1892C75.6101 88.7292 75.3001 88.3092 74.9401 87.9392C74.9001 87.8992 74.8601 87.8592 74.8401 87.8092C74.7701 87.6492 74.9501 87.5392 75.0201 87.4092C75.1001 87.2792 75.2301 87.1392 75.4001 87.2192C75.4501 87.2392 75.4901 87.2792 75.5301 87.3192C75.8001 87.6092 76.0101 87.9292 76.2401 88.2492C76.4401 88.5292 76.6101 88.8292 76.7101 89.1792C76.7101 89.1792 76.6601 89.2092 76.5901 89.2292H76.5801Z" fill="white"/>
<path d="M74.8495 89.7894C74.8495 89.7894 74.8195 89.7894 74.8095 89.7894C74.6095 89.8194 74.4095 89.8494 74.2095 89.8394C74.0995 89.8394 74.0995 89.7994 74.0795 89.7194C74.0495 89.6394 74.0195 89.5594 73.9695 89.4694C73.8595 89.2894 73.7495 89.1094 73.6195 88.9394C73.5895 88.8894 73.5495 88.8494 73.5395 88.7894C73.4895 88.6194 73.6795 88.5294 73.7695 88.4194C73.8695 88.2994 74.0095 88.1794 74.1695 88.2794C74.2195 88.3094 74.2495 88.3594 74.2795 88.3994C74.4195 88.5994 74.5395 88.8094 74.6495 89.0294C74.7495 89.2094 74.9295 89.4394 74.9295 89.6494C74.9295 89.6894 74.9295 89.7394 74.8895 89.7594C74.8795 89.7594 74.8695 89.7694 74.8495 89.7794V89.7894Z" fill="white"/>
<path d="M76.3505 88.5595C76.3505 88.5595 76.2605 88.6495 76.2305 88.6995C76.0605 88.9895 76.4805 89.2595 76.8005 89.1495C76.8605 89.1295 76.9205 89.0895 76.9805 89.0595C77.7305 88.6095 78.4805 88.1595 79.2305 87.7195C79.2705 87.6995 79.3105 87.6695 79.3305 87.6295C79.3505 87.5795 79.3305 87.5295 79.3105 87.4895C79.2405 87.3495 79.1705 87.0495 79.0105 86.9595C78.8805 86.8895 78.6505 87.0195 78.5305 87.0895C78.3105 87.2095 78.1205 87.3795 77.9205 87.5195C77.4905 87.8195 77.0505 88.1095 76.6005 88.3895C76.5205 88.4395 76.4405 88.4895 76.3705 88.5495L76.3505 88.5595Z" fill="white"/>
<path d="M79.3104 89.5496L72.3804 90.1896C72.3804 90.1896 72.3404 90.1796 72.3204 90.1696C72.3004 90.1696 72.2904 90.1496 72.2704 90.1396C72.1604 90.0496 72.1604 89.8996 72.1504 89.7396C72.1504 89.6396 72.1504 89.5696 72.1804 89.5196C72.2004 89.4896 72.2204 89.4696 72.2504 89.4496L72.6804 89.4096C72.9004 89.4096 73.1204 89.4096 73.3404 89.4096C73.8004 89.3896 74.2504 89.3496 74.7004 89.2796C74.9304 89.2496 75.1604 89.2096 75.3804 89.1696L78.6504 88.8696C78.9404 88.8396 79.3504 88.5696 79.4204 89.0696C79.4504 89.2496 79.4204 89.4596 79.2804 89.5596L79.3104 89.5496Z" fill="white"/>
<path d="M73.3111 72.7693C73.1411 71.7593 72.9911 70.7493 72.8611 69.7293C72.7311 68.6993 72.5811 67.6493 72.6311 66.6093C72.6811 65.6093 72.9711 64.5693 73.7111 63.8393C73.7611 63.7893 73.6111 63.7593 73.5711 63.7993C72.1311 65.2193 72.4311 67.4493 72.6411 69.2593C72.8811 71.3293 73.2211 73.3893 73.6611 75.4293C73.9111 76.5693 74.1811 77.7093 74.4911 78.8393C74.5011 78.8893 74.6611 78.8793 74.6411 78.8193C74.1011 76.8193 73.6611 74.7993 73.3011 72.7593L73.3111 72.7693Z" fill="#DB6357"/>
<path d="M94.2901 69.5198C93.9301 70.0598 93.4801 70.5598 93.1901 71.1398C92.8701 71.7798 92.7501 72.5098 92.6601 73.2198C92.6601 73.2498 92.6601 73.2798 92.6501 73.3098C92.6101 73.6298 92.5801 73.9498 92.5401 74.2698C92.3601 76.1398 92.3101 78.0198 92.4101 79.8998C92.4101 80.0698 92.4101 81.6298 92.3301 81.6298C91.2501 81.5898 90.1701 81.5498 89.0801 81.4998C88.7701 81.4898 88.4701 81.4798 88.1601 81.4598C86.3601 81.3898 84.5701 81.3198 82.7701 81.2498C82.5801 81.2498 82.3901 81.2398 82.2001 81.2198C81.9401 81.1998 81.6801 81.1498 81.4301 81.0698C81.4101 81.0698 81.3801 81.0498 81.3601 81.0398C80.0201 80.5298 79.4301 78.9498 78.3801 77.9498C77.9101 77.5098 77.3501 77.1698 76.7301 76.9798C76.5701 76.9298 76.4001 76.8898 76.2301 76.8598C76.2501 76.6098 76.2701 76.3498 76.3001 76.0998C76.4901 74.1698 76.7701 72.2398 77.0301 70.3298C77.2701 68.6098 77.8701 66.8598 79.2201 65.6998C79.9301 65.0898 80.8101 64.7198 81.7001 64.4098C81.9101 64.3398 82.1201 64.2698 82.3301 64.1998C82.2001 64.1798 82.0601 64.1698 81.9301 64.1498C80.2101 63.9498 78.5001 63.7398 76.7801 63.5398C76.6301 63.5198 76.4801 63.4998 76.3201 63.4898C76.0601 63.4598 75.8001 63.4298 75.5401 63.4198C74.8501 63.3798 74.1601 63.4298 73.5901 63.7998C72.7201 64.3698 72.4201 65.4898 72.3001 66.5198C72.2101 67.3098 72.1901 68.1098 72.2501 68.8998C72.2701 69.2098 72.3001 69.5098 72.3401 69.8198C72.5101 71.0998 72.7801 72.3598 72.7701 73.6598C72.7701 73.6898 72.7701 73.7098 72.7701 73.7398C72.7701 73.7698 72.7701 73.8098 72.7501 73.8298C72.7201 73.8698 72.6601 73.8498 72.6101 73.8398C72.3701 73.7698 72.1301 73.6898 71.8901 73.6098C71.0501 73.3298 70.2201 72.9898 69.4201 72.5998C69.2701 72.5298 69.1201 72.4498 69.0401 72.3098C68.9601 72.1798 68.9601 72.0198 68.9601 71.8698C68.9601 71.1998 68.9401 70.4998 68.9601 69.7998C68.9601 69.5098 68.9801 69.2198 69.0001 68.9298C69.1001 67.4698 69.3701 66.0198 70.0601 64.7398C70.1301 64.6098 70.2101 64.4798 70.2901 64.3598C70.4901 64.0598 70.7301 63.7998 71.0101 63.5798C71.6001 63.1298 72.4001 62.9698 73.1101 62.7798C73.9101 62.5598 74.7301 62.4298 75.5501 62.2998C76.8701 62.0898 78.2001 61.9198 79.5301 61.7898C79.7601 61.7698 79.9901 61.7498 80.2101 61.7198C80.8701 61.6598 81.5201 61.6098 82.1801 61.5598C82.4001 61.5498 82.6301 61.5298 82.8301 61.4398C83.2801 61.2298 83.4601 60.6898 83.5601 60.1998C83.6901 59.5198 83.7401 58.8298 83.7001 58.1398C83.6901 57.8798 83.6801 57.5698 83.8801 57.4098C83.9801 57.3398 84.1001 57.3098 84.2201 57.2898C85.9001 56.9798 87.6101 56.8098 89.2001 56.1998C90.2101 55.8198 90.6301 55.7798 91.5401 56.2598C92.5801 56.8098 93.0901 57.3598 93.6601 58.4098C95.4201 61.6398 96.4601 66.2498 94.2701 69.5298L94.2901 69.5198Z" fill="white"/>
<path d="M94.4906 50.6695C94.2306 53.3295 94.0407 55.9995 93.8607 58.6695C93.7907 59.6395 93.8207 60.9495 93.3207 61.8195C92.9607 62.4495 91.9006 62.2195 91.2106 62.3195C90.4806 62.4195 89.7506 62.5095 89.0206 62.5695C87.7706 62.6695 86.5007 62.6895 85.2607 62.5295C84.8507 62.4795 83.8507 62.5395 83.7207 62.0795C83.5207 61.3795 83.4507 60.6595 83.3707 59.9395C83.1407 57.7795 83.0207 55.6395 82.8707 53.4895C82.8507 53.1795 82.8207 52.8595 82.7907 52.5495C82.7307 51.9295 82.5807 51.2295 82.7307 50.5995C82.9007 49.8695 83.4207 49.2695 83.9707 48.7495C84.8507 47.9195 85.8407 47.2095 86.8607 46.5395C87.0907 46.3895 87.3207 46.2395 87.5507 46.0995C87.6707 46.0195 87.8006 45.9395 87.9206 45.8595C88.7706 45.3195 89.6207 44.7895 90.5507 44.3895C91.1707 44.1195 92.3807 43.4895 92.9707 43.9795C94.2407 45.0095 94.5606 46.7295 94.6006 48.2795C94.6206 49.0795 94.5606 49.8695 94.4906 50.6695Z" fill="white"/>
<path d="M68.4609 49.7595C68.6109 50.2895 68.7709 50.8095 68.9209 51.3395C68.9309 51.3795 68.9409 51.4195 68.9709 51.4495C68.9909 51.4695 69.0209 51.4895 69.0509 51.5095C69.0709 51.5095 69.0809 51.5195 69.1009 51.5295C70.0309 51.8895 70.9709 52.2495 71.9109 52.5895C72.3509 52.7495 72.7909 52.9095 73.2309 53.0695C73.2609 53.0795 73.2909 53.0895 73.3209 53.0995C73.4609 53.1495 74.1709 53.4395 74.2909 53.2995C74.2909 53.2995 74.3009 53.2795 74.3109 53.2695C74.3309 53.2195 74.3109 53.1595 74.3109 53.0995C74.2009 52.7695 74.0309 52.4695 73.8109 52.1895L73.6809 52.3495C73.4609 52.0595 73.2109 51.7895 72.9409 51.5395C72.3409 50.9895 71.6409 50.5495 70.8809 50.2395C70.1309 49.9295 69.3209 49.7595 68.5009 49.7495C68.5009 49.7495 68.4809 49.7495 68.4709 49.7495L68.4609 49.7595Z" fill="white"/>
<path d="M73.9709 53.4697C74.0609 53.4897 74.1409 53.5097 74.2309 53.5297C74.3609 53.5597 74.5109 53.6097 74.6209 53.5297C74.7009 53.4797 74.7309 53.3697 74.7209 53.2797C74.7009 53.1897 74.6509 53.0997 74.5809 53.0397C74.4109 52.8797 74.2509 52.8897 74.0409 52.8697C73.9309 52.8597 73.8109 52.7997 73.7109 52.7597C73.4509 52.6597 73.2009 52.5597 72.9409 52.4697C72.2309 52.2097 71.5209 51.9597 70.8109 51.7297C69.9409 51.4497 69.0609 51.1797 68.1609 51.0397C68.0809 51.0297 68.0009 51.0897 67.9909 51.1697L67.9609 51.4497C67.9609 51.5297 68.0109 51.5997 68.0909 51.6197C69.5309 51.8397 70.9409 52.3597 72.3009 52.8597C72.8509 53.0597 73.4209 53.3297 73.9909 53.4797L73.9709 53.4697Z" fill="#7FAFC6"/>
<path d="M73.2401 53.0696C73.2701 53.1296 73.3201 53.1896 73.3901 53.2096L82.6801 56.8596C82.7801 56.8996 82.9001 56.8596 82.9701 56.7796L85.9701 52.9096C86.0601 52.7896 86.0301 52.6096 85.9001 52.5296L77.6901 47.8296C77.5801 47.7696 77.4501 47.7896 77.3701 47.8896L73.8101 52.1896L73.6801 52.3496L73.5801 52.4696L73.2901 52.8196C73.2401 52.8796 73.2201 52.9596 73.2401 53.0296C73.2401 53.0396 73.2401 53.0496 73.2501 53.0596L73.2401 53.0696Z" fill="#7FAFC6"/>
<path d="M78.8603 50.1796C78.6903 50.0896 78.5403 49.9595 78.3603 49.8795C78.2003 49.8095 77.9603 49.6295 77.7803 49.7095C77.7703 49.7095 77.7603 49.7195 77.7403 49.7295C77.7003 49.7595 77.6703 49.7995 77.6403 49.8295C77.2903 50.2695 76.9703 50.7296 76.6303 51.1796C76.4603 51.4096 76.3003 51.6296 76.1203 51.8496C76.0103 51.9896 75.6603 52.2495 75.7903 52.4695C75.8203 52.5095 75.8603 52.5395 75.9003 52.5695C76.3003 52.8295 76.7203 53.0696 77.1503 53.2796C77.2703 53.3396 77.3903 53.3895 77.5203 53.3795C77.6803 53.3695 77.8003 53.2595 77.8903 53.1395C78.3103 52.6295 78.6703 52.0696 79.0503 51.5196C79.1903 51.3196 79.3503 51.1396 79.4803 50.9296C79.5303 50.8596 79.5703 50.7696 79.5603 50.6896C79.5203 50.4396 79.1303 50.3095 78.9303 50.2195C78.9003 50.2095 78.8703 50.1895 78.8303 50.1696L78.8603 50.1796Z" fill="#55788E"/>
<path d="M97.4798 35.8395C97.5298 35.5995 97.7398 35.5595 97.8798 35.3995C98.0098 35.2595 98.0698 35.0595 98.0798 34.8695C98.0798 34.5995 97.9898 34.2995 97.8998 34.0495C97.8098 33.8095 97.6098 33.7695 97.3998 33.6395C97.0598 33.4095 97.2698 33.1695 97.2398 32.8495C97.2198 32.6395 97.0698 32.4595 96.8798 32.3595C96.6898 32.2595 96.4798 32.2195 96.2698 32.1995C96.0098 32.1695 95.6998 32.1295 95.5998 31.8895C95.5398 31.7595 95.5598 31.6195 95.5498 31.4795C95.5198 31.1095 95.1898 30.7795 94.8198 30.7495C94.4498 30.7095 94.0098 30.9095 93.7398 30.6595C93.6498 30.5795 93.6098 30.4595 93.5398 30.3595C93.2898 29.9895 92.6998 29.9095 92.3698 30.1995C92.1098 30.4295 91.9798 30.8395 91.6098 30.8495C91.2298 30.8595 90.9498 30.8495 90.6398 31.1495C90.3898 31.3995 90.2698 31.7895 90.3598 32.1295C90.4598 32.4795 90.7598 32.8295 90.6098 33.1495C90.5498 33.2795 90.4298 33.3695 90.3398 33.4695C90.1198 33.7295 90.1198 34.1795 90.3998 34.3795C90.5998 34.5195 90.8798 34.5095 91.0598 34.6695C91.2698 34.8695 91.2298 35.2095 91.2498 35.4995C91.2898 36.0795 91.6898 36.6195 92.2398 36.8395C92.5098 36.9395 92.8698 36.9795 93.0698 37.2095C93.4598 37.6295 93.3698 38.3295 93.8098 38.7095C93.8998 38.7895 94.0198 38.8395 94.1398 38.8095C94.2198 38.7895 94.2898 38.7195 94.3598 38.6695C94.6298 38.5195 94.9598 38.6895 95.2698 38.6895C95.5198 38.6895 95.7698 38.5595 95.9198 38.3495C96.0898 38.1095 96.1298 37.7695 96.3598 37.5795C96.5398 37.4395 96.7898 37.4295 96.9998 37.3395C97.2698 37.2195 97.4698 36.9595 97.4998 36.6695C97.5398 36.3995 97.4398 36.1295 97.4998 35.8595L97.4798 35.8395Z" fill="#9E554E"/>
<path d="M87.8996 41.5491C87.8996 41.5491 87.8996 41.5491 87.8996 41.5591C87.9096 41.6291 87.9196 41.6891 87.9296 41.7591C88.0196 42.2991 88.1596 42.8091 88.2596 43.3491C88.2696 43.4191 88.2896 43.4891 88.2996 43.5591C88.3396 43.8291 88.2696 44.0891 88.1996 44.3491C88.1496 44.5291 87.9796 44.8491 88.2196 44.9691C88.3296 45.0291 88.4696 44.9891 88.5796 44.9491C88.8296 44.8591 89.0796 44.7391 89.3096 44.6091C89.6496 44.4091 89.9696 44.1191 90.3396 43.9791C90.7696 43.8191 91.2596 43.7591 91.7096 43.7691C91.8396 43.7691 91.9696 43.7791 92.0896 43.7491C92.2096 43.7091 92.3296 43.6091 92.3396 43.4891C92.3396 43.4291 92.3196 43.3591 92.2996 43.2991C92.1596 42.9091 92.0196 42.5191 91.8896 42.1291C91.7796 41.8091 91.6196 41.5091 91.5196 41.1891C91.3896 40.7291 91.2496 40.1991 90.6396 40.3091C90.3796 40.3491 90.1596 40.2991 89.8896 40.3091C89.4996 40.3091 89.0896 40.4091 88.7396 40.5891C88.2996 40.8091 87.7996 40.9991 87.8796 41.5591L87.8996 41.5491Z" fill="#F7967C"/>
<path d="M87.9004 41.5489C87.9004 41.5489 87.9004 41.5489 87.9004 41.5589C87.9104 41.6289 87.9204 41.6889 87.9304 41.7589C88.0204 42.2989 88.1604 42.8089 88.2604 43.3489C88.6404 43.1789 88.9604 42.8989 89.1804 42.5389C89.2604 42.4089 89.3304 42.2689 89.3404 42.1189C89.3804 41.6189 88.8804 41.4189 88.4604 41.4189C88.2504 41.4189 88.0604 41.4589 87.9004 41.5389V41.5489Z" fill="#DB6357"/>
<path d="M86.4599 36.1993C85.8499 37.1393 86.6399 38.4293 85.7499 38.9693C85.5299 39.1693 85.1799 39.3893 85.1699 39.7193C85.1799 39.8793 85.3199 39.9893 85.4399 40.0893C85.6899 40.2893 85.7199 40.6893 85.7299 40.9793C85.7399 41.6293 85.6899 42.2793 86.3999 42.5693C87.0899 42.8593 87.9399 42.6293 88.5799 42.3093C88.8599 42.1693 89.1199 41.9893 89.3399 41.7793C89.5499 41.5893 89.7999 41.3493 89.9099 41.0793C90.0499 40.7593 90.3699 40.7793 90.6699 40.8693C90.9299 40.9293 91.3299 40.9893 91.5599 40.8193C91.8199 40.6193 91.9899 40.3393 92.1599 40.0493C92.3099 39.7893 92.4599 39.5293 92.5899 39.2593C92.7299 38.9593 92.7399 38.6793 92.7199 38.3593C92.6599 37.4393 92.6399 36.4693 91.9199 35.7893C90.4299 34.1393 87.5499 34.0693 86.4799 36.1793L86.4599 36.1993Z" fill="#F7967C"/>
<path d="M87.7203 38.0393C87.7203 38.0393 87.7403 38.0193 87.7403 38.0093C87.7403 37.9893 87.7403 37.9693 87.7403 37.9493C87.7003 37.8093 87.5703 37.7093 87.4603 37.6293C87.3403 37.5393 87.2203 37.4493 87.0903 37.3993C86.9503 37.3493 86.8003 37.3293 86.6603 37.3993C86.5303 37.4593 86.4503 37.6293 86.5403 37.7593C86.5903 37.8193 86.6803 37.8293 86.7603 37.8393C86.9903 37.8393 87.2403 37.8393 87.4403 37.9593C87.4903 37.9893 87.6603 38.0893 87.7303 38.0393H87.7203Z" fill="#7F3D3D"/>
<path d="M86.6502 38.4692C86.6802 38.3492 86.7802 38.2592 86.8902 38.2992C87.0402 38.3592 87.0202 38.6492 86.9802 38.7892C86.9802 38.9592 86.8102 39.0292 86.7002 38.9292C86.6002 38.8192 86.6002 38.6092 86.6402 38.4692H86.6502Z" fill="#723737"/>
<path d="M92.5404 34.8794C92.3104 34.6994 92.0604 34.5694 91.8004 34.4494C90.9204 34.0594 89.8204 33.9694 88.8704 34.1294C88.2304 34.2394 87.2504 34.3494 87.0104 35.0594C86.9304 35.2894 86.9904 35.5894 87.2104 35.6994C87.4204 35.8094 87.7304 35.7194 87.8804 35.8994C88.0404 36.0794 87.9004 36.3494 87.9104 36.5894C87.9104 36.7994 88.0404 36.9994 88.2204 37.0894C88.4404 37.1994 88.7304 37.1794 88.8804 37.3794C89.0304 37.5794 88.9104 37.8694 88.9204 38.1194C88.9504 38.5594 89.3304 38.5994 89.5404 38.8894C89.7004 39.1094 89.8004 39.3594 89.8904 39.6094C89.9304 39.7094 89.9704 39.7994 90.0304 39.8894L89.9804 39.8494C90.0404 40.0294 90.1104 40.1994 90.2004 40.3694C90.4604 40.8494 90.9104 41.3094 91.4004 41.5394C91.5404 41.6094 91.6704 41.6094 91.7804 41.5694C92.1304 41.4494 92.3504 40.9294 92.5504 40.6194C93.0004 39.9294 93.3804 39.1794 93.5604 38.3694C93.8404 37.1194 93.5404 35.6594 92.5304 34.8694L92.5404 34.8794Z" fill="#9E554E"/>
<path d="M88.9601 38.7095C89.1701 38.4995 89.5301 38.4495 89.7801 38.6095C90.0101 38.7495 90.1201 39.0295 90.1301 39.2995C90.1401 39.5695 90.0401 39.8295 89.9301 40.0695C89.8401 40.2595 89.7401 40.4395 89.6301 40.6095C89.5401 40.7495 89.4301 40.8895 89.2601 40.8995C89.1001 40.9095 88.9701 40.7895 88.8801 40.6595C88.6801 40.3395 88.6801 39.9595 88.7201 39.5995C88.7501 39.2895 88.7201 38.9395 88.9601 38.7095Z" fill="#F7967C"/>
<path d="M89.6297 42.5997C89.3797 42.5997 89.1397 42.4797 88.9597 42.2597C88.7797 42.0397 88.6797 41.7497 88.6797 41.4297C88.6797 40.7797 89.0997 40.2497 89.6197 40.2397C90.1397 40.2397 90.5697 40.7597 90.5797 41.4097C90.5797 41.7197 90.4897 42.0197 90.3097 42.2397C90.1297 42.4697 89.8897 42.5897 89.6397 42.5997H89.6297ZM89.6297 40.5697C89.2597 40.5697 88.9597 40.9597 88.9597 41.4297C88.9597 41.6597 89.0297 41.8797 89.1697 42.0397C89.2997 42.1997 89.4597 42.2797 89.6397 42.2797C89.8197 42.2797 89.9897 42.1897 90.1097 42.0297C90.2397 41.8697 90.3097 41.6497 90.3097 41.4197C90.3097 40.9497 89.9997 40.5697 89.6297 40.5697Z" fill="#243976"/>
<path d="M87.0292 40.8197C87.0292 40.8197 87.0493 40.7597 87.0493 40.7397C87.0593 40.6697 87.0493 40.5797 87.0093 40.5297C86.9493 40.4597 86.8393 40.4597 86.7593 40.4897C86.6693 40.5197 86.5992 40.5797 86.5192 40.6097C86.4492 40.6397 86.3693 40.6697 86.2993 40.6697C86.2293 40.6697 86.1692 40.6497 86.0992 40.6797C85.9292 40.7597 85.9593 41.1297 86.0793 41.2297C86.1293 41.2797 86.1992 41.2997 86.2692 41.3097C86.5092 41.3297 86.7193 41.2297 86.8893 41.0597C86.9593 40.9897 87.0093 40.9097 87.0393 40.8197H87.0292Z" fill="white"/>
<path d="M92.7807 35.3795C92.7807 35.3795 92.6007 35.3495 92.6207 35.3995C93.2507 36.4595 93.2707 37.8295 92.6707 38.8995C92.6407 38.9495 92.8007 38.9795 92.8207 38.9295C93.4307 37.8395 93.4107 36.4495 92.7707 35.3795H92.7807Z" fill="#7F3D3D"/>
<path d="M92.5108 36.0496C92.4908 35.9996 92.3308 36.0096 92.3508 36.0696C92.5208 36.5696 92.4708 37.1196 92.2108 37.5796C92.1808 37.6296 92.3408 37.6596 92.3608 37.6096C92.6208 37.1396 92.6708 36.5696 92.5008 36.0596L92.5108 36.0496Z" fill="#7F3D3D"/>
<path d="M91.4809 31.2698C91.4809 31.2698 91.4009 31.2698 91.3709 31.2798C91.0509 31.4798 90.9109 31.8998 91.0309 32.2498C91.0509 32.2998 91.2109 32.2898 91.1909 32.2298C91.0809 31.8998 91.2209 31.5098 91.5109 31.3198C91.5409 31.2998 91.5109 31.2698 91.4809 31.2598V31.2698Z" fill="#7F3D3D"/>
<path d="M91.6808 31.67C91.5508 31.87 91.5208 32.12 91.6008 32.34C91.6208 32.39 91.7808 32.39 91.7608 32.32C91.6908 32.11 91.7208 31.88 91.8408 31.69C91.8708 31.64 91.7208 31.62 91.6908 31.66L91.6808 31.67Z" fill="#7F3D3D"/>
<path d="M96.3804 33.0896C96.3504 32.8896 96.2504 32.6696 96.0404 32.6096C96.0104 32.5996 95.9604 32.5996 95.9304 32.6196C95.9004 32.6396 95.9304 32.6696 95.9604 32.6796C96.1404 32.7396 96.2004 32.9596 96.2304 33.1196C96.2604 33.3396 96.2404 33.6096 96.0404 33.7396C96.0104 33.7596 96.0404 33.7896 96.0704 33.7996C96.1104 33.8096 96.1504 33.7996 96.1804 33.7896C96.4104 33.6496 96.4304 33.3496 96.3904 33.0996L96.3804 33.0896Z" fill="#7F3D3D"/>
<path d="M95.8418 32.9499C95.8318 32.8999 95.6718 32.8999 95.6818 32.9699C95.7518 33.2199 95.6818 33.4999 95.5218 33.6899C95.4718 33.7499 95.6218 33.7799 95.6618 33.7399C95.8518 33.5299 95.9218 33.2299 95.8418 32.9499Z" fill="#7F3D3D"/>
<path d="M95.7914 35.6397C95.7914 35.5797 95.6214 35.5797 95.6314 35.6397C95.6514 35.8297 95.6514 36.0397 95.5714 36.2197C95.5114 36.3597 95.4014 36.4997 95.2514 36.5497C95.2214 36.5497 95.1914 36.5797 95.2214 36.5997C95.2414 36.6197 95.3014 36.6297 95.3314 36.6197C95.5014 36.5597 95.6414 36.4397 95.7214 36.2697C95.8114 36.0697 95.8214 35.8497 95.8014 35.6397H95.7914Z" fill="#7F3D3D"/>
<path d="M94.8607 35.1596C94.8607 35.1596 94.8107 35.1196 94.7807 35.1196C94.7607 35.1196 94.6907 35.1196 94.7007 35.1596C94.7207 35.2496 94.7007 35.3496 94.6507 35.4296C94.6307 35.4696 94.6007 35.4996 94.5607 35.5296C94.5407 35.5496 94.5307 35.5596 94.5107 35.5596C94.5007 35.5596 94.4907 35.5696 94.4807 35.5696H94.4707C94.4707 35.5696 94.4707 35.5696 94.4607 35.5696C94.4407 35.5696 94.4007 35.5996 94.4307 35.6196C94.4607 35.6496 94.5107 35.6496 94.5407 35.6396C94.7507 35.5796 94.9107 35.3696 94.8707 35.1496L94.8607 35.1596Z" fill="#7F3D3D"/>
<path d="M91.3004 34.7696C91.5004 34.8796 91.6704 35.0096 91.8704 35.1296C92.0804 35.2596 92.3104 35.3396 92.5504 35.3796C92.5804 35.3796 92.6104 35.3796 92.6304 35.3796C92.6604 35.3596 92.6804 35.3296 92.6904 35.2996C92.7604 35.0896 92.7504 34.8796 92.6604 34.6796C92.5604 34.4596 92.5004 34.2296 92.3804 34.0196C92.1604 33.6296 91.7904 33.3196 91.3704 33.1696C91.1304 33.0896 90.8704 33.0596 90.6204 33.1296C90.2604 33.2396 90.0204 33.5896 90.1304 33.9696C90.2004 34.1996 90.4204 34.3596 90.6504 34.4596C90.8604 34.5496 91.0604 34.6596 91.2604 34.7596C91.2704 34.7596 91.2904 34.7796 91.3004 34.7796V34.7696Z" fill="#F26061"/>
<path d="M85.3201 49.7496C85.3201 49.7496 85.3001 49.6696 85.2701 49.6396C85.2201 49.5896 85.1301 49.5696 85.0601 49.5596C84.9801 49.5596 84.8901 49.5596 84.8201 49.5996C84.7801 49.6196 84.7401 49.6496 84.7301 49.6996C84.5201 49.9696 84.4201 50.3196 84.5001 50.6596C84.5201 50.7496 84.6101 50.7796 84.7001 50.7896C84.7501 50.7896 84.7901 50.7896 84.8401 50.7896C84.8901 50.7896 84.9701 50.7596 85.0001 50.7296C85.1701 50.5496 85.2801 50.3296 85.3201 50.0896C85.3401 49.9796 85.3501 49.8596 85.3201 49.7596V49.7496Z" fill="#7FAFC6"/>
<path d="M87.581 46.5196C87.581 46.6196 87.581 46.7496 87.521 46.8296C87.441 46.9396 87.301 46.9696 87.171 46.9596C87.071 46.9596 86.951 46.9196 86.891 46.8196C86.851 46.7396 86.851 46.6296 86.861 46.5396C87.091 46.3896 87.321 46.2396 87.551 46.0996C87.571 46.2296 87.591 46.3696 87.581 46.5096V46.5196Z" fill="#7FAFC6"/>
<path d="M93.9503 45.9394C93.9503 45.7894 93.8903 45.6394 93.8203 45.5094C93.7903 45.4694 93.7703 45.4294 93.7303 45.3894C93.6803 45.3294 93.5903 45.2994 93.5103 45.2894C93.4103 45.2794 93.2503 45.2894 93.1703 45.3594C93.1403 45.3894 93.1203 45.4294 93.1203 45.4694C93.1103 45.4894 93.0903 45.5094 93.0903 45.5294C93.0603 45.6994 93.0803 45.8594 93.1303 46.0194C93.1603 46.0994 93.1903 46.1694 93.2503 46.2294C93.3403 46.3194 93.4703 46.3494 93.5903 46.3494C93.7103 46.3494 93.8903 46.2994 93.9303 46.1694C93.9503 46.0894 93.9603 46.0094 93.9503 45.9294V45.9394Z" fill="#7FAFC6"/>
<path d="M93.3912 56.9993C93.3912 56.9993 93.3812 56.9593 93.3612 56.9393C93.3612 56.9093 93.3612 56.8893 93.3312 56.8593C93.2912 56.8193 93.2212 56.7993 93.1712 56.7993C93.1012 56.7993 93.0312 56.7993 92.9612 56.8093C92.9212 56.8193 92.8512 56.8493 92.8412 56.8893C92.8012 57.0093 92.7712 57.1393 92.7512 57.2593C92.7412 57.3193 92.7312 57.3793 92.7212 57.4393C92.7212 57.4893 92.7112 57.5393 92.7212 57.5793C92.7312 57.6493 92.7712 57.7093 92.8412 57.7393C92.9712 57.7993 93.1412 57.7993 93.2712 57.7393C93.3912 57.6693 93.4012 57.5493 93.4012 57.4193C93.4012 57.2793 93.4012 57.1393 93.4012 56.9993H93.3912Z" fill="#7FAFC6"/>
<path d="M89.3998 60.4297C89.3298 60.3397 89.1798 60.3097 89.0698 60.3297C88.9798 60.3497 88.8898 60.3697 88.8398 60.4597C88.8198 60.4997 88.8198 60.5397 88.8398 60.5897C88.8198 60.7297 88.8098 60.8597 88.8498 60.9997C88.8998 61.1497 89.0198 61.2397 89.1598 61.2897C89.2398 61.3197 89.3498 61.3097 89.4298 61.2897C89.4898 61.2697 89.5498 61.2397 89.5598 61.1697C89.6098 60.9197 89.5598 60.6397 89.3998 60.4297Z" fill="#7FAFC6"/>
<path d="M84.5805 61.3595C84.5805 61.3595 84.5405 61.2795 84.5005 61.2595C84.5005 61.2295 84.4805 61.1895 84.4705 61.1695C84.4305 61.1295 84.3605 61.1095 84.3105 61.1095C84.1905 61.0995 84.0605 61.1095 83.9805 61.2095C83.9005 61.2995 83.8405 61.4095 83.8005 61.5195C83.7605 61.6395 83.7305 61.7695 83.7305 61.8995C83.7305 61.9695 83.7505 62.0295 83.8105 62.0795C83.8605 62.1295 83.9405 62.1495 84.0105 62.1595C84.0905 62.1695 84.1705 62.1595 84.2505 62.1395C84.4105 62.0895 84.4905 61.9595 84.5405 61.8095C84.5905 61.6595 84.6105 61.5095 84.5905 61.3595H84.5805Z" fill="#7FAFC6"/>
<path d="M94.4405 63.2196C94.3905 63.0696 94.2905 62.9496 94.1505 62.8696C94.1005 62.8396 94.0205 62.8296 93.9605 62.8296C93.9005 62.8296 93.8205 62.8296 93.7705 62.8696C93.7505 62.8796 93.7205 62.8996 93.7005 62.9296C93.6605 62.9396 93.6005 62.9696 93.5805 63.0096C93.5305 63.1596 93.5305 63.3096 93.5805 63.4596C93.6205 63.6096 93.7105 63.7496 93.8505 63.8196C93.9905 63.8896 94.1905 63.8996 94.3305 63.8196C94.4205 63.7696 94.4605 63.6996 94.4705 63.5996C94.4905 63.4696 94.4705 63.3296 94.4305 63.2096L94.4405 63.2196Z" fill="#7FAFC6"/>
<path d="M86.7601 66.0492C86.7601 66.0492 86.7501 66.0292 86.7301 66.0192C86.7401 65.9992 86.7601 65.9792 86.7701 65.9592C86.8001 65.9292 86.7701 65.8792 86.7401 65.8492C86.7001 65.8092 86.6301 65.7892 86.5801 65.7892C86.4601 65.7792 86.3301 65.7892 86.2501 65.8892C86.1301 66.0292 86.0401 66.1892 85.9701 66.3592C85.9401 66.4392 85.9101 66.5292 85.8801 66.6092C85.8601 66.6892 85.8301 66.7792 85.8301 66.8692C85.8301 66.9492 85.8601 67.0292 85.9201 67.0792C86.0501 67.1892 86.2801 67.1892 86.4201 67.1192C86.5901 67.0492 86.6901 66.8292 86.7401 66.6592C86.8001 66.4492 86.8001 66.2492 86.7401 66.0492H86.7601Z" fill="#7FAFC6"/>
<path d="M72.7801 73.6393C72.7801 73.6393 72.7801 73.6893 72.7801 73.7193C72.7801 73.7493 72.7801 73.7893 72.7601 73.8093C72.7301 73.8493 72.6701 73.8293 72.6201 73.8193C72.3801 73.7493 72.1401 73.6693 71.9001 73.5893C71.8901 73.4893 71.9001 73.3893 71.9401 73.3093C72.0201 73.1693 72.1901 73.0193 72.3601 73.0293C72.4401 73.0293 72.5101 73.0793 72.5601 73.1393C72.6201 73.2093 72.6501 73.2893 72.6901 73.3693C72.7301 73.4493 72.7601 73.5393 72.7801 73.6193C72.7801 73.6193 72.7801 73.6193 72.7801 73.6293V73.6393Z" fill="#7FAFC6"/>
<path d="M91.0108 70.9796C91.0108 70.9796 90.9708 70.8896 90.9408 70.8496C90.8708 70.7596 90.7908 70.7196 90.6808 70.6996C90.5708 70.6796 90.4208 70.6996 90.3308 70.7796C90.2708 70.7996 90.2208 70.8296 90.2108 70.8896C90.1708 71.1696 90.2908 71.4596 90.5008 71.6396C90.5708 71.6996 90.6808 71.7096 90.7708 71.7096C90.8108 71.7096 90.8608 71.6996 90.9008 71.6796C90.9308 71.6696 90.9808 71.6496 91.0008 71.6096C91.1008 71.4096 91.1008 71.1796 91.0208 70.9796H91.0108Z" fill="#7FAFC6"/>
<path d="M91.9698 79.3194C91.9698 79.3194 91.9298 79.2294 91.8998 79.1894C91.8298 79.0994 91.7498 79.0594 91.6398 79.0394C91.5298 79.0194 91.3798 79.0394 91.2898 79.1194C91.2298 79.1394 91.1798 79.1694 91.1698 79.2294C91.1298 79.5094 91.2498 79.7994 91.4598 79.9794C91.5298 80.0394 91.6398 80.0494 91.7298 80.0494C91.7698 80.0494 91.8198 80.0394 91.8598 80.0194C91.8898 80.0094 91.9398 79.9894 91.9598 79.9494C92.0598 79.7494 92.0598 79.5194 91.9798 79.3194H91.9698Z" fill="#7FAFC6"/>
<path d="M80.8712 68.0295C80.8012 67.9695 80.6912 67.9595 80.6012 67.9595C80.5512 67.9595 80.4812 67.9695 80.4312 67.9995C80.3512 68.0095 80.2612 68.0495 80.2412 68.1295C80.2112 68.3195 80.1912 68.5095 80.2712 68.6895C80.3512 68.8795 80.5312 68.9895 80.7312 69.0295C80.7912 69.0395 80.8812 69.0295 80.9412 69.0195C80.9812 69.0095 81.0412 68.9795 81.0612 68.9395C81.2012 68.6295 81.1112 68.2495 80.8612 68.0295H80.8712Z" fill="#7FAFC6"/>
<path d="M92.661 73.3096C92.621 73.6296 92.591 73.9496 92.551 74.2696C92.471 74.2096 92.401 74.1396 92.361 74.0396C92.281 73.8596 92.301 73.6696 92.331 73.4796C92.341 73.3996 92.431 73.3596 92.521 73.3496C92.561 73.3296 92.621 73.3096 92.661 73.3096Z" fill="#7FAFC6"/>
<path d="M85.4404 71.3895C85.4304 71.3195 85.4104 71.2495 85.3704 71.1995C85.2904 71.0995 85.1404 71.0695 85.0104 71.0795C84.9104 71.0795 84.7704 71.1195 84.7204 71.2295C84.7204 71.2395 84.7204 71.2495 84.7204 71.2595C84.5204 71.5195 84.4104 71.8395 84.4404 72.1695C84.4404 72.2395 84.5104 72.2695 84.5704 72.2895C84.6504 72.3195 84.7604 72.3195 84.8404 72.2895C85.0904 72.1995 85.3104 72.0195 85.4004 71.7595C85.4404 71.6395 85.4604 71.5195 85.4404 71.3995V71.3895Z" fill="#7FAFC6"/>
<path d="M82.2913 81.0494C82.2713 81.1094 82.2413 81.1694 82.2013 81.2294C81.9413 81.2094 81.6813 81.1594 81.4313 81.0794C81.4113 81.0794 81.3813 81.0594 81.3613 81.0494C81.4013 80.8694 81.4913 80.6994 81.6113 80.5594C81.6113 80.5494 81.6113 80.5394 81.6113 80.5294C81.6513 80.4194 81.7913 80.3794 81.9013 80.3794C82.0313 80.3794 82.1713 80.3994 82.2613 80.4994C82.3113 80.5594 82.3213 80.6194 82.3313 80.6894C82.3513 80.8094 82.3313 80.9394 82.2913 81.0494Z" fill="#7FAFC6"/>
<path d="M76.9 76.7196C76.87 76.8196 76.81 76.9095 76.75 76.9795C76.59 76.9295 76.42 76.8896 76.25 76.8596C76.27 76.6096 76.29 76.3495 76.32 76.0995C76.38 76.0595 76.46 76.0496 76.52 76.0396C76.65 76.0396 76.79 76.0595 76.88 76.1595C76.93 76.2195 76.94 76.2795 76.95 76.3495C76.97 76.4695 76.95 76.5995 76.91 76.7095L76.9 76.7196Z" fill="#7FAFC6"/>
<path d="M88.891 74.8395C88.891 74.8395 88.8311 74.7595 88.8011 74.7295C88.7711 74.6995 88.731 74.6695 88.681 74.6595C88.681 74.6595 88.631 74.5795 88.601 74.5595C88.551 74.5295 88.4711 74.5195 88.4111 74.5195C88.3511 74.5195 88.2811 74.5195 88.2211 74.5595C88.2111 74.5595 88.191 74.5795 88.181 74.5895C88.161 74.6095 88.151 74.6295 88.141 74.6595C88.111 74.7895 88.131 74.9295 88.181 75.0595C88.201 75.1195 88.241 75.1695 88.281 75.2195C88.341 75.2895 88.4011 75.3395 88.4811 75.3895C88.5211 75.4095 88.561 75.4195 88.601 75.4195C88.651 75.4195 88.691 75.4195 88.741 75.4195C88.801 75.4195 88.901 75.3895 88.931 75.3195C88.991 75.1595 88.9811 74.9795 88.9011 74.8295L88.891 74.8395Z" fill="#7FAFC6"/>
<path d="M85.7608 78.2692C85.7308 78.1192 85.6708 77.9592 85.5408 77.8592C85.4508 77.7992 85.3508 77.7592 85.2508 77.7392C85.2408 77.7392 85.2308 77.7192 85.2208 77.7192C85.1708 77.6892 85.0908 77.6792 85.0308 77.6792C84.9708 77.6792 84.9008 77.6792 84.8408 77.7192C84.8008 77.7392 84.7608 77.7692 84.7608 77.8192V77.8392C84.7608 77.8392 84.7508 77.8392 84.7408 77.8392C84.7108 77.8592 84.7008 77.9092 84.7108 77.9492C84.7208 77.9692 84.7508 77.9892 84.7808 78.0092C84.8008 78.0892 84.8308 78.1592 84.8708 78.2292C84.9608 78.3792 85.1008 78.5292 85.2608 78.5792C85.3708 78.6092 85.5208 78.6092 85.6208 78.5592C85.6608 78.5392 85.7108 78.5092 85.7308 78.4592C85.7608 78.3992 85.7608 78.3292 85.7508 78.2592L85.7608 78.2692Z" fill="#7FAFC6"/>
<path d="M78.841 71.7792C78.841 71.7792 78.841 71.7492 78.841 71.7392C78.831 71.4692 78.641 71.3792 78.381 71.4192C78.331 71.4192 78.261 71.4392 78.221 71.4792C78.101 71.5892 78.001 71.7092 77.911 71.8392C77.821 71.9692 77.711 72.1192 77.771 72.2792C77.791 72.3392 77.861 72.3892 77.921 72.4192C78.011 72.4592 78.111 72.4792 78.211 72.4792C78.581 72.4692 78.831 72.1392 78.841 71.7792Z" fill="#7FAFC6"/>
<path d="M89.1016 81.3994C89.1016 81.3994 89.1016 81.4694 89.1016 81.4994C88.7916 81.4894 88.4916 81.4794 88.1816 81.4594C88.2716 81.3294 88.3816 81.2094 88.4916 81.0994C88.5316 81.0594 88.5916 81.0494 88.6516 81.0394C88.9016 80.9994 89.0916 81.0794 89.1116 81.3594C89.1116 81.3694 89.1116 81.3894 89.1116 81.3994H89.1016Z" fill="#7FAFC6"/>
<path d="M81.7114 74.4396C81.6214 74.3596 81.4614 74.3496 81.3414 74.3896C81.3014 74.3996 81.2414 74.4296 81.2214 74.4696C81.2214 74.4896 81.2214 74.5096 81.2214 74.5296C81.1814 74.6896 81.1814 74.8396 81.2214 74.9996C81.2614 75.1596 81.3614 75.2996 81.4814 75.3996C81.5514 75.4596 81.6614 75.4696 81.7514 75.4696C81.7914 75.4696 81.8414 75.4596 81.8814 75.4396C81.9114 75.4296 81.9614 75.3996 81.9814 75.3696C82.0914 75.0396 81.9914 74.6696 81.7214 74.4396H81.7114Z" fill="#7FAFC6"/>
<path d="M80.1913 61.7992C80.1913 61.7992 80.1713 61.8192 80.1613 61.8292C80.1613 61.8292 80.1613 61.8292 80.1613 61.8492C80.1613 61.9892 80.1613 62.1292 80.1113 62.2592C80.0813 62.3292 80.0413 62.3992 79.9913 62.4492C79.9013 62.5292 79.7613 62.5392 79.6513 62.5292C79.5713 62.5192 79.4813 62.4892 79.4313 62.4192C79.3913 62.3692 79.4013 62.2892 79.4113 62.2292C79.4213 62.1592 79.4513 62.0792 79.4813 62.0092C79.5113 61.9392 79.5513 61.8792 79.5913 61.8292C79.5713 61.8192 79.5613 61.7992 79.5513 61.7892C79.7813 61.7692 80.0113 61.7492 80.2313 61.7192C80.2313 61.7492 80.2313 61.7892 80.2013 61.8092L80.1913 61.7992Z" fill="#7FAFC6"/>
<path d="M70.8805 65.1893C70.8805 65.2993 70.8105 65.3793 70.7105 65.4293C70.5605 65.4893 70.3605 65.4793 70.2205 65.3893C70.1305 65.3293 70.0905 65.2493 70.0805 65.1493C70.0805 65.0593 70.0805 64.9693 70.1005 64.8693C70.1005 64.8293 70.1005 64.7893 70.1005 64.7493C70.0905 64.7493 70.0705 64.7393 70.0605 64.7293C70.1305 64.5993 70.2105 64.4693 70.2905 64.3493C70.4205 64.3293 70.5505 64.3493 70.6505 64.4093C70.7505 64.4693 70.8005 64.5493 70.8305 64.6493C70.8505 64.7393 70.8505 64.8293 70.8505 64.9193C70.8505 65.0093 70.8605 65.0993 70.8505 65.1893H70.8805Z" fill="#7FAFC6"/>
<path d="M72.3416 69.7994C72.2916 69.8594 72.2316 69.9094 72.1616 69.9394C72.0316 69.9894 71.8516 69.9994 71.7216 69.9294C71.6816 69.9094 71.6316 69.8694 71.6216 69.8194C71.6116 69.7794 71.6016 69.7494 71.6116 69.7094C71.6116 69.6294 71.6116 69.5594 71.6316 69.4794C71.6516 69.3294 71.6716 69.1794 71.7116 69.0394C71.7516 68.8894 72.0416 68.8294 72.1716 68.8494C72.2016 68.8494 72.2316 68.8694 72.2616 68.8794C72.2816 69.1894 72.3116 69.4894 72.3516 69.7994H72.3416Z" fill="#7FAFC6"/>
<path d="M69.6607 69.6694C69.6607 69.7794 69.6407 69.8894 69.6007 69.9794C69.5907 70.0094 69.5707 70.0294 69.5507 70.0494C69.5207 70.0694 69.4707 70.0694 69.4307 70.0594C69.2507 70.0294 69.0907 69.9294 68.9707 69.7794C68.9707 69.4894 68.9907 69.1994 69.0107 68.9094C69.1907 68.8794 69.4107 69.0394 69.5107 69.1494C69.6107 69.2694 69.6707 69.4794 69.6707 69.6694H69.6607Z" fill="#7FAFC6"/>
<path d="M91.8914 66.6794C91.7714 66.6094 91.6114 66.5894 91.4814 66.6094C91.3514 66.6294 91.2114 66.6994 91.1914 66.8494C91.1914 66.9194 91.2114 67.0094 91.2414 67.0794C91.2714 67.1594 91.3214 67.2194 91.3714 67.2794C91.4814 67.4094 91.6414 67.5094 91.7914 67.5694C91.8514 67.5994 91.9114 67.6094 91.9814 67.6094C92.0414 67.6094 92.1214 67.6094 92.1714 67.5694C92.2014 67.5494 92.2414 67.5294 92.2514 67.4894C92.2514 67.4794 92.2614 67.4594 92.2714 67.4494C92.3414 67.1494 92.1614 66.8394 91.9014 66.6894L91.8914 66.6794Z" fill="#7FAFC6"/>
<path d="M76.7908 63.5293C76.6408 63.5093 76.4908 63.4893 76.3308 63.4793C76.0708 63.4493 75.8108 63.4193 75.5508 63.4093C75.5508 63.3093 75.5808 63.2293 75.6408 63.1593C75.7108 63.0793 75.8308 63.0393 75.9308 63.0193C76.1508 62.9793 76.3808 63.0393 76.5408 63.1993C76.6408 63.2893 76.7308 63.4093 76.7908 63.5393V63.5293Z" fill="#7FAFC6"/>
<path d="M82.7899 64.1692C82.7899 64.2192 82.7699 64.2793 82.7499 64.3293C82.7399 64.3693 82.7199 64.4193 82.6999 64.4593C82.6499 64.5493 82.5899 64.6393 82.5199 64.7193C82.4699 64.7793 82.4099 64.8193 82.3299 64.8393C82.2199 64.8793 82.0899 64.8793 81.9899 64.8393C81.9299 64.8193 81.8799 64.7893 81.8399 64.7493C81.7899 64.7493 81.7499 64.7293 81.7099 64.7093C81.6899 64.6993 81.6199 64.6493 81.6299 64.6093C81.6499 64.5293 81.6699 64.4593 81.7099 64.3893C81.9199 64.3193 82.1299 64.2493 82.3399 64.1793C82.2099 64.1593 82.0699 64.1493 81.9399 64.1293C81.9499 64.1193 81.9599 64.1092 81.9799 64.0992C82.0899 64.0292 82.1999 63.9693 82.3299 63.9493C82.4399 63.9293 82.5599 63.9493 82.6599 63.9893C82.7299 64.0193 82.7899 64.0793 82.7899 64.1593V64.1692Z" fill="#7FAFC6"/>
<path d="M86.3098 55.6295C86.2698 55.5595 86.1998 55.5095 86.1298 55.4795C85.9598 55.4095 85.7698 55.3795 85.6398 55.5395C85.5198 55.6895 85.4698 55.9695 85.4798 56.1595C85.4798 56.2695 85.5398 56.3495 85.6298 56.3995C85.7898 56.4795 86.0198 56.4595 86.1598 56.3495C86.2198 56.2995 86.2598 56.2295 86.2898 56.1595C86.3198 56.0795 86.3398 55.9795 86.3498 55.8995C86.3498 55.8095 86.3498 55.7195 86.2998 55.6395L86.3098 55.6295Z" fill="#7FAFC6"/>
<path d="M90.0317 57.3496C89.9617 57.4596 89.8817 57.5696 89.8017 57.6896C89.5817 57.9996 89.3517 58.3096 89.0917 58.5896C88.9817 58.6996 88.8717 58.8096 88.7517 58.8996C88.3317 59.2396 87.8117 59.4696 87.2717 59.4496C86.7617 59.4296 85.5217 59.0596 85.4817 58.4296C85.4217 57.5296 85.9017 56.6896 86.3117 55.8796C87.4117 53.7196 88.1517 51.3896 88.7417 49.0396C89.1017 47.6096 89.4417 46.0996 90.4417 45.0196C91.7217 43.6196 92.9417 45.7196 93.2017 46.8696C93.5417 48.3996 93.3417 49.9996 92.9117 51.4996C92.6117 52.5396 92.1017 53.4996 91.6417 54.4796C91.2717 55.2896 90.8417 56.0696 90.3717 56.8196C90.1717 57.1396 89.9317 57.4196 89.7417 57.7496C89.5317 58.1296 89.2917 58.4896 88.9917 58.8096C88.5717 59.2396 88.0017 59.5496 87.4117 59.5096C86.9517 59.4796 86.5017 59.2396 86.2317 58.8696L90.0317 57.3596V57.3496Z" fill="#F7967C"/>
<path d="M91.3111 55.1393C90.0411 54.4793 88.7111 53.9693 87.3711 53.4893C87.9211 52.0393 88.3611 50.5493 88.7411 49.0493C89.1011 47.6193 89.4411 46.1093 90.4411 45.0293C91.7211 43.6293 92.9411 45.7293 93.2011 46.8793C93.5411 48.4093 93.3411 50.0093 92.9111 51.5093C92.6111 52.5493 92.1011 53.5093 91.6411 54.4893C91.5411 54.7093 91.4311 54.9393 91.3211 55.1593L91.3111 55.1393Z" fill="white"/>
<path d="M77.701 55.8195C78.141 55.8295 78.571 55.8195 79.001 55.7295C79.071 55.7195 79.141 55.6995 79.201 55.6495C79.241 55.6095 79.271 55.5595 79.281 55.5095C79.301 55.4695 79.301 55.4095 79.321 55.3695C79.331 55.3395 79.361 55.3295 79.371 55.2995C79.501 54.9295 79.521 54.4895 79.311 54.1595C79.251 54.0595 79.171 53.9795 79.091 53.8995C78.981 53.7995 78.871 53.7095 78.741 53.6195C78.591 53.5195 78.421 53.4295 78.281 53.3095C78.161 53.2095 78.071 53.0895 77.961 52.9795C77.881 52.9095 77.811 52.7995 77.721 52.7495C77.671 52.7195 77.601 52.6995 77.541 52.7195C77.521 52.7195 77.491 52.7295 77.481 52.7495C77.451 52.7895 77.451 52.8395 77.471 52.8895C77.581 53.2095 77.931 53.3695 78.111 53.6595C78.131 53.6895 78.141 53.7195 78.131 53.7495C78.111 53.8195 77.861 53.7895 77.811 53.7795C77.631 53.7695 77.471 53.7295 77.301 53.6995C77.031 53.6395 76.761 53.5595 76.491 53.4795C76.201 53.3895 75.851 53.2295 75.541 53.2695C75.501 53.2695 75.461 53.2895 75.421 53.3095C75.381 53.3395 75.331 53.3995 75.361 53.4495C75.371 53.4695 75.401 53.4895 75.421 53.4995C75.591 53.6095 75.781 53.6795 75.951 53.7595C76.211 53.8895 76.481 54.0195 76.741 54.1395C76.071 54.1595 75.441 53.8195 74.771 53.7595C74.721 53.7595 74.671 53.7595 74.631 53.7595C74.591 53.7595 74.551 53.8095 74.541 53.8595C74.541 53.9195 74.591 53.9795 74.641 54.0095C74.851 54.1595 75.111 54.2495 75.351 54.3495C75.621 54.4595 75.901 54.5695 76.181 54.6695C75.921 54.6295 75.661 54.5695 75.411 54.5095C75.181 54.4495 74.961 54.3595 74.721 54.3595C74.671 54.3595 74.621 54.3595 74.591 54.3995C74.561 54.4495 74.591 54.5095 74.631 54.5495C74.761 54.6895 74.951 54.7395 75.141 54.7995C75.471 54.8995 75.801 55.0095 76.131 55.1295C75.701 55.0795 75.291 54.8395 74.861 54.8395C74.861 54.8395 74.811 54.9995 74.821 55.0095C74.861 55.1395 74.991 55.2195 75.121 55.2895C75.811 55.6295 76.581 55.7195 77.351 55.7695C77.471 55.7695 77.601 55.7795 77.721 55.7895L77.701 55.8195Z" fill="#F7967C"/>
<path d="M82.7918 58.0794C83.0618 58.2294 83.3418 58.3794 83.6218 58.5194C84.7718 59.1094 85.9118 59.6194 87.2418 59.5394C87.8818 59.4994 88.8818 59.2394 88.8318 58.4294C88.8118 58.0594 88.6618 57.7094 88.4518 57.4094C88.0918 56.8894 87.7118 56.5894 87.1318 56.3694C86.5018 56.1294 85.8218 56.0694 85.1618 55.9694C83.3218 55.6994 81.5518 55.1194 79.7418 54.6894C79.4418 54.6194 79.1418 54.5494 78.8418 54.5694C78.4018 54.5994 77.8318 54.8794 77.7618 55.3294C77.6718 55.9194 78.3718 56.0794 78.7918 56.2694C79.3218 56.5094 79.8718 56.7194 80.4118 56.9494C80.8618 57.1394 81.3018 57.3294 81.7218 57.5694C82.0718 57.7694 82.4418 57.8894 82.8018 58.0894L82.7918 58.0794Z" fill="#F7967C"/>
<path d="M91.6397 55.2596C91.8297 55.0596 91.9297 54.7996 92.0297 54.5496C92.1497 54.2696 92.2597 53.9896 92.3797 53.7096C92.5997 53.1496 92.8097 52.5896 93.0097 52.0296C93.0297 51.9596 93.2397 51.9796 93.2197 52.0596C93.0097 52.6396 92.7997 53.2196 92.5697 53.7896C92.4597 54.0696 92.3397 54.3496 92.2197 54.6296C92.1097 54.8796 92.0097 55.1196 91.8197 55.3196C91.7697 55.3696 91.5697 55.3396 91.6397 55.2596Z" fill="#7FAFC6"/>
<path d="M88.0403 50.6798C88.1603 50.2098 88.2902 49.7398 88.3802 49.2698C88.4302 48.9998 88.4902 48.7298 88.5602 48.4598C88.7002 47.9198 88.8702 47.3898 89.0902 46.8798C89.4502 46.0398 90.0503 45.1798 91.0003 44.9798C91.1403 44.9498 91.0403 44.8498 90.9403 44.8698C89.3203 45.1998 88.7202 47.0398 88.3502 48.4398C88.2902 48.6698 88.2303 48.9098 88.1803 49.1498C88.0203 49.9398 87.8102 50.7198 87.6002 51.4998C87.4402 52.1098 87.2802 52.7198 87.1302 53.3298V53.3498C87.1102 53.4098 87.3202 53.4298 87.3402 53.3498C87.5202 52.6398 87.7102 51.9298 87.8902 51.2098C87.9402 51.0298 87.9802 50.8498 88.0302 50.6698L88.0403 50.6798Z" fill="#7FAFC6"/>
<path d="M90.6799 47.0196C90.5899 46.9396 90.4299 46.9296 90.3099 46.9696C90.2699 46.9796 90.2099 47.0096 90.1899 47.0496C90.1799 47.0796 90.1899 47.1096 90.1899 47.1296C90.1499 47.1396 90.0799 47.1696 90.0699 47.2096C90.0299 47.3496 90.0299 47.4896 90.0799 47.6296C90.1199 47.7596 90.2099 47.8696 90.3099 47.9496C90.3899 48.0096 90.4799 48.0196 90.5799 48.0096C90.6599 48.0096 90.7499 47.9796 90.7999 47.9096C90.9999 47.6296 90.9299 47.2196 90.6699 47.0096L90.6799 47.0196Z" fill="#7FAFC6"/>
<path d="M93.6311 49.7598C93.6311 49.7598 93.6311 49.6798 93.6111 49.6498C93.5511 49.4598 93.3211 49.3598 93.1411 49.4098C92.8111 49.5098 92.6711 50.0698 92.7811 50.3598C92.8111 50.4498 92.8911 50.5098 92.9711 50.5598C93.0411 50.5998 93.1311 50.6298 93.2111 50.5998C93.5211 50.4798 93.6411 50.1298 93.6411 49.8198C93.6411 49.7998 93.6411 49.7798 93.6411 49.7698L93.6311 49.7598Z" fill="#7FAFC6"/>
<path d="M90.3408 52.5894C90.3308 52.5094 90.3008 52.4394 90.2308 52.3794C90.1208 52.2794 89.9608 52.2594 89.8108 52.2794C89.7708 52.2794 89.7208 52.2994 89.6808 52.3194C89.6508 52.3194 89.6208 52.3394 89.5908 52.3494C89.5508 52.3694 89.5208 52.3994 89.5108 52.4494C89.4908 52.6794 89.5708 52.9394 89.7308 53.1094C89.7708 53.1594 89.8408 53.1794 89.9008 53.1894C90.0008 53.2094 90.1308 53.2094 90.2208 53.1594C90.2608 53.1394 90.3008 53.1094 90.3108 53.0694C90.3208 53.0394 90.3308 52.9994 90.3308 52.9694C90.3308 52.8994 90.3308 52.8394 90.3308 52.7694C90.3308 52.7094 90.3308 52.6494 90.3308 52.5794L90.3408 52.5894Z" fill="#7FAFC6"/>
<path d="M86.2516 56.2193C86.2516 56.2193 86.1716 56.1993 86.1416 56.2193C86.1116 56.2393 86.1116 56.2593 86.1416 56.2793C86.5416 56.4693 86.8316 56.8593 86.9016 57.2993C86.9016 57.3593 87.0716 57.3493 87.0616 57.2993C86.9916 56.8393 86.6816 56.4293 86.2616 56.2293L86.2516 56.2193Z" fill="#DB6357"/>
<path d="M93.4509 59.0198C91.1209 60.1898 88.5109 60.7598 85.9009 60.6798C85.1709 60.6598 84.4409 60.5798 83.7209 60.4598C83.6209 60.4398 83.5209 60.5398 83.6609 60.5698C86.2809 61.0198 89.0009 60.8098 91.5209 59.9598C92.2309 59.7198 92.9209 59.4298 93.5909 59.0998C93.7009 59.0498 93.5009 58.9898 93.4409 59.0198H93.4509Z" fill="#7FAFC6"/>
<path d="M91.9718 58.3697C91.9718 58.3697 91.8618 58.3497 91.8218 58.3697C91.3118 58.5997 90.8118 58.8197 90.3018 59.0497C90.2618 59.0697 90.2718 59.1097 90.3018 59.1297C90.3418 59.1597 90.4118 59.1497 90.4518 59.1297C90.9618 58.8997 91.4618 58.6797 91.9718 58.4497C92.0118 58.4297 92.0018 58.3897 91.9718 58.3697Z" fill="#7FAFC6"/>
</g>
</g>
<defs>
<clipPath id="clip0_348_10949">
<rect width="139.102" height="120" fill="white" transform="translate(0 0.598145)"/>
</clipPath>
<clipPath id="clip1_348_10949">
<rect width="114.71" height="60.23" fill="white" transform="translate(12 29.9995)"/>
</clipPath>
</defs>
</svg>
