<svg width="140" height="121" viewBox="0 0 140 121" fill="none" xmlns="http://www.w3.org/2000/svg">
<g clip-path="url(#clip0_348_10497)">
<path d="M30.8678 97.6995C21.9312 89.4373 17.4402 77.2271 17.4402 61.0823C17.4402 44.9372 21.9314 32.7278 30.867 24.5332C39.8097 16.332 52.7124 12.176 69.6207 12.176C86.529 12.176 99.4317 16.332 108.374 24.5332C117.31 32.7278 121.801 44.9372 121.801 61.0823C121.801 77.2271 117.31 89.4373 108.374 97.6995C99.4311 105.967 86.5291 110.123 69.6207 110.123C52.7124 110.123 39.8103 105.967 30.8678 97.6995Z" stroke="#E63950" stroke-width="0.595238"/>
<path d="M112.064 108.775C118.073 104.259 122.112 97.8475 125.245 91.2537C131.037 79.0708 131.183 59.0959 117.572 50.9759C109.288 46.0336 102.125 54.2132 97.2396 43.318C96.1754 40.9422 95.7909 38.3399 95.2036 35.8121C92.9978 26.3299 87.3162 17.2143 78.2572 12.8026C69.1983 8.39086 56.61 9.91112 50.2965 17.7211C47.5988 21.0597 46.0994 25.3104 42.6922 28.0022C35.1177 33.9878 29.6031 31.9966 20.9615 36.4649C13.077 40.5398 5.23727 52.371 4.57849 56.5502C0.786794 80.603 12.8713 87.6797 23.838 100.754C33.0401 111.727 38.3341 112.025 52.4844 116.219C66.6347 120.413 85.3011 121.841 98.0295 114.222" stroke="#D1A092" stroke-miterlimit="10"/>
<path d="M33.8542 114.098V40.4757H105.247V114.098H111.551V34.1714H27.5508V114.098H33.8542Z" fill="#E63950"/>
<path d="M68.3345 35.4451L62.4786 35.0795C60.6505 34.9786 58.8351 34.7895 57.0008 34.6192C56.0868 34.5436 55.1665 34.4364 54.2525 34.304C53.3385 34.1716 52.4182 34.0834 51.4979 33.9068L48.737 33.4214L45.9761 32.7721C45.0495 32.5703 44.1292 32.2299 43.2089 31.9525L42.5155 31.7318L42.3453 31.6751L42.257 31.6499L42.0805 31.5742L41.7654 31.4481C41.3367 31.2716 40.9333 31.1266 40.4858 30.9312L39.0044 30.1684C38.5317 29.8973 38.0904 29.601 37.6303 29.311C36.7352 28.6931 35.8716 27.9807 35.0774 27.1549C33.5015 25.5031 32.2471 23.2525 31.8437 20.7749C31.4592 18.3036 31.8563 15.6935 32.9909 13.5438C34.0814 11.3625 35.7582 9.5531 37.7816 8.28592C39.7987 7.01875 42.1688 6.31896 44.5326 6.24331C46.8964 6.16136 49.2034 6.76027 51.1953 7.71223C51.6933 7.95179 52.1976 8.19136 52.6451 8.49397L53.3322 8.92897L53.5024 9.03614L53.6663 9.14332L53.6852 9.15593L53.7167 9.18114L53.7861 9.23788L54.0508 9.45223L56.1751 11.167C57.606 12.5414 59.1314 13.9914 60.2597 15.4729C61.5078 16.9166 62.5542 18.499 63.6069 20.0562C64.5902 21.6638 65.5231 23.2903 66.3363 24.9799C67.1368 26.6694 67.8428 28.4347 68.2967 30.2566L68.3219 30.3575V30.3764L68.3408 35.4388L68.3345 35.4451ZM67.7041 34.6634L67.6915 30.389L67.7167 30.5088C66.6262 29.0399 65.5168 27.6466 64.3066 26.3101C63.6951 25.6481 63.1467 24.9547 62.5164 24.3179C61.8923 23.6749 61.262 23.0444 60.6632 22.3951C59.3709 21.1783 58.1544 19.9049 56.8117 18.7953C56.1625 18.2216 55.5132 17.6164 54.8577 17.1625C54.2021 16.6644 53.6033 16.1664 52.9288 15.6746L50.6406 14.1931L50.357 14.004L50.2876 13.9598L50.2498 13.9346L50.2309 13.922C50.5083 14.1112 50.3003 13.9725 50.357 14.0103L50.2309 13.9535L49.7392 13.7077C49.4178 13.5312 49.0837 13.4051 48.7559 13.2727C47.4322 12.7683 46.1021 12.5477 44.8288 12.6359C43.5682 12.762 42.339 13.1277 41.2926 13.8148C40.2588 14.5083 39.3448 15.4162 38.809 16.4942C38.2417 17.5533 38.0211 18.7133 38.1472 19.8355C38.3174 20.9451 38.746 22.0862 39.6222 23.1138C40.0634 23.6181 40.5551 24.1225 41.1224 24.589C41.4187 24.8034 41.7149 25.0492 42.0112 25.2573L42.9063 25.831C43.2656 26.039 43.7005 26.2534 44.0913 26.4614L44.3939 26.619L44.4317 26.6379L44.4506 26.6505C44.5452 26.6947 44.3435 26.6064 44.375 26.619L44.4506 26.6505L44.5956 26.7136L45.1818 26.9657C45.9698 27.2936 46.7262 27.6718 47.5456 27.9744L50.004 28.8949L52.5317 29.746C54.2273 30.3008 55.9482 30.824 57.6816 31.3662C59.4088 31.9147 61.1674 32.4001 62.9072 32.9801L65.5357 33.8438C66.2669 34.1149 67.0044 34.386 67.7356 34.6697L67.7041 34.6634Z" fill="#E63950"/>
<path d="M73.0496 34.7453C73.8061 34.4364 74.5625 34.1527 75.3189 33.8564L77.9348 32.9611C79.6683 32.3622 81.4206 31.8579 83.1415 31.2842L88.2788 29.6198L90.7939 28.7498L93.2396 27.8042C94.0591 27.4953 94.8092 27.117 95.5971 26.7829L96.1771 26.5244L96.322 26.4614L96.3977 26.4298C96.3977 26.4298 96.2275 26.5055 96.322 26.4614L96.341 26.4487L96.3788 26.4298L96.6813 26.2659L97.8664 25.6292L98.7489 25.0492C99.0451 24.8411 99.3351 24.5953 99.6251 24.3746C100.18 23.9018 100.684 23.41 101.113 22.8994C101.964 21.8592 102.405 20.737 102.562 19.6274C102.6 19.0663 102.613 18.5052 102.474 17.9442C102.449 17.6605 102.323 17.3894 102.26 17.1057C102.128 16.8409 102.058 16.5509 101.888 16.2987C101.333 15.2333 100.445 14.3065 99.3981 13.6257C98.3392 12.9574 97.1226 12.5602 95.8493 12.4531C94.576 12.3711 93.227 12.5791 91.9096 13.1087C91.5755 13.2348 91.2414 13.3546 90.9137 13.5374L90.4157 13.7833L90.2896 13.8463C90.3464 13.8085 90.1383 13.9472 90.4157 13.7581L90.3968 13.7707L90.359 13.7959L90.2896 13.84L90.006 14.0292C89.2496 14.5335 88.4868 15.0315 87.7178 15.517C86.4319 16.5509 85.1397 17.4272 83.8412 18.6692C82.4985 19.785 81.2883 21.0648 80.0024 22.2942L78.1554 24.2296C77.5251 24.8727 76.9893 25.5787 76.3716 26.2407C75.1739 27.5898 74.0708 28.9957 72.9929 30.4772L73.0118 30.3827L73.0244 34.7579L73.0496 34.7453ZM72.558 35.3568L72.5391 30.3764V30.3574L72.558 30.2755C72.9992 28.4535 73.6863 26.6883 74.4868 24.9987C75.2811 23.2966 76.2203 21.6826 77.1784 20.0624C78.2248 18.5052 79.2586 16.9165 80.4877 15.4602C81.6161 13.985 83.11 12.5161 84.5346 11.1354C85.2279 10.5491 85.9339 9.96914 86.6399 9.39545L86.9047 9.1811L86.974 9.12436L87.0055 9.09914L87.0244 9.08653L87.182 8.97936L87.3522 8.87218L88.0393 8.43718C88.4868 8.13457 88.9785 7.8824 89.4702 7.63653C91.4495 6.67196 93.7376 6.04153 96.1014 6.09827C98.4526 6.16761 100.835 6.81696 102.852 8.08414C103.867 8.70827 104.794 9.4711 105.626 10.3348C106.427 11.23 107.158 12.1946 107.693 13.2978C108.841 15.4413 109.288 18.045 108.897 20.5226C108.5 23.0066 107.284 25.2824 105.708 26.9405C104.914 27.7727 104.069 28.5103 103.174 29.1218C102.714 29.4118 102.279 29.7144 101.806 29.9855L100.325 30.7546C99.8772 30.9564 99.4801 31.114 99.0514 31.2905L98.7363 31.4166L98.5598 31.4922L98.4715 31.5174L98.295 31.5742L97.6016 31.7948C96.675 32.0722 95.761 32.419 94.8407 32.6333L92.0798 33.289C91.1658 33.4718 90.2392 33.6231 89.3252 33.7933C88.4112 33.9761 87.4909 34.077 86.5769 34.2031C85.6629 34.3292 84.7489 34.449 83.8286 34.5246C81.9943 34.6948 80.1789 34.8903 78.3509 34.9912C76.5418 35.1109 74.7138 35.237 72.8668 35.3316L72.5706 35.3442L72.558 35.3568Z" fill="#E63950"/>
<path d="M74.3418 32.4379C74.3481 34.6129 72.5894 36.3844 70.4147 36.3907C68.24 36.397 66.4751 34.6381 66.4688 32.4631C66.4625 30.2881 68.2211 28.5229 70.3895 28.5103C72.5642 28.504 74.3355 30.2629 74.3418 32.4379Z" fill="#E63950"/>
<path d="M48.382 82.4412C48.5441 83.7135 48.7701 84.6632 49.0597 85.2903C49.3793 85.8786 49.9133 86.2299 50.6618 86.3442C51.4446 86.4541 52.5948 86.4298 54.1123 86.2713L54.2635 87.4577L36.2096 89.7591L36.0584 88.5727C37.6015 88.3411 38.7209 88.076 39.4168 87.7776C40.147 87.4749 40.5759 87.0008 40.7033 86.3556C40.8263 85.6759 40.8068 84.6998 40.6446 83.4275L39.0599 70.9961L34.6957 74.5928L33.402 73.0802L43.8999 64.141L46.3759 63.8254C46.3216 64.4963 46.3017 65.1628 46.3162 65.825C46.3651 66.4827 46.4312 67.1383 46.5145 67.7917L48.382 82.4412ZM75.0101 60.4374L75.0209 67.5128L59.1334 69.538L59.1669 72.679C65.17 72.8923 69.8122 73.943 73.0933 75.8313C76.3744 77.7196 78.2341 80.3831 78.6725 83.8219C78.9969 86.3667 78.6284 88.6852 77.5672 90.7776C76.5447 92.8999 75.0009 94.6343 72.936 95.9809C70.9098 97.3575 68.5727 98.2146 65.9248 98.5522C64.6181 98.7187 63.0809 98.7225 61.3132 98.5634C59.58 98.3999 57.9964 97.9028 56.5625 97.0722C56.5483 94.7674 57.0572 92.7281 58.0891 90.954C59.3963 92.7095 60.7755 94.0713 62.227 95.0396C63.7128 96.0034 65.195 96.3911 66.6737 96.2026C68.8402 95.9264 70.3538 95.052 71.2145 93.5794C72.1095 92.1023 72.4431 90.4697 72.2152 88.6815C71.8469 85.7929 70.4012 83.6357 67.878 82.21C65.3548 80.7843 61.6809 80.0644 56.8564 80.0503L56.9375 63.0033L71.1227 61.195C71.948 61.0898 72.668 60.9805 73.2826 60.8672C73.9316 60.7496 74.5074 60.6063 75.0101 60.4374ZM97.6455 82.2502C96.8625 82.35 96.1467 82.3014 95.4979 82.1046C94.8703 81.905 94.3258 81.598 93.8643 81.1837C93.4002 80.7483 93.0219 80.2266 92.7293 79.6187C92.4552 78.987 92.2696 78.2902 92.1725 77.5283C92.0781 76.7877 92.0962 76.0864 92.2269 75.4246C92.3549 74.7416 92.5903 74.1416 92.933 73.6248C93.273 73.0868 93.7218 72.6425 94.2793 72.2919C94.8367 71.9412 95.507 71.716 96.29 71.6162C97.0518 71.5191 97.7465 71.5703 98.3741 71.7699C99.0229 71.9668 99.5794 72.2829 100.043 72.7184C100.505 73.1327 100.883 73.6544 101.178 74.2835C101.471 74.8913 101.665 75.5656 101.759 76.3063C101.856 77.0681 101.841 77.7905 101.713 78.4736C101.582 79.1354 101.347 79.7353 101.007 80.2733C100.664 80.7901 100.214 81.2238 99.6562 81.5745C99.0988 81.9251 98.4285 82.1503 97.6455 82.2502ZM88.1795 82.3923C88.0349 82.7763 87.7908 83.0548 87.4473 83.2276C87.1037 83.4004 86.7241 83.4596 86.3086 83.405C85.8876 83.3081 85.559 83.0919 85.3226 82.7565C85.1048 82.3971 85.0231 82.0097 85.0777 81.5941L85.1642 81.2605L93.3488 60.1844C93.5172 59.8188 93.764 59.5615 94.0891 59.4125C94.4327 59.2397 94.8017 59.1819 95.1961 59.2392C95.5905 59.2964 95.9151 59.4809 96.1699 59.7925C96.4247 60.1041 96.5234 60.4571 96.4662 60.8515C96.4531 60.9177 96.4414 60.9945 96.431 61.0818C96.4206 61.1692 96.397 61.2367 96.3601 61.2844L88.1795 82.3923ZM97.2935 79.4885C97.9072 79.4103 98.3339 79.1301 98.5735 78.6479C98.8316 78.1419 98.9066 77.4656 98.7987 76.6191C98.6989 75.8361 98.4633 75.2532 98.0919 74.8705C97.739 74.4638 97.2557 74.2996 96.642 74.3779C96.0071 74.4588 95.5699 74.7403 95.3303 75.2225C95.088 75.6835 95.0167 76.3055 95.1165 77.0885C95.2244 77.935 95.4562 78.5721 95.8118 78.9999C96.1647 79.4066 96.6586 79.5694 97.2935 79.4885ZM84.891 68.4885C85.5047 68.4103 85.9313 68.1301 86.1709 67.6479C86.429 67.1419 86.5041 66.4656 86.3962 65.6192C86.2964 64.8362 86.0608 64.2533 85.6894 63.8705C85.3365 63.4639 84.8532 63.2996 84.2395 63.3779C83.6046 63.4588 83.1674 63.7404 82.9278 64.2225C82.6854 64.6835 82.6142 65.3055 82.714 66.0885C82.8219 66.935 83.0537 67.5722 83.4093 68C83.7622 68.4066 84.2561 68.5695 84.891 68.4885ZM85.243 71.2502C84.46 71.35 83.7547 71.3001 83.1271 71.1005C82.4995 70.901 81.955 70.594 81.4935 70.1797C81.0294 69.7442 80.6511 69.2226 80.3585 68.6147C80.0633 67.9856 79.8671 67.2902 79.77 66.5283C79.6756 65.7877 79.6831 65.0878 79.7927 64.4286C79.9207 63.7456 80.156 63.1457 80.4987 62.6289C80.8388 62.0909 81.2875 61.6466 81.845 61.296C82.4236 60.9426 83.1044 60.716 83.8874 60.6162C84.6704 60.5164 85.3757 60.5663 86.0034 60.7659C86.631 60.9654 87.1768 61.283 87.641 61.7184C88.1024 62.1327 88.4807 62.6544 88.776 63.2835C89.0685 63.8914 89.262 64.5656 89.3564 65.3063C89.4535 66.0682 89.4381 66.7906 89.3101 67.4736C89.1794 68.1354 88.944 68.7353 88.604 69.2733C88.2613 69.7901 87.8112 70.2239 87.2537 70.5745C86.6962 70.9251 86.026 71.1504 85.243 71.2502Z" fill="#243976"/>
</g>
<defs>
<clipPath id="clip0_348_10497">
<rect width="139.102" height="120" fill="white" transform="translate(0 0.0981445)"/>
</clipPath>
</defs>
</svg>
