<svg width="12" height="13" viewBox="0 0 12 13" fill="none" xmlns="http://www.w3.org/2000/svg">
<path d="M4.70385 7.74803H1.34385C0.975852 7.74803 0.663852 7.62803 0.407852 7.38803C0.167852 7.14803 0.0478516 6.85203 0.0478516 6.50003C0.0478516 6.14803 0.175852 5.86003 0.431852 5.63603C0.703852 5.39603 1.00785 5.27603 1.34385 5.27603H4.70385V1.70003C4.70385 1.38003 4.82385 1.09203 5.06385 0.836026C5.31985 0.580026 5.63185 0.452026 5.99985 0.452026C6.36785 0.452026 6.67185 0.572026 6.91185 0.812026C7.16785 1.05203 7.29585 1.34803 7.29585 1.70003V5.27603H10.6559C10.9759 5.27603 11.2719 5.39603 11.5439 5.63603C11.8159 5.86003 11.9519 6.14803 11.9519 6.50003C11.9519 6.85203 11.8239 7.14803 11.5679 7.38803C11.3279 7.62803 11.0239 7.74803 10.6559 7.74803H7.29585V11.324C7.29585 11.676 7.16785 11.972 6.91185 12.212C6.67185 12.436 6.36785 12.548 5.99985 12.548C5.63185 12.548 5.31985 12.428 5.06385 12.188C4.82385 11.932 4.70385 11.644 4.70385 11.324V7.74803Z" fill="black"/>
</svg>
