<svg width="84" height="85" viewBox="0 0 84 85" fill="none" xmlns="http://www.w3.org/2000/svg">

<path d="M40.5593 19.652C33.9634 20.17 28.0421 24.1396 25.0363 30.0549C24.0604 31.9825 23.5183 33.6571 23.1448 35.9461C23.0244 36.687 23.0123 36.9761 22.9943 41.4216C22.9641 46.6983 22.9581 46.5658 23.4039 47.4875C23.7894 48.2766 24.3436 48.909 25.1568 49.4572C25.4459 49.656 26.3073 50.0897 26.5181 50.1439C26.6145 50.174 26.6386 50.2523 26.6747 50.6198C26.8374 52.2522 27.3675 54.1496 28.0963 55.7038C29.9456 59.6553 33.4333 62.7033 37.5836 63.9803C39.1016 64.4441 40.2702 64.6128 42.011 64.6128C43.7519 64.6128 44.9205 64.4441 46.4384 63.9803C50.0828 62.8599 53.1729 60.4203 55.1848 57.0832C56.3354 55.1797 57.1365 52.7883 57.3473 50.6198C57.3835 50.2523 57.4076 50.174 57.504 50.1439C57.7389 50.0837 58.5882 49.65 58.9496 49.397C59.805 48.8187 60.5158 47.9091 60.8471 46.9694L61.0158 46.4875V41.6686C61.0158 36.9701 61.0097 36.8255 60.8832 35.9882C60.6302 34.404 60.2568 33.0005 59.7387 31.6994C57.1847 25.3082 51.4742 20.7905 44.7096 19.8026C43.541 19.6339 41.6556 19.5616 40.5593 19.652ZM43.7218 23.1759C46.7396 23.5312 49.4503 24.6637 51.7995 26.5612C52.5766 27.1876 53.8476 28.4948 54.4078 29.2417C56.0221 31.3982 57.0401 33.8257 57.4317 36.4882C57.5702 37.4038 57.6847 40.6747 57.5762 40.6747C57.5461 40.6747 57.3172 40.6144 57.0703 40.5421C56.6968 40.4397 56.3956 40.4156 55.3716 40.3916L54.1186 40.3614V42.1083V43.8552L55.2511 43.8793C56.3715 43.8973 56.3775 43.8973 56.7028 44.078C57.263 44.3853 57.5642 44.9153 57.5702 45.584C57.5702 46.2586 57.2389 46.8068 56.6305 47.1321C56.4016 47.2586 56.2811 47.2706 55.2511 47.2887L54.1186 47.3128V48.6139C54.1186 50.8908 53.7632 52.5654 52.9079 54.3183C50.0406 60.2095 43.0592 62.7575 37.0656 60.1011C34.4814 58.9566 32.1864 56.6916 31.0178 54.1376C30.2227 52.3968 29.9034 50.8125 29.9034 48.6139V47.3128L28.777 47.2887C27.518 47.2706 27.3915 47.2345 26.9458 46.8008C26.2832 46.1562 26.2772 45.0298 26.9337 44.3732C27.3614 43.9395 27.518 43.8973 28.771 43.8793L29.8974 43.8552L29.9155 41.771L29.9335 39.6808L30.0841 39.4097C30.2648 39.0904 30.6504 38.8133 31.1202 38.6628C31.9816 38.3917 32.2768 38.3796 36.7102 38.3254C40.5593 38.2833 41.0292 38.2712 41.746 38.1568C44.0591 37.7953 45.6012 37.0906 46.7697 35.8738C48.0769 34.5185 48.7756 32.8198 48.9142 30.6512L48.9563 30.0127H47.2095H45.4626L45.4265 30.7476C45.3602 32.0487 45.053 32.88 44.4205 33.4643C43.8663 33.9763 43.0592 34.3498 42.0351 34.5606C40.8846 34.7955 40.0353 34.8437 36.7825 34.8377C35.0477 34.8317 33.2707 34.8558 32.837 34.8919C28.9155 35.1991 27.0482 36.5183 26.5 39.3555C26.4157 39.7892 26.4157 39.7651 26.4398 38.5543C26.5241 34.9642 27.5241 32.0367 29.6263 29.2297C30.1805 28.4887 31.4575 27.1816 32.2225 26.5612C33.7586 25.3203 35.5777 24.3444 37.3909 23.7842C38.4089 23.465 39.2522 23.3024 40.7159 23.1277C41.2219 23.0674 43.029 23.0975 43.7218 23.1759Z" fill="#1A73E8" stroke="#F2F6FF"/>
<path d="M36.1915 43.9635C35.8482 44.084 35.5048 44.3972 35.294 44.7767C35.1374 45.0598 35.1133 45.1623 35.1133 45.5839C35.1133 46.0056 35.1374 46.108 35.294 46.3911C35.6253 46.9874 36.1614 47.3007 36.8602 47.3007C37.3059 47.3007 37.7276 47.1139 38.0468 46.7826C38.8721 45.9152 38.607 44.5237 37.5228 44.0117C37.1674 43.8431 36.5891 43.825 36.1915 43.9635Z" fill="#1A73E8"/>
<path d="M46.4981 44.0117C45.8837 44.3009 45.4922 44.9153 45.4922 45.5839C45.4922 46.5236 46.2512 47.3007 47.1668 47.3007C47.8715 47.3007 48.3896 46.9995 48.7269 46.3911C48.8835 46.108 48.9076 46.0056 48.9076 45.5839C48.9076 45.1623 48.8835 45.0598 48.7269 44.7767C48.3896 44.1683 47.8715 43.8672 47.1668 43.8672C46.9078 43.8672 46.709 43.9093 46.4981 44.0117Z" fill="#1A73E8"/>
</svg>
