<svg width="84" height="85" viewBox="0 0 84 85" fill="none" xmlns="http://www.w3.org/2000/svg">

<path d="M21.8315 19.6569C21.0256 19.7912 20.161 20.5047 19.7581 21.3609L19.5566 21.7807V36.8062V51.8317L19.7581 52.2514C20.0519 52.8725 20.5807 53.4182 21.1683 53.7119L21.6804 53.9722H28.9245H36.1686L35.9672 53.5776C35.6146 52.9061 35.5307 52.0583 35.7237 51.3448C35.7657 51.2105 35.4048 51.2021 29.0504 51.2021H22.3267V36.8062V22.4102H36.7226H51.1186V33.5073V44.5959L52.4952 43.2612L53.8719 41.9266L53.8803 31.8536L53.8887 21.7807L53.6872 21.3609C53.3934 20.7314 52.8646 20.1858 52.2686 19.892L51.7482 19.6401L36.9577 19.615C28.8238 19.6066 22.0161 19.6234 21.8315 19.6569Z" fill="#1A73E8"/>
<path d="M34.2468 30.9555C34.0873 31.031 33.8859 31.2325 33.7851 31.392C33.6256 31.6774 33.6172 31.8117 33.6172 36.7223C33.6172 42.2876 33.6005 42.0693 34.1545 42.4471C34.6581 42.7912 35.38 42.6653 35.741 42.1617L35.9088 41.935L36.253 42.2372C36.9581 42.8836 38.2928 42.9843 39.3253 42.4806C39.9632 42.1617 40.6851 41.4314 41.0377 40.7263C41.4322 39.9372 41.5749 39.2237 41.5245 38.2332C41.4406 36.4872 40.5172 35.0183 39.1322 34.4391C38.318 34.0949 37.084 34.1621 36.4041 34.5818C36.1775 34.7245 35.9844 34.8336 35.9592 34.8336C35.9424 34.8336 35.9256 34.1033 35.9256 33.2135C35.9256 31.7445 35.9088 31.5767 35.7577 31.3248C35.464 30.838 34.8008 30.6785 34.2468 30.9555ZM38.2172 36.6299C38.9727 36.9405 39.3924 38.1912 39.107 39.2321C38.8972 39.996 38.2592 40.5416 37.5961 40.5416C37.2603 40.5416 36.6979 40.2982 36.4964 40.0715C35.9508 39.4588 35.8249 38.1912 36.2194 37.3854C36.5972 36.6215 37.4366 36.3026 38.2172 36.6299Z" fill="#1A73E8"/>
<path d="M27.8171 34.246C26.7175 34.4055 25.6934 35.2197 25.1562 36.3445C24.7953 37.1168 24.6777 37.654 24.6777 38.5522C24.6777 40.827 26.1215 42.6401 28.0606 42.7828C28.858 42.8416 29.4624 42.6737 29.9576 42.254L30.327 41.935L30.4865 42.1617C30.9649 42.8164 31.989 42.7912 32.4003 42.1113C32.5598 41.8595 32.5682 41.6664 32.5682 38.4682V35.0938L32.308 34.7916C31.8044 34.2208 31.0741 34.2124 30.562 34.7916C30.3186 35.077 30.3186 35.077 30.1591 34.9007C29.9241 34.6405 29.3701 34.3467 29.0007 34.288C28.3628 34.1872 28.2452 34.1788 27.8171 34.246ZM29.3449 36.6719C29.6639 36.865 29.9912 37.2931 30.1255 37.6792C30.243 38.0317 30.243 38.8879 30.1339 39.2909C29.731 40.743 27.9179 40.9697 27.2715 39.6434C26.9945 39.081 26.9861 37.8974 27.2547 37.3938C27.4562 37.0077 27.7416 36.7223 28.0354 36.6047C28.3963 36.462 29.0595 36.4956 29.3449 36.6719Z" fill="#1A73E8"/>
<path d="M45.4104 34.2544C44.4954 34.3887 43.8155 34.7328 43.1859 35.3876C42.4389 36.1682 42.0527 37.2343 42.0527 38.5018C42.0527 39.8365 42.4389 40.8354 43.2699 41.6832C44.0925 42.5058 45.0662 42.8668 46.2498 42.7828C47.3494 42.6989 48.2392 42.3127 48.6086 41.7503C49.0031 41.146 48.5834 40.1303 47.9202 40.1219C47.8027 40.1219 47.4837 40.1974 47.2067 40.2898C46.9381 40.3905 46.4848 40.4828 46.2078 40.508C45.1586 40.6003 44.4954 39.9288 44.4199 38.7033C44.3779 37.973 44.4786 37.5449 44.7976 37.1168C45.2425 36.5208 46.1239 36.3529 47.064 36.6803C47.9034 36.9741 48.3651 36.8733 48.6421 36.3445C48.8184 36.0004 48.8016 35.4547 48.5918 35.119C48.214 34.5062 46.6275 34.0697 45.4104 34.2544Z" fill="#1A73E8"/>
<path d="M61.7783 38.6444C59.94 39.2908 58.0597 40.7514 54.3579 44.4028C52.3517 46.3838 49.6655 49.2462 47.6425 51.5546C47.055 52.2429 46.5345 52.797 46.5009 52.797C46.4674 52.797 45.7455 52.4612 44.8977 52.0499C41.6239 50.4634 39.878 50.0437 38.7867 50.5809C38.09 50.9335 37.5948 51.7729 37.7291 52.3773C37.7626 52.5367 38.2747 53.1159 39.2736 54.1148C41.8842 56.7338 43.2356 58.6141 46.1064 63.5498C46.6352 64.4648 46.9458 64.6914 47.4747 64.5907C47.9699 64.4984 48.2133 64.1794 48.7086 62.9539C50.9163 57.5229 53.8206 52.4696 57.1531 48.2641C58.6473 46.3754 59.7049 45.2171 62.0805 42.8499C64.0615 40.8773 64.2797 40.6339 64.3805 40.2729C64.498 39.8196 64.4476 39.2908 64.2378 38.9802C63.8768 38.4262 62.8024 38.2751 61.7783 38.6444Z" fill="#1A73E8"/>
</svg>
