<svg width="84" height="85" viewBox="0 0 84 85" fill="none" xmlns="http://www.w3.org/2000/svg">

<path d="M42.1761 20.1432C36.85 20.7139 32.3742 24.6246 31.0763 29.8388C30.8021 30.9242 30.707 31.7466 30.707 32.9439C30.707 35.0307 31.1322 36.8322 32.0609 38.7064C33.6666 41.9401 36.6822 44.413 40.19 45.3641C41.4656 45.711 42.1873 45.7893 44.5259 45.8229L46.568 45.8564L50.2549 48.9335C52.5151 50.8133 54.0425 52.0498 54.1991 52.1225C54.3726 52.1952 54.574 52.2344 54.8313 52.2344C55.5139 52.2344 56.0845 51.8316 56.3307 51.1714C56.437 50.8861 56.4426 50.735 56.4426 48.1391V45.4033L56.9349 45.2522C58.9994 44.6088 60.7449 43.557 62.2611 42.0353C65.4836 38.8183 66.7648 34.1859 65.6515 29.8053C65.1144 27.6905 64.0346 25.7155 62.5352 24.1043C61.9981 23.528 61.0247 22.7168 60.2917 22.2301C58.5798 21.0943 56.7111 20.4118 54.6523 20.16C54.2103 20.1097 42.6629 20.0929 42.1761 20.1432ZM54.1208 23.3546C59.7658 24.0315 63.587 29.2906 62.4849 34.8629C62.317 35.7021 62.0821 36.3678 61.6401 37.2518C61.1589 38.2197 60.6666 38.9134 59.9393 39.6631C58.5238 41.1065 56.9405 41.9737 54.9208 42.3989C53.9697 42.6003 53.6229 42.8241 53.3543 43.406C53.2313 43.6745 53.2257 43.7472 53.2089 45.4312L53.1921 47.1768L50.5794 45.0004C48.5373 43.2941 47.8995 42.7961 47.6701 42.7066C47.396 42.6003 47.2393 42.5947 45.2085 42.5947C42.4447 42.5947 41.7454 42.5164 40.3858 42.052C39.7257 41.8283 38.562 41.2296 38.0081 40.838C33.9408 37.912 32.7267 32.5243 35.166 28.1996C36.6262 25.5981 39.3005 23.7854 42.2768 23.377C42.9874 23.2819 53.3431 23.2595 54.1208 23.3546Z" fill="#1A73E8"/>
<path d="M38.7637 32.9438V34.5383H40.3582H41.9526V32.9438V31.3494H40.3582H38.7637V32.9438Z" fill="#1A73E8"/>
<path d="M46.7637 32.9438V34.5383H48.3861H50.0086V32.9438V31.3494H48.3861H46.7637V32.9438Z" fill="#1A73E8"/>
<path d="M54.8203 32.9438V34.5383H56.4428H58.0652V32.9438V31.3494H56.4428H54.8203V32.9438Z" fill="#1A73E8"/>
<path d="M25.8222 33.9845C25.7047 34.0124 25.3075 34.1859 24.9383 34.3761C21.3465 36.2055 18.8456 39.5791 18.1127 43.5905C17.9617 44.4186 17.9001 46.4047 18.0064 47.2942C18.4988 51.6189 21.1562 55.3897 25.0781 57.3479C25.6991 57.6612 26.5439 57.9969 27.137 58.1703L27.4559 58.2598L27.4726 61.0739L27.4894 63.8825L27.6237 64.1734C27.9706 64.9455 28.944 65.3259 29.7049 64.9902C29.8616 64.9175 31.3945 63.6811 33.6492 61.8013L37.3361 58.7242L39.3781 58.6906C41.4202 58.657 41.9965 58.6123 43.0147 58.3941C44.5309 58.0752 46.1253 57.4038 47.4121 56.5534C48.1842 56.0387 48.6653 55.6527 49.2919 55.0317C49.6724 54.6568 49.8066 54.4834 49.8962 54.2484C50.2766 53.2302 49.622 52.1616 48.5534 52.0665C47.994 52.0161 47.6919 52.1448 47.0932 52.6987C45.8792 53.8176 44.7826 54.489 43.4175 54.9534C42.1307 55.3897 41.465 55.4625 38.7627 55.4625C36.9445 55.4625 36.5584 55.4737 36.3402 55.552C36.1444 55.6191 35.4339 56.1786 33.4086 57.8682L30.7343 60.0949L30.7064 58.3493C30.6784 56.7325 30.6672 56.5926 30.5609 56.3576C30.2812 55.7534 29.9343 55.524 29.0559 55.3562C27.053 54.9701 25.4362 54.1421 24.0319 52.7826C22.5325 51.3336 21.6542 49.6888 21.2122 47.518C21.0723 46.8299 21.0723 44.8885 21.2122 44.1892C21.8556 41.0002 23.7018 38.5553 26.5383 37.1566C26.846 37.0056 27.1929 36.793 27.3048 36.6811C27.7804 36.2167 27.9034 35.4391 27.5957 34.8404C27.2712 34.1971 26.4824 33.8166 25.8222 33.9845Z" fill="#1A73E8"/>
</svg>
