<svg width="84" height="85" viewBox="0 0 84 85" fill="none" xmlns="http://www.w3.org/2000/svg">

<path d="M33.9341 19.7527C33.402 19.9395 32.9258 20.3689 32.6364 20.9291L32.375 21.4239L32.403 23.6739C32.431 25.6065 32.4497 25.9612 32.5991 26.2507C32.9445 26.9509 33.6727 27.483 34.4289 27.6044L34.8117 27.6697V29.0422C34.8117 30.3492 34.8211 30.4146 35.0265 30.6106C35.2692 30.844 35.8107 30.8907 36.0441 30.6946C36.1188 30.6386 36.6789 29.9197 37.2858 29.1075L38.3781 27.6417H41.5711C45.1281 27.6417 45.3055 27.6137 45.9964 27.0256C46.2018 26.8482 46.4725 26.5121 46.5939 26.26C46.7993 25.8399 46.8086 25.7372 46.8086 23.6272C46.8086 21.1998 46.7899 21.0878 46.1924 20.4063C46.015 20.2102 45.6696 19.9488 45.4082 19.8368L44.9414 19.6127L39.6198 19.622C35.3345 19.622 34.2235 19.65 33.9341 19.7527ZM44.9974 21.4706C45.1561 21.6666 45.1748 21.8534 45.1748 23.6179C45.1655 24.9809 45.1375 25.5878 45.0534 25.6905C44.792 26.0359 44.6053 26.0546 41.0856 26.0546H37.6312L37.3605 26.3627C37.2111 26.5307 36.9497 26.8762 36.7723 27.1189L36.4455 27.5764L36.3895 27.0722C36.2962 26.1853 36.1655 26.0826 35.1011 26.0359C34.485 26.0079 34.3916 25.9706 34.1955 25.7465C33.9715 25.4851 33.9715 25.4478 33.9715 23.6179V21.7413L34.2422 21.4706L34.5223 21.1998L39.6665 21.2185L44.82 21.2465L44.9974 21.4706Z" fill="#1A73E8"/>
<path d="M35.5586 23.6273V24.4675H39.5731H43.5876V23.6273V22.787H39.5731H35.5586V23.6273Z" fill="#1A73E8"/>
<path d="M28.0527 29.3784C26.3722 29.7891 24.9251 31.1896 24.4956 32.8234C23.9728 34.8306 24.7944 36.9593 26.5309 38.0983C27.3338 38.6211 28.1274 38.8545 29.1357 38.8545C30.1066 38.8545 30.5454 38.7518 31.4044 38.3037C33.3183 37.2954 34.3266 35.092 33.8317 32.9821C33.2249 30.396 30.6015 28.7622 28.0527 29.3784ZM30.2373 31.0682C31.5724 31.5443 32.5154 33.0288 32.338 34.4105C32.2073 35.4842 31.423 36.5578 30.4427 37.0059C29.7705 37.314 28.5008 37.2954 27.81 36.9686C27.1564 36.6605 26.5776 36.0817 26.2508 35.4095C26.0268 34.952 25.9894 34.7653 25.9894 34.0837C25.9894 33.3742 26.0268 33.2155 26.2975 32.6647C27.0351 31.1709 28.6595 30.5174 30.2373 31.0682Z" fill="#1A73E8"/>
<path d="M53.9039 29.341C53.0823 29.4904 52.0927 30.0412 51.4672 30.6854C49.5906 32.59 49.5813 35.5588 51.4392 37.4261C52.4008 38.3877 53.5305 38.8545 54.8842 38.8545C57.5543 38.8545 59.6363 36.7632 59.6456 34.0837C59.6456 32.6927 59.2255 31.7124 58.1985 30.6667C57.0408 29.4997 55.5284 29.0329 53.9039 29.341ZM55.407 30.9188C56.4527 31.1055 57.2182 31.6937 57.7504 32.702C57.9745 33.1315 58.0118 33.2995 58.0118 34.0371C58.0118 34.7559 57.9745 34.952 57.7691 35.4001C57.4516 36.0723 56.8728 36.6512 56.2006 36.9686C55.7618 37.174 55.5471 37.2113 54.8375 37.2113C54.1093 37.2113 53.9319 37.174 53.4745 36.9499C52.1301 36.2964 51.3925 34.7373 51.7566 33.3182C52.1114 31.9271 53.241 30.9842 54.7535 30.8254C54.8095 30.8161 55.0989 30.8628 55.407 30.9188Z" fill="#1A73E8"/>
<path d="M37.9863 33.2622V34.0837H38.7799H39.5735V33.2622V32.4499H38.7799H37.9863V33.2622Z" fill="#1A73E8"/>
<path d="M41.9351 32.4779L41.1602 32.5059V33.2902V34.0837H42.0004H42.8407V33.2995C42.8407 32.8607 42.8126 32.4966 42.7753 32.4779C42.7286 32.4593 42.3552 32.4593 41.9351 32.4779Z" fill="#1A73E8"/>
<path d="M44.4277 33.2622V34.0837H45.2213H46.0149V33.2622V32.4499H45.2213H44.4277V33.2622Z" fill="#1A73E8"/>
<path d="M39.3104 36.7538C39.049 36.8845 38.7036 37.1552 38.5449 37.3513C38.0221 38.0141 37.966 38.3222 38.0034 40.6843C38.0314 43.1023 38.0781 43.2704 38.8436 43.9239C39.5438 44.5307 39.7586 44.5494 43.8385 44.5214L47.4609 44.4934L47.9557 44.2227C48.7586 43.7745 49.1227 43.1677 49.2347 42.066C49.3001 41.4498 49.3467 41.3565 50.0843 40.2455C50.5138 39.6013 50.8685 38.9851 50.8685 38.8637C50.8685 38.7424 50.7472 38.5183 50.5978 38.3689C50.355 38.1262 50.2617 38.0982 49.7295 38.0982C49.1414 38.0982 49.132 38.0982 48.9546 37.7621C48.7119 37.3046 48.0677 36.7538 47.6196 36.6231C47.3675 36.5484 46.1071 36.511 43.521 36.511H39.7959L39.3104 36.7538ZM47.3675 38.3316C47.5169 38.4716 47.6009 38.6583 47.6009 38.8451C47.6009 39.1905 48.0397 39.6853 48.3385 39.6853C48.5065 39.6853 48.4785 39.7693 48.0677 40.3949C47.6196 41.0764 47.6009 41.1417 47.6009 41.7486C47.6009 42.2807 47.5636 42.4208 47.3862 42.6355L47.1621 42.8876H43.7638C41.8872 42.8876 40.2441 42.8596 40.104 42.8222C39.6185 42.7009 39.5532 42.3928 39.5905 40.3668L39.6185 38.5463L39.8799 38.3222L40.1414 38.0982H43.6424H47.1434L47.3675 38.3316Z" fill="#1A73E8"/>
<path d="M41.1602 40.4789V41.2725H43.5875H46.0149V40.4789V39.6853H43.5875H41.1602V40.4789Z" fill="#1A73E8"/>
<path d="M19.5 45.9593C19.5 49.2923 19.5373 51.5609 19.6027 51.813C19.8361 52.8493 20.6763 53.9883 21.5353 54.4271L21.9274 54.6232V59.618V64.6128H22.721H23.5145V59.8047V54.9966H27.529H31.5436V59.534V64.0713L31.8143 64.342L32.0851 64.6128H34.2417H36.3983V57.7974V50.9821H42H47.6017V57.7974V64.6128H49.7583H51.9149L52.1857 64.342L52.4564 64.0713V59.534V54.9966H56.471H60.4855V59.8047V64.6128H61.279H62.0726V59.618V54.6232L62.4647 54.4271C63.333 53.9883 64.1546 52.868 64.3973 51.813C64.4627 51.5609 64.5 49.2923 64.5 45.9593V40.5257H63.7064H62.9222L62.8942 46.0526C62.8662 51.5609 62.8662 51.5889 62.6608 51.9717C62.2593 52.7186 61.6805 53.1667 60.9056 53.3068L60.4855 53.3815V48.7508C60.4855 43.8026 60.4668 43.5505 60.0093 42.6543C59.7573 42.1501 58.9824 41.3379 58.4876 41.0485C57.6847 40.5817 57.2832 40.5257 54.5944 40.5257H52.1017L51.8589 40.8151L51.6162 41.1045V43.6159V46.1273H48.2645H44.9222L44.6701 46.3607C44.4274 46.5848 44.4274 46.5941 44.4274 47.9479V49.3016H42H39.5726V47.9479C39.5726 46.6221 39.5633 46.5754 39.3392 46.3607L39.1151 46.1273H35.7448H32.3838V43.6439C32.3838 41.1232 32.3558 40.9084 32.0197 40.647C31.9077 40.563 31.1888 40.535 29.3869 40.5257C26.7168 40.5257 26.3154 40.5817 25.5124 41.0485C25.0176 41.3379 24.2427 42.1501 23.9907 42.6543C23.5332 43.5505 23.5145 43.8026 23.5145 48.7134V53.3161H23.2344C22.5716 53.3161 21.6753 52.6532 21.3299 51.9157C21.1432 51.5049 21.1338 51.3462 21.1058 46.0059L21.0778 40.5257H20.2936H19.5V45.9593ZM30.7967 44.7176V47.3317L31.0394 47.5184C31.2822 47.7051 31.3942 47.7145 34.6338 47.7145H37.9855V48.508V49.3016H33.5508H29.1162V46.9209V44.5402H28.3226H27.529V47.4717V50.4126L27.7531 50.674L27.9772 50.9354L31.1515 50.9634L34.3164 50.9914L34.5405 51.2248L34.7645 51.4676L34.7925 57.2466L34.8205 63.0257H33.971H33.1307V58.423V53.8109L32.888 53.5869L32.6452 53.3628L28.8734 53.3348L25.0923 53.3068L25.1203 48.6201C25.1483 44.4281 25.167 43.896 25.3071 43.5972C25.6151 42.9344 26.222 42.3929 26.8568 42.2062C26.9969 42.1595 27.9398 42.1221 28.9575 42.1221L30.7967 42.1128V44.7176ZM57.5539 42.3649C57.7687 42.4769 58.0954 42.7476 58.2822 42.9717C58.889 43.6719 58.8983 43.7746 58.8983 48.8068V53.3161L58.4129 53.3254C58.1421 53.3254 56.4429 53.3348 54.6317 53.3441L51.3548 53.3628L51.112 53.5869L50.8693 53.8109V58.423V63.0257H50.0851C49.5436 63.0257 49.2915 62.9883 49.2635 62.9043C49.2355 62.8483 49.2261 60.2435 49.2261 57.1252L49.2355 51.4676L49.4595 51.2248L49.6836 50.9914L52.8485 50.9634L56.0228 50.9354L56.2469 50.674L56.471 50.4126V47.4717V44.5402H55.6774H54.8838V46.9209V49.3016H50.4492H46.0145V48.508V47.7145H49.3662H52.7272L52.9886 47.4904L53.25 47.2663V44.6802V42.1035L55.2106 42.1315C57.0218 42.1595 57.1992 42.1781 57.5539 42.3649Z" fill="#1A73E8"/>
</svg>
