<svg width="84" height="85" viewBox="0 0 84 85" fill="none" xmlns="http://www.w3.org/2000/svg">

<path d="M37.1321 19.6534C36.7259 19.7562 36.3981 20.0302 36.2219 20.4168C36.1436 20.5832 36.1289 20.7447 36.1289 21.4445C36.1289 22.2128 36.1387 22.296 36.2464 22.5211C36.4763 23.0153 36.8238 23.2355 37.4404 23.2796L37.8417 23.304L37.871 23.9891C37.8955 24.7134 37.9591 24.9385 38.1597 25.0706C38.4093 25.2321 38.5757 25.2419 39.4321 25.1293C40.5723 24.9776 43.2344 24.9678 44.3941 25.1098C45.4756 25.237 45.7105 25.1978 45.9845 24.8259C46.0775 24.7085 46.0873 24.6057 46.102 23.9842L46.1167 23.2796H46.4641C46.9192 23.2796 47.1492 23.2062 47.4135 22.9713C47.8196 22.614 47.849 22.5064 47.849 21.4689C47.849 20.593 47.8441 20.5538 47.7218 20.319C47.6532 20.1819 47.5064 20.0058 47.3939 19.9177C46.973 19.5996 47.1688 19.6094 41.9816 19.6143C39.3929 19.6192 37.2153 19.6339 37.1321 19.6534Z" fill="#1A73E8"/>
<path d="M51.9393 24.5372C51.7729 24.6938 50.9948 25.7997 50.848 26.0934C50.7893 26.2059 50.7453 26.387 50.7404 26.5338C50.7355 26.9106 50.8529 27.0329 51.5478 27.3902C53.1138 28.2074 54.7237 29.3182 56.0059 30.4829C56.6518 31.0701 57.009 31.1778 57.4299 30.9184C57.5914 30.8205 58.4722 29.6461 58.6239 29.3231C58.7316 29.1029 58.6777 28.8631 58.4771 28.6772C58.3939 28.594 57.6941 28.0899 56.9258 27.5565C56.1576 27.0231 54.9244 26.1619 54.1854 25.6432C52.2476 24.2827 52.2231 24.273 51.9393 24.5372Z" fill="#1A73E8"/>
<path d="M40.0924 26.9252C35.654 27.4146 31.7146 29.2888 28.6415 32.3766C25.7739 35.2589 23.9926 38.7578 23.3369 42.7803C23.1656 43.8374 23.1362 44.2729 23.1411 45.741C23.1411 47.6005 23.2488 48.5303 23.65 50.2186C24.1688 52.406 25.2111 54.6962 26.5568 56.6047C27.79 58.3614 29.6153 60.1525 31.3819 61.3465C35.6637 64.2386 40.8509 65.2614 45.8913 64.2093C49.4587 63.4605 52.708 61.7037 55.2918 59.1248C57.3765 57.0451 58.825 54.7696 59.8086 52.0194C60.1462 51.07 60.4349 49.9543 60.616 48.8728C60.8264 47.6397 60.8656 47.1503 60.8607 45.7165C60.8607 44.2827 60.8215 43.7688 60.616 42.5601C59.6079 36.6242 55.8154 31.5056 50.4423 28.8337C48.294 27.7669 46.2192 27.165 43.8507 26.9252C42.9943 26.8371 40.8901 26.8371 40.0924 26.9252ZM43.6696 29.3231C44.893 29.4503 45.9647 29.6754 47.0657 30.0326C52.2187 31.7111 56.2069 35.7777 57.7777 40.9599C58.2671 42.5748 58.4628 43.9059 58.4628 45.692C58.4628 46.9105 58.4188 47.5222 58.2426 48.5205C57.2297 54.3634 53.168 59.2178 47.5845 61.2389C44.066 62.5112 40.112 62.5308 36.5593 61.2829C31.3183 59.4478 27.3251 55.0828 26.0038 49.7292C25.6368 48.2513 25.539 47.3999 25.539 45.741C25.539 43.9793 25.6466 43.1131 26.0479 41.557C27.2223 37.0108 30.3836 33.1009 34.5921 30.9967C36.4173 30.0816 38.4531 29.4943 40.4594 29.3035C41.2081 29.235 42.916 29.2448 43.6696 29.3231Z" fill="#1A73E8"/>
<path d="M42.7878 32.2396C42.5235 32.2885 42.2642 32.4891 42.1271 32.7534C42.0244 32.9442 42.0244 32.9834 42.0097 38.7676C41.9999 43.945 42.0048 44.6105 42.0733 44.816C42.1956 45.1781 42.3963 45.4228 42.6997 45.5598L42.9639 45.6871L48.7824 45.6968C53.0202 45.7017 54.64 45.6871 54.7427 45.6479C55.1881 45.4717 55.4181 45.0803 55.4181 44.5028C55.4229 43.8128 55.0559 42.1392 54.64 40.9256C53.4704 37.505 51.1166 34.931 47.8086 33.4483C46.5509 32.8855 44.6963 32.3717 43.5414 32.2591C43.3554 32.2396 43.1548 32.22 43.101 32.2151C43.0471 32.2053 42.9052 32.22 42.7878 32.2396Z" fill="#1A73E8"/>
</svg>
