<svg width="84" height="85" viewBox="0 0 84 85" fill="none" xmlns="http://www.w3.org/2000/svg">

<path d="M32.8311 19.7243C31.4586 19.953 30.0633 21.0167 29.4914 22.2862C29.0454 23.2469 28.9768 24.0704 29.0111 27.9247C29.0454 31.0356 29.0225 31.493 28.8738 31.493C28.5078 31.493 27.4785 32.0763 26.941 32.5796C26.5979 32.8998 26.2776 33.3459 26.1061 33.7576C25.9459 34.1121 25.0996 37.2802 24.2304 40.78L22.6406 47.1504L22.9837 49.7009C23.4527 53.2807 23.4641 53.9669 23.1095 55.1335C22.9609 55.6481 22.8579 56.1857 22.8922 56.3344C23.0981 57.1235 23.8186 57.501 24.5506 57.1922C25.0538 56.9863 25.2597 56.6203 25.5685 55.4308C25.8773 54.2185 25.843 52.9833 25.4427 49.9525L25.0996 47.3791L26.6436 41.1917C27.5014 37.7949 28.2677 34.867 28.3706 34.6726C28.748 33.9406 29.8231 33.6775 30.5665 34.1236C30.7953 34.2723 31.0354 34.5582 31.1727 34.867L31.4014 35.3817L30.578 39.4761C30.029 42.141 29.7774 43.6621 29.8231 43.868C29.8689 44.0281 30.1433 44.4398 30.4293 44.7829C31.7903 46.3727 32.6824 48.4199 32.8654 50.41C32.9226 51.0047 33.0255 51.588 33.0941 51.7252C33.4601 52.3886 34.3636 52.5144 34.9584 51.9768C35.3243 51.6452 35.3358 51.6109 35.3129 50.7988C35.2672 48.5 34.4208 46.0868 32.9569 44.0395L32.3164 43.1589L33.0484 39.4761C33.4601 37.4518 33.7918 35.6104 33.7918 35.3817C33.7918 34.8327 33.4944 33.8491 33.1742 33.3344C32.8654 32.8541 31.9733 32.0077 31.6645 31.9048C31.4586 31.8362 31.4472 31.676 31.4815 27.7531C31.5158 23.1669 31.5158 23.2012 32.3507 22.5264L32.7853 22.1718H42.9986H53.2119L53.658 22.5264C54.4014 23.1211 54.4929 23.4299 54.4929 25.3513V27.0555L53.8066 27.7989C52.7887 28.9083 52.4914 29.5945 52.4914 30.8068C52.4914 31.6417 52.5371 31.8705 52.8116 32.4309C52.9832 32.7854 53.3263 33.2772 53.5779 33.5288L54.0239 33.9749L53.6237 34.3638C53.4063 34.5811 53.0518 35.0843 52.8574 35.496C52.5371 36.1365 52.4914 36.3538 52.4914 37.1544C52.4914 37.955 52.5371 38.1723 52.8574 38.8128C53.0518 39.2245 53.4063 39.7277 53.6237 39.945L54.0239 40.3339L53.4635 40.9515C52.1025 42.4383 52.1368 44.7486 53.5322 46.2126L53.9782 46.6815L53.555 47.1618C52.5943 48.2369 52.2398 49.6322 52.5943 50.8674C52.8459 51.7367 53.2119 52.2856 53.921 52.9032L54.4929 53.395V54.1156C54.4929 54.5159 54.4242 54.9734 54.3328 55.1564C54.0811 55.6253 53.4178 56.1628 52.926 56.3001C52.6401 56.3801 49.9752 56.4259 45.3203 56.4259H38.1607L37.8176 56.7118C37.383 57.0778 37.2686 57.5353 37.4974 58.0614C37.7833 58.759 37.7947 58.7705 42.2552 58.8277L46.3154 58.8848L45.286 59.9142C44.4054 60.7948 44.0851 61.035 43.1702 61.4811C42.5754 61.767 41.8092 62.0758 41.4775 62.1558C40.3681 62.4303 39.9449 63.4139 40.5968 64.1802C40.9857 64.6377 41.386 64.7177 42.2666 64.489C43.9365 64.0544 45.7893 62.9679 47.1274 61.6412C47.8365 60.9321 49.1174 59.1936 49.1174 58.9306C49.1174 58.8848 50.1125 58.8277 51.3248 58.8048L53.5207 58.7705L54.287 58.4045C55.1562 57.9927 56.0597 57.1693 56.4257 56.4487C56.7345 55.854 57.009 54.7904 57.009 54.2299C57.009 53.9783 57.0662 53.7725 57.1577 53.7496C58.1527 53.4637 58.4958 53.2464 59.5481 52.217C61.0234 50.7874 61.2979 50.2498 61.2979 48.8202C61.2865 47.9281 61.2522 47.7108 60.9777 47.1847C60.8061 46.853 60.4745 46.3841 60.2572 46.1325L59.8569 45.6865L60.3601 45.0689C61.0577 44.1996 61.2979 43.5363 61.2979 42.4155C61.2979 41.3175 60.9548 40.4712 60.2343 39.7506L59.7768 39.2931L60.1771 38.9043C60.3944 38.6984 60.7375 38.1952 60.9319 37.7834C61.2636 37.1201 61.2979 36.9371 61.2979 36.0679C61.2865 35.233 61.2407 35.0042 60.9663 34.4438C60.7833 34.0893 60.4401 33.6089 60.2 33.3687L59.7539 32.9341L60.3143 32.3508C61.3208 31.2872 61.6296 29.7317 61.1149 28.3479C60.829 27.5816 59.9712 26.6094 59.2621 26.2549C58.6788 25.9689 57.5694 25.7288 57.2492 25.8317C57.0548 25.8889 57.0319 25.7859 56.9861 24.5279C56.929 23.3041 56.8947 23.0982 56.563 22.3891C55.9111 20.9709 54.6644 19.9988 53.1776 19.7243C52.377 19.5756 33.7117 19.5756 32.8311 19.7243ZM58.37 28.588C58.7703 28.9197 59.0219 29.6174 58.9076 30.0749C58.7932 30.5209 57.295 32.0306 56.8032 32.1907C56.2999 32.3623 55.6709 32.1907 55.282 31.7675C55.0533 31.5274 55.0075 31.3558 55.0075 30.7954V30.1092L55.9339 29.2056C56.8489 28.3021 56.8718 28.2907 57.4436 28.2907C57.9011 28.2907 58.0955 28.3593 58.37 28.588ZM57.8897 34.7069C58.6445 34.9928 59.0791 35.7591 58.8961 36.4911C58.7818 36.9714 57.2721 38.4468 56.7688 38.584C55.8196 38.8471 54.9504 38.1494 54.9504 37.1201C54.9504 36.6512 55.0075 36.5597 55.7853 35.7591C56.5287 34.9699 57.0662 34.5925 57.4322 34.5811C57.5008 34.5811 57.7067 34.6382 57.8897 34.7069ZM58.37 41.3061C58.7589 41.592 58.9991 42.2439 58.9076 42.7471C58.8275 43.1817 58.0269 44.1425 57.3064 44.6686C56.9747 44.9087 56.7231 44.9888 56.3457 44.9888C55.9111 44.9888 55.7738 44.9316 55.3964 44.5427C55.019 44.1768 54.9504 44.0281 54.9504 43.6278C54.9504 43.3647 55.019 43.0102 55.1105 42.8386C55.3278 42.4269 56.5401 41.2603 56.8947 41.1116C57.295 40.9401 58.0155 41.043 58.37 41.3061ZM58.2442 47.6193C58.7246 47.9167 58.9991 48.5457 58.8961 49.0833C58.8161 49.5293 57.558 50.9361 56.9861 51.2334C55.9225 51.7824 54.6301 50.7073 54.9618 49.5293C55.0304 49.2777 55.385 48.8317 55.9683 48.2712C56.8146 47.4478 56.8947 47.3906 57.3636 47.3906C57.6609 47.3906 58.0155 47.4821 58.2442 47.6193Z" fill="#1A73E8"/>
<path d="M41.6033 30.1663C38.9842 30.9898 37.6118 34.1007 38.8012 36.5368C38.9957 36.9371 39.2358 37.3717 39.3273 37.4975C39.4989 37.7262 39.4646 37.7605 38.7784 38.2638C37.1086 39.4647 35.9763 41.6606 35.9648 43.6506C35.9648 44.2682 35.9992 44.3597 36.3537 44.7143C36.8912 45.2518 37.4402 45.2518 37.9778 44.7143C38.2637 44.4283 38.3666 44.2225 38.3666 43.9366C38.3666 43.3876 38.6754 42.2667 38.9614 41.7978C39.3617 41.1116 40.2194 40.2996 40.8828 39.9565C42.8042 38.9843 44.9086 39.3617 46.3955 40.9629C47.1274 41.7521 47.482 42.5527 47.5963 43.6621C47.6535 44.2454 47.7336 44.4169 48.0424 44.7257C48.4541 45.1489 48.9116 45.2175 49.4492 44.943C49.8609 44.7257 50.0324 44.314 50.0324 43.582C50.021 41.6606 48.8544 39.4532 47.2189 38.2638C46.5327 37.7605 46.4984 37.7262 46.6699 37.4975C46.7614 37.3717 46.9902 36.9485 47.1846 36.5482C48.3626 34.1464 47.0702 31.1042 44.4969 30.2349C43.6963 29.9719 42.3467 29.9376 41.6033 30.1663ZM43.9136 32.6253C44.657 32.957 45.2289 33.8147 45.2289 34.581C45.2289 35.3016 44.6113 36.2508 43.925 36.6054C43.0673 37.0514 41.7634 36.6855 41.1687 35.8391C39.9221 34.0321 41.9007 31.7103 43.9136 32.6253Z" fill="#1A73E8"/>
<path d="M40.3224 51.5766C40.1738 51.6796 39.9793 51.9426 39.8878 52.1599C39.682 52.6517 39.8421 53.2236 40.2767 53.5667C40.5512 53.784 40.7342 53.7954 43.0101 53.7954H45.4577L45.8237 53.4637C46.1439 53.1778 46.2011 53.052 46.2011 52.5945C46.2011 52.137 46.1439 52.0112 45.8237 51.7253L45.4577 51.3936H43.0216C40.9629 51.3936 40.5512 51.4165 40.3224 51.5766Z" fill="#1A73E8"/>
</svg>
