<svg width="84" height="85" viewBox="0 0 84 85" fill="none" xmlns="http://www.w3.org/2000/svg">

<path d="M36.7858 19.655C36.0238 19.7165 34.9163 20.1567 34.1637 20.6962C33.4112 21.2358 32.5924 22.1208 32.2043 22.8213C32.0008 23.181 31.6979 24.1276 31.608 24.6624C31.5654 24.9085 31.5323 25.2966 31.5323 25.5238V25.9356L27.7601 25.9545C24.0685 25.9782 23.9738 25.9782 23.6046 26.0823C22.3126 26.4325 21.1009 27.4879 20.6182 28.6901C20.3058 29.4568 20.3011 29.4852 20.268 32.1688C20.2396 34.2276 20.2585 53.3012 20.2869 53.3343C20.2964 53.3438 22.6107 53.3627 25.4315 53.3816L30.5667 53.41L30.6141 52.8705C30.6377 52.5723 30.6519 52.2836 30.6425 52.2221C30.6188 52.099 30.5005 52.0233 30.2307 51.9618C30.1266 51.9381 28.1956 51.905 25.938 51.8908C23.6851 51.8718 21.8203 51.8387 21.7967 51.8198C21.7777 51.7961 21.7588 46.8881 21.7588 40.9104C21.7588 30.5833 21.7635 30.02 21.844 29.6367C22.0523 28.657 22.5776 28.0133 23.4579 27.6583C23.846 27.5021 24.5891 27.469 28.134 27.4501C29.729 27.4406 31.4849 27.4312 32.0339 27.4217L33.0373 27.4075L33.061 26.0728C33.0894 24.6529 33.1178 24.4163 33.3544 23.7868C33.681 22.916 34.5234 22.0356 35.4748 21.5671C36.1705 21.2263 36.4545 21.1743 37.9879 21.1127C39.4883 21.0512 42.7871 21.0843 43.2651 21.1648C43.7053 21.2405 44.2638 21.4677 44.6802 21.7469C45.1441 22.0546 45.8824 22.7882 46.1758 23.2425C46.6823 23.9998 46.8148 24.5961 46.8526 26.2621L46.881 27.4122H47.0041C51.4625 27.4264 55.6274 27.4927 55.9777 27.5589C56.7018 27.6915 57.3786 28.2499 57.7951 29.0593L58.0365 29.5326V34.1424C58.0365 36.6792 58.0507 40.262 58.0696 42.0984L58.098 45.4446H58.8269H59.5605L59.5415 37.5738C59.5226 29.7597 59.5179 29.7029 59.4232 29.348C59.073 28.0938 58.169 26.9815 57.0189 26.4041C56.432 26.1059 56.1386 26.0349 55.3624 25.9876C54.9743 25.9687 53.2326 25.9498 51.4956 25.945H48.334V25.5001C48.334 24.1702 47.7424 22.6462 46.8384 21.6239C46.1143 20.8193 45.1914 20.2182 44.0792 19.8396C43.6579 19.6976 43.5869 19.6881 42.612 19.6455C41.3672 19.5982 37.4058 19.6029 36.7858 19.655Z" fill="#1A73E8" stroke="#1A73E8"/>
<path d="M37.0604 23.2C36.5208 23.2946 35.6973 23.9052 35.3707 24.4542C35.1294 24.8517 35.082 25.1499 35.082 26.3568V27.4122H39.9569H44.8271L44.8081 27.1141C44.7939 26.9531 44.775 26.4562 44.7608 26.016C44.7229 24.7192 44.6188 24.3974 44.0603 23.8531C43.3835 23.1905 43.4214 23.1952 40.0042 23.1763C38.5086 23.1668 37.1834 23.1763 37.0604 23.2ZM42.9481 24.847C43.2368 25.1546 43.2699 25.2304 43.2841 25.5995L43.2936 25.9214L39.9475 25.9356L36.5966 25.945V25.5806C36.5966 25.1452 36.6865 24.9275 36.9231 24.7902C37.1219 24.6766 37.8366 24.6435 40.6952 24.6293L42.7351 24.6151L42.9481 24.847Z" fill="#1A73E8" stroke="#1A73E8"/>
<path d="M47.4821 33.7259C46.8858 33.8915 46.3273 34.256 45.7736 34.8287C45.0968 35.5339 44.614 36.3858 44.3726 37.2898C44.259 37.7205 44.2496 37.8341 44.2401 38.9368C44.2306 39.5852 44.259 40.9057 44.2969 41.8617C44.349 43.0734 44.3584 43.6366 44.3206 43.7076C44.2922 43.7691 43.8142 44.0909 43.1468 44.4932C42.5221 44.8719 41.4856 45.5013 40.8324 45.8989C39.4599 46.7319 35.9812 48.8428 34.0596 50.0023C32.7628 50.7833 32.725 50.8117 32.6966 50.9773C32.6587 51.1998 32.6634 54.0016 32.6966 54.1436C32.725 54.2335 32.7486 54.2477 32.8764 54.2241C36.2037 53.6419 44.1455 52.2789 44.5052 52.2315L44.7276 52.2031L44.756 52.4776C44.8223 53.0882 45.1346 59.7332 45.1015 59.7663C45.0731 59.7947 44.2306 60.0171 42.257 60.5188C41.4004 60.7365 40.681 60.9353 40.662 60.9543C40.6431 60.9732 40.6194 61.8062 40.61 62.8048L40.5958 64.6128H48.2063H55.8168L55.8026 63.2497C55.7979 62.5019 55.7837 61.6737 55.7742 61.4086L55.76 60.9306L55.4665 60.8549C55.3056 60.8123 54.3212 60.5662 53.2799 60.3059C52.2387 60.0408 51.3631 59.8184 51.3395 59.8136C51.2874 59.7947 51.3726 57.504 51.5524 54.2004C51.6045 53.197 51.6471 52.3404 51.6471 52.2931C51.6471 52.241 51.685 52.2126 51.7512 52.2126C51.8553 52.2126 58.1122 53.2728 60.1427 53.6325C62.1967 53.9969 63.6829 54.2477 63.6971 54.2335C63.7444 54.1909 63.7633 52.6007 63.7302 51.763L63.6923 50.8211L61.0656 49.2309C59.622 48.3553 57.8093 47.262 57.0426 46.7982C56.2759 46.3296 55.0926 45.6149 54.4158 45.2079C53.739 44.7961 52.9297 44.3039 52.6173 44.1099L52.0494 43.7549L52.0683 43.026C52.0778 42.6237 52.1109 41.7008 52.1441 40.972C52.2103 39.4574 52.2008 38.0186 52.1204 37.6353C51.8648 36.4331 51.1454 35.2026 50.2746 34.4784C49.948 34.2039 49.1623 33.7969 48.7979 33.7117C48.5092 33.6454 47.7519 33.6502 47.4821 33.7259ZM48.5754 35.1931C49.0251 35.2925 49.257 35.425 49.6356 35.8084C50.1894 36.3669 50.4165 36.8212 50.6106 37.7299C50.7195 38.2458 50.7337 38.8043 50.6579 40.12C50.568 41.6819 50.4923 44.5453 50.5396 44.5879C50.5822 44.6305 52.3239 45.6954 54.4158 46.9591C54.9649 47.2904 56.0724 47.9625 56.877 48.4499C57.6863 48.9374 59.2055 49.8603 60.261 50.4993C61.3164 51.1335 62.192 51.6778 62.2109 51.7109C62.2299 51.7393 62.2488 51.9192 62.2488 52.1132V52.4634L62.0121 52.4303C61.8796 52.4114 60.81 52.2268 59.6315 52.0185C58.453 51.8103 56.8107 51.5263 55.9777 51.3843C55.1447 51.2424 54.0277 51.053 53.4929 50.9584C52.2624 50.7454 50.5775 50.4709 50.3929 50.452L50.2509 50.4378L50.2178 50.8874C50.1752 51.4932 49.9622 55.8143 49.8723 57.8447C49.7303 61.1956 49.735 60.9022 49.8249 60.9401C49.8959 60.9637 51.4814 61.385 53.7532 61.9813L54.3212 62.128L54.3354 62.6155L54.3496 63.0983H48.2157H42.0866V62.6108V62.128L43.2604 61.8251C45.9771 61.1246 46.545 60.9543 46.6444 60.8075C46.6634 60.7791 46.6681 60.4999 46.6539 60.1875C46.6397 59.8752 46.5829 58.7014 46.5308 57.5844C46.403 54.7778 46.209 51.0672 46.1759 50.717L46.1475 50.4283L45.5748 50.5182C44.6992 50.6507 39.5119 51.5405 34.6655 52.3877C34.4288 52.4303 34.2158 52.4492 34.2016 52.435C34.1448 52.383 34.1827 51.7204 34.2442 51.6636C34.2726 51.6352 34.6229 51.4175 35.011 51.1856C35.4038 50.9489 36.3267 50.3904 37.0698 49.9408C37.8128 49.4912 38.9203 48.8191 39.5309 48.4499C44.1076 45.6859 45.3334 44.9192 45.6647 44.621L45.925 44.3938L45.8966 43.7691C45.7073 39.6042 45.6884 38.3641 45.802 37.7157C45.944 36.9111 46.2705 36.2864 46.8479 35.7374C47.4301 35.1836 47.875 35.0464 48.5754 35.1931Z" fill="#1A73E8" stroke="#1A73E8"/>
</svg>
