<svg width="84" height="85" viewBox="0 0 84 85" fill="none" xmlns="http://www.w3.org/2000/svg">

<path d="M30.7378 17.6662C30.3961 17.8302 29.993 18.2674 29.8837 18.6022C29.8359 18.7389 29.8154 19.0463 29.829 19.2786C29.8564 19.7364 29.7744 19.5724 31.5713 22.7359C31.9471 23.3918 32.6303 24.5943 33.0881 25.4005C34.1403 27.2453 34.3316 27.5254 34.6459 27.703C34.7894 27.785 35.9851 28.2975 37.2969 28.8509C38.6156 29.4043 40.0435 30.0056 40.474 30.19C40.9044 30.3677 41.6902 30.7025 42.2094 30.9211C42.7355 31.1397 43.1728 31.3516 43.1865 31.3857C43.1933 31.4199 42.7902 32.028 42.2914 32.7454C39.6746 36.4485 39.2168 37.125 39.1212 37.3846C38.9982 37.7399 39.046 38.1908 39.3193 39.3523C39.4286 39.8443 39.5106 40.2542 39.4901 40.2747C39.4764 40.2952 39.3603 40.3294 39.2305 40.3635C39.1075 40.3909 38.2534 40.6232 37.3311 40.876C36.4087 41.1288 35.5068 41.3747 35.3155 41.4226C35.131 41.4704 34.5571 41.6207 34.0515 41.7642C33.5459 41.9008 32.9788 42.058 32.7875 42.1058C32.1111 42.2766 29.2824 43.0487 28.4831 43.2742C27.5333 43.5475 27.2737 43.7183 26.9936 44.2649C26.7954 44.627 26.7954 44.6406 26.8296 45.563C27.0346 50.7352 30.6284 55.2309 35.6981 56.6589C36.9006 57.0005 38.7932 57.1987 39.3603 57.0415C40.6106 56.6999 40.9727 55.0464 39.982 54.206C39.6746 53.9396 39.3535 53.8508 38.4584 53.7893C35.5205 53.5843 32.972 52.0538 31.4005 49.5532C30.8607 48.6854 30.2937 47.1755 30.2732 46.5127L30.2595 46.2121L31.3527 45.9115C34.195 45.1462 35.0559 44.9139 37.0919 44.3605C38.2944 44.0326 39.6678 43.6636 40.146 43.5338C41.8063 43.0897 42.2163 42.953 42.4895 42.7617C42.838 42.5089 43.1386 41.9555 43.1386 41.5524C43.1386 41.2927 42.9542 40.384 42.5579 38.7101L42.4554 38.2523L44.0405 36.0113C46.5548 32.4584 47.2791 31.3925 47.3679 31.1466C47.566 30.559 47.3337 29.7528 46.8623 29.3906C46.6505 29.2267 45.5573 28.7416 42.6945 27.5322C41.9839 27.2316 40.9181 26.7875 40.3373 26.5415C38.6702 25.8378 37.536 25.3595 37.0919 25.175L36.682 25.0042L34.8031 21.7178C33.7714 19.9141 32.8285 18.3016 32.7123 18.1376C32.439 17.755 32.0906 17.591 31.4893 17.5637C31.1272 17.5432 30.9427 17.5705 30.7378 17.6662Z" fill="#1A73E8"/>
<path d="M29.154 26.2887C28.8329 26.3638 28.6416 26.5073 28.2726 26.9514C26.8651 28.6185 25.7583 29.3086 24.4533 29.3223C23.8657 29.3291 23.8179 29.3154 23.3259 29.0626C22.8613 28.8167 22.7657 28.7893 22.2942 28.7893C21.8364 28.7825 21.7408 28.803 21.4402 28.9875C20.5451 29.5477 20.4016 30.8049 21.16 31.5496C21.4812 31.8639 22.3284 32.3012 22.9501 32.472C23.5992 32.6496 24.8837 32.6838 25.5806 32.5403C27.5689 32.1372 29.3795 30.9347 30.6981 29.1583C31.2925 28.3589 31.395 27.8601 31.0876 27.2042C30.7459 26.4595 29.967 26.0905 29.154 26.2887Z" fill="#1A73E8"/>
<path d="M55.315 36.23C54.4746 36.5989 54.0441 37.5145 54.3038 38.389C54.3926 38.7033 54.5361 38.9014 55.1373 39.5847C56.7771 41.4226 57.7883 43.0146 58.5809 45.0096C60.6648 50.2433 60.0362 56.2832 56.9274 60.9224C56.374 61.7491 55.9025 62.3435 55.1988 63.1156C54.3516 64.038 54.2491 64.2293 54.2491 64.892C54.2423 65.2883 54.2764 65.4659 54.3926 65.6778C54.7205 66.2927 55.3286 66.6616 56.0255 66.6685C56.6541 66.6685 57.0162 66.4567 57.7951 65.6094C60.7058 62.4802 62.4754 58.8043 63.1723 54.4862C63.3089 53.6253 63.3294 53.2769 63.3294 51.398C63.3294 49.1433 63.2884 48.6787 62.9126 46.9227C62.3455 44.2444 61.1635 41.5729 59.5442 39.3114C58.4032 37.7058 57.1324 36.3666 56.6268 36.2095C56.251 36.1001 55.5951 36.107 55.315 36.23Z" fill="#1A73E8"/>
<path d="M50.9701 40.4593C50.1912 40.7531 49.7061 41.5115 49.7881 42.3177C49.8359 42.7823 50.0067 43.1034 50.5328 43.6773C52.0906 45.4059 53.0198 47.2644 53.4366 49.4712C53.6006 50.3526 53.6006 52.4639 53.4366 53.3111C53.013 55.477 52.1179 57.3012 50.6763 58.9342C50.0135 59.6857 49.7676 60.1298 49.7676 60.5945C49.7676 61.592 50.526 62.3777 51.5098 62.3914C52.1658 62.3982 52.4664 62.2479 53.1633 61.5237C55.0286 59.5901 56.2857 57.1646 56.887 54.3428C57.0646 53.4887 57.0919 53.2018 57.1261 51.8694C57.1534 50.9129 57.1329 50.1067 57.0851 49.6831C56.8391 47.6128 56.1559 45.5973 55.0764 43.7662C54.318 42.4817 53.013 40.9239 52.4254 40.6027C52.0018 40.3704 51.3732 40.309 50.9701 40.4593Z" fill="#1A73E8"/>
<path d="M47.0686 44.2512C46.5699 44.3741 46.1531 44.7021 45.9071 45.1599C45.7431 45.4537 45.7158 45.5971 45.7158 45.9934C45.7158 46.5947 45.8046 46.786 46.4264 47.5376C47.2053 48.4804 47.5606 49.3686 47.6289 50.5507C47.7041 51.8352 47.2804 53.0582 46.3922 54.0967C45.7978 54.8073 45.709 54.9917 45.709 55.5657C45.709 56.3036 46.0643 56.8775 46.7407 57.2328C46.9798 57.3558 47.6562 57.3968 47.9705 57.3148C48.7836 57.0961 50.0134 55.5452 50.6557 53.9327C51.0383 52.9762 51.2159 52.0128 51.2228 50.8513C51.2364 49.355 50.9905 48.2823 50.3414 46.9705C49.7879 45.8499 48.7563 44.6064 48.1755 44.3605C47.8817 44.2375 47.3283 44.1828 47.0686 44.2512Z" fill="#1A73E8"/>
</svg>
