<svg width="84" height="85" viewBox="0 0 84 85" fill="none" xmlns="http://www.w3.org/2000/svg">

<path d="M41.6147 19.674C40.9891 19.8281 40.3772 20.2452 40.0327 20.7483C39.6791 21.2605 39.5114 22.0311 39.661 22.43C39.7562 22.6838 40.0327 22.9332 40.282 23.0012C40.8169 23.1462 41.4107 22.711 41.4107 22.1671C41.4107 21.7048 41.796 21.4146 42.4034 21.4146C42.689 21.4146 42.7977 21.4373 43.0199 21.5416C43.3281 21.6912 43.5955 21.9631 43.736 22.2714C43.8766 22.5705 43.8675 23.1915 43.727 23.5542C43.5003 24.1344 42.9881 24.6284 42.4351 24.7962C42.3082 24.8324 41.8957 24.8823 41.5195 24.905C39.9511 25.0047 38.6502 25.3582 37.3447 26.0382C34.7247 27.4116 32.8708 29.7823 32.1636 32.6743C31.7829 34.2155 31.8101 36.0739 32.2362 37.6423C32.5807 38.9206 33.2515 40.2306 34.1128 41.3139C34.2805 41.527 34.4618 41.74 34.5162 41.7853L34.6114 41.8715L34.1944 42.0981C32.6079 42.9458 31.2163 44.215 30.2054 45.7335C29.0632 47.4469 28.2926 49.8946 28.4467 51.2998C28.5645 52.3424 28.9498 53.1764 29.6706 53.9289L29.9924 54.2689L29.7295 54.4502C29.1402 54.8491 28.5102 55.6242 28.2246 56.2996C28.0025 56.8254 27.8574 57.4917 27.8574 57.9994C27.8574 58.4663 27.8846 58.6204 28.0705 59.2641C28.2744 59.9531 28.5011 60.3157 29.6932 61.8478C30.8627 63.3437 31.1302 63.6338 31.6288 63.9647C33.8907 65.4424 36.9186 64.2593 37.585 61.6348C37.7164 61.1044 37.7345 60.3474 37.6212 59.8397C37.5578 59.5451 36.3611 56.5036 36.148 56.082C36.1027 55.9913 36.0619 55.9007 36.0619 55.8871C36.0619 55.8735 37.5442 55.8644 39.3573 55.8644C42.6346 55.8644 42.6527 55.8644 42.8521 55.7692C43.2148 55.5925 43.4187 55.1256 43.3145 54.7267C43.2465 54.4728 42.9473 54.1691 42.7026 54.1011C42.5756 54.0649 41.2883 54.0513 38.4281 54.0513H34.3349L34.3485 53.0495L34.3621 52.0478L34.489 51.939L34.6159 51.8302H42H49.384L49.5109 51.939L49.6378 52.0478L49.6514 53.1084L49.665 54.1691L49.3341 54.3912C48.7313 54.8037 48.1919 55.4066 47.8791 56.0276C47.6388 56.499 46.4467 59.527 46.3787 59.8397C46.2654 60.3474 46.2835 61.1044 46.415 61.6348C47.0813 64.2593 50.1093 65.4424 52.3712 63.9647C52.8698 63.6338 53.1372 63.3437 54.3067 61.8478C55.4988 60.3157 55.7255 59.9531 55.9295 59.2641C56.1153 58.6204 56.1425 58.4663 56.1425 57.9994C56.1425 57.4917 55.9974 56.8254 55.7753 56.2996C55.4898 55.6242 54.8597 54.8491 54.2704 54.4502L54.0075 54.2689L54.3294 53.9289C55.0501 53.1764 55.4354 52.3424 55.5532 51.2998C55.7073 49.8946 54.9368 47.4469 53.7945 45.7335C52.7836 44.215 51.3921 42.9458 49.8056 42.0981L49.3885 41.8715L49.4837 41.7853C49.656 41.6312 50.1863 40.9377 50.49 40.4753C51.5008 38.9251 52.0357 37.2071 52.0947 35.3079C52.149 33.5899 51.8227 32.085 51.0657 30.5484C50.1047 28.5992 48.5907 27.0535 46.6552 26.0382C46.1158 25.7571 45.3588 25.4398 45.0143 25.3537C44.901 25.3265 44.8149 25.2902 44.8194 25.2721C44.8285 25.2585 44.9282 25.0999 45.0415 24.9276C45.4812 24.2704 45.6444 23.7173 45.6444 22.8878C45.6489 22.3937 45.6308 22.2442 45.5447 21.9586C45.2092 20.8979 44.4658 20.1137 43.4414 19.7466C43.1604 19.6468 43.0244 19.6287 42.4986 19.6151C42.068 19.606 41.805 19.6242 41.6147 19.674ZM43.5593 26.8541C46.3515 27.4116 48.6134 29.2656 49.6786 31.8765C50.413 33.6624 50.49 35.7204 49.8871 37.5652C48.9126 40.5343 46.3878 42.6919 43.2873 43.1996C42.6164 43.3084 41.3835 43.3084 40.7126 43.1996C37.6121 42.6919 35.0873 40.5343 34.1128 37.5652C33.6278 36.0739 33.5779 34.4512 33.9768 32.9055C34.77 29.8276 37.3266 27.4388 40.4407 26.8586C41.1478 26.7272 41.1568 26.7272 42.1586 26.7408C42.8748 26.7498 43.1694 26.7725 43.5593 26.8541ZM36.5243 43.4942C37.0591 43.8433 38.079 44.3419 38.6728 44.5459C39.8061 44.9402 40.7534 45.0943 42 45.0943C43.2465 45.0943 44.1939 44.9402 45.3271 44.5459C45.9209 44.3419 46.9408 43.8433 47.4847 43.4897L47.9108 43.2087L48.1647 43.3084C48.5726 43.4761 49.3115 43.875 49.7466 44.1696C50.8436 44.904 51.7774 45.8785 52.4845 47.0253C53.2687 48.3036 53.8579 50.2482 53.7401 51.1865C53.595 52.3016 52.7519 53.2127 51.6686 53.4121L51.4736 53.4484V52.7639C51.4736 51.9934 51.4057 51.6035 51.2198 51.2364C51.0702 50.9372 50.6305 50.4703 50.3586 50.3298L50.1591 50.221V49.6091C50.1591 48.911 50.1047 48.7342 49.8282 48.4895C49.6786 48.358 49.4203 48.2492 49.2525 48.2492C48.9488 48.2492 48.5318 48.5348 48.4094 48.8294C48.3686 48.9337 48.346 49.1558 48.346 49.5003V50.017H42.0045H35.663L35.6449 49.4368C35.6313 48.8838 35.6222 48.843 35.5044 48.6708C35.1916 48.2175 34.5797 48.1314 34.1717 48.4895C33.8952 48.7342 33.8408 48.911 33.8408 49.6091V50.221L33.6414 50.3298C33.3694 50.4703 32.9297 50.9372 32.7801 51.2364C32.5943 51.6035 32.5263 51.9934 32.5263 52.7639V53.4484L32.3314 53.4121C31.248 53.2127 30.4049 52.3016 30.2598 51.1865C30.142 50.2482 30.7313 48.3036 31.5154 47.0253C32.5036 45.4207 33.9179 44.1742 35.6086 43.4126C35.8443 43.3039 36.0528 43.2177 36.071 43.2177C36.0891 43.2177 36.2931 43.3401 36.5243 43.4942ZM32.762 55.5245C33.4192 55.6604 34.0856 56.1319 34.4165 56.6894C34.4935 56.8209 34.8516 57.6549 35.2052 58.5388C35.8443 60.1298 35.8489 60.1525 35.8715 60.565C35.8851 60.9004 35.8715 61.041 35.7945 61.2948C35.5406 62.1379 34.8199 62.7181 33.9541 62.7861C33.3513 62.8314 32.694 62.5912 32.2951 62.1787C31.9733 61.8478 30.0876 59.4137 29.9652 59.1779C29.7794 58.8108 29.6978 58.4527 29.6978 58.0175C29.6978 56.3902 31.1755 55.1845 32.762 55.5245ZM52.2986 55.5245C53.9123 55.8644 54.7826 57.6957 54.0347 59.1734C53.9123 59.4137 52.0221 61.8569 51.7094 62.1787C51.3059 62.5912 50.6487 62.8314 50.0458 62.7861C49.18 62.7181 48.4593 62.1379 48.2055 61.2948C48.1284 61.041 48.1148 60.9004 48.1284 60.565C48.1511 60.1525 48.1556 60.1298 48.7947 58.5388C49.1483 57.6549 49.5064 56.8209 49.5834 56.6894C49.7829 56.354 50.2724 55.9052 50.6215 55.733C51.1427 55.4746 51.7275 55.4021 52.2986 55.5245Z" fill="#1A73E8"/>
<path d="M37.9241 33.7938C37.4029 33.8936 36.8091 34.3151 36.6685 34.6732C36.3422 35.539 37.353 36.2688 38.0783 35.6931C38.1735 35.6161 38.2868 35.5571 38.3276 35.5571C38.3684 35.5571 38.4817 35.6161 38.5769 35.6931C39.2704 36.2416 40.1996 35.6569 40.0319 34.7684C39.9866 34.5236 39.6466 34.1791 39.2659 33.9933C38.7899 33.7621 38.391 33.7032 37.9241 33.7938Z" fill="#1A73E8"/>
<path d="M45.2628 33.7939C44.7053 33.9027 44.0344 34.4058 43.9664 34.7685C43.8622 35.3215 44.1931 35.8156 44.7279 35.9017C44.941 35.9379 45.2175 35.8518 45.4215 35.6932C45.5167 35.6161 45.63 35.5572 45.6708 35.5572C45.7116 35.5572 45.8249 35.6161 45.9201 35.6932C46.2464 35.9515 46.6317 35.9742 46.9717 35.7521C47.5066 35.4076 47.5338 34.7231 47.0397 34.2835C46.5592 33.8574 45.8884 33.6715 45.2628 33.7939Z" fill="#1A73E8"/>
<path d="M39.8235 37.8281C39.3339 38.023 39.1028 38.5941 39.3203 39.0701C39.4201 39.2876 39.887 39.7455 40.2496 39.9766C40.6077 40.2078 41.138 40.3937 41.6094 40.4526C42.312 40.5478 43.1461 40.3619 43.749 39.9766C44.1116 39.7455 44.5785 39.2876 44.6782 39.0701C45 38.372 44.3246 37.5878 43.6084 37.8235C43.5132 37.8552 43.3047 38.0003 43.1461 38.1499C42.7472 38.5216 42.439 38.6576 41.9993 38.6576C41.5641 38.6576 41.2377 38.517 40.8751 38.168C40.4944 37.8054 40.1544 37.6966 39.8235 37.8281Z" fill="#1A73E8"/>
<path d="M45.6487 54.1056C45.2453 54.2461 45.0141 54.6087 45.0459 55.0484C45.0685 55.3612 45.2181 55.5878 45.5173 55.7646C45.7666 55.9097 46.1791 55.887 46.4284 55.7148C46.9089 55.3839 46.9723 54.7493 46.5598 54.3413C46.3015 54.0784 45.9706 53.9923 45.6487 54.1056Z" fill="#1A73E8"/>
<path d="M38.2383 61.7208C38.1295 61.7798 37.9799 61.9021 37.9028 61.9973C37.7079 62.2421 37.6807 62.6455 37.8394 62.99C38.1113 63.5702 38.5827 64.0462 39.1675 64.3227C39.7658 64.6083 39.8202 64.6128 42.0005 64.6128C44.1808 64.6128 44.2352 64.6083 44.8336 64.3227C45.4183 64.0462 45.8897 63.5702 46.1617 62.99C46.3203 62.6455 46.2932 62.2421 46.0982 61.9973C45.645 61.4262 44.8653 61.5304 44.5163 62.2104C44.3893 62.4597 44.208 62.6365 43.9859 62.7271C43.7321 62.8359 40.269 62.8359 40.0151 62.7271C39.793 62.6365 39.6117 62.4597 39.4848 62.2104C39.2173 61.6891 38.7006 61.4851 38.2383 61.7208Z" fill="#1A73E8"/>
</svg>
