<svg width="84" height="85" viewBox="0 0 84 85" fill="none" xmlns="http://www.w3.org/2000/svg">

<path d="M41.7564 19.8026C41.1597 20.0287 40.5991 20.5802 40.3008 21.2221L40.0566 21.7375V26.6649C40.0566 31.1765 40.0747 31.6286 40.2194 32.0625C40.4364 32.6864 40.9879 33.2922 41.6208 33.5996L42.1361 33.8527L44.4959 33.8798L46.8557 33.907L48.4107 35.661C50.0382 37.4963 50.2461 37.6591 50.6982 37.415C51.105 37.198 51.1231 37.0985 51.1322 35.4621V33.907L55.9963 33.8798L60.8515 33.8527L61.3216 33.6357C61.9093 33.3735 62.5332 32.7226 62.7592 32.1349C62.9219 31.7099 62.931 31.3935 62.931 26.6649V21.647L62.7049 21.195C62.3885 20.553 61.837 20.0377 61.2222 19.8026C60.7972 19.6399 60.5079 19.6128 59.5043 19.6128C58.3652 19.6128 58.2928 19.6218 58.112 19.8207C57.8408 20.11 57.8498 20.6073 58.121 20.8605C58.3109 21.0413 58.4284 21.0594 59.3687 21.0594C60.5441 21.0594 60.8967 21.1769 61.2312 21.6832L61.4392 21.9906V26.7373C61.4392 31.3935 61.4392 31.4839 61.2493 31.7823C61.1499 31.9541 60.969 32.1439 60.8696 32.2072C60.7159 32.2886 59.3416 32.3247 55.3635 32.3609C50.4269 32.4061 50.0382 32.4152 49.8935 32.5689C49.7669 32.6954 49.7217 32.9305 49.6856 33.7533L49.6404 34.784L48.6458 33.6538C48.1033 33.03 47.5609 32.4875 47.4433 32.4423C47.3258 32.3971 46.1504 32.3609 44.8304 32.3609C42.2265 32.3609 42.1632 32.3519 41.7745 31.8365C41.6027 31.6014 41.5937 31.4477 41.5937 26.7373C41.5937 21.9996 41.5937 21.8821 41.7745 21.638C41.8739 21.5024 42.1 21.3216 42.2717 21.2311C42.5701 21.0684 42.9498 21.0594 49.6584 21.0594C56.6202 21.0594 56.7377 21.0594 56.9186 20.8785C57.1717 20.6254 57.1627 20.0377 56.9005 19.7936C56.7016 19.6128 56.6292 19.6128 49.4686 19.6218C42.4616 19.6218 42.2085 19.6308 41.7564 19.8026Z" fill="#1A73E8"/>
<path d="M43.9634 23.2473C43.5927 23.5367 43.6108 24.2871 43.9905 24.495C44.09 24.5493 45.1297 24.5854 46.4588 24.5854C48.7372 24.5854 48.7553 24.5854 48.9451 24.3775C49.2164 24.0882 49.2073 23.5909 48.9361 23.3378C48.7281 23.1479 48.6649 23.1389 46.4226 23.1389C44.7138 23.1389 44.081 23.166 43.9634 23.2473Z" fill="#1A73E8"/>
<path d="M50.2458 23.3468C49.9746 23.6361 49.9836 24.1334 50.2549 24.3865C50.4628 24.5854 50.4809 24.5854 54.676 24.5854C58.6723 24.5854 58.8983 24.5764 59.0972 24.4137C59.3956 24.1696 59.3956 23.5547 59.0972 23.3106C58.8983 23.1479 58.6723 23.1389 54.667 23.1389H50.4357L50.2458 23.3468Z" fill="#1A73E8"/>
<path d="M24.2345 24.2058C23.3394 24.5132 22.6613 25.2636 22.4714 26.1496C22.3991 26.4751 22.381 28.1297 22.3991 31.4569C22.4262 36.1854 22.4262 36.303 22.6161 36.7098C22.8692 37.2523 23.4569 37.84 23.9994 38.0931C24.4063 38.283 24.5238 38.283 29.3247 38.3101L34.225 38.3372V39.9195C34.225 41.4745 34.225 41.5017 34.4511 41.7187C34.6771 41.9537 35.0207 42.008 35.2919 41.8633C35.3823 41.8181 36.1327 41.0044 36.9736 40.0641L38.5015 38.3372L40.9065 38.3101L43.3115 38.283L43.7726 38.0389C44.3512 37.7315 44.9299 37.0895 45.1107 36.5471C45.3186 35.9413 45.3006 35.2994 45.0745 35.0733C44.6406 34.6394 43.8088 34.9558 43.8088 35.5525C43.8088 35.9142 43.4833 36.4567 43.1487 36.6646C42.8866 36.8183 42.6153 36.8364 40.3008 36.8816L37.7421 36.9268L37.3624 37.3517C37.1544 37.5868 36.7023 38.1022 36.3497 38.5L35.7168 39.2142L35.6897 38.2378C35.6536 36.7369 36.2774 36.8906 30.0028 36.8635C24.8222 36.8364 24.7408 36.8364 24.4876 36.6465C24.352 36.538 24.1531 36.321 24.0536 36.1493C23.8819 35.8509 23.8728 35.6791 23.8728 31.1856C23.8728 26.014 23.8547 26.1948 24.4786 25.7428L24.7769 25.5348L31.802 25.4896C39.5322 25.4354 39.044 25.4806 39.1616 24.8839C39.2068 24.6398 39.1706 24.5493 38.9446 24.3143L38.6733 24.043H31.6754C25.2833 24.0521 24.6504 24.0611 24.2345 24.2058Z" fill="#1A73E8"/>
<path d="M44.1261 26.023C43.8368 26.1496 43.7012 26.3666 43.7012 26.7192C43.7012 26.9362 43.7645 27.117 43.891 27.2436C44.0809 27.4335 44.108 27.4335 49.153 27.4335H54.2252L54.397 27.2165C54.6139 26.9452 54.6139 26.4751 54.397 26.2039L54.2252 25.9869L49.2615 25.9688C46.5401 25.9597 44.2256 25.9869 44.1261 26.023Z" fill="#1A73E8"/>
<path d="M55.8615 26.032C55.4547 26.1948 55.3371 26.8457 55.6445 27.2164C55.8163 27.4244 55.8706 27.4334 57.3172 27.4605L58.818 27.4877L59.0892 27.2164C59.4238 26.8909 59.4328 26.5835 59.1435 26.24L58.9265 25.9868L57.4889 25.9687C56.7024 25.9597 55.97 25.9868 55.8615 26.032Z" fill="#1A73E8"/>
<path d="M26.0521 27.4877C25.7537 27.7227 25.7175 28.2833 25.9978 28.5636C26.1696 28.7353 26.2962 28.7444 28.5294 28.7444C30.7626 28.7444 30.8891 28.7353 31.0609 28.5636C31.3412 28.2833 31.305 27.7227 31.0067 27.4877C30.7806 27.3068 30.6541 27.2978 28.5294 27.2978C26.4047 27.2978 26.2781 27.3068 26.0521 27.4877Z" fill="#1A73E8"/>
<path d="M32.8239 27.5238C32.5437 27.7951 32.5346 28.1838 32.7878 28.5093L32.9686 28.7444H35.3193H37.6701L37.9051 28.5093C38.095 28.3194 38.1221 28.22 38.0769 27.9488C37.9775 27.3068 37.9232 27.2978 35.3374 27.2978H33.0409L32.8239 27.5238Z" fill="#1A73E8"/>
<path d="M43.9627 28.9615C43.592 29.2418 43.6372 30.0735 44.035 30.2272C44.1164 30.2544 46.5214 30.2815 49.3784 30.2815H54.5771L54.7941 30.0555C54.9388 29.9198 55.0201 29.73 55.0201 29.5582C55.0201 29.3864 54.9388 29.1965 54.7941 29.0609L54.5771 28.8349H49.3513C45.0928 28.8439 44.0983 28.862 43.9627 28.9615Z" fill="#1A73E8"/>
<path d="M25.9978 30.3719C25.7175 30.6522 25.7537 31.2128 26.0521 31.4478C26.2871 31.6377 26.3595 31.6377 32.5618 31.6377C37.0281 31.6377 38.8906 31.6106 39.0534 31.5382C39.4783 31.3393 39.5597 30.7426 39.2161 30.3448C39.0895 30.2001 38.6556 30.1911 32.6251 30.1911C26.2962 30.1911 26.1787 30.1911 25.9978 30.3719Z" fill="#1A73E8"/>
<path d="M26.0521 33.1837C25.7537 33.4188 25.7175 33.9793 25.9978 34.2596C26.1606 34.4223 26.2962 34.4404 27.5258 34.4404H28.882L29.0628 34.2054C29.316 33.8799 29.3069 33.4911 29.0266 33.2199C28.8187 33.0029 28.7644 32.9938 27.5529 32.9938C26.4137 32.9938 26.2691 33.0119 26.0521 33.1837Z" fill="#1A73E8"/>
<path d="M30.3466 33.1475C30.0482 33.3916 30.003 33.8889 30.2472 34.1963L30.437 34.4404H33.5834H36.7297L36.9196 34.2325C37.1908 33.9432 37.1818 33.5001 36.8925 33.2199L36.6755 32.9938H33.6105C30.8167 32.9938 30.5184 33.0119 30.3466 33.1475Z" fill="#1A73E8"/>
<path d="M50.8169 41.3208C47.5982 41.7186 45.8533 43.8071 46.233 46.8088C46.4138 48.2283 46.5675 48.3368 48.1498 48.1921C49.2437 48.0927 50.0213 47.9209 50.6361 47.6496L51.0068 47.4869L51.4769 47.9209C52.0737 48.4634 52.9326 48.9516 53.8277 49.2499C54.4425 49.4579 54.6775 49.485 55.8529 49.485L57.191 49.4941V50.145C57.191 50.7327 57.2091 50.805 57.4261 50.9768C57.7516 51.239 57.9866 51.2119 58.4839 50.8864C59.0535 50.5157 59.4332 50.4615 59.9215 50.7056C60.482 50.9859 60.6719 51.2842 60.6719 51.89C60.6719 52.4777 60.4368 52.8755 59.9667 53.0925C59.5327 53.3004 59.4061 53.4903 59.2434 54.1955C58.511 57.3057 55.5003 59.2676 52.4443 58.6257C50.5457 58.2279 48.8459 56.727 48.1678 54.8555C47.9418 54.2226 47.9237 54.096 47.8785 51.8629L47.8333 49.5212L47.5802 49.3042C47.2366 49.0149 46.9292 49.0239 46.5947 49.3584L46.3234 49.6297L46.3596 51.8719C46.3958 53.7886 46.4319 54.2045 46.5947 54.8284C47.2637 57.2966 49.081 59.1682 51.5854 59.9548C52.1731 60.1356 52.4534 60.1627 53.6197 60.1627C54.786 60.1627 55.0663 60.1356 55.654 59.9548C57.9776 59.2224 59.7406 57.5227 60.4911 55.2624C60.7352 54.5391 60.8256 54.3763 61.1963 54.0508C61.7297 53.5807 62.0371 53.0653 62.1456 52.4325C62.3716 51.1667 61.793 49.9552 60.6809 49.3765C60.2831 49.1776 60.1023 49.1414 59.4332 49.1324H58.6376V48.7165C58.6376 48.165 58.3754 47.8214 57.9776 47.8214C57.8148 47.8214 57.3809 47.8847 57.0102 47.9661C55.7173 48.2373 54.2074 47.9751 53.1586 47.297C52.8693 47.0981 52.363 46.6732 52.0375 46.3387C51.3594 45.6425 51.0701 45.5702 50.5457 45.977C50.3739 46.1036 50.0394 46.2844 49.7953 46.3748C49.2709 46.5737 47.8243 46.7998 47.7248 46.7094C47.6163 46.6009 47.6615 45.4526 47.7881 45.0638C48.0865 44.1055 48.8188 43.4183 49.958 43.0115C50.5186 42.8126 50.6542 42.8035 53.1676 42.8035C55.9976 42.8035 56.7118 42.8849 58.2398 43.346C59.3157 43.6715 59.596 43.6353 59.8039 43.1381C59.8943 42.9211 59.8943 42.8126 59.7768 42.5504C59.6593 42.252 59.5869 42.2068 58.8003 41.9627C58.3392 41.809 57.5707 41.6282 57.1006 41.5468C55.3466 41.2575 52.2635 41.1399 50.8169 41.3208Z" fill="#1A73E8"/>
<path d="M25.4737 42.9301C24.6239 43.138 23.4756 43.7167 22.7885 44.2682C21.3148 45.4616 20.3021 47.523 20.3021 49.3132C20.3021 49.8286 20.3293 49.9371 20.5372 50.145C20.7271 50.3349 20.8265 50.362 21.0978 50.3168C21.5317 50.2535 21.7487 49.9823 21.7487 49.5031C21.7578 48.2102 22.3635 46.8359 23.3671 45.8323C24.1628 45.0457 24.8589 44.6389 25.8715 44.3857C26.5316 44.214 26.8842 44.2049 32.101 44.2049H37.6432L37.5528 44.6299C37.5076 44.874 37.2997 45.4074 37.1008 45.8233C36.4498 47.1795 35.0936 48.2916 33.6289 48.6713C33.1678 48.7888 32.4626 48.8159 29.488 48.8159C26.5768 48.8159 25.8444 48.8431 25.5913 48.9425C25.2567 49.0872 25.2206 49.1686 25.1573 50.0456C25.1121 50.6784 24.9222 51.0853 24.5244 51.4469C24.1085 51.8357 23.8282 51.8538 23.2225 51.5554C22.7975 51.3475 22.5534 51.2932 21.9115 51.2752C21.2243 51.239 21.0616 51.2661 20.6367 51.465C19.9947 51.7544 19.4975 52.2155 19.172 52.8122C18.8013 53.4812 18.747 54.5843 19.0364 55.3528C19.2262 55.8681 19.7325 56.4829 20.1936 56.7722C20.3293 56.8627 20.4468 57.0796 20.5372 57.4503C20.6186 57.7487 20.8175 58.2821 20.9802 58.6347C22.7252 62.4321 27.0288 64.168 30.9346 62.6581C32.8875 61.9077 34.6144 60.1537 35.3558 58.1736C35.7898 57.0435 35.8531 56.4287 35.8531 53.6621C35.8531 51.1124 35.8531 51.1034 35.6451 50.9135C35.3558 50.6423 34.8585 50.6513 34.6054 50.9226C34.4155 51.1305 34.4065 51.1938 34.4065 53.436C34.4065 55.8229 34.3432 56.5191 34.0358 57.4413C33.1317 60.1717 30.139 62.0614 27.3633 61.6726C24.5515 61.2748 22.454 59.3309 21.8844 56.5914C21.7487 55.9857 21.6855 55.8952 21.0345 55.4793C20.3383 55.0363 20.1213 54.304 20.4739 53.5716C20.9169 52.6675 22.0019 52.4415 22.7975 53.0744C23.132 53.3366 23.1863 53.3546 23.7378 53.3185C24.4702 53.2642 25.0488 53.0111 25.6003 52.5048C26.0524 52.0889 26.4863 51.3023 26.5858 50.7146L26.6401 50.371L30.0486 50.3349C33.2492 50.2987 33.4933 50.2806 34.1352 50.0908C37.0375 49.2228 39.0537 46.6913 39.135 43.8161C39.1622 42.6498 39.8312 42.7583 32.4264 42.7674C26.6853 42.7674 26.0795 42.7854 25.4737 42.9301Z" fill="#1A73E8"/>
<path d="M60.7164 43.5721C60.5988 43.6896 60.5355 43.8704 60.5355 44.0965C60.5355 44.3858 60.5988 44.5033 60.9966 44.8831C62.2714 46.1307 63.0309 47.7582 63.492 50.1993C63.718 51.4018 63.718 54.4668 63.492 55.8049C63.266 57.143 62.8682 58.7071 62.4794 59.8463C62.0816 60.9765 61.2227 62.8299 61.087 62.8299C61.0328 62.8299 60.7254 62.5768 60.3909 62.2603C59.7309 61.6455 59.1884 60.8861 58.9443 60.226C58.7182 59.6203 58.4922 59.3942 58.0944 59.3942C57.6695 59.3942 57.3711 59.6926 57.3711 60.1266C57.3711 60.3165 57.5519 60.7956 57.8412 61.3743C58.2391 62.179 58.4289 62.4411 59.0799 63.1012C60.2733 64.2946 61.3402 64.8461 61.8375 64.5206C62.2624 64.2404 63.4016 61.8354 64.0435 59.8463C64.8211 57.4413 65.1466 55.3709 65.1466 52.8846C65.1466 51.0854 65.0019 49.9009 64.6041 48.373C64.1249 46.5466 62.9947 44.5576 61.9279 43.6806C61.5029 43.328 61.0057 43.2828 60.7164 43.5721Z" fill="#1A73E8"/>
<path d="M49.5335 49.7202C49.425 49.7654 49.2984 49.8829 49.2442 49.9824C49.1357 50.1722 49.1085 51.6007 49.199 51.8449C49.3527 52.2427 50.1845 52.2879 50.4647 51.9172C50.6546 51.655 50.6365 50.1542 50.4376 49.91C50.2477 49.693 49.8228 49.5936 49.5335 49.7202Z" fill="#1A73E8"/>
<path d="M52.3362 49.7202C52.2277 49.7654 52.1011 49.8829 52.0469 49.9824C51.9384 50.1722 51.9113 51.6007 52.0017 51.8449C52.1554 52.2427 52.9872 52.2879 53.2675 51.9172C53.4573 51.655 53.4392 50.1542 53.2403 49.91C53.0505 49.693 52.6255 49.5936 52.3362 49.7202Z" fill="#1A73E8"/>
<path d="M28.5395 52.1251C28.3858 52.324 28.3496 52.4958 28.3496 53.1196C28.3496 53.9605 28.4491 54.2679 28.7745 54.4125C29.1 54.5662 29.308 54.5301 29.5702 54.304C29.7781 54.1323 29.8233 54.0057 29.8595 53.4994C29.9499 52.3602 29.7239 51.89 29.0819 51.89C28.8017 51.89 28.6841 51.9443 28.5395 52.1251Z" fill="#1A73E8"/>
<path d="M31.6047 52.0709C31.451 52.2246 31.4238 52.3692 31.4238 53.1558C31.4238 54.0147 31.4419 54.078 31.6589 54.3041C31.8488 54.4939 31.9482 54.5211 32.2195 54.4759C32.7619 54.3945 32.8704 54.1775 32.8704 53.1649C32.8704 52.3602 32.8523 52.2698 32.6625 52.089C32.3912 51.8268 31.8578 51.8177 31.6047 52.0709Z" fill="#1A73E8"/>
<path d="M54.6864 54.1684C54.5779 54.2317 54.3699 54.4578 54.2162 54.6657C53.8907 55.1178 53.4115 55.38 52.634 55.5518C51.8655 55.7145 51.7932 55.7597 51.6847 56.0671C51.549 56.4378 51.757 56.926 52.0825 57.0074C52.4351 57.0978 53.3121 56.9803 53.8455 56.7814C54.7677 56.4288 55.7442 55.4252 55.7442 54.8285C55.7442 54.2769 55.1475 53.9063 54.6864 54.1684Z" fill="#1A73E8"/>
<path d="M26.0169 56.8898C25.7456 57.1791 25.7637 57.5588 26.0711 58.0471C26.695 59.0145 28.0964 59.7559 29.326 59.7559C29.8052 59.7559 30.1578 59.4575 30.1578 59.0506C30.1578 58.5986 29.9137 58.3997 29.1904 58.2641C28.3134 58.0923 27.9065 57.8662 27.3459 57.2243C26.9301 56.7451 26.8396 56.6818 26.5413 56.6818C26.3152 56.6818 26.1525 56.7451 26.0169 56.8898Z" fill="#1A73E8"/>
</svg>
