<svg width="84" height="85" viewBox="0 0 84 85" fill="none" xmlns="http://www.w3.org/2000/svg">

<path d="M39.4694 19.6496C39.1524 19.6772 38.9778 19.7185 38.7895 19.8104C38.4357 19.985 38.1096 20.3203 37.9304 20.6924C37.7926 20.9818 37.7834 21.0416 37.7834 21.4872C37.7834 21.9144 37.7972 21.9971 37.9075 22.236C38.0774 22.5943 38.4449 22.971 38.7895 23.1409C39.1156 23.3017 39.5337 23.366 40.2319 23.3706H40.7005V23.7979V24.2297L39.9379 24.3307C38.1693 24.5696 37.7605 24.7717 37.7605 25.4011C37.7605 25.6492 37.7742 25.6859 37.935 25.8605C38.1647 26.104 38.3622 26.1269 39.1386 25.9891C40.0757 25.8237 40.4984 25.764 41.2518 25.6905C41.6422 25.6538 42.0189 25.6124 42.0878 25.5986L42.2119 25.5803L42.2257 26.4715C42.2394 27.2846 42.2486 27.3718 42.3359 27.4867C42.5013 27.7118 42.6575 27.7945 42.9423 27.8174C43.5625 27.8634 43.7324 27.5143 43.7324 26.1866C43.7324 25.7181 43.7462 25.5849 43.7921 25.5986C43.8197 25.6078 44.2929 25.6721 44.8349 25.7318C46.2315 25.8972 47.0262 26.0534 48.3033 26.4301C49.3461 26.7425 51.496 27.6567 51.496 27.7945C51.496 27.8266 51.3674 28.0747 51.2158 28.3549C50.8758 28.9751 50.715 29.3472 50.715 29.5126C50.715 29.7009 50.9126 29.9628 51.1423 30.073C51.62 30.3027 51.9094 30.1144 52.4423 29.2094C52.7501 28.6903 52.8144 28.6076 52.9201 28.6076C53.0257 28.6076 53.701 29.0899 54.5233 29.7469C55.6075 30.6151 56.7054 31.7314 57.6104 32.8798C57.9871 33.353 58.6807 34.3453 58.6578 34.3682C58.6486 34.3728 58.3821 34.529 58.0743 34.7128C57.4128 35.0987 57.174 35.3008 57.0959 35.5305C56.9902 35.8475 57.1418 36.2517 57.422 36.3941C57.6931 36.5319 57.8814 36.486 58.6164 36.1093C59.4525 35.6775 59.4433 35.6775 59.7189 36.2609C60.6882 38.3006 61.3727 40.8363 61.5105 42.876C61.5381 43.2757 61.5427 43.6156 61.5243 43.634C61.5059 43.6524 61.1063 43.6753 60.6377 43.6845C60.0818 43.6983 59.7465 43.7259 59.6684 43.7626C59.4892 43.8499 59.3836 44.0658 59.379 44.3598C59.379 44.6538 59.4571 44.8422 59.6408 44.98C59.7557 45.0673 59.8522 45.0764 60.6515 45.0994L61.5335 45.1224L61.5197 45.6277C61.4646 47.5893 60.7388 50.3639 59.7189 52.5138C59.4433 53.0927 59.4571 53.0881 58.6164 52.6609C57.8768 52.2888 57.6885 52.2428 57.422 52.3806C57.1418 52.5276 56.9902 52.9273 57.1005 53.2489C57.174 53.474 57.4496 53.6991 58.1065 54.0803C58.4235 54.2641 58.6532 54.4249 58.6394 54.457C58.6302 54.4846 58.4189 54.7924 58.1754 55.1369C56.9351 56.8734 55.5294 58.2975 53.747 59.6297C53.0809 60.1304 52.943 60.2039 52.8374 60.1396C52.796 60.112 52.6307 59.8732 52.4745 59.6113C51.9829 58.7982 51.7257 58.5639 51.372 58.619C51.032 58.6742 50.715 58.9865 50.715 59.2622C50.715 59.4276 50.8758 59.7997 51.2158 60.4198C51.3674 60.6954 51.496 60.9527 51.496 60.9803C51.496 61.0813 49.9571 61.7704 48.9143 62.1379C47.8347 62.5146 46.0201 62.9189 44.8579 63.0383C44.4812 63.0751 44.0724 63.121 43.9529 63.1348L43.7324 63.1669V62.5743C43.7324 61.2605 43.5625 60.9114 42.9423 60.9573C42.6575 60.9803 42.5013 61.063 42.3359 61.2881C42.2486 61.4029 42.2394 61.4902 42.2257 62.3079C42.2119 63.1256 42.2027 63.2037 42.1338 63.1807C42.0924 63.1669 41.7065 63.1256 41.2747 63.0842C40.8475 63.0429 40.0757 62.9372 39.5612 62.85C38.4725 62.6662 38.3255 62.6616 38.082 62.7856C37.8523 62.9005 37.7559 63.0934 37.7559 63.4104C37.7559 63.8928 37.9947 64.0995 38.7527 64.2511C40.9761 64.7059 44.0081 64.7334 46.4152 64.3246C48.8637 63.9111 51.4225 62.8959 53.7791 61.4029C56.0163 59.988 58.2213 57.783 59.7741 55.4126C61.4921 52.7987 62.4752 50.0883 62.9438 46.7073C63.0357 46.032 63.0219 42.9449 62.9208 42.0032C62.5487 38.5992 61.1338 35.0757 58.9839 32.2137C58.7359 31.883 58.3454 31.3914 58.1157 31.1158C57.886 30.8448 57.6976 30.6059 57.6976 30.5875C57.6976 30.5737 58.0468 30.2108 58.474 29.7836L59.255 29.0072L59.7649 29.4942C60.0451 29.7652 60.2932 29.9857 60.3161 29.9857C60.3575 29.9857 62.5166 27.9139 63.1643 27.257L63.5088 26.9079L61.9102 25.3092L60.3161 23.7152L58.7313 25.3L57.1464 26.8849L57.6609 27.3994L58.18 27.9185L57.3991 28.6995C56.9718 29.1313 56.5997 29.4804 56.5814 29.4804C56.5584 29.4804 56.3517 29.3196 56.1174 29.1221C54.6979 27.9047 53.4576 27.0778 51.8176 26.2601C49.9203 25.3184 47.8577 24.6477 45.9237 24.3583C45.6664 24.317 45.3862 24.2756 45.3081 24.2618L45.1565 24.2389V23.807V23.3706H45.6572C46.3371 23.3706 46.8287 23.2971 47.1273 23.1547C47.4672 22.9939 47.8439 22.5989 48.0231 22.2268C48.1517 21.9511 48.1655 21.8822 48.1655 21.4872C48.1655 21.0921 48.1517 21.0232 48.0185 20.7384C47.8393 20.3663 47.4764 19.985 47.1273 19.8104C46.8976 19.691 46.8241 19.6818 46.0753 19.645C45.0784 19.5991 40.0482 19.6037 39.4694 19.6496Z" fill="#1A73E8"/>
<path d="M32.6101 29.3885C31.8337 29.4391 31.4157 29.6825 31.1401 30.243C30.8736 30.7851 30.9609 31.3869 31.3789 31.8416C31.8383 32.347 32.1094 32.3883 34.5992 32.3607C36.7675 32.3424 36.7905 32.3378 37.2361 31.8968C37.5898 31.543 37.6863 31.2812 37.6587 30.7713C37.6265 30.2154 37.3601 29.8112 36.8686 29.5723C36.6067 29.4437 36.5102 29.4207 35.9865 29.3885C35.3067 29.338 33.3267 29.3426 32.6101 29.3885Z" fill="#1A73E8"/>
<path d="M29.2614 34.6715C28.3564 34.6991 28.2507 34.7083 28.0532 34.8047C27.8051 34.9242 27.5203 35.2274 27.3687 35.5352C27.2171 35.8475 27.2217 36.4356 27.3779 36.7617C27.5203 37.0557 27.8694 37.4048 28.0945 37.4783C28.3334 37.5564 35.6651 37.5978 36.3542 37.5197C36.933 37.46 37.1535 37.3635 37.3419 37.0879C37.5991 36.7158 37.6864 36.4723 37.6864 36.1186C37.6864 35.8567 37.6635 35.7419 37.5624 35.5398C37.4062 35.2228 37.0111 34.8369 36.7677 34.768C36.6712 34.7358 36.2256 34.6945 35.7846 34.6715C34.9072 34.6256 30.8416 34.6256 29.2614 34.6715Z" fill="#1A73E8"/>
<path d="M51.8174 36.2286C51.427 36.3848 50.7609 36.8258 48.9693 38.1121C46.8837 39.6097 44.0677 41.6631 42.7814 42.6232C41.6146 43.4961 41.417 43.6614 41.2287 43.9279C40.9393 44.3321 40.7831 44.7823 40.7555 45.2969C40.7279 45.8205 40.8014 46.1789 41.0311 46.6566C41.587 47.8143 42.9468 48.3885 44.2055 47.9934C44.6465 47.8556 44.9451 47.6581 45.2299 47.3135C45.6158 46.8542 47.0261 44.9615 48.6109 42.7794C52.0793 37.9973 52.6489 37.1566 52.6581 36.7523C52.6627 36.6283 52.6214 36.5594 52.456 36.394C52.2125 36.1505 52.0885 36.1184 51.8174 36.2286Z" fill="#1A73E8"/>
<path d="M24.2086 40.1288C23.7171 40.4963 23.5241 40.85 23.5195 41.4013C23.5195 41.6631 23.5425 41.7734 23.6528 41.9985C23.7952 42.2971 24.1075 42.6278 24.3235 42.7151C24.5623 42.807 27.4518 42.8529 32.133 42.8391L36.589 42.8254L36.8324 42.7151C37.1494 42.5727 37.4939 42.1914 37.6042 41.8744C37.7099 41.5667 37.7099 41.1946 37.6088 40.896C37.5077 40.5928 37.2275 40.2253 37.0254 40.1288C36.6533 39.9496 36.3685 39.9404 30.3414 39.9221L24.5072 39.9037L24.2086 40.1288Z" fill="#1A73E8"/>
<path d="M23.5376 45.1454L21.6128 45.1683L21.3601 45.297C21.0156 45.4761 20.7491 45.7472 20.6021 46.0733C20.4965 46.3076 20.4781 46.3995 20.4965 46.6797C20.5241 47.2264 20.7997 47.6536 21.3326 47.9706L21.6082 48.1313H28.43C35.2289 48.1313 36.3682 48.1084 36.8275 47.9706C37.0986 47.8879 37.3604 47.6306 37.535 47.2677C37.6774 46.9691 37.7095 46.4362 37.5947 46.1009C37.4799 45.7517 37.0434 45.3153 36.7265 45.2372C36.5519 45.1959 35.3621 45.1775 31.8111 45.1637C29.2339 45.1545 26.7487 45.1408 26.2939 45.1316C25.8345 45.127 24.5942 45.1316 23.5376 45.1454Z" fill="#1A73E8"/>
<path d="M26.569 50.4281C25.9902 50.4695 25.7146 50.5751 25.4068 50.8829C25.1174 51.1723 25.0117 51.4434 25.0117 51.8982C25.0117 52.3529 25.0944 52.5505 25.4344 52.9134C25.7881 53.2901 25.9305 53.336 26.9411 53.3728C28.1171 53.4187 34.5669 53.4187 35.7153 53.3728C36.5744 53.3406 36.6479 53.3268 36.8684 53.2166C37.3553 52.9685 37.6218 52.5551 37.6585 51.99C37.6815 51.5628 37.5666 51.2275 37.2956 50.9197C37.0016 50.5797 36.726 50.4741 36.0277 50.4281C35.3249 50.3776 27.2948 50.3822 26.569 50.4281Z" fill="#1A73E8"/>
<path d="M31.0301 55.7111C30.5478 55.7341 30.3962 55.7571 30.2492 55.8352C29.6061 56.1751 29.335 57.0571 29.6474 57.7967C29.7485 58.0402 30.0654 58.3526 30.3319 58.472L30.5708 58.5823L33.1433 58.5961C36.7219 58.619 36.9746 58.5869 37.3558 58.077C37.8428 57.4292 37.7923 56.6529 37.2226 56.0878C36.9654 55.8352 36.7816 55.7663 36.1798 55.7066C35.7158 55.6652 31.9719 55.6652 31.0301 55.7111Z" fill="#1A73E8"/>
</svg>
