<svg width="84" height="85" viewBox="0 0 84 85" fill="none" xmlns="http://www.w3.org/2000/svg">

<path d="M30.3853 29.7722C29.8912 28.1067 30.2068 26.0669 31.2458 24.4818C31.6232 23.9076 31.9237 23.5451 32.5213 22.9645C33.9196 21.609 35.5035 20.7955 36.7727 20.649L30.3853 29.7722ZM30.3853 29.7722C30.3853 29.7724 30.3854 29.7725 30.3854 29.7727L30.5138 30.2036L30.7996 31.1634L29.8395 31.4479L29.6098 31.5159C29.6082 31.6237 29.611 31.7597 29.6186 31.9115C29.6363 32.2638 29.6761 32.6243 29.7206 32.8371C29.8448 33.4207 30.0473 34.009 30.2715 34.4829C30.3835 34.7195 30.494 34.913 30.593 35.0565C30.694 35.2027 30.7542 35.2548 30.7592 35.2591C30.7595 35.2594 30.7596 35.2595 30.7595 35.2594L30.1756 36.0712M30.3853 29.7722L29.3074 30.5629L29.2766 30.5721C28.9893 30.6666 28.7211 30.9014 28.6457 31.1277M30.1756 36.0712C30.3869 36.2228 30.4467 36.3607 30.6259 37.0636C31.0669 38.8187 31.8158 40.1694 32.9184 41.2077M30.1756 36.0712L30.7585 35.2587C30.9908 35.4253 31.1804 35.6304 31.3243 35.9494C31.4307 36.1852 31.5103 36.485 31.5949 36.8166L31.5949 36.8166L31.5957 36.8199C31.9991 38.4249 32.6647 39.595 33.6035 40.4793M30.1756 36.0712C29.6519 35.6945 29.0224 34.3621 28.7422 33.0435C28.6227 32.4738 28.5676 31.3666 28.6457 31.1277M32.9184 41.2077L33.603 40.4788C33.6032 40.4789 33.6034 40.4791 33.6035 40.4793M32.9184 41.2077C33.8235 42.0577 34.8711 42.5906 36.1759 42.8617L32.9184 41.2077ZM33.6035 40.4793C34.3648 41.194 35.2419 41.6462 36.3788 41.8825M33.6035 40.4793L36.3788 41.8825M28.6457 31.1277L29.5598 31.4265L29.5636 31.4278L29.5962 31.4384C29.6094 31.3978 29.6155 31.3674 29.6176 31.3547M28.6457 31.1277L29.6176 31.3547M29.6176 31.3547C29.6181 31.3503 29.6185 31.3482 29.6185 31.3483C29.6185 31.3484 29.6183 31.3506 29.6176 31.3547ZM36.3788 41.8825C36.6185 41.9321 37.0523 41.9688 37.5255 41.9726C38.0077 41.9765 38.4041 41.945 38.5845 41.9044L38.5845 41.9044L38.5894 41.9033C39.4198 41.7211 40.1901 41.3885 40.7618 40.9786L40.7618 40.9786L40.7663 40.9753C41.1395 40.7108 41.6871 40.1533 41.9641 39.753C42.4229 39.0861 42.8533 38.1146 43.1194 37.0883L43.1196 37.0874C43.1351 37.0279 43.1498 36.9713 43.1637 36.9177C43.2069 36.7511 43.2428 36.6127 43.2725 36.5043C43.3076 36.376 43.3525 36.2177 43.414 36.0809C43.4864 35.9195 43.6402 35.6533 43.9683 35.4939C44.098 35.4309 44.2131 35.4067 44.2589 35.3974C44.2829 35.3926 44.3065 35.3885 44.3135 35.3872L44.3277 35.3847L44.3277 35.3847L44.3326 35.3837C44.3725 35.3759 44.4053 35.3695 44.4334 35.3637C44.4668 35.3174 44.5405 35.2049 44.6407 34.9842C44.7747 34.689 44.9208 34.2804 45.0687 33.7587L45.069 33.7576C45.229 33.1954 45.3235 32.7311 45.3627 32.3655C45.4034 31.9857 45.3767 31.7794 45.3521 31.6961L45.3522 31.696M36.3788 41.8825L46.311 31.4125L45.3522 31.696M45.3522 31.696C45.3521 31.6959 45.352 31.6956 45.3519 31.6953C45.3514 31.6944 45.3515 31.6942 45.3519 31.6955C45.3523 31.6963 45.3524 31.6964 45.3522 31.696ZM43.5754 23.4686C43.0191 23.2883 42.6584 22.9599 42.2941 22.5076M43.5754 23.4686L36.7729 20.6489C37.4271 20.5737 38.5518 20.6198 39.2024 20.7504C39.74 20.8604 40.3697 21.1109 40.9557 21.4474C41.547 21.7869 42.022 22.1726 42.2941 22.5076M43.5754 23.4686C43.5762 23.4689 43.577 23.4691 43.5778 23.4694L43.8852 22.5178L43.5742 23.4682C43.5746 23.4684 43.575 23.4685 43.5754 23.4686ZM42.2941 22.5076C42.2945 22.5081 42.2949 22.5086 42.2953 22.5091L43.072 21.8792L42.293 22.5062C42.2934 22.5067 42.2938 22.5072 42.2941 22.5076ZM46.0216 30.9393L45.2999 31.6315L45.2965 31.628C45.2957 31.6271 45.2949 31.6262 45.294 31.6253L46.0216 30.9393Z" stroke="#1A73E8" stroke-width="2"/>
<path d="M53.1014 42.0506C53.0758 41.8639 53.0391 41.6349 52.9982 41.4846C52.9849 41.431 52.9347 41.2292 52.7952 41.0364C52.6254 40.8014 52.4085 40.6827 52.2541 40.6183C52.0428 40.5303 51.7342 40.4658 51.4084 40.3977C51.3821 40.3922 51.3558 40.3867 51.3293 40.3811C50.8792 40.2846 50.5059 40.165 50.2596 40.0647C50.2782 39.9868 50.2994 39.9046 50.3223 39.8215C51.2362 40.1415 51.8142 40.2689 52.5368 40.2689C53.3838 40.2689 54.1001 40.0975 54.7077 39.5444L54.7108 39.5415L54.7108 39.5415C54.8824 39.384 55.0815 39.1781 55.2174 38.8961C55.3616 38.5968 55.3883 38.3104 55.3883 38.0744C55.3883 37.709 55.302 37.3499 55.1017 37.016C54.9091 36.695 54.6422 36.4492 54.3575 36.2519C53.9285 35.9523 53.5947 35.7943 52.7691 35.4511L52.7661 35.4498L52.7661 35.4498C51.1705 34.7926 50.6494 34.3607 50.3974 33.9465C50.2747 33.7418 50.2681 33.7057 50.2608 33.6651L50.2602 33.6618C50.2408 33.5561 50.2328 33.3735 50.2425 32.8459L50.2425 32.843L50.2528 32.175L50.3714 31.9379L50.3725 31.9357C50.5107 31.6576 50.653 31.4686 50.8557 31.2915C51.0751 31.0998 51.3968 30.8943 51.9368 30.6276L51.9411 30.6254L51.9411 30.6254L52.474 30.359L52.9715 30.1102L53.0226 29.5564L53.0502 29.2578L53.051 29.2489L53.0509 29.2489C53.052 29.2366 53.053 29.2232 53.0542 29.2089L55.6246 30.9651C55.5371 30.937 55.4516 30.9109 55.3674 30.8867C55.2945 31.1643 55.2235 31.379 55.1928 31.4465C55.1774 31.48 55.1713 31.4938 55.1672 31.5031C55.1636 31.5112 55.1615 31.516 55.1561 31.5272C55.1494 31.5416 55.166 31.5031 55.2018 31.4513L55.4347 31.5577L55.321 31.9179M53.1014 42.0506C53.1068 41.9534 53.1136 41.8599 53.1213 41.7749C53.1286 41.6945 53.1372 41.6145 53.1474 41.5428C53.1538 41.4974 53.1696 41.3862 53.2048 41.2747C53.3093 40.9412 53.5362 40.7004 53.6851 40.5707C53.7746 40.4929 53.884 40.4129 54.01 40.3473C54.0932 40.3039 54.2347 40.2397 54.4152 40.212C54.4541 40.1954 54.5101 40.1691 54.5804 40.1328C54.7486 40.0458 54.9396 39.9318 55.083 39.8312C55.5067 39.5285 55.7532 39.2421 55.9978 38.7528L55.9978 38.7528L56.0017 38.7451C56.0755 38.6008 56.097 38.5296 56.111 38.4403C56.1301 38.3181 56.1383 38.1303 56.127 37.7356L56.1269 37.7305C56.1174 37.331 56.1023 37.2205 56.081 37.1433C56.061 37.071 56.0218 36.9769 55.8308 36.6485C55.5623 36.1895 54.9738 35.6967 53.3048 35.0001L53.3026 34.9992C52.2684 34.5647 51.4741 34.1742 51.096 33.3995L51.095 33.3973C50.8634 32.9201 50.8397 32.3858 51.0351 31.9012C51.2264 31.4267 51.5976 31.07 52.0377 30.8519L52.0377 30.8518L52.0474 30.8472L52.0481 30.8468C52.192 30.7774 52.3844 30.6847 52.6711 30.6464C52.8703 30.6199 53.1131 30.6217 53.388 30.6237L53.4205 30.6239C53.4206 30.6239 53.4206 30.6239 53.4206 30.6239L53.4215 30.6239L53.4143 31.6239C54.154 31.6285 54.664 31.7066 55.321 31.9179M53.1014 42.0506C53.0986 42.0991 53.0962 42.1484 53.0942 42.198L53.1201 42.1948C53.1201 42.1953 53.1202 42.1958 53.1203 42.1964L53.1014 42.0506ZM55.321 31.9179L55.4366 31.5586L56.102 31.8628C56.0545 31.9663 56.0308 32.0309 55.9847 32.0602C55.9059 32.1102 55.7615 32.057 55.321 31.9179ZM52.1095 28.3481C52.1261 28.043 52.1268 27.9023 52.1975 27.8319C52.2642 27.7655 52.3932 27.7617 52.6562 27.7416L52.1095 28.3481ZM52.1095 28.3481C52.1066 28.3931 52.1036 28.4402 52.1005 28.4883C52.0841 28.7441 52.066 29.0267 52.0544 29.1659M52.1095 28.3481L52.0544 29.1659M52.0544 29.1659L52.0268 29.4645M52.0544 29.1659L52.0268 29.4645M52.0268 29.4645L51.4939 29.731M52.0268 29.4645L51.4939 29.731M51.4939 29.731C50.3499 30.2961 49.8537 30.7326 49.4769 31.4907M51.4939 29.731L49.4769 31.4907M49.4769 31.4907L49.2564 31.9317L49.2426 32.8276M49.4769 31.4907L49.2426 32.8276M49.2426 32.8276C49.2243 33.8338 49.2518 33.9808 49.5413 34.4632L49.2426 32.8276ZM49.431 40.7621C49.2105 40.6151 49.1875 40.5875 49.1875 40.4267C49.1875 40.0546 49.5459 38.8095 49.6975 38.6487M49.431 40.7621L50.0742 38.6671C49.7894 38.5568 49.7848 38.5568 49.6975 38.6487M49.431 40.7621C49.7526 40.978 50.4142 41.2077 51.1217 41.3594L49.431 40.7621ZM49.6975 38.6487L49.9781 38.9153L49.9804 38.9175L50.4223 39.3373M49.6975 38.6487L49.9787 38.9138L49.981 38.916L50.425 39.3346C50.4259 39.3338 50.4266 39.333 50.4273 39.3323L50.4223 39.3373M50.4223 39.3373C50.4203 39.3392 50.418 39.3414 50.4155 39.3438C50.4016 39.357 50.3612 39.3946 50.2997 39.4347C50.2327 39.4784 50.145 39.5226 50.038 39.5512C49.9324 39.5794 49.8376 39.5845 49.7636 39.5809C49.753 39.5804 49.7427 39.5797 49.7327 39.5788C49.729 39.5785 49.7253 39.5782 49.7217 39.5778C49.6588 39.5715 49.6118 39.5596 49.5926 39.5539M50.4223 39.3373L49.5926 39.5539M49.5926 39.5539C49.5913 39.5535 49.59 39.553 49.5888 39.5526C49.5798 39.5496 49.5818 39.5508 49.5926 39.5539ZM52.6234 42.2404C52.6231 42.2405 52.6266 42.2411 52.6343 42.2421C52.6274 42.2409 52.6236 42.2404 52.6234 42.2404ZM50.1876 40.4353C50.1877 40.4352 50.1877 40.4329 50.1875 40.4287L50.1876 40.4353Z" stroke="#1A73E8" stroke-width="2"/>
<path d="M49.066 46.3849C47.1374 45.6088 45.2528 44.7583 44.0661 44.1319C43.8098 44.9763 43.3248 46.5843 42.8121 48.2865L42.8117 48.2879L41.7286 51.8653L42.3424 52.4657L42.3425 52.4657L42.3457 52.4689C43.0493 53.1634 44.0581 54.1436 44.9102 54.9653C45.2927 55.3341 45.6425 55.6699 45.918 55.9328L47.9498 53.8355L47.9499 53.8354C51.1239 50.5602 51.6472 50.0187 52.4005 49.2064L52.4008 49.2062C52.4271 49.1778 52.4515 49.1515 52.4745 49.1268C52.5102 49.0885 52.5423 49.0539 52.5722 49.0216C52.263 48.3639 51.7388 47.7521 51.1953 47.3901C50.7521 47.0999 50.4206 46.9322 49.066 46.3849Z" stroke="#1A73E8" stroke-width="2"/>
<path d="M22.093 55.729C22.0855 56.3389 22.0752 56.9507 22.0646 57.4144L22.6476 57.4046L22.6483 57.4046C24.7956 57.3701 26.4062 57.3403 27.4911 57.3146C28.0342 57.3017 28.4414 57.2899 28.7168 57.2792C28.745 57.2781 28.7715 57.277 28.7964 57.276C28.9161 57.1596 29.0747 57.0028 29.2646 56.8129C29.6991 56.3784 30.2861 55.7823 30.92 55.13L30.9201 55.13C31.116 54.9284 31.3116 54.7271 31.5033 54.53C32.5553 53.4476 33.4887 52.4872 33.7199 52.2519L33.7708 52.1996L32.7336 49.1114L32.7334 49.1107C32.0006 46.9236 31.5009 45.4418 31.18 44.5073C31.1569 44.4399 31.1347 44.3754 31.1135 44.3139C29.8231 45.0567 28.2942 45.8076 26.3373 46.6627C25.3287 47.1066 24.8077 47.3488 24.4547 47.5551C24.1442 47.7365 23.9658 47.8884 23.6646 48.1916C23.1183 48.7458 22.8504 49.1855 22.6042 49.9396L22.6042 49.9396L22.6029 49.9433C22.2455 51.0234 22.1392 51.968 22.093 55.729ZM22.093 55.729L21.093 55.7167M22.093 55.729L21.093 55.7167M21.093 55.7167C21.139 51.9769 21.2401 50.8789 21.6536 49.6292L21.064 57.4311C21.0744 56.9796 21.0852 56.3571 21.093 55.7167Z" stroke="#1A73E8" stroke-width="2"/>
<path d="M37.6705 49.5165L37.6471 49.4826L37.3588 49.0662C36.876 48.3624 36.5571 47.6509 36.4493 47.1317C36.4163 46.9677 36.4219 46.9217 36.4227 46.9152L36.4227 46.915C36.4227 46.915 36.4227 46.9149 36.4227 46.9148C36.423 46.9118 36.4263 46.875 36.4902 46.7456L35.5936 46.3028M37.6705 49.5165L38.8343 46.9512C38.8354 46.8641 38.8351 46.8124 38.8337 46.7772C38.8336 46.7756 38.8336 46.7741 38.8335 46.7726C38.8293 46.7637 38.8235 46.7519 38.8157 46.7362L38.8157 46.7363L38.812 46.7286C38.7486 46.5992 38.5532 46.33 37.5635 46.338L37.5635 46.338H37.5554C37.4369 46.338 37.3087 46.3437 37.2002 46.3528C37.1461 46.3574 37.1028 46.3623 37.0719 46.3667C37.0605 46.3684 37.0529 46.3696 37.0484 46.3704C36.6893 46.4705 36.5496 46.6257 36.4899 46.7463L35.5936 46.3028M37.6705 49.5165L37.7181 49.4431L37.9972 49.0131M37.6705 49.5165L37.9972 49.0131M35.5936 46.3028C35.8096 45.8664 36.223 45.5585 36.7973 45.4023M35.5936 46.3028C35.4098 46.675 35.3823 46.9001 35.4696 47.332L36.7973 45.4023M36.7973 45.4023C36.9306 45.3656 37.2614 45.338 37.5554 45.338C38.6902 45.3288 39.3932 45.6412 39.7102 46.289L36.7973 45.4023ZM37.9972 49.0131C38.331 48.4936 38.549 48.049 38.7163 47.551L38.7163 47.551L38.7187 47.5438C38.7862 47.3481 38.8073 47.2666 38.8175 47.2117C38.8262 47.1641 38.8322 47.1078 38.8343 46.9517L37.9972 49.0131Z" stroke="#1A73E8" stroke-width="2"/>
<path d="M61.2311 46.6583L61.2345 46.6581C61.5461 46.6406 61.7908 46.6325 61.9801 46.6323C61.9811 46.7355 61.9808 46.857 61.9795 47.001L61.9794 47.0025C61.9722 47.9186 61.8897 50.1781 61.8312 51.303C61.8307 51.3025 61.8301 51.302 61.8296 51.3015L61.2311 46.6583ZM61.2311 46.6583C60.1644 46.7146 58.2711 46.8421 57.2784 46.9177C57.3724 47.0162 57.4784 47.1259 57.598 47.2489C57.5985 47.2494 57.599 47.2499 57.5996 47.2504L58.4609 48.1301L59.133 48.8165M61.2311 46.6583L59.133 48.8165M30.001 61.4C30.0791 61.2024 30.9796 60.2422 34.3105 56.7964C36.7823 54.2373 37.1774 53.8514 37.4209 53.7641L30.001 61.4ZM30.001 61.4C29.9229 61.5837 29.9183 61.9651 29.9918 62.2132L30.001 61.4ZM37.7953 54.7033C37.8213 54.7003 37.8514 54.698 37.8837 54.6971C37.9146 54.6962 37.9427 54.6967 37.9665 54.698C37.9713 54.7017 37.9748 54.7046 37.977 54.7065C38.2907 54.9816 40.4945 57.0804 41.8999 58.4349C43.3684 59.853 44.2002 60.6548 44.6708 61.1017C44.9037 61.3229 45.0592 61.4676 45.1626 61.5588C45.2114 61.6018 45.2691 61.6512 45.3275 61.6941C45.3555 61.7145 45.4082 61.7519 45.4765 61.788L45.478 61.7888C45.5217 61.8118 45.7043 61.9084 45.9573 61.9084C46.1458 61.9084 46.2855 61.8542 46.3285 61.8371C46.3888 61.8132 46.4344 61.7882 46.4587 61.7742C46.508 61.7459 46.545 61.7192 46.5609 61.7075C46.5963 61.6814 46.6258 61.6564 46.6413 61.6431C46.6765 61.6129 46.7149 61.5776 46.7508 61.544C46.8254 61.4742 46.9257 61.3772 47.0447 61.2604C47.2843 61.0253 47.618 60.692 48.0128 60.2941C48.8032 59.4973 49.8476 58.4321 50.8927 57.3549L50.8938 57.3537C51.3014 56.9322 51.9367 56.2784 52.632 55.5629C53.3189 54.856 54.0643 54.089 54.7063 53.4264L37.7953 54.7033ZM37.7953 54.7033C37.7227 54.7628 37.6028 54.8711 37.3995 55.0693C36.9745 55.4837 36.2697 56.2075 35.0298 57.4911L35.0295 57.4914C33.3631 59.2153 32.3108 60.3111 31.6659 60.9998C31.3423 61.3454 31.1303 61.5788 30.9975 61.7335C30.9749 61.7597 30.9557 61.7825 30.9395 61.8021C30.9394 61.8241 30.9403 61.8459 30.942 61.8663C30.9834 61.9213 31.0429 61.9925 31.1139 62.0691C31.1894 62.1505 31.266 62.2252 31.3305 62.2816C31.3472 62.2962 31.3617 62.3084 31.3739 62.3182C31.4048 62.325 31.4437 62.3312 31.4861 62.3349C31.5199 62.3051 31.5664 62.2635 31.6275 62.2068C31.7982 62.0487 32.0354 61.8196 32.3476 61.5105C32.9707 60.8937 33.8703 59.9804 35.0915 58.7271L37.7953 54.7033ZM59.133 48.8165L58.4742 49.5156M59.133 48.8165L58.4742 49.5156M58.4742 49.5156L58.2491 49.7545L58.2479 49.7557M58.4742 49.5156L58.2479 49.7557M58.2479 49.7557C57.604 50.4367 56.8412 51.2272 54.7064 53.4262L58.2479 49.7557ZM62.3787 46.6525C62.3826 46.6535 62.3848 46.6539 62.3849 46.6538C62.3851 46.6538 62.3831 46.6533 62.3787 46.6525ZM35.0916 58.727C35.6677 58.1348 36.1965 57.5967 36.5853 57.2062C36.7792 57.0114 36.941 56.8506 37.0574 56.7373C37.1146 56.6816 37.1664 56.632 37.2076 56.5941C37.2264 56.5768 37.2538 56.5519 37.2829 56.5279C37.2947 56.518 37.3261 56.4923 37.3668 56.4645C37.3846 56.4523 37.4311 56.4211 37.4948 56.39C37.5262 56.3746 37.5866 56.347 37.6667 56.3247C37.7297 56.3071 37.9074 56.2626 38.1316 56.3074L38.2629 56.3337L38.3827 56.3936C38.4596 56.432 38.5155 56.4731 38.5247 56.48C38.5251 56.4803 38.5254 56.4805 38.5256 56.4807C38.5442 56.4942 38.5586 56.5057 38.5656 56.5114C38.5804 56.5233 38.5921 56.5335 38.5973 56.5379C38.6089 56.5481 38.6196 56.5578 38.6264 56.564C38.6413 56.5776 38.6593 56.5943 38.6783 56.6122C38.7171 56.6486 38.7715 56.7001 38.8384 56.7639C38.9729 56.8918 39.1642 57.075 39.3979 57.2992C39.8656 57.7479 40.506 58.3642 41.2069 59.0398L41.209 59.0418C44.7859 62.5095 45.584 63.2589 45.961 63.5512C46.024 63.5019 46.1138 63.4281 46.2359 63.3196C46.5831 63.0109 47.0955 62.5139 47.8865 61.7228C49.076 60.5287 55.8444 53.5722 58.7072 50.6038C58.7075 50.6034 58.7078 50.6031 58.7082 50.6028L59.1382 50.1545L59.8087 49.4553L60.5288 50.1034L60.8448 50.3878C61.0447 50.5625 61.4839 50.9696 61.8291 51.3009L35.0916 58.727ZM30.8627 61.9001C30.8629 61.9 30.8654 61.8966 30.8696 61.8901C30.8646 61.897 30.8625 61.9003 30.8627 61.9001ZM30.9031 61.8108C30.9031 61.8108 30.9031 61.8108 30.9031 61.8108L30.9031 61.8108ZM56.7098 46.2688C56.7088 46.2669 56.7082 46.2659 56.7082 46.266C56.7082 46.266 56.7087 46.2669 56.7098 46.2688Z" fill="#1A73E8" stroke="#1A73E8" stroke-width="2"/>
</svg>
