<svg width="84" height="85" viewBox="0 0 84 85" fill="none" xmlns="http://www.w3.org/2000/svg">

<path d="M27.2944 20.0246C25.935 20.6178 24.9463 21.5076 24.1801 22.7681C23.5375 23.8062 23.4634 24.2016 23.4634 25.9318C23.4634 27.8102 23.5128 27.9832 24.3779 29.2685C25.2924 30.6526 25.6878 30.9739 27.3685 31.7895C28.1595 32.185 28.283 32.358 28.283 33.0995C28.283 33.9399 27.7887 34.3106 27.418 33.7174C27.1461 33.2972 23.5622 31.5918 21.7332 31.0233C20.794 30.7267 19.0392 30.4054 17.8528 30.3313L15.6777 30.183V36.3621V42.5411L16.8641 42.7141C18.5448 42.9366 20.4727 43.9747 21.4613 45.1611C22.969 47.0148 23.1421 47.7316 23.3398 52.6254C23.587 58.2607 24.1801 60.1391 26.3552 62.0176C28.9257 64.2173 31.3232 64.6128 42.0006 64.6128C50.7749 64.6128 53.6173 64.3162 55.8664 63.2287C59.4009 61.4985 60.6367 58.928 60.8097 52.9961C60.8839 51.0188 61.0569 48.8438 61.1804 48.1517C61.7242 45.6307 64.1217 43.3815 66.8899 42.813L68.3235 42.5164V36.3868V30.2571H66.9641C64.5419 30.2571 61.8972 30.9986 58.8324 32.5063C58.0168 32.9265 57.1517 33.4208 56.9292 33.6185C56.2372 34.2365 55.9406 34.0387 56.0147 33.0501C56.0889 32.2344 56.2125 32.0614 57.0775 31.666C59.302 30.6279 60.439 28.9225 60.612 26.4014C60.7603 24.1769 60.4142 23.1883 59.0301 21.6311C56.3361 18.6405 51.3186 19.0359 49.1683 22.4221C48.4268 23.559 47.8089 23.9298 47.8089 23.213C47.8089 22.5951 46.0541 20.8649 44.7935 20.2223C42.2478 18.9371 38.738 19.7527 37.0326 22.0266C36.5877 22.5951 36.1923 23.213 36.0934 23.386C35.9945 23.6084 35.8215 23.5343 35.5249 23.0894C34.4868 21.6559 33.2757 20.5189 32.3612 20.0987C31.1501 19.5303 28.5055 19.5055 27.2944 20.0246ZM31.3479 20.2223C32.8803 20.6919 34.0419 21.6064 34.8576 22.9905C35.4013 23.9298 35.5249 24.4241 35.5249 25.7588C35.5002 27.7608 35.253 28.4281 34.0419 29.7875L33.1274 30.8009L30.8288 30.6279C28.6044 30.4549 28.5302 30.4796 28.5302 30.9739C28.5302 32.4075 25.5395 30.6032 24.5262 28.5517C22.7713 25.1161 24.5015 21.2604 28.283 20.0987C29.247 19.8021 30.0873 19.8516 31.3479 20.2223ZM57.4977 21.2604C58.0662 21.6559 58.8818 22.5456 59.302 23.213C60.7603 25.561 60.0188 28.7989 57.6213 30.529C56.4349 31.3941 56.0642 31.4188 55.8912 30.702C55.7429 30.2077 55.644 30.183 53.4937 30.3313L51.2445 30.5043L50.4041 29.7381C49.3908 28.7989 48.9706 27.6372 48.9706 25.7588C48.9706 23.9298 49.5391 22.6939 50.9232 21.6064C52.2084 20.5683 52.8758 20.3953 54.9025 20.4695C56.163 20.5189 56.6326 20.6425 57.4977 21.2604ZM36.39 28.7742C37.2304 30.6526 39.8256 32.2344 42.0995 32.2344C44.2992 32.2344 47.2899 30.3313 47.7101 28.6753C47.8831 27.9091 48.4516 27.8349 48.674 28.527C48.7729 28.7989 49.1189 29.3673 49.4649 29.7628C49.7862 30.1583 50.0334 30.6279 49.984 30.7762C49.9345 30.9245 49.0942 31.3447 48.1055 31.7401C46.1777 32.531 43.879 33.8904 42.8162 34.8791L42.1489 35.497L40.7153 34.3848C39.0841 33.1242 36.9832 31.9626 35.5496 31.4929C33.9431 30.9739 33.8937 30.8503 34.8576 29.6145C35.3272 28.9966 35.6979 28.3787 35.6979 28.2551C35.6979 27.7855 36.0934 28.0574 36.39 28.7742ZM21.1153 31.2952C23.1421 31.839 25.8361 33.0995 27.4921 34.2859L28.5302 35.0274V38.7348C28.5302 40.7863 28.6044 42.3928 28.6785 42.3187C28.7527 42.2445 29.42 42.3434 30.1862 42.5411C32.8556 43.2332 34.8329 45.1363 35.6979 47.8057C36.1428 49.2145 36.1923 50.0549 36.1923 56.7283V64.1185H34.907C33.078 64.1185 29.8649 63.5006 28.5302 62.9074C26.4293 61.9681 24.8722 59.9661 24.2296 57.3215C24.0318 56.5058 23.8094 54.0836 23.7352 51.958C23.6364 48.473 23.5622 47.954 22.9938 46.7676C21.8568 44.3701 19.7806 42.7389 17.4326 42.3928L16.2956 42.2445L16.2215 36.6834C16.1968 33.6433 16.2215 30.9986 16.2709 30.8256C16.4192 30.4301 18.7178 30.6526 21.1153 31.2952ZM67.5325 36.3621L67.4584 41.9727L66.4203 42.1704C65.3081 42.3434 63.133 43.4804 63.133 43.8758C63.133 43.9994 62.9847 44.0983 62.8117 44.0983C62.4904 44.0983 61.131 46.1497 60.6367 47.435C60.4884 47.8304 60.2659 50.0549 60.1671 52.3782C59.9446 56.7777 59.7469 57.8158 58.7583 59.719C57.9426 61.3008 55.3721 63.1298 53.988 63.1298C53.6914 63.1298 53.2712 63.2287 53.0488 63.3523C52.8263 63.4758 51.7141 63.6489 50.6019 63.7477L48.5504 63.9207V56.407C48.5504 47.781 48.6493 47.1137 50.3053 45.2352C51.4917 43.9005 53.1229 42.986 54.8036 42.7389L55.9653 42.5659V38.8831V35.2004L57.0034 34.4589C58.783 33.1489 61.9219 31.8143 64.3689 31.2952C65.6541 31.0233 66.9146 30.7762 67.1618 30.7762C67.5573 30.7515 67.582 31.1222 67.5325 36.3621Z" fill="#1A73E8" stroke="#1A73E8"/>
</svg>
