<svg width="13" height="13" viewBox="0 0 13 13" fill="none" xmlns="http://www.w3.org/2000/svg">
<path d="M10.8556 12.5C10.4377 12.5 10.0197 12.3461 9.68974 12.0163L0.97846 3.30898C0.340513 2.67132 0.340513 1.6159 0.97846 0.978241C1.61641 0.340586 2.67232 0.340586 3.31026 0.978241L12.0215 9.68552C12.6595 10.3232 12.6595 11.3786 12.0215 12.0163C11.6916 12.3241 11.2736 12.5 10.8556 12.5Z" fill="white"/>
<path d="M2.14436 12.5C1.7264 12.5 1.30843 12.3461 0.97846 12.0163C0.340513 11.3786 0.340513 10.3232 0.97846 9.68552L9.68974 0.978241C10.3277 0.340586 11.3836 0.340586 12.0215 0.978241C12.6595 1.6159 12.6595 2.67132 12.0215 3.30898L3.31026 12.0163C2.98029 12.3461 2.56233 12.5 2.14436 12.5Z" fill="white"/>
</svg>
