<svg width="25" height="25" viewBox="0 0 25 25" fill="none" xmlns="http://www.w3.org/2000/svg">
<path d="M12.2904 12.38C11.7504 12.38 11.2004 12.28 10.7704 12.09L4.87039 9.47C3.37039 8.8 3.15039 7.9 3.15039 7.41C3.15039 6.92 3.37039 6.02 4.87039 5.35L10.7704 2.73C11.6404 2.34 12.9504 2.34 13.8204 2.73L19.7304 5.35C21.2204 6.01 21.4504 6.92 21.4504 7.41C21.4504 7.9 21.2304 8.8 19.7304 9.47L13.8204 12.09C13.3804 12.29 12.8404 12.38 12.2904 12.38ZM12.2904 3.94C11.9504 3.94 11.6204 3.99 11.3804 4.1L5.48039 6.72C4.87039 7 4.65039 7.28 4.65039 7.41C4.65039 7.54 4.87039 7.83 5.47039 8.1L11.3704 10.72C11.8504 10.93 12.7204 10.93 13.2004 10.72L19.1104 8.1C19.7204 7.83 19.9404 7.54 19.9404 7.41C19.9404 7.28 19.7204 6.99 19.1104 6.72L13.2104 4.1C12.9704 4 12.6304 3.94 12.2904 3.94Z" fill="#243976"/>
<path d="M12.5 17.59C12.12 17.59 11.74 17.51 11.38 17.35L4.59 14.33C3.56 13.88 2.75 12.63 2.75 11.5C2.75 11.09 3.09 10.75 3.5 10.75C3.91 10.75 4.25 11.09 4.25 11.5C4.25 12.05 4.7 12.74 5.2 12.97L11.99 15.99C12.31 16.13 12.68 16.13 13.01 15.99L19.8 12.97C20.3 12.75 20.75 12.05 20.75 11.5C20.75 11.09 21.09 10.75 21.5 10.75C21.91 10.75 22.25 11.09 22.25 11.5C22.25 12.63 21.44 13.88 20.41 14.34L13.62 17.36C13.26 17.51 12.88 17.59 12.5 17.59Z" fill="#243976"/>
<path d="M12.5 22.59C12.12 22.59 11.74 22.51 11.38 22.35L4.59 19.33C3.47 18.83 2.75 17.72 2.75 16.49C2.75 16.08 3.09 15.74 3.5 15.74C3.91 15.74 4.25 16.09 4.25 16.5C4.25 17.13 4.62 17.71 5.2 17.97L11.99 20.99C12.31 21.13 12.68 21.13 13.01 20.99L19.8 17.97C20.38 17.71 20.75 17.14 20.75 16.5C20.75 16.09 21.09 15.75 21.5 15.75C21.91 15.75 22.25 16.09 22.25 16.5C22.25 17.73 21.53 18.84 20.41 19.34L13.62 22.36C13.26 22.51 12.88 22.59 12.5 22.59Z" fill="#243976"/>
</svg>
