<svg width="25" height="25" viewBox="0 0 25 25" fill="none" xmlns="http://www.w3.org/2000/svg">
<path d="M10.5 18.2H6.71C2.91 18.2 1.75 17.04 1.75 13.24V7.24003C1.75 3.44003 2.91 2.28003 6.71 2.28003H17.24C21.04 2.28003 22.2 3.44003 22.2 7.24003C22.2 7.65003 21.86 7.99003 21.45 7.99003C21.04 7.99003 20.7 7.65003 20.7 7.24003C20.7 4.30003 20.18 3.78003 17.24 3.78003H6.71C3.77 3.78003 3.25 4.30003 3.25 7.24003V13.24C3.25 16.18 3.77 16.7 6.71 16.7H10.5C10.91 16.7 11.25 17.04 11.25 17.45C11.25 17.86 10.91 18.2 10.5 18.2Z" fill="#243976"/>
<path d="M10.5 22.72C10.09 22.72 9.75 22.38 9.75 21.97V17.44C9.75 17.03 10.09 16.69 10.5 16.69C10.91 16.69 11.25 17.03 11.25 17.44V21.97C11.25 22.39 10.91 22.72 10.5 22.72Z" fill="#243976"/>
<path d="M10.5 14.2H2.5C2.09 14.2 1.75 13.86 1.75 13.45C1.75 13.04 2.09 12.7 2.5 12.7H10.5C10.91 12.7 11.25 13.04 11.25 13.45C11.25 13.86 10.91 14.2 10.5 14.2Z" fill="#243976"/>
<path d="M10.5002 22.72H7.24023C6.83023 22.72 6.49023 22.38 6.49023 21.97C6.49023 21.56 6.83023 21.22 7.24023 21.22H10.5002C10.9102 21.22 11.2502 21.56 11.2502 21.97C11.2502 22.38 10.9102 22.72 10.5002 22.72Z" fill="#243976"/>
<path d="M19.5403 22.72H15.9903C13.2203 22.72 12.2803 21.78 12.2803 19.01V13.3C12.2803 10.53 13.2203 9.59003 15.9903 9.59003H19.5403C22.3103 9.59003 23.2503 10.53 23.2503 13.3V19.01C23.2503 21.79 22.3103 22.72 19.5403 22.72ZM15.9903 11.09C14.0303 11.09 13.7803 11.34 13.7803 13.3V19.01C13.7803 20.97 14.0303 21.22 15.9903 21.22H19.5403C21.5003 21.22 21.7503 20.97 21.7503 19.01V13.3C21.7503 11.34 21.5003 11.09 19.5403 11.09H15.9903Z" fill="#243976"/>
<path d="M17.7998 19.47C17.5398 19.47 17.2798 19.37 17.0898 19.18C16.9998 19.09 16.9298 18.98 16.8798 18.86C16.8298 18.73 16.7998 18.6 16.7998 18.47C16.7998 18.21 16.9098 17.95 17.0898 17.77C17.3198 17.54 17.6698 17.43 17.9998 17.49C18.0598 17.51 18.1198 17.53 18.1798 17.55C18.2398 17.58 18.2998 17.61 18.3498 17.64C18.4098 17.68 18.4598 17.72 18.5098 17.77C18.6898 17.95 18.7998 18.21 18.7998 18.47C18.7998 18.6 18.7698 18.73 18.7198 18.86C18.6698 18.98 18.5998 19.09 18.5098 19.18C18.4598 19.23 18.4098 19.27 18.3498 19.3C18.2998 19.34 18.2398 19.37 18.1798 19.4C18.1198 19.42 18.0598 19.44 17.9998 19.45C17.9298 19.47 17.8698 19.47 17.7998 19.47Z" fill="#243976"/>
</svg>
