<svg width="25" height="25" viewBox="0 0 25 25" fill="none" xmlns="http://www.w3.org/2000/svg">
<path d="M9.5 11.25C7.98 11.25 6.75 10.02 6.75 8.5C6.75 6.98 7.98 5.75 9.5 5.75C11.02 5.75 12.25 6.98 12.25 8.5C12.25 10.02 11.02 11.25 9.5 11.25ZM9.5 7.25C8.81 7.25 8.25 7.81 8.25 8.5C8.25 9.19 8.81 9.75 9.5 9.75C10.19 9.75 10.75 9.19 10.75 8.5C10.75 7.81 10.19 7.25 9.5 7.25Z" fill="#243976"/>
<path d="M15.5 23.25H9.5C4.07 23.25 1.75 20.93 1.75 15.5V9.5C1.75 4.07 4.07 1.75 9.5 1.75H13.5C13.91 1.75 14.25 2.09 14.25 2.5C14.25 2.91 13.91 3.25 13.5 3.25H9.5C4.89 3.25 3.25 4.89 3.25 9.5V15.5C3.25 20.11 4.89 21.75 9.5 21.75H15.5C20.11 21.75 21.75 20.11 21.75 15.5V10.5C21.75 10.09 22.09 9.75 22.5 9.75C22.91 9.75 23.25 10.09 23.25 10.5V15.5C23.25 20.93 20.93 23.25 15.5 23.25Z" fill="#243976"/>
<path d="M21.75 6.25H16.25C15.84 6.25 15.5 5.91 15.5 5.5C15.5 5.09 15.84 4.75 16.25 4.75H21.75C22.16 4.75 22.5 5.09 22.5 5.5C22.5 5.91 22.16 6.25 21.75 6.25Z" fill="#243976"/>
<path d="M19 9C18.59 9 18.25 8.66 18.25 8.25V2.75C18.25 2.34 18.59 2 19 2C19.41 2 19.75 2.34 19.75 2.75V8.25C19.75 8.66 19.41 9 19 9Z" fill="#243976"/>
<path d="M3.17029 20.2C2.93029 20.2 2.69029 20.08 2.55029 19.87C2.32029 19.53 2.41029 19.06 2.75029 18.83L7.68029 15.52C8.76029 14.8 10.2503 14.88 11.2303 15.71L11.5603 16C12.0603 16.43 12.9103 16.43 13.4003 16L17.5603 12.43C18.6303 11.52 20.2903 11.52 21.3603 12.43L22.9903 13.83C23.3003 14.1 23.3403 14.57 23.0703 14.89C22.8003 15.2 22.3303 15.24 22.0103 14.97L20.3803 13.57C19.8803 13.14 19.0303 13.14 18.5403 13.57L14.3803 17.14C13.3203 18.05 11.6503 18.05 10.5803 17.14L10.2503 16.85C9.79029 16.46 9.03029 16.42 8.52029 16.77L3.60029 20.08C3.46029 20.16 3.31029 20.2 3.17029 20.2Z" fill="#243976"/>
</svg>
