<svg width="25" height="25" viewBox="0 0 25 25" fill="none" xmlns="http://www.w3.org/2000/svg">
<path d="M16.5 23.25H8.5C4.85 23.25 2.75 21.15 2.75 17.5V7.5C2.75 3.85 4.85 1.75 8.5 1.75H16.5C20.15 1.75 22.25 3.85 22.25 7.5V17.5C22.25 21.15 20.15 23.25 16.5 23.25ZM8.5 3.25C5.64 3.25 4.25 4.64 4.25 7.5V17.5C4.25 20.36 5.64 21.75 8.5 21.75H16.5C19.36 21.75 20.75 20.36 20.75 17.5V7.5C20.75 4.64 19.36 3.25 16.5 3.25H8.5Z" fill="#243976"/>
<path d="M19 9.75H17C15.48 9.75 14.25 8.52 14.25 7V5C14.25 4.59 14.59 4.25 15 4.25C15.41 4.25 15.75 4.59 15.75 5V7C15.75 7.69 16.31 8.25 17 8.25H19C19.41 8.25 19.75 8.59 19.75 9C19.75 9.41 19.41 9.75 19 9.75Z" fill="#243976"/>
<path d="M12.5 14.25H8.5C8.09 14.25 7.75 13.91 7.75 13.5C7.75 13.09 8.09 12.75 8.5 12.75H12.5C12.91 12.75 13.25 13.09 13.25 13.5C13.25 13.91 12.91 14.25 12.5 14.25Z" fill="#243976"/>
<path d="M16.5 18.25H8.5C8.09 18.25 7.75 17.91 7.75 17.5C7.75 17.09 8.09 16.75 8.5 16.75H16.5C16.91 16.75 17.25 17.09 17.25 17.5C17.25 17.91 16.91 18.25 16.5 18.25Z" fill="#243976"/>
</svg>
