<svg width="25" height="25" viewBox="0 0 25 25" fill="none" xmlns="http://www.w3.org/2000/svg">
<path d="M11.0396 22.44C10.8096 22.44 10.5895 22.34 10.4395 22.14L9.42953 20.79C9.21953 20.51 8.93956 20.35 8.63956 20.33C8.32956 20.31 8.03953 20.45 7.79953 20.7C6.34953 22.25 5.24954 22.12 4.71954 21.92C4.17954 21.71 3.26953 21.02 3.26953 18.8V7.54001C3.26953 3.10001 4.54953 1.75 8.73953 1.75H16.2896C20.4796 1.75 21.7596 3.10001 21.7596 7.54001V11.8C21.7596 12.21 21.4196 12.55 21.0096 12.55C20.5996 12.55 20.2596 12.21 20.2596 11.8V7.54001C20.2596 3.93001 19.6296 3.25 16.2896 3.25H8.73953C5.39953 3.25 4.76953 3.93001 4.76953 7.54001V18.8C4.76953 19.85 5.02953 20.43 5.26953 20.52C5.44953 20.59 5.93955 20.49 6.69955 19.68C7.24955 19.1 7.96954 18.79 8.71954 18.83C9.45954 18.87 10.1595 19.26 10.6295 19.89L11.6495 21.24C11.8995 21.57 11.8295 22.04 11.4995 22.29C11.3495 22.4 11.1896 22.44 11.0396 22.44Z" fill="#243976"/>
<path d="M16.5 8.25H8.5C8.09 8.25 7.75 7.91 7.75 7.5C7.75 7.09 8.09 6.75 8.5 6.75H16.5C16.91 6.75 17.25 7.09 17.25 7.5C17.25 7.91 16.91 8.25 16.5 8.25Z" fill="#243976"/>
<path d="M15.5 12.25H9.5C9.09 12.25 8.75 11.91 8.75 11.5C8.75 11.09 9.09 10.75 9.5 10.75H15.5C15.91 10.75 16.25 11.09 16.25 11.5C16.25 11.91 15.91 12.25 15.5 12.25Z" fill="#243976"/>
<path d="M15.3196 22.28C14.9396 22.28 14.5796 22.14 14.3196 21.88C14.0096 21.57 13.8696 21.12 13.9396 20.65L14.1296 19.3C14.1796 18.95 14.3896 18.53 14.6396 18.28L18.1796 14.74C18.6596 14.26 19.1296 14.01 19.6396 13.96C20.2596 13.9 20.8796 14.16 21.4596 14.74C22.0396 15.32 22.2996 15.93 22.2396 16.56C22.1896 17.06 21.9296 17.54 21.4596 18.02L17.9196 21.56C17.6696 21.81 17.2496 22.02 16.8996 22.07L15.5495 22.26C15.4695 22.27 15.3996 22.28 15.3196 22.28ZM19.8096 15.45C19.7996 15.45 19.7896 15.45 19.7796 15.45C19.6396 15.46 19.4496 15.59 19.2396 15.8L15.6996 19.34C15.6696 19.37 15.6196 19.47 15.6196 19.51L15.4396 20.76L16.6896 20.58C16.7296 20.57 16.8295 20.52 16.8595 20.49L20.3996 16.95C20.6096 16.73 20.7396 16.55 20.7496 16.41C20.7696 16.21 20.5696 15.97 20.3996 15.8C20.2396 15.64 20.0096 15.45 19.8096 15.45Z" fill="#243976"/>
<path d="M20.4206 18.7499C20.3506 18.7499 20.2806 18.7399 20.2206 18.7199C18.9006 18.3499 17.8506 17.2999 17.4806 15.9799C17.3706 15.5799 17.6006 15.1699 18.0006 15.0499C18.4006 14.9399 18.8106 15.1699 18.9206 15.5699C19.1506 16.3899 19.8006 17.0399 20.6206 17.2699C21.0206 17.3799 21.2506 17.7999 21.1406 18.1999C21.0506 18.5299 20.7506 18.7499 20.4206 18.7499Z" fill="#243976"/>
</svg>
