<svg width="19" height="19" viewBox="0 0 19 19" fill="none" xmlns="http://www.w3.org/2000/svg">
<path d="M17.25 17.3955H2.25C1.9425 17.3955 1.6875 17.1405 1.6875 16.833C1.6875 16.5255 1.9425 16.2705 2.25 16.2705H17.25C17.5575 16.2705 17.8125 16.5255 17.8125 16.833C17.8125 17.1405 17.5575 17.3955 17.25 17.3955Z" fill="#B4D2E4"/>
<path d="M16.418 17.3955C16.1105 17.3955 15.8555 17.1405 15.8555 16.833V10.083C15.8555 9.15301 14.9855 8.39551 13.9205 8.39551H5.58051C4.51551 8.39551 3.64551 9.15301 3.64551 10.083V16.833C3.64551 17.1405 3.39051 17.3955 3.08301 17.3955C2.77551 17.3955 2.52051 17.1405 2.52051 16.833V10.083C2.52051 8.53051 3.89301 7.27051 5.58051 7.27051H13.913C15.6005 7.27051 16.973 8.53051 16.973 10.083V16.833C16.9805 17.1405 16.7255 17.3955 16.418 17.3955Z" fill="#B4D2E4"/>
<path d="M14.5799 8.39551C14.2724 8.39551 14.0174 8.14051 14.0174 7.83301V5.71051C14.0174 5.12551 13.4549 4.64551 12.7724 4.64551H6.73492C6.04492 4.64551 5.48992 5.12551 5.48992 5.71051V7.83301C5.48992 8.14051 5.23492 8.39551 4.92742 8.39551C4.61992 8.39551 4.35742 8.14051 4.35742 7.83301V5.71051C4.35742 4.50301 5.42242 3.52051 6.72742 3.52051H12.7649C14.0699 3.52051 15.1349 4.50301 15.1349 5.71051V7.83301C15.1424 8.14051 14.8874 8.39551 14.5799 8.39551Z" fill="#B4D2E4"/>
<path d="M13.747 13.6455C12.877 13.6455 12.172 12.9405 12.172 12.0705V11.838C12.172 11.5905 11.9695 11.388 11.722 11.388C11.4745 11.388 11.272 11.5905 11.272 11.838V12.0705C11.272 12.9405 10.567 13.6455 9.69704 13.6455C8.82704 13.6455 8.12204 12.9405 8.12204 12.0705V11.838C8.12204 11.5905 7.91954 11.388 7.67204 11.388C7.42454 11.388 7.22204 11.5905 7.22204 11.838V12.0705C7.22204 12.9405 6.51704 13.6455 5.64704 13.6455C4.77704 13.6455 4.07204 12.9405 4.07204 12.0705V11.823C4.07204 11.583 3.87704 11.3805 3.62954 11.373H3.35204C3.04454 11.3655 2.78954 11.1105 2.79704 10.803C2.80454 10.4955 3.05204 10.248 3.35954 10.248H3.36704H3.64454C4.49954 10.263 5.19704 10.968 5.19704 11.823V12.0705C5.19704 12.318 5.39954 12.5205 5.64704 12.5205C5.89454 12.5205 6.09704 12.318 6.09704 12.0705V11.838C6.09704 10.968 6.80204 10.263 7.67204 10.263C8.54204 10.263 9.24704 10.968 9.24704 11.838V12.0705C9.24704 12.318 9.44954 12.5205 9.69704 12.5205C9.94454 12.5205 10.147 12.318 10.147 12.0705V11.838C10.147 10.968 10.852 10.263 11.722 10.263C12.592 10.263 13.297 10.968 13.297 11.838V12.0705C13.297 12.318 13.4995 12.5205 13.747 12.5205C13.9945 12.5205 14.197 12.318 14.197 12.0705V11.838C14.197 10.968 14.902 10.263 15.772 10.263H16.1095C16.417 10.263 16.672 10.518 16.672 10.8255C16.672 11.133 16.417 11.388 16.1095 11.388H15.772C15.5245 11.388 15.322 11.5905 15.322 11.838V12.0705C15.322 12.9405 14.617 13.6455 13.747 13.6455Z" fill="#B4D2E4"/>
<path d="M6.75 4.64551C6.4425 4.64551 6.1875 4.39051 6.1875 4.08301V2.58301C6.1875 2.27551 6.4425 2.02051 6.75 2.02051C7.0575 2.02051 7.3125 2.27551 7.3125 2.58301V4.08301C7.3125 4.39051 7.0575 4.64551 6.75 4.64551Z" fill="#B4D2E4"/>
<path d="M12.75 4.64551C12.4425 4.64551 12.1875 4.39051 12.1875 4.08301V2.58301C12.1875 2.27551 12.4425 2.02051 12.75 2.02051C13.0575 2.02051 13.3125 2.27551 13.3125 2.58301V4.08301C13.3125 4.39051 13.0575 4.64551 12.75 4.64551Z" fill="#B4D2E4"/>
<path d="M9.75 4.64551C9.4425 4.64551 9.1875 4.39051 9.1875 4.08301V1.83301C9.1875 1.52551 9.4425 1.27051 9.75 1.27051C10.0575 1.27051 10.3125 1.52551 10.3125 1.83301V4.08301C10.3125 4.39051 10.0575 4.64551 9.75 4.64551Z" fill="#B4D2E4"/>
</svg>
