<svg width="24" height="24" viewBox="0 0 24 24" fill="none" xmlns="http://www.w3.org/2000/svg">
<path d="M11.1157 2.81952C11.4824 2.07562 12.5431 2.07562 12.9097 2.81952L15.1881 7.44234C15.3338 7.7379 15.6157 7.94273 15.9418 7.98994L21.0001 8.72221C21.8194 8.84082 22.1481 9.84666 21.5568 10.4261L17.8802 14.0293C17.646 14.2588 17.5392 14.5885 17.5944 14.9117L18.4618 19.9964C18.6013 20.8145 17.7412 21.4368 17.0078 21.0482L12.4809 18.6498C12.1881 18.4947 11.8374 18.4947 11.5446 18.6498L7.0176 21.0482C6.28427 21.4368 5.42412 20.8145 5.56367 19.9964L6.43081 14.9131C6.48608 14.5891 6.37861 14.2587 6.14334 14.0291L2.45153 10.4277C1.85803 9.84875 2.18639 8.84055 3.00701 8.72215L8.0833 7.98973C8.4096 7.94266 8.69173 7.73778 8.83748 7.44206L11.1157 2.81952Z" stroke="#E63950" stroke-width="2" stroke-miterlimit="10"/>
</svg>
