<svg width="40" height="41" viewBox="0 0 40 41" fill="none" xmlns="http://www.w3.org/2000/svg">
<circle cx="20" cy="20.9223" r="20" fill="#2F89CE"/>
<path d="M9.3507 21.2964L13.9488 23.0109L15.7413 28.778C15.8192 29.1677 16.2868 29.2456 16.5985 29.0118L19.1703 26.9076C19.4041 26.6738 19.7938 26.6738 20.1055 26.9076L24.7036 30.2587C25.0154 30.4925 25.483 30.3367 25.5609 29.947L28.99 13.581C29.0679 13.1913 28.6782 12.8016 28.2886 12.9575L9.3507 20.2832C8.8831 20.4391 8.8831 21.1405 9.3507 21.2964ZM15.5075 22.1536L24.5477 16.6204C24.7036 16.5424 24.8595 16.7762 24.7036 16.8542L17.2999 23.7903C17.0661 24.0241 16.8323 24.3358 16.8323 24.7255L16.5985 26.5959C16.5985 26.8297 16.2089 26.9076 16.1309 26.5959L15.1957 23.1668C14.9619 22.7771 15.1178 22.3095 15.5075 22.1536Z" fill="white"/>
</svg>
