<svg width="24" height="24" viewBox="0 0 24 24" fill="none" xmlns="http://www.w3.org/2000/svg">
<path d="M18.0003 7.90959C17.9703 7.90959 17.9503 7.90959 17.9203 7.90959H17.8703C15.9803 7.84959 14.5703 6.38958 14.5703 4.58958C14.5703 2.74958 16.0703 1.25958 17.9003 1.25958C19.7303 1.25958 21.2303 2.75958 21.2303 4.58958C21.2203 6.39958 19.8103 7.85959 18.0103 7.91959C18.0103 7.90959 18.0103 7.90959 18.0003 7.90959ZM17.9003 2.74959C16.8903 2.74959 16.0703 3.56959 16.0703 4.57959C16.0703 5.56959 16.8403 6.36959 17.8303 6.40959C17.8403 6.39959 17.9203 6.39959 18.0103 6.40959C18.9803 6.35959 19.7303 5.55959 19.7403 4.57959C19.7403 3.56959 18.9203 2.74959 17.9003 2.74959Z" fill="#E63950"/>
<path d="M18.0105 15.2796C17.6205 15.2796 17.2305 15.2496 16.8405 15.1796C16.4305 15.1096 16.1605 14.7196 16.2305 14.3096C16.3005 13.8996 16.6905 13.6296 17.1005 13.6996C18.3305 13.9096 19.6305 13.6796 20.5005 13.0996C20.9705 12.7896 21.2205 12.3996 21.2205 12.0096C21.2205 11.6196 20.9605 11.2396 20.5005 10.9296C19.6305 10.3496 18.3105 10.1196 17.0705 10.3396C16.6605 10.4196 16.2705 10.1396 16.2005 9.7296C16.1305 9.3196 16.4005 8.9296 16.8105 8.8596C18.4405 8.5696 20.1305 8.87959 21.3305 9.67959C22.2105 10.2696 22.7205 11.1096 22.7205 12.0096C22.7205 12.8996 22.2205 13.7496 21.3305 14.3496C20.4205 14.9496 19.2405 15.2796 18.0105 15.2796Z" fill="#E63950"/>
<path d="M5.97047 7.90958C5.96047 7.90958 5.95047 7.90958 5.95047 7.90958C4.15047 7.84958 2.74047 6.38957 2.73047 4.58957C2.73047 2.74957 4.23047 1.24957 6.06047 1.24957C7.89047 1.24957 9.39047 2.74957 9.39047 4.57957C9.39047 6.38957 7.98047 7.84958 6.18047 7.90958L5.97047 7.15958L6.04047 7.90958C6.02047 7.90958 5.99047 7.90958 5.97047 7.90958ZM6.07047 6.40958C6.13047 6.40958 6.18047 6.40957 6.24047 6.41957C7.13047 6.37957 7.91047 5.57957 7.91047 4.58957C7.91047 3.57957 7.09047 2.75957 6.08047 2.75957C5.07047 2.75957 4.25047 3.57957 4.25047 4.58957C4.25047 5.56957 5.01047 6.35957 5.98047 6.41957C5.99047 6.40957 6.03047 6.40958 6.07047 6.40958Z" fill="#E63950"/>
<path d="M5.96 15.2796C4.73 15.2796 3.55 14.9496 2.64 14.3496C1.76 13.7596 1.25 12.9096 1.25 12.0096C1.25 11.1196 1.76 10.2696 2.64 9.67959C3.84 8.87959 5.53 8.5696 7.16 8.8596C7.57 8.9296 7.84 9.3196 7.77 9.7296C7.7 10.1396 7.31 10.4196 6.9 10.3396C5.66 10.1196 4.35 10.3496 3.47 10.9296C3 11.2396 2.75 11.6196 2.75 12.0096C2.75 12.3996 3.01 12.7896 3.47 13.0996C4.34 13.6796 5.64 13.9096 6.87 13.6996C7.28 13.6296 7.67 13.9096 7.74 14.3096C7.81 14.7196 7.54 15.1096 7.13 15.1796C6.74 15.2496 6.35 15.2796 5.96 15.2796Z" fill="#E63950"/>
<path d="M12.0003 15.3796C11.9703 15.3796 11.9503 15.3796 11.9203 15.3796H11.8703C9.98031 15.3196 8.57031 13.8596 8.57031 12.0596C8.57031 10.2196 10.0703 8.72955 11.9003 8.72955C13.7303 8.72955 15.2303 10.2296 15.2303 12.0596C15.2203 13.8696 13.8103 15.3296 12.0103 15.3896C12.0103 15.3796 12.0103 15.3796 12.0003 15.3796ZM11.9003 10.2196C10.8903 10.2196 10.0703 11.0396 10.0703 12.0496C10.0703 13.0396 10.8403 13.8396 11.8303 13.8796C11.8403 13.8696 11.9203 13.8696 12.0103 13.8796C12.9803 13.8296 13.7303 13.0296 13.7403 12.0496C13.7403 11.0496 12.9203 10.2196 11.9003 10.2196Z" fill="#E63950"/>
<path d="M11.9993 22.7595C10.7993 22.7595 9.5993 22.4496 8.6693 21.8196C7.7893 21.2296 7.2793 20.3896 7.2793 19.4896C7.2793 18.5996 7.7793 17.7395 8.6693 17.1495C10.5393 15.9095 13.4693 15.9095 15.3293 17.1495C16.2093 17.7395 16.7193 18.5795 16.7193 19.4795C16.7193 20.3695 16.2193 21.2296 15.3293 21.8196C14.3993 22.4396 13.1993 22.7595 11.9993 22.7595ZM9.4993 18.4096C9.0293 18.7196 8.7793 19.1095 8.7793 19.4995C8.7793 19.8895 9.0393 20.2696 9.4993 20.5796C10.8493 21.4896 13.1393 21.4896 14.4893 20.5796C14.9593 20.2696 15.2093 19.8796 15.2093 19.4896C15.2093 19.0996 14.9493 18.7196 14.4893 18.4096C13.1493 17.4996 10.8593 17.5096 9.4993 18.4096Z" fill="#E63950"/>
</svg>
