<svg width="24" height="24" viewBox="0 0 24 24" fill="none" xmlns="http://www.w3.org/2000/svg">
<path d="M19.77 11.2495H15.73C13.72 11.2495 12.75 10.3595 12.75 8.51954V3.97954C12.75 2.13954 13.73 1.24954 15.73 1.24954H19.77C21.78 1.24954 22.75 2.13954 22.75 3.97954V8.50954C22.75 10.3595 21.77 11.2495 19.77 11.2495ZM15.73 2.74954C14.39 2.74954 14.25 3.12954 14.25 3.97954V8.50954C14.25 9.36954 14.39 9.73954 15.73 9.73954H19.77C21.11 9.73954 21.25 9.35954 21.25 8.50954V3.97954C21.25 3.11954 21.11 2.74954 19.77 2.74954H15.73Z" fill="#1A73E8"/>
<path d="M19.77 22.7495H15.73C13.72 22.7495 12.75 21.7695 12.75 19.7695V15.7295C12.75 13.7195 13.73 12.7495 15.73 12.7495H19.77C21.78 12.7495 22.75 13.7295 22.75 15.7295V19.7695C22.75 21.7695 21.77 22.7495 19.77 22.7495ZM15.73 14.2495C14.55 14.2495 14.25 14.5495 14.25 15.7295V19.7695C14.25 20.9495 14.55 21.2495 15.73 21.2495H19.77C20.95 21.2495 21.25 20.9495 21.25 19.7695V15.7295C21.25 14.5495 20.95 14.2495 19.77 14.2495H15.73Z" fill="#1A73E8"/>
<path d="M8.27 11.2495H4.23C2.22 11.2495 1.25 10.3595 1.25 8.51954V3.97954C1.25 2.13954 2.23 1.24954 4.23 1.24954H8.27C10.28 1.24954 11.25 2.13954 11.25 3.97954V8.50954C11.25 10.3595 10.27 11.2495 8.27 11.2495ZM4.23 2.74954C2.89 2.74954 2.75 3.12954 2.75 3.97954V8.50954C2.75 9.36954 2.89 9.73954 4.23 9.73954H8.27C9.61 9.73954 9.75 9.35954 9.75 8.50954V3.97954C9.75 3.11954 9.61 2.74954 8.27 2.74954H4.23Z" fill="#1A73E8"/>
<path d="M8.27 22.7495H4.23C2.22 22.7495 1.25 21.7695 1.25 19.7695V15.7295C1.25 13.7195 2.23 12.7495 4.23 12.7495H8.27C10.28 12.7495 11.25 13.7295 11.25 15.7295V19.7695C11.25 21.7695 10.27 22.7495 8.27 22.7495ZM4.23 14.2495C3.05 14.2495 2.75 14.5495 2.75 15.7295V19.7695C2.75 20.9495 3.05 21.2495 4.23 21.2495H8.27C9.45 21.2495 9.75 20.9495 9.75 19.7695V15.7295C9.75 14.5495 9.45 14.2495 8.27 14.2495H4.23Z" fill="#1A73E8"/>
</svg>
