<svg width="24" height="24" viewBox="0 0 24 24" fill="none" xmlns="http://www.w3.org/2000/svg">
<path d="M19.9 22.7495H4.1C2.18 22.7495 1.25 21.7695 1.25 19.7695V15.7295C1.25 13.7195 2.18 12.7495 4.1 12.7495H19.9C21.82 12.7495 22.75 13.7295 22.75 15.7295V19.7695C22.75 21.7695 21.82 22.7495 19.9 22.7495ZM4.1 14.2495C3.09 14.2495 2.75 14.4595 2.75 15.7295V19.7695C2.75 21.0395 3.09 21.2495 4.1 21.2495H19.9C20.91 21.2495 21.25 21.0395 21.25 19.7695V15.7295C21.25 14.4595 20.91 14.2495 19.9 14.2495H4.1Z" fill="#1A73E8"/>
<path d="M19.9 11.2495H4.1C2.18 11.2495 1.25 10.2695 1.25 8.26954V4.22954C1.25 2.21954 2.18 1.24954 4.1 1.24954H19.9C21.82 1.24954 22.75 2.22954 22.75 4.22954V8.26954C22.75 10.2695 21.82 11.2495 19.9 11.2495ZM4.1 2.74954C3.09 2.74954 2.75 2.95954 2.75 4.22954V8.26954C2.75 9.53954 3.09 9.74954 4.1 9.74954H19.9C20.91 9.74954 21.25 9.53954 21.25 8.26954V4.22954C21.25 2.95954 20.91 2.74954 19.9 2.74954H4.1Z" fill="#1A73E8"/>
</svg>
