<svg width="40" height="41" viewBox="0 0 40 41" fill="none" xmlns="http://www.w3.org/2000/svg">
<circle cx="20" cy="20.9223" r="20" fill="#48C95F"/>
<path d="M27.9268 12.9848C25.9512 11.0161 23.3171 9.9223 20.5366 9.9223C14.7561 9.9223 10.0732 14.589 10.0732 20.3494C10.0732 22.1723 10.5854 23.9952 11.4634 25.5265L10 30.9223L15.561 29.464C17.0976 30.2661 18.7805 30.7036 20.5366 30.7036C26.3171 30.7036 31 26.0369 31 20.2765C30.9268 17.5786 29.9024 14.9536 27.9268 12.9848ZM25.5854 24.0681C25.3659 24.6515 24.3415 25.2348 23.8293 25.3077C23.3902 25.3806 22.8049 25.3806 22.2195 25.2348C21.8537 25.089 21.3415 24.9431 20.7561 24.6515C18.122 23.5577 16.439 20.9327 16.2927 20.714C16.1463 20.5681 15.1951 19.3286 15.1951 18.0161C15.1951 16.7036 15.8537 16.1202 16.0732 15.8286C16.2927 15.5369 16.5854 15.5369 16.8049 15.5369C16.9512 15.5369 17.1707 15.5369 17.3171 15.5369C17.4634 15.5369 17.6829 15.464 17.9024 15.9744C18.122 16.4848 18.6341 17.7973 18.7073 17.8702C18.7805 18.0161 18.7805 18.1619 18.7073 18.3077C18.6341 18.4536 18.561 18.5994 18.4146 18.7452C18.2683 18.8911 18.1219 19.1098 18.0488 19.1827C17.9024 19.3286 17.7561 19.4744 17.9024 19.6931C18.0488 19.9848 18.561 20.7869 19.3659 21.5161C20.3902 22.3911 21.1951 22.6827 21.4878 22.8286C21.7805 22.9744 21.9268 22.9015 22.0732 22.7556C22.2195 22.6098 22.7317 22.0265 22.878 21.7348C23.0244 21.4431 23.2439 21.5161 23.4634 21.589C23.6829 21.6619 25 22.3181 25.2195 22.464C25.5122 22.6098 25.6585 22.6827 25.7317 22.7556C25.8049 22.9744 25.8049 23.4848 25.5854 24.0681Z" fill="white"/>
</svg>
