<svg width="741" height="527" viewBox="0 0 741 527" fill="none" xmlns="http://www.w3.org/2000/svg">
<path d="M570.471 477.177C596.828 457.37 614.543 429.248 628.283 400.328C653.686 346.896 654.326 259.288 594.631 223.674C558.299 201.998 526.882 237.873 505.454 190.088C500.787 179.668 499.1 168.254 496.525 157.168C486.85 115.58 461.931 75.5999 422.2 56.2506C382.468 36.9013 327.258 43.569 299.567 77.8225C287.735 92.4652 281.159 111.109 266.216 122.914C232.995 149.167 208.808 140.433 170.907 160.031C136.327 177.903 101.943 229.793 99.0533 248.123C82.4233 353.616 135.425 384.653 183.524 441.995C223.883 490.12 247.102 491.427 309.163 509.822C371.225 528.217 453.093 534.479 508.919 501.063" stroke="#1A73E8" stroke-width="3" stroke-miterlimit="10"/>
<g style="mix-blend-mode:multiply" opacity="0.44">
<path d="M102.912 417.081L199.977 509.213C209.67 518.411 223.054 522.613 236.264 520.608L617.492 459.462C622.155 458.762 631.163 449.786 627.853 446.444L526.299 362.046L104.01 414.709C102.657 414.9 102.036 416.253 102.912 417.081Z" fill="#C2C4C0"/>
</g>
<path d="M99.7749 401.866L212.199 508.576L621.581 446.444L523.162 346.832L100.873 399.494C99.5203 399.685 98.8996 401.038 99.7749 401.866Z" fill="#C01B31"/>
<path d="M214.141 505.313C179.271 470.523 143.383 436.465 108.004 401.372C112.19 391.887 114.195 381.813 113.861 371.866C113.861 371.866 218.534 469.154 219.011 468.947C222.958 469.632 226.141 472.115 227.971 475.075C229.817 478.035 230.47 481.425 230.804 484.799C231.234 489.319 231.059 494.014 228.894 498.263C226.714 502.512 222.194 506.205 214.157 505.329L214.141 505.313Z" fill="white"/>
<path d="M627.85 410.396C627.85 410.396 217.338 466.465 216.988 467.165C224.245 472.974 227.269 482.03 225.121 489.685C222.288 499.807 218.707 502.64 210.622 507.08C210.622 507.08 210.065 508.863 213.105 508.481C255.216 503.086 571.257 461.213 620.514 455.563C625.4 455.006 629.824 452.412 632.736 448.465C641.505 436.609 641.41 423.686 627.85 410.396Z" fill="#BE192F"/>
<path d="M106.076 366.407L219.009 468.948L627.866 410.396L528.874 305.532L107.11 364.052C105.773 364.243 105.169 365.596 106.06 366.407H106.076Z" fill="#E63950"/>
<path d="M332.166 457.744L517.528 432.534L519.406 461.452L332.994 485.245L332.166 457.744Z" fill="#ECA568"/>
<path d="M250.124 463.839C253.896 476.889 253.832 491.006 249.965 504.025C249.965 504.025 269.922 501.001 270.145 500.491C273.089 487.521 271.243 473.531 265.052 461.77L250.124 463.839Z" fill="#9DA5E0"/>
<path d="M577.626 439.919C576.067 434.174 582.099 427.537 591.091 425.086C600.083 422.651 608.645 425.341 610.205 431.086C611.764 436.831 605.732 443.468 596.74 445.919C587.748 448.354 579.186 445.664 577.626 439.919Z" fill="#9DA5E0"/>
<g style="mix-blend-mode:multiply" opacity="0.61">
<path d="M578.436 358.036L304.682 461.324C303.743 461.738 146.343 402.964 146.343 402.964L121.182 380.11L394.331 285.448C402.639 282.503 411.79 282.185 420.129 284.572L556.251 335.914C557.206 336.073 578.643 357.59 578.42 358.036H578.436Z" fill="#C2C4C0"/>
</g>
<path d="M301.978 419.372C235.915 390.725 168.737 363.924 100.939 340.068C103.454 350.556 103.661 361.505 101.608 373.505C169.199 402.439 237.459 430.274 306.307 456.996C312.943 446.476 311.925 432.852 301.978 419.372Z" fill="white"/>
<path d="M600.08 289.888C600.08 289.888 298.617 417.749 297.646 417.399C307.864 428.73 309.997 445.203 302.373 458.921C303.551 460.115 304.315 461.261 305.063 461.372C305.063 461.372 598.297 330.471 599.714 331.362C603.326 323.675 607.13 320.588 607.369 312.376C607.608 304.164 609.199 300.01 600.064 289.888H600.08Z" fill="#2B2A2A"/>
<path d="M304.682 461.34C237.775 432.041 169.93 404.269 101.224 378.057C98.6462 377.07 95.5905 374.731 97.2934 372.694C98.6303 371.102 101.447 371.723 103.453 372.519C168.29 398.126 233.128 423.749 297.966 449.356C301.069 450.582 304.316 451.919 306.178 454.37C308.04 456.82 307.801 460.767 304.682 461.324V461.34Z" fill="#2B2A2A"/>
<path d="M600.08 289.888L300.464 419.5L102.418 340.8C99.4733 339.638 99.6802 335.946 102.752 334.864L385.737 234.456C394.044 231.512 403.196 231.193 411.535 233.58L600.096 289.904L600.08 289.888Z" fill="#404040"/>
<path d="M334.234 404.89C343.433 413.946 348.335 430.8 345.677 443.436C345.677 443.436 367.163 434.81 368.181 434.412C370.823 419.946 364.568 403.41 355.529 395.675L334.234 404.89Z" fill="#170044"/>
<path d="M534.207 317.803C543.406 326.874 547.607 345.543 542.801 355.824C542.801 355.824 564.08 346.434 565.098 346.052C567.74 331.585 562.154 317.548 553.114 309.798L534.207 317.803Z" fill="#170044"/>
<g style="mix-blend-mode:multiply" opacity="0.37">
<path d="M557.654 279.019L327.268 270.456C326.266 270.425 325.295 270.838 324.69 271.586L212.139 404.938C210.754 406.641 212.234 408.471 214.526 408.662L457.389 429.623C458.535 429.718 459.649 429.209 460.27 428.318L560.01 283.093C561.219 281.326 559.93 279.098 557.67 279.003L557.654 279.019Z" fill="#C2C4C0"/>
</g>
<path d="M551.778 284.318L454.442 419.071L190.826 401.994L188.279 392.763L447.901 408.519C447.901 408.519 544.473 279.082 544.569 278.462C546.176 278.048 548.166 277.379 549.885 277.857C552.67 278.637 553.402 282.074 551.778 284.302V284.318Z" fill="#243976"/>
<path d="M536.963 242.287C530.852 255.496 534.847 268.769 547.404 277.809C515.462 319.395 485.176 365.596 453.346 407.278C451.77 409.347 449.128 410.54 446.375 410.413C412.237 408.869 189.904 393.273 191.273 392.954C187.151 388.068 186.928 387.448 187.39 381.257C187.851 375.05 190.843 368.986 195.666 364.45L435.234 378.026L536.931 242.287H536.963Z" fill="white"/>
<path d="M539.603 237.146L309.217 228.584C308.215 228.552 307.244 228.966 306.639 229.714L194.088 363.066C192.704 364.769 194.184 366.599 196.475 366.79L439.339 387.75C440.485 387.846 441.599 387.336 442.219 386.445L541.959 241.221C543.168 239.454 541.879 237.226 539.619 237.13L539.603 237.146Z" fill="#1A73E8"/>
<mask id="mask0_276_2696" style="mask-type:luminance" maskUnits="userSpaceOnUse" x="193" y="228" width="350" height="160">
<path d="M539.599 237.146L309.214 228.584C308.211 228.552 307.24 228.966 306.635 229.714L194.084 363.066C192.7 364.768 194.18 366.599 196.472 366.79L439.335 387.75C440.481 387.845 441.595 387.336 442.215 386.445L541.955 241.22C543.164 239.454 541.875 237.225 539.615 237.13L539.599 237.146Z" fill="white"/>
</mask>
<g mask="url(#mask0_276_2696)">
<path d="M351.42 216.425L215.522 402.265L171.549 381.066L300.015 208.308L351.42 216.425Z" fill="white"/>
<path d="M267.835 275.66L504.825 295.268L481.701 328.928L239.713 308.986L267.835 275.66Z" fill="white"/>
<path d="M552.621 245.534C550.695 242.589 371.476 275.311 279.232 284.812L280.346 268.96L544.647 233.359L552.637 245.534H552.621Z" fill="white"/>
<path d="M549.437 241.555C547.511 238.61 373.863 271.332 281.619 280.833L281.937 274.531L549.198 235.443L549.437 241.555Z" fill="#E63950"/>
<path d="M486.169 418.514C486.281 414.996 320.637 339.161 239.582 294.106L249.577 281.756L486.615 403.967L486.185 418.53L486.169 418.514Z" fill="white"/>
<path d="M485.834 413.437C485.946 409.919 324.87 337.283 243.814 292.212L247.682 287.23L489.145 408.28L485.834 413.437Z" fill="#E63950"/>
<path d="M262.771 281.661L497.805 305.469L487.651 320.27L247.445 299.835L262.771 281.661Z" fill="#E63950"/>
<path d="M343.207 209.581L207.293 393.925L152.195 369.448L280.661 196.706L343.207 209.581Z" fill="#E63950"/>
</g>
<path d="M195.744 361.808C191.416 363.273 188.073 366.678 186.195 370.514C184.333 374.35 183.792 378.583 183.76 382.721C183.729 388.657 184.827 394.832 188.774 399.511C189.347 400.196 190.015 400.864 190.906 401.198C191.798 401.516 192.943 401.405 193.564 400.737C194.487 399.734 193.787 398.27 193.15 397.124C187.309 386.684 189.108 373.029 197.527 363.814C197.145 363.114 196.747 362.429 195.713 361.808H195.744Z" fill="#E63950"/>
<g style="mix-blend-mode:multiply" opacity="0.42">
<path d="M521.921 508.274C605.423 508.274 673.114 503.642 673.114 497.929C673.114 492.216 605.423 487.584 521.921 487.584C438.42 487.584 370.729 492.216 370.729 497.929C370.729 503.642 438.42 508.274 521.921 508.274Z" fill="#C2C4C0"/>
</g>
<path opacity="0.48" d="M647.865 476.868C678.876 451.378 682.979 405.124 657.031 373.557C631.083 341.99 584.91 337.063 553.899 362.554C522.889 388.044 518.785 434.298 544.733 465.865C570.681 497.433 616.855 502.359 647.865 476.868Z" fill="white"/>
<path d="M647.865 476.868C678.876 451.378 682.979 405.124 657.031 373.557C631.083 341.99 584.91 337.063 553.899 362.554C522.889 388.044 518.785 434.298 544.733 465.865C570.681 497.433 616.855 502.359 647.865 476.868Z" stroke="#0F1211" stroke-width="3" stroke-miterlimit="10"/>
<path d="M514.742 441.256C482.498 452.651 446.148 460.338 413.539 472.369C398.483 477.924 384.064 479.197 372.016 489.398C367.783 492.979 368.945 507.701 379.91 504.327C440.912 485.579 508.567 463.871 509.761 463.457C511.066 462.995 530.084 460.433 528.047 453.303C523.941 438.98 519.819 439.457 514.758 441.24L514.742 441.256Z" fill="#0F1211"/>
<path d="M516.398 443.356C515.682 441.335 516.477 439.171 518.451 438.518L531.915 433.982C532.838 433.664 533.92 433.378 534.923 434.014C535.687 434.492 536.164 435.351 536.61 436.147C539.872 442.163 539.681 442.147 542.132 448.513C544.297 454.099 541.464 456.629 537.597 457.139C531.74 457.934 533.538 458.635 527.681 459.43C526.949 459.526 524.737 460.815 523.973 460.449C522.987 459.972 522.111 458.603 521.57 457.6C519.262 453.415 518.69 449.865 516.414 443.388L516.398 443.356Z" fill="#C2C4C0"/>
<path d="M164.345 305.033C166.331 305.033 167.941 303.423 167.941 301.438C167.941 299.452 166.331 297.843 164.345 297.843C162.36 297.843 160.75 299.452 160.75 301.438C160.75 303.423 162.36 305.033 164.345 305.033Z" stroke="#F4EFEB" stroke-miterlimit="10"/>
<path d="M101.918 22.0102C101.918 20.023 103.526 18.4149 105.513 18.4149C107.501 18.4149 109.109 20.023 109.109 22.0102C109.109 23.9975 107.501 25.6055 105.513 25.6055C103.526 25.6055 101.918 23.9975 101.918 22.0102Z" stroke="#F4EFEB" stroke-miterlimit="10"/>
<path d="M488.904 2.24258C488.904 1.30126 489.676 0.529907 490.617 0.529907C491.558 0.529907 492.33 1.30126 492.33 2.24258C492.33 3.1839 491.558 3.95526 490.617 3.95526C489.676 3.95526 488.904 3.1839 488.904 2.24258Z" fill="#F4EFEB"/>
<path d="M218.812 162.267C218.812 161.325 219.584 160.554 220.525 160.554C221.466 160.554 222.238 161.325 222.238 162.267C222.238 163.208 221.466 163.979 220.525 163.979C219.584 163.979 218.812 163.208 218.812 162.267Z" fill="#F4EFEB"/>
<path d="M640.184 38.8625C640.184 37.9211 640.955 37.1498 641.896 37.1498C642.838 37.1498 643.609 37.9211 643.609 38.8625C643.609 39.8038 642.838 40.5751 641.896 40.5751C640.955 40.5751 640.184 39.8038 640.184 38.8625Z" fill="#F4EFEB"/>
<path d="M662.932 492.525C662.932 491.584 663.703 490.813 664.644 490.813C665.586 490.813 666.357 491.584 666.357 492.525C666.357 493.467 665.586 494.238 664.644 494.238C663.703 494.238 662.932 493.467 662.932 492.525Z" fill="#F4EFEB"/>
<path d="M119.805 416.24C119.805 415.298 120.576 414.527 121.517 414.527C122.459 414.527 123.23 415.298 123.23 416.24C123.23 417.181 122.459 417.952 121.517 417.952C120.576 417.952 119.805 417.181 119.805 416.24Z" fill="#F4EFEB"/>
<path d="M638.85 92.0338C638.85 91.0925 639.621 90.3212 640.562 90.3212C641.504 90.3212 642.275 91.0925 642.275 92.0338C642.275 92.9752 641.504 93.7465 640.562 93.7465C639.621 93.7465 638.85 92.9752 638.85 92.0338Z" fill="#F4EFEB"/>
<path d="M475.883 116.469C475.883 115.527 476.654 114.756 477.595 114.756C478.537 114.756 479.308 115.527 479.308 116.469C479.308 117.41 478.537 118.181 477.595 118.181C476.654 118.181 475.883 117.41 475.883 116.469Z" fill="#F4EFEB"/>
<path d="M487.193 233.741C487.193 232.8 487.965 232.029 488.906 232.029C489.847 232.029 490.619 232.8 490.619 233.741C490.619 234.683 489.847 235.454 488.906 235.454C487.965 235.454 487.193 234.683 487.193 233.741Z" fill="#F4EFEB"/>
<path d="M678.096 416.24C678.096 415.298 678.867 414.527 679.808 414.527C680.75 414.527 681.521 415.298 681.521 416.24C681.521 417.181 680.75 417.952 679.808 417.952C678.867 417.952 678.096 417.181 678.096 416.24Z" fill="#F4EFEB"/>
<path d="M142.031 465.449C142.031 463.462 143.639 461.854 145.627 461.854C147.614 461.854 149.222 463.462 149.222 465.449C149.222 467.437 147.614 469.045 145.627 469.045C143.639 469.045 142.031 467.437 142.031 465.449Z" stroke="#F4EFEB" stroke-miterlimit="10"/>
<path d="M679.811 237.637C679.811 235.65 681.419 234.042 683.406 234.042C685.393 234.042 687.001 235.65 687.001 237.637C687.001 239.625 685.393 241.233 683.406 241.233C681.419 241.233 679.811 239.625 679.811 237.637Z" stroke="#F4EFEB" stroke-miterlimit="10"/>
<path d="M641.896 367.317C641.896 365.33 643.505 363.722 645.492 363.722C647.479 363.722 649.087 365.33 649.087 367.317C649.087 369.304 647.479 370.912 645.492 370.912C643.505 370.912 641.896 369.304 641.896 367.317Z" stroke="#F4EFEB" stroke-miterlimit="10"/>
<path d="M94.1663 116.469L96.0228 121.908L102.194 121.241L98.0754 123.999L99.9973 129.883L95.2253 126.235L91.6431 131.216L92.1791 125.49L88.793 124.143L92.4406 122.587L94.1663 116.469Z" fill="white"/>
<path d="M606.334 283.017L609.667 287.684L615.381 285.279L612.23 289.096L615.773 294.182L610.151 292.051L608.151 297.869L607.013 292.221L603.379 291.907L606.425 289.358L606.334 283.017Z" fill="white"/>
<path d="M600.764 130.798L604.098 135.465L609.824 133.06L606.673 136.877L610.203 141.963L604.581 139.832L602.581 145.65L601.444 140.002L597.822 139.688L600.868 137.139L600.764 130.798Z" fill="white"/>
<path d="M352.859 77.6656L354.074 83.2743L360.284 83.3136L355.879 85.5884L357.121 91.6547L352.793 87.4841L348.662 92.0338L349.852 86.3859L346.648 84.6732L350.44 83.5358L352.859 77.6656Z" fill="white"/>
<path d="M81.9416 301.438L85.2885 306.118L91.0018 303.7L87.851 307.517L91.3809 312.603L85.7592 310.485L83.7589 316.29L82.6215 310.642L79 310.328L82.0462 307.779L81.9416 301.438Z" fill="white"/>
<path d="M732.999 169.989L617.545 169.384C613.307 169.362 609.853 172.78 609.831 177.019L609.617 217.965C609.594 222.204 613.012 225.658 617.251 225.68L732.704 226.284C736.943 226.306 740.396 222.889 740.419 218.65L740.633 177.703C740.655 173.465 737.237 170.011 732.999 169.989Z" fill="white"/>
<path d="M667.388 222.608C656.196 230.191 646.6 239.395 635.396 246.978L633.932 222.661L667.375 222.608H667.388Z" fill="white"/>
<path d="M101.435 219.926H8.66264C4.42421 219.926 0.988281 223.362 0.988281 227.6V258.782C0.988281 263.02 4.42421 266.456 8.66264 266.456H101.435C105.673 266.456 109.109 263.02 109.109 258.782V227.6C109.109 223.362 105.673 219.926 101.435 219.926Z" fill="#1A73E8"/>
<path d="M61.3496 263.724C70.5667 270.038 78.4633 277.686 87.6804 284.001L88.9877 263.907L61.3496 263.71V263.724Z" fill="#1A73E8"/>
<path d="M81.3638 242.492C81.2461 241.25 80.1479 240.348 78.9059 240.465C77.6639 240.583 76.7618 241.681 76.8795 242.923C76.9971 244.165 78.0953 245.067 79.3373 244.95C80.5794 244.832 81.4815 243.734 81.3638 242.492Z" fill="white"/>
<path d="M58.7329 242.4C58.6153 241.158 57.5171 240.256 56.275 240.374C55.033 240.491 54.1309 241.589 54.2486 242.831C54.3663 244.074 55.4645 244.976 56.7065 244.858C57.9485 244.74 58.8506 243.642 58.7329 242.4Z" fill="white"/>
<path d="M37.9986 242.139C37.8809 240.897 36.7827 239.995 35.5407 240.112C34.2987 240.23 33.3966 241.328 33.5142 242.57C33.6319 243.812 34.7301 244.714 35.9721 244.597C37.2141 244.479 38.1162 243.381 37.9986 242.139Z" fill="white"/>
<path d="M435.445 286.149H325.484V320.825H435.445V286.149Z" fill="#1E56AF"/>
<path d="M435.442 320.877H325.482L294.488 335.811H325.482H435.442H466.384L435.442 320.877Z" fill="#1E56AF"/>
<path d="M571.177 26.541H199C190.329 26.541 183.299 33.5707 183.299 42.2423V282.058C183.299 290.729 190.329 297.759 199 297.759H571.177C579.849 297.759 586.878 290.729 586.878 282.058V42.2423C586.878 33.5707 579.849 26.541 571.177 26.541Z" fill="white"/>
<path d="M582.275 43.1116V38.8155C582.275 29.4561 574.706 21.8867 565.346 21.8867H195.573C186.214 21.8867 178.645 29.4561 178.645 38.8155V43.1116H582.224H582.275Z" fill="#2A2A2A"/>
<mask id="mask1_276_2696" style="mask-type:luminance" maskUnits="userSpaceOnUse" x="183" y="26" width="404" height="272">
<path d="M535.174 26.541H235.008C206.451 26.541 183.301 49.691 183.301 78.2479V246.052C183.301 274.609 206.451 297.759 235.008 297.759H535.174C563.73 297.759 586.88 274.609 586.88 246.052V78.2479C586.88 49.691 563.73 26.541 535.174 26.541Z" fill="white"/>
</mask>
<g mask="url(#mask1_276_2696)">
<path d="M540.849 345.273C540.746 368.083 540.849 390.944 541.105 413.755C541.105 414.522 541.156 415.238 541.105 416.005C525.403 418.818 508.935 416.107 493.029 416.107C492.211 416.107 491.034 416.159 489.653 416.261C489.091 416.261 488.477 416.363 487.812 416.363C482.851 416.721 476.254 417.13 472.264 416.363C471.548 416.261 470.935 416.056 470.423 415.852C469.758 415.596 469.298 415.289 468.991 414.88C467.508 412.834 468.326 405.418 468.173 402.81C467.917 399.076 467.661 395.343 467.406 391.66C466.894 383.887 466.434 376.164 466.025 368.39C465.667 361.69 465.36 354.99 465.155 348.341C464.848 339.493 464.695 330.645 464.695 321.797C464.695 308.295 462.803 295.509 462.956 282.058C463.11 267.482 464.183 252.855 466.178 238.381C466.741 234.187 467.048 229.789 468.633 225.851C469.349 224.061 470.577 222.68 471.19 220.89C472.009 218.486 472.06 215.417 472.418 212.809C472.418 212.502 472.469 212.246 472.52 211.991C472.571 211.479 472.673 210.968 472.98 210.559C473.287 210.201 473.748 209.996 474.259 209.894C474.31 209.894 474.412 209.894 474.464 209.894C478.095 209.075 481.777 208.973 485.511 208.82C486.124 208.82 486.789 208.82 487.403 208.769C488.017 208.769 488.63 208.769 489.244 208.717C495.228 208.564 501.212 208.411 507.196 208.462C507.81 208.462 508.423 208.462 509.037 208.462C513.589 208.564 518.192 208.82 522.744 209.229C522.948 209.229 523.204 209.229 523.409 209.28C524.022 209.331 524.636 209.433 525.25 209.587C525.915 209.74 526.528 209.996 527.091 210.354C529.904 212.144 530.262 216.133 530.057 219.458C529.699 224.777 530.773 227.129 533.177 231.579C534.507 234.034 535.53 236.744 536.348 239.506C537.013 241.808 537.575 244.16 538.087 246.462C538.087 246.615 538.138 246.769 538.189 246.922C540.593 257.969 541.616 269.272 542.076 280.575C542.434 290.855 541.462 300.726 541.309 311.006C541.156 322.411 541.053 333.816 540.951 345.273H540.849Z" fill="#F46473"/>
<path d="M540.387 158.494C538.75 164.427 537.522 170.462 536.5 176.548C534.914 186.112 533.942 195.829 532.766 205.495C532.459 208.155 532.101 210.866 531.232 213.423C530.209 216.491 529.339 218.179 525.964 218.23C508.728 218.588 491.441 218.435 474.206 217.821C472.314 217.77 470.319 217.668 468.631 216.798C465 214.906 466.483 210.866 466.176 207.592C465.767 202.989 465.409 198.438 465.204 193.835C464.591 179.974 461.982 166.677 464.386 152.766C465.307 147.447 465.818 141.616 467.301 136.451C468.682 131.694 473.541 128.984 478.042 127.091C479.729 126.375 481.417 125.71 483.105 125.097C491.799 121.926 500.903 119.829 510.16 119.778C513.28 119.778 516.451 119.778 519.52 120.289C522.691 120.8 525.708 121.772 528.674 123C529.084 123.153 529.442 123.358 529.851 123.511C530.26 123.716 530.72 123.92 531.129 124.074C536.704 126.682 542.995 128.984 544.018 135.735C545.143 143.406 542.381 151.027 540.335 158.494H540.387Z" fill="#FFBE7C"/>
<path d="M529.908 123.511C529.908 123.511 529.908 123.613 529.857 123.613C525.816 130.825 519.065 137.218 512.723 142.332C508.529 145.759 499.068 154.709 493.34 150.72C491.498 149.441 490.271 147.447 489.248 145.503C486.793 140.849 484.901 135.888 483.725 130.774C483.264 128.932 482.804 126.887 483.213 125.045C491.908 121.874 501.011 119.778 510.268 119.726C513.388 119.726 516.559 119.726 519.628 120.238C522.799 120.749 525.816 121.721 528.783 122.949C529.192 123.102 529.55 123.307 529.959 123.46L529.908 123.511Z" fill="#F7967C"/>
<path d="M541.969 131.898C548.617 137.166 549.947 147.293 552.249 154.862C555.368 165.244 557.158 176.036 558.284 186.776C559.307 196.442 559.511 207.131 556.698 216.491C556.084 218.537 555.266 220.582 553.783 222.066C552.146 223.753 549.845 224.623 547.594 225.134C544.628 225.748 541.508 225.799 538.695 224.879C533.53 223.14 533.427 218.588 532.66 213.882C531.74 208.257 531.586 202.58 531.279 196.903C530.768 187.901 529.745 178.951 528.313 170.052C526.932 161.664 523.915 153.379 524.119 144.787C524.324 135.018 531.842 123.766 541.969 131.847V131.898Z" fill="#FFBE7C"/>
<path d="M407.568 158.085C407.568 158.085 407.312 157.727 407.159 157.573C406.852 157.215 406.494 156.857 406.187 156.448C404.908 154.811 404.397 152.817 404.039 150.822C403.681 148.879 403.63 146.731 402.402 145.094C401.788 144.276 400.868 143.662 399.998 143.099C398.873 142.383 397.748 141.77 396.623 141.156C395.651 140.644 394.526 139.775 393.452 139.468C393.043 139.366 392.583 139.417 392.225 139.673C391.611 140.133 391.662 141.054 392.02 141.718C392.378 142.332 393.043 142.792 393.605 143.253C394.168 143.713 394.628 144.173 395.14 144.685C395.344 144.889 395.549 145.094 395.6 145.35C395.651 145.759 395.293 146.168 394.935 146.373C392.225 148.009 387.775 146.833 385.116 145.605C383.274 144.787 381.484 143.15 379.438 142.844C378.927 142.792 378.364 142.844 377.955 143.099C377.546 143.406 377.393 144.122 377.802 144.429C376.523 143.713 375.193 143.202 373.813 143.815C372.994 144.173 372.687 144.889 372.994 145.759C373.199 146.27 373.557 146.731 373.915 147.14C372.687 147.14 371.92 147.702 372.176 149.083C372.278 149.595 372.585 150.106 372.994 150.464C373.25 150.72 374.017 151.538 374.273 151.538C373.966 151.538 373.761 151.845 373.813 152.152C373.813 152.459 374.017 152.714 374.222 152.919C376.114 155.169 378.978 156.397 381.74 157.471C385.269 158.903 388.849 160.335 392.634 160.488C394.219 160.54 395.651 160.284 396.879 161.358C398.004 162.33 398.771 163.608 399.794 164.631C399.999 164.836 400.254 165.04 400.51 165.194C401.43 165.603 402.453 165.04 403.272 164.529C403.527 164.375 403.63 164.12 403.885 163.966C404.243 163.71 404.653 163.557 405.011 163.301C405.675 162.892 406.34 162.483 406.903 161.972C407.568 161.409 408.284 161.102 408.335 160.028C408.335 159.312 408.028 158.647 407.568 158.033V158.085Z" fill="#F7967C"/>
<path d="M397.956 153.686C397.24 152.51 397.547 151.027 397.394 149.697C397.241 148.316 396.831 146.935 396.166 145.708C396.064 145.554 395.604 145.605 395.706 145.759C396.371 147.038 396.831 148.47 396.934 149.902C397.036 151.18 396.78 152.561 397.496 153.737C397.599 153.891 398.059 153.84 397.956 153.686Z" fill="#DB6357"/>
<path d="M385.88 154.863C383.783 154.044 381.737 153.175 379.692 152.203C378.055 151.436 376.111 150.311 374.27 151.283C373.963 151.487 374.577 151.641 374.731 151.538C375.651 151.027 376.623 151.283 377.544 151.692C378.464 152.05 379.334 152.51 380.203 152.919C381.942 153.686 383.732 154.453 385.522 155.169C385.778 155.272 386.289 155.016 385.88 154.863Z" fill="#DB6357"/>
<path d="M386.241 151.334C384.195 150.925 382.252 150.209 380.359 149.39C378.416 148.623 376.524 147.805 374.631 147.038C374.478 146.987 374.273 146.935 374.171 147.038C374.069 147.089 374.018 147.242 374.171 147.293C376.166 148.112 378.211 148.981 380.206 149.799C382.098 150.567 384.042 151.283 386.088 151.692C386.395 151.743 386.701 151.436 386.241 151.385V151.334Z" fill="#DB6357"/>
<path d="M386.646 147.754C383.782 147.14 380.764 146.424 378.412 144.481C378.258 144.327 377.593 144.481 377.849 144.634C380.253 146.629 383.321 147.396 386.288 148.061C386.39 148.061 386.646 148.112 386.748 148.01C386.85 147.907 386.748 147.805 386.646 147.754Z" fill="#DB6357"/>
<path d="M444.239 173.377C442.551 176.19 440.812 178.951 439.022 181.713C434.982 188.055 430.737 194.448 428.589 201.711C427.72 204.626 427.362 208.206 429.714 210.559C431.607 212.502 434.624 213.116 437.232 213.423C444.853 214.241 450.53 209.331 455.286 203.961C462.191 196.187 468.737 188.055 474.005 179.105C479.273 170.155 483.313 160.335 484.848 150.055C485.257 147.395 485.462 144.685 484.848 142.128C484.029 138.957 480.705 135.376 478.046 133.484C476.511 132.41 474.312 131.08 472.369 131.08C469.965 131.08 468.277 133.74 466.896 135.479C463.265 139.928 460.554 145.043 457.844 150.055C453.548 157.931 449.047 165.756 444.341 173.428L444.239 173.377Z" fill="#FFBE7C"/>
<path d="M406.796 154.198C407.358 153.635 408.023 153.021 408.842 153.021C409.66 153.021 410.325 153.635 410.938 154.249C415.439 158.852 419.94 163.455 424.338 168.16C427.356 171.433 430.322 174.758 433.544 177.877C436.511 180.793 439.733 183.503 442.443 186.623C445.154 189.794 447.455 193.425 448.274 197.517C449.041 201.608 448.171 206.16 445.256 209.178C442.392 212.093 438.045 213.014 434.107 212.349C430.015 211.684 427.254 208.462 424.85 205.393C423.673 203.91 422.497 202.427 421.372 200.995C417.843 196.545 414.314 192.096 410.938 187.544C406.131 181.048 401.579 174.4 397.283 167.495C397.027 167.086 396.72 166.626 396.669 166.114C396.465 164.427 399.789 161.972 400.761 160.744C402.653 158.443 404.699 156.243 406.796 154.147V154.198Z" fill="#FFBE7C"/>
<path d="M514.152 121.67C516.761 118.55 512.618 114.458 511.033 111.39C509.191 107.707 507.299 102.03 502.287 102.439C499.73 102.695 497.224 103.82 495.127 105.355C494.615 105.713 494.155 106.071 493.695 106.48C491.547 108.321 489.757 110.622 490.728 113.589C491.086 114.765 491.444 115.942 491.802 117.169C492.007 117.885 492.16 118.55 492.365 119.266C492.825 121.005 493.183 124.125 494.462 125.454C495.024 126.068 495.894 126.273 496.712 126.375C501.213 126.938 505.714 125.608 509.958 124.073C511.186 123.613 512.413 123.153 513.385 122.386C513.692 122.181 513.897 121.925 514.101 121.67H514.152Z" fill="#F7967C"/>
<path d="M490.728 113.64C491.086 114.816 491.444 115.993 491.802 117.22C492.007 117.936 492.16 118.601 492.365 119.317C492.467 119.317 492.518 119.215 492.621 119.215C495.076 117.834 498.042 115.686 499.014 112.924C499.525 111.543 499.218 110.162 498.195 109.088C497.019 107.861 495.485 106.633 493.695 106.582C491.547 108.423 489.757 110.725 490.728 113.691V113.64Z" fill="#DB6357"/>
<path d="M482.598 75.5889C478.915 81.5217 483.979 89.5513 478.455 93.0291C477.074 94.3077 474.926 95.7398 474.875 97.7856C474.977 98.7573 475.847 99.4733 476.614 100.087C478.199 101.314 478.455 103.821 478.506 105.662C478.608 108.628 477.995 112.617 480.603 114.714C481.728 115.584 483.16 115.993 484.592 116.044C486.024 116.095 487.457 115.839 488.837 115.584C493.594 114.765 497.634 113.64 501.163 110.214C502.442 108.986 503.976 107.452 504.641 105.764C505.459 103.769 507.505 103.821 509.346 104.383C519.115 106.582 522.081 96.0978 521.877 88.4261C521.416 82.698 521.161 76.5607 516.558 72.418C515.432 71.2417 514.205 70.1676 512.875 69.247C511.392 68.2242 510.011 67.8661 508.272 67.5593C505.05 66.9455 501.726 66.741 498.452 66.741C496.969 66.741 495.435 67.3036 494.054 67.7127C492.469 68.173 490.883 68.6333 489.298 69.1959C487.405 69.8096 485.769 70.5257 484.592 72.1623C483.825 73.2363 483.211 74.4126 482.495 75.5378L482.598 75.5889Z" fill="#F7967C"/>
<path d="M489.958 87.5054C490.265 87.6589 490.572 87.8123 490.879 87.9146C490.879 87.6077 490.623 87.352 490.521 87.0963C489.396 84.6925 485.969 83.465 483.514 83.5673C483.105 83.5673 482.747 83.6696 482.491 84.0276C482.133 84.4879 483.003 85.0505 483.361 85.2551C484.435 85.7665 485.662 85.8688 486.787 86.1245C488.015 86.3802 488.884 86.9429 489.958 87.5566V87.5054Z" fill="#9E554E"/>
<path d="M484.229 91.3927C484.331 90.7278 484.996 90.1652 485.661 90.3698C486.633 90.6255 486.684 92.2622 486.479 93.0293C486.531 93.9499 485.508 94.4102 484.792 93.8988C484.127 93.3362 484.025 92.211 484.229 91.3927Z" fill="#723737"/>
<path d="M481.725 104.588C481.725 104.588 481.828 104.434 481.93 104.383C482.237 104.127 482.646 104.076 483.004 103.974C483.822 103.769 484.64 103.462 485.356 103.053C485.612 102.9 485.868 102.746 486.124 102.644C486.379 102.542 486.686 102.542 486.942 102.746C487.351 103.053 487.3 103.718 487.095 104.178C486.533 105.764 485.203 106.991 483.413 106.889C482.492 106.838 481.009 105.559 481.674 104.588H481.725Z" fill="white"/>
<path d="M542.28 113.742C541.973 113.333 541.615 112.975 541.257 112.617C539.621 111.083 537.728 109.651 537.012 107.554C536.398 105.815 536.756 103.923 536.807 102.081C536.961 97.4784 535.12 92.8754 531.949 89.5511C529.494 87.045 526.323 85.2549 524.431 82.3397C522.896 79.9359 522.385 77.0207 521.311 74.3612C518.549 67.6613 512.31 63.672 505.303 63.3652C499.165 63.1095 489.908 64.8484 485.868 69.9628C485.356 70.6277 484.896 71.3948 484.947 72.2643C485.152 74.3612 487.658 77.481 488.937 79.1176C492.875 84.0275 498.603 87.1473 501.109 93.1311C502.592 96.6601 503.052 100.598 502.541 104.383C502.029 108.168 500.546 111.799 500.137 115.583C499.472 122.079 501.927 129.802 508.525 132.205C510.57 132.921 512.565 132.768 514.56 133.382C517.066 134.149 519.163 135.837 521.72 136.553C524.635 137.371 527.806 137.013 530.772 136.297C532.665 135.837 534.506 135.223 536.092 134.098C538.137 132.615 539.518 130.262 541.717 128.983C542.587 128.472 543.559 128.165 544.223 127.398C544.735 126.835 544.94 126.068 545.093 125.352C546.014 121.158 545.042 116.913 542.331 113.742H542.28Z" fill="#9E554E"/>
<path d="M498.758 89.6533C499.065 89.4999 499.372 89.4487 499.73 89.3976C500.753 89.2442 501.878 89.4999 502.594 90.267C504.282 92.0571 504.077 95.6372 503.259 97.7341C502.594 99.4219 500.804 101.979 499.065 102.644C498.144 103.002 497.019 102.849 496.354 102.184C496.099 101.877 495.894 101.519 495.74 101.161C494.411 98.041 494.411 93.2846 497.019 90.8296C497.53 90.3693 498.144 89.9602 498.758 89.7045V89.6533Z" fill="#F7967C"/>
<path d="M499.987 81.5209C495.435 80.9072 491.395 77.7362 489.707 73.4401C489.554 73.0821 488.633 73.2866 488.787 73.5424C490.526 78.0431 494.771 81.3163 499.578 81.9812C499.783 81.9812 500.09 81.9812 500.192 81.8277C500.294 81.6743 500.192 81.5209 499.987 81.5209Z" fill="#7F3D3D"/>
<path d="M500.143 78.0432C497.995 77.3272 496.103 75.8951 494.824 74.0028C494.62 73.7471 493.75 74.0028 493.955 74.2585C495.285 76.2531 497.279 77.7363 499.529 78.4523C499.734 78.5034 500.041 78.4523 500.194 78.35C500.348 78.2477 500.348 78.0943 500.194 77.992L500.143 78.0432Z" fill="#7F3D3D"/>
<path d="M518.043 74.054C516.611 70.6785 514.003 67.9167 510.78 66.2801C510.576 66.1778 510.32 66.1778 510.116 66.2801C510.013 66.3312 509.809 66.5358 510.013 66.6381C513.235 68.2747 515.793 70.9854 517.173 74.3097C517.276 74.5655 518.196 74.412 518.043 74.054Z" fill="#7F3D3D"/>
<path d="M511.754 126.733C509.606 126.835 507.56 125.71 506.23 124.073C504.747 122.232 504.133 119.879 504.133 117.527C504.133 117.22 503.213 117.322 503.213 117.629C503.213 120.135 503.929 122.743 505.668 124.636C507.202 126.324 509.35 127.346 511.652 127.244C511.805 127.244 512.163 127.244 512.214 126.988C512.214 126.784 512.01 126.733 511.856 126.733H511.754Z" fill="#7F3D3D"/>
<path d="M515.025 123.869C513.644 123.562 512.57 122.488 511.854 121.312C511.445 120.698 511.087 120.033 510.78 119.368C510.422 118.652 510.064 117.936 509.911 117.118C509.911 116.76 508.939 116.913 508.99 117.22C509.093 118.038 509.502 118.806 509.86 119.522C510.218 120.289 510.627 121.056 511.087 121.772C511.956 122.999 513.133 123.971 514.616 124.329C514.974 124.431 515.639 123.971 515.025 123.869Z" fill="#7F3D3D"/>
<path d="M533.691 95.2275C533.026 93.4374 531.799 91.8519 530.06 90.9313C529.855 90.829 529.599 90.829 529.395 90.9313C529.293 90.9825 529.088 91.1871 529.293 91.2893C533.128 93.3351 533.793 98.0404 533.231 101.979C533.18 102.337 534.1 102.285 534.151 101.979C534.458 99.7282 534.509 97.3755 533.691 95.2275Z" fill="#7F3D3D"/>
<path d="M493.64 234.801C492.054 235.772 490.469 236.795 488.934 237.818C487.758 238.585 486.428 239.557 486.326 240.989C486.275 241.808 486.582 242.575 486.94 243.291C487.604 244.62 490.111 249.939 491.44 250.246C492.156 250.4 492.872 250.144 493.537 249.888C511.029 242.728 528.418 235.772 545.858 228.612C552.149 226.055 555.32 219.611 554.143 212.962C553.478 209.382 551.33 206.058 548.211 204.268C540.283 199.716 534.811 207.49 528.827 211.53C521.718 216.338 514.66 221.145 507.602 226.004C503.05 229.124 498.396 231.937 493.793 234.801H493.64Z" fill="#F7967C"/>
<path d="M503.869 281.751C490.418 263.288 473.131 240.989 459.68 222.526H405.979C417.946 242.217 436.154 264.158 451.037 281.751H503.818H503.869Z" fill="#D7EEFE"/>
<path d="M481.873 258.787C481.873 258.787 482.078 258.583 482.129 258.48C481.157 260.935 479.418 262.981 477.526 264.822C477.219 265.129 476.912 265.436 476.759 265.845C476.656 266.254 476.81 266.817 477.219 266.919C477.475 266.97 477.73 266.919 477.935 266.817C479.162 266.305 480.339 265.589 481.361 264.72C483.561 262.93 485.248 260.628 486.987 258.378C488.982 255.77 490.926 253.161 492.818 250.553C493.79 249.223 495.068 247.74 495.273 246.103C495.477 244.313 494.761 242.216 493.636 240.835C492.92 239.915 492.051 239.045 490.926 238.687C489.8 238.381 488.624 238.381 487.499 238.534C483.663 238.892 479.469 240.068 475.889 241.603C475.531 241.756 474.968 242.012 474.662 242.268C474.252 242.626 474.508 242.728 474.866 243.137C475.48 243.904 475.838 244.825 475.94 245.848C476.196 248.661 474.099 250.451 472.053 251.934C470.263 253.212 468.269 254.184 466.427 255.412C465.865 255.77 464.893 256.332 464.842 257.099C464.689 258.787 466.785 258.122 467.706 257.815C469.394 257.202 470.979 256.486 472.565 255.667C473.946 254.951 475.224 254.031 476.605 253.315C476.401 253.417 476.043 253.98 475.889 254.184C475.48 254.593 475.071 255.002 474.662 255.36C473.792 256.128 472.872 256.793 471.951 257.457C470.263 258.685 468.473 259.861 466.888 261.242C466.376 261.651 465.763 262.214 465.763 262.93C465.763 263.748 466.683 264.106 467.399 264.004C467.911 263.953 468.422 263.646 468.882 263.39C472.309 261.498 475.224 259.196 478.344 256.895C475.889 259.35 473.485 261.907 471.184 264.464C470.826 264.822 470.468 265.282 470.621 265.794C470.724 266.203 471.184 266.51 471.644 266.51C472.104 266.51 472.514 266.357 472.923 266.203C476.554 264.566 479.265 261.702 481.873 258.736V258.787Z" fill="#F7967C"/>
<path d="M506.38 221.401C504.283 222.884 502.186 224.418 500.089 225.953C498.044 227.436 496.049 228.97 494.003 230.453C492.725 231.374 489.707 232.448 489.707 234.34C489.707 235.159 490.065 235.977 490.423 236.693C492.725 241.552 494.668 246.615 496.253 251.781C497.225 254.951 498.606 253.826 501.01 252.752C503.618 251.576 506.227 250.349 508.835 249.223C514.205 246.82 519.626 244.518 525.048 242.217C527.554 241.194 530.06 240.171 532.413 238.892C535.583 237.256 538.499 235.312 541.465 233.317C545.199 230.811 549.086 228.817 552.001 225.288C554.66 222.066 556.502 218.23 557.422 214.138C558.752 208.461 559.366 201.097 552.308 199.511C549.955 199 547.449 199.255 545.096 199.767C540.187 200.892 535.635 203.193 531.185 205.597C525.355 208.768 519.729 212.195 514.205 215.877C511.546 217.667 508.886 219.508 506.278 221.401H506.38Z" fill="#FFBE7C"/>
<path d="M464.652 158.442C465.214 155.271 465.93 152.203 466.902 149.134C467.056 148.725 465.93 148.623 465.828 148.981C462.606 159.619 461.583 170.922 462.913 181.969C463.271 185.088 463.833 188.157 464.601 191.226C464.703 191.635 465.777 191.584 465.675 191.226C463.066 180.537 462.708 169.285 464.601 158.442H464.652Z" fill="#F49262"/>
<path d="M538.648 203.859C536.909 203.859 535.273 204.268 533.738 204.881C533.738 204.881 533.841 204.779 533.789 204.728C532.102 193.834 530.414 182.889 528.726 171.996C528.266 168.876 527.755 165.807 527.294 162.687C527.243 162.278 526.118 162.329 526.22 162.687C527.908 173.581 529.596 184.526 531.283 195.42C531.744 198.54 532.255 201.608 532.715 204.728C532.715 204.984 533.125 205.035 533.432 204.984C530.772 206.058 528.368 207.797 525.964 209.229C521.464 211.939 516.912 214.497 512.258 216.9C511.695 217.207 512.718 217.463 513.025 217.31C517.423 215.008 521.771 212.604 526.067 210.047C528.061 208.871 530.056 207.592 532.102 206.467C534.148 205.342 536.347 204.421 538.699 204.421C539.364 204.421 539.364 203.859 538.699 203.859H538.648Z" fill="#F49262"/>
<path d="M440.2 184.577C440.047 184.27 438.973 184.373 439.126 184.731C441.683 189.794 442.604 195.573 441.735 201.148C441.683 201.506 442.758 201.557 442.809 201.148C443.678 195.522 442.809 189.64 440.149 184.577H440.2Z" fill="#F49262"/>
</g>
<path d="M183.76 271.726V276.687C183.76 287.53 191.329 296.276 200.689 296.276H570.462C579.821 296.276 587.39 287.479 587.39 276.687V271.726H183.811H183.76Z" fill="#2A2A2A"/>
<path d="M572.409 302.976H197.777C186.883 302.976 178.035 294.128 178.035 283.234V40.9635C178.035 30.0697 186.883 21.2218 197.777 21.2218H572.409C583.303 21.2218 592.15 30.0697 592.15 40.9635V283.234C592.15 294.128 583.303 302.976 572.409 302.976ZM197.777 31.7575C192.663 31.7575 188.571 35.9002 188.571 40.9635V283.234C188.571 288.297 192.714 292.44 197.777 292.44H572.409C577.472 292.44 581.615 288.297 581.615 283.234V40.9635C581.615 35.9002 577.472 31.7575 572.409 31.7575H197.777Z" fill="#1E56AF"/>
<path d="M333.261 81.2911H207.293V94.6398H333.261V81.2911Z" fill="#D7EEFE"/>
<path d="M333.261 106.914H207.293V120.263H333.261V106.914Z" fill="#D7EEFE"/>
<path d="M360.521 132.538H207.293V145.887H360.521V132.538Z" fill="#D7EEFE"/>
<path d="M360.521 158.161H207.293V171.51H360.521V158.161Z" fill="#D7EEFE"/>
<path d="M360.521 183.784H207.293V197.133H360.521V183.784Z" fill="#D7EEFE"/>
<path d="M642.697 31.162H549.924C545.686 31.162 542.25 34.5979 542.25 38.8363V70.0175C542.25 74.2559 545.686 77.6919 549.924 77.6919H642.697C646.935 77.6919 650.371 74.2559 650.371 70.0175V38.8363C650.371 34.5979 646.935 31.162 642.697 31.162Z" fill="#E63950"/>
<path d="M590.011 74.9594C580.794 81.274 572.898 88.9223 563.68 95.2369L562.373 75.1424L590.011 74.9463V74.9594Z" fill="#E63950"/>
<path d="M570.006 53.7274C570.124 52.4854 571.222 51.5833 572.464 51.701C573.706 51.8187 574.608 52.9169 574.491 54.1589C574.373 55.4009 573.275 56.303 572.033 56.1853C570.791 56.0677 569.889 54.9695 570.006 53.7274Z" fill="white"/>
<path d="M592.639 53.6358C592.757 52.3937 593.855 51.4917 595.097 51.6093C596.339 51.727 597.241 52.8252 597.124 54.0672C597.006 55.3092 595.908 56.2113 594.666 56.0937C593.424 55.976 592.522 54.8778 592.639 53.6358Z" fill="white"/>
<path d="M613.372 53.3744C613.489 52.1324 614.588 51.2303 615.83 51.348C617.072 51.4656 617.974 52.5638 617.856 53.8059C617.738 55.0479 616.64 55.95 615.398 55.8323C614.156 55.7146 613.254 54.6164 613.372 53.3744Z" fill="white"/>
<path d="M154.38 60.6013L38.9262 61.2058C34.6878 61.228 31.2699 64.6818 31.2921 68.9202L31.5065 109.867C31.5287 114.105 34.9826 117.523 39.221 117.501L154.675 116.897C158.913 116.874 162.331 113.42 162.309 109.182L162.094 68.2353C162.072 63.997 158.618 60.5791 154.38 60.6013Z" fill="white"/>
<path d="M104.553 113.854C115.744 121.437 125.34 130.641 136.544 138.224L138.009 113.907L104.566 113.854H104.553Z" fill="white"/>
</svg>
