<svg width="508" height="449" viewBox="0 0 508 449" fill="none" xmlns="http://www.w3.org/2000/svg">
<g clip-path="url(#clip0_409_6011)">
<path d="M443.846 59.8573C420.738 25.6609 383.108 14.5099 347.81 7.5007C275.094 -7.04869 198.032 9.09371 138.248 61.2379C90.5482 102.974 39.1382 181.244 55.7802 255.265C70.5142 320.472 97.8622 402.777 154.254 431.876C188.174 449.399 229.302 448.655 265.448 443.664C300.958 438.779 336.892 427.734 368.798 408.193C400.916 388.44 423.918 359.341 438.122 320.366C452.22 281.709 466.318 235.512 463.774 192.926C459.004 114.869 397.948 63.1495 336.044 52.8481C268.098 41.5909 190.188 67.1851 144.184 128.993C103.268 184.005 90.7602 265.885 127.436 328.225C165.702 393.431 253.152 411.167 315.162 393.325C373.568 376.439 425.402 319.516 428.9 246.451C432.504 170.836 385.97 114.232 323.218 106.691C259.936 99.0451 178.422 127.825 157.752 206.626C140.474 272.257 185.1 341.606 240.538 352.863C295.976 364.12 363.498 320.684 380.988 256.327C402.612 177.102 318.872 135.578 265.13 148.003C237.57 154.375 209.798 173.704 199.092 205.457C190.506 230.733 192.838 262.381 207.572 284.046C240.538 332.366 330.426 309.215 343.676 249.743C359.364 179.332 275.518 164.039 243.824 208.537C228.56 229.99 236.934 255.796 260.678 258.876C276.26 260.894 308.272 256.434 312.088 233.707C313.784 223.512 307.954 214.697 300.322 210.767C288.556 204.608 276.26 211.723 265.766 217.989C261.738 220.432 265.342 227.441 269.264 224.998C272.126 223.299 274.988 221.6 278.062 220.219C290.358 214.591 298.414 212.042 302.124 228.715C305.304 243.052 299.58 242.84 290.252 246.663C288.238 247.513 286.224 248.044 284.104 248.575C278.062 250.38 271.702 251.23 265.554 251.123C252.622 250.805 241.81 237.636 244.778 222.449C248.064 205.882 269.052 196.324 281.666 192.926C296.506 188.996 314.42 189.952 326.292 202.165C356.078 232.751 328.2 279.904 299.156 292.541C274.776 303.161 237.464 306.985 217.218 284.364C199.092 264.186 196.548 228.184 207.784 202.909C220.822 173.491 249.124 157.774 276.26 154.375C304.88 150.764 336.468 159.154 357.562 183.049C383.744 212.785 379.928 253.354 359.47 285.32C328.73 333.11 271.172 362.315 221.776 337.995C170.366 312.613 143.442 239.548 175.03 182.2C207.042 124.002 277.85 105.098 333.182 116.462C388.938 127.931 425.932 182.837 421.586 249.318C417.452 311.976 374.416 362.74 325.02 381.537C271.172 402.034 195.276 392.263 151.286 347.659C108.356 304.011 102.738 230.096 127.224 172.748C152.876 112.532 205.664 76.1059 260.678 63.7867C315.798 51.4675 378.868 60.0697 420.738 107.647C440.454 130.162 454.658 160.535 456.566 193.032C458.686 227.547 448.51 262.274 438.97 294.453C429.218 327.587 416.074 358.173 392.436 380.687C369.01 402.989 339.86 416.264 310.922 425.398C258.452 441.965 185.206 451.417 138.142 412.123C97.7562 378.351 79.3122 316.224 64.8962 263.23C47.3002 197.917 82.5982 130.799 122.454 87.2569C163.37 42.5467 216.688 16.9525 272.232 11.5363C328.624 6.0139 407.806 14.5099 443.21 72.6013C460.064 100.107 477.342 130.905 480.734 165.102C481.264 170.199 488.26 170.305 487.73 165.102C483.808 126.339 464.198 90.0181 443.846 59.8573Z" fill="#F2F6FF" stroke="#F2F6FF" stroke-width="2.99851" stroke-miterlimit="10"/>
<g opacity="0.68">
<path opacity="0.47" d="M450.475 216.47C448.481 196.691 438.894 176.883 422.293 162.724C396.42 140.662 357.281 135.101 322.979 140.201C308.614 142.338 294.365 146.121 279.655 144.928C258.202 143.194 239.299 131.281 219.766 122.559C193.175 110.675 162.692 104.28 134.422 109.453C102.371 115.315 76.0875 137.457 72.9505 166.836C71.5286 180.146 85.9675 203.599 81.4086 216.214C76.7838 229.012 43.0391 268.203 43.8746 298.014C44.7029 327.716 52.472 336.95 63.4589 352.046H422.088C428.926 336.752 434.284 324.518 426.28 304.432C419.882 288.385 437.26 275.17 443.988 260.228C449.976 246.932 451.941 230.943 450.482 216.462L450.475 216.47Z" fill="#9FBFFF"/>
</g>
<path opacity="0.41" d="M5.74764 219.455C-1.09072 206.087 4.22312 189.718 17.614 182.89C31.0049 176.063 56.7018 176.627 63.5402 189.996C70.3785 203.364 49.7682 214.78 41.3467 227.212C29.6049 244.554 12.586 232.824 5.74764 219.455Z" fill="#9FBFFF"/>
<path opacity="0.41" d="M475.88 271.196C482.433 278.28 482.961 288.429 477.068 293.851C471.175 299.281 457 301.703 450.447 294.619C443.895 287.536 452.778 278.646 454.772 270.472C457.557 259.072 469.328 264.106 475.88 271.196Z" fill="#9FBFFF"/>
<path opacity="0.41" d="M420.741 111.744C428.342 107.741 437.753 110.646 441.762 118.227C445.771 125.815 445.654 140.479 438.053 144.482C430.453 148.484 423.761 136.82 416.578 132.108C406.559 125.544 413.141 115.746 420.741 111.744Z" fill="#9FBFFF"/>
<g opacity="0.43">
<path d="M410.912 334.55C414.408 317.208 408.801 302.405 407.409 285.399C406.089 269.294 411.814 255.757 414.995 240.42C417.824 226.773 416.878 211.311 413.331 197.898C408.486 179.583 397.316 162.621 381.235 152.282C356.176 136.169 322.746 138.072 295.063 149.15C283.468 153.789 272.239 159.965 259.816 161.531C241.705 163.807 224.078 156.014 206.428 151.338C182.41 144.972 156.046 144.504 133.383 154.55C107.686 165.944 89.4213 191.657 91.5542 219.975C92.5217 232.81 97.469 245.469 95.7173 258.215C93.9436 271.145 86.2477 281.96 82.1725 294.136C76.6168 310.754 76.1111 335.179 85.0457 352.046H404.895C407.65 346.529 409.688 340.623 410.912 334.55Z" fill="#9FBFFF"/>
</g>
<g opacity="0.47">
<path d="M351.434 280.204C350.415 269.725 345.504 259.225 336.995 251.725C323.736 240.039 303.69 237.09 286.114 239.79C278.755 240.924 271.455 242.929 263.913 242.293C252.919 241.371 243.237 235.063 233.232 230.438C219.607 224.145 203.995 220.758 189.505 223.494C173.079 226.597 159.615 238.334 158.01 253.898C157.284 260.952 164.68 273.377 162.342 280.065C159.974 286.848 142.684 307.615 143.109 323.405C143.534 339.145 147.514 344.04 153.143 352.038H336.877C340.381 343.931 343.129 337.455 339.025 326.808C335.749 318.305 344.654 311.302 348.099 303.385C351.162 296.339 352.174 287.872 351.426 280.196L351.434 280.204Z" fill="#9FBFFF"/>
</g>
<path d="M500.785 354.344H24.2772C23.6395 354.344 23.1191 353.824 23.1191 353.187C23.1191 352.551 23.6395 352.031 24.2772 352.031H500.785C501.423 352.031 501.943 352.551 501.943 353.187C501.943 353.824 501.423 354.344 500.785 354.344Z" fill="#9FBFFF"/>
<path d="M482.609 248.139C484.43 248.139 485.907 246.665 485.907 244.847C485.907 243.028 484.43 241.554 482.609 241.554C480.787 241.554 479.311 243.028 479.311 244.847C479.311 246.665 480.787 248.139 482.609 248.139Z" fill="#17014C"/>
<path d="M459.153 338.875C460.57 338.875 461.718 337.728 461.718 336.314C461.718 334.899 460.57 333.752 459.153 333.752C457.736 333.752 456.588 334.899 456.588 336.314C456.588 337.728 457.736 338.875 459.153 338.875Z" fill="#1A73E8"/>
<path d="M61.1654 133.988C62.987 133.988 64.4637 132.514 64.4637 130.696C64.4637 128.877 62.987 127.403 61.1654 127.403C59.3439 127.403 57.8672 128.877 57.8672 130.696C57.8672 132.514 59.3439 133.988 61.1654 133.988Z" fill="#1A73E8"/>
<path d="M30.1261 326.75C30.1261 328.681 28.5576 330.247 26.6226 330.247C24.6876 330.247 23.1191 328.681 23.1191 326.75C23.1191 324.818 24.6876 323.252 26.6226 323.252C28.5576 323.252 30.1261 324.818 30.1261 326.75Z" fill="#17014C"/>
<path d="M39.91 147.891C40.5172 147.891 41.0094 147.4 41.0094 146.794C41.0094 146.188 40.5172 145.696 39.91 145.696C39.3028 145.696 38.8105 146.188 38.8105 146.794C38.8105 147.4 39.3028 147.891 39.91 147.891Z" fill="#17014C"/>
<path d="M320.999 104.317C319.98 109.066 315.304 112.095 310.547 111.078C305.791 110.061 302.756 105.392 303.775 100.643C304.794 95.8945 309.47 92.8651 314.227 93.8822C318.984 94.8993 322.018 99.5678 320.999 104.317Z" fill="#1A73E8"/>
<path d="M459.894 117.488C459.586 118.929 458.164 119.851 456.72 119.544C455.276 119.237 454.353 117.817 454.661 116.376C454.969 114.934 456.391 114.012 457.834 114.319C459.278 114.627 460.202 116.046 459.894 117.488Z" fill="#FFB54A"/>
<path d="M115.505 100.497C115.197 101.939 113.776 102.861 112.332 102.553C110.888 102.246 109.964 100.826 110.272 99.3848C110.58 97.9433 112.002 97.0213 113.446 97.3286C114.89 97.636 115.813 99.0555 115.505 100.497Z" fill="#FFB54A"/>
<path d="M481.925 177.593C481.617 179.034 480.195 179.956 478.752 179.649C477.308 179.342 476.384 177.922 476.692 176.481C477 175.039 478.422 174.117 479.866 174.424C481.31 174.732 482.233 176.151 481.925 177.593Z" fill="#1A73E8"/>
<path d="M289.419 112.68C289.177 113.814 288.063 114.531 286.927 114.29C285.791 114.049 285.073 112.936 285.314 111.802C285.556 110.668 286.67 109.951 287.806 110.192C288.942 110.434 289.661 111.546 289.419 112.68Z" fill="#17014C"/>
<path d="M255.784 197.65C279.048 197.65 297.907 178.822 297.907 155.597C297.907 132.372 279.048 113.544 255.784 113.544C232.521 113.544 213.662 132.372 213.662 155.597C213.662 178.822 232.521 197.65 255.784 197.65Z" fill="#1B1B25"/>
<path d="M251.343 193.215C274.606 193.215 293.465 174.387 293.465 151.162C293.465 127.937 274.606 109.109 251.343 109.109C228.079 109.109 209.221 127.937 209.221 151.162C209.221 174.387 228.079 193.215 251.343 193.215Z" fill="#FFB54A"/>
<path d="M251.344 185.115C232.639 185.115 217.416 169.924 217.416 151.243C217.416 132.561 232.632 117.371 251.344 117.371C270.056 117.371 285.272 132.561 285.272 151.243C285.272 169.924 270.056 185.115 251.344 185.115ZM251.344 119.573C233.849 119.573 219.615 133.783 219.615 151.25C219.615 168.716 233.849 182.927 251.344 182.927C268.839 182.927 283.073 168.716 283.073 151.25C283.073 133.783 268.839 119.573 251.344 119.573Z" fill="#FCF0E3"/>
<path d="M248.866 166.426C246.747 166.163 244.71 165.636 242.738 164.839C240.767 164.041 238.971 163.024 237.344 161.795L241.155 156.241C242.489 157.25 243.786 158.085 245.04 158.751C246.293 159.416 247.649 159.899 249.115 160.185V152.436C247.356 151.945 245.817 151.411 244.505 150.826C243.185 150.24 242.093 149.545 241.236 148.733C240.371 147.921 239.726 146.97 239.286 145.879C238.846 144.789 238.626 143.53 238.626 142.104V142.008C238.626 140.647 238.868 139.411 239.359 138.306C239.85 137.201 240.539 136.242 241.434 135.43C242.328 134.618 243.413 133.959 244.681 133.454C245.949 132.95 247.348 132.62 248.88 132.452V129.627H253.96V132.554C255.719 132.818 257.338 133.242 258.819 133.85C260.3 134.45 261.707 135.225 263.041 136.162L259.772 141.862C258.797 141.211 257.8 140.633 256.796 140.135C255.785 139.63 254.758 139.25 253.718 138.986V146.348C257.426 147.357 260.124 148.675 261.795 150.299C263.473 151.923 264.309 154.104 264.309 156.833V156.928C264.309 158.297 264.06 159.526 263.554 160.631C263.048 161.736 262.352 162.695 261.45 163.507C260.556 164.319 259.471 164.985 258.203 165.504C256.935 166.024 255.521 166.368 253.96 166.529V171.351H248.88V166.426H248.866ZM249.107 138.547C247.935 138.708 247.085 139.06 246.542 139.594C246.007 140.128 245.736 140.786 245.736 141.569V141.664C245.736 142.411 245.963 143.055 246.418 143.589C246.872 144.123 247.766 144.635 249.1 145.126V138.547H249.107ZM253.696 160.434C256.004 160.075 257.163 159.036 257.163 157.316V157.221C257.163 156.38 256.921 155.685 256.43 155.15C255.939 154.616 255.03 154.104 253.696 153.614V160.441V160.434Z" fill="#1B1B25"/>
<path d="M255.784 197.65C279.048 197.65 297.907 178.822 297.907 155.597C297.907 132.372 279.048 113.544 255.784 113.544C232.521 113.544 213.662 132.372 213.662 155.597C213.662 178.822 232.521 197.65 255.784 197.65Z" fill="#1B1B25"/>
<path d="M251.343 193.215C274.606 193.215 293.465 174.387 293.465 151.162C293.465 127.937 274.606 109.109 251.343 109.109C228.079 109.109 209.221 127.937 209.221 151.162C209.221 174.387 228.079 193.215 251.343 193.215Z" fill="#FFB54A"/>
<path d="M251.344 185.115C232.639 185.115 217.416 169.924 217.416 151.243C217.416 132.561 232.632 117.371 251.344 117.371C270.056 117.371 285.272 132.561 285.272 151.243C285.272 169.924 270.056 185.115 251.344 185.115ZM251.344 119.573C233.849 119.573 219.615 133.783 219.615 151.25C219.615 168.716 233.849 182.927 251.344 182.927C268.839 182.927 283.073 168.716 283.073 151.25C283.073 133.783 268.839 119.573 251.344 119.573Z" fill="#FCF0E3"/>
<path d="M209.375 150.723C219.9 150.723 228.431 142.205 228.431 131.698C228.431 121.191 219.9 112.673 209.375 112.673C198.85 112.673 190.318 121.191 190.318 131.698C190.318 142.205 198.85 150.723 209.375 150.723Z" fill="#1B1B25"/>
<path d="M207.367 148.718C217.892 148.718 226.424 140.2 226.424 129.693C226.424 119.186 217.892 110.668 207.367 110.668C196.842 110.668 188.311 119.186 188.311 129.693C188.311 140.2 196.842 148.718 207.367 148.718Z" fill="#FFB54A"/>
<path d="M207.365 145.06C198.9 145.06 192.018 138.181 192.018 129.737C192.018 121.293 198.907 114.415 207.365 114.415C215.824 114.415 222.713 121.293 222.713 129.737C222.713 138.181 215.824 145.06 207.365 145.06ZM207.365 115.402C199.45 115.402 193.007 121.834 193.007 129.737C193.007 137.64 199.45 144.072 207.365 144.072C215.281 144.072 221.724 137.64 221.724 129.737C221.724 121.834 215.281 115.402 207.365 115.402Z" fill="#FCF0E3"/>
<path d="M185.839 163.865C185.839 159.299 182.131 155.604 177.564 155.604C182.138 155.604 185.839 151.901 185.839 147.342C185.839 151.908 189.548 155.604 194.114 155.604C189.541 155.604 185.839 159.306 185.839 163.865Z" fill="white"/>
<path d="M283.072 205.406C283.072 202.054 280.353 199.34 276.996 199.34C280.353 199.34 283.072 196.625 283.072 193.273C283.072 196.625 285.791 199.34 289.148 199.34C285.791 199.34 283.072 202.054 283.072 205.406Z" fill="white"/>
<path d="M243.339 234.631C243.339 228.47 238.333 223.472 232.162 223.472C238.333 223.472 243.339 218.475 243.339 212.313C243.339 218.475 248.345 223.472 254.517 223.472C248.345 223.472 243.339 228.47 243.339 234.631Z" fill="white"/>
<path d="M281.929 148.536C281.929 142.762 277.238 138.079 271.455 138.079C277.238 138.079 281.929 133.396 281.929 127.623C281.929 133.396 286.62 138.079 292.403 138.079C286.62 138.079 281.929 142.762 281.929 148.536Z" fill="#FCF0E3"/>
<path d="M316.94 155.597C316.94 152.414 314.352 149.831 311.164 149.831C314.352 149.831 316.94 147.248 316.94 144.064C316.94 147.248 319.527 149.831 322.715 149.831C319.527 149.831 316.94 152.414 316.94 155.597Z" fill="white"/>
<path d="M139.9 136.352H75.5481C68.9296 136.352 63.5645 141.708 63.5645 148.316C63.5645 154.924 68.9296 160.28 75.5481 160.28H128.584L135.877 166.917V160.28H139.9C146.519 160.28 151.884 154.924 151.884 148.316C151.884 141.708 146.519 136.352 139.9 136.352Z" fill="#1A73E8"/>
<path d="M81.3524 146.669C82.188 145.974 82.723 144.928 82.723 143.75C82.723 141.657 81.0226 139.959 78.9264 139.959C76.8302 139.959 75.1298 141.657 75.1298 143.75C75.1298 144.921 75.6648 145.974 76.5003 146.669C73.8031 147.657 71.8828 150.233 71.8828 153.27C71.8828 157.155 85.9773 157.155 85.9773 153.27C85.9773 150.24 84.0497 147.657 81.3598 146.669H81.3524Z" fill="#FFB54A"/>
<path d="M140.706 142.784H94.5969C94.3917 142.784 94.2305 142.623 94.2305 142.418C94.2305 142.213 94.3917 142.052 94.5969 142.052H140.706C140.912 142.052 141.073 142.213 141.073 142.418C141.073 142.623 140.912 142.784 140.706 142.784Z" fill="white"/>
<path d="M133.553 153.584H94.5969C94.3917 153.584 94.2305 153.423 94.2305 153.218C94.2305 153.014 94.3917 152.853 94.5969 152.853H133.553C133.758 152.853 133.919 153.014 133.919 153.218C133.919 153.423 133.758 153.584 133.553 153.584Z" fill="white"/>
<path d="M122.939 148.528H94.5891C94.3839 148.528 94.2227 148.367 94.2227 148.162C94.2227 147.957 94.3839 147.796 94.5891 147.796H122.939C123.145 147.796 123.306 147.957 123.306 148.162C123.306 148.367 123.145 148.528 122.939 148.528Z" fill="white"/>
<path d="M140.706 148.528H126.48C126.275 148.528 126.113 148.367 126.113 148.162C126.113 147.957 126.275 147.796 126.48 147.796H140.706C140.911 147.796 141.073 147.957 141.073 148.162C141.073 148.367 140.911 148.528 140.706 148.528Z" fill="white"/>
<path d="M83.4836 152.172C83.2051 152.172 82.9192 152.063 82.7067 151.85L79.9435 149.092C79.511 148.66 79.511 147.965 79.9435 147.54C80.3759 147.109 81.0722 147.109 81.4973 147.54L83.4836 149.523L88.8121 144.204C89.2445 143.772 89.9408 143.772 90.3659 144.204C90.7983 144.635 90.7983 145.331 90.3659 145.755L84.2605 151.858C84.0479 152.07 83.7621 152.18 83.4836 152.18V152.172Z" fill="white"/>
<path d="M426.912 198.66H492.936C499.723 198.66 505.234 204.155 505.234 210.938C505.234 217.721 499.73 223.217 492.936 223.217H438.522L431.039 230.029V223.217H426.912C420.125 223.217 414.613 217.721 414.613 210.938C414.613 204.155 420.118 198.66 426.912 198.66Z" fill="#FFB54A"/>
<path d="M491.456 209.131C492.291 208.436 492.827 207.389 492.827 206.211C492.827 204.119 491.126 202.421 489.03 202.421C486.934 202.421 485.233 204.119 485.233 206.211C485.233 207.382 485.768 208.436 486.604 209.131C483.907 210.119 481.986 212.694 481.986 215.731C481.986 219.617 496.081 219.617 496.081 215.731C496.081 212.702 494.153 210.119 491.463 209.131H491.456Z" fill="#1A73E8"/>
<path d="M497.248 211.246H495.43V209.431C495.43 209.233 495.269 209.072 495.071 209.072H493.407C493.209 209.072 493.048 209.233 493.048 209.431V211.246H491.23C491.032 211.246 490.871 211.406 490.871 211.604V213.265C490.871 213.463 491.032 213.624 491.23 213.624H493.048V215.438C493.048 215.636 493.209 215.797 493.407 215.797H495.071C495.269 215.797 495.43 215.636 495.43 215.438V213.624H497.248C497.446 213.624 497.607 213.463 497.607 213.265V211.604C497.607 211.406 497.446 211.246 497.248 211.246Z" fill="white"/>
<path d="M476.216 205.984H430.107C429.901 205.984 429.74 205.823 429.74 205.618C429.74 205.413 429.901 205.252 430.107 205.252H476.216C476.421 205.252 476.583 205.413 476.583 205.618C476.583 205.823 476.421 205.984 476.216 205.984Z" fill="white"/>
<path d="M469.063 216.785H430.107C429.901 216.785 429.74 216.624 429.74 216.419C429.74 216.214 429.901 216.053 430.107 216.053H469.063C469.268 216.053 469.429 216.214 469.429 216.419C469.429 216.624 469.268 216.785 469.063 216.785Z" fill="white"/>
<path d="M458.457 211.721H430.107C429.901 211.721 429.74 211.56 429.74 211.356C429.74 211.151 429.901 210.99 430.107 210.99H458.457C458.662 210.99 458.823 211.151 458.823 211.356C458.823 211.56 458.662 211.721 458.457 211.721Z" fill="white"/>
<path d="M476.216 211.721H461.99C461.784 211.721 461.623 211.56 461.623 211.356C461.623 211.151 461.784 210.99 461.99 210.99H476.216C476.421 210.99 476.582 211.151 476.582 211.356C476.582 211.56 476.421 211.721 476.216 211.721Z" fill="white"/>
<path d="M343.92 127.9H389.399C394.075 127.9 397.872 131.683 397.872 136.359C397.872 141.035 394.083 144.818 389.399 144.818H343.92C339.244 144.818 335.447 141.035 335.447 136.359C335.447 131.683 339.237 127.9 343.92 127.9Z" fill="#1A73E8"/>
<path d="M384.269 133.572H349.007C348.802 133.572 348.641 133.411 348.641 133.206C348.641 133.001 348.802 132.84 349.007 132.84H384.269C384.474 132.84 384.635 133.001 384.635 133.206C384.635 133.411 384.474 133.572 384.269 133.572Z" fill="white"/>
<path d="M378.793 139.967H348.999C348.794 139.967 348.633 139.806 348.633 139.601C348.633 139.396 348.794 139.235 348.999 139.235H378.793C378.999 139.235 379.16 139.396 379.16 139.601C379.16 139.806 378.999 139.967 378.793 139.967Z" fill="white"/>
<path d="M370.68 136.974H348.999C348.794 136.974 348.633 136.813 348.633 136.608C348.633 136.403 348.794 136.242 348.999 136.242H370.68C370.885 136.242 371.046 136.403 371.046 136.608C371.046 136.813 370.885 136.974 370.68 136.974Z" fill="white"/>
<path d="M384.267 136.974H373.39C373.185 136.974 373.023 136.813 373.023 136.608C373.023 136.403 373.185 136.242 373.39 136.242H384.267C384.472 136.242 384.633 136.403 384.633 136.608C384.633 136.813 384.472 136.974 384.267 136.974Z" fill="white"/>
<path d="M35.6597 247.781H76.1034C80.2592 247.781 83.6381 251.147 83.6381 255.303C83.6381 259.459 80.2666 262.825 76.1034 262.825H35.6597C31.5039 262.825 28.125 259.459 28.125 255.303C28.125 251.147 31.4965 247.781 35.6597 247.781Z" fill="#FFB54A"/>
<path d="M71.5362 252.866H40.1809C39.9757 252.866 39.8145 252.705 39.8145 252.5C39.8145 252.295 39.9757 252.134 40.1809 252.134H71.5362C71.7415 252.134 71.9027 252.295 71.9027 252.5C71.9027 252.705 71.7415 252.866 71.5362 252.866Z" fill="white"/>
<path d="M66.6695 258.552H40.1809C39.9757 258.552 39.8145 258.391 39.8145 258.186C39.8145 257.981 39.9757 257.82 40.1809 257.82H66.6695C66.8747 257.82 67.036 257.981 67.036 258.186C67.036 258.391 66.8747 258.552 66.6695 258.552Z" fill="white"/>
<path d="M59.4573 255.888H40.1809C39.9757 255.888 39.8145 255.727 39.8145 255.522C39.8145 255.317 39.9757 255.156 40.1809 255.156H59.4573C59.6625 255.156 59.8238 255.317 59.8238 255.522C59.8238 255.727 59.6625 255.888 59.4573 255.888Z" fill="white"/>
<path d="M71.5355 255.888H61.8606C61.6554 255.888 61.4941 255.727 61.4941 255.522C61.4941 255.317 61.6554 255.156 61.8606 255.156H71.5355C71.7407 255.156 71.9019 255.317 71.9019 255.522C71.9019 255.727 71.7407 255.888 71.5355 255.888Z" fill="white"/>
<path d="M334.566 288.436H262.708C262.503 288.436 262.342 288.275 262.342 288.07C262.342 287.866 262.503 287.705 262.708 287.705H334.566C334.771 287.705 334.932 287.866 334.932 288.07C334.932 288.275 334.771 288.436 334.566 288.436Z" fill="white"/>
<path d="M334.566 305.266H273.857C273.651 305.266 273.49 305.105 273.49 304.901C273.49 304.696 273.651 304.535 273.857 304.535H334.566C334.772 304.535 334.933 304.696 334.933 304.901C334.933 305.105 334.772 305.266 334.566 305.266Z" fill="white"/>
<path d="M334.566 297.386H290.392C290.187 297.386 290.025 297.225 290.025 297.02C290.025 296.815 290.187 296.654 290.392 296.654H334.566C334.772 296.654 334.933 296.815 334.933 297.02C334.933 297.225 334.772 297.386 334.566 297.386Z" fill="white"/>
<path d="M284.88 297.386H262.708C262.503 297.386 262.342 297.225 262.342 297.02C262.342 296.815 262.503 296.654 262.708 296.654H284.88C285.085 296.654 285.246 296.815 285.246 297.02C285.246 297.225 285.085 297.386 284.88 297.386Z" fill="white"/>
<path d="M253.298 315.137H181.441C181.235 315.137 181.074 314.977 181.074 314.772C181.074 314.567 181.235 314.406 181.441 314.406H253.298C253.504 314.406 253.665 314.567 253.665 314.772C253.665 314.977 253.504 315.137 253.298 315.137Z" fill="white"/>
<path d="M242.15 331.968H181.441C181.235 331.968 181.074 331.807 181.074 331.602C181.074 331.397 181.235 331.236 181.441 331.236H242.15C242.356 331.236 242.517 331.397 242.517 331.602C242.517 331.807 242.356 331.968 242.15 331.968Z" fill="white"/>
<path d="M225.615 324.086H181.441C181.235 324.086 181.074 323.925 181.074 323.72C181.074 323.515 181.235 323.354 181.441 323.354H225.615C225.82 323.354 225.982 323.515 225.982 323.72C225.982 323.925 225.82 324.086 225.615 324.086Z" fill="white"/>
<path d="M253.298 324.086H231.126C230.921 324.086 230.76 323.925 230.76 323.72C230.76 323.515 230.921 323.354 231.126 323.354H253.298C253.503 323.354 253.664 323.515 253.664 323.72C253.664 323.925 253.503 324.086 253.298 324.086Z" fill="white"/>
<path d="M307.473 247.151L307.495 247.071L318.108 210.213L318.064 210.176C318.54 209.247 319.779 207.242 322.308 205.479C326.683 202.435 327.204 197.386 327.204 197.386C329.542 195.132 332.173 193.2 334.555 190.998C334.804 190.771 335.061 190.515 335.134 190.185C335.215 189.82 335.046 189.439 334.834 189.124C333.602 187.302 331.338 187.039 329.461 187.88C328.362 188.371 327.372 189.073 326.449 189.842C326.009 190.207 324.514 191.21 324.059 191.883L332.503 173.89C333.251 172.295 332.759 170.465 331.411 169.836C330.737 169.521 329.967 169.558 329.278 169.88C328.838 170.085 328.442 170.407 328.105 170.816C328.135 170.685 328.149 170.604 328.149 170.604C318.262 162.306 306.066 190.551 306.066 190.551L302.606 198.71L273.244 253.064C269.096 260.952 272.292 270.698 280.317 274.606C280.435 274.664 280.552 274.708 280.669 274.767C283.022 276.12 285.756 276.903 288.666 276.903H346.451L358.904 247.356L307.48 247.151H307.473Z" fill="#FEC29E"/>
<path opacity="0.17" d="M297.579 276.889C295.702 276.83 296.838 276.867 297.579 276.889V276.889Z" fill="#FF887C"/>
<path opacity="0.17" d="M297.586 276.889C297.85 276.896 298.062 276.904 298.062 276.904C297.886 276.904 297.733 276.896 297.586 276.889Z" fill="#FF887C"/>
<path opacity="0.17" d="M307.501 247.071L305.823 252.91C305.383 254.527 304.885 256.269 304.342 258.047L302.312 265.101C302.034 266.008 301.674 266.864 301.257 267.676C299.505 272.901 298.068 276.904 298.068 276.904L318.847 247.195C313.68 247.195 312.493 247.071 307.501 247.063V247.071Z" fill="#FF887C"/>
<path d="M315.865 193.727C315.792 193.727 315.711 193.705 315.645 193.654C315.484 193.537 315.448 193.303 315.565 193.142C319.252 188.151 324.214 190.844 324.258 190.874C324.433 190.976 324.499 191.196 324.397 191.371C324.302 191.547 324.074 191.613 323.898 191.51C323.715 191.408 319.449 189.11 316.151 193.574C316.078 193.669 315.968 193.72 315.858 193.72L315.865 193.727Z" fill="#FB8E77"/>
<path d="M328.316 170.751C326.792 172.668 325.377 174.68 324.117 176.78C323.494 177.826 322.922 178.909 322.453 180.022C321.984 181.127 321.61 182.312 321.669 183.424V183.446C321.683 183.651 321.529 183.819 321.324 183.834C321.119 183.849 320.95 183.688 320.936 183.49C320.936 183.49 320.936 183.49 320.936 183.483C320.899 182.122 321.346 180.907 321.845 179.766C322.358 178.624 322.959 177.534 323.618 176.48C324.938 174.38 326.396 172.382 327.979 170.48C328.053 170.385 328.192 170.377 328.287 170.451C328.382 170.524 328.39 170.663 328.316 170.751Z" fill="#FB8E77"/>
<path d="M325.775 169.704C324.808 170.37 323.943 171.248 323.166 172.163C322.389 173.085 321.707 174.087 321.091 175.126C320.49 176.173 319.955 177.263 319.508 178.383C319.266 178.939 319.091 179.517 318.878 180.08L318.35 181.814V181.836C318.284 182.027 318.079 182.136 317.889 182.078C317.698 182.019 317.588 181.814 317.647 181.624L318.218 179.861C318.446 179.283 318.643 178.697 318.893 178.134C319.376 176.992 319.941 175.887 320.578 174.826C321.231 173.773 321.949 172.755 322.763 171.819C323.591 170.89 324.47 170.019 325.533 169.309C325.636 169.243 325.782 169.265 325.848 169.375C325.914 169.477 325.892 169.616 325.79 169.69L325.775 169.704Z" fill="#FB8E77"/>
<path d="M321.773 169.989C320.373 171.453 319.061 173.041 317.932 174.724C317.375 175.572 316.84 176.436 316.423 177.343C315.997 178.251 315.653 179.195 315.499 180.153C315.47 180.358 315.279 180.497 315.081 180.468C314.883 180.438 314.744 180.248 314.773 180.051C314.773 180.051 314.773 180.051 314.773 180.043C314.971 178.982 315.367 177.994 315.829 177.058C316.291 176.121 316.862 175.25 317.456 174.394C318.651 172.704 320.007 171.145 321.473 169.682C321.553 169.601 321.692 169.601 321.773 169.682C321.854 169.762 321.854 169.894 321.773 169.982V169.989Z" fill="#FB8E77"/>
<path d="M440.839 300.817L426.664 262.24C424.978 253.773 416.909 247.356 407.204 247.356L367.611 247.042L323.004 247.21V276.896H336.849L329.703 354.336L427.932 354.892L427.382 302.456L440.839 300.809V300.817Z" fill="#1A73E8"/>
<path opacity="0.05" d="M367.538 247.378L367.619 247.049L323.012 247.217V276.904H336.857L336.93 276.121C336.93 260.454 350.578 247.722 367.545 247.378H367.538Z" fill="#1B1B25"/>
<path opacity="0.18" d="M311.166 204.411C311.166 204.411 313.673 225.638 313.819 225.133C313.966 224.621 318.114 210.213 318.114 210.213L311.166 204.411Z" fill="#FF887C"/>
<path d="M369.632 311.895L365.886 293.031L362.991 278.477C362.654 276.765 360.968 275.645 359.253 275.982L344.77 278.85C343.055 279.187 341.934 280.87 342.271 282.582L345.181 297.231L347.489 308.851L348.911 316C349.248 317.713 350.934 318.832 352.649 318.495L361.203 316.798L367.132 315.627C368.847 315.29 369.969 313.607 369.632 311.895Z" fill="#1B1B25"/>
<path d="M446.708 329.281L440.177 300.897L410.493 304.526L412.12 311.749L411.967 311.712L379.695 303.736L379.666 303.773C378.779 303.326 377.1 302.265 375.627 300.07C372.923 296.031 368.378 295.921 368.378 295.921C367.506 295.006 366.685 294.026 365.879 293.038L366.634 296.843L366.443 296.946C364.391 298.029 362.075 298.511 359.759 298.329C355.479 297.992 348.479 297.45 345.569 297.224C344.682 297.158 343.832 297.626 343.444 298.431C339.288 307.146 357.12 315.122 361.196 316.805C361.247 316.827 361.291 316.841 361.342 316.863C361.401 316.885 361.459 316.907 361.511 316.929C361.569 316.951 361.613 316.973 361.665 316.995C361.709 317.017 361.76 317.032 361.797 317.046C361.848 317.068 361.885 317.083 361.921 317.098C361.936 317.098 361.958 317.112 361.965 317.12C362.002 317.134 362.024 317.141 362.024 317.141L369.001 319.754L424.251 346.908C424.764 347.157 425.284 347.369 425.804 347.552C428.487 348.774 431.565 349.177 434.658 348.467C443.285 346.491 448.672 337.901 446.693 329.296L446.708 329.281Z" fill="#FEC29E"/>
<path opacity="0.17" d="M444.605 320.127L410.494 304.519C411.63 309.473 410.971 307.285 411.975 311.705L414.298 312.275C424.12 312.934 444.613 320.127 444.613 320.127H444.605Z" fill="#FF887C"/>
<path opacity="0.35" d="M407.739 304.885C407.57 304.885 407.416 304.768 407.38 304.593L403.114 283.98C403.07 283.782 403.202 283.585 403.4 283.548C403.59 283.504 403.796 283.636 403.832 283.833L408.025 304.11L422.376 302.288C422.574 302.258 422.757 302.405 422.786 302.602C422.815 302.8 422.669 302.983 422.471 303.012L407.783 304.878C407.783 304.878 407.754 304.878 407.739 304.878V304.885Z" fill="#1B1B25"/>
<path opacity="0.17" d="M444.832 321.306C444.861 321.445 444.883 321.554 444.891 321.598C444.891 321.569 444.869 321.474 444.832 321.306Z" fill="#FF887C"/>
<path opacity="0.17" d="M444.605 320.127C444.605 320.127 444.686 320.523 444.759 320.91C444.715 320.706 444.671 320.457 444.605 320.127Z" fill="#FF887C"/>
<path opacity="0.17" d="M444.76 320.91C444.789 321.071 444.818 321.203 444.84 321.298C444.818 321.181 444.789 321.049 444.76 320.91Z" fill="#FF887C"/>
<path d="M404.373 170.934C403.472 164.722 397.792 160.302 391.496 161.012C389.825 161.202 388.278 161.736 386.915 162.534C384.892 159.226 381.073 157.199 376.961 157.66C374.609 157.924 372.542 158.97 370.966 160.492C368.694 159.358 366.085 158.831 363.373 159.138C355.919 159.98 350.561 166.697 351.404 174.132C351.799 177.615 353.485 180.629 355.926 182.773L353.163 197.496C352.371 201.725 355.156 205.787 359.393 206.577L392.097 212.687C396.333 213.477 400.401 210.696 401.192 206.467L406.55 177.893C407.041 175.259 406.147 172.683 404.366 170.927L404.373 170.934Z" fill="#1B1B25"/>
<path d="M356.702 178.99C356.577 178.99 356.46 178.932 356.394 178.822C350.553 169.595 358.6 163.675 358.681 163.616C358.842 163.499 359.077 163.536 359.194 163.697C359.311 163.858 359.275 164.092 359.113 164.209C358.806 164.436 351.549 169.792 357.017 178.434C357.127 178.602 357.076 178.829 356.9 178.939C356.841 178.976 356.768 178.998 356.702 178.998V178.99Z" fill="#FCF0E3"/>
<path d="M399.083 199.793L398.365 199.661L391.146 184.171C389.372 183.914 387.701 183.263 386.264 182.283C384.879 183.783 382.973 184.815 380.789 185.056C378.158 185.356 375.666 184.456 373.856 182.802C371.84 184.566 369.297 185.766 366.431 186.088C363.155 186.461 360.018 185.627 357.467 183.958L352.439 210.777C351.743 214.479 352.505 218.116 354.301 221.116C356.089 225.528 359.93 228.997 364.877 230.131V247.846C364.877 254 369.92 259.034 376.084 259.034H379.617C385.781 259.034 390.823 254 390.823 247.846V227.738C392.641 225.748 393.953 223.253 394.488 220.406L395.404 215.511L396.122 215.643C400.366 216.433 404.493 213.616 405.284 209.379L405.365 208.947C406.156 204.71 403.335 200.591 399.091 199.8L399.083 199.793Z" fill="#FEC29E"/>
<path opacity="0.32" d="M393.733 214.882L393.08 218.372C391.57 226.436 383.801 231.741 375.724 230.234L364.312 228.097C359.951 227.285 356.404 224.636 354.293 221.109C356.155 225.704 360.237 229.29 365.478 230.27L365.932 230.358C367.742 234.112 371.59 236.724 376.017 236.724H379.594C384.879 236.724 389.335 233.014 390.493 228.075C392.479 226.026 393.901 223.407 394.466 220.399L395.382 215.504L393.718 214.882H393.733Z" fill="#FF887C"/>
<path d="M399.714 210.301C399.633 210.301 399.552 210.279 399.487 210.221L396.635 208.011C396.547 207.945 396.496 207.842 396.496 207.74C396.496 207.63 396.533 207.528 396.613 207.455L400.132 204.14C400.278 204.001 400.513 204.008 400.652 204.155C400.791 204.301 400.784 204.535 400.637 204.674L397.434 207.696L399.948 209.643C400.11 209.767 400.139 209.994 400.014 210.155C399.941 210.25 399.831 210.294 399.728 210.294L399.714 210.301Z" fill="#FB8E77"/>
<path d="M381.571 196.684C381.022 196.669 380.457 196.332 379.886 196.047C379.321 195.74 378.75 195.454 378.237 195.213C377.731 194.979 377.137 194.723 376.536 194.488C375.95 194.24 375.327 194.02 374.968 193.61C374.616 193.223 374.689 192.615 375.503 192.205C376.28 191.803 377.87 191.701 379.556 192.483C381.234 193.266 382.165 194.54 382.334 195.388C382.524 196.267 382.084 196.706 381.557 196.684H381.571Z" fill="#1B1B25"/>
<path d="M358.256 194.679C358.733 194.942 359.385 194.979 360.022 195.045C360.66 195.103 361.298 195.169 361.855 195.249C362.412 195.33 363.05 195.432 363.673 195.557C364.303 195.667 364.941 195.813 365.461 195.689C365.959 195.579 366.223 195.088 365.747 194.386C365.3 193.698 364.002 192.842 362.163 192.579C360.323 192.323 358.872 192.798 358.278 193.34C357.648 193.896 357.794 194.437 358.249 194.679H358.256Z" fill="#1B1B25"/>
<path d="M376.188 202.937L376.232 202.945C376.725 203.037 377.2 202.713 377.292 202.22L377.51 201.062C377.602 200.569 377.277 200.095 376.784 200.003L376.74 199.995C376.247 199.903 375.772 200.227 375.68 200.72L375.462 201.878C375.37 202.37 375.695 202.844 376.188 202.937Z" fill="#1B1B25"/>
<path d="M360.392 200.39L360.435 200.398C360.928 200.49 361.403 200.166 361.495 199.673L361.713 198.515C361.805 198.023 361.48 197.549 360.987 197.456L360.944 197.448C360.45 197.356 359.975 197.68 359.883 198.173L359.666 199.331C359.573 199.823 359.898 200.298 360.392 200.39Z" fill="#1B1B25"/>
<path opacity="0.17" d="M380.087 207.483L376.846 207.119C376.227 207.049 375.788 206.492 375.857 205.881L375.864 205.815C375.934 205.197 376.492 204.759 377.104 204.828L380.345 205.192C380.964 205.262 381.403 205.819 381.334 206.43L381.327 206.495C381.257 207.113 380.699 207.551 380.087 207.483Z" fill="#FF887C"/>
<path opacity="0.17" d="M358.696 204.12L355.455 203.756C354.836 203.686 354.397 203.129 354.466 202.518L354.473 202.453C354.543 201.835 355.101 201.397 355.713 201.465L358.954 201.829C359.573 201.899 360.012 202.456 359.943 203.067L359.937 203.125C359.867 203.743 359.309 204.181 358.697 204.113L358.696 204.12Z" fill="#FF887C"/>
<path d="M364.897 220.333C364.787 220.333 364.67 220.282 364.604 220.179C364.487 220.018 364.523 219.784 364.685 219.667C366.224 218.548 367.939 219.177 368.635 219.667C368.804 219.784 368.84 220.011 368.723 220.172C368.606 220.34 368.379 220.377 368.21 220.26C368.144 220.216 366.597 219.17 365.11 220.26C365.044 220.304 364.97 220.333 364.897 220.333Z" fill="#FB8E77"/>
<path d="M367.376 209.935L375.945 208.713L375.006 211.684C374.405 213.587 372.639 214.882 370.638 214.882C369.084 214.882 367.78 213.711 367.611 212.167L367.369 209.935H367.376Z" fill="white"/>
<path d="M369.597 206.899C369.597 206.899 369.539 206.899 369.502 206.884L366.841 206.196C365.713 205.903 364.804 205.121 364.349 204.052C363.895 202.984 363.954 201.784 364.518 200.774L368.564 193.501C368.666 193.325 368.886 193.259 369.062 193.362C369.238 193.457 369.304 193.684 369.201 193.859L365.156 201.133C364.701 201.952 364.65 202.911 365.024 203.774C365.39 204.63 366.123 205.26 367.032 205.494L369.693 206.182C369.89 206.233 370.008 206.43 369.956 206.628C369.912 206.796 369.766 206.899 369.605 206.899H369.597Z" fill="#FB8E77"/>
<path d="M245.129 259.509L215.767 205.156L212.308 196.997C212.308 196.997 200.112 168.745 190.224 177.05C190.224 177.05 190.239 177.131 190.268 177.262C189.931 176.853 189.535 176.531 189.095 176.326C188.407 176.004 187.637 175.967 186.963 176.282C185.614 176.911 185.123 178.733 185.871 180.336L194.314 198.329C193.86 197.663 192.364 196.653 191.925 196.288C191.001 195.519 190.019 194.817 188.912 194.326C187.029 193.485 184.771 193.748 183.54 195.57C183.327 195.885 183.159 196.258 183.239 196.631C183.313 196.961 183.569 197.217 183.818 197.444C186.2 199.646 188.839 201.578 191.17 203.832C191.17 203.832 191.69 208.881 196.066 211.925C198.594 213.688 199.833 215.686 200.31 216.622L200.266 216.659L210.901 253.597L195.369 253.802V283.349H229.723C232.64 283.349 235.374 282.566 237.726 281.205C237.836 281.154 237.953 281.103 238.063 281.052C246.082 277.144 249.285 267.398 245.136 259.509H245.129Z" fill="#FEC29E"/>
<path opacity="0.17" d="M220.305 283.349C220.305 283.349 212.324 261.91 210.953 253.509C205.661 253.509 204.862 253.743 199.57 253.743L220.305 283.342V283.349Z" fill="#FF887C"/>
<path d="M202.5 200.173C202.39 200.173 202.28 200.122 202.207 200.027C198.909 195.563 194.643 197.861 194.46 197.963C194.284 198.058 194.064 198 193.961 197.824C193.866 197.649 193.925 197.429 194.101 197.327C194.152 197.297 199.107 194.605 202.793 199.595C202.911 199.756 202.881 199.99 202.713 200.107C202.647 200.158 202.573 200.18 202.493 200.18L202.5 200.173Z" fill="#FB8E77"/>
<path d="M190.371 176.896C191.258 177.782 192.071 178.726 192.841 179.706C193.603 180.687 194.321 181.711 194.966 182.787C195.597 183.87 196.161 184.989 196.608 186.167C197.033 187.353 197.334 188.597 197.429 189.877C197.444 190.082 197.297 190.258 197.092 190.272C196.887 190.287 196.711 190.141 196.696 189.936V189.921C196.623 188.728 196.366 187.55 195.985 186.402C195.575 185.26 195.054 184.155 194.461 183.087C193.852 182.026 193.171 181.009 192.438 180.021C191.697 179.04 190.913 178.089 190.07 177.211C189.99 177.116 189.99 176.984 190.07 176.896C190.158 176.816 190.29 176.816 190.378 176.896H190.371Z" fill="#FB8E77"/>
<path d="M192.849 175.492C194.043 176.106 194.923 177.028 195.736 177.994C196.543 178.967 197.239 180.028 197.84 181.126C198.463 182.223 198.976 183.365 199.467 184.521L200.134 186.277L200.728 188.063C200.794 188.253 200.684 188.465 200.493 188.524C200.303 188.59 200.09 188.48 200.031 188.29V188.275L199.474 186.511L198.851 184.77C198.39 183.628 197.913 182.494 197.32 181.411C196.755 180.321 196.088 179.282 195.326 178.323C194.571 177.379 193.684 176.457 192.665 175.909L192.629 175.887C192.519 175.828 192.475 175.689 192.541 175.579C192.599 175.47 192.731 175.433 192.841 175.484L192.849 175.492Z" fill="#FB8E77"/>
<path d="M196.871 176.113C197.691 176.779 198.424 177.511 199.106 178.294C199.795 179.077 200.425 179.904 200.99 180.774C201.561 181.645 202.074 182.553 202.5 183.511C202.947 184.455 203.276 185.45 203.584 186.453C203.643 186.643 203.533 186.848 203.342 186.906C203.152 186.965 202.947 186.855 202.888 186.658V186.636C202.617 185.67 202.324 184.697 201.913 183.775C201.525 182.845 201.048 181.945 200.513 181.089C199.986 180.226 199.392 179.399 198.74 178.623C198.095 177.847 197.384 177.101 196.621 176.457H196.614C196.526 176.377 196.511 176.238 196.592 176.15C196.665 176.062 196.797 176.047 196.885 176.121L196.871 176.113Z" fill="#FB8E77"/>
<path opacity="0.18" d="M198.932 214.566L210.278 213.168L203.263 227.101C203.263 227.101 201.174 216.739 198.932 214.566Z" fill="#FF887C"/>
<path d="M153.335 253.802V253.817C153.16 253.817 152.991 253.802 152.815 253.802H116.96C109.176 253.802 102.535 258.683 99.9333 265.539L99.882 265.685C99.8746 265.707 99.8673 265.729 99.8526 265.759L84.6074 307.255L98.7605 308.982V355.067H175.8L181.561 283.342H194.959V253.656L153.335 253.802Z" fill="white"/>
<path opacity="0.05" d="M195.363 253.656L154.436 253.824C169.783 254.468 182.024 267.083 182.024 282.559L181.958 283.342H195.356V253.656H195.363Z" fill="#1B1B25"/>
<path d="M181.062 285.296L166.579 282.427C164.864 282.091 163.185 283.21 162.841 284.923L159.946 299.477L156.2 318.341C155.863 320.053 156.985 321.729 158.7 322.073L164.629 323.244L173.183 324.941C174.898 325.278 176.576 324.158 176.921 322.446L178.343 315.297L180.651 303.677L183.561 289.028C183.898 287.315 182.777 285.64 181.062 285.296Z" fill="#1B1B25"/>
<path d="M182.579 304.724C182.396 304.344 182.11 304.044 181.765 303.839C181.707 303.751 181.655 303.656 181.589 303.568C181.589 303.568 181.458 303.583 181.245 303.612C180.996 303.539 180.725 303.502 180.461 303.524C177.551 303.751 170.551 304.292 166.271 304.629C163.955 304.812 161.639 304.329 159.587 303.246L159.242 303.063L159.953 299.485C159.183 300.421 158.406 301.351 157.586 302.222C157.168 302.243 154.778 302.456 152.543 304.117C151.715 304.702 150.901 305.478 150.205 306.51C149.333 307.812 148.387 308.712 147.581 309.319C147.105 309.663 146.687 309.905 146.372 310.058L146.342 310.022L114.071 317.998L113.924 318.034L115.559 310.783L85.8598 307.19L79.3293 335.574C77.3503 344.187 82.7375 352.77 91.3642 354.746C94.4572 355.455 97.5429 355.053 100.218 353.831C100.739 353.648 101.259 353.428 101.772 353.187L156.398 326.34L163.801 323.566C163.801 323.566 164.101 323.449 164.622 323.237L164.512 323.215C167.891 321.839 186.837 313.666 182.572 304.709L182.579 304.724Z" fill="#FEC29E"/>
<path opacity="0.17" d="M81.0079 327.723C80.9785 327.876 80.9565 327.971 80.9492 328.015C80.9565 327.964 80.9785 327.854 81.0079 327.723Z" fill="#FF887C"/>
<path opacity="0.17" d="M113.867 318.151C114.534 315.078 114.343 315.342 115.355 310.937L81.2363 326.581C81.2363 326.581 84.6152 325.564 89.284 324.327C89.7165 324.166 90.1562 324.027 90.6107 323.903L113.867 318.159V318.151Z" fill="#FF887C"/>
<path opacity="0.17" d="M81.0962 327.306C81.0669 327.452 81.0376 327.598 81.0156 327.723C81.0376 327.613 81.0669 327.474 81.0962 327.306Z" fill="#FF887C"/>
<path opacity="0.17" d="M80.9568 328.015C80.9493 328.06 80.9493 328.06 80.9568 328.015V328.015Z" fill="#FF887C"/>
<path opacity="0.17" d="M81.2423 326.574C81.1837 326.874 81.1397 327.101 81.0957 327.305C81.169 326.94 81.2423 326.574 81.2423 326.574Z" fill="#FF887C"/>
<path opacity="0.35" d="M118.11 311.295C118.11 311.295 118.08 311.295 118.066 311.295L111.586 310.497C111.389 310.475 111.242 310.293 111.271 310.088C111.293 309.89 111.484 309.744 111.682 309.773L117.809 310.527L121.217 288.801C121.247 288.604 121.437 288.465 121.635 288.494C121.833 288.523 121.972 288.714 121.943 288.911L118.476 310.988C118.447 311.171 118.293 311.295 118.117 311.295H118.11Z" fill="#1B1B25"/>
<path opacity="0.08" d="M125.674 315.106L140.303 314.741C143.03 315.099 147.376 312.641 146.871 309.94L125.674 315.106Z" fill="#FF887C"/>
<path d="M171.819 244.458L166.843 210.659C166.3 206.957 165.223 203.466 163.706 200.239L166.403 199.808C166.403 199.808 164.505 172.375 133.692 178.924C130.657 178.609 127.535 178.66 124.376 179.129C109.402 181.324 99.0527 195.22 101.252 210.169L104.154 229.867C106.353 244.817 120.271 255.149 135.245 252.954L169.195 247.97C170.896 247.722 172.069 246.148 171.819 244.451V244.458Z" fill="#1B1B25"/>
<path d="M151.378 198.732C151.195 198.732 151.041 198.6 151.012 198.417C150.982 198.22 151.122 198.029 151.327 198.007L161.236 196.654C161.317 196.646 161.39 196.603 161.434 196.537C161.463 196.5 161.5 196.427 161.485 196.324C159.88 187.405 151.657 183.292 151.569 183.248C151.386 183.161 151.312 182.941 151.4 182.758C151.488 182.575 151.708 182.502 151.891 182.59C151.979 182.634 160.533 186.9 162.204 196.193C162.255 196.463 162.189 196.734 162.028 196.961C161.867 197.188 161.61 197.342 161.339 197.378L151.429 198.732C151.429 198.732 151.393 198.732 151.378 198.732Z" fill="#FCF0E3"/>
<path d="M160.92 200.685L133.793 205.039L127.211 195.314C128.501 206.158 120.49 213.168 120.49 213.168C120.49 213.168 120.41 213.059 120.263 212.854L120.036 212.898C115.792 213.688 112.97 217.808 113.762 222.044C114.554 226.281 118.68 229.098 122.924 228.308L123.444 228.213C124.375 232.274 126.464 235.801 129.315 238.472V255.828C129.315 261.982 134.358 267.017 140.522 267.017C146.686 267.017 151.728 261.982 151.728 255.828V242.123C156.192 240.074 159.688 236.489 161.682 232.157C161.682 232.157 161.689 232.142 161.696 232.135C164.122 228.081 165.134 223.164 164.196 218.151L160.92 200.685Z" fill="#FEC29E"/>
<path opacity="0.32" d="M148.122 241.589C138.073 243.47 128.369 237.535 125.291 228.074C125.188 227.767 123.422 228.169 123.466 228.359C124.418 232.384 126.529 235.867 129.373 238.516C129.901 244.187 134.709 248.672 140.529 248.672C144.831 248.672 148.576 246.214 150.453 242.643C155.532 240.718 159.519 236.877 161.696 232.128C158.837 236.906 154.029 240.477 148.122 241.582V241.589Z" fill="#FF887C"/>
<path d="M119.224 223.164C119.114 223.164 119.004 223.113 118.931 223.025C118.806 222.864 118.835 222.637 118.997 222.513L121.437 220.625L118.33 217.698C118.183 217.559 118.176 217.325 118.315 217.178C118.454 217.032 118.689 217.025 118.835 217.164L122.258 220.391C122.339 220.464 122.375 220.566 122.375 220.676C122.375 220.786 122.317 220.881 122.236 220.947L119.458 223.098C119.392 223.149 119.312 223.179 119.231 223.179L119.224 223.164Z" fill="#FB8E77"/>
<path d="M138.742 209.824C139.072 209.817 139.409 209.619 139.739 209.443C140.076 209.261 140.413 209.092 140.714 208.946C141.014 208.807 141.366 208.653 141.725 208.514C142.077 208.368 142.443 208.236 142.656 207.995C142.861 207.768 142.825 207.402 142.334 207.16C141.872 206.919 140.926 206.86 139.929 207.321C138.933 207.79 138.383 208.543 138.28 209.048C138.163 209.568 138.427 209.831 138.742 209.817V209.824Z" fill="#1B1B25"/>
<path d="M158.18 206.444C157.864 206.524 157.483 206.429 157.117 206.356C156.743 206.275 156.369 206.202 156.039 206.151C155.71 206.1 155.328 206.056 154.955 206.019C154.581 205.975 154.185 205.953 153.914 205.778C153.65 205.617 153.591 205.258 153.987 204.885C154.368 204.526 155.255 204.212 156.347 204.38C157.432 204.556 158.172 205.127 158.407 205.58C158.663 206.048 158.48 206.37 158.18 206.444Z" fill="#1B1B25"/>
<path d="M147.2 224.964C144.195 224.964 142.187 222.608 142.165 222.579C142.033 222.425 142.055 222.191 142.209 222.066C142.363 221.935 142.597 221.957 142.722 222.11C142.839 222.249 145.617 225.491 149.502 223.698C149.685 223.61 149.905 223.698 149.985 223.874C150.073 224.057 149.985 224.276 149.809 224.357C148.879 224.789 147.999 224.957 147.193 224.957L147.2 224.964Z" fill="#FB8E77"/>
<path d="M149.383 219.856C149.215 219.856 149.061 219.732 149.024 219.564C148.987 219.366 149.112 219.176 149.31 219.132L151.89 218.627C153.495 218.312 154.536 216.754 154.221 215.159C154.103 214.58 153.546 214.207 152.967 214.317C151.611 214.581 150.292 213.702 150.028 212.349L149.405 209.195C149.368 208.997 149.493 208.807 149.691 208.763C149.889 208.727 150.079 208.851 150.123 209.049L150.746 212.202C150.937 213.161 151.868 213.783 152.828 213.593C153.304 213.498 153.781 213.593 154.184 213.863C154.587 214.134 154.858 214.537 154.946 215.012C155.342 217.01 154.037 218.949 152.036 219.344L149.456 219.849C149.456 219.849 149.405 219.849 149.383 219.849V219.856Z" fill="#FB8E77"/>
<path d="M142.084 215.993C141.593 216.088 141.116 215.759 141.028 215.268L140.823 214.185C140.728 213.695 141.058 213.219 141.549 213.132C142.04 213.036 142.516 213.366 142.604 213.856L142.809 214.939C142.905 215.429 142.575 215.905 142.084 215.993Z" fill="#1B1B25"/>
<path d="M157.453 213.505C156.962 213.6 156.485 213.271 156.397 212.78L156.192 211.698C156.097 211.207 156.427 210.732 156.918 210.644C157.409 210.549 157.885 210.878 157.973 211.368L158.178 212.451C158.274 212.941 157.944 213.417 157.453 213.505Z" fill="#1B1B25"/>
<path opacity="0.17" d="M141.446 220.076L138.353 220.42C137.737 220.486 137.18 220.046 137.114 219.432C137.048 218.817 137.488 218.261 138.103 218.195L141.196 217.851C141.812 217.785 142.369 218.224 142.435 218.839C142.501 219.454 142.061 220.01 141.446 220.076Z" fill="#FF887C"/>
<path opacity="0.17" d="M162.254 216.805L159.161 217.149C158.546 217.215 157.989 216.776 157.923 216.161C157.857 215.547 158.296 214.991 158.912 214.925L162.005 214.581C162.621 214.515 163.178 214.954 163.244 215.569C163.31 216.183 162.87 216.739 162.254 216.805Z" fill="#FF887C"/>
<path d="M153.084 232.925C153.011 232.925 152.93 232.903 152.871 232.852C151.428 231.798 149.932 232.815 149.866 232.852C149.698 232.969 149.471 232.925 149.353 232.764C149.236 232.596 149.28 232.369 149.441 232.252C150.123 231.776 151.801 231.162 153.297 232.252C153.458 232.369 153.494 232.603 153.377 232.764C153.304 232.859 153.194 232.918 153.084 232.918V232.925Z" fill="#FB8E77"/>
</g>
<defs>
<clipPath id="clip0_409_6011">
<rect width="508" height="448" fill="white" transform="translate(0 0.390625)"/>
</clipPath>
</defs>
</svg>
