<svg width="355" height="361" viewBox="0 0 355 361" fill="none" xmlns="http://www.w3.org/2000/svg">
<path d="M317.182 48.6465C298.597 21.2506 268.333 12.3172 239.943 6.70194C181.46 -4.95404 119.481 7.97815 71.3988 49.7525C33.0351 83.189 -8.31251 145.893 5.07217 205.194C16.9223 257.433 38.9175 323.37 84.2719 346.682C111.553 360.72 144.631 360.125 173.702 356.126C202.262 352.212 231.162 343.364 256.823 327.709C282.655 311.884 301.155 288.572 312.579 257.348C323.917 226.379 335.256 189.369 333.21 155.252C329.373 92.718 280.268 51.2839 230.48 43.0312C175.833 34.0127 113.173 54.517 76.1729 104.034C43.2654 148.105 33.2056 213.702 62.703 263.644C93.4792 315.883 163.813 330.092 213.686 315.798C260.66 302.27 302.348 256.667 305.162 198.132C308.06 137.555 270.634 92.2075 220.165 86.1668C169.269 80.041 103.71 103.098 87.0853 166.227C73.1891 218.807 109.08 274.364 153.668 283.383C198.255 292.401 252.561 257.603 266.627 206.045C284.019 142.575 216.669 109.309 173.446 119.263C151.281 124.368 128.944 139.852 120.334 165.291C113.428 185.54 115.304 210.894 127.154 228.251C153.668 266.962 225.962 248.415 236.619 200.77C249.236 144.362 181.801 132.11 156.31 167.759C144.034 184.945 150.769 205.619 169.866 208.087C182.398 209.703 208.144 206.13 211.213 187.923C212.577 179.755 207.888 172.693 201.75 169.545C192.287 164.611 182.398 170.311 173.958 175.331C170.718 177.288 173.617 182.903 176.771 180.946C179.073 179.585 181.375 178.224 183.847 177.117C193.736 172.608 200.216 170.566 203.199 183.924C205.757 195.41 201.153 195.24 193.651 198.302C192.031 198.983 190.412 199.408 188.706 199.834C183.847 201.28 178.732 201.961 173.787 201.876C163.386 201.621 154.691 191.071 157.078 178.904C159.721 165.632 176.601 157.974 186.746 155.252C198.681 152.104 213.089 152.87 222.637 162.654C246.593 187.157 224.172 224.933 200.812 235.057C181.204 243.565 151.195 246.628 134.912 228.506C120.334 212.341 118.288 183.498 127.325 163.249C137.811 139.682 160.573 127.09 182.398 124.368C205.416 121.475 230.821 128.196 247.787 147.339C268.844 171.162 265.775 203.662 249.321 229.272C224.598 267.558 178.306 290.955 138.578 271.471C97.2303 251.137 75.5762 192.602 100.981 146.659C126.728 100.035 183.677 84.8906 228.179 93.9942C273.021 103.183 302.775 147.169 299.279 200.429C295.954 250.627 261.342 291.295 221.614 306.354C178.306 322.775 117.265 314.947 81.8849 279.214C47.3575 244.246 42.8391 185.03 62.5325 139.087C83.1636 90.8462 125.619 61.6637 169.866 51.7944C214.197 41.9251 264.922 48.8166 298.597 86.9325C314.454 104.97 325.878 129.302 327.413 155.337C329.118 182.988 320.933 210.809 313.261 236.588C305.417 263.133 294.846 287.637 275.835 305.674C256.994 323.54 233.549 334.175 210.275 341.492C168.075 354.765 109.166 362.337 71.3135 330.857C38.8322 303.802 23.9983 254.03 12.4039 211.575C-1.74805 159.251 26.6411 105.48 58.6961 70.5971C91.6037 34.7784 134.486 14.2741 179.158 9.93499C224.513 5.51082 288.196 12.3172 316.671 58.8561C330.226 80.8918 344.122 105.565 346.85 132.961C347.277 137.045 352.903 137.13 352.477 132.961C349.323 101.907 333.551 72.8092 317.182 48.6465Z" fill="white" stroke="white" stroke-width="4.15702" stroke-miterlimit="10"/>
<g clip-path="url(#clip0_347_8569)">
<path d="M272.82 73.6254L269.943 72.5212L277.466 53.5287C277.835 52.6085 278.535 51.8724 279.494 51.4675C280.416 51.0626 281.448 51.0994 282.37 51.4675L282.518 51.5411C284.362 52.3141 285.247 54.3753 284.546 56.2156L282.481 61.6631L279.568 60.5957L281.633 55.1482C281.743 54.8538 281.633 54.5225 281.301 54.3753L281.153 54.3017C280.932 54.228 280.785 54.2649 280.674 54.3017C280.6 54.3017 280.416 54.4121 280.342 54.6329L272.82 73.6254Z" fill="#7FAFC6"/>
<path d="M277.14 84.3736C277.14 84.3736 277.103 84.484 277.066 84.5208C277.066 84.5208 277.066 84.5208 277.066 84.5576C276.735 85.1833 276.366 85.7722 275.997 86.3611C275.665 86.8028 275.333 87.2813 275.038 87.723C274.411 88.5696 273.784 89.3793 273.158 90.2259C272.678 90.8516 272.199 91.4405 271.719 92.0662C270.724 93.3177 269.101 97.8818 267.7 98.213C266.852 98.4339 265.893 97.4401 265.193 97.072C263.865 96.3727 262.427 95.8574 261.063 95.2685C259.735 94.7164 258.371 94.1274 257.264 93.2073C256.158 92.2871 255.31 90.9252 255.347 89.4897C255.384 88.2383 256.047 87.1341 256.748 86.0667C259.329 82.1283 262.611 78.7789 265.34 75.0245C266.446 73.5155 267.331 71.7855 268.806 70.6813C270.244 69.6139 271.351 68.2152 273.194 68.3993C274.448 68.5097 275.407 69.6875 276.034 70.939C277.656 74.0676 278.062 78.0427 277.62 81.9443C277.509 82.8277 277.509 83.6374 277.177 84.4104L277.14 84.3736Z" fill="#F7967C"/>
<path d="M277.142 84.3731C277.142 84.3731 277.105 84.4835 277.068 84.5204C277.068 84.5204 277.068 84.5203 277.068 84.5572C276.736 85.1829 276.367 85.7718 275.999 86.3607C275.667 86.8024 275.335 87.2809 275.04 87.7226C274.413 88.5691 273.786 89.3789 273.159 90.2255C272.127 89.4157 271.242 88.3483 270.578 87.06C269.693 85.2933 268.476 81.0973 270.246 79.8827C271.795 78.8152 273.749 80.6556 274.929 81.907C275.74 82.7168 276.552 83.4897 277.179 84.4099L277.142 84.3731Z" fill="#DB6357"/>
<path d="M290.852 64.6445C290.704 66.4481 290.151 68.0676 289.524 69.7607C288.897 71.3802 288.344 72.9998 288.824 74.7297C289.303 76.3492 290.225 77.8215 290.778 79.4042C290.962 79.8827 291.036 80.7293 290.852 81.2446C290.704 81.6494 290.188 81.723 289.746 81.723C289.192 81.723 288.676 81.723 288.123 81.723C287.791 81.723 287.422 81.723 287.127 81.8703C286.869 81.9807 286.648 82.1647 286.464 82.3856C285.911 83.0113 285.763 83.7842 285.542 84.5572C285.21 85.6246 284.804 86.692 284.362 87.7226C283.993 88.5324 283.514 89.6366 282.629 89.9678C281.707 90.3359 280.49 90.3727 279.494 90.2255C275.254 89.5998 271.013 86.7288 268.69 83.1585C267.547 81.4286 267.362 79.7355 266.772 77.8215C266.293 76.2388 264.375 75.9443 263.306 74.9505C260.909 72.7789 260.54 68.8037 261.389 65.8592C261.794 64.3501 262.642 62.9882 263.454 61.6264C264.117 60.5221 264.781 59.4179 265.703 58.5346C266.625 57.6512 267.731 56.9887 268.874 56.3629C270.497 55.4428 272.119 54.5594 273.926 54.1545C276.065 53.7128 278.24 54.0441 280.379 54.4122C283.145 54.8907 285.984 55.5164 288.234 57.1727C289.082 57.7984 289.856 58.6082 290.299 59.602C290.667 60.4117 290.778 61.3319 290.852 62.2153C290.889 63.025 290.889 63.8348 290.852 64.6445Z" fill="#F7967C"/>
<path d="M279.644 68.3989C280.086 68.0676 280.234 67.994 281.082 68.1412C282.372 68.3621 283.552 66.5953 284.769 67.0738C285.249 67.2578 285.544 67.6995 285.949 67.9572C287.682 69.0982 288.752 67.037 290.227 66.6689C291.813 66.2272 293.546 66.853 294.099 64.755C294.173 64.4605 294.209 64.1292 294.431 63.9084C294.873 63.4299 295.721 63.6876 296.201 63.2827C296.569 62.9882 296.643 62.4729 296.606 62.0312C296.606 61.4055 296.385 60.6694 295.832 60.4117C295.648 60.3013 295.426 60.3013 295.205 60.1909C294.541 59.8228 294.726 58.9394 294.504 58.3505C294.283 57.6512 293.804 57.0623 293.066 56.8414C292.403 56.6206 291.665 56.731 291.001 56.547C289.379 56.1053 288.383 54.0441 286.687 54.0809C285.876 54.0809 285.101 54.6698 284.253 54.5226C283.442 54.4122 282.704 53.9337 281.893 53.7496C280.861 53.5288 279.865 53.1607 278.832 52.9399C276.841 52.4982 274.702 52.2773 272.674 52.719C269.245 53.4552 266.037 54.8538 263.787 57.6144C261.464 60.4117 260.432 65.2334 260.432 68.8037C260.432 70.2392 260.69 71.6747 260.911 73.1102C261.206 74.8401 261.427 81.3918 264.562 78.2264C265.705 77.527 266.811 76.7541 267.844 75.9443C268.839 75.1714 269.835 74.4352 270.757 73.6623C271.089 73.3678 271.384 72.9998 271.789 72.8157C272.453 72.5213 272.895 72.9629 273.522 72.9261C274.186 72.9261 274.813 72.4108 275.145 71.8955C275.698 71.0858 275.403 70.3864 276.472 69.9448C277.321 69.5767 278.316 69.2822 279.054 68.7301C279.201 68.6197 279.349 68.5093 279.459 68.4357L279.644 68.3989Z" fill="#9E554E"/>
<path d="M270.941 68.6936C270.351 68.9145 269.798 69.3193 269.393 69.8346C268.545 70.902 268.25 72.3007 268.36 73.6258C268.508 74.9508 269.061 76.2391 269.761 77.3801C270.499 78.4843 271.273 78.9996 272.416 78.1899C273.412 77.4905 274.113 76.4231 274.481 75.2821C274.887 73.957 275.035 72.4479 274.555 71.1229C274.113 69.9083 273.375 68.5464 271.863 68.5464C271.531 68.5464 271.2 68.62 270.905 68.7304L270.941 68.6936Z" fill="#F7967C"/>
<path d="M288.166 70.6443C288.166 70.4235 288.092 70.1658 287.871 70.0186C287.392 69.7241 286.949 69.5769 286.359 69.5769C285.695 69.5769 284.995 69.5769 284.331 69.8346C283.962 69.945 283.593 70.129 283.261 70.3867C283.151 70.4603 282.34 71.2332 282.303 71.2332C282.856 71.4173 283.483 71.086 284.073 70.9756C284.921 70.7915 285.695 70.902 286.507 71.0492C286.912 71.1228 287.318 71.3068 287.76 71.1964C288.055 71.1228 288.203 70.902 288.203 70.6811L288.166 70.6443Z" fill="#9E554E"/>
<path d="M286.028 73.8095C285.955 73.6254 285.807 73.4414 285.586 73.3678C285.07 73.1837 284.701 73.5518 284.516 73.8831C284.516 73.8831 284.516 73.8831 284.516 73.9199C284.406 74.0671 284.332 74.2143 284.295 74.3616C284.185 74.656 284.074 74.9873 284.111 75.3186C284.111 75.4658 284.185 75.613 284.258 75.7234C284.369 75.8707 284.59 75.9443 284.775 75.9443C284.775 75.9443 284.775 75.9443 284.811 75.9443C284.885 75.9443 284.996 75.9443 285.07 75.9443C285.401 75.8707 285.66 75.613 285.807 75.3186C285.844 75.2081 285.881 75.0977 285.918 74.9873C285.991 74.8769 286.028 74.7296 286.065 74.6192C286.065 74.5456 286.065 74.5088 286.102 74.4352C286.139 74.3248 286.176 74.1775 286.139 74.0303C286.139 73.9567 286.102 73.8831 286.065 73.8095H286.028Z" fill="#723737"/>
<path d="M279.645 74.5459C278.096 78.4843 273.597 80.4351 269.615 78.926C265.632 77.3801 263.641 72.9632 265.19 68.9881C266.739 65.0497 271.237 63.0989 275.22 64.608C279.202 66.1539 281.194 70.5708 279.645 74.5459C281.194 70.6076 278.096 78.4843 279.645 74.5459Z" fill="#2F4A79"/>
<path d="M276.729 73.4412C275.807 75.7969 273.115 76.9747 270.718 76.0545C268.321 75.1343 267.141 72.4842 268.063 70.0918C268.985 67.7361 271.677 66.5583 274.074 67.4785C276.471 68.3986 277.651 71.0487 276.729 73.4412C277.651 71.0856 275.807 75.7969 276.729 73.4412Z" fill="#7FAFC6"/>
<path d="M272.824 73.6254L269.947 72.5212L277.47 53.5287C277.839 52.6085 278.539 51.8724 279.498 51.4675C280.42 51.0626 281.452 51.0994 282.374 51.4675L282.522 51.5411C283.112 51.7988 283.333 52.7558 283.185 53.3079C283.112 53.5655 282.927 53.8232 282.669 53.8968C282.485 53.9336 282.337 53.8968 282.153 53.8968C281.821 53.86 281.489 53.8232 281.157 53.9336C280.715 54.0808 280.457 54.3385 280.309 54.7433C280.051 55.3691 279.83 55.9948 279.572 56.6205C279.092 57.8351 278.613 59.0498 278.134 60.2644C277.544 61.7367 276.954 63.2458 276.364 64.7181C275.774 66.1536 275.22 67.6258 274.63 69.0613C274.188 70.1655 273.745 71.2697 273.34 72.374C273.155 72.8156 273.008 73.2573 272.824 73.699V73.6254Z" fill="#7FAFC6"/>
<path d="M283.078 84.373C283.078 84.373 282.783 84.2626 282.709 84.2626C282.193 84.2994 281.64 84.0785 281.271 83.7473C280.828 83.3792 280.533 82.9007 280.312 82.3854C280.238 82.2014 279.611 82.2382 279.722 82.459C279.98 83.0479 280.349 83.6 280.865 84.0049C281.455 84.4466 282.156 84.6306 282.856 84.557C282.93 84.557 283.115 84.4834 283.078 84.373Z" fill="#DB6357"/>
<path d="M265.85 57.1354C264.191 58.7181 263.232 60.9265 263.269 63.1717C263.269 63.3926 263.896 63.3926 263.896 63.1717C263.896 60.9633 264.817 58.7917 266.403 57.2826C266.587 57.0986 265.997 56.9881 265.887 57.1354H265.85Z" fill="#723737"/>
<path d="M266.074 58.5705C265.373 59.7115 264.93 60.9629 264.746 62.288C264.746 62.472 265.336 62.5088 265.373 62.288C265.557 60.9997 266 59.7851 266.664 58.6441C266.774 58.46 266.184 58.3864 266.074 58.5705Z" fill="#723737"/>
<path d="M293.437 58.5709C293.216 58.1292 292.847 57.8348 292.368 57.7244C292.257 57.7244 292.036 57.7244 291.999 57.8348C291.925 57.9452 292.147 58.0188 292.22 58.0188C292.22 58.0188 292.331 58.0556 292.405 58.0924C292.479 58.1292 292.552 58.2029 292.626 58.2765C292.774 58.4237 292.847 58.5709 292.921 58.755C293.105 59.1967 293.069 59.712 292.995 60.1904C292.995 60.4113 293.585 60.4113 293.622 60.1904C293.659 59.6751 293.695 59.0862 293.474 58.6077L293.437 58.5709Z" fill="#723737"/>
<path d="M291.628 58.4242C291.628 58.4242 291.37 58.277 291.26 58.3138C291.186 58.3138 290.965 58.3874 291.038 58.4978C291.591 59.1971 291.702 60.2277 291.296 61.0375C291.186 61.2583 291.813 61.2951 291.886 61.1111C292.329 60.2645 292.218 59.1603 291.628 58.4242Z" fill="#723737"/>
<path d="M287.643 60.6687C287.606 60.4479 286.979 60.4847 287.016 60.6687C287.201 61.6625 286.832 62.7299 286.058 63.3925C285.947 63.4661 286.058 63.5765 286.168 63.6133C286.279 63.6501 286.5 63.6133 286.574 63.5397C287.385 62.8404 287.791 61.7362 287.606 60.6687H287.643Z" fill="#723737"/>
<path d="M285.69 61.0004C285.617 60.8164 285.027 60.8532 285.1 61.074C285.248 61.5157 285.1 61.9942 284.879 62.3991C284.621 62.7671 284.252 62.988 283.847 63.172C283.736 63.2088 283.736 63.3561 283.847 63.3929C283.994 63.4665 284.142 63.4665 284.289 63.3929C284.769 63.2088 285.174 62.9144 285.469 62.4727C285.764 62.031 285.875 61.4789 285.69 61.0004Z" fill="#723737"/>
<path d="M286.687 55.2582C286.687 55.2582 285.949 55.1846 286.17 55.4055C286.465 55.7735 286.576 56.2888 286.465 56.7305C286.465 56.7673 286.539 56.8409 286.539 56.8409C286.613 56.8409 286.687 56.8778 286.76 56.8778C286.871 56.8778 287.055 56.8778 287.055 56.7305C287.166 56.2152 287.055 55.6263 286.687 55.2214V55.2582Z" fill="#723737"/>
<path d="M300.362 154.711C299.772 154.711 299.219 154.675 298.592 154.527C294.389 153.718 291.734 149.779 290.517 147.497C288.968 144.553 287.972 141.424 286.94 137.633C286.239 135.02 285.575 132.333 284.949 129.719C283.916 125.413 282.81 120.959 281.482 116.653C278.975 108.629 275.84 102.335 271.932 97.4028L272.337 97.0715C276.283 102.04 279.454 108.371 281.962 116.469C283.289 120.775 284.395 125.229 285.428 129.572C286.055 132.149 286.719 134.836 287.419 137.449C288.415 141.203 289.411 144.332 290.959 147.203C292.139 149.411 294.684 153.202 298.703 153.975C305.23 155.227 310.356 148.896 314.08 143.264C318.431 136.713 321.197 129.167 322.119 121.475L322.635 121.548C321.713 129.351 318.911 136.97 314.523 143.559C311.019 148.822 306.336 154.675 300.362 154.675V154.711Z" fill="#2F4A79"/>
<path d="M317.663 248.201C317.663 248.974 317.663 249.711 317.626 250.484C317.515 256.152 316.925 261.82 315.856 267.378C315.745 267.893 315.635 268.445 315.782 268.997C316.335 270.948 322.383 269.697 323.895 269.439C324.558 269.329 328.209 268.482 326.918 267.194C326.55 266.789 325.923 266.642 325.701 266.127C325.554 265.832 325.554 265.501 325.591 265.206C325.812 261.378 327.029 257.919 328.061 254.238C329.168 250.263 330.2 246.287 331.122 242.276C332.155 237.859 327.25 237.307 323.931 237.601C322.383 237.748 320.76 238.08 319.691 239.184C318.916 239.993 318.511 241.098 318.253 242.202C317.81 244.189 317.7 246.214 317.663 248.238V248.201Z" fill="white"/>
<path d="M342.147 274.555C342.147 274.555 342.073 274.629 342.073 274.666L313.974 274.776C313.974 274.592 313.937 274.408 313.9 274.187C313.863 273.745 313.863 273.304 313.863 272.862C313.9 271.206 314.306 269.586 315.191 268.114C315.375 267.783 315.633 267.451 316.002 267.378C316.408 267.304 316.813 267.562 317.182 267.746C318.583 268.519 320.611 268.924 322.16 268.372C323.156 268.003 324.041 267.341 324.742 266.605C325.037 266.274 325.332 265.905 325.737 265.685C326.18 265.427 326.696 265.39 327.175 265.501C328.577 265.795 329.793 266.936 331.047 267.562C332.485 268.298 333.96 268.96 335.472 269.476C336.763 269.917 338.09 270.286 339.307 270.874C340.082 271.242 341.372 271.905 341.999 272.752C342.405 273.304 342.552 273.893 342.11 274.518L342.147 274.555Z" fill="#FFBE7C"/>
<path d="M342.147 274.555C342.147 274.555 342.073 274.629 342.073 274.666L313.974 274.776C313.974 274.592 313.937 274.408 313.9 274.187C313.863 273.746 313.863 273.304 313.863 272.862L342.036 272.752C342.442 273.304 342.589 273.893 342.147 274.519V274.555Z" fill="#F49262"/>
<path d="M335.767 270.47C335.619 270.175 335.214 270.102 334.919 269.991C333.296 269.366 331.748 268.63 330.236 267.783C329.387 267.304 328.576 266.789 327.765 266.274C327.654 266.2 327.47 266.163 327.322 266.2C327.249 266.2 327.064 266.347 327.212 266.421C328.724 267.452 330.346 268.372 332.006 269.145C332.817 269.55 333.665 269.881 334.513 270.212C334.698 270.286 334.956 270.323 335.066 270.47C335.214 270.617 335.066 270.875 334.956 271.022C334.808 271.28 333.923 272.2 334.144 272.494C334.513 272.973 335.066 272.053 335.177 271.832C335.251 271.648 335.361 271.464 335.472 271.316C335.619 271.059 335.878 270.764 335.767 270.47Z" fill="#F49262"/>
<path d="M319.176 272.42C318.77 270.617 317.848 268.85 316.078 267.893C315.967 267.819 315.746 267.819 315.599 267.893C315.488 267.967 315.488 268.077 315.599 268.114C317.221 269.034 318.106 270.727 318.475 272.42C318.512 272.641 319.175 272.641 319.139 272.42H319.176Z" fill="#F49262"/>
<path d="M330.054 266.421C330.054 266.421 329.87 266.421 329.796 266.421C329.722 266.421 329.648 266.421 329.612 266.495C329.28 266.826 328.911 267.194 328.579 267.525C328.468 267.636 328.579 267.709 328.69 267.746C328.763 267.746 328.874 267.746 328.948 267.746C329.022 267.746 329.095 267.746 329.132 267.672C329.464 267.341 329.833 266.973 330.165 266.642C330.275 266.531 330.165 266.458 330.054 266.421Z" fill="#2F4A79"/>
<path d="M331.522 267.268C331.522 267.268 331.19 267.231 331.08 267.341C330.748 267.636 330.416 267.967 330.158 268.298C330.158 268.335 330.084 268.372 330.158 268.445C330.158 268.482 330.268 268.519 330.305 268.556C330.379 268.556 330.49 268.556 330.563 268.556C330.637 268.556 330.711 268.556 330.748 268.482C331.043 268.151 331.338 267.82 331.67 267.525C331.78 267.415 331.67 267.341 331.559 267.304L331.522 267.268Z" fill="#2F4A79"/>
<path d="M333.296 268.113C333.296 268.113 333.185 268.04 333.148 268.003C333.075 268.003 332.964 268.003 332.89 268.003C332.816 268.003 332.743 268.003 332.706 268.077C332.448 268.371 332.19 268.665 331.968 268.997C331.968 269.034 331.895 269.07 331.968 269.144C331.968 269.181 332.079 269.218 332.116 269.254C332.19 269.254 332.3 269.254 332.374 269.254C332.448 269.254 332.521 269.254 332.558 269.181C332.816 268.886 333.075 268.592 333.296 268.261C333.296 268.224 333.37 268.187 333.296 268.113Z" fill="#2F4A79"/>
<path d="M334.997 268.666C334.997 268.666 334.665 268.666 334.554 268.74C334.186 269.071 333.854 269.439 333.596 269.844C333.596 269.881 333.596 269.954 333.596 269.991C333.633 270.028 333.743 270.065 333.78 270.065C333.928 270.065 334.112 270.065 334.186 269.954C334.259 269.844 334.296 269.77 334.37 269.66C334.37 269.623 334.444 269.586 334.481 269.513V269.439C334.702 269.255 334.849 269.108 335.034 268.96C335.144 268.85 335.034 268.776 334.923 268.74L334.997 268.666Z" fill="#2F4A79"/>
<path d="M245.715 191.592C247.301 194.942 249.808 197.849 253.127 199.469C258.474 202.082 264.19 200.499 269.868 200.904C273.482 201.162 276.875 201.935 280.488 202.082C284.655 202.266 288.785 202.082 292.952 201.935C299.221 201.64 305.711 200.61 311.685 202.782C315.557 204.18 319.613 206.168 323.78 206.278C328.058 206.389 331.819 204.99 335.949 204.438C339.415 203.959 342.402 202.782 344.651 199.911C347.823 195.899 348.708 188.868 344.246 185.409C341.886 183.568 338.899 182.758 335.986 181.986C335.396 181.838 334.843 181.691 334.253 181.544C325.993 179.446 317.659 177.605 309.362 175.507C301.397 173.52 293.616 171.201 285.577 169.471C284.913 169.324 284.213 169.177 283.733 168.698C283.402 168.367 283.217 167.888 283.033 167.447C282.627 166.416 282.185 165.385 281.779 164.355C281.337 163.251 281.373 162.993 280.304 162.662C278.497 162.11 276.211 162.183 274.33 161.962C270.274 161.484 266.181 161.005 262.125 160.858C257.368 160.674 252.463 161.005 247.706 161.153C247.153 161.153 246.563 161.189 246.047 161.447C245.014 161.926 244.535 163.14 244.314 164.244C243.834 166.342 243.798 168.514 243.761 170.686C243.65 175.986 243.097 181.47 244.129 186.697C244.461 188.39 245.014 190.046 245.752 191.592H245.715Z" fill="#2F4A79"/>
<path d="M314.267 236.718C312.94 244.153 311.612 251.625 310.285 259.06C310.211 259.502 310.174 260.054 310.58 260.275C310.764 260.385 310.985 260.348 311.207 260.275C318.877 259.134 326.51 257.661 333.922 255.637C339.748 236.276 345.353 215.812 347.086 195.605C347.529 190.636 345.095 186.256 340.117 184.71C336.651 183.642 332.816 184.158 329.386 185.409C326.289 186.513 323.671 188.317 322.269 191.335C320.72 194.758 320.278 198.991 319.577 202.708C318.803 206.867 318.139 210.879 318.029 215.039C317.881 219.75 316.332 224.829 315.484 229.504C315.042 231.896 314.636 234.326 314.194 236.718H314.267Z" fill="#2F4A79"/>
<path d="M334.995 247.871C334.995 247.871 334.7 247.76 334.627 247.76C330.091 248.202 325.592 249.048 321.167 250.116C322.052 243.859 322.974 237.601 323.859 231.344C324.486 226.89 325.15 222.437 325.776 217.946C326.108 215.701 326.403 213.493 326.735 211.247C327.067 209.076 327.399 206.867 327.362 204.659C327.362 203.444 327.141 202.267 327.104 201.052C327.104 200.463 327.104 199.874 327.215 199.322C327.288 198.77 327.546 198.218 327.362 197.666C327.104 196.819 326.182 196.377 325.813 195.568C325.408 194.647 325.555 193.58 326.145 192.807C326.256 192.66 325.887 192.623 325.85 192.623C320.134 192.402 314.382 192.145 308.666 191.924C302.951 191.703 297.272 191.445 291.556 191.224C285.84 191.004 280.088 190.746 274.372 190.525C271.828 190.415 269.283 190.341 266.813 189.642C264.637 189.016 262.72 187.912 261.208 186.255C258.368 183.2 257.115 178.931 256.561 174.882C256.488 174.367 256.451 173.888 256.414 173.373C256.414 173.152 255.787 173.152 255.787 173.373C256.156 177.495 257.151 181.765 259.622 185.151C260.839 186.808 262.388 188.206 264.268 189.09C266.518 190.157 268.988 190.525 271.459 190.709C274.225 190.893 277.027 190.967 279.793 191.077C282.743 191.188 285.656 191.335 288.606 191.445C294.432 191.666 300.296 191.924 306.122 192.145C311.948 192.365 317.811 192.623 323.638 192.844L325.408 192.917C325.039 193.506 324.891 194.243 325.002 194.942C325.113 195.752 325.592 196.304 326.145 196.893C326.477 197.261 326.809 197.629 326.809 198.144C326.809 198.659 326.625 199.175 326.551 199.69C326.44 200.757 326.551 201.825 326.625 202.855C326.809 205.064 326.698 207.235 326.403 209.444C326.108 211.689 325.776 213.898 325.445 216.143C324.154 225.05 322.863 233.994 321.573 242.902C321.204 245.368 320.872 247.797 320.503 250.263C319.397 250.521 318.291 250.778 317.184 251.073C315.525 251.478 313.903 251.919 312.243 252.361C312.133 252.361 312.059 252.471 312.133 252.582C312.206 252.692 312.464 252.655 312.538 252.655C315.156 251.956 317.774 251.294 320.429 250.668C320.061 253.097 319.729 255.563 319.36 257.992C319.36 258.177 319.95 258.213 319.987 257.992C320.356 255.49 320.725 252.987 321.056 250.484C323.933 249.821 326.846 249.196 329.759 248.717C331.418 248.459 333.078 248.239 334.737 248.091C334.848 248.091 334.995 248.018 334.958 247.907L334.995 247.871Z" fill="#7095AF"/>
<path d="M286.574 166.6C286.353 165.901 286.168 165.201 285.947 164.502C285.173 160.895 283.513 157.288 280.637 155.042C277.318 152.429 272.893 150.957 268.689 150.957C262.126 150.883 255.709 153.901 250.952 158.429C250.842 158.539 250.731 158.65 250.621 158.76C248.924 160.416 247.376 162.293 246.196 164.355C245.384 165.753 244.831 167.262 244.204 168.772C243.614 170.17 242.656 171.311 242.397 172.857C241.918 175.581 241.771 178.378 241.918 181.176C241.992 182.464 242.102 184.304 243.135 185.261C244.204 186.255 246.011 184.967 247.191 184.525C250.805 183.126 254.234 181.36 257.885 180.145C263.269 178.341 269.058 177.752 274.258 175.507C276.47 174.55 278.535 173.299 280.821 172.489C282.481 171.9 284.509 171.569 285.837 170.391C286.906 169.471 286.98 167.999 286.611 166.674L286.574 166.6Z" fill="white"/>
<path d="M239.484 142.271C239.337 152.871 239.816 163.582 240.148 174.072C240.185 175.434 240.296 178.71 242.213 178.82C243.356 178.894 244.499 178.599 245.642 178.305C254.529 176.023 263.453 173.741 272.34 171.459C274.405 170.943 276.433 170.391 278.461 169.802C280.158 169.324 281.817 168.735 283.292 167.815C284.472 167.042 285.984 165.753 286.316 164.318C286.685 162.698 286.242 160.527 286.132 158.871C285.283 146.172 284.362 133.326 282.186 120.738C281.522 116.947 280.748 113.156 279.826 109.439C279.052 106.236 277.835 103.145 277.171 99.9423C276.47 96.4457 276.249 94.2372 273.668 91.5503C271.676 89.4891 269.464 87.612 267.067 85.9924C261.757 82.3853 255.267 80.9867 248.814 81.0971C246.454 81.1339 244.02 81.4284 241.918 82.5326C238.968 84.0785 237.014 87.3175 237.014 90.5933C237.014 93.8692 238.968 97.1082 241.918 98.6541C242.213 98.8013 242.545 98.9485 242.729 99.243C243.024 99.6847 242.914 100.237 242.766 100.752C240.296 110.58 240.517 120.849 239.853 130.897C239.595 134.651 239.484 138.443 239.411 142.271H239.484Z" fill="#FFBE7C"/>
<path d="M248.149 101.341C247.043 104.911 247.338 108.813 248.334 112.457C249.33 116.064 251.026 119.487 252.685 122.836C257.258 132.075 261.867 141.35 267.657 149.926C268.652 151.435 269.906 153.018 271.713 153.276C272.967 153.46 274.183 152.944 275.327 152.429C276.838 151.767 278.424 151.03 279.493 149.779C280.305 148.822 280.784 147.607 281.153 146.393C281.374 145.693 281.559 144.957 281.632 144.221C281.78 141.976 280.526 139.915 279.383 137.964C272.856 126.848 269.205 114.371 265.186 102.151C264.227 99.2428 263.158 96.1878 260.724 94.3475C255.451 90.3355 249.735 96.5559 248.223 101.341H248.149Z" fill="#FFBE7C"/>
<path d="M268.466 149.3C268.613 150.368 268.908 151.362 269.462 152.171C272.043 155.889 278.496 154.453 282.036 153.239C287.125 151.472 291.845 148.822 296.344 145.877C298.556 144.405 300.732 142.896 302.871 141.313C304.714 139.988 306.816 139.252 306.89 136.602C306.927 135.167 306.374 133.768 305.71 132.516C305.009 131.265 304.198 130.087 303.608 128.762C303.018 127.474 302.649 126.038 301.801 124.934C299.81 122.321 297.229 124.051 294.942 125.192C290.591 127.363 286.203 129.535 281.852 131.707C276.247 134.467 267.692 137.743 268.208 145.399C268.282 146.614 268.282 147.975 268.466 149.3Z" fill="#FFBE7C"/>
<path d="M320.055 129.241L313.897 125.008C313.565 124.787 313.491 124.345 313.712 124.014L326.434 105.868C326.656 105.537 327.098 105.463 327.43 105.684L333.588 109.917C333.92 110.138 333.994 110.579 333.773 110.911L321.051 129.057C320.829 129.388 320.387 129.461 320.055 129.241Z" fill="#F26061"/>
<path d="M314.119 125.155L313.75 124.897C313.492 124.713 313.418 124.345 313.602 124.087L326.472 105.721C326.656 105.463 327.025 105.389 327.283 105.573L327.652 105.831C327.91 106.015 327.984 106.383 327.799 106.641L314.893 125.008C314.709 125.265 314.34 125.339 314.082 125.155H314.119Z" fill="#DD5259"/>
<path d="M329.865 110.063L329.496 109.806C329.496 109.806 329.311 109.475 329.422 109.327L329.68 108.959C329.68 108.959 330.012 108.775 330.16 108.886L330.528 109.143C330.528 109.143 330.713 109.475 330.602 109.622L330.344 109.99C330.344 109.99 330.012 110.174 329.865 110.063Z" fill="#2F4A79"/>
<path d="M331.263 110.984L330.894 110.726C330.894 110.726 330.71 110.395 330.821 110.248L331.079 109.88C331.079 109.88 331.411 109.696 331.558 109.806L331.927 110.064C331.927 110.064 332.111 110.395 332.001 110.542L331.742 110.91C331.742 110.91 331.411 111.095 331.263 110.984Z" fill="#2F4A79"/>
<path d="M308.734 123.241C307.296 124.75 305.452 125.891 303.793 127.179C303.276 127.584 302.686 128.099 302.76 128.762C302.76 129.056 302.981 129.351 303.129 129.572C303.903 130.713 304.751 131.78 305.71 132.774C305.858 132.921 306.042 133.105 306.226 133.105C307.222 133.216 308.513 131.817 309.361 131.412C310.651 130.823 312.09 130.492 313.491 130.381C314.523 130.308 315.556 130.492 316.588 130.381C317.805 130.234 318.985 129.94 320.165 129.609C321.308 129.277 322.341 128.652 323.189 127.805C323.41 127.584 323.632 127.326 323.668 126.995C323.705 126.701 323.484 126.333 323.189 126.333C323.816 126.001 324.332 125.523 324.775 124.971C324.959 124.75 325.107 124.492 325.107 124.198C325.107 123.903 324.848 123.646 324.553 123.683C324.885 123.499 325.18 123.278 325.438 122.983C325.66 122.689 325.807 122.284 325.697 121.953C325.586 121.585 325.18 121.327 324.812 121.474C325.697 120.848 326.434 120.039 327.209 119.303C327.319 119.192 327.43 119.082 327.467 118.934C327.504 118.714 327.319 118.493 327.098 118.382C326.877 118.309 326.619 118.309 326.397 118.382C323.447 118.75 320.571 119.891 317.621 120.075C317.473 120.075 317.326 120.075 317.252 119.965C317.178 119.891 317.178 119.781 317.178 119.707C317.178 119.192 317.768 118.493 317.252 118.088C317.068 117.941 316.847 117.941 316.625 117.904C315.667 117.867 314.671 117.793 313.823 118.198C312.606 118.714 311.721 120.075 310.836 121.032C310.135 121.769 309.472 122.468 308.771 123.204L308.734 123.241Z" fill="#F7967C"/>
<path d="M306.819 124.787C306.598 124.492 306.339 124.198 306.044 123.94C305.897 123.83 305.749 123.682 305.565 123.682C305.418 123.682 305.307 123.719 305.159 123.793C303.574 124.492 302.099 125.376 300.734 126.443C300.587 126.553 300.439 126.664 300.366 126.811C300.108 127.216 300.366 127.731 300.587 128.136C301.583 129.792 302.947 131.559 303.5 133.436C303.721 134.209 304.053 135.24 305.086 135.24C305.381 135.24 305.639 135.129 305.897 135.019C307.261 134.393 308.589 133.657 309.806 132.774C309.953 132.663 310.138 132.553 310.248 132.369C310.838 131.485 309.769 130.124 309.363 129.351C308.589 127.842 307.888 126.148 306.819 124.787Z" fill="#FFBE7C"/>
<path d="M324.26 121.621C324.26 121.621 323.965 121.621 323.892 121.658C323.449 122.026 322.859 122.1 322.343 122.21C321.679 122.32 321.015 122.431 320.315 122.468C320.241 122.468 320.057 122.541 320.13 122.652C320.167 122.762 320.388 122.762 320.462 122.762C321.2 122.725 321.937 122.578 322.675 122.468C323.265 122.357 323.892 122.247 324.371 121.842C324.482 121.768 324.371 121.658 324.26 121.658V121.621Z" fill="#DB6357"/>
<path d="M324.372 123.903C324.372 123.903 324.077 123.829 323.966 123.903C323.007 124.492 321.938 124.933 320.832 125.191C320.721 125.191 320.647 125.302 320.721 125.375C320.795 125.449 320.979 125.449 321.09 125.412C322.233 125.154 323.339 124.713 324.335 124.087C324.446 124.013 324.446 123.94 324.335 123.903H324.372Z" fill="#DB6357"/>
<path d="M323.046 126.553C323.046 126.553 322.788 126.553 322.678 126.59C322.124 126.994 321.461 127.289 320.76 127.436C320.686 127.436 320.502 127.51 320.576 127.62C320.613 127.731 320.834 127.731 320.908 127.731C321.719 127.547 322.493 127.252 323.157 126.774C323.268 126.7 323.157 126.59 323.046 126.59V126.553Z" fill="#DB6357"/>
<path d="M316.74 119.965C316.113 119.965 315.486 119.965 314.859 119.965C314.786 119.965 314.564 119.965 314.564 120.112C314.564 120.259 314.749 120.259 314.859 120.259C315.486 120.259 316.113 120.259 316.74 120.259C316.814 120.259 317.035 120.259 317.035 120.112C317.035 119.965 316.851 119.965 316.74 119.965Z" fill="#DB6357"/>
<path d="M305.675 133.695C303.905 131.744 302.835 129.242 302.725 126.628C302.725 126.407 302.098 126.407 302.098 126.628C302.208 129.315 303.315 131.892 305.121 133.879C305.269 134.027 305.859 133.916 305.638 133.732L305.675 133.695Z" fill="#F49262"/>
<path d="M282.26 151.951C277.245 154.638 271.05 153.129 266.662 149.964C261.868 146.504 258.734 141.314 255.894 136.308C253.977 132.959 252.133 129.61 250.289 126.223C250.179 126.039 249.589 126.113 249.699 126.297C251.396 129.462 253.129 132.591 254.899 135.72C256.411 138.406 257.959 141.093 259.766 143.559C261.536 145.989 263.564 148.271 265.998 150.038C268.248 151.694 270.903 152.872 273.631 153.387C276.692 153.939 279.9 153.645 282.629 152.172C282.924 152.025 282.371 151.841 282.186 151.951H282.26Z" fill="#F49262"/>
<path d="M274.48 98.5809C274.185 98.4705 272.968 97.1823 272.562 96.8878C272.046 96.5197 271.493 96.1517 270.977 95.7836C268.875 94.3849 266.736 93.0967 264.376 92.1765C262.053 91.2563 259.509 90.7042 257.001 90.925C255.71 91.0355 254.567 91.4771 253.498 92.1765C252.465 92.839 251.507 93.6488 250.548 94.4585C248.372 96.2253 246.16 98.1024 243.468 99.0226C243.099 99.1698 243.542 99.3539 243.763 99.2803C245.754 98.5809 247.524 97.4399 249.183 96.1517C250.032 95.4891 250.843 94.7898 251.691 94.1273C252.576 93.4279 253.424 92.6918 254.42 92.1029C256.485 90.8882 259.029 91.0723 261.279 91.5876C263.454 92.0661 265.482 92.9862 267.437 94.0905C268.543 94.7162 269.612 95.3787 270.682 96.1148C271.198 96.4829 271.751 96.851 272.267 97.2191C272.968 97.7344 273.669 98.3233 274.517 98.6177L274.48 98.5809Z" fill="#F49262"/>
<path d="M280.416 167.337C280.416 167.337 280.084 167.263 280.01 167.263C270.533 169.435 261.019 171.312 251.432 172.895C248.74 173.337 246.011 173.778 243.319 174.183C242.914 174.257 243.209 174.514 243.467 174.478C253.165 173.042 262.789 171.312 272.377 169.288C275.032 168.736 277.687 168.147 280.342 167.521C280.453 167.521 280.526 167.411 280.453 167.3L280.416 167.337Z" fill="#F49262"/>
<path d="M281.928 131.891C281.928 131.891 281.596 131.817 281.486 131.891C280.601 132.369 279.642 132.553 278.646 132.443C278.572 132.443 278.499 132.443 278.425 132.443C277.687 131.081 276.95 129.682 276.249 128.321C274.737 125.45 273.226 122.615 271.787 119.708C270.46 117.058 269.427 114.297 268.616 111.426C267.879 108.85 267.289 106.236 266.514 103.697C265.629 100.862 264.449 98.0651 262.569 95.7094C262.421 95.5254 261.831 95.6358 261.979 95.7831C265.334 100.053 266.367 105.463 267.731 110.543C268.469 113.34 269.427 116.064 270.644 118.714C272.009 121.585 273.557 124.419 275.032 127.216C276.766 130.492 278.499 133.768 280.232 137.044C280.342 137.228 280.932 137.154 280.822 136.97C280.084 135.572 279.31 134.136 278.572 132.737C279.716 132.885 280.896 132.664 281.928 132.112C282.039 132.038 282.039 131.964 281.928 131.891Z" fill="#F49262"/>
<path d="M311.797 202.598V202.304C311.797 201.199 311.022 200.316 310.063 200.316H32.7981C26.2712 200.316 20.998 206.315 20.998 213.714V222.4C20.998 229.798 26.2712 235.798 32.7981 235.798H310.063C311.022 235.798 311.797 234.915 311.797 233.81V233.516C311.797 232.412 311.022 231.528 310.063 231.528H305.638L306.487 230.792C304.864 228.142 304.126 224.903 303.868 221.664C303.721 219.787 303.721 217.873 303.868 215.959C304.016 213.935 304.348 211.91 305.012 210.033C305.565 208.487 306.339 207.015 307.335 205.837L306.487 204.549H310.027C310.985 204.549 311.76 203.665 311.76 202.561L311.797 202.598Z" fill="#9E554E"/>
<path d="M235.8 204.586H32.7645C28.5976 204.586 25.2051 208.414 25.2051 213.088V223.026C25.2051 227.737 28.5976 231.529 32.7645 231.529H306.121C305.937 231.308 305.789 231.05 305.642 230.792C303.982 228.142 303.245 224.903 303.023 221.664C302.876 219.787 302.876 217.873 303.023 215.959C303.171 213.935 303.503 211.91 304.167 210.033C304.72 208.487 305.494 207.015 306.527 205.837C306.711 205.653 306.859 205.432 307.043 205.248L307.154 204.807L307.227 204.512H235.8V204.586Z" fill="white"/>
<path d="M34.0146 204.586H32.7977C28.6308 204.586 25.2383 208.414 25.2383 213.088V223.026C25.2383 227.738 28.6308 231.529 32.7977 231.529H34.0146V204.586Z" fill="#D7EEFE"/>
<path d="M79.4107 209.223H38.7373C38.516 209.223 37.9629 209.297 37.9629 209.628C37.9629 209.959 38.516 210.033 38.7373 210.033H79.4107C79.632 210.033 80.1851 209.959 80.1851 209.628C80.1851 209.297 79.632 209.223 79.4107 209.223Z" fill="#7FAFC6"/>
<path d="M181.886 219.713H58.2802C58.059 219.713 57.5059 219.787 57.5059 220.118C57.5059 220.45 58.059 220.523 58.2802 220.523H181.886C182.107 220.523 182.661 220.45 182.661 220.118C182.661 219.787 182.107 219.713 181.886 219.713Z" fill="#7FAFC6"/>
<path d="M250.913 210.806H159.462C159.241 210.806 158.688 210.88 158.688 211.211C158.688 211.542 159.241 211.616 159.462 211.616H250.913C251.134 211.616 251.687 211.542 251.687 211.211C251.687 210.88 251.134 210.806 250.913 210.806Z" fill="#7FAFC6"/>
<path d="M295.057 219.088H224.44C224.219 219.088 223.666 219.162 223.666 219.493C223.666 219.824 224.219 219.898 224.44 219.898H295.057C295.278 219.898 295.831 219.824 295.831 219.493C295.831 219.162 295.278 219.088 295.057 219.088Z" fill="#7FAFC6"/>
<path d="M300.404 238.301V237.97C300.404 236.792 299.629 235.798 298.67 235.798H16.722C10.2319 235.798 4.92188 242.35 4.92188 250.448V259.944C4.92188 268.041 10.195 274.593 16.722 274.593H298.67C299.629 274.593 300.404 273.636 300.404 272.421V272.09C300.404 270.912 299.629 269.919 298.67 269.919H294.245L295.094 269.146C293.471 266.238 292.734 262.668 292.475 259.134C292.328 257.073 292.328 254.975 292.475 252.914C292.623 250.705 292.955 248.497 293.619 246.436C293.729 246.104 293.84 245.773 293.95 245.479C293.95 245.442 293.987 245.368 294.024 245.331C294.135 245.037 294.282 244.742 294.393 244.448C294.393 244.374 294.43 244.338 294.467 244.264C294.614 243.97 294.762 243.675 294.909 243.381C294.909 243.381 294.909 243.344 294.946 243.307C295.094 243.049 295.278 242.792 295.425 242.534C295.573 242.313 295.72 242.092 295.905 241.872L295.499 241.209L295.057 240.473H298.597C299.555 240.473 300.33 239.516 300.33 238.301H300.404Z" fill="#F26061"/>
<path d="M295.136 240.473H16.1004C15.7317 240.473 15.3261 240.509 14.9573 240.583C11.3435 241.246 8.54102 245.11 8.54102 249.785V260.643C8.54102 265.317 11.3435 269.182 14.9573 269.845C15.3261 269.918 15.6948 269.955 16.1004 269.955H294.619C294.472 269.698 294.288 269.44 294.14 269.182C292.481 266.274 291.743 262.704 291.522 259.171C291.374 257.109 291.374 255.011 291.522 252.95C291.669 250.742 292.001 248.533 292.665 246.472C293.218 244.779 293.993 243.196 294.988 241.871C295.136 241.65 295.32 241.43 295.504 241.246L295.615 240.767L295.689 240.473H295.099H295.136Z" fill="white"/>
<path d="M19.7142 240.473H16.1004C15.7317 240.473 15.3261 240.509 14.9573 240.583C11.3435 241.246 8.54102 245.11 8.54102 249.785V260.643C8.54102 265.317 11.3435 269.182 14.9573 269.845C15.3261 269.918 15.6948 269.955 16.1004 269.955H19.7142V240.473Z" fill="#D7EEFE"/>
<path d="M69.3413 247.282H39.0666C38.8085 247.282 38.1816 247.356 38.1816 247.724C38.1816 248.092 38.8085 248.165 39.0666 248.165H69.3413C69.5994 248.165 70.2263 248.092 70.2263 247.724C70.2263 247.356 69.5994 247.282 69.3413 247.282Z" fill="#7FAFC6"/>
<path d="M110.09 259.686H51.6799C51.4218 259.686 50.7949 259.76 50.7949 260.128C50.7949 260.496 51.4218 260.569 51.6799 260.569H110.09C110.349 260.569 110.975 260.496 110.975 260.128C110.975 259.76 110.349 259.686 110.09 259.686Z" fill="#7FAFC6"/>
<path d="M184.357 249.711H120.526C120.268 249.711 119.641 249.785 119.641 250.153C119.641 250.521 120.268 250.595 120.526 250.595H184.32C184.578 250.595 185.205 250.521 185.205 250.153C185.205 249.785 184.578 249.711 184.32 249.711H184.357Z" fill="#7FAFC6"/>
<path d="M218.944 260.385H162.34C162.082 260.385 161.455 260.459 161.455 260.827C161.455 261.195 162.082 261.269 162.34 261.269H218.944C219.202 261.269 219.829 261.195 219.829 260.827C219.829 260.459 219.202 260.385 218.944 260.385Z" fill="#7FAFC6"/>
<path d="M276.624 250.374H230.824C230.566 250.374 229.939 250.448 229.939 250.816C229.939 251.184 230.566 251.257 230.824 251.257H276.624C276.882 251.257 277.509 251.184 277.509 250.816C277.509 250.448 276.882 250.374 276.624 250.374Z" fill="#7FAFC6"/>
<path d="M350.073 276.911V276.617C350.073 275.513 349.188 274.629 348.119 274.629H34.3469C26.9718 274.629 20.998 280.629 20.998 287.99V296.677C20.998 304.075 26.9718 310.038 34.3469 310.038H348.119C349.188 310.038 350.073 309.154 350.073 308.05V307.756C350.073 306.652 349.188 305.768 348.119 305.768H343.104L344.062 305.032C342.219 302.382 341.371 299.143 341.112 295.904C340.965 294.027 340.965 292.113 341.112 290.199C341.297 288.174 341.666 286.15 342.403 284.273C343.03 282.727 343.878 281.291 345.021 280.077L344.062 278.789H348.082C349.151 278.789 350.036 277.905 350.036 276.801L350.073 276.911Z" fill="#2F4A79"/>
<path d="M264.085 278.862H34.3519C29.6319 278.862 25.7969 282.653 25.7969 287.365V297.303C25.7969 302.014 29.6319 305.805 34.3519 305.805H343.662C343.477 305.584 343.293 305.327 343.109 305.069C341.265 302.419 340.417 299.18 340.122 295.941C339.974 294.064 339.974 292.15 340.122 290.236C340.306 288.211 340.675 286.187 341.412 284.31C342.039 282.764 342.924 281.328 344.067 280.114C344.252 279.93 344.436 279.709 344.658 279.525L344.768 279.083L344.842 278.789H264.011L264.085 278.862Z" fill="white"/>
<path d="M35.0116 278.862H34.3109C29.5909 278.862 25.7559 282.653 25.7559 287.365V297.303C25.7559 302.014 29.5909 305.805 34.3109 305.805H35.0116V278.862Z" fill="#D7EEFE"/>
<path d="M208.03 287.769H155.704C155.483 287.769 154.93 287.843 154.93 288.174C154.93 288.505 155.483 288.579 155.704 288.579H208.03C208.251 288.579 208.804 288.505 208.804 288.174C208.804 287.843 208.251 287.769 208.03 287.769Z" fill="#7FAFC6"/>
<path d="M290.336 296.566H198.259C198.038 296.566 197.484 296.64 197.484 296.971C197.484 297.302 198.038 297.376 198.259 297.376H290.336C290.558 297.376 291.111 297.302 291.111 296.971C291.111 296.64 290.558 296.566 290.336 296.566Z" fill="#7FAFC6"/>
<path d="M321.865 287.144H264.782C264.561 287.144 264.008 287.217 264.008 287.548C264.008 287.88 264.561 287.953 264.782 287.953H321.865C322.086 287.953 322.64 287.88 322.64 287.548C322.64 287.217 322.086 287.144 321.865 287.144Z" fill="#7FAFC6"/>
<path d="M126.055 297.524H105.884C105.663 297.524 105.109 297.597 105.109 297.929C105.109 298.26 105.663 298.333 105.884 298.333H126.055C126.276 298.333 126.829 298.26 126.829 297.929C126.829 297.597 126.276 297.524 126.055 297.524Z" fill="#7FAFC6"/>
<path d="M109.058 289.021H49.7627C49.5414 289.021 48.9883 289.095 48.9883 289.426C48.9883 289.757 49.5414 289.831 49.7627 289.831H109.058C109.279 289.831 109.833 289.757 109.833 289.426C109.833 289.095 109.279 289.021 109.058 289.021Z" fill="#7FAFC6"/>
<path d="M60.1597 297.524H51.0146C50.7934 297.524 50.2402 297.597 50.2402 297.929C50.2402 298.26 50.7934 298.333 51.0146 298.333H60.1597C60.3809 298.333 60.9341 298.26 60.9341 297.929C60.9341 297.597 60.3809 297.524 60.1597 297.524Z" fill="#7FAFC6"/>
<path d="M37.3998 193.678C37.3998 195.094 36.8334 196.369 35.7006 197.501C34.5678 198.634 33.1872 199.201 31.5588 199.201C29.9304 199.201 28.5498 198.634 27.417 197.501C26.2842 196.369 25.7178 195.094 25.7178 193.678V129.533C25.7178 127.975 26.3196 126.559 27.5232 125.285C28.7976 123.94 30.3906 123.267 32.3022 123.267H61.0826C62.711 123.267 64.0917 123.833 65.2245 124.966C66.3573 126.028 66.9237 127.303 66.9237 128.79C66.9237 130.347 66.3573 131.622 65.2245 132.613C64.0917 133.604 62.711 134.1 61.0826 134.1H37.3998V155.127H59.0648C60.4808 155.127 61.7906 155.658 62.9942 156.72C64.1979 157.712 64.7997 158.986 64.7997 160.544C64.7997 162.101 64.2333 163.411 63.1004 164.473C62.0384 165.535 60.6932 166.066 59.0648 166.066H37.3998V193.678ZM127.898 145.144C127.898 150.667 126.482 155.127 123.65 158.526C120.889 161.924 117.101 164.225 112.286 165.429C114.906 169.677 117.526 173.854 120.145 177.961C122.765 181.996 125.384 186.138 128.004 190.386C128.287 190.669 128.5 191.129 128.641 191.767C128.783 192.404 128.854 192.899 128.854 193.253C128.854 194.882 128.181 196.262 126.836 197.395C125.561 198.457 124.216 198.988 122.8 198.988C120.605 198.988 118.977 198.139 117.915 196.439L99.5423 166.491H89.878V193.466C89.878 194.953 89.2762 196.262 88.0726 197.395C86.9398 198.528 85.5592 199.094 83.9307 199.094C82.3731 199.094 81.0279 198.563 79.8951 197.501C78.7623 196.369 78.1959 195.023 78.1959 193.466V129.639C78.1959 127.94 78.8331 126.453 80.1075 125.179C81.3819 123.904 82.9041 123.267 84.6741 123.267H103.153C107.826 123.267 111.72 123.904 114.835 125.179C118.021 126.453 120.57 128.117 122.482 130.17C124.464 132.223 125.845 134.56 126.623 137.179C127.473 139.799 127.898 142.454 127.898 145.144ZM116.216 145.144C116.216 143.799 116.003 142.489 115.579 141.215C115.225 139.87 114.552 138.702 113.561 137.71C112.57 136.648 111.189 135.799 109.419 135.162C107.72 134.524 105.49 134.206 102.728 134.206H89.878V155.765H103.365C107.543 155.765 110.729 154.88 112.924 153.11C115.118 151.269 116.216 148.614 116.216 145.144ZM182.069 192.51C182.069 194.138 181.502 195.484 180.369 196.546C179.237 197.608 177.856 198.139 176.228 198.139H148.084C145.89 198.139 143.943 197.714 142.243 196.864C140.615 195.944 139.801 194.28 139.801 191.873V129.533C139.801 127.975 140.402 126.559 141.606 125.285C142.88 123.94 144.474 123.267 146.385 123.267H175.166C176.794 123.267 178.175 123.833 179.307 124.966C180.44 126.028 181.007 127.338 181.007 128.896C181.007 130.453 180.44 131.728 179.307 132.719C178.175 133.71 176.794 134.206 175.166 134.206H151.483V155.127H173.148C174.564 155.127 175.874 155.658 177.077 156.72C178.281 157.712 178.883 158.986 178.883 160.544C178.883 162.101 178.316 163.411 177.183 164.473C176.121 165.535 174.776 166.066 173.148 166.066H151.483V187.306H176.228C177.785 187.306 179.13 187.837 180.263 188.899C181.467 189.89 182.069 191.094 182.069 192.51ZM234.547 192.51C234.547 194.138 233.98 195.484 232.848 196.546C231.715 197.608 230.334 198.139 228.706 198.139H200.562C198.368 198.139 196.421 197.714 194.721 196.864C193.093 195.944 192.279 194.28 192.279 191.873V129.533C192.279 127.975 192.881 126.559 194.084 125.285C195.359 123.94 196.952 123.267 198.863 123.267H227.644C229.272 123.267 230.653 123.833 231.786 124.966C232.918 126.028 233.485 127.338 233.485 128.896C233.485 130.453 232.918 131.728 231.786 132.719C230.653 133.71 229.272 134.206 227.644 134.206H203.961V155.127H225.626C227.042 155.127 228.352 155.658 229.555 156.72C230.759 157.712 231.361 158.986 231.361 160.544C231.361 162.101 230.794 163.411 229.662 164.473C228.6 165.535 227.254 166.066 225.626 166.066H203.961V187.306H228.706C230.263 187.306 231.609 187.837 232.741 188.899C233.945 189.89 234.547 191.094 234.547 192.51Z" fill="#243976"/>
</g>
<defs>
<clipPath id="clip0_347_8569">
<rect width="345.153" height="258.865" fill="white" transform="translate(4.92383 51.1736)"/>
</clipPath>
</defs>
</svg>
