<svg width="543" height="430" viewBox="0 0 543 430" fill="none" xmlns="http://www.w3.org/2000/svg">
<path opacity="0.68" d="M99.0565 413.088C108.145 403.999 108.145 389.263 99.0565 380.174C89.9676 371.085 75.2315 371.085 66.1426 380.174C57.0536 389.263 57.0536 403.999 66.1425 413.088C75.2315 422.177 89.9676 422.177 99.0565 413.088Z" fill="#CED9FA"/>
<path opacity="0.68" d="M29.7879 339.465C38.7474 335.719 42.9737 325.419 39.2278 316.459C35.4818 307.5 25.182 303.274 16.2225 307.02C7.26307 310.766 3.03672 321.065 6.7827 330.025C10.5287 338.984 20.8285 343.211 29.7879 339.465Z" fill="#CED9FA"/>
<path opacity="0.68" d="M526.776 240.96C535.736 237.214 539.962 226.914 536.216 217.955C532.47 208.996 522.17 204.769 513.211 208.515C504.251 212.261 500.025 222.561 503.771 231.52C507.517 240.48 517.817 244.706 526.776 240.96Z" fill="#CED9FA"/>
<path opacity="0.68" d="M439.735 73.2187C453.579 73.2187 464.802 61.9958 464.802 48.1516C464.802 34.3074 453.579 23.0845 439.735 23.0845C425.891 23.0845 414.668 34.3074 414.668 48.1516C414.668 61.9958 425.891 73.2187 439.735 73.2187Z" fill="#C9DBFA"/>
<path d="M457.479 285.582C464.235 266.569 467.889 246.195 467.889 224.997C467.889 120.994 379.716 36.6772 270.952 36.6772C162.189 36.6772 74.0293 120.994 74.0293 225.011C74.0293 329.028 162.202 413.331 270.966 413.331C289.291 413.331 307.023 410.931 323.851 406.454C382.6 390.825 415.343 366.634 457.493 285.582H457.479Z" fill="white"/>
<path opacity="0.68" d="M180.5 61.1687C185.102 38.9488 170.819 17.2058 148.599 12.6042C126.379 8.00271 104.636 22.2852 100.035 44.5051C95.4334 66.725 109.716 88.4681 131.936 93.0696C154.156 97.6711 175.899 83.3886 180.5 61.1687Z" fill="#C9DBFA"/>
<path opacity="0.68" d="M443.283 363.475C447.885 341.255 433.602 319.512 411.383 314.91C389.163 310.309 367.42 324.591 362.818 346.811C358.217 369.031 372.499 390.774 394.719 395.376C416.939 399.977 438.682 385.695 443.283 363.475Z" fill="#C9DBFA"/>
<path opacity="0.68" d="M365.84 23.098C372.111 23.098 377.194 18.0148 377.194 11.7443C377.194 5.47385 372.111 0.390625 365.84 0.390625C359.57 0.390625 354.486 5.47385 354.486 11.7443C354.486 18.0148 359.57 23.098 365.84 23.098Z" fill="#C9DBFA"/>
<path opacity="0.67" d="M74.3156 317.175L65.7262 320.02C65.5914 322.663 65.6858 325.293 65.9824 327.868L74.7337 330.133C75.5022 333.949 76.8372 337.604 78.671 340.988L73.3987 348.324C74.828 350.508 76.4327 352.598 78.2126 354.526L86.6267 351.223C89.4314 353.798 92.6407 355.996 96.2005 357.695L96.2544 366.729C97.468 367.188 98.7085 367.606 99.9895 367.97C101.257 368.334 102.538 368.644 103.806 368.9L108.66 361.282C112.57 361.74 116.467 361.592 120.216 360.904L125.569 368.186C128.104 367.498 130.572 366.595 132.958 365.502L132.406 356.481C135.763 354.594 138.837 352.207 141.521 349.389L150.137 352.14C151.769 350.117 153.239 347.946 154.533 345.64L148.789 338.655C149.584 336.916 150.259 335.109 150.798 333.221C151.337 331.333 151.742 329.446 151.998 327.558L160.587 324.713C160.722 322.07 160.628 319.44 160.331 316.865L151.58 314.6C150.811 310.784 149.477 307.129 147.643 303.745L152.915 296.409C151.486 294.211 149.881 292.135 148.101 290.207L139.687 293.51C136.882 290.935 133.673 288.737 130.113 287.038L130.059 278.003C128.846 277.545 127.605 277.127 126.324 276.763C125.057 276.399 123.776 276.089 122.508 275.833L117.654 283.451C113.743 282.993 109.846 283.141 106.098 283.829L100.745 276.547C98.2096 277.235 95.742 278.138 93.3553 279.231L93.9082 288.251C90.5506 290.139 87.4762 292.526 84.7929 295.344L76.1765 292.593C74.5449 294.616 73.0751 296.787 71.7806 299.093L77.5249 306.078C76.7293 307.817 76.0551 309.624 75.5157 311.512C74.9764 313.399 74.5718 315.287 74.3156 317.175ZM90.6854 315.894C94.2722 303.489 107.231 296.342 119.636 299.929C132.041 303.516 139.188 316.474 135.601 328.879C132.014 341.285 119.056 348.431 106.651 344.845C94.2453 341.258 87.0986 328.299 90.6854 315.894Z" fill="#86A5F9"/>
<path opacity="0.67" d="M361.421 102.143L356.5 103.774C356.419 105.284 356.473 106.795 356.648 108.278L361.664 109.572C362.109 111.757 362.878 113.86 363.916 115.802L360.896 120.009C361.718 121.263 362.635 122.463 363.66 123.569L368.487 121.668C370.092 123.151 371.939 124.405 373.975 125.389L374.002 130.567C374.703 130.837 375.418 131.066 376.146 131.282C376.874 131.498 377.602 131.673 378.331 131.821L381.122 127.452C383.374 127.709 385.599 127.628 387.743 127.237L390.817 131.417C392.273 131.026 393.689 130.5 395.051 129.88L394.741 124.702C396.669 123.623 398.436 122.247 399.973 120.629L404.908 122.207C405.838 121.047 406.688 119.807 407.429 118.472L404.139 114.467C404.598 113.469 404.975 112.431 405.299 111.352C405.623 110.273 405.838 109.181 405.987 108.103L410.908 106.471C410.989 104.961 410.935 103.45 410.76 101.967L405.744 100.673C405.299 98.4883 404.53 96.3848 403.492 94.4431L406.513 90.236C405.69 88.9819 404.773 87.7819 403.748 86.6762L398.921 88.5774C397.316 87.0942 395.469 85.8401 393.433 84.8558L393.406 79.6779C392.705 79.4082 391.99 79.1789 391.262 78.9632C390.534 78.7475 389.806 78.5722 389.077 78.4238L386.286 82.7927C384.048 82.5365 381.81 82.6174 379.666 83.0085L376.591 78.8284C375.135 79.2194 373.719 79.7453 372.357 80.3656L372.667 85.5435C370.739 86.6222 368.973 87.9976 367.435 89.6157L362.5 88.0381C361.57 89.1977 360.72 90.4382 359.979 91.7732L363.269 95.778C362.81 96.7758 362.433 97.8141 362.109 98.8928C361.799 99.9716 361.57 101.064 361.421 102.143ZM370.82 101.401C372.87 94.2812 380.313 90.182 387.419 92.2451C394.539 94.2947 398.638 101.738 396.575 108.844C394.525 115.964 387.082 120.063 379.976 118C372.856 115.95 368.757 108.507 370.82 101.401Z" fill="#86A5F9"/>
<path opacity="0.67" d="M295.902 390.529L291.748 391.904C291.681 393.185 291.721 394.453 291.87 395.693L296.104 396.786C296.481 398.633 297.129 400.399 298.005 402.044L295.457 405.591C296.144 406.656 296.926 407.654 297.789 408.598L301.862 406.993C303.223 408.247 304.774 409.299 306.487 410.121L306.514 414.49C307.107 414.72 307.7 414.922 308.32 415.097C308.941 415.272 309.548 415.421 310.168 415.542L312.514 411.861C314.402 412.077 316.29 412.009 318.097 411.672L320.685 415.192C321.913 414.854 323.113 414.423 324.259 413.897L323.989 409.528C325.607 408.611 327.104 407.465 328.398 406.103L332.565 407.438C333.347 406.454 334.062 405.416 334.696 404.296L331.918 400.925C332.295 400.089 332.632 399.213 332.889 398.296C333.158 397.379 333.347 396.462 333.468 395.559L337.622 394.183C337.689 392.902 337.649 391.635 337.5 390.394L333.266 389.302C332.889 387.455 332.241 385.688 331.365 384.043L333.913 380.497C333.226 379.431 332.444 378.434 331.581 377.49L327.508 379.094C326.147 377.84 324.596 376.789 322.883 375.966L322.856 371.597C322.263 371.368 321.67 371.166 321.05 370.99C320.429 370.815 319.822 370.667 319.202 370.545L316.856 374.227C314.968 374.011 313.08 374.078 311.274 374.415L308.685 370.896C307.457 371.233 306.257 371.665 305.111 372.19L305.381 376.559C303.763 377.476 302.266 378.622 300.972 379.984L296.805 378.649C296.023 379.634 295.308 380.672 294.674 381.791L297.452 385.162C297.075 385.998 296.738 386.875 296.481 387.792C296.212 388.709 296.023 389.626 295.902 390.529ZM303.817 389.909C305.543 383.908 311.813 380.456 317.813 382.182C323.814 383.908 327.266 390.178 325.54 396.179C323.814 402.179 317.544 405.631 311.543 403.905C305.543 402.179 302.091 395.909 303.817 389.909Z" fill="#86A5F9"/>
<path d="M346.487 267.608C346.244 266.907 345.907 266.004 345.516 264.938L285.174 209.518C283.664 208.129 281.655 207.455 279.619 207.63L272.607 208.237C270.692 208.399 268.993 209.559 268.13 211.285L261.064 225.416C259.783 227.965 257.869 230.149 255.495 231.727C251.625 234.302 246.636 234.909 242.443 233.561C238.465 232.28 236.078 228.221 236.712 224.095L241.297 194.402C242.133 188.968 245.706 184.357 250.749 182.172L266.269 175.457C230.347 170.886 209.447 175.943 203.393 177.79L180.375 239.723C189.045 255.634 263.316 300.402 276.612 308.33C277.933 309.126 279.443 309.53 280.994 309.53C285.97 309.53 290.73 307.562 294.249 304.042H298.119C304.227 304.042 309.972 301.143 313.612 296.235L318.264 295.817C324.979 295.21 330.548 290.369 332.099 283.816C339.084 282.94 344.842 277.924 346.662 271.114C346.972 269.954 346.918 268.741 346.514 267.608H346.487Z" fill="#E8BB9F"/>
<path d="M331.047 282.859C328.242 280.621 325.451 278.356 322.7 276.063L314.475 269.132L306.344 262.08C303.647 259.72 300.977 257.32 298.334 254.893C301.139 257.131 303.93 259.383 306.681 261.689L314.906 268.62L323.037 275.672C325.734 278.032 328.404 280.432 331.047 282.859Z" fill="#D19584"/>
<path d="M313.019 295.724C310.228 293.391 307.463 291.045 304.726 288.658L296.555 281.457L288.491 274.135C285.821 271.681 283.165 269.2 280.549 266.679C283.34 269.011 286.104 271.358 288.842 273.744L297.013 280.945L305.077 288.267C307.746 290.721 310.403 293.202 313.019 295.724Z" fill="#D19584"/>
<path d="M293.143 302.101C290.581 300.078 288.046 298.029 285.538 295.952L278.054 289.655L270.664 283.25C268.21 281.093 265.797 278.908 263.396 276.697C265.958 278.719 268.494 280.769 271.002 282.846L278.485 289.143L285.861 295.548C288.315 297.705 290.729 299.89 293.129 302.088L293.143 302.101Z" fill="#D19584"/>
<path d="M158.23 256.12L136.439 276.589L147.065 250.578L158.23 256.12Z" fill="#212E52"/>
<path d="M136.442 276.588L183.245 161.986L119.263 131.552L104.7 124.055C92.8204 141.908 84.0017 161.784 78.9452 183.049C78.5676 184.667 78.2035 186.285 77.8664 187.916C77.8125 188.199 77.7586 188.483 77.6911 188.766C77.4215 190.114 77.1518 191.476 76.9091 192.838C76.8281 193.256 76.7607 193.674 76.6933 194.092C76.4776 195.319 76.2753 196.546 76.0865 197.787C76.0056 198.286 75.9382 198.798 75.8708 199.297C75.709 200.457 75.5471 201.616 75.4123 202.776C75.3449 203.329 75.2775 203.895 75.21 204.448C75.0887 205.567 74.9673 206.686 74.8595 207.806C74.8055 208.399 74.7516 208.992 74.6976 209.585C74.6033 210.705 74.5224 211.824 74.4549 212.943C74.4145 213.536 74.374 214.13 74.3336 214.723C74.2662 215.909 74.2257 217.096 74.1718 218.283C74.1583 218.809 74.1178 219.334 74.1043 219.874C74.0504 221.586 74.0234 223.299 74.0234 225.025C74.0234 226.562 74.0504 228.099 74.0909 229.623C74.1178 230.823 74.1718 232.023 74.2257 233.21C74.2257 233.493 74.2392 233.79 74.2662 234.073C74.4145 237.026 74.6302 239.965 74.9269 242.891L136.442 276.602V276.588Z" fill="#273866"/>
<path d="M181.937 165.195L147.066 250.577L171.756 262.82L180.345 239.708L203.363 177.776L204.28 175.321L181.937 165.195Z" fill="#CACACA"/>
<path opacity="0.21" d="M78.0282 244.59L88.9774 250.591L95.5981 197.328L104.7 124.068C93.4542 140.978 84.9456 159.721 79.7812 179.731L78.9452 183.048C78.5676 184.666 78.2035 186.284 77.8664 187.916C77.8125 188.199 77.7586 188.482 77.6911 188.766C77.4215 190.114 77.1518 191.476 76.9091 192.838C76.8281 193.256 76.7607 193.674 76.6933 194.092C76.4776 195.319 76.2753 196.546 76.0865 197.786C76.0056 198.285 75.9382 198.798 75.8708 199.297C75.709 200.456 75.5471 201.616 75.4123 202.776C75.3449 203.328 75.2775 203.895 75.21 204.448C75.0887 205.567 74.9673 206.686 74.8595 207.805C74.8055 208.399 74.7516 208.992 74.6976 209.585C74.6033 210.704 74.5224 211.823 74.4549 212.943C74.4145 213.536 74.374 214.129 74.3336 214.723C74.2662 215.909 74.2257 217.096 74.1718 218.282C74.1583 218.808 74.1178 219.334 74.1043 219.874C74.0504 221.586 74.0234 223.299 74.0234 225.024C74.0234 226.562 74.0504 228.099 74.0909 229.623C74.1178 230.823 74.1718 232.009 74.2257 233.209C74.2257 233.493 74.2392 233.789 74.2662 234.072C74.4145 237.025 74.6302 239.965 74.9269 242.891L78.0417 244.59H78.0282Z" fill="#212E52"/>
<path d="M119.746 253.841C119.746 255.634 121.202 257.09 122.996 257.09C124.789 257.09 126.245 255.634 126.245 253.841C126.245 252.047 124.789 250.591 122.996 250.591C121.202 250.591 119.746 252.047 119.746 253.841Z" fill="#CACACA"/>
<path d="M113.463 252.897C115.257 252.897 116.712 251.442 116.712 249.647C116.712 247.852 115.257 246.397 113.463 246.397C111.668 246.397 110.213 247.852 110.213 249.647C110.213 251.442 111.668 252.897 113.463 252.897Z" fill="#CACACA"/>
<path d="M122.996 250.578C123.252 250.578 123.508 250.618 123.751 250.672C122.322 251.009 121.256 252.29 121.256 253.827C121.256 255.365 122.322 256.632 123.751 256.983C123.508 257.037 123.252 257.077 122.996 257.077C121.202 257.077 119.746 255.621 119.746 253.827C119.746 252.034 121.202 250.578 122.996 250.578Z" fill="#B6B6B6"/>
<path d="M113.463 246.397C113.719 246.397 113.975 246.438 114.218 246.492C112.788 246.829 111.723 248.11 111.723 249.647C111.723 251.184 112.788 252.452 114.218 252.802C113.975 252.856 113.719 252.897 113.463 252.897C111.669 252.897 110.213 251.441 110.213 249.647C110.213 247.854 111.669 246.397 113.463 246.397Z" fill="#B6B6B6"/>
<path d="M358.68 164.588L405.483 279.19L466.715 245.641C467.484 238.859 467.888 231.982 467.888 225.011C467.888 188.832 457.209 155.041 438.722 126.347L422.662 134.154L358.68 164.588Z" fill="#3A62F1"/>
<path d="M359.988 167.797L337.645 177.91L370.168 265.423L394.858 253.179L359.988 167.797Z" fill="#CACACA"/>
<path d="M383.693 258.721L405.484 279.19L394.858 253.179L383.693 258.721Z" fill="#284199"/>
<path opacity="0.14" d="M466.716 245.642C467.485 238.859 467.889 231.982 467.889 225.011C467.889 188.846 457.223 155.055 438.736 126.374L452.949 253.193L466.716 245.655V245.642Z" fill="#273866"/>
<path d="M418.379 259.449C420.173 259.449 421.628 257.994 421.628 256.199C421.628 254.405 420.173 252.95 418.379 252.95C416.584 252.95 415.129 254.405 415.129 256.199C415.129 257.994 416.584 259.449 418.379 259.449Z" fill="#CACACA"/>
<path d="M431.175 252.019C431.175 253.813 429.719 255.269 427.925 255.269C426.132 255.269 424.676 253.813 424.676 252.019C424.676 250.226 426.132 248.77 427.925 248.77C429.719 248.77 431.175 250.226 431.175 252.019Z" fill="#CACACA"/>
<path d="M418.374 252.95C418.118 252.95 417.862 252.991 417.619 253.045C419.048 253.382 420.114 254.663 420.114 256.2C420.114 257.737 419.048 259.005 417.619 259.355C417.862 259.409 418.118 259.45 418.374 259.45C420.168 259.45 421.624 257.993 421.624 256.2C421.624 254.406 420.168 252.95 418.374 252.95Z" fill="#B6B6B6"/>
<path d="M427.907 248.756C427.651 248.756 427.395 248.797 427.152 248.851C428.582 249.188 429.647 250.469 429.647 252.006C429.647 253.543 428.582 254.811 427.152 255.161C427.395 255.215 427.651 255.256 427.907 255.256C429.701 255.256 431.157 253.799 431.157 252.006C431.157 250.213 429.701 248.756 427.907 248.756Z" fill="#B6B6B6"/>
<path d="M341.19 187.471L338.089 179.124L298.553 167.635C293.038 166.031 287.132 166.408 281.859 168.687L266.245 175.443L250.724 182.158C245.681 184.342 242.122 188.954 241.272 194.388L236.687 224.08C236.054 228.206 238.44 232.265 242.418 233.546C246.598 234.895 251.601 234.288 255.471 231.712C257.844 230.135 259.759 227.95 261.04 225.402L268.106 211.27C268.969 209.544 270.668 208.398 272.582 208.223L279.594 207.616C281.63 207.441 283.653 208.128 285.15 209.504L345.491 264.924L365.812 253.745L341.176 187.457L341.19 187.471Z" fill="#CF9B80"/>
<path opacity="0.14" d="M301.275 224.323L345.504 264.937L365.838 253.759L341.189 187.471L301.275 224.323Z" fill="#606060"/>
<path d="M219.362 262.955C218.404 264.722 217.339 266.407 216.287 268.106C215.195 269.778 214.116 271.464 212.93 273.068C213.887 271.302 214.952 269.616 216.004 267.917C217.096 266.245 218.175 264.56 219.362 262.955Z" fill="#B38671"/>
<path d="M239.52 273.068C238.347 275.536 237.053 277.936 235.772 280.336C234.45 282.723 233.142 285.11 231.727 287.443C232.9 284.975 234.194 282.575 235.475 280.175C236.797 277.788 238.105 275.401 239.52 273.068Z" fill="#B38671"/>
<path d="M256.861 285.716C255.93 287.752 254.878 289.735 253.827 291.717C252.748 293.685 251.683 295.654 250.496 297.555C251.427 295.519 252.478 293.537 253.53 291.555C254.609 289.586 255.674 287.618 256.861 285.716Z" fill="#B38671"/>
<path d="M203.624 246.06C203.624 246.06 194.738 250.388 197.341 266.219C199.943 282.036 210.555 275.536 210.555 275.536C210.555 275.536 211.499 296.841 229.703 290.342C229.703 290.342 234.395 305.08 248.055 299.875C248.055 299.875 249.74 315.341 262.995 308.91L271.018 305.013L264.087 299.592C264.087 299.592 269.077 282.683 257.804 283.991C257.804 283.991 257.372 264.493 240.895 270.345C240.895 270.345 237.861 252.357 220.088 261.89C220.088 261.89 217.122 238.63 203.624 246.073V246.06Z" fill="#CF9B80"/>
<path d="M320.157 70.0229H236.407C233.333 70.0229 230.852 72.5175 230.852 75.5784V121.775C230.852 124.85 233.346 127.331 236.407 127.331H240.398L250.849 136.77C251.631 137.471 252.831 137.417 253.532 136.648L262.135 127.331H320.144C323.218 127.331 325.699 124.836 325.699 121.775V75.5784C325.699 72.504 323.205 70.0229 320.144 70.0229H320.157Z" fill="#86A3FB"/>
<path d="M263.698 97.8005C263.698 101.239 260.906 104.03 257.468 104.03C254.03 104.03 251.238 101.239 251.238 97.8005C251.238 94.362 254.03 91.5708 257.468 91.5708C260.906 91.5708 263.698 94.362 263.698 97.8005Z" fill="white"/>
<path d="M284.842 97.8005C284.842 101.239 282.051 104.03 278.613 104.03C275.174 104.03 272.383 101.239 272.383 97.8005C272.383 94.362 275.174 91.5708 278.613 91.5708C282.051 91.5708 284.842 94.362 284.842 97.8005Z" fill="white"/>
<path d="M305.338 97.8005C305.338 101.239 302.547 104.03 299.109 104.03C295.67 104.03 292.879 101.239 292.879 97.8005C292.879 94.362 295.67 91.5708 299.109 91.5708C302.547 91.5708 305.338 94.362 305.338 97.8005Z" fill="white"/>
</svg>
