<svg width="670" height="394" viewBox="0 0 670 394" fill="none" xmlns="http://www.w3.org/2000/svg">
<g clip-path="url(#clip0_80_2828)">
<path d="M664.177 181.306C664.177 181.306 592.231 206.421 558.95 267.712C539.155 304.164 537.494 345.175 539.405 372.444H599.175C617.258 358.916 635.978 340.615 648.891 316.84C682.173 255.549 664.19 181.293 664.19 181.293L664.177 181.306Z" fill="#B4D2E4"/>
<path d="M653.585 199.565L560.469 371.082L561.566 371.681L654.681 200.164L653.585 199.565Z" fill="#F2F6FF"/>
<path d="M656.401 248.559L623.412 255.556L623.67 256.781L656.66 249.784L656.401 248.559Z" fill="#F2F6FF"/>
<path d="M630.949 329.677L576.935 341.144L577.193 342.37L631.208 330.903L630.949 329.677Z" fill="#F2F6FF"/>
<path d="M583.368 255.5L582.202 255.948L599.116 300.261L600.283 299.813L583.368 255.5Z" fill="#F2F6FF"/>
<path d="M551.824 337.027L550.658 337.475L562.321 368.03L563.487 367.582L551.824 337.027Z" fill="#F2F6FF"/>
<path d="M555.303 245.39C568.703 236.872 595.291 214.375 605.219 190.112C620.168 153.598 602.959 113.902 602.959 113.902C602.959 113.902 561.522 133.43 546.574 169.944C538.543 189.561 539.792 210.091 542.665 224.885L555.303 245.378V245.39Z" fill="#B4D2E4"/>
<path d="M554.654 233.603L553.492 233.127L597.876 124.7L599.025 125.176L554.654 233.603Z" fill="#F2F6FF"/>
<path d="M575.28 141.668L574.212 142.317L584.201 158.861L585.269 158.212L575.28 141.668Z" fill="#F2F6FF"/>
<path d="M548.017 182.051L546.948 182.7L563.308 209.784L564.376 209.135L548.017 182.051Z" fill="#F2F6FF"/>
<path d="M601.006 175.021L573.799 184.062L574.192 185.251L601.399 176.21L601.006 175.021Z" fill="#F2F6FF"/>
<path d="M576.036 218.229L557.281 224.461L557.674 225.65L576.428 219.418L576.036 218.229Z" fill="#F2F6FF"/>
<path d="M401.933 393.157C371.838 393.157 348.074 380.959 332.935 357.938L330.274 388.021H266.23V386.278C267.24 371.787 268.249 344.089 268.249 317.582V50.1367H343.119V179.549C358.167 159.83 382.481 149.099 412.209 149.099C437.166 149.099 459.37 158.179 476.528 175.422C497.814 196.792 509.375 229.351 509.1 267.138C509.1 353.719 453.498 393.157 401.933 393.157ZM330.182 352.71H333.485L333.944 353.535C352.111 383.618 380.921 389.947 401.933 389.947C452.03 389.947 505.889 351.518 505.889 267.138C506.164 230.268 494.878 198.442 474.234 177.715C457.718 161.114 436.34 152.401 412.209 152.401C382.206 152.401 357.891 163.682 343.761 184.226L343.303 184.96H339.908V53.3468H271.46V317.582C271.46 343.171 270.543 369.861 269.717 384.811H327.338L330.182 352.802V352.71ZM384.958 336.568C364.406 336.568 346.514 322.077 341.468 301.44C340.458 297.588 340 293.186 340 288.325V254.39C340 249.62 340.458 245.31 341.468 240.816C346.33 219.629 364.589 204.221 384.958 204.221C416.521 204.221 436.065 229.443 436.065 269.981C436.065 310.52 416.98 336.659 384.958 336.659V336.568ZM384.958 207.431C366.057 207.431 349.083 221.739 344.587 241.549C343.67 245.768 343.211 249.804 343.211 254.39V288.325C343.211 292.911 343.67 297.038 344.587 300.615C349.267 319.875 365.874 333.358 384.958 333.358C414.962 333.358 432.853 309.603 432.853 269.89C432.853 239.715 420.283 207.431 384.958 207.431Z" fill="white"/>
<path fill-rule="evenodd" clip-rule="evenodd" d="M330.182 352.71H333.485L333.944 353.535C352.111 383.618 380.921 389.947 401.933 389.947C452.03 389.947 505.889 351.518 505.889 267.138C506.164 230.268 494.878 198.442 474.234 177.715C457.718 161.114 436.34 152.401 412.209 152.401C382.206 152.401 357.891 163.682 343.761 184.226L343.303 184.96H339.908V53.3468H271.46V317.582C271.46 343.171 270.543 369.861 269.717 384.811H327.338L330.182 352.802V352.71ZM341.468 301.44C346.514 322.077 364.406 336.568 384.958 336.568V336.659C416.98 336.659 436.065 310.52 436.065 269.981C436.065 229.443 416.521 204.221 384.958 204.221C364.589 204.221 346.33 219.629 341.468 240.816C340.458 245.31 340 249.62 340 254.39V288.325C340 293.186 340.458 297.588 341.468 301.44Z" fill="white"/>
<path d="M401.933 393.157C371.838 393.157 348.074 380.959 332.935 357.938L330.274 388.021H266.23V386.279C267.24 371.787 268.249 344.089 268.249 317.583V50.1372H343.119V179.549C358.167 159.83 382.481 149.099 412.209 149.099C437.166 149.099 459.37 158.179 476.528 175.422C497.814 196.792 509.375 229.352 509.1 267.139C509.1 353.719 453.498 393.157 401.933 393.157ZM330.182 352.71H333.485L333.944 353.536C352.111 383.619 380.921 389.947 401.933 389.947C452.03 389.947 505.889 351.518 505.889 267.139C506.164 230.269 494.878 198.443 474.234 177.715C457.718 161.114 436.34 152.401 412.209 152.401C382.206 152.401 357.891 163.682 343.761 184.227L343.303 184.961H339.908V53.3473H271.46V317.583C271.46 343.172 270.543 369.861 269.717 384.811H327.338L330.182 352.802V352.71ZM384.959 336.568C364.406 336.568 346.514 322.077 341.468 301.441C340.458 297.589 340 293.186 340 288.325V254.39C340 249.621 340.458 245.31 341.468 240.816C346.331 219.63 364.589 204.221 384.959 204.221C416.521 204.221 436.065 229.443 436.065 269.982C436.065 310.521 416.98 336.66 384.959 336.66V336.568ZM384.959 207.431C366.057 207.431 349.083 221.739 344.587 241.55C343.67 245.769 343.211 249.804 343.211 254.39V288.325C343.211 292.911 343.67 297.038 344.587 300.615C349.267 319.876 365.874 333.358 384.959 333.358C414.962 333.358 432.853 309.604 432.853 269.89C432.853 239.715 420.283 207.431 384.959 207.431Z" fill="#1A73E8"/>
<path d="M91.6246 44.267L93.4597 42.5244L100.8 50.5038C103.002 52.8884 106.672 53.0718 109.058 50.8706L115.48 45.0008C117.132 43.4416 119.334 42.7078 121.536 42.7996C123.83 42.8913 125.848 43.9002 127.408 45.5511L132.179 50.8706C133.28 52.0629 134.748 52.705 136.308 52.7967C137.868 52.7967 139.428 52.3381 140.529 51.2375L146.126 46.0096C147.869 44.3587 150.071 43.625 152.457 43.7167C154.751 43.9002 156.953 45.0008 158.421 46.7434L161.357 50.412C162.458 51.6961 164.018 52.5215 165.761 52.5215C167.504 52.5215 169.156 51.8795 170.257 50.5955L177.047 42.983L178.973 44.7256L172.184 52.3381C170.532 54.1724 168.146 55.1813 165.669 55.1813C163.192 55.1813 160.898 53.989 159.338 52.0629L156.402 48.486C155.301 47.202 153.833 46.4682 152.182 46.3765C150.53 46.2848 148.97 46.8351 147.777 47.9357L142.18 53.1635C140.529 54.7227 138.327 55.5482 136.033 55.4565C133.739 55.3647 131.629 54.3559 130.161 52.705L125.298 47.3854C124.197 46.1931 122.821 45.5511 121.261 45.4593C119.701 45.4593 118.141 45.9179 117.04 47.0185L110.617 52.8884C107.223 56.0068 101.901 55.7316 98.6896 52.3381L91.3494 44.3587L91.6246 44.267Z" fill="#48A2E5"/>
<path d="M125.206 311.621L103.919 388.296H33.912L125.206 89.667H213.839L306.51 388.296H233.842L210.812 311.621H125.298H125.206ZM200.994 261.085L182.368 197.709C177.046 180.008 171.725 157.812 167.321 140.111H166.403C161.999 157.812 157.503 180.466 152.64 197.709L134.932 261.085H200.994Z" fill="#E63950"/>
<path d="M615.35 382.885C607.459 386.828 589.843 391.047 566.904 391.047C501.668 391.047 467.995 350.417 467.995 296.671C467.995 232.286 513.963 196.425 571.125 196.425C593.237 196.425 610.028 200.919 617.644 204.863L608.927 238.798C600.211 235.129 588.191 231.827 573.052 231.827C539.195 231.827 512.862 252.28 512.862 294.286C512.862 332.074 535.25 355.92 573.327 355.92C586.264 355.92 600.486 353.168 608.927 349.775L615.35 383.068V382.885Z" fill="#FBB433"/>
<path d="M311.281 121.125L308.437 121.034L308.987 128.371L311.831 127.912L311.281 121.125Z" fill="#FBB433"/>
<path d="M312.749 111.036L309.996 110.303C309.996 110.303 309.538 112.045 309.079 113.88C308.895 115.714 308.712 117.548 308.712 117.548L311.556 117.823C311.556 117.823 311.74 116.173 311.923 114.43C312.382 112.779 312.749 111.128 312.749 111.128V111.036Z" fill="#FBB433"/>
<path d="M316.327 101.498L313.758 100.214C313.758 100.214 313.024 101.865 312.29 103.516C311.556 105.167 310.822 106.818 310.914 106.91L313.575 107.827C313.575 107.827 314.217 106.268 314.951 104.617C315.685 103.058 316.327 101.498 316.327 101.498Z" fill="#FBB433"/>
<path d="M321.924 92.8769L319.722 91.1343C319.722 91.1343 318.438 92.4183 317.52 93.9775C316.511 95.5367 315.593 97.0959 315.593 97.0959L318.071 98.5633C318.071 98.5633 318.988 97.0959 319.906 95.6284C320.731 94.0692 322.016 92.9686 322.016 92.8769H321.924Z" fill="#FBB433"/>
<path d="M329.081 85.5396L327.246 83.3384C327.246 83.3384 325.87 84.5307 324.585 85.723C323.117 86.8236 322.108 88.3828 322.108 88.3828L324.218 90.3088C324.218 90.3088 325.227 88.9331 326.604 87.8325C327.888 86.7319 329.173 85.5396 329.173 85.5396H329.081Z" fill="#FBB433"/>
<path d="M337.43 79.5779L335.962 77.1016L329.907 81.0454L331.65 83.3383L337.43 79.5779Z" fill="#FBB433"/>
<path d="M346.789 75.2672L345.78 72.6074L339.174 75.5424L340.458 78.1104C340.458 78.1104 346.697 75.0838 346.789 75.3589V75.2672Z" fill="#FBB433"/>
<path d="M356.699 72.6997L356.24 69.8564C356.24 69.8564 354.405 70.1316 352.661 70.4067C350.918 70.957 349.175 71.5073 349.175 71.5073L350.001 74.2588C350.001 74.2588 351.652 73.7086 353.304 73.25C354.955 72.8831 356.699 72.6997 356.699 72.6997Z" fill="#FBB433"/>
<path d="M366.975 71.7822V68.939C366.975 68.939 365.14 68.939 363.305 68.939C362.387 68.939 361.47 69.0307 360.827 69.1224C360.185 69.2141 359.726 69.3058 359.726 69.3058L360.093 72.149C360.093 72.149 361.745 71.7822 363.488 71.7822C365.231 71.7822 366.975 71.7822 366.975 71.7822Z" fill="#FBB433"/>
<path d="M377.251 72.4243L377.618 69.5811C377.618 69.5811 370.461 68.5722 370.461 68.8474V71.6906L377.251 72.4243Z" fill="#FBB433"/>
<path d="M387.436 74.5336L388.17 71.7821C388.17 71.7821 381.288 69.7643 381.196 70.0395L380.646 72.8827L387.436 74.5336Z" fill="#FBB433"/>
<path d="M397.161 77.9271L398.262 75.2674C398.262 75.2674 396.611 74.5336 394.959 73.8916C394.134 73.5247 393.308 73.2496 392.666 73.0662C392.023 72.8827 391.565 72.791 391.565 72.791L390.739 75.5425C390.739 75.5425 391.198 75.6342 391.748 75.8177C392.39 76.0011 393.216 76.2762 394.042 76.6431C395.693 77.2851 397.253 78.0189 397.253 78.0189L397.161 77.9271Z" fill="#FBB433"/>
<path d="M406.612 82.3295L407.988 79.7614L404.869 78.0188C403.217 77.2851 401.566 76.6431 401.566 76.6431L400.373 79.2111C400.373 79.2111 402.024 79.8531 403.584 80.5869C405.144 81.4123 406.612 82.3295 406.612 82.3295Z" fill="#FBB433"/>
<path d="M415.604 87.466L417.255 85.0813C417.255 85.0813 415.696 84.1642 414.136 83.247C412.576 82.3298 411.016 81.5044 411.016 81.5044L409.64 83.9807C409.64 83.9807 411.2 84.8062 412.668 85.7234C414.136 86.5488 415.696 87.466 415.696 87.466H415.604Z" fill="#FBB433"/>
<path d="M423.495 94.161L425.513 92.1433C425.513 92.1433 424.229 90.951 422.852 89.6669C421.476 88.4746 420.1 87.374 420.1 87.374L418.265 89.5752C418.265 89.5752 419.549 90.6758 420.925 91.7764C422.21 92.9687 423.495 94.161 423.495 94.161Z" fill="#FBB433"/>
<path d="M430.376 101.865L432.67 100.123C432.67 100.123 431.569 98.6552 430.376 97.2794C429.183 95.9037 427.99 94.6196 427.99 94.6196L425.88 96.5457C425.88 96.5457 427.073 97.8297 428.174 99.1137C429.275 100.489 430.284 101.774 430.284 101.774L430.376 101.865Z" fill="#FBB433"/>
<path d="M435.331 110.578L437.992 109.569C437.992 109.569 434.78 102.966 434.597 103.058L432.211 104.617C432.211 104.617 435.606 110.487 435.331 110.67V110.578Z" fill="#FBB433"/>
<path d="M436.615 120.209L439.46 120.667C439.46 120.667 439.551 118.741 439.735 116.815C439.46 114.981 439.184 113.055 439.184 113.055L436.432 113.697C436.432 113.697 436.707 115.348 436.891 116.999C436.799 118.649 436.615 120.209 436.615 120.209Z" fill="#FBB433"/>
<path d="M432.395 128.83L434.597 130.664C434.597 130.664 438.909 124.428 438.542 124.244L435.881 123.235C435.881 123.235 435.789 123.602 435.606 124.244C435.331 124.795 434.872 125.437 434.413 126.17C433.954 126.904 433.587 127.546 433.22 128.096C432.762 128.555 432.486 128.83 432.486 128.83H432.395Z" fill="#FBB433"/>
<path d="M424.596 133.507V136.35C424.596 136.35 426.614 136.35 428.724 135.433C429.825 135.066 430.284 134.516 430.927 134.149C431.752 133.599 431.844 133.324 431.936 133.324L430.009 131.214C430.009 131.214 429.642 131.673 429.367 131.856C428.816 132.132 427.99 132.957 427.44 132.957C426.339 133.507 424.596 133.507 424.596 133.599V133.507Z" fill="#FBB433"/>
<path d="M415.512 130.573L414.044 133.049C414.044 133.049 415.604 133.966 417.347 134.792C418.265 135.159 419.09 135.434 419.824 135.709C420.558 135.892 421.017 135.984 421.017 135.984L421.66 133.233C421.66 133.233 421.293 133.233 420.65 133.049C420.1 132.866 419.274 132.591 418.54 132.224C417.072 131.49 415.604 130.664 415.604 130.664L415.512 130.573Z" fill="#FBB433"/>
<path d="M407.713 124.061L405.603 125.987C405.603 125.987 410.924 131.031 411.016 130.939L412.759 128.646C412.759 128.646 407.621 124.152 407.713 124.061Z" fill="#FBB433"/>
<path d="M401.382 115.99L398.996 117.549C398.996 117.549 399.914 119.108 401.015 120.576C402.024 122.043 403.217 123.419 403.217 123.419L405.419 121.584C405.419 121.584 404.318 120.3 403.309 118.833C402.208 117.457 401.382 115.99 401.382 115.99Z" fill="#FBB433"/>
<path d="M396.703 106.818L394.042 107.918C394.042 107.918 394.684 109.661 395.51 111.22C396.244 112.871 397.161 114.43 397.161 114.43L399.639 113.055C399.639 113.055 398.721 111.587 398.079 110.028C397.345 108.469 396.703 106.91 396.703 106.91V106.818Z" fill="#FBB433"/>
<path d="M393.95 97.0043L391.106 97.4629C391.106 97.4629 391.381 99.2972 391.84 101.04C392.207 102.782 392.849 104.525 392.849 104.525L395.602 103.608C395.602 103.608 394.959 101.957 394.684 100.306C394.317 98.6552 393.95 96.9126 393.95 96.9126V97.0043Z" fill="#FBB433"/>
<path d="M393.491 86.9152L390.647 86.5483C390.647 86.5483 390.647 88.3827 390.464 90.217C390.464 92.0513 390.647 93.8857 390.647 93.8857L393.491 93.7022C393.491 93.7022 393.491 91.9596 393.308 90.3087C393.308 88.6578 393.491 86.9152 393.491 86.9152Z" fill="#FBB433"/>
<path d="M395.969 77.1016L393.308 76.001C393.308 76.001 392.574 77.6519 392.023 79.4862C391.564 81.2288 391.106 83.0632 391.106 83.0632L393.95 83.6135C393.95 83.6135 394.317 81.9626 394.776 80.3117C395.235 78.6608 395.969 77.1016 395.969 77.1016Z" fill="#FBB433"/>
<path d="M401.199 68.4804L398.905 66.7378C398.905 66.7378 394.592 72.6994 394.776 72.7911L397.345 74.1668C397.345 74.1668 401.015 68.3887 401.199 68.5721V68.4804Z" fill="#FBB433"/>
<path d="M408.631 61.6015L406.887 59.3086C406.887 59.3086 405.419 60.3175 404.043 61.6015L401.382 64.0779L403.492 66.0039C403.492 66.0039 404.777 64.8116 405.97 63.711C407.254 62.6104 408.631 61.6015 408.631 61.6015Z" fill="#FBB433"/>
<path d="M417.439 56.2819L416.154 53.7139C416.154 53.7139 414.503 54.4476 412.943 55.3648C411.383 56.2819 409.823 57.2908 409.823 57.2908L411.383 59.6754C411.383 59.6754 412.851 58.7583 414.319 57.8411C415.879 57.0157 417.439 56.2819 417.439 56.2819Z" fill="#FBB433"/>
<path d="M426.981 52.6133L426.247 49.8618L419.366 52.2465L420.467 54.9062C420.467 54.9062 426.889 52.4299 426.981 52.6133Z" fill="#FBB433"/>
<path d="M437.074 50.6875L436.799 47.8442C436.799 47.8442 434.964 48.0277 433.22 48.3028C431.385 48.578 429.642 48.9448 429.642 48.9448L430.192 51.6963C430.192 51.6963 431.844 51.3295 433.587 51.146C435.331 50.8709 436.982 50.6875 436.982 50.6875H437.074Z" fill="#FBB433"/>
<path d="M447.442 50.6873L447.625 47.8441C447.625 47.8441 445.79 47.8441 444.047 47.6606C442.212 47.4772 440.469 47.6606 440.469 47.6606V50.5038C440.469 50.5038 442.304 50.3204 444.047 50.5038C445.79 50.5038 447.534 50.6873 447.534 50.6873H447.442Z" fill="#FBB433"/>
<path d="M457.627 52.1548L458.269 49.4033C458.269 49.4033 456.526 49.0364 454.782 48.6695C453.039 48.4861 451.204 48.2109 451.204 48.2109L450.837 51.0542C450.837 51.0542 452.58 51.2376 454.324 51.5127C456.067 51.8796 457.718 52.2465 457.718 52.2465L457.627 52.1548Z" fill="#FBB433"/>
<path d="M467.628 54.9978L468.545 52.338L461.664 50.2285L460.93 52.98C460.93 52.98 467.628 54.9061 467.536 55.0895L467.628 54.9978Z" fill="#FBB433"/>
<path d="M477.17 59.0334L478.455 56.4653C478.455 56.4653 471.94 53.4386 471.848 53.5304L470.747 56.1901L477.17 59.0334Z" fill="#FBB433"/>
<path d="M486.162 64.1695L487.722 61.7849C487.722 61.7849 486.162 60.8677 484.694 59.8588C483.134 59.0334 481.574 58.1162 481.574 58.1162L480.198 60.5926C480.198 60.5926 481.758 61.418 483.226 62.2435C484.694 63.1606 486.162 64.0778 486.162 64.0778V64.1695Z" fill="#FBB433"/>
<path d="M494.695 70.2228L496.53 68.0216C496.53 68.0216 495.154 66.8293 493.686 65.8204C492.217 64.7198 490.749 63.7109 490.749 63.7109L489.098 66.0956C489.098 66.0956 490.474 67.1044 491.942 68.1133C493.41 69.1222 494.695 70.2228 494.695 70.2228Z" fill="#FBB433"/>
<path d="M502.402 77.1014L504.421 75.0836C504.421 75.0836 503.136 73.7996 501.851 72.6073C500.567 71.3232 499.191 70.2227 499.191 70.2227L497.356 72.4239L502.494 77.1931L502.402 77.1014Z" fill="#FBB433"/>
<path d="M509.192 84.8975L511.486 83.1549C511.486 83.1549 510.385 81.6874 509.283 80.3116C508.091 78.9359 506.898 77.6519 506.898 77.6519L504.788 79.5779C504.788 79.5779 505.98 80.8619 507.081 82.146C508.182 83.5217 509.192 84.8975 509.192 84.8975Z" fill="#FBB433"/>
<path d="M514.972 93.5188L517.449 92.1431L513.596 85.998L511.302 87.6489C511.302 87.6489 515.156 93.4271 514.972 93.5188Z" fill="#FBB433"/>
<path d="M519.285 102.874L521.945 101.865C521.945 101.865 521.303 100.214 520.569 98.563C519.927 96.9121 519.101 95.2612 519.101 95.2612L516.532 96.5453C516.532 96.5453 517.266 98.1044 518 99.6636C518.642 101.223 519.376 102.874 519.376 102.874H519.285Z" fill="#FBB433"/>
<path d="M521.945 112.779L524.79 112.321C524.79 112.321 523.322 105.167 523.138 105.259L520.386 106.084L521.945 112.779Z" fill="#FBB433"/>
<path d="M522.404 122.96L525.249 123.143C525.249 123.143 525.249 121.309 525.34 119.475C525.34 117.64 525.065 115.806 525.065 115.806L522.221 116.081C522.221 116.081 522.496 117.824 522.404 119.475C522.404 121.217 522.404 122.868 522.404 122.868V122.96Z" fill="#FBB433"/>
<path d="M520.661 133.049L523.413 133.874C523.413 133.874 523.872 132.132 524.423 130.389C524.698 128.555 524.973 126.812 524.973 126.812L522.129 126.445C522.129 126.445 521.854 128.096 521.578 129.839C521.12 131.49 520.661 133.141 520.661 133.141V133.049Z" fill="#FBB433"/>
<path d="M516.715 142.404L519.193 143.779L522.312 137.176L519.652 136.167C519.652 136.167 516.991 142.495 516.715 142.404Z" fill="#FBB433"/>
<path d="M510.935 150.934L513.137 152.768C513.137 152.768 517.633 147.081 517.358 146.898L514.972 145.339C514.972 145.339 514.789 145.706 514.422 146.256C514.055 146.806 513.504 147.448 512.954 148.182C511.944 149.558 510.843 150.934 510.843 150.934H510.935Z" fill="#FBB433"/>
<path d="M503.778 158.362L505.705 160.472C505.705 160.472 507.173 159.371 508.366 157.995C509.651 156.711 510.843 155.336 510.843 155.336L508.733 153.41C508.733 153.41 507.54 154.694 506.347 155.978C505.155 157.262 503.778 158.362 503.778 158.362Z" fill="#FBB433"/>
<path d="M495.704 164.874L497.356 167.167C497.356 167.167 503.228 162.948 503.044 162.856L501.209 160.655L495.704 164.874Z" fill="#FBB433"/>
<path d="M596.54 147.082L600.027 144.055C600.027 144.055 607.184 137.726 604.156 130.756H563.234C556.169 130.756 550.389 124.978 550.389 117.916V110.303C550.389 103.241 556.169 97.4629 563.234 97.4629H630.581C637.646 97.4629 643.426 103.241 643.426 110.303V117.916C643.426 124.978 637.646 130.756 630.581 130.756H627.369C622.874 136.809 613.882 146.256 601.22 146.806L596.632 146.99L596.54 147.082ZM563.234 100.765C557.913 100.765 553.6 105.075 553.6 110.395V118.007C553.6 123.327 557.913 127.638 563.234 127.638H606.083L606.542 128.463C609.661 133.966 607.734 139.469 605.073 143.138C614.708 140.937 621.681 133.141 625.167 128.28L625.626 127.638H630.489C635.811 127.638 640.031 123.327 640.031 118.007V110.395C640.031 105.075 635.719 100.765 630.489 100.765H563.142H563.234Z" fill="#48A2E5"/>
<path d="M563.234 100.765C557.913 100.765 553.6 105.075 553.6 110.395V118.007C553.6 123.327 557.913 127.638 563.234 127.638H606.083L606.542 128.463C609.661 133.966 607.734 139.469 605.073 143.138C614.708 140.937 621.681 133.141 625.167 128.28L625.626 127.638H630.489C635.811 127.638 640.031 123.327 640.031 118.007V110.395C640.031 105.075 635.719 100.765 630.489 100.765H563.234Z" fill="#48A2E5"/>
<path d="M80.0638 1.52734H11.9832C5.74399 1.52734 0.697571 6.57176 0.697571 12.9002V20.6044C0.697571 26.8411 5.74399 31.9773 11.9832 31.9773H16.1121C20.1492 37.572 29.0492 47.6608 41.8029 48.2111C41.8029 48.2111 32.9028 40.5986 37.674 31.9773H79.972C86.2112 31.9773 91.3494 26.9328 91.3494 20.6044V12.9002C91.3494 6.66347 86.303 1.52734 79.972 1.52734L80.0638 1.52734Z" fill="#E63950"/>
<path d="M573.775 3.25781H459.289C454.059 3.25781 449.819 7.49791 449.819 12.7283V51.2074C449.819 56.4378 454.059 60.6779 459.289 60.6779H573.775C579.005 60.6779 583.245 56.4378 583.245 51.2074V12.7283C583.245 7.49791 579.005 3.25781 573.775 3.25781Z" fill="#E63950"/>
<path d="M508.755 57.3062C497.381 65.0988 487.636 74.5371 476.262 82.3297L474.649 57.532L508.755 57.29V57.3062Z" fill="#E63950"/>
<path d="M484.071 31.1048C484.216 29.5721 485.571 28.4588 487.104 28.604C488.637 28.7492 489.75 30.1045 489.605 31.6372C489.46 33.1699 488.104 34.2831 486.572 34.1379C485.039 33.9927 483.926 32.6375 484.071 31.1048Z" fill="white"/>
<path d="M511.998 30.9915C512.144 29.4588 513.499 28.3456 515.031 28.4908C516.564 28.636 517.677 29.9912 517.532 31.5239C517.387 33.0566 516.032 34.1699 514.499 34.0246C512.966 33.8794 511.853 32.5242 511.998 30.9915Z" fill="white"/>
<path d="M537.586 30.6692C537.732 29.1365 539.087 28.0233 540.619 28.1685C542.152 28.3137 543.265 29.6689 543.12 31.2016C542.975 32.7344 541.62 33.8476 540.087 33.7024C538.554 33.5572 537.441 32.2019 537.586 30.6692Z" fill="white"/>
<path d="M148.592 314.808H34.1067C28.8763 314.808 24.6362 319.048 24.6362 324.278V362.757C24.6362 367.988 28.8763 372.228 34.1067 372.228H148.592C153.822 372.228 158.063 367.988 158.063 362.757V324.278C158.063 319.048 153.822 314.808 148.592 314.808Z" fill="#1A73E8"/>
<path d="M99.1257 368.855C110.5 376.648 120.245 386.086 131.619 393.879L133.233 369.081L99.1257 368.839V368.855Z" fill="#1A73E8"/>
<path d="M123.827 342.654C123.681 341.121 122.326 340.008 120.793 340.153C119.261 340.299 118.148 341.654 118.293 343.187C118.438 344.719 119.793 345.832 121.326 345.687C122.859 345.542 123.972 344.187 123.827 342.654Z" fill="white"/>
<path d="M95.8989 342.541C95.7537 341.008 94.3985 339.895 92.8658 340.04C91.3331 340.185 90.2198 341.541 90.365 343.073C90.5102 344.606 91.8655 345.719 93.3982 345.574C94.9309 345.429 96.0441 344.074 95.8989 342.541Z" fill="white"/>
<path d="M70.3108 342.219C70.1656 340.686 68.8103 339.573 67.2776 339.718C65.7449 339.863 64.6317 341.218 64.7769 342.751C64.9221 344.284 66.2773 345.397 67.81 345.252C69.3428 345.107 70.456 343.751 70.3108 342.219Z" fill="white"/>
</g>
<defs>
<clipPath id="clip0_80_2828">
<rect width="670" height="393" fill="white" transform="translate(0 0.878906)"/>
</clipPath>
</defs>
</svg>
