<svg width="284" height="246" viewBox="0 0 284 246" fill="none" xmlns="http://www.w3.org/2000/svg">
<g clip-path="url(#clip0_32_323)">
<path d="M62.8119 199.575C44.4842 182.63 35.2976 157.607 35.2976 124.587C35.2976 91.5674 44.4844 66.5444 62.8111 49.7375C81.1449 32.9239 107.574 24.4268 142.143 24.4268C176.712 24.4268 203.141 32.9239 221.475 49.7375C239.801 66.5444 248.988 91.5674 248.988 124.587C248.988 157.607 239.802 182.63 221.474 199.575C203.14 216.525 176.712 225.022 142.143 225.022C107.574 225.022 81.1455 216.525 62.8119 199.575Z" stroke="#E63950" stroke-width="0.595238"/>
<path d="M228.795 221.961C241.064 212.74 249.311 199.649 255.707 186.187C267.532 161.314 267.831 120.531 240.042 103.953C223.129 93.8627 208.504 110.563 198.529 88.3183C196.357 83.4678 195.572 78.1547 194.373 72.9938C189.869 53.6343 178.269 35.0233 159.774 26.016C141.279 17.0088 115.577 20.1126 102.687 36.0579C97.1794 42.8742 94.1182 51.5529 87.1619 57.0485C71.6974 69.2692 60.4383 65.2037 42.795 74.3266C26.6976 82.6462 10.6914 106.801 9.34641 115.334C1.60503 164.442 26.2776 178.89 48.668 205.583C67.4555 227.986 78.2642 228.594 107.154 237.157C136.045 245.72 174.155 248.636 200.142 233.08" stroke="#D1A092" stroke-miterlimit="10"/>
<g style="mix-blend-mode:multiply" opacity="0.44">
<path d="M35.8631 200.928L72.9815 236.159C76.6879 239.677 81.8062 241.284 86.8576 240.517L232.641 217.135C234.425 216.867 237.869 213.434 236.603 212.156L197.769 179.882L36.283 200.021C35.7657 200.094 35.5283 200.611 35.8631 200.928Z" fill="#C2C4C0"/>
</g>
<path d="M34.6641 195.11L77.6556 235.916L234.206 212.156L196.57 174.064L35.0841 194.203C34.5668 194.276 34.3294 194.793 34.6641 195.11Z" fill="#A33836"/>
<path d="M78.398 234.668C65.0636 221.365 51.3397 208.34 37.8105 194.921C39.4111 191.294 40.178 187.441 40.0502 183.637C40.0502 183.637 80.0777 220.841 80.2603 220.762C81.7696 221.024 82.9868 221.973 83.6867 223.105C84.3927 224.237 84.6422 225.533 84.77 226.824C84.9344 228.552 84.8674 230.347 84.0397 231.972C83.2059 233.597 81.4775 235.009 78.4041 234.675L78.398 234.668Z" fill="white"/>
<path d="M236.603 198.372C236.603 198.372 79.6213 219.813 79.4874 220.08C82.2626 222.302 83.419 225.765 82.5974 228.692C81.514 232.563 80.1447 233.646 77.053 235.344C77.053 235.344 76.84 236.026 78.0024 235.88C94.106 233.816 214.962 217.804 233.798 215.644C235.666 215.431 237.358 214.439 238.472 212.929C241.825 208.395 241.789 203.453 236.603 198.372Z" fill="#AD3937"/>
<path d="M37.0742 181.55L80.2604 220.762L236.61 198.372L198.755 158.271L37.4698 180.649C36.9586 180.722 36.7273 181.24 37.0681 181.55H37.0742Z" fill="#E63950"/>
<mask id="mask0_32_323" style="mask-type:luminance" maskUnits="userSpaceOnUse" x="165" y="166" width="58" height="34">
<path d="M222.691 194.811L189.808 199.552L165.215 170.826L198.097 166.085L222.691 194.811Z" fill="white"/>
</mask>
<g mask="url(#mask0_32_323)">
<path d="M222.691 194.811L189.808 199.552L165.215 170.826L198.097 166.085L222.691 194.811Z" fill="#1A73E8"/>
<path d="M202.266 164.12L189.486 203.886L183.546 202.954L196.326 163.188L202.266 164.12Z" fill="white"/>
<path d="M200.733 163.876L187.958 203.648L184.897 203.167L197.677 163.401L200.733 163.876Z" fill="#E63950"/>
<path d="M161.825 167.467L229.258 197.246L225.71 199.358L158.277 169.579L161.825 167.467Z" fill="white"/>
<path d="M160.912 168.015L228.345 197.794L226.519 198.877L159.086 169.098L160.912 168.015Z" fill="#E63950"/>
<path d="M213.452 200.544L204.524 201.835L173.68 165.806L182.608 164.515L213.452 200.544Z" fill="white"/>
<path d="M220.95 176.182L225.588 181.598L166.176 190.168L161.545 184.751L220.95 176.182Z" fill="white"/>
<path d="M210.914 200.909L206.965 201.482L176.121 165.452L180.071 164.886L210.914 200.909Z" fill="#E63950"/>
<path d="M222.198 177.704L224.249 180.095L164.837 188.664L162.786 186.267L222.198 177.704Z" fill="#E63950"/>
</g>
<path d="M123.532 216.478L194.415 206.837L195.133 217.896L123.848 226.994L123.532 216.478Z" fill="#ECA568"/>
<path d="M92.1585 218.809C93.6008 223.799 93.5765 229.197 92.0976 234.176C92.0976 234.176 99.7294 233.019 99.8146 232.825C100.941 227.864 100.235 222.515 97.8671 218.017L92.1585 218.809Z" fill="#9DA5E0"/>
<path d="M217.396 209.661C216.8 207.464 219.106 204.926 222.545 203.989C225.983 203.058 229.258 204.086 229.854 206.283C230.45 208.481 228.144 211.018 224.705 211.956C221.267 212.887 217.992 211.858 217.396 209.661Z" fill="#9DA5E0"/>
<g style="mix-blend-mode:multiply" opacity="0.61">
<path d="M217.706 178.349L113.021 217.847C112.662 218.005 52.4717 195.529 52.4717 195.529L42.8497 186.79L147.304 150.59C150.481 149.465 153.98 149.343 157.169 150.256L209.222 169.889C209.588 169.95 217.785 178.178 217.7 178.349H217.706Z" fill="#C2C4C0"/>
</g>
<path d="M111.987 201.804C86.7237 190.849 61.0348 180.6 35.1084 171.478C36.07 175.488 36.1491 179.675 35.364 184.264C61.2112 195.329 87.3141 205.973 113.642 216.191C116.18 212.168 115.79 206.959 111.987 201.804Z" fill="white"/>
<path d="M225.983 152.288C225.983 152.288 110.703 201.183 110.331 201.049C114.238 205.383 115.054 211.682 112.139 216.928C112.589 217.384 112.881 217.822 113.167 217.865C113.167 217.865 225.302 167.808 225.843 168.148C227.225 165.209 228.679 164.028 228.771 160.888C228.862 157.747 229.471 156.159 225.977 152.288H225.983Z" fill="#ECA568"/>
<path d="M113.021 217.853C87.4357 206.648 61.4912 196.028 35.2179 186.005C34.232 185.627 33.0635 184.733 33.7147 183.954C34.2259 183.345 35.3031 183.582 36.07 183.887C60.8643 193.679 85.6586 203.478 110.453 213.27C111.64 213.739 112.881 214.25 113.593 215.187C114.305 216.124 114.214 217.634 113.021 217.847V217.853Z" fill="#ECA568"/>
<path d="M225.983 152.288L111.408 201.853L35.6744 171.757C34.5485 171.313 34.6276 169.901 35.8022 169.487L144.017 131.091C147.194 129.965 150.694 129.843 153.883 130.756L225.989 152.295L225.983 152.288Z" fill="#FFBF87"/>
<path d="M124.323 196.266C127.841 199.729 129.715 206.174 128.699 211.006C128.699 211.006 136.915 207.707 137.304 207.555C138.315 202.023 135.923 195.7 132.466 192.742L124.323 196.266Z" fill="#C56A34"/>
<path d="M200.793 162.963C204.311 166.432 205.918 173.571 204.08 177.503C204.08 177.503 212.217 173.912 212.606 173.766C213.617 168.234 211.48 162.866 208.024 159.902L200.793 162.963Z" fill="#C56A34"/>
<g style="mix-blend-mode:multiply" opacity="0.37">
<path d="M194.385 146.811L106.284 143.537C105.901 143.525 105.529 143.683 105.298 143.969L62.258 194.964C61.7285 195.615 62.2945 196.315 63.1709 196.388L156.043 204.403C156.481 204.44 156.907 204.245 157.145 203.904L195.286 148.369C195.748 147.694 195.255 146.842 194.391 146.805L194.385 146.811Z" fill="#C2C4C0"/>
</g>
<path d="M192.139 148.838L154.917 200.368L54.1088 193.838L53.1351 190.308L152.416 196.333C152.416 196.333 189.346 146.835 189.382 146.598C189.997 146.44 190.758 146.184 191.415 146.367C192.48 146.665 192.76 147.98 192.139 148.832V148.838Z" fill="#243976"/>
<path d="M186.473 132.765C184.136 137.816 185.664 142.892 190.466 146.349C178.251 162.251 166.669 179.919 154.497 195.858C153.895 196.649 152.885 197.106 151.832 197.057C138.777 196.467 53.7559 190.502 54.2793 190.381C52.703 188.512 52.6178 188.275 52.7943 185.908C52.9708 183.534 54.115 181.215 55.959 179.481L147.571 184.672L186.461 132.765H186.473Z" fill="white"/>
<path d="M187.483 130.799L99.3825 127.525C98.9991 127.512 98.6278 127.671 98.3965 127.957L55.3564 178.951C54.8269 179.602 55.3929 180.302 56.2693 180.375L149.142 188.391C149.58 188.427 150.006 188.232 150.243 187.892L188.384 132.357C188.847 131.681 188.354 130.829 187.489 130.793L187.483 130.799Z" fill="#1A73E8"/>
<mask id="mask1_32_323" style="mask-type:luminance" maskUnits="userSpaceOnUse" x="55" y="127" width="134" height="62">
<path d="M187.483 130.799L99.3825 127.525C98.9991 127.512 98.6278 127.671 98.3965 127.957L55.3564 178.951C54.8269 179.602 55.3929 180.302 56.2693 180.375L149.142 188.391C149.58 188.427 150.006 188.232 150.243 187.892L188.384 132.357C188.847 131.681 188.354 130.829 187.489 130.793L187.483 130.799Z" fill="white"/>
</mask>
<g mask="url(#mask1_32_323)">
<path d="M115.523 122.875L63.5543 193.941L46.7387 185.835L95.8648 119.771L115.523 122.875Z" fill="white"/>
<path d="M83.5589 145.527L174.185 153.025L165.342 165.897L72.805 158.271L83.5589 145.527Z" fill="white"/>
<path d="M192.462 134.006C191.725 132.88 123.191 145.393 87.9165 149.026L88.3426 142.965L189.413 129.35L192.468 134.006H192.462Z" fill="white"/>
<path d="M191.244 132.485C190.508 131.359 124.104 143.872 88.8294 147.505L88.9511 145.095L191.153 130.148L191.244 132.485Z" fill="#E63950"/>
<path d="M167.053 200.155C167.095 198.81 103.752 169.81 72.7563 152.581L76.5783 147.858L167.223 194.592L167.059 200.161L167.053 200.155Z" fill="white"/>
<path d="M166.925 198.214C166.967 196.869 105.371 169.092 74.3751 151.857L75.854 149.952L168.191 196.242L166.925 198.214Z" fill="#E63950"/>
<path d="M81.6236 147.822L171.501 156.926L167.619 162.586L75.7628 154.772L81.6236 147.822Z" fill="#E63950"/>
<path d="M112.382 120.258L60.4079 190.752L39.3382 181.392L88.4643 115.334L112.382 120.258Z" fill="#E63950"/>
</g>
<path d="M55.9894 178.47C54.334 179.03 53.0559 180.333 52.3378 181.799C51.6257 183.266 51.4188 184.885 51.4066 186.467C51.3945 188.738 51.8144 191.099 53.3237 192.888C53.5428 193.15 53.7984 193.405 54.1392 193.533C54.4801 193.655 54.9182 193.612 55.1556 193.357C55.5086 192.973 55.2408 192.413 54.9974 191.975C52.7638 187.983 53.4515 182.761 56.671 179.237C56.5249 178.97 56.3728 178.708 55.9772 178.47H55.9894Z" fill="#E63950"/>
<g style="mix-blend-mode:multiply" opacity="0.75">
<path d="M118.152 159.969C138.487 159.969 154.972 156.29 154.972 151.753C154.972 147.215 138.487 143.537 118.152 143.537C97.8165 143.537 81.3315 147.215 81.3315 151.753C81.3315 156.29 97.8165 159.969 118.152 159.969Z" fill="#BDBDBD"/>
</g>
<path d="M109.558 146.677C109.023 148.205 109.99 149.933 111.354 150.804C112.723 151.674 114.391 151.887 115.997 152.082C125.12 153.183 134.426 154.279 143.439 152.483C145.1 152.149 146.792 151.698 148.143 150.676C149.495 149.653 150.438 147.931 150.109 146.27C142.989 147.085 135.862 147.901 128.741 148.71C122.254 149.453 115.273 150.104 109.558 146.665V146.677Z" fill="#DB811A"/>
<path d="M165.269 78.7332C165.269 78.7332 176.784 143.08 143.165 150.28C135.996 151.814 120.896 151.363 113.849 149.349C84.8126 141.054 90.3022 79.147 90.3022 79.147L165.269 78.7332Z" fill="#ED8B1D"/>
<path d="M127.561 83.1455C148.232 83.1455 164.989 81.17 164.989 78.7331C164.989 76.2963 148.232 74.3208 127.561 74.3208C106.889 74.3208 90.1318 76.2963 90.1318 78.7331C90.1318 81.17 106.889 83.1455 127.561 83.1455Z" fill="#DB811A"/>
<mask id="mask2_32_323" style="mask-type:luminance" maskUnits="userSpaceOnUse" x="90" y="74" width="75" height="10">
<path d="M127.561 83.1455C148.232 83.1455 164.989 81.17 164.989 78.7331C164.989 76.2963 148.232 74.3208 127.561 74.3208C106.889 74.3208 90.1318 76.2963 90.1318 78.7331C90.1318 81.17 106.889 83.1455 127.561 83.1455Z" fill="white"/>
</mask>
<g mask="url(#mask2_32_323)">
<path d="M127.561 85.4277C148.232 85.4277 164.989 83.4876 164.989 81.0945C164.989 78.7013 148.232 76.7612 127.561 76.7612C106.889 76.7612 90.1318 78.7013 90.1318 81.0945C90.1318 83.4876 106.889 85.4277 127.561 85.4277Z" fill="#C56A34"/>
</g>
<path d="M92.1706 92.4632C87.8739 91.4225 83.3155 90.8565 79.0492 92.0129C74.7829 93.1753 70.8514 96.3643 69.8533 100.673C69.2082 103.455 69.8289 106.424 71.107 108.981C72.385 111.537 74.2839 113.728 76.2862 115.766C82.6339 122.218 90.1805 127.342 97.7089 132.369C97.3802 129.454 97.0516 126.533 96.7229 123.617C96.6742 123.179 96.6195 122.717 96.3699 122.358C95.9926 121.81 95.2866 121.615 94.6476 121.426C88.6773 119.662 84.1128 114.957 79.8404 110.429C77.9537 108.433 75.9271 106.023 76.3227 103.302C76.6635 100.978 78.8545 99.2004 81.1793 98.8718C83.5042 98.5431 85.8777 99.4499 87.7644 100.844C89.651 102.237 91.1482 104.1 92.6088 105.944C93.8321 101.653 94.0025 97.0642 92.1767 92.4693L92.1706 92.4632Z" fill="#DB811A"/>
<path d="M90.3022 79.1531C101.421 84.6365 131.17 82.8899 151.716 82.1048C156.122 81.9344 160.51 81.3927 164.868 78.9766" stroke="black" stroke-width="0.7" stroke-linecap="round" stroke-linejoin="round"/>
<path d="M92.1159 92.3049C94.2886 96.0417 94.4834 100.862 92.615 104.763" stroke="black" stroke-width="0.7" stroke-linecap="round" stroke-linejoin="round"/>
<path d="M95.6274 121.493C97.4106 124.64 98.1166 128.389 97.5932 131.967" stroke="black" stroke-width="0.7" stroke-linecap="round" stroke-linejoin="round"/>
<path d="M109.364 147.688C122.801 152.124 136.976 152.897 149.726 147.894" stroke="black" stroke-width="0.7" stroke-linecap="round" stroke-linejoin="round"/>
<path d="M142.161 82.1961C142.477 81.0093 144.303 80.7415 145.18 81.6058C146.056 82.47 146.056 84.5696 146.123 85.799C146.579 94.3742 145.198 102.919 144.334 111.458C143.463 119.996 143.129 128.79 145.6 137.007" stroke="white" stroke-width="0.7" stroke-linecap="round" stroke-linejoin="round"/>
<path d="M150.572 123.709C146.561 124.287 140.737 124.555 136.848 125.151C135.929 125.291 135.247 126.228 135.284 127.312C135.418 131.079 135.832 133.282 135.984 136.958C136.032 138.151 136.927 139.058 137.943 138.942C142.191 138.455 147.097 137.901 151.314 137.42C152.252 137.311 152.964 136.374 152.927 135.272C152.86 133.026 152.641 129.904 152.574 125.741C152.556 124.5 151.619 123.55 150.56 123.703L150.572 123.709Z" fill="white"/>
<path d="M143.488 126.806L144.583 129.612L148.229 129.265L145.8 130.683L146.932 133.72L144.115 131.84L141.997 134.414L142.313 131.456L140.317 130.762L142.471 129.953L143.488 126.806Z" fill="#9DA5E0"/>
<g style="mix-blend-mode:multiply" opacity="0.42">
<path d="M196.095 235.8C228.026 235.8 253.912 234.029 253.912 231.845C253.912 229.66 228.026 227.889 196.095 227.889C164.164 227.889 138.278 229.66 138.278 231.845C138.278 234.029 164.164 235.8 196.095 235.8Z" fill="#C2C4C0"/>
</g>
<path opacity="0.48" d="M244.259 223.791C256.117 214.043 257.686 196.355 247.764 184.284C237.841 172.212 220.184 170.329 208.326 180.076C196.467 189.824 194.898 207.512 204.82 219.583C214.743 231.655 232.4 233.538 244.259 223.791Z" fill="white"/>
<path d="M244.259 223.791C256.117 214.043 257.686 196.355 247.764 184.284C237.841 172.212 220.184 170.329 208.326 180.076C196.467 189.824 194.898 207.512 204.82 219.583C214.743 231.655 232.4 233.538 244.259 223.791Z" stroke="#0F1211" stroke-width="3" stroke-miterlimit="10"/>
<path d="M193.35 210.172C181.02 214.53 167.12 217.469 154.649 222.07C148.892 224.194 143.378 224.681 138.771 228.582C137.152 229.952 137.597 235.581 141.79 234.291C165.117 227.122 190.989 218.82 191.445 218.662C191.944 218.486 199.217 217.506 198.438 214.779C196.868 209.302 195.292 209.484 193.356 210.166L193.35 210.172Z" fill="#0F1211"/>
<path d="M193.983 210.976C193.709 210.203 194.014 209.375 194.768 209.125L199.917 207.391C200.27 207.269 200.684 207.16 201.067 207.403C201.359 207.586 201.542 207.914 201.712 208.219C202.96 210.519 202.887 210.513 203.824 212.948C204.652 215.084 203.569 216.051 202.09 216.246C199.85 216.55 200.538 216.818 198.298 217.123C198.018 217.159 197.172 217.652 196.88 217.512C196.503 217.329 196.168 216.806 195.961 216.423C195.079 214.822 194.86 213.465 193.989 210.988L193.983 210.976Z" fill="#C2C4C0"/>
<path d="M39.7398 141.827C40.6642 141.827 41.4135 141.077 41.4135 140.153C41.4135 139.229 40.6642 138.479 39.7398 138.479C38.8155 138.479 38.0662 139.229 38.0662 140.153C38.0662 141.077 38.8155 141.827 39.7398 141.827Z" stroke="#F4EFEB" stroke-miterlimit="10"/>
<path d="M10.6792 10.077C10.6792 9.1519 11.4278 8.40332 12.3529 8.40332C13.2779 8.40332 14.0265 9.1519 14.0265 10.077C14.0265 11.002 13.2779 11.7506 12.3529 11.7506C11.4278 11.7506 10.6792 11.002 10.6792 10.077Z" stroke="#F4EFEB" stroke-miterlimit="10"/>
<path d="M190.825 0.874902C190.825 0.43671 191.184 0.0776367 191.622 0.0776367C192.06 0.0776367 192.419 0.43671 192.419 0.874902C192.419 1.31309 192.06 1.67217 191.622 1.67217C191.184 1.67217 190.825 1.31309 190.825 0.874902Z" fill="#F4EFEB"/>
<path d="M65.0941 75.3673C65.0941 74.9291 65.4531 74.5701 65.8913 74.5701C66.3295 74.5701 66.6886 74.9291 66.6886 75.3673C66.6886 75.8055 66.3295 76.1646 65.8913 76.1646C65.4531 76.1646 65.0941 75.8055 65.0941 75.3673Z" fill="#F4EFEB"/>
<path d="M261.246 17.9218C261.246 17.4836 261.605 17.1245 262.043 17.1245C262.481 17.1245 262.84 17.4836 262.84 17.9218C262.84 18.36 262.481 18.719 262.043 18.719C261.605 18.719 261.246 18.36 261.246 17.9218Z" fill="#F4EFEB"/>
<path d="M271.835 229.106C271.835 228.667 272.194 228.308 272.632 228.308C273.071 228.308 273.43 228.667 273.43 229.106C273.43 229.544 273.071 229.903 272.632 229.903C272.194 229.903 271.835 229.544 271.835 229.106Z" fill="#F4EFEB"/>
<path d="M19.0048 193.594C19.0048 193.156 19.3639 192.797 19.8021 192.797C20.2402 192.797 20.5993 193.156 20.5993 193.594C20.5993 194.032 20.2402 194.391 19.8021 194.391C19.3639 194.391 19.0048 194.032 19.0048 193.594Z" fill="#F4EFEB"/>
<path d="M260.625 42.6735C260.625 42.2353 260.984 41.8762 261.422 41.8762C261.86 41.8762 262.219 42.2353 262.219 42.6735C262.219 43.1117 261.86 43.4708 261.422 43.4708C260.984 43.4708 260.625 43.1117 260.625 42.6735Z" fill="#F4EFEB"/>
<path d="M184.763 54.0482C184.763 53.61 185.122 53.251 185.56 53.251C185.998 53.251 186.357 53.61 186.357 54.0482C186.357 54.4864 185.998 54.8455 185.56 54.8455C185.122 54.8455 184.763 54.4864 184.763 54.0482Z" fill="#F4EFEB"/>
<path d="M190.027 108.64C190.027 108.201 190.386 107.842 190.825 107.842C191.263 107.842 191.622 108.201 191.622 108.64C191.622 109.078 191.263 109.437 190.825 109.437C190.386 109.437 190.027 109.078 190.027 108.64Z" fill="#F4EFEB"/>
<path d="M278.895 193.594C278.895 193.156 279.254 192.797 279.692 192.797C280.13 192.797 280.489 193.156 280.489 193.594C280.489 194.032 280.13 194.391 279.692 194.391C279.254 194.391 278.895 194.032 278.895 193.594Z" fill="#F4EFEB"/>
<path d="M29.351 216.502C29.351 215.576 30.0996 214.828 31.0247 214.828C31.9498 214.828 32.6983 215.576 32.6983 216.502C32.6983 217.427 31.9498 218.175 31.0247 218.175C30.0996 218.175 29.351 217.427 29.351 216.502Z" stroke="#F4EFEB" stroke-miterlimit="10"/>
<path d="M279.692 110.453C279.692 109.528 280.441 108.78 281.366 108.78C282.291 108.78 283.039 109.528 283.039 110.453C283.039 111.378 282.291 112.127 281.366 112.127C280.441 112.127 279.692 111.378 279.692 110.453Z" stroke="#F4EFEB" stroke-miterlimit="10"/>
<path d="M262.043 170.82C262.043 169.895 262.791 169.146 263.716 169.146C264.642 169.146 265.39 169.895 265.39 170.82C265.39 171.745 264.642 172.494 263.716 172.494C262.791 172.494 262.043 171.745 262.043 170.82Z" stroke="#F4EFEB" stroke-miterlimit="10"/>
<path d="M7.07022 54.0481L7.93443 56.5799L10.807 56.2695L8.88993 57.5536L9.78457 60.2923L7.56319 58.5943L5.89562 60.9131L6.14515 58.2474L4.56888 57.6206L6.26687 56.8963L7.07022 54.0481Z" fill="white"/>
<path d="M245.489 131.578L247.041 133.751L249.7 132.631L248.234 134.408L249.883 136.775L247.266 135.783L246.335 138.492L245.805 135.862L244.114 135.716L245.532 134.53L245.489 131.578Z" fill="white"/>
<path d="M242.896 60.7185L244.448 62.8912L247.114 61.7714L245.647 63.5485L247.29 65.9159L244.673 64.9239L243.742 67.6322L243.213 65.003L241.527 64.857L242.945 63.6702L242.896 60.7185Z" fill="white"/>
<path d="M127.494 35.9849L128.06 38.5958L130.951 38.614L128.9 39.673L129.478 42.4969L127.463 40.5554L125.54 42.6734L126.094 40.0442L124.603 39.247L126.368 38.7175L127.494 35.9849Z" fill="white"/>
<path d="M1.37985 140.153L2.93786 142.332L5.59744 141.206L4.13071 142.983L5.77393 145.35L3.15696 144.364L2.2258 147.067L1.69632 144.437L0.010498 144.291L1.42853 143.105L1.37985 140.153Z" fill="white"/>
<path d="M259.739 82.6536L205.995 82.3722C204.022 82.3619 202.414 83.953 202.404 85.9259L202.304 104.987C202.293 106.96 203.884 108.568 205.857 108.578L259.602 108.86C261.575 108.87 263.183 107.279 263.193 105.306L263.293 86.2448C263.303 84.2718 261.712 82.664 259.739 82.6536Z" fill="#E8E8E8"/>
<path d="M229.197 107.148C223.987 110.678 219.52 114.963 214.304 118.493L213.623 107.173L229.191 107.148H229.197Z" fill="#E8E8E8"/>
<path d="M83.8649 17.9142L30.1203 18.1957C28.1473 18.206 26.5562 19.8138 26.5666 21.7868L26.6664 40.8478C26.6767 42.8208 28.2845 44.4119 30.2575 44.4016L84.0021 44.1202C85.9751 44.1098 87.5662 42.502 87.5559 40.529L87.4561 21.468C87.4457 19.495 85.8379 17.9039 83.8649 17.9142Z" fill="#E8E8E8"/>
<path d="M60.6695 42.7039C65.8791 46.2337 70.3462 50.5183 75.5619 54.0481L76.2435 42.7282L60.6756 42.7039H60.6695Z" fill="#E8E8E8"/>
<path d="M207.951 14.3372H164.764C162.791 14.3372 161.192 15.9366 161.192 17.9096V32.4247C161.192 34.3978 162.791 35.9972 164.764 35.9972H207.951C209.924 35.9972 211.523 34.3978 211.523 32.4247V17.9096C211.523 15.9366 209.924 14.3372 207.951 14.3372Z" fill="#E63950"/>
<path d="M183.424 34.7253C179.133 37.6649 175.457 41.2252 171.167 44.1647L170.558 34.8105L183.424 34.7192V34.7253Z" fill="#E63950"/>
<path d="M174.112 24.8417C174.167 24.2635 174.678 23.8436 175.257 23.8984C175.835 23.9531 176.255 24.4644 176.2 25.0425C176.145 25.6207 175.634 26.0406 175.056 25.9859C174.478 25.9311 174.058 25.4199 174.112 24.8417Z" fill="white"/>
<path d="M184.647 24.799C184.702 24.2208 185.213 23.8009 185.791 23.8556C186.37 23.9104 186.79 24.4216 186.735 24.9998C186.68 25.578 186.169 25.9979 185.591 25.9431C185.012 25.8884 184.592 25.3771 184.647 24.799Z" fill="white"/>
<path d="M194.3 24.6774C194.354 24.0992 194.866 23.6793 195.444 23.7341C196.022 23.7888 196.442 24.3 196.387 24.8782C196.332 25.4564 195.821 25.8763 195.243 25.8215C194.665 25.7668 194.245 25.2555 194.3 24.6774Z" fill="white"/>
<path d="M55.113 93.7229H11.9268C9.95382 93.7229 8.35437 95.3224 8.35437 97.2954V111.81C8.35437 113.783 9.95382 115.383 11.9268 115.383H55.113C57.0861 115.383 58.6855 113.783 58.6855 111.81V97.2954C58.6855 95.3224 57.0861 93.7229 55.113 93.7229Z" fill="#1A73E8"/>
<path d="M36.4534 114.111C40.744 117.05 44.4199 120.611 48.7106 123.55L49.3192 114.196L36.4534 114.105V114.111Z" fill="#1A73E8"/>
<path d="M45.771 104.227C45.7162 103.649 45.205 103.229 44.6268 103.284C44.0487 103.339 43.6287 103.85 43.6835 104.428C43.7383 105.006 44.2495 105.426 44.8277 105.371C45.4058 105.317 45.8258 104.805 45.771 104.227Z" fill="white"/>
<path d="M35.2361 104.184C35.1814 103.606 34.6701 103.186 34.092 103.241C33.5138 103.296 33.0939 103.807 33.1486 104.385C33.2034 104.963 33.7146 105.383 34.2928 105.329C34.871 105.274 35.2909 104.763 35.2361 104.184Z" fill="white"/>
<path d="M25.5838 104.063C25.529 103.485 25.0178 103.065 24.4396 103.12C23.8614 103.174 23.4415 103.686 23.4963 104.264C23.5511 104.842 24.0623 105.262 24.6405 105.207C25.2186 105.152 25.6386 104.641 25.5838 104.063Z" fill="white"/>
</g>
<defs>
<clipPath id="clip0_32_323">
<rect width="284" height="245" fill="white" transform="translate(0 0.0776367)"/>
</clipPath>
</defs>
</svg>
