<svg width="284" height="246" viewBox="0 0 284 246" fill="none" xmlns="http://www.w3.org/2000/svg">
<path d="M62.8119 199.575C44.4842 182.63 35.2976 157.607 35.2976 124.587C35.2976 91.5674 44.4844 66.5444 62.8111 49.7375C81.1449 32.9239 107.574 24.4268 142.143 24.4268C176.712 24.4268 203.141 32.9239 221.475 49.7375C239.801 66.5444 248.988 91.5674 248.988 124.587C248.988 157.607 239.802 182.63 221.474 199.575C203.14 216.525 176.712 225.022 142.143 225.022C107.574 225.022 81.1455 216.525 62.8119 199.575Z" stroke="#E63950" stroke-width="0.595238"/>
<path d="M228.795 221.961C241.064 212.74 249.311 199.649 255.707 186.187C267.532 161.314 267.831 120.531 240.042 103.953C223.129 93.8627 208.504 110.563 198.529 88.3183C196.357 83.4678 195.572 78.1547 194.373 72.9938C189.869 53.6343 178.269 35.0233 159.774 26.016C141.278 17.0088 115.577 20.1126 102.687 36.0579C97.1793 42.8742 94.1181 51.5529 87.1618 57.0485C71.6973 69.2692 60.4382 65.2037 42.7949 74.3266C26.6975 82.6462 10.6913 106.801 9.34629 115.334C1.60491 164.442 26.2775 178.89 48.6679 205.583C67.4553 227.986 78.2641 228.594 107.154 237.157C136.044 245.72 174.155 248.636 200.142 233.08" stroke="#D1A092" stroke-miterlimit="10"/>
<g clip-path="url(#clip0_76_136)">
<path d="M141.381 150.825C164.628 127.619 164.628 89.9932 141.381 66.7865C118.134 43.5798 80.4428 43.5798 57.1958 66.7865C33.9488 89.9932 33.9488 127.619 57.1958 150.825C80.4428 174.032 118.134 174.032 141.381 150.825Z" fill="#F54E2B"/>
<path d="M139.002 161.231C167.8 161.231 193.246 175.326 208.984 196.919L278.005 176.659C262.027 114.385 202.769 71.5074 135.68 70.3589C68.5923 71.5074 15.9776 114.385 0 176.659L69.0206 196.919C84.7592 175.326 110.205 161.231 139.002 161.231Z" fill="#363B42"/>
<path d="M147.051 157.487L156.629 76.5488H121.67L131.243 157.447C133.723 157.268 136.203 157.069 138.729 157.069C141.538 157.069 144.297 157.268 147.046 157.487H147.051Z" fill="#D6AEA1"/>
<path d="M105.463 79.2686L89.1869 85.6276L72.9104 91.9867L110.374 161.991C115.449 160.301 120.709 159.048 126.108 158.168L105.463 79.2686Z" fill="#D6AEA1"/>
<path d="M56.8681 101.08L44.1129 113.008L31.3577 124.936L88.2755 172.845C93.0818 169.569 98.2117 166.754 103.556 164.318L56.8731 101.08H56.8681Z" fill="#D6AEA1"/>
<path d="M80.0725 178.2L20.0468 142.835L12.9893 158.8L5.93188 174.764L66.3112 193.275C70.3903 187.801 74.9924 182.754 80.0725 178.2Z" fill="#D6AEA1"/>
<path d="M205.388 91.9767L189.112 85.6176L172.835 79.2585L152.161 158.282C157.525 159.202 162.745 160.52 167.79 162.24L205.393 91.9817L205.388 91.9767Z" fill="#D6AEA1"/>
<path d="M246.961 124.921L234.206 112.993L221.451 101.065L174.549 164.602C179.833 167.053 184.903 169.882 189.655 173.163L246.966 124.921H246.961Z" fill="#D6AEA1"/>
<path d="M211.33 193.469L272.387 174.75L265.329 158.785L258.272 142.82L197.738 178.483C202.749 183.018 207.296 188.03 211.325 193.469H211.33Z" fill="#D6AEA1"/>
<path d="M201.538 192.629C199.058 189.282 196.264 186.2 193.181 183.411L159.841 203.055L159.014 203.542C158.113 201.817 157.002 200.241 155.702 198.819L155.772 198.759L183.26 175.62C180.336 173.601 177.218 171.861 173.966 170.354L154.178 197.158L154.059 197.317C152.649 196.049 151.105 194.98 149.412 194.1L164.025 166.799C160.922 165.74 157.709 164.93 154.407 164.363L146.961 192.817C145.129 192.131 143.176 191.674 141.149 191.48L140.736 191.192L144.018 163.443C142.325 163.309 140.626 163.185 138.898 163.185C137.344 163.185 135.82 163.304 134.291 163.418L137.553 190.998L136.856 191.48C134.923 191.664 133.076 192.111 131.317 192.743L123.867 164.269C120.544 164.811 117.312 165.581 114.184 166.62L128.822 193.976C127.104 194.846 125.54 195.905 124.111 197.168L124.021 197.049L104.144 170.121C100.856 171.617 97.6987 173.347 94.7402 175.366L122.357 198.615L122.432 198.679C121.112 200.101 119.977 201.682 119.055 203.413L118.248 202.935L84.7044 183.172C81.5816 185.976 78.7476 189.079 76.2374 192.45L135.75 212.82L130.003 215.33C130.003 215.33 131.955 221.888 138.983 221.888C146.01 221.888 148.286 215.688 148.286 215.688L142.205 212.844L201.533 192.629H201.538ZM141.926 213.739C141.926 215.335 140.626 216.633 139.027 216.633C137.429 216.633 136.129 215.335 136.129 213.739C136.129 213.471 136.298 213.272 136.413 213.053L138.888 212.909L141.632 213.038C141.752 213.262 141.926 213.466 141.926 213.739Z" fill="#E57C50"/>
<g style="mix-blend-mode:multiply" opacity="0.5">
<path d="M137.105 70.4087V161.291C137.737 161.276 138.365 161.231 138.997 161.231C167.795 161.231 193.241 175.326 208.979 196.919L278 176.659C262.137 114.833 203.6 72.1439 137.105 70.4087Z" fill="#D6AEA1"/>
<path d="M201.538 192.629C199.058 189.282 196.264 186.2 193.181 183.411L159.841 203.055L159.014 203.542C158.113 201.817 157.002 200.241 155.702 198.819L155.772 198.759L183.26 175.62C180.336 173.601 177.218 171.861 173.966 170.354L154.178 197.158L154.059 197.317C152.649 196.049 151.105 194.98 149.412 194.1L164.025 166.799C160.922 165.74 157.709 164.93 154.407 164.363L146.961 192.817C145.129 192.131 143.176 191.674 141.149 191.48L140.736 191.192L144.018 163.443C142.325 163.309 140.626 163.185 138.898 163.185C138.295 163.185 137.703 163.215 137.11 163.244V187.254L137.553 190.998L137.11 191.301V213.008L138.898 212.904L141.642 213.033C141.762 213.257 141.931 213.461 141.931 213.734C141.931 215.33 140.631 216.628 139.032 216.628C138.285 216.628 137.623 216.33 137.11 215.867V221.699C137.698 221.809 138.315 221.888 138.993 221.888C146.344 221.888 148.296 215.688 148.296 215.688L142.215 212.844L201.543 192.629H201.538Z" fill="#D6AEA1"/>
</g>
<path d="M120.57 150.79H115.086V174.183H120.57V150.79Z" fill="#009349"/>
<path d="M120.57 179.1H115.086V202.493H120.57V179.1Z" fill="#009349"/>
<path d="M120.57 174.183H115.086V179.1H120.57V174.183Z" fill="#F9D976"/>
<path d="M120.57 205.869H115.086V224.529H120.57V205.869Z" fill="#009349"/>
<path d="M120.57 202.488H115.086V205.864H120.57V202.488Z" fill="#F9D976"/>
<path d="M102.894 112.988H97.4099V141.293H102.894V112.988Z" fill="#009349"/>
<path d="M102.894 144.674H97.4099V168.067H102.894V144.674Z" fill="#009349"/>
<path d="M102.894 141.298H97.4099V144.674H102.894V141.298Z" fill="#F9D976"/>
<path d="M102.894 172.984H97.4099V196.377H102.894V172.984Z" fill="#009349"/>
<path d="M102.894 168.067H97.4099V172.984H102.894V168.067Z" fill="#F9D976"/>
<path d="M102.894 199.753H97.4099V224.528H102.894V199.753Z" fill="#009349"/>
<path d="M102.894 196.372H97.4099V199.748H102.894V196.372Z" fill="#F9D976"/>
<path d="M85.2125 128.54H79.7289V156.845H85.2125V128.54Z" fill="#009349"/>
<path d="M85.2125 160.226H79.7289V183.619H85.2125V160.226Z" fill="#009349"/>
<path d="M85.2125 156.85H79.7289V160.226H85.2125V156.85Z" fill="#F9D976"/>
<path d="M85.2125 188.537H79.7289V211.93H85.2125V188.537Z" fill="#009349"/>
<path d="M85.2125 183.619H79.7289V188.537H85.2125V183.619Z" fill="#F9D976"/>
<path d="M85.2125 215.305H79.7289V224.533H85.2125V215.305Z" fill="#009349"/>
<path d="M85.2125 211.924H79.7289V215.3H85.2125V211.924Z" fill="#F9D976"/>
<path d="M123.413 171.98C123.413 171.98 129.589 160.087 144.167 153.713C144.167 153.713 137.922 165.666 123.413 171.98Z" fill="#009349"/>
<path d="M124.614 173.338C124.614 173.338 132.214 166.889 144.043 166.601C144.043 166.601 136.378 173.069 124.614 173.338Z" fill="#009349"/>
<path d="M122.243 170.653C122.243 170.653 122.407 160.699 129.993 151.635C129.993 151.635 129.803 161.653 122.243 170.653Z" fill="#009349"/>
<path d="M106.45 136.674C106.45 136.674 114.613 120.953 133.888 112.526C133.888 112.526 125.63 128.326 106.45 136.674Z" fill="#009349"/>
<path d="M108.033 138.474C108.033 138.474 118.079 129.952 133.718 129.564C133.718 129.564 123.588 138.116 108.033 138.474Z" fill="#009349"/>
<path d="M104.901 134.924C104.901 134.924 105.115 121.764 115.146 109.781C115.146 109.781 114.897 123.026 104.901 134.924Z" fill="#009349"/>
<path d="M76.0134 155.15C76.0134 155.15 68.2935 140.289 50.0796 132.329C50.0796 132.329 57.8841 147.265 76.0134 155.15Z" fill="#009349"/>
<path d="M74.5143 156.85C74.5143 156.85 65.0163 148.796 50.239 148.428C50.239 148.428 59.8166 156.512 74.5143 156.85Z" fill="#009349"/>
<path d="M77.4776 153.494C77.4776 153.494 77.2734 141.055 67.7954 129.729C67.7954 129.729 68.0295 142.248 77.4776 153.494Z" fill="#009349"/>
<g style="mix-blend-mode:multiply" opacity="0.5">
<path d="M115.086 174.183V179.1V202.488V205.869V224.528H120.575V205.869V202.488V179.1V174.183V150.79H115.086V174.183Z" fill="#D6AEA1"/>
<path d="M102.894 112.988H100.06V141.293H102.894V112.988Z" fill="#D6AEA1"/>
<path d="M102.894 144.674H100.06V168.067H102.894V144.674Z" fill="#D6AEA1"/>
<path d="M102.894 172.984H100.06V196.377H102.894V172.984Z" fill="#D6AEA1"/>
<path d="M102.894 199.753H100.06V224.528H102.894V199.753Z" fill="#D6AEA1"/>
<path d="M144.167 153.713C129.589 160.087 123.413 171.98 123.413 171.98C137.922 165.666 144.167 153.713 144.167 153.713Z" fill="#D6AEA1"/>
<path d="M144.043 166.6C132.214 166.894 124.614 173.337 124.614 173.337C136.378 173.069 144.043 166.6 144.043 166.6Z" fill="#D6AEA1"/>
<path d="M122.243 170.653C129.804 161.653 129.993 151.635 129.993 151.635C122.407 160.699 122.243 170.653 122.243 170.653Z" fill="#D6AEA1"/>
<path d="M133.888 112.531C114.613 120.958 106.45 136.679 106.45 136.679C125.635 128.332 133.888 112.531 133.888 112.531Z" fill="#D6AEA1"/>
<path d="M108.033 138.474C123.583 138.116 133.718 129.564 133.718 129.564C118.084 129.947 108.033 138.474 108.033 138.474Z" fill="#D6AEA1"/>
<path d="M104.901 134.924C114.897 123.026 115.146 109.781 115.146 109.781C105.12 121.764 104.901 134.924 104.901 134.924Z" fill="#D6AEA1"/>
</g>
<path d="M207.859 135.133H202.375V158.526H207.859V135.133Z" fill="#009349"/>
<path d="M207.859 163.438H202.375V186.831H207.859V163.438Z" fill="#009349"/>
<path d="M207.859 158.521H202.375V163.438H207.859V158.521Z" fill="#F9D976"/>
<path d="M207.859 190.207H202.375V208.867H207.859V190.207Z" fill="#009349"/>
<path d="M207.859 186.831H202.375V190.207H207.859V186.831Z" fill="#F9D976"/>
<path d="M190.178 97.3315H184.694V125.637H190.178V97.3315Z" fill="#009349"/>
<path d="M190.178 129.018H184.694V152.41H190.178V129.018Z" fill="#009349"/>
<path d="M190.178 125.637H184.694V129.013H190.178V125.637Z" fill="#F9D976"/>
<path d="M190.178 157.323H184.694V180.716H190.178V157.323Z" fill="#009349"/>
<path d="M190.178 152.406H184.694V157.323H190.178V152.406Z" fill="#F9D976"/>
<path d="M190.178 184.092H184.694V208.867H190.178V184.092Z" fill="#009349"/>
<path d="M190.178 180.716H184.694V184.092H190.178V180.716Z" fill="#F9D976"/>
<path d="M172.502 112.884H167.018V141.189H172.502V112.884Z" fill="#009349"/>
<path d="M172.502 144.565H167.018V167.958H172.502V144.565Z" fill="#009349"/>
<path d="M172.502 141.189H167.018V144.565H172.502V141.189Z" fill="#F9D976"/>
<path d="M172.502 172.875H167.018V196.268H172.502V172.875Z" fill="#009349"/>
<path d="M172.502 167.958H167.018V172.875H172.502V167.958Z" fill="#F9D976"/>
<path d="M172.502 199.644H167.018V208.872H172.502V199.644Z" fill="#009349"/>
<path d="M172.502 196.268H167.018V199.644H172.502V196.268Z" fill="#F9D976"/>
<path d="M210.698 156.318C210.698 156.318 216.874 144.426 231.452 138.052C231.452 138.052 225.206 150.004 210.698 156.318Z" fill="#009349"/>
<path d="M211.898 157.681C211.898 157.681 219.498 151.232 231.327 150.944C231.327 150.944 223.662 157.412 211.898 157.681Z" fill="#009349"/>
<path d="M209.527 154.996C209.527 154.996 209.692 145.042 217.277 135.978C217.277 135.978 217.088 145.997 209.527 154.996Z" fill="#009349"/>
<path d="M193.734 121.013C193.734 121.013 201.897 105.291 221.172 96.864C221.172 96.864 212.914 112.665 193.734 121.013Z" fill="#009349"/>
<path d="M195.318 122.813C195.318 122.813 205.364 114.291 221.003 113.903C221.003 113.903 210.872 122.455 195.318 122.813Z" fill="#009349"/>
<path d="M192.185 119.263C192.185 119.263 192.399 106.102 202.43 94.1196C202.43 94.1196 202.181 107.365 192.185 119.263Z" fill="#009349"/>
<path d="M163.303 139.488C163.303 139.488 155.583 124.627 137.369 116.667C137.369 116.667 145.173 131.603 163.303 139.488Z" fill="#009349"/>
<path d="M161.804 141.189C161.804 141.189 152.306 133.134 137.528 132.766C137.528 132.766 147.106 140.851 161.804 141.189Z" fill="#009349"/>
<path d="M164.762 137.833C164.762 137.833 164.558 125.393 155.08 114.067C155.08 114.067 155.314 126.586 164.762 137.833Z" fill="#009349"/>
<g style="mix-blend-mode:multiply" opacity="0.5">
<path d="M202.375 158.521V163.438V186.831V190.207V208.872H207.859V190.207V186.831V163.438V158.521V135.133H202.375V158.521Z" fill="#D6AEA1"/>
<path d="M190.183 97.3315H187.349V125.637H190.183V97.3315Z" fill="#D6AEA1"/>
<path d="M190.183 129.018H187.349V152.41H190.183V129.018Z" fill="#D6AEA1"/>
<path d="M190.183 157.323H187.349V180.716H190.183V157.323Z" fill="#D6AEA1"/>
<path d="M190.183 184.092H187.349V208.867H190.183V184.092Z" fill="#D6AEA1"/>
<path d="M231.452 138.057C216.874 144.431 210.698 156.323 210.698 156.323C225.206 150.009 231.452 138.057 231.452 138.057Z" fill="#D6AEA1"/>
<path d="M231.327 150.939C219.498 151.232 211.898 157.676 211.898 157.676C223.662 157.407 231.327 150.939 231.327 150.939Z" fill="#D6AEA1"/>
<path d="M209.527 154.996C217.088 145.997 217.277 135.978 217.277 135.978C209.692 145.042 209.527 154.996 209.527 154.996Z" fill="#D6AEA1"/>
<path d="M221.172 96.8691C201.897 105.297 193.734 121.018 193.734 121.018C212.919 112.67 221.172 96.8691 221.172 96.8691Z" fill="#D6AEA1"/>
<path d="M195.318 122.813C210.867 122.455 221.003 113.903 221.003 113.903C205.369 114.286 195.318 122.813 195.318 122.813Z" fill="#D6AEA1"/>
<path d="M192.185 119.263C202.181 107.365 202.43 94.1196 202.43 94.1196C192.404 106.102 192.185 119.263 192.185 119.263Z" fill="#D6AEA1"/>
</g>
<path d="M107.117 130.281L165.758 93.3491L183.623 106.669C174.419 109.771 164.438 113.232 155.234 116.334C151.404 117.627 147.569 118.92 143.814 120.421C140.397 121.789 137.05 123.335 133.604 124.632C125.087 127.839 116.216 130.281 107.117 130.281Z" fill="#F3F3F3"/>
<path d="M113.99 128.506C132.971 118.099 151.862 107.524 170.654 96.7798" stroke="#E8C1C1" stroke-width="0.88" stroke-linecap="round" stroke-linejoin="round"/>
<path d="M114.493 128.237C114.493 128.237 150.951 112.556 176.496 101.483" stroke="#E8C1C1" stroke-width="0.88" stroke-linecap="round" stroke-linejoin="round"/>
<path d="M101.808 130.524C107.705 121.878 113.851 113.421 120.246 105.128V82.7192C120.181 82.6546 120.121 82.5949 120.056 82.5303C110.748 98.8282 102.096 115.499 94.5559 132.682" fill="#F3DFDF"/>
<path d="M120.126 82.3761C117.432 80.8746 110.768 79.3184 110.768 79.3184C103.561 94.3932 96.5133 109.99 89.8394 125.309C91.1393 125.746 95.6766 127.735 96.7574 127.939C97.0462 127.491 112.63 97.2272 120.126 82.3761Z" fill="#F3F3F3"/>
<path d="M93.2261 125.14C100.149 110.159 107.456 95.3529 115.146 80.7454" stroke="#E8C1C1" stroke-width="0.88" stroke-linecap="round" stroke-linejoin="round"/>
<path d="M94.4314 126.248C98.5105 118.711 102.59 111.169 106.669 103.631" stroke="#E8C1C1" stroke-width="0.88" stroke-linecap="round" stroke-linejoin="round"/>
<path d="M109.622 98.4154C112.207 94.0948 116.386 86.3336 118.662 81.844" stroke="#E8C1C1" stroke-width="0.88" stroke-linecap="round" stroke-linejoin="round"/>
<path d="M101.713 128.719C113.447 112.909 127.044 96.6107 139.381 81.2673C139.366 89.8986 139.451 101.304 139.436 109.935C128.782 116.454 108.462 129.664 108.462 129.664" fill="#F3DFDF"/>
<path d="M139.386 81.2723L137.195 80.79L98.9587 128.297L101.24 129.435L139.386 81.2723Z" fill="#F3F3F3"/>
<path d="M100.687 127.993C100.687 127.993 137.623 81.67 137.927 81.2971" stroke="#E8C1C1" stroke-width="0.88" stroke-linecap="round" stroke-linejoin="round"/>
<path d="M108.631 125.915C118.114 115.608 127.592 105.297 137.075 94.9897" stroke="#E8C1C1" stroke-width="0.88" stroke-linecap="round" stroke-linejoin="round"/>
<path d="M122.885 115.872L134.395 103.949" stroke="#E8C1C1" stroke-width="0.88" stroke-linecap="round" stroke-linejoin="round"/>
<path d="M117.915 128.083L184.41 104.382C185.033 104.178 185.67 104.64 185.67 105.292V208.051C185.67 208.852 185.172 209.563 184.425 209.841L118.224 234.576L115.853 233.08" fill="#B22E2E"/>
<path d="M177.801 192.4L126.939 209.99L127.338 173.71L178.199 156.119L177.801 192.4Z" fill="#F54E2B"/>
<path d="M133.155 178.747L134.146 180.666L136.412 180.243L134.749 182.58L135.113 184.937L133.09 184.464L131.048 186.344L131.462 183.714L129.838 182.515L132.114 181.367L133.155 178.747Z" fill="#F9D976"/>
<path d="M140.043 171.483L140.492 172.348L141.508 172.159L140.76 173.208L140.925 174.267L140.018 174.053L139.097 174.898L139.286 173.72L138.554 173.178L139.58 172.661L140.043 171.483Z" fill="#F9D976"/>
<path d="M139.889 185.762L140.332 186.622L141.353 186.433L140.606 187.482L140.766 188.546L139.859 188.332L138.943 189.178L139.127 187.994L138.4 187.457L139.421 186.94L139.889 185.762Z" fill="#F9D976"/>
<path d="M141.941 175.704L142.384 176.569L143.405 176.38L142.658 177.429L142.817 178.488L141.911 178.274L140.995 179.12L141.179 177.941L140.452 177.399L141.473 176.882L141.941 175.704Z" fill="#F9D976"/>
<path d="M141.886 180.358L142.334 181.223L143.35 181.034L142.603 182.083L142.768 183.142L141.861 182.928L140.94 183.773L141.129 182.595L140.397 182.053L141.423 181.536L141.886 180.358Z" fill="#F9D976"/>
<path d="M120.554 130.265L183.703 107.365" stroke="#A30707" stroke-width="0.88" stroke-linecap="round" stroke-linejoin="round"/>
<path d="M183.703 107.365L183.339 207.594L120.554 231.444V130.265" stroke="#A30707" stroke-width="0.88" stroke-linecap="round" stroke-linejoin="round"/>
<path opacity="0.4" d="M126.82 138.34L178.239 120.888V136.451L126.82 154.335V138.34Z" fill="#A30707"/>
<path opacity="0.4" d="M126.82 158.118L178.239 140.667V143.864L126.82 161.753V158.118Z" fill="#A30707"/>
<path d="M178.971 109.344C179.489 111.725 181.138 113.381 183.578 113.446" stroke="#A30707" stroke-width="0.88" stroke-linecap="round" stroke-linejoin="round"/>
<path d="M120.948 136.709C122.562 136.237 123.966 135.088 124.753 133.602C125.54 132.115 125.694 130.31 125.176 128.714" stroke="#A30707" stroke-width="0.88" stroke-linecap="round" stroke-linejoin="round"/>
<path d="M120.813 223.683C122.328 223.33 124.001 223.723 125.196 224.722C126.392 225.721 127.084 227.288 127.009 228.839" stroke="#A30707" stroke-width="0.88" stroke-linecap="round" stroke-linejoin="round"/>
<path d="M178.14 209.578C177.721 206.242 178.927 202.12 183.329 200.504" stroke="#A30707" stroke-width="0.88" stroke-linecap="round" stroke-linejoin="round"/>
<path d="M120.779 209.349C120.779 209.349 121.117 136.635 120.281 131.166C119.768 127.824 117.382 125.478 115.415 124.821C115.161 124.737 115.126 124.389 115.355 124.25L118.786 122.161C118.876 122.107 118.986 122.097 119.085 122.137C125.455 124.801 124.768 133.895 124.768 133.895L124.644 207.977L122.567 205.988L120.784 209.344L120.779 209.349Z" fill="#F54E2B"/>
<path d="M87.8173 123.394L108.716 78.4533C108.855 78.15 109.199 77.9958 109.523 78.0953C109.801 78.1798 110.14 78.2842 110.434 78.3787C110.817 78.498 111.012 78.9306 110.842 79.2935L89.8394 125.304L87.8222 123.394H87.8173Z" fill="#A30707"/>
<path d="M118.239 234.636L118.248 127.964C113.223 129.177 107.371 129.361 102.38 128.719C96.9466 128.023 91.5477 126.303 87.8173 123.395V224.693C87.8173 231.479 96.3689 234.099 101.031 234.532C106.728 235.064 113.019 235.432 118.234 234.631L118.239 234.636Z" fill="#A30707"/>
<path d="M88.4149 133.105C98.1469 137.341 109.622 138.872 120.056 137.316" stroke="#B22E2E" stroke-width="0.84" stroke-linecap="round" stroke-linejoin="round"/>
<path d="M87.9567 139.195C97.6887 143.431 109.164 144.963 119.598 143.407" stroke="#B22E2E" stroke-width="0.84" stroke-linecap="round" stroke-linejoin="round"/>
<path d="M88.4149 215.997C98.1469 220.233 109.622 221.764 120.056 220.208" stroke="#B22E2E" stroke-width="0.84" stroke-linecap="round" stroke-linejoin="round"/>
<path d="M87.9567 222.087C97.6887 226.323 109.164 227.855 119.598 226.298" stroke="#B22E2E" stroke-width="0.84" stroke-linecap="round" stroke-linejoin="round"/>
<path d="M184.993 55.0415C184.993 58.0396 182.393 60.4758 179.191 60.4758C175.988 60.4758 173.388 58.0445 173.388 55.0415C173.388 52.0384 175.988 49.6072 179.191 49.6072C182.393 49.6072 184.993 52.0384 184.993 55.0415Z" fill="#F54E2B"/>
<path d="M180.197 28.0986H178.17V55.0415H180.197V28.0986Z" fill="#F54E2B"/>
<path d="M177.577 119.517H180.57C180.7 119.428 180.785 119.363 180.804 119.358C184.664 109.772 186.786 99.401 186.786 88.5622C186.786 77.7234 184.664 67.347 180.804 57.7661C180.804 57.6716 180.416 57.5672 179.913 57.5076H178.135C177.806 57.5672 177.572 57.6716 177.532 57.8407C173.692 67.4017 171.58 77.7532 171.58 88.5622C171.58 99.3712 173.573 109.817 177.413 119.383C177.467 119.433 177.522 119.473 177.577 119.517Z" fill="#F54E2B"/>
<path d="M176.446 119.517C176.212 119.328 175.973 119.14 175.744 118.951C161.35 115.346 150.752 103.11 150.752 88.5622C150.752 74.0144 161.35 61.7785 175.744 58.1738C176.018 57.9501 176.292 57.7263 176.571 57.5076H175.55C155.433 59.914 140.053 72.8907 140.053 88.5622C140.053 104.234 155.005 116.857 174.708 119.517H176.446Z" fill="#F9D976"/>
<path d="M150.752 88.5622C150.752 103.11 161.35 115.346 175.744 118.951C166.739 111.508 161.056 100.659 161.056 88.5622C161.056 76.4655 166.739 65.6168 175.744 58.1738C161.35 61.7785 150.752 74.0144 150.752 88.5622Z" fill="#F54E2B"/>
<path d="M182.827 57.5027H181.806C182.084 57.7215 182.358 57.9452 182.632 58.1689C197.026 61.7736 207.625 74.0095 207.625 88.5573C207.625 103.105 197.026 115.341 182.632 118.946C182.398 119.14 182.164 119.324 181.93 119.513H183.668C203.376 116.853 218.323 104.01 218.323 88.5573C218.323 73.1046 202.948 59.9091 182.827 57.5027Z" fill="#F9D976"/>
<path d="M207.62 88.5622C207.62 74.0144 197.021 61.7785 182.627 58.1738C191.632 65.6168 197.31 76.4655 197.31 88.5622C197.31 100.659 191.627 111.508 182.622 118.951C197.016 115.346 207.615 103.11 207.615 88.5622H207.62Z" fill="#F54E2B"/>
<path d="M175.744 118.951C175.923 119.1 176.108 119.309 176.312 119.518H178.488C178.18 119.468 177.871 119.418 177.562 119.358C177.552 119.334 177.542 119.309 177.532 119.284C173.692 109.723 171.58 99.3713 171.58 88.5623C171.58 77.7534 173.692 67.4068 177.532 57.8408C177.542 57.8159 177.552 57.7911 177.562 57.7662C178.055 57.6718 178.548 57.5872 179.046 57.5127C179.136 57.4977 179.231 57.4977 179.32 57.5127C179.709 57.5723 180.097 57.637 180.481 57.7115C180.59 57.7314 180.695 57.7463 180.804 57.7662C184.664 67.3521 186.786 77.7235 186.786 88.5623C186.786 99.4011 184.664 109.778 180.804 119.358C180.7 119.378 180.59 119.393 180.481 119.413C180.281 119.448 180.082 119.483 179.878 119.518H182.319C182.398 119.339 182.433 119.11 182.622 118.951C191.627 111.508 197.31 100.659 197.31 88.5623C197.31 76.4656 191.627 65.6169 182.627 58.1739C182.493 58.0596 182.353 57.9502 182.219 57.8358C182.065 57.7115 181.89 57.6071 181.721 57.5027H176.651C176.481 57.6071 176.307 57.7066 176.153 57.8358C176.013 57.9452 175.879 58.0596 175.744 58.1739C166.739 65.6169 161.057 76.4656 161.057 88.5623C161.057 100.659 166.739 111.508 175.744 118.951Z" fill="#F9D976"/>
<path d="M194.82 55.2603H163.547V60.436H194.82V55.2603Z" fill="#F54E2B"/>
<path d="M197.544 52.9534H160.827V57.1298H197.544V52.9534Z" fill="#F54E2B"/>
<path d="M189.884 119.433H168.488V122.973H189.884V119.433Z" fill="#F54E2B"/>
<path d="M191.747 117.857H166.625V120.716H191.747V117.857Z" fill="#F54E2B"/>
<path d="M169.568 122.973H168.487V144.293H169.568V122.973Z" fill="#F54E2B"/>
<path d="M171.6 122.973H170.52V144.293H171.6V122.973Z" fill="#F54E2B"/>
<path d="M173.627 122.973H172.547V144.293H173.627V122.973Z" fill="#F54E2B"/>
<path d="M175.659 122.973H174.579V144.293H175.659V122.973Z" fill="#F54E2B"/>
<path d="M177.691 122.973H176.611V144.293H177.691V122.973Z" fill="#F54E2B"/>
<path d="M179.724 122.973H178.643V144.293H179.724V122.973Z" fill="#F54E2B"/>
<path d="M181.761 122.973H180.68V144.293H181.761V122.973Z" fill="#F54E2B"/>
<path d="M183.793 122.973H182.712V144.293H183.793V122.973Z" fill="#F54E2B"/>
<path d="M185.82 122.973H184.739V144.293H185.82V122.973Z" fill="#F54E2B"/>
<path d="M187.852 122.973H186.771V144.293H187.852V122.973Z" fill="#F54E2B"/>
<path d="M189.884 122.973H188.803V144.293H189.884V122.973Z" fill="#F54E2B"/>
<path d="M189.884 122.973H168.487V124.484H189.884V122.973Z" fill="#F54E2B"/>
<g style="mix-blend-mode:multiply" opacity="0.5">
<path d="M179.724 144.297V124.489H180.68V144.297H181.761V124.489H182.707V144.297H183.788V124.489H184.734V144.297H185.815V124.489H186.761V144.297H187.842V124.489H188.788V144.297H189.869V120.716H191.732V117.857H191.468C207.177 113.273 218.308 101.892 218.308 88.5622C218.308 76.197 208.73 65.5124 194.81 60.3714V57.1297H197.529V52.9533H184.53C183.783 51.2728 182.154 50.0298 180.187 49.7066V28.0986H178.827V144.297H179.714H179.724Z" fill="#D6AEA1"/>
</g>
</g>
<path d="M259.739 82.6536L205.995 82.3722C204.022 82.3619 202.414 83.953 202.404 85.9259L202.304 104.987C202.293 106.96 203.884 108.568 205.857 108.578L259.602 108.86C261.575 108.87 263.183 107.279 263.193 105.306L263.293 86.2448C263.303 84.2718 261.712 82.664 259.739 82.6536Z" fill="#E63950"/>
<path d="M229.197 107.148C223.987 110.678 219.52 114.963 214.304 118.493L213.623 107.173L229.191 107.148H229.197Z" fill="#E63950"/>
<path d="M83.8649 17.9142L30.1203 18.1957C28.1473 18.206 26.5562 19.8138 26.5666 21.7868L26.6664 40.8478C26.6767 42.8208 28.2845 44.4119 30.2575 44.4016L84.0021 44.1202C85.9751 44.1098 87.5662 42.502 87.5559 40.529L87.4561 21.468C87.4457 19.495 85.8379 17.9039 83.8649 17.9142Z" fill="#E63950"/>
<path d="M60.6696 42.7039C65.8792 46.2337 70.3463 50.5183 75.562 54.0481L76.2436 42.7282L60.6756 42.7039H60.6696Z" fill="#E63950"/>
<defs>
<clipPath id="clip0_76_136">
<rect width="279" height="211.22" fill="white" transform="translate(0 24.7671)"/>
</clipPath>
</defs>
</svg>
