<svg width="284" height="246" viewBox="0 0 284 246" fill="none" xmlns="http://www.w3.org/2000/svg">
<path d="M62.8119 199.575C44.4842 182.63 35.2976 157.607 35.2976 124.587C35.2976 91.5674 44.4844 66.5444 62.8111 49.7375C81.1449 32.9239 107.574 24.4268 142.143 24.4268C176.712 24.4268 203.141 32.9239 221.475 49.7375C239.801 66.5444 248.988 91.5674 248.988 124.587C248.988 157.607 239.802 182.63 221.474 199.575C203.14 216.525 176.712 225.022 142.143 225.022C107.574 225.022 81.1455 216.525 62.8119 199.575Z" stroke="#E63950" stroke-width="0.595238"/>
<path d="M228.795 221.961C241.064 212.74 249.311 199.649 255.707 186.187C267.532 161.314 267.831 120.531 240.042 103.953C223.129 93.8627 208.504 110.563 198.529 88.3183C196.357 83.4678 195.572 78.1547 194.373 72.9938C189.869 53.6343 178.269 35.0233 159.774 26.016C141.279 17.0088 115.577 20.1126 102.687 36.0579C97.1794 42.8742 94.1182 51.5529 87.1619 57.0485C71.6974 69.2692 60.4383 65.2037 42.795 74.3266C26.6976 82.6462 10.6914 106.801 9.34641 115.334C1.60503 164.442 26.2776 178.89 48.668 205.583C67.4555 227.986 78.2642 228.594 107.154 237.157C136.045 245.72 174.155 248.636 200.142 233.08" stroke="#D1A092" stroke-miterlimit="10"/>
<g clip-path="url(#clip0_32_523)">
<path d="M185.833 209.171V73.1282C185.833 71.0043 184.117 69.2839 181.999 69.2839H62.9183C60.7997 69.2839 59.0837 71.0043 59.0837 73.1282V209.171H185.833Z" fill="#1A73E8"/>
<mask id="mask0_32_523" style="mask-type:luminance" maskUnits="userSpaceOnUse" x="59" y="69" width="127" height="141">
<path d="M185.833 209.171V73.1282C185.833 71.0043 184.117 69.2839 181.999 69.2839H62.9183C60.7997 69.2839 59.0837 71.0043 59.0837 73.1282V209.171H185.833Z" fill="white"/>
</mask>
<g mask="url(#mask0_32_523)">
<path d="M186.199 68.7263H70.7094V93.5338H186.199V68.7263Z" fill="#1B1B1A"/>
<path d="M186.199 93.5339H70.7094V118.341H186.199V93.5339Z" fill="#E63950"/>
<path d="M186.199 118.347H70.7094V143.154H186.199V118.347Z" fill="#FFD85D"/>
</g>
<path d="M70.9584 209.171V69.2839H62.8548C60.7732 69.2839 59.0837 71.0362 59.0837 73.192V209.171H70.9531H70.9584Z" fill="black"/>
<path d="M71.2232 208.704H70.6935C70.7253 161.749 70.7253 116.143 70.6935 69.2839H71.2232C71.255 116.143 71.255 161.749 71.2232 208.704Z" fill="#170044"/>
<path d="M88.1825 223.55C89.5331 210.881 89.7767 188.766 79.2368 169.369C63.3685 140.17 29.0739 128.202 29.0739 128.202C29.0739 128.202 20.4989 163.581 36.3671 192.785C44.8892 208.471 58.7288 219.18 69.7137 225.738L88.1825 223.556V223.55Z" fill="#B4D2E4"/>
<path d="M34.1016 136.888L33.6365 137.142L80.7491 223.842L81.2142 223.588L34.1016 136.888Z" fill="#F2F6FF"/>
<path d="M32.7594 160.262L32.6501 160.781L48.3795 164.104L48.4887 163.585L32.7594 160.262Z" fill="#F2F6FF"/>
<path d="M44.9032 198.953L44.794 199.472L70.5517 204.914L70.661 204.394L44.9032 198.953Z" fill="#F2F6FF"/>
<path d="M67.6274 163.573L59.5638 184.687L60.0584 184.877L68.1221 163.762L67.6274 163.573Z" fill="#F2F6FF"/>
<path d="M82.6659 202.427L77.1077 216.981L77.6024 217.171L83.1606 202.617L82.6659 202.427Z" fill="#F2F6FF"/>
<path d="M258.083 145.91C258.083 145.91 227.57 156.556 213.455 182.537C205.06 197.989 204.355 215.373 205.166 226.933H230.514C238.184 221.198 246.123 213.44 251.6 203.362C265.715 177.381 258.088 145.905 258.088 145.905L258.083 145.91Z" fill="#B4D2E4"/>
<path d="M253.59 153.65L214.099 226.355L214.564 226.609L254.055 153.904L253.59 153.65Z" fill="#F2F6FF"/>
<path d="M254.785 174.418L240.794 177.384L240.903 177.904L254.894 174.937L254.785 174.418Z" fill="#F2F6FF"/>
<path d="M243.99 208.804L221.082 213.665L221.192 214.184L244.1 209.323L243.99 208.804Z" fill="#F2F6FF"/>
<path d="M223.811 177.361L223.316 177.551L230.49 196.335L230.984 196.145L223.811 177.361Z" fill="#F2F6FF"/>
<path d="M210.432 211.919L209.938 212.109L214.884 225.062L215.379 224.872L210.432 211.919Z" fill="#F2F6FF"/>
<path d="M63.4692 226.864C62.8865 220.556 59.6716 206.867 52.6379 198.456C42.0449 185.781 24.1535 183.323 24.1535 183.323C24.1535 183.323 23.4385 201.414 34.0367 214.083C39.7251 220.89 47.5215 224.75 53.5171 226.864H63.4692Z" fill="#B4D2E4"/>
<path d="M56.8009 205.322C55.4715 202.746 53.9991 200.495 52.4366 198.621C46.6688 191.718 38.6817 187.889 33.0039 185.898L33.1787 185.399C38.9254 187.417 46.9972 191.288 52.8445 198.281C54.4334 200.182 55.927 202.47 57.2723 205.077L56.8009 205.322Z" fill="#F2F6FF"/>
<path d="M27.5533 186.977L27.1474 187.318L58.6024 224.939L59.0083 224.598L27.5533 186.977Z" fill="#F2F6FF"/>
<path d="M29.0961 198.457L29.0914 198.988L37.0835 199.059L37.0882 198.528L29.0961 198.457Z" fill="#F2F6FF"/>
<path d="M38.8018 216.13L38.7971 216.661L51.8842 216.778L51.8889 216.247L38.8018 216.13Z" fill="#F2F6FF"/>
<path d="M46.2796 196.739L44.4194 207.824L44.9417 207.912L46.8019 196.827L46.2796 196.739Z" fill="#F2F6FF"/>
<path d="M57.4148 214.186L56.1319 221.831L56.6542 221.919L57.9371 214.274L57.4148 214.186Z" fill="#F2F6FF"/>
<path d="M211.908 173.075C217.591 169.464 228.867 159.928 233.078 149.643C239.418 134.165 232.119 117.338 232.119 117.338C232.119 117.338 214.546 125.616 208.206 141.094C204.8 149.409 205.33 158.112 206.548 164.383L211.908 173.07V173.075Z" fill="#B4D2E4"/>
<path d="M211.633 168.079L211.14 167.877L229.964 121.915L230.451 122.117L211.633 168.079Z" fill="#F2F6FF"/>
<path d="M220.381 129.108L219.928 129.383L224.164 136.396L224.617 136.121L220.381 129.108Z" fill="#F2F6FF"/>
<path d="M208.818 146.226L208.365 146.501L215.303 157.982L215.756 157.707L208.818 146.226Z" fill="#F2F6FF"/>
<path d="M231.291 143.246L219.752 147.078L219.919 147.582L231.458 143.75L231.291 143.246Z" fill="#F2F6FF"/>
<path d="M220.701 161.562L212.747 164.203L212.914 164.707L220.868 162.066L220.701 161.562Z" fill="#F2F6FF"/>
<path d="M164.796 155.107C157.301 155.107 151.2 148.995 151.2 141.476C151.2 133.958 157.296 127.846 164.796 127.846V128.377C157.593 128.377 151.729 134.255 151.729 141.476C151.729 148.698 157.593 154.576 164.796 154.576V155.107Z" fill="#170044"/>
<path d="M221.669 207.026H158.816V222.727H221.669V207.026Z" fill="white"/>
<path d="M226.23 204.801C226.23 203.66 225.308 202.73 224.164 202.73H60.1748C56.7215 202.73 53.9249 205.534 53.9249 208.996V220.646C53.9249 223.996 56.6314 226.71 59.9735 226.71H224.164C225.303 226.71 226.23 225.786 226.23 224.639C226.23 223.497 225.308 222.568 224.164 222.568H162.026C160.506 222.568 159.277 221.336 159.277 219.812V210.09C159.277 208.311 160.718 206.867 162.492 206.867H224.159C225.297 206.867 226.224 205.943 226.224 204.796L226.23 204.801Z" fill="#14171B"/>
<path d="M71.1014 220.8V209.15C71.1014 205.688 73.8979 202.884 77.3512 202.884H68.7285C65.2752 202.884 62.4787 205.688 62.4787 209.15V220.8C62.4787 224.15 65.1852 226.863 68.5273 226.863H77.1499C73.8078 226.863 71.1014 224.15 71.1014 220.8Z" fill="#E63950"/>
<path d="M78.67 220.8V209.15C78.67 205.688 81.4665 202.884 84.9198 202.884H76.2972C72.8439 202.884 70.0474 205.688 70.0474 209.15V220.8C70.0474 224.15 72.7539 226.863 76.0959 226.863H84.7186C81.3765 226.863 78.67 224.15 78.67 220.8Z" fill="#FFD85D"/>
<path d="M159.807 227.129C156.327 227.129 153.493 224.288 153.493 220.8V209.15C153.493 205.55 156.417 202.619 160.008 202.619V203.15C156.708 203.15 154.023 205.842 154.023 209.15V220.8C154.023 223.996 156.618 226.598 159.807 226.598V227.129Z" fill="#170044"/>
<path d="M179.631 220.492L172.974 217.136L166.311 220.492V210.323H179.631V220.492Z" fill="#FCBC1D"/>
<path d="M221.664 210.058H163.8V210.589H221.664V210.058Z" fill="#CEDDFF"/>
<path d="M221.664 213.18H198.354V213.711H221.664V213.18Z" fill="#CEDDFF"/>
<path d="M206.055 218.012H182.746V218.543H206.055V218.012Z" fill="#CEDDFF"/>
<path d="M62.4734 172.507H139.977C141.121 172.507 142.048 171.578 142.048 170.431V161.877C142.048 160.73 141.121 159.801 139.977 159.801H62.4734V172.512V172.507Z" fill="white"/>
<path d="M139.59 170.08H62.4734V170.611H139.59V170.08Z" fill="#CEDDFF"/>
<path d="M142.048 163.162H124.712V163.693H142.048V163.162Z" fill="#CEDDFF"/>
<path d="M131.847 161.834H62.4734V162.365H131.847V161.834Z" fill="#CEDDFF"/>
<path d="M135.57 159.795C136.714 159.795 137.641 160.725 137.641 161.871V170.426C137.641 171.572 136.714 172.502 135.57 172.502H59.9417V174.96H230.657C232.458 174.96 233.915 173.5 233.915 171.695V160.597C233.915 158.792 232.458 157.332 230.657 157.332H59.9417V159.79H135.57V159.795Z" fill="#170044"/>
<path d="M136.958 175.231V174.7C138.61 174.7 139.95 173.351 139.95 171.7V160.602C139.95 158.946 138.61 157.602 136.958 157.602V157.071C138.901 157.071 140.48 158.654 140.48 160.602V171.7C140.48 173.649 138.901 175.231 136.958 175.231Z" fill="#534084"/>
<path d="M150.57 157.337H147.821C149.621 157.337 151.078 158.797 151.078 160.602V171.7C151.078 173.505 149.621 174.965 147.821 174.965H150.57C152.37 174.965 153.827 173.505 153.827 171.7V160.602C153.827 158.797 152.37 157.337 150.57 157.337Z" fill="#534084"/>
<path d="M222.014 157.337H219.265C221.066 157.337 222.522 158.797 222.522 160.602V171.7C222.522 173.505 221.066 174.965 219.265 174.965H222.014C223.814 174.965 225.271 173.505 225.271 171.7V160.602C225.271 158.797 223.814 157.337 222.014 157.337Z" fill="#534084"/>
<path d="M52.6432 201.934H130.634V176.33H52.6432V201.934Z" fill="white"/>
<path d="M119.215 177.716C125.39 177.716 130.395 182.734 130.395 188.925C130.395 195.116 125.39 200.134 119.215 200.134H49.37V202.884H215.886C223.576 202.884 229.81 196.635 229.81 188.925C229.81 181.215 223.576 174.965 215.886 174.965H49.37V177.716H119.215Z" fill="#E63950"/>
<path d="M119.585 203.15V202.619C127.117 202.619 133.245 196.476 133.245 188.925C133.245 181.374 127.117 175.231 119.585 175.231V174.7C127.408 174.7 133.775 181.082 133.775 188.925C133.775 196.768 127.408 203.15 119.585 203.15Z" fill="#170044"/>
<path d="M105.724 194.898H52.6379V195.429H105.724V194.898Z" fill="#CEDDFF"/>
<path d="M116.407 183.891H52.6379V184.422H116.407V183.891Z" fill="#CEDDFF"/>
<path d="M120.502 191.936H67.415V192.467H120.502V191.936Z" fill="#CEDDFF"/>
<path d="M216.982 195.876H139.304V181.773H216.982V195.876ZM139.834 195.345H216.452V182.304H139.834V195.345Z" fill="#170044"/>
<path d="M217.061 202.619H64.5391V203.15H217.061V202.619Z" fill="#170044"/>
<path d="M187.348 116.435H136.921C135.777 116.435 134.85 117.364 134.85 118.511V127.066C134.85 128.212 135.777 129.142 136.921 129.142H187.348V116.43V116.435Z" fill="white"/>
<path d="M187.343 118.331H161.475V118.862H187.343V118.331Z" fill="#CEDDFF"/>
<path d="M152.174 118.331H134.844V118.862H152.174V118.331Z" fill="#CEDDFF"/>
<path d="M165.553 124.835H134.844V125.366H165.553V124.835Z" fill="#CEDDFF"/>
<path d="M183.651 122.525H147.45V123.056H183.651V122.525Z" fill="#CEDDFF"/>
<path d="M187.343 126.577H145.04V127.108H187.343V126.577Z" fill="#CEDDFF"/>
<path d="M141.322 129.147C140.178 129.147 139.251 128.218 139.251 127.071V118.517C139.251 117.37 140.178 116.44 141.322 116.44H188.582V113.982H88.3626C86.5618 113.982 85.1052 115.442 85.1052 117.247V128.345C85.1052 130.15 86.5618 131.611 88.3626 131.611H188.582V129.152H141.322V129.147Z" fill="#1A73E8"/>
<path d="M95.677 128.34V117.242C95.677 115.437 97.1335 113.977 98.9343 113.977H93.1506C91.3498 113.977 89.8932 115.437 89.8932 117.242V128.34C89.8932 130.145 91.3498 131.605 93.1506 131.605H98.9343C97.1335 131.605 95.677 130.145 95.677 128.34Z" fill="#FCBC1D"/>
<path d="M132.011 128.34V117.242C132.011 115.437 133.467 113.977 135.268 113.977H129.484C127.684 113.977 126.227 115.437 126.227 117.242V128.34C126.227 130.145 127.684 131.605 129.484 131.605H135.268C133.467 131.605 132.011 130.145 132.011 128.34Z" fill="#FCBC1D"/>
<path d="M139.934 131.871C137.99 131.871 136.412 130.288 136.412 128.34V117.242C136.412 115.294 137.99 113.711 139.934 113.711V114.242C138.287 114.242 136.942 115.586 136.942 117.242V128.34C136.942 129.996 138.282 131.34 139.934 131.34V131.871Z" fill="#170044"/>
<path d="M223.963 31.478H200.96C199.429 31.478 198.185 32.7205 198.185 34.2603V42.9525C198.185 44.487 199.424 45.7349 200.96 45.7349H200.987V48.5278L203.047 45.7349H223.968C225.499 45.7349 226.743 44.4924 226.743 42.9525V34.255C226.743 32.7205 225.504 31.4727 223.968 31.4727L223.963 31.478Z" fill="#B4D2E4"/>
<path d="M50.8106 33.1028H78.2728C81.223 33.1028 83.6117 35.4975 83.6117 38.4551V55.1917C83.6117 58.1492 81.2177 60.544 78.2728 60.544H78.2199V65.9228L74.2581 60.544H50.8106C47.8605 60.544 45.4718 58.1439 45.4718 55.1917V38.4551C45.4718 35.4975 47.8605 33.1028 50.8106 33.1028Z" fill="#E63950"/>
<path d="M215.319 132.481H153.673V156.126H215.319V132.481Z" fill="white"/>
<path d="M164.219 154.846C158.514 154.846 153.89 150.211 153.89 144.497C153.89 138.779 158.514 134.143 164.219 134.143H218.338V131.605H74.9519C67.8494 131.605 62.0921 137.377 62.0921 144.497C62.0921 151.618 67.8494 157.39 74.9519 157.39H218.338V154.852H164.219V154.846Z" fill="#E63950"/>
<path d="M71.97 144.497C71.97 137.377 77.7273 131.605 84.8299 131.605H82.0227C74.9202 131.605 69.1629 137.377 69.1629 144.497C69.1629 151.618 74.9202 157.39 82.0227 157.39H84.8299C77.7273 157.39 71.97 151.618 71.97 144.497Z" fill="white"/>
<path d="M139.765 144.497C139.765 137.377 145.522 131.605 152.625 131.605H149.818C142.715 131.605 136.958 137.377 136.958 144.497C136.958 151.618 142.715 157.39 149.818 157.39H152.625C145.522 157.39 139.765 151.618 139.765 144.497Z" fill="white"/>
<path d="M163.874 157.655C156.639 157.655 150.75 151.751 150.75 144.498C150.75 137.244 156.639 131.34 163.874 131.34V131.871C156.931 131.871 151.279 137.536 151.279 144.498C151.279 151.459 156.931 157.124 163.874 157.124V157.655Z" fill="#170044"/>
<path d="M215.319 138.471H176.676V139.002H215.319V138.471Z" fill="#CEDDFF"/>
<path d="M215.319 148.634H166.809V149.165H215.319V148.634Z" fill="#CEDDFF"/>
<path d="M201.675 141.206H163.032V141.737H201.675V141.206Z" fill="#CEDDFF"/>
<path d="M123.579 154.544C114.156 154.544 104.734 154.544 95.3116 154.544C88.9399 149.377 88.9399 139.618 95.3116 134.451H123.579C117.207 139.618 117.207 149.377 123.579 154.544Z" fill="#170044"/>
<path d="M218.338 131.34H74.9519V131.871H218.338V131.34Z" fill="#170044"/>
<path d="M247.013 226.598H32.6755V227.129H247.013V226.598Z" fill="#170044"/>
<path d="M164.24 24.1292H96.7469C94.1675 24.1292 92.0754 26.2265 92.0754 28.8124V41.0463C92.0754 43.6321 94.1675 45.7295 96.7469 45.7295H127.286L130.528 65.0679L133.711 45.7295H164.24C166.819 45.7295 168.911 43.6321 168.911 41.0463V28.8124C168.911 26.2265 166.819 24.1292 164.24 24.1292Z" fill="#1A73E8"/>
<path d="M205.775 41.6569V38.7684H203.169V41.6569H202.353V35.6833H203.169V38.0781H205.775V35.6833H206.59V41.6569H205.775Z" fill="white"/>
<path d="M210.208 41.1525C209.901 41.5401 209.424 41.7366 208.788 41.7366C208.444 41.7366 208.147 41.6144 207.899 41.3649C207.65 41.1153 207.522 40.8073 207.522 40.4357C207.522 39.9949 207.718 39.6179 208.1 39.31C208.486 39.002 208.979 38.8533 209.577 38.8533C209.742 38.8533 209.927 38.8905 210.128 38.9595C210.128 38.2533 209.816 37.8976 209.186 37.8976C208.704 37.8976 208.333 38.0303 208.073 38.2905L207.75 37.6427C207.899 37.5206 208.1 37.4197 208.359 37.3347C208.619 37.2498 208.868 37.2073 209.101 37.2073C209.731 37.2073 210.192 37.3506 210.478 37.6374C210.764 37.9241 210.907 38.3861 210.907 39.0126V40.579C210.907 40.9613 211.018 41.2162 211.251 41.3436V41.7312C210.939 41.7312 210.7 41.6888 210.547 41.5985C210.393 41.5082 210.277 41.3596 210.213 41.1525H210.208ZM210.134 39.5117C209.89 39.4586 209.72 39.4321 209.62 39.4321C209.228 39.4321 208.91 39.533 208.666 39.7348C208.423 39.9365 208.296 40.1755 208.296 40.4463C208.296 40.8976 208.561 41.1259 209.096 41.1259C209.487 41.1259 209.832 40.9401 210.134 40.5684V39.5117Z" fill="white"/>
<path d="M212.183 40.4198V35.4976H212.957V40.287C212.957 40.5207 213.025 40.7065 213.158 40.8392C213.29 40.972 213.465 41.041 213.682 41.041V41.7313C212.681 41.7313 212.183 41.2906 212.183 40.4145V40.4198Z" fill="white"/>
<path d="M214.641 40.4198V35.4976H215.414V40.287C215.414 40.5207 215.483 40.7065 215.616 40.8392C215.748 40.972 215.923 41.041 216.14 41.041V41.7313C215.139 41.7313 214.641 41.2906 214.641 40.4145V40.4198Z" fill="white"/>
<path d="M216.749 39.464C216.749 38.7896 216.929 38.248 217.294 37.8285C217.655 37.4144 218.131 37.2073 218.724 37.2073C219.349 37.2073 219.831 37.409 220.176 37.802C220.52 38.1949 220.695 38.7524 220.695 39.4586C220.695 40.1649 220.52 40.7171 220.165 41.1259C219.81 41.5295 219.334 41.7366 218.724 41.7366C218.115 41.7366 217.618 41.5295 217.273 41.1206C216.929 40.7118 216.754 40.1595 216.754 39.464H216.749ZM217.565 39.464C217.565 40.5578 217.951 41.1047 218.724 41.1047C219.085 41.1047 219.365 40.956 219.572 40.664C219.778 40.3719 219.879 39.9684 219.879 39.464C219.879 38.3807 219.492 37.8391 218.724 37.8391C218.37 37.8391 218.089 37.9825 217.882 38.2692C217.67 38.556 217.57 38.9542 217.57 39.4586L217.565 39.464Z" fill="white"/>
<path d="M222.517 40.5099C222.686 40.5099 222.829 40.5683 222.946 40.6905C223.068 40.8126 223.126 40.9559 223.126 41.1205C223.126 41.2852 223.068 41.4338 222.946 41.556C222.824 41.6781 222.681 41.7365 222.517 41.7365C222.353 41.7365 222.204 41.6781 222.088 41.556C221.966 41.4338 221.908 41.2905 221.908 41.1205C221.908 40.9506 221.966 40.8073 222.088 40.6905C222.21 40.5736 222.353 40.5099 222.517 40.5099ZM222.633 40.0958H222.342C222.135 38.7258 222.03 37.7807 222.03 37.2444V35.5718H222.951V37.2391C222.951 37.7594 222.845 38.7099 222.633 40.0958Z" fill="white"/>
<path d="M104.956 37.478L103.161 30.3788H104.125L104.967 33.9682C105.179 34.855 105.364 35.7364 105.491 36.4214H105.513C105.629 35.7152 105.846 34.8709 106.09 33.9576L107.038 30.3735H107.991L108.855 33.9735C109.056 34.8178 109.241 35.6568 109.347 36.4054H109.368C109.517 35.6249 109.718 34.8337 109.935 33.9523L110.873 30.3682H111.81L109.803 37.4674H108.849L107.954 33.7718C107.732 32.8638 107.589 32.1735 107.493 31.4567H107.472C107.345 32.1629 107.186 32.8585 106.927 33.7718L105.92 37.4674H104.962L104.956 37.478Z" fill="white"/>
<path d="M113.515 30.9469C113.526 31.2655 113.293 31.5151 112.928 31.5151C112.599 31.5151 112.371 31.2602 112.371 30.9469C112.371 30.6337 112.615 30.3682 112.949 30.3682C113.282 30.3682 113.515 30.623 113.515 30.9469ZM112.488 37.478V32.3806H113.415V37.478H112.488Z" fill="white"/>
<path d="M115.459 35.0939C115.48 36.3471 116.28 36.8621 117.202 36.8621C117.864 36.8621 118.261 36.7453 118.611 36.5966L118.77 37.2603C118.441 37.409 117.885 37.5736 117.08 37.5736C115.512 37.5736 114.58 36.5435 114.58 35.0037C114.58 33.4638 115.486 32.2532 116.963 32.2532C118.621 32.2532 119.066 33.7187 119.066 34.6532C119.066 34.8444 119.045 34.9877 119.034 35.0833H115.465L115.459 35.0939ZM118.171 34.4302C118.182 33.8408 117.927 32.9222 116.889 32.9222C115.952 32.9222 115.544 33.7877 115.47 34.4302H118.171Z" fill="white"/>
<path d="M126.82 32.3807C126.799 32.7471 126.778 33.1613 126.778 33.7825V36.7401C126.778 37.9083 126.545 38.6251 126.052 39.0658C125.56 39.5278 124.845 39.6764 124.204 39.6764C123.563 39.6764 122.922 39.5278 122.514 39.257L122.747 38.5508C123.081 38.7631 123.611 38.949 124.241 38.949C125.189 38.949 125.877 38.4552 125.877 37.1702V36.602H125.856C125.57 37.0746 125.025 37.4569 124.241 37.4569C122.98 37.4569 122.075 36.3843 122.075 34.9719C122.075 33.2462 123.197 32.2639 124.363 32.2639C125.247 32.2639 125.729 32.7259 125.952 33.1507H125.973L126.015 32.3807H126.826H126.82ZM125.867 34.3932C125.867 34.2339 125.856 34.1011 125.814 33.9737C125.644 33.4374 125.194 32.9967 124.522 32.9967C123.637 32.9967 123.007 33.7454 123.007 34.9241C123.007 35.9224 123.51 36.756 124.511 36.756C125.078 36.756 125.591 36.4003 125.793 35.8056C125.846 35.6463 125.867 35.4711 125.867 35.3118V34.3932Z" fill="white"/>
<path d="M128.822 35.0939C128.843 36.3471 129.643 36.8621 130.565 36.8621C131.227 36.8621 131.624 36.7453 131.974 36.5966L132.133 37.2603C131.804 37.409 131.248 37.5736 130.443 37.5736C128.875 37.5736 127.943 36.5435 127.943 35.0037C127.943 33.4638 128.849 32.2532 130.326 32.2532C131.984 32.2532 132.429 33.7187 132.429 34.6532C132.429 34.8444 132.408 34.9877 132.397 35.0833H128.828L128.822 35.0939ZM131.534 34.4302C131.545 33.8408 131.29 32.9222 130.252 32.9222C129.315 32.9222 128.907 33.7877 128.833 34.4302H131.534Z" fill="white"/>
<path d="M133.573 29.9966H134.5V33.1772H134.521C134.67 32.9117 134.897 32.6834 135.183 32.5241C135.459 32.3648 135.782 32.2586 136.131 32.2586C136.815 32.2586 137.906 32.678 137.906 34.4409V37.4728H136.979V34.5471C136.979 33.7241 136.672 33.0285 135.803 33.0285C135.204 33.0285 134.733 33.448 134.564 33.9577C134.511 34.0851 134.5 34.2232 134.5 34.3984V37.4728H133.573V29.9966Z" fill="white"/>
<path d="M140.474 30.9153V32.3808H141.799V33.087H140.474V35.8375C140.474 36.4694 140.655 36.8304 141.168 36.8304C141.412 36.8304 141.587 36.7986 141.703 36.7667L141.746 37.4623C141.566 37.5366 141.285 37.5897 140.925 37.5897C140.496 37.5897 140.146 37.4517 139.929 37.2021C139.664 36.926 139.574 36.4747 139.574 35.8747V33.0923H138.785V32.3861H139.574V31.1648L140.48 30.9206L140.474 30.9153Z" fill="white"/>
<path d="M145.58 35.0939C145.601 36.3471 146.401 36.8621 147.323 36.8621C147.985 36.8621 148.382 36.7453 148.732 36.5966L148.891 37.2603C148.562 37.409 148.006 37.5736 147.201 37.5736C145.633 37.5736 144.701 36.5435 144.701 35.0037C144.701 33.4638 145.607 32.2532 147.084 32.2532C148.742 32.2532 149.187 33.7187 149.187 34.6532C149.187 34.8444 149.166 34.9877 149.155 35.0833H145.586L145.58 35.0939ZM148.292 34.4302C148.303 33.8408 148.048 32.9222 147.01 32.9222C146.073 32.9222 145.665 33.7877 145.591 34.4302H148.292Z" fill="white"/>
<path d="M150.204 36.5276C150.48 36.7082 150.962 36.894 151.422 36.894C152.095 36.894 152.413 36.5595 152.413 36.1347C152.413 35.694 152.148 35.4498 151.465 35.2002C150.548 34.871 150.119 34.3665 150.119 33.7559C150.119 32.9329 150.781 32.2585 151.872 32.2585C152.386 32.2585 152.836 32.4072 153.122 32.5771L152.889 33.2515C152.688 33.124 152.323 32.9541 151.851 32.9541C151.306 32.9541 150.999 33.2674 150.999 33.6497C150.999 34.0692 151.306 34.2603 151.968 34.5152C152.852 34.8497 153.303 35.2958 153.303 36.0551C153.303 36.9524 152.609 37.5843 151.401 37.5843C150.845 37.5843 150.331 37.4462 149.971 37.2392L150.204 36.533V36.5276Z" fill="white"/>
<path d="M155.204 35.4656L155.183 35.1895C155.119 34.6213 155.31 34.0001 155.834 33.3682C156.306 32.8107 156.57 32.3965 156.57 31.9239C156.57 31.3876 156.237 31.0266 155.575 31.016C155.199 31.016 154.775 31.1434 154.515 31.3452L154.261 30.6814C154.606 30.4266 155.209 30.262 155.765 30.262C156.973 30.262 157.519 31.0106 157.519 31.8124C157.519 32.5293 157.121 33.0443 156.613 33.6443C156.152 34.1912 155.983 34.6532 156.014 35.1948L156.025 35.4709H155.204V35.4656ZM154.971 36.9417C154.971 36.5541 155.236 36.278 155.601 36.278C155.967 36.278 156.221 36.5541 156.221 36.9417C156.221 37.3081 155.977 37.5948 155.591 37.5948C155.225 37.5948 154.971 37.3081 154.971 36.9417Z" fill="white"/>
<path d="M151.782 192.291H151.3L149.86 188.118L148.456 192.291H147.974L145.808 185.58H147.032L148.271 189.573L149.611 185.58H150.125L151.47 189.573L152.704 185.58H153.928L151.793 192.291H151.782Z" fill="white"/>
<path d="M154.304 188.835C154.304 187.89 154.563 187.093 155.077 186.44C155.591 185.787 156.279 185.463 157.142 185.463C158.091 185.463 158.816 185.76 159.319 186.35C159.822 186.939 160.071 187.767 160.071 188.835C160.071 189.902 159.807 190.746 159.282 191.373C158.758 191.999 158.011 192.313 157.047 192.313C156.163 192.313 155.479 192.005 155.008 191.383C154.537 190.762 154.298 189.913 154.298 188.835H154.304ZM155.829 183.753C156.004 183.753 156.157 183.817 156.284 183.944C156.412 184.072 156.47 184.22 156.47 184.401C156.47 184.582 156.406 184.73 156.284 184.858C156.157 184.985 156.009 185.043 155.829 185.043C155.649 185.043 155.501 184.98 155.373 184.858C155.246 184.736 155.183 184.582 155.183 184.401C155.183 184.22 155.246 184.072 155.373 183.944C155.501 183.817 155.649 183.753 155.829 183.753ZM155.522 188.835C155.522 189.61 155.654 190.21 155.914 190.635C156.173 191.059 156.555 191.272 157.052 191.272C157.64 191.272 158.085 191.065 158.392 190.651C158.7 190.236 158.853 189.631 158.853 188.84C158.853 187.29 158.281 186.514 157.142 186.514C156.618 186.514 156.221 186.727 155.94 187.146C155.659 187.566 155.522 188.134 155.522 188.845V188.835ZM158.625 183.753C158.8 183.753 158.954 183.817 159.081 183.944C159.208 184.072 159.266 184.22 159.266 184.401C159.266 184.582 159.203 184.73 159.081 184.858C158.959 184.985 158.806 185.043 158.625 185.043C158.445 185.043 158.297 184.98 158.17 184.858C158.043 184.736 157.979 184.582 157.979 184.401C157.979 184.22 158.043 184.072 158.17 183.944C158.297 183.817 158.445 183.753 158.625 183.753Z" fill="white"/>
<path d="M164.833 192.201L163.069 189.467C162.894 189.467 162.646 189.451 162.328 189.435V192.201H161.11V185.58C161.173 185.58 161.427 185.569 161.872 185.548C162.312 185.527 162.672 185.516 162.942 185.516C164.621 185.516 165.458 186.169 165.458 187.47C165.458 187.863 165.341 188.219 165.108 188.543C164.875 188.867 164.584 189.095 164.234 189.228L166.189 192.212H164.838L164.833 192.201ZM162.328 186.605V188.442C162.545 188.458 162.709 188.468 162.826 188.468C163.313 188.468 163.673 188.399 163.901 188.261C164.129 188.123 164.24 187.852 164.24 187.454C164.24 187.13 164.118 186.902 163.874 186.769C163.631 186.642 163.249 186.573 162.725 186.573C162.598 186.573 162.465 186.583 162.328 186.599V186.605Z" fill="white"/>
<path d="M169.06 186.626V192.201H167.889V186.626H165.786V185.58H171.252V186.626H169.06Z" fill="white"/>
<path d="M173.196 186.626V188.176H175.378V189.174H173.196V191.16H176.189V192.206H172.026V185.585H176.242V186.631H173.201L173.196 186.626Z" fill="white"/>
<path d="M180.998 192.201L179.234 189.467C179.059 189.467 178.81 189.451 178.493 189.435V192.201H177.274V185.58C177.338 185.58 177.592 185.569 178.037 185.548C178.477 185.527 178.837 185.516 179.107 185.516C180.786 185.516 181.623 186.169 181.623 187.47C181.623 187.863 181.506 188.219 181.273 188.543C181.04 188.867 180.749 189.095 180.399 189.228L182.354 192.212H181.003L180.998 192.201ZM178.493 186.605V188.442C178.71 188.458 178.874 188.468 178.99 188.468C179.478 188.468 179.838 188.399 180.066 188.261C180.293 188.123 180.405 187.852 180.405 187.454C180.405 187.13 180.283 186.902 180.039 186.769C179.796 186.642 179.414 186.573 178.89 186.573C178.763 186.573 178.63 186.583 178.493 186.599V186.605Z" fill="white"/>
<path d="M184.933 192.201H182.915V185.585C183.805 185.542 184.43 185.521 184.785 185.521C185.468 185.521 186.003 185.67 186.39 185.962C186.776 186.254 186.967 186.673 186.967 187.22C186.967 187.767 186.691 188.16 186.135 188.463C186.956 188.75 187.364 189.339 187.364 190.236C187.364 190.836 187.136 191.32 186.681 191.67C186.225 192.02 185.643 192.201 184.922 192.201H184.933ZM184.086 186.525V188.112C184.266 188.123 184.456 188.128 184.652 188.128C185.415 188.128 185.796 187.842 185.796 187.268C185.796 186.758 185.447 186.504 184.753 186.504C184.568 186.504 184.345 186.509 184.08 186.525H184.086ZM184.086 189.026V191.213C184.324 191.235 184.515 191.245 184.663 191.245C185.187 191.245 185.563 191.155 185.802 190.98C186.04 190.805 186.156 190.507 186.156 190.093C186.156 189.716 186.045 189.44 185.828 189.27C185.611 189.1 185.224 189.01 184.679 189.01C184.562 189.01 184.366 189.01 184.086 189.026Z" fill="white"/>
<path d="M188.408 185.58H189.578V190.067C189.578 190.422 189.684 190.709 189.901 190.932C190.118 191.155 190.415 191.267 190.796 191.267C191.22 191.267 191.548 191.155 191.787 190.937C192.025 190.72 192.142 190.422 192.142 190.04V185.574H193.312V190.13C193.312 190.81 193.084 191.346 192.629 191.729C192.173 192.116 191.564 192.307 190.807 192.307C190.049 192.307 189.451 192.121 189.033 191.744C188.614 191.367 188.408 190.826 188.408 190.125V185.574V185.58Z" fill="white"/>
<path d="M199.191 185.93L198.709 186.902C198.45 186.642 198.026 186.509 197.449 186.509C196.898 186.509 196.448 186.743 196.098 187.205C195.748 187.666 195.568 188.251 195.568 188.962C195.568 189.674 195.733 190.231 196.056 190.645C196.384 191.059 196.818 191.267 197.359 191.267C197.978 191.267 198.465 191.044 198.82 190.598L199.366 191.548C198.889 192.058 198.19 192.313 197.263 192.313C196.336 192.313 195.621 192.01 195.113 191.399C194.604 190.789 194.345 189.96 194.345 188.909C194.345 187.932 194.631 187.109 195.192 186.451C195.759 185.792 196.485 185.463 197.369 185.463C198.127 185.463 198.73 185.617 199.186 185.93H199.191Z" fill="white"/>
<path d="M204.112 192.201V189.217H201.484V192.201H200.314V185.58H201.484V188.171H204.112V185.58H205.271V192.201H204.112Z" fill="white"/>
<path d="M88.4367 208.874C89.2788 208.747 90.2799 208.651 91.3762 208.651C93.3624 208.651 94.7766 209.113 95.7141 209.989C96.6674 210.865 97.2235 212.108 97.2235 213.844C97.2235 215.58 96.6833 217.03 95.6823 218.018C94.6812 219.021 93.0287 219.563 90.9472 219.563C89.9621 219.563 89.1358 219.515 88.4367 219.435V208.874ZM89.8191 218.368C90.1687 218.432 90.6771 218.448 91.2174 218.448C94.1728 218.448 95.7776 216.791 95.7776 213.892C95.7935 211.359 94.3635 209.75 91.4398 209.75C90.7248 209.75 90.1845 209.814 89.8191 209.894V218.368Z" fill="white"/>
<path d="M99.8082 215.867C99.84 217.763 101.048 218.543 102.446 218.543C103.447 218.543 104.051 218.368 104.575 218.145L104.813 219.149C104.321 219.372 103.479 219.626 102.255 219.626C99.8877 219.626 98.4735 218.065 98.4735 215.74C98.4735 213.414 99.84 211.582 102.08 211.582C104.591 211.582 105.258 213.796 105.258 215.214C105.258 215.501 105.227 215.724 105.211 215.867H99.8082ZM103.908 214.864C103.924 213.971 103.542 212.586 101.969 212.586C100.555 212.586 99.9353 213.892 99.8241 214.864H103.908Z" fill="white"/>
<path d="M113.425 217.365C113.425 218.161 113.441 218.862 113.489 219.467H112.25L112.17 218.209H112.138C111.773 218.83 110.963 219.642 109.596 219.642C108.388 219.642 106.943 218.973 106.943 216.265V211.757H108.341V216.026C108.341 217.492 108.786 218.48 110.057 218.48C110.994 218.48 111.646 217.826 111.9 217.205C111.98 216.998 112.027 216.743 112.027 216.488V211.757H113.425V217.365Z" fill="white"/>
<path d="M117.43 209.543V211.757H119.432V212.824H117.43V216.982C117.43 217.938 117.7 218.479 118.478 218.479C118.844 218.479 119.114 218.432 119.289 218.384L119.352 219.435C119.082 219.547 118.653 219.626 118.113 219.626C117.461 219.626 116.937 219.419 116.603 219.037C116.206 218.623 116.063 217.938 116.063 217.03V212.824H114.871V211.757H116.063V209.909L117.43 209.543Z" fill="white"/>
<path d="M120.814 218.033C121.227 218.304 121.958 218.591 122.657 218.591C123.674 218.591 124.151 218.081 124.151 217.444C124.151 216.775 123.754 216.409 122.721 216.026C121.338 215.533 120.687 214.768 120.687 213.844C120.687 212.602 121.688 211.582 123.34 211.582C124.119 211.582 124.802 211.805 125.231 212.06L124.882 213.079C124.58 212.888 124.024 212.633 123.309 212.633C122.482 212.633 122.022 213.111 122.022 213.685C122.022 214.322 122.482 214.609 123.483 214.991C124.818 215.501 125.501 216.17 125.501 217.317C125.501 218.671 124.453 219.626 122.625 219.626C121.783 219.626 121.005 219.419 120.464 219.101L120.814 218.033Z" fill="white"/>
<path d="M132.779 219.18C132.413 219.371 131.603 219.626 130.57 219.626C128.25 219.626 126.741 218.049 126.741 215.692C126.741 213.334 128.361 211.598 130.872 211.598C131.698 211.598 132.429 211.805 132.811 211.996L132.493 213.079C132.159 212.888 131.635 212.713 130.872 212.713C129.108 212.713 128.155 214.019 128.155 215.628C128.155 217.412 129.299 218.511 130.824 218.511C131.619 218.511 132.143 218.304 132.54 218.129L132.779 219.18Z" fill="white"/>
<path d="M134.415 208.157H135.814V212.968H135.845C136.068 212.57 136.417 212.219 136.846 211.98C137.26 211.741 137.752 211.582 138.276 211.582C139.309 211.582 140.962 212.219 140.962 214.879V219.467H139.564V215.039C139.564 213.796 139.103 212.745 137.784 212.745C136.878 212.745 136.163 213.382 135.909 214.147C135.83 214.338 135.814 214.545 135.814 214.816V219.467H134.415V208.157Z" fill="white"/>
</g>
<defs>
<clipPath id="clip0_32_523">
<rect width="236" height="203" fill="white" transform="translate(24.1429 24.1292)"/>
</clipPath>
</defs>
</svg>
