<svg width="718" height="665" viewBox="0 0 718 665" fill="none" xmlns="http://www.w3.org/2000/svg">
<g clip-path="url(#clip0_80_2790)">
<g clip-path="url(#clip1_80_2790)">
<path d="M272 594.76L388.208 527.245L404.166 616.576L387.32 661.179L374.458 658.512L272 594.76Z" fill="#FF5740"/>
<path d="M284.366 559.648V592.217L387.712 652.019V626.233L379.227 615.087L284.366 559.648Z" fill="#EFF0F2"/>
<path d="M284.366 579.81L378.05 633.946L284.366 583.284V579.81Z" fill="#CED3DE"/>
<path d="M385.937 664.343L563.417 561.881L563.912 561.592C566.307 560.124 567.979 557.539 567.979 554.354V525.177L562.694 528.238L536.352 543.478L530.035 547.117L391.428 627.225L388.538 657.933L385.957 664.343H385.937Z" fill="#DE2910"/>
<path d="M475.1 587.233L466.842 592.01V589.322L467.978 588.66V587.709L466.842 588.371L465.418 589.198V592.858L457.16 597.635V597.593L455.735 598.42V611.655L457.16 610.827V608.387L465.418 603.611V613.123L466.842 612.296V602.783L475.1 598.007V600.447L476.524 599.62V586.385L475.1 587.213V587.254V587.233ZM457.139 606.712V599.247L465.397 594.471V601.936L457.139 606.712ZM475.1 596.332L466.842 601.109V593.644L475.1 588.867V596.332Z" fill="#F2F2F2"/>
<path d="M505.323 589.797C500.905 590.769 496.818 590.376 493.37 588.805C496.033 584.193 498.284 579.375 499.915 574.537L502.805 572.862V571.228L493.473 576.625V573.937L494.609 573.275V572.324L493.473 572.986L492.049 573.813V577.473L481.995 583.284V584.917L484.369 583.552C486.021 586.489 488.25 588.743 490.914 590.252C487.466 595.815 483.378 600.943 478.96 605.079L479.477 606.671C484.163 602.266 488.498 596.828 492.152 590.914C495.806 592.61 500.142 593.044 504.828 592.01L505.344 589.839L505.323 589.797ZM486.289 582.394L497.974 575.633C496.446 579.872 494.464 584.09 492.132 588.122C489.799 586.799 487.817 584.855 486.289 582.394Z" fill="#F2F2F2"/>
<path d="M428.547 637.399L407.221 649.724C406.375 650.199 405.714 649.703 405.714 648.586V624.641C405.714 623.524 406.395 622.221 407.221 621.746L428.547 609.421C429.393 608.946 430.054 609.442 430.054 610.579V634.525C430.054 635.642 429.373 636.944 428.547 637.42V637.399Z" fill="#E6E6E6"/>
<path d="M427.7 636.779L408.068 648.131C407.304 648.586 406.664 648.111 406.664 647.077V625.034C406.664 624 407.283 622.8 408.068 622.366L427.7 611.014C428.464 610.559 429.104 611.034 429.104 612.068V634.111C429.104 635.145 428.485 636.345 427.7 636.779Z" fill="#DE2910"/>
<path d="M411.887 629.211L409.678 631.837L410.111 628.756L408.315 627.784L410.793 625.943L411.887 622.738L413.001 624.661L415.479 623.648L413.683 626.688L414.116 629.273L411.887 629.211Z" fill="#FFDE00"/>
<path d="M417.399 620.133L416.779 620.898L416.903 620.009L416.387 619.719L417.089 619.202L417.399 618.272L417.729 618.83L418.431 618.54L417.915 619.409L418.039 620.153L417.399 620.133Z" fill="#FFDE00"/>
<path d="M417.399 629.459L416.779 630.203L416.903 629.335L416.387 629.045L417.089 628.508L417.399 627.598L417.729 628.156L418.431 627.866L417.915 628.735L418.039 629.479L417.399 629.459Z" fill="#FFDE00"/>
<path d="M420.103 624.992L419.484 625.737L419.587 624.847L419.092 624.579L419.793 624.041L420.103 623.131L420.433 623.689L421.135 623.379L420.619 624.268L420.743 625.013L420.103 624.992Z" fill="#FFDE00"/>
<path d="M420.103 621.353L419.484 622.118L419.587 621.229L419.092 620.96L419.793 620.422L420.103 619.492L420.433 620.05L421.135 619.761L420.619 620.629L420.743 621.373L420.103 621.353Z" fill="#FFDE00"/>
<path d="M369.855 606.568L391.407 627.225L530.035 547.096L536.352 543.457L562.694 528.217L567.979 525.156C567.979 520.049 565.275 515.334 560.836 512.749L546.426 504.437H546.365L540.068 508.117L507.656 526.873L501.339 530.512L369.855 606.568Z" fill="#FF4126"/>
<path d="M387.712 626.233V652.019L384.017 649.889V642.176C384.017 639.715 384.182 637.13 383.728 634.711C383.253 632.147 381.828 629.852 380.094 628.011C379.97 627.887 379.888 627.763 379.764 627.68C374.334 622.139 367.109 618.706 360.461 614.901C353.979 611.2 347.517 607.498 341.076 603.797C334.14 599.806 327.203 595.835 320.267 591.886C313.826 588.205 307.385 584.504 300.943 580.802C295.948 577.928 290.952 575.074 285.956 572.221C285.419 571.91 284.882 571.6 284.345 571.311V559.648L379.227 615.087L387.712 626.233Z" fill="#CED3DE"/>
<path d="M379.723 657.064L369.875 651.357L272 594.76V602.06L369.855 658.657L378.69 663.764C379.991 664.529 381.395 664.881 382.737 664.922C387.237 665.005 391.387 661.448 391.387 656.403V627.225C391.387 622.097 388.682 617.382 384.244 614.818L369.834 606.485V606.568L272 549.991V557.291L369.855 613.888L378.69 618.995C378.979 619.161 379.269 619.306 379.558 619.43L380.734 620.112C384.079 622.035 386.122 625.592 386.122 629.438V653.363C386.122 656.651 382.572 658.719 379.702 657.085L379.723 657.064Z" fill="#ED341A"/>
<path d="M272 549.991L369.855 606.568L546.447 504.437L448.572 447.922L272 549.991Z" fill="#FF5740"/>
<path d="M376.027 632.747C375.552 632.995 375.14 633.367 374.727 633.739C373.488 634.939 372.559 636.427 371.733 637.937C371.486 638.454 371.155 639.033 370.949 639.591C369.339 642.962 368.162 646.539 366.283 649.806C363.537 654.48 359.243 658.264 354.289 660.373L355.156 653.094L342.315 653.301C347.29 651.171 351.522 647.387 354.268 642.734C356.126 639.529 357.323 635.952 358.872 632.581C359.14 632.002 359.388 631.444 359.698 630.865C360.523 629.355 361.452 627.866 362.691 626.667C363.063 626.295 363.475 625.985 363.888 625.737L376.007 632.747H376.027Z" fill="#B3B3B3"/>
</g>
<path d="M474.416 389.59C472.316 388.491 471.501 385.899 472.596 383.808L573.891 189.637C574.99 187.536 577.58 186.72 579.669 187.817C581.769 188.916 582.574 191.505 581.489 193.598L480.194 387.77C479.096 389.87 476.505 390.686 474.416 389.59Z" fill="#243976"/>
<path d="M704.887 260.513L580.473 195.495L533.894 284.788L658.308 349.805L704.887 260.513Z" fill="#243976"/>
<path d="M636.008 265.237L652.489 233.634L648.146 231.373L630.418 265.37L619.08 259.438L636.815 225.454L632.475 223.183L615.993 254.786L578.686 198.94L576.104 203.887L583.015 214.228L610.075 254.738L600.561 249.762L573.383 209.098L570.801 214.045L591.509 245.037L562.529 229.898L560.272 234.241L606.229 258.248L615.742 263.224L616.822 263.782L628.15 269.71L629.23 270.269L638.743 275.244L684.701 299.251L686.969 294.91L657.989 279.771L695.243 279.048L697.815 274.098L648.947 275.049L639.423 270.07L700.534 268.897L703.115 263.95L636.008 265.237Z" fill="white"/>
<path d="M632.165 287.856L622.639 282.887L621.572 282.322L610.231 276.4L609.162 275.845L599.638 270.866L553.681 246.86L551.423 251.203L580.403 266.343L543.151 267.056L540.57 272.003L589.445 271.065L598.958 276.041L537.848 277.214L535.267 282.16L602.387 280.866L585.895 312.467L590.235 314.738L607.974 280.744L619.305 286.662L601.577 320.659L605.907 322.928L622.399 291.327L659.706 347.173L662.287 342.226L647.81 320.565L628.307 291.373L637.833 296.341L658.637 327.492L664.999 337.012L667.581 332.066L646.876 301.063L675.855 316.203L678.12 311.872L632.165 287.856Z" fill="white"/>
<path d="M648.939 275.043L697.805 274.09L700.525 268.889L639.416 270.065L648.939 275.043Z" fill="#E63950"/>
<path d="M576.113 203.89L573.39 209.103L600.568 249.774L610.082 254.751L576.113 203.89Z" fill="#E63950"/>
<path d="M589.453 271.071L540.579 272.011L537.857 277.222L598.966 276.046L589.453 271.071Z" fill="#E63950"/>
<path d="M637.826 296.329L628.3 291.36L647.803 320.558L662.279 342.223L664.992 337.008L658.63 327.486L637.826 296.329Z" fill="#E63950"/>
<path d="M684.693 299.266L678.131 311.861L621.582 282.309L601.581 320.656L590.24 314.734L610.24 276.387L553.688 246.844L560.261 234.252L616.813 263.795L636.81 225.458L648.141 231.377L628.141 269.724L684.693 299.266Z" fill="#E63950"/>
<path d="M302.189 396.699C304.524 396.301 306.099 394.088 305.701 391.761L269.176 175.793C268.779 173.456 266.566 171.88 264.241 172.278C261.906 172.676 260.342 174.89 260.729 177.216L297.254 393.184C297.652 395.521 299.864 397.097 302.189 396.699Z" fill="black"/>
<path d="M122.727 202.772L261.093 179.338L277.901 278.679L139.535 302.113L122.727 202.772Z" fill="black"/>
<path d="M131.129 255.603L269.498 232.167L277.901 278.677L139.532 302.114L131.129 255.603Z" fill="#FEC01E"/>
<path d="M126.972 234.325L265.343 210.889L271.667 246.759L133.297 270.195L126.972 234.325Z" fill="#E63950"/>
<path d="M266.127 448.085C267.546 446.186 267.164 443.496 265.274 442.084L90.1799 310.721C88.2837 309.301 85.5957 309.685 84.1843 311.576C82.7652 313.475 83.1554 316.158 85.0369 317.578L260.131 448.94C262.027 450.36 264.715 449.977 266.127 448.085Z" fill="black"/>
<path d="M2.59191 431.279L86.7656 318.861L167.3 379.273L83.1263 491.691L2.59191 431.279Z" fill="#FF4126"/>
<path d="M35.0024 429.536L41.1973 430.91L45.8429 426.596L46.4411 432.911L51.9718 436.009L46.1475 438.533L44.9162 444.766L40.734 439.994L34.4288 440.763L37.6696 435.288L35.0024 429.536Z" fill="#F9D976"/>
<path d="M37.3203 407.078L40.1029 407.706L42.1944 405.767L42.4676 408.611L44.9457 409.997L42.3356 411.127L41.772 413.936L39.8933 411.806L37.0594 412.141L38.5093 409.684L37.3203 407.078Z" fill="#F9D976"/>
<path d="M65.1677 429.56L67.9503 430.188L70.0418 428.249L70.3151 431.093L72.7931 432.479L70.183 433.609L69.6194 436.418L67.7407 434.288L64.9068 434.623L66.3567 432.166L65.1677 429.56Z" fill="#F9D976"/>
<path d="M50.2564 410.602L53.0221 411.217L55.1136 409.278L55.3868 412.121L57.8817 413.522L55.2548 414.638L54.7081 417.461L52.8261 415.3L49.9922 415.635L51.4421 413.178L50.2564 410.602Z" fill="#F9D976"/>
<path d="M59.3249 417.924L62.1075 418.552L64.199 416.613L64.4722 419.456L66.9502 420.843L64.3401 421.972L63.7766 424.782L61.9115 422.634L59.0776 422.969L60.5275 420.513L59.3249 417.924Z" fill="#F9D976"/>
<path d="M414.83 383.579H364.556V588.878H414.83V383.579Z" fill="#E63950"/>
<path d="M414.83 588.867C414.83 597.337 403.578 604.207 389.693 604.207C375.808 604.207 364.556 597.337 364.556 588.867H414.83Z" fill="#E63950"/>
<path d="M414.83 383.579C414.83 392.049 403.578 398.919 389.693 398.919C375.808 398.919 364.556 392.049 364.556 383.579H414.83Z" fill="#243976"/>
<path d="M401.279 567.202H394.865L399.399 562.664L398.103 561.367L393.569 565.905V559.485H391.741V565.905L387.196 561.367L385.911 562.664L390.445 567.202H384.031V569.032H390.445L385.911 573.58L387.196 574.877L391.741 570.328V576.759H393.569V570.328L398.103 574.877L399.399 573.58L394.865 569.032H401.279V567.202Z" fill="white"/>
<path d="M401.279 418.848H394.865L399.399 414.31L398.103 413.014L393.569 417.562V411.132H391.741V417.562L387.196 413.014L385.911 414.31L390.445 418.848H384.031V420.689H390.445L385.911 425.227L387.196 426.523L391.741 421.975V428.405H393.569V421.975L398.103 426.523L399.399 425.227L394.865 420.689H401.279V418.848Z" fill="white"/>
<path d="M364.556 383.579V588.878L216.88 553.253C212.962 552.312 210.204 548.809 210.204 544.773V357.407C210.204 351.761 215.48 347.61 220.955 348.927L364.546 383.569L364.556 383.579Z" fill="#243976"/>
<mask id="mask0_80_2790" style="mask-type:luminance" maskUnits="userSpaceOnUse" x="210" y="348" width="155" height="241">
<path d="M364.556 383.579V588.878L216.88 553.253C212.962 552.312 210.204 548.809 210.204 544.773V357.407C210.204 351.761 215.48 347.61 220.955 348.927L364.546 383.569L364.556 383.579Z" fill="white"/>
</mask>
<g mask="url(#mask0_80_2790)">
<path d="M384.323 462.482V384.625L373.635 382.178V465.933L345.73 459.544V375.789L335.052 373.343V451.2L206.516 351.374V363.566L230.326 382.063L323.56 454.462L300.126 449.098L206.516 376.406V388.598L277.863 443.996L206.516 427.663V438.36L319.653 464.26V464.27L343.087 469.634L345.73 470.241L373.635 476.63L376.278 477.236L399.712 482.6L512.859 508.511V497.814L441.513 481.471L512.859 458.739V446.547L419.249 476.379L395.815 471.015L512.859 433.717V421.525L384.323 462.482Z" fill="white"/>
<path d="M399.712 513.614L376.278 508.239L373.635 507.633L345.73 501.244L343.087 500.637L319.653 495.273L206.516 469.373V480.059L277.863 496.403L206.516 519.135V531.327L300.126 501.495L323.56 506.869L206.516 544.156V556.348L335.052 515.391V593.249L345.73 595.695V511.941L373.635 518.329V602.084L384.323 604.531V526.673L512.859 626.499V614.307L463.003 575.588L395.815 523.411L419.249 528.775L490.93 584.444L512.859 601.478V589.286L441.513 533.878L512.859 550.211V539.514L399.712 513.614Z" fill="white"/>
<path d="M206.516 363.566V376.406L300.126 449.098L323.56 454.462L206.516 363.566Z" fill="#E63950"/>
<path d="M300.126 501.495L206.516 531.326V544.156L323.56 506.869L300.126 501.495Z" fill="#E63950"/>
<path d="M512.859 508.511V539.514L373.635 507.633V602.084L345.73 595.695V501.244L206.516 469.373V438.36L345.73 470.241V375.789L373.635 382.178V476.63L512.859 508.511Z" fill="#E63950"/>
</g>
<path d="M357.462 381.865V587.163L364.556 588.867V383.569L357.462 381.865Z" fill="#9B2942"/>
<path d="M414.83 383.579V588.878L562.506 553.253C566.424 552.312 569.182 548.809 569.182 544.773V357.407C569.182 351.761 563.906 347.61 558.431 348.927L414.84 383.569L414.83 383.579Z" fill="black"/>
<path d="M414.83 500.28V588.878L562.506 553.253C566.424 552.312 569.182 548.809 569.182 544.773V474.108C569.182 468.461 563.906 464.31 558.431 465.628L414.84 500.269L414.83 500.28Z" fill="#FEC01E"/>
<path d="M414.83 448.413V524.97L562.506 489.346C566.424 488.405 569.182 484.902 569.182 480.866V422.241C569.182 416.594 563.906 412.443 558.431 413.761L414.84 448.402L414.83 448.413Z" fill="#E63950"/>
<path d="M421.38 381.99L414.83 383.569V588.867L421.38 587.288V381.99Z" fill="#243976"/>
<path d="M569.171 495.765L508.837 566.188L562.506 553.243C566.423 552.302 569.182 548.799 569.182 544.763V495.765H569.171Z" fill="#F7B24D"/>
<path d="M464.863 170.328C464.065 169.349 425.65 122.219 359.88 142.71L359.896 142.724C360.688 143.711 396.318 174.639 464.872 170.349L464.857 170.336L464.863 170.328Z" fill="#1A73E8"/>
<path d="M439.964 54.3849L328.043 70.8005L417.432 140.217L529.361 123.808L439.964 54.3849Z" fill="#153183"/>
<path d="M480.235 114.777L465.497 170.928C465.497 170.928 426.966 122.581 360.503 143.282L375.241 87.1312C441.696 66.4236 480.235 114.777 480.235 114.777Z" fill="#243976"/>
<path d="M460.275 165.404C463.72 168.692 465.494 170.925 465.494 170.925L466.526 166.986C464.47 166.427 462.401 165.899 460.268 165.412L460.275 165.404Z" fill="#62748E"/>
<path d="M387.776 83.9619C383.717 84.7533 379.543 85.8053 375.25 87.1405L360.511 143.293C364.804 141.958 368.986 140.913 373.037 140.114L387.776 83.9619Z" fill="#153183"/>
<path d="M444.527 153.163C458.215 161.791 465.489 170.919 465.489 170.919L480.227 114.767C480.227 114.767 472.946 105.633 459.266 97.0113L444.527 153.163Z" fill="#153183"/>
<path d="M487.307 138.285L490.194 139.049L514.798 111.866C515.183 110.377 514.285 108.871 512.805 108.492L508.132 107.32L512.206 110.487L487.315 138.292L487.307 138.285Z" fill="#F7B24D"/>
<path d="M488.183 137.234L482.652 143.918L484.887 145.776L490.403 139.078L488.183 137.234Z" fill="#243976"/>
<path d="M482.651 143.919L462.406 160.796L472.047 168.791L484.886 145.777L482.651 143.919Z" fill="#F7B24D"/>
<path d="M482.822 149.489L475.412 162.765" stroke="#243976" stroke-linecap="round" stroke-linejoin="round"/>
<path d="M429.205 351.504H444.856C464.56 351.504 480.691 335.37 480.691 315.639C480.691 295.918 464.57 279.773 444.856 279.773H348.446C328.742 279.773 312.611 295.908 312.611 315.639C312.611 335.359 328.731 351.504 348.446 351.504H363.302" fill="#F7B24D"/>
<path d="M361.85 351.504H436.957" stroke="#243976" stroke-width="2" stroke-linecap="round" stroke-linejoin="round"/>
<path d="M354.164 325.511H341.208V304.4H343.772V323.095H354.164V325.511Z" fill="#243976"/>
<path d="M356.694 306.849C356.694 306.43 356.845 306.078 357.147 305.809C357.449 305.541 357.817 305.398 358.262 305.398C358.706 305.398 359.033 305.533 359.317 305.809C359.602 306.078 359.736 306.43 359.736 306.849C359.736 307.311 359.594 307.688 359.317 307.982C359.033 308.275 358.689 308.418 358.262 308.418C357.834 308.418 357.449 308.275 357.147 307.982C356.845 307.688 356.694 307.311 356.694 306.849ZM359.41 325.511H356.996V311.94H359.41V325.511Z" fill="#243976"/>
<path d="M371.276 321.837C371.276 321.351 371.024 320.957 370.522 320.629C370.019 320.311 369.416 320.042 368.703 319.833C367.991 319.623 367.27 319.38 366.549 319.095C365.829 318.809 365.217 318.365 364.714 317.753C364.211 317.14 363.96 316.377 363.96 315.48C363.96 314.331 364.379 313.408 365.225 312.704C366.072 311.999 367.186 311.647 368.569 311.647C370.555 311.647 372.114 312.184 373.237 313.249L372.089 315.086C371.083 314.205 369.952 313.76 368.686 313.76C368.041 313.76 367.522 313.92 367.119 314.247C366.717 314.566 366.516 314.968 366.516 315.455C366.516 315.975 366.767 316.402 367.27 316.738C367.773 317.073 368.376 317.342 369.097 317.551C369.809 317.761 370.53 318.004 371.251 318.273C371.971 318.541 372.583 318.969 373.086 319.556C373.589 320.143 373.84 320.864 373.84 321.728C373.84 323.078 373.337 324.102 372.332 324.806C371.351 325.486 370.103 325.829 368.594 325.829C367.53 325.829 366.516 325.611 365.552 325.167C364.572 324.706 363.918 324.219 363.591 323.716L364.949 321.997C365.351 322.458 365.929 322.86 366.692 323.204C367.496 323.548 368.217 323.716 368.862 323.716C369.566 323.716 370.145 323.548 370.597 323.221C371.05 322.886 371.276 322.433 371.276 321.846V321.837Z" fill="#243976"/>
<path d="M377.058 320.361V308.183H379.472V311.949H384.441V314.213H379.472V320.126C379.472 322.374 380.276 323.506 381.885 323.506C382.665 323.506 383.385 323.255 384.022 322.751L384.776 324.622C383.829 325.385 382.673 325.771 381.315 325.771C379.849 325.771 378.776 325.326 378.089 324.446C377.41 323.565 377.067 322.206 377.067 320.378L377.058 320.361Z" fill="#243976"/>
<path d="M398.151 322.139L398.905 324.043C397.598 325.226 395.905 325.821 393.81 325.821C391.598 325.821 389.846 325.175 388.539 323.892C387.215 322.609 386.553 320.889 386.553 318.734C386.553 316.704 387.173 315.018 388.422 313.668C389.645 312.318 391.355 311.647 393.542 311.647C395.352 311.647 396.844 312.234 398.034 313.4C399.241 314.549 399.844 316.033 399.844 317.862C399.844 318.449 399.794 318.986 399.693 319.489H389.268C389.369 320.755 389.846 321.753 390.701 322.475C391.556 323.196 392.654 323.557 394.003 323.557C395.771 323.557 397.154 323.087 398.159 322.139H398.151ZM393.425 313.911C392.243 313.911 391.263 314.247 390.492 314.909C389.721 315.572 389.26 316.444 389.117 317.535H397.338C397.28 316.411 396.902 315.522 396.207 314.884C395.511 314.238 394.581 313.92 393.416 313.92L393.425 313.911Z" fill="#243976"/>
<path d="M405.534 325.511H403.12V311.94H405.534V313.601C406.037 313.039 406.69 312.578 407.503 312.225C408.316 311.873 409.137 311.697 409.959 311.697C413.713 311.697 415.59 313.685 415.59 317.669V325.511H413.177V318.122C413.177 315.346 411.903 313.962 409.347 313.962C407.822 313.962 406.548 314.549 405.517 315.706V325.502L405.534 325.511Z" fill="#243976"/>
<path d="M420.023 306.849C420.023 306.43 420.174 306.078 420.476 305.809C420.777 305.541 421.146 305.398 421.59 305.398C422.034 305.398 422.361 305.533 422.646 305.809C422.931 306.078 423.065 306.43 423.065 306.849C423.065 307.311 422.923 307.688 422.646 307.982C422.361 308.275 422.018 308.418 421.59 308.418C421.163 308.418 420.777 308.275 420.476 307.982C420.174 307.688 420.023 307.311 420.023 306.849ZM422.738 325.511H420.325V311.94H422.738V325.511Z" fill="#243976"/>
<path d="M430.146 325.511H427.733V311.94H430.146V313.601C430.649 313.039 431.303 312.578 432.116 312.225C432.928 311.873 433.75 311.697 434.571 311.697C438.325 311.697 440.202 313.685 440.202 317.669V325.511H437.789V318.122C437.789 315.346 436.515 313.962 433.959 313.962C432.434 313.962 431.16 314.549 430.129 315.706V325.502L430.146 325.511Z" fill="#243976"/>
<path d="M442.406 327.473C442.406 326.425 442.792 325.553 443.554 324.848C444.317 324.144 445.381 323.64 446.747 323.338C446.529 323.053 446.412 322.684 446.412 322.223C446.412 321.762 446.529 321.376 446.772 321.074C445.809 320.688 445.063 320.109 444.527 319.329C443.99 318.541 443.73 317.644 443.73 316.612C443.73 315.203 444.233 314.029 445.239 313.081C446.261 312.116 447.61 311.63 449.278 311.63C450.56 311.63 451.708 311.965 452.714 312.628L456.695 311.664L456.753 313.626L454.189 314.255C454.608 314.96 454.817 315.74 454.817 316.604C454.817 317.987 454.306 319.153 453.284 320.101C452.278 321.024 450.946 321.485 449.278 321.485C448.817 321.485 448.516 321.476 448.373 321.451C448.272 321.695 448.222 321.946 448.222 322.206C448.222 322.567 448.314 322.869 448.49 323.112C448.532 323.112 448.658 323.112 448.867 323.095C449.077 323.087 449.219 323.078 449.303 323.078C451.415 323.078 453.091 323.456 454.331 324.211C455.58 324.966 456.2 326.047 456.2 327.448C456.2 328.849 455.58 329.872 454.331 330.627C453.083 331.382 451.407 331.759 449.303 331.759C447.2 331.759 445.49 331.39 444.258 330.66C443.027 329.922 442.406 328.857 442.406 327.448V327.473ZM453.946 327.473C453.946 326.727 453.535 326.14 452.714 325.712C451.893 325.276 450.753 325.066 449.312 325.066C447.87 325.066 446.731 325.284 445.909 325.712C445.088 326.148 444.677 326.735 444.677 327.473C444.677 328.211 445.088 328.798 445.909 329.209C446.731 329.62 447.87 329.83 449.312 329.83C450.753 329.83 451.893 329.629 452.714 329.226C453.535 328.824 453.946 328.245 453.946 327.473ZM445.993 316.62C445.993 317.467 446.303 318.164 446.915 318.717C447.527 319.271 448.314 319.547 449.278 319.547C450.242 319.547 451.021 319.279 451.625 318.734C452.245 318.189 452.555 317.484 452.555 316.62C452.555 315.756 452.253 315.044 451.65 314.482C451.03 313.903 450.233 313.609 449.27 313.609C448.306 313.609 447.518 313.895 446.907 314.465C446.295 315.035 445.985 315.756 445.985 316.62H445.993Z" fill="#243976"/>
<path d="M712.941 547.126H614.598V607.814H712.941V547.126Z" fill="#F7B24D"/>
<path d="M712.941 547.126V560.542L665.373 586.504L614.598 560.102V547.126H712.941Z" fill="#F48B19"/>
<path d="M614.598 547.126L665.384 583.723L712.941 547.126H614.598Z" fill="#F7B24D"/>
<path d="M624.544 553.651L666.261 583.723L702.869 555.554" stroke="#243976" stroke-width="2" stroke-linecap="round" stroke-linejoin="round"/>
<path d="M631.032 594.754L651.499 574.26" stroke="#243976" stroke-width="2" stroke-linecap="round" stroke-linejoin="round"/>
<path d="M701.292 594.754L680.814 574.26" stroke="#243976" stroke-width="2" stroke-linecap="round" stroke-linejoin="round"/>
<path d="M120.65 132.143L124.066 141.386C124.192 141.742 124.474 142.024 124.829 142.149L134.065 145.569C135.193 145.987 135.193 147.576 134.065 147.995L124.829 151.414C124.474 151.539 124.192 151.821 124.066 152.177L120.65 161.42C120.232 162.55 118.644 162.55 118.226 161.42L114.81 152.177C114.684 151.821 114.402 151.539 114.047 151.414L104.811 147.995C103.683 147.576 103.683 145.987 104.811 145.569L114.047 142.149C114.402 142.024 114.684 141.742 114.81 141.386L118.226 132.143C118.644 131.014 120.232 131.014 120.65 132.143Z" stroke="#243976" stroke-width="2" stroke-linecap="round" stroke-linejoin="round"/>
<path d="M146.727 162.863L148.566 167.851C148.639 168.039 148.785 168.196 148.973 168.259L153.957 170.099C154.563 170.319 154.563 171.187 153.957 171.406L148.973 173.246C148.785 173.32 148.628 173.466 148.566 173.654L146.727 178.642C146.508 179.248 145.64 179.248 145.421 178.642L143.582 173.654C143.509 173.466 143.363 173.309 143.175 173.246L138.191 171.406C137.585 171.187 137.585 170.319 138.191 170.099L143.175 168.259C143.363 168.186 143.52 168.039 143.582 167.851L145.421 162.863C145.64 162.257 146.508 162.257 146.727 162.863Z" fill="#E63950"/>
<path d="M105.606 173.027L109.534 183.661C109.68 184.069 110.004 184.393 110.411 184.539L121.037 188.471C122.332 188.952 122.332 190.782 121.037 191.252L110.411 195.184C110.004 195.33 109.68 195.654 109.534 196.062L105.606 206.696C105.125 207.993 103.297 207.993 102.826 206.696L98.8982 196.062C98.7519 195.654 98.4281 195.33 98.0206 195.184L87.3954 191.252C86.1 190.771 86.1 188.941 87.3954 188.471L98.0206 184.539C98.4281 184.393 98.7519 184.069 98.8982 183.661L102.826 173.027C103.307 171.73 105.135 171.73 105.606 173.027Z" fill="#F7B24D"/>
<path d="M671.64 443.599L674.754 452.037C674.868 452.361 675.13 452.612 675.454 452.737L683.885 455.853C684.909 456.23 684.909 457.683 683.885 458.06L675.454 461.176C675.13 461.291 674.879 461.552 674.754 461.876L671.64 470.314C671.264 471.339 669.812 471.339 669.436 470.314L666.322 461.876C666.208 461.552 665.946 461.301 665.622 461.176L657.191 458.06C656.167 457.683 656.167 456.23 657.191 455.853L665.622 452.737C665.946 452.622 666.197 452.361 666.322 452.037L669.436 443.599C669.812 442.574 671.264 442.574 671.64 443.599Z" fill="#E63950"/>
<path d="M584.884 454.787L587.329 461.416C587.423 461.667 587.621 461.866 587.872 461.96L594.496 464.407C595.3 464.699 595.3 465.839 594.496 466.142L587.872 468.589C587.621 468.683 587.423 468.882 587.329 469.133L584.884 475.762C584.591 476.567 583.453 476.567 583.15 475.762L580.705 469.133C580.611 468.882 580.412 468.683 580.162 468.589L573.538 466.142C572.733 465.85 572.733 464.71 573.538 464.407L580.162 461.96C580.412 461.866 580.611 461.667 580.705 461.416L583.15 454.787C583.442 453.982 584.581 453.982 584.884 454.787Z" fill="#F7B24D"/>
<path d="M600.743 420.25L603.616 428.029C603.731 428.322 603.961 428.562 604.254 428.667L612.027 431.543C612.977 431.888 612.977 433.226 612.027 433.582L604.254 436.457C603.961 436.572 603.721 436.802 603.616 437.095L600.743 444.874C600.398 445.826 599.061 445.826 598.706 444.874L595.833 437.095C595.718 436.802 595.488 436.562 595.196 436.457L587.423 433.582C586.472 433.236 586.472 431.898 587.423 431.543L595.196 428.667C595.488 428.552 595.728 428.322 595.833 428.029L598.706 420.25C599.051 419.298 600.388 419.298 600.743 420.25Z" stroke="#243976" stroke-width="2" stroke-linecap="round" stroke-linejoin="round"/>
<path d="M144.717 644.974L158.435 635.689C161.026 633.933 161.026 630.106 158.435 628.349L144.717 619.064C141.781 617.077 137.811 619.179 137.811 622.734V641.315C137.811 644.87 141.781 646.972 144.717 644.985V644.974Z" stroke="#243976" stroke-width="2" stroke-linecap="round" stroke-linejoin="round"/>
<path d="M101.788 647.954L118.671 636.526C121.868 634.361 121.868 629.656 118.671 627.492L101.788 616.063C98.1733 613.616 93.2943 616.209 93.2943 620.58V643.427C93.2943 647.798 98.1733 650.391 101.788 647.944V647.954Z" fill="#F7B24D"/>
<path d="M187.176 641.67L197.404 634.748C199.337 633.441 199.337 630.587 197.404 629.28L187.176 622.358C184.982 620.873 182.025 622.441 182.025 625.097V638.952C182.025 641.597 184.982 643.176 187.176 641.691V641.67Z" fill="#E63950"/>
<path d="M647.356 174.328L633.639 165.043C631.048 163.286 631.048 159.459 633.639 157.702L647.356 148.417C650.292 146.43 654.262 148.532 654.262 152.087V170.668C654.262 174.223 650.292 176.325 647.356 174.338V174.328Z" stroke="#243976" stroke-width="2" stroke-linecap="round" stroke-linejoin="round"/>
<path d="M690.275 177.308L673.392 165.879C670.195 163.715 670.195 159.009 673.392 156.845L690.275 145.416C693.89 142.969 698.769 145.562 698.769 149.933V172.78C698.769 177.151 693.89 179.744 690.275 177.297V177.308Z" fill="#F7B24D"/>
<path d="M604.887 171.034L594.659 164.112C592.726 162.805 592.726 159.95 594.659 158.643L604.887 151.721C607.081 150.236 610.038 151.805 610.038 154.461V168.315C610.038 170.961 607.081 172.54 604.887 171.055V171.034Z" fill="#E63950"/>
<path d="M459.251 243.416L453.986 238.523C466.481 225.045 467.411 204.78 456.211 190.319C440.811 170.453 420.992 159.923 397.255 159.003C373.519 159.923 353.7 170.442 338.3 190.319C327.1 204.77 328.03 225.045 340.525 238.523L335.26 243.416C320.361 227.345 319.254 203.16 332.627 185.917C343.879 171.404 363.405 154.287 393.818 152.008V151.757H400.703V152.008C431.116 154.287 450.642 171.404 461.894 185.917C475.267 203.17 474.16 227.356 459.261 243.416H459.251Z" fill="#243976"/>
<path d="M325.335 236.463V275.381C325.335 275.381 327.936 280.568 337.861 283.537V228.307C327.936 231.277 325.335 236.463 325.335 236.463Z" fill="#E63950"/>
<path d="M325.335 273.604V236.463L321.97 237.164C319.442 237.686 317.373 239.516 316.548 241.963L312.996 252.44C312.568 253.716 312.495 255.086 312.787 256.403L315.315 267.57C316.005 270.624 318.554 272.893 321.667 273.217L325.335 273.604Z" fill="#E63950"/>
<path d="M323.684 236.808V273.426L325.335 273.604V236.463L323.684 236.808Z" fill="#9B2942"/>
<path d="M337.861 283.537V228.715C337.861 226.519 338.864 224.449 340.588 223.089L345.122 219.524C348.027 217.244 352.279 219.304 352.279 223.006V288.337C352.279 291.735 348.601 293.868 345.655 292.174L341.455 289.759C339.23 288.483 337.861 286.109 337.861 283.548V283.537Z" fill="#243976"/>
<path d="M340.599 223.089C338.875 224.449 337.872 226.519 337.872 228.715V283.537C337.872 286.099 339.24 288.472 341.466 289.748L343.169 290.721C348.016 267.319 343.89 230.461 342.751 221.385L340.599 223.079V223.089Z" fill="#243976"/>
<path d="M469.166 236.463V275.381C469.166 275.381 466.564 280.568 456.639 283.537V228.307C466.564 231.277 469.166 236.463 469.166 236.463Z" fill="#E63950"/>
<path d="M469.166 273.604V236.463L472.53 237.164C475.058 237.686 477.127 239.516 477.952 241.963L481.504 252.44C481.933 253.716 482.006 255.086 481.713 256.403L479.185 267.57C478.495 270.624 475.946 272.893 472.833 273.217L469.166 273.604Z" fill="#E63950"/>
<path d="M470.816 236.808V273.426L469.166 273.604V236.463L470.816 236.808Z" fill="#9B2942"/>
<path d="M456.639 283.537V228.715C456.639 226.519 455.636 224.449 453.912 223.089L449.378 219.524C446.474 217.244 442.222 219.304 442.222 223.006V288.337C442.222 291.735 445.899 293.868 448.845 292.174L453.045 289.759C455.271 288.483 456.639 286.109 456.639 283.548V283.537Z" fill="#243976"/>
<path d="M453.902 223.089C455.626 224.449 456.629 226.519 456.629 228.715V283.537C456.629 286.099 455.26 288.472 453.035 289.748L451.332 290.721C446.484 267.319 450.611 230.461 451.75 221.385L453.902 223.079V223.089Z" fill="#243976"/>
<path d="M445.826 162.61C427.386 144.124 375.566 137.933 346.647 162.746C337.391 170.683 350.649 184.893 360.135 177.228C360.177 177.197 360.219 177.165 360.261 177.134C369.068 169.94 378.324 173.934 389.388 170.17C393.881 168.644 398.728 168.644 403.21 170.17C414.274 173.934 423.531 169.94 432.338 177.134C432.443 177.218 432.547 177.301 432.652 177.385C442.315 185.06 454.529 171.341 445.815 162.61H445.826Z" fill="#E63950"/>
<path d="M436.047 155.5C417.127 145.201 385.585 142.357 361.19 153.524" stroke="#243976" stroke-width="2" stroke-linecap="round" stroke-linejoin="round"/>
<path d="M448.563 167.389C447.1 173.736 439.286 178.514 432.662 173.255C432.557 173.171 432.453 173.088 432.348 173.004C423.541 165.81 414.285 169.804 403.221 166.04C398.728 164.513 393.881 164.513 389.399 166.04C378.335 169.804 369.078 165.81 360.271 173.004C360.229 173.035 360.187 173.067 360.146 173.098C353.658 178.347 345.394 173.328 343.795 167.107C341.727 174.813 352.237 183.617 360.146 177.228C360.187 177.197 360.229 177.165 360.271 177.134C369.078 169.94 378.335 173.934 389.399 170.17C393.891 168.644 398.739 168.644 403.221 170.17C414.285 173.934 423.541 169.94 432.348 177.134C432.453 177.218 432.557 177.301 432.662 177.385C440.675 183.753 450.433 175.409 448.563 167.389Z" fill="#9B2942"/>
<path d="M369.862 221.009H381.417V248.718H369.862C367.344 248.718 365.296 246.668 365.296 244.148V225.578C365.296 223.058 367.344 221.009 369.862 221.009Z" fill="#243976"/>
<path d="M365.307 239.83V244.148C365.307 246.668 367.344 248.718 369.872 248.718H381.427V244.399H369.872C367.355 244.399 365.307 242.36 365.307 239.83Z" fill="#243976"/>
<path d="M381.417 221.009L396.273 208.106C399.188 205.575 403.722 207.645 403.722 211.514V258.212C403.722 262.07 399.188 264.151 396.273 261.621L381.417 248.718V221.009Z" fill="#F7B24D"/>
<path d="M403.733 213.417V250.652" stroke="#243976" stroke-width="2" stroke-linecap="round" stroke-linejoin="round"/>
<path d="M396.273 256.738L381.417 243.835V248.707L396.273 261.61C399.188 264.141 403.722 262.07 403.722 258.202V253.329C403.722 257.187 399.188 259.268 396.273 256.738Z" fill="#F48B19"/>
<path d="M419.341 214.348L410.774 222.922C409.813 223.884 409.813 225.453 410.774 226.425C411.736 227.387 413.303 227.387 414.274 226.425L422.841 217.851C423.802 216.889 423.802 215.32 422.841 214.348C421.88 213.386 420.313 213.386 419.341 214.348Z" fill="#243976"/>
<path d="M422.831 251.876L414.264 243.301C413.303 242.339 411.736 242.339 410.764 243.301C409.803 244.263 409.803 245.832 410.764 246.804L419.331 255.378C420.292 256.34 421.859 256.34 422.831 255.378C423.792 254.416 423.792 252.848 422.831 251.876Z" fill="#243976"/>
<path d="M424.638 232.385H412.519C411.151 232.385 410.043 233.493 410.043 234.863C410.043 236.233 411.151 237.341 412.519 237.341H424.638C426.007 237.341 427.114 236.233 427.114 234.863C427.114 233.493 426.007 232.385 424.638 232.385Z" fill="#F7B24D"/>
<path d="M194.857 527.13H98.4572C78.6661 527.13 62.6222 543.185 62.6222 562.99C62.6222 582.795 78.6661 598.85 98.4572 598.85H194.857C214.648 598.85 230.692 582.795 230.692 562.99C230.692 543.185 214.648 527.13 194.857 527.13Z" fill="#F7B24D"/>
<path d="M98.4572 527.13C78.7532 527.13 62.6222 543.264 62.6222 562.995" stroke="#243976" stroke-width="2" stroke-linecap="round" stroke-linejoin="round"/>
<path d="M101.119 566.619C101.119 565.905 100.926 565.283 100.54 564.754C100.154 564.225 99.6585 563.797 99.0458 563.46C98.433 563.124 97.7615 562.805 97.0145 562.503C96.2758 562.2 95.5288 561.864 94.7901 561.512C94.0515 561.159 93.3716 560.755 92.7588 560.31C92.1461 559.865 91.6509 559.269 91.2647 558.538C90.8786 557.807 90.6856 556.958 90.6856 556.001C90.6856 554.438 91.2647 553.111 92.4231 552.035C93.5982 550.96 95.1678 550.422 97.1152 550.422C98.3155 550.422 99.4403 550.624 100.498 551.036C101.556 551.439 102.386 551.985 102.999 552.649L101.597 554.606C100.439 553.447 98.9954 552.867 97.2663 552.867C96.0912 552.867 95.1511 553.153 94.4628 553.724C93.7745 554.295 93.4303 555.06 93.4303 556.009C93.4303 556.723 93.6234 557.345 94.0095 557.874C94.3956 558.403 94.8909 558.832 95.5036 559.159C96.1163 559.487 96.7878 559.798 97.5349 560.092C98.2735 560.386 99.0206 560.705 99.7592 561.049C100.498 561.394 101.178 561.789 101.791 562.226C102.403 562.662 102.899 563.259 103.285 564.007C103.671 564.763 103.864 565.628 103.864 566.602C103.864 568.35 103.192 569.753 101.849 570.811C100.548 571.87 98.9031 572.399 96.9054 572.399C95.5036 572.399 94.1606 572.113 92.8763 571.542C91.5921 570.971 90.694 570.19 90.1652 569.19L91.6593 567.417C92.2468 568.19 93.0274 568.803 94.0095 569.265C94.9916 569.727 95.9653 569.954 96.9389 569.954C98.1392 569.954 99.1381 569.652 99.9271 569.055C100.716 568.459 101.119 567.644 101.119 566.628V566.619Z" fill="#243976"/>
<path d="M110.016 578.187H107.574V558.353H110.016V559.974C110.503 559.403 111.175 558.941 112.031 558.588C112.887 558.235 113.768 558.05 114.683 558.05C116.631 558.05 118.167 558.706 119.291 560.008C120.45 561.293 121.029 562.956 121.029 565.015C121.029 567.073 120.366 568.871 119.048 570.29C117.747 571.693 116.026 572.399 113.894 572.399C112.249 572.399 110.956 572.08 110.025 571.45V578.195L110.016 578.187ZM113.978 560.335C112.35 560.335 111.032 560.965 110.016 562.226V569.03C111.091 569.744 112.316 570.097 113.676 570.097C115.12 570.097 116.27 569.635 117.134 568.711C117.999 567.787 118.427 566.577 118.427 565.099C118.427 563.62 118.032 562.503 117.235 561.638C116.446 560.772 115.355 560.344 113.97 560.344L113.978 560.335Z" fill="#243976"/>
<path d="M135.357 568.661L136.121 570.584C134.803 571.786 133.082 572.382 130.967 572.382C128.734 572.382 126.955 571.735 125.629 570.425C124.286 569.123 123.614 567.384 123.614 565.208C123.614 563.15 124.244 561.444 125.503 560.083C126.745 558.722 128.474 558.042 130.69 558.042C132.52 558.042 134.031 558.63 135.231 559.815C136.448 560.974 137.061 562.478 137.061 564.334C137.061 564.922 137.011 565.477 136.91 565.981H126.359C126.46 567.266 126.947 568.266 127.811 569.005C128.676 569.736 129.784 570.106 131.152 570.106C132.94 570.106 134.341 569.627 135.357 568.669V568.661ZM130.573 560.327C129.372 560.327 128.382 560.663 127.601 561.335C126.821 562.007 126.359 562.889 126.216 563.99H134.543C134.484 562.847 134.098 561.957 133.401 561.302C132.696 560.646 131.756 560.327 130.581 560.327H130.573Z" fill="#243976"/>
<path d="M141.124 561.251L140.486 559.302C141.846 558.47 143.373 558.05 145.06 558.05C146.907 558.05 148.25 558.504 149.081 559.42C149.912 560.335 150.332 561.747 150.332 563.662V572.088H148.015V570.316C146.941 571.643 145.472 572.298 143.625 572.298C142.366 572.298 141.35 571.92 140.578 571.156C139.806 570.391 139.42 569.358 139.42 568.056C139.42 566.754 139.898 565.653 140.855 564.863C141.812 564.082 143.063 563.687 144.607 563.687C146.051 563.687 147.192 563.981 148.023 564.569C148.023 563.024 147.814 561.915 147.385 561.243C146.957 560.571 146.135 560.235 144.918 560.235C143.701 560.235 142.416 560.571 141.141 561.243L141.124 561.251ZM144.481 570.105C145.841 570.105 147.025 569.517 148.015 568.333V566.594C147.159 565.981 146.135 565.678 144.935 565.678C144.104 565.678 143.407 565.88 142.844 566.275C142.282 566.67 142.005 567.224 142.005 567.938C142.005 568.61 142.223 569.139 142.66 569.526C143.096 569.912 143.701 570.105 144.473 570.105H144.481Z" fill="#243976"/>
<path d="M156.854 572.08H154.411V550.716H156.854V572.08ZM163.04 558.344H166.154L160.329 564.721L166.884 572.071H163.56L157.374 564.897L163.048 558.336L163.04 558.344Z" fill="#243976"/>
<path d="M169.755 553.195C169.755 552.766 169.906 552.413 170.208 552.145C170.51 551.867 170.888 551.733 171.333 551.733C171.778 551.733 172.113 551.867 172.399 552.145C172.684 552.422 172.827 552.775 172.827 553.195C172.827 553.665 172.684 554.043 172.399 554.337C172.113 554.631 171.761 554.783 171.333 554.783C170.905 554.783 170.51 554.631 170.208 554.337C169.906 554.043 169.755 553.657 169.755 553.195ZM172.5 572.088H170.057V558.353H172.5V572.088Z" fill="#243976"/>
<path d="M179.995 572.08H177.553V558.344H179.995V560.025C180.499 559.453 181.17 558.991 181.993 558.638C182.816 558.286 183.647 558.101 184.478 558.101C188.28 558.101 190.177 560.117 190.177 564.141V572.08H187.734V564.603C187.734 561.797 186.442 560.394 183.865 560.394C182.32 560.394 181.028 560.982 179.995 562.167V572.088V572.08Z" fill="#243976"/>
<path d="M192.41 574.062C192.41 573.004 192.796 572.122 193.568 571.408C194.34 570.694 195.415 570.19 196.799 569.879C196.573 569.593 196.464 569.215 196.464 568.753C196.464 568.291 196.59 567.896 196.833 567.594C195.859 567.207 195.104 566.619 194.558 565.821C194.021 565.031 193.753 564.116 193.753 563.074C193.753 561.654 194.256 560.461 195.28 559.504C196.321 558.529 197.681 558.042 199.368 558.042C200.669 558.042 201.827 558.378 202.843 559.05L206.872 558.076L206.931 560.058L204.337 560.697C204.765 561.411 204.975 562.2 204.975 563.074C204.975 564.477 204.455 565.661 203.422 566.611C202.407 567.543 201.055 568.014 199.368 568.014C198.898 568.014 198.596 568.005 198.453 567.98C198.352 568.224 198.302 568.476 198.302 568.745C198.302 569.114 198.394 569.417 198.579 569.66C198.621 569.66 198.747 569.66 198.957 569.643C199.167 569.635 199.318 569.627 199.402 569.627C201.534 569.627 203.229 570.005 204.497 570.769C205.756 571.534 206.385 572.626 206.385 574.054C206.385 575.482 205.756 576.507 204.497 577.271C203.238 578.036 201.542 578.414 199.402 578.414C197.261 578.414 195.54 578.044 194.298 577.297C193.047 576.557 192.426 575.474 192.426 574.045L192.41 574.062ZM204.085 574.062C204.085 573.306 203.666 572.718 202.835 572.281C202.004 571.844 200.854 571.626 199.393 571.626C197.933 571.626 196.783 571.844 195.952 572.281C195.121 572.718 194.701 573.315 194.701 574.062C194.701 574.81 195.121 575.398 195.952 575.818C196.783 576.238 197.933 576.44 199.393 576.44C200.854 576.44 202.004 576.238 202.835 575.826C203.666 575.415 204.085 574.827 204.085 574.054V574.062ZM196.036 563.074C196.036 563.931 196.346 564.637 196.967 565.199C197.588 565.762 198.386 566.04 199.36 566.04C200.333 566.04 201.131 565.762 201.735 565.216C202.365 564.67 202.684 563.956 202.684 563.082C202.684 562.209 202.381 561.486 201.769 560.915C201.139 560.327 200.333 560.033 199.36 560.033C198.386 560.033 197.588 560.327 196.967 560.907C196.346 561.486 196.036 562.217 196.036 563.091V563.074Z" fill="#243976"/>
<path d="M681.097 411.142H584.697C564.906 411.142 548.862 427.197 548.862 447.002C548.862 466.807 564.906 482.862 584.697 482.862H681.097C700.888 482.862 716.932 466.807 716.932 447.002C716.932 427.197 700.888 411.142 681.097 411.142Z" fill="#F7B24D"/>
<path d="M716.932 446.997C716.932 427.276 700.811 411.132 681.097 411.132" stroke="#243976" stroke-width="2" stroke-linecap="round" stroke-linejoin="round"/>
<path d="M610.298 434.383H613.02L606.39 457.389H603.832L597.531 438.889L591.357 457.389H588.8L581.84 434.383H584.991L590.343 452.682L596.289 434.383H598.983L605.093 452.682L610.317 434.383H610.298Z" fill="#243976"/>
<path d="M616.865 457.389H614.235V442.6H616.865V444.346C617.742 443.011 618.975 442.344 620.573 442.344C621.605 442.344 622.363 442.527 622.874 442.902L621.952 445.37C621.313 444.995 620.646 444.812 619.952 444.812C618.618 444.812 617.586 445.516 616.865 446.914V457.398V457.389Z" fill="#243976"/>
<path d="M625.797 437.042C625.797 436.585 625.961 436.202 626.29 435.909C626.619 435.617 627.021 435.461 627.505 435.461C627.989 435.461 628.345 435.607 628.656 435.909C628.966 436.202 629.112 436.585 629.112 437.042C629.112 437.545 628.957 437.957 628.656 438.276C628.345 438.596 627.971 438.752 627.505 438.752C627.039 438.752 626.619 438.596 626.29 438.276C625.961 437.957 625.797 437.545 625.797 437.042ZM628.756 457.38H626.126V442.591H628.756V457.38Z" fill="#243976"/>
<path d="M633.87 451.768V438.496H636.501V442.6H641.917V445.068H636.501V451.512C636.501 453.962 637.378 455.196 639.131 455.196C639.98 455.196 640.766 454.921 641.46 454.373L642.282 456.411C641.25 457.243 639.999 457.663 638.51 457.663C636.912 457.663 635.743 457.179 634.994 456.219C634.245 455.26 633.88 453.779 633.88 451.786L633.87 451.768Z" fill="#243976"/>
<path d="M646.182 437.042C646.182 436.585 646.346 436.202 646.675 435.909C647.003 435.617 647.405 435.461 647.889 435.461C648.373 435.461 648.73 435.607 649.04 435.909C649.351 436.202 649.497 436.585 649.497 437.042C649.497 437.545 649.342 437.957 649.04 438.276C648.73 438.596 648.355 438.752 647.889 438.752C647.424 438.752 647.003 438.596 646.675 438.276C646.346 437.957 646.182 437.545 646.182 437.042ZM649.141 457.38H646.51V442.591H649.141V457.38Z" fill="#243976"/>
<path d="M657.214 457.389H654.584V442.6H657.214V444.41C657.762 443.797 658.474 443.295 659.36 442.911C660.246 442.527 661.141 442.335 662.036 442.335C666.128 442.335 668.174 444.501 668.174 448.843V457.389H665.543V449.336C665.543 446.311 664.155 444.803 661.37 444.803C659.707 444.803 658.319 445.443 657.196 446.704V457.38L657.214 457.389Z" fill="#243976"/>
<path d="M670.576 459.519C670.576 458.376 670.996 457.426 671.827 456.658C672.658 455.89 673.818 455.342 675.306 455.013C675.069 454.711 674.941 454.3 674.941 453.797C674.941 453.294 675.069 452.874 675.334 452.545C674.283 452.124 673.471 451.494 672.886 450.644C672.302 449.794 672.019 448.806 672.019 447.682C672.019 446.146 672.567 444.867 673.662 443.834C674.777 442.783 676.247 442.253 678.065 442.253C679.462 442.253 680.713 442.618 681.809 443.34L686.147 442.289L686.211 444.428L683.416 445.114C683.873 445.881 684.101 446.731 684.101 447.673C684.101 449.181 683.544 450.452 682.43 451.485C681.334 452.49 679.882 452.993 678.065 452.993C677.562 452.993 677.233 452.984 677.078 452.956C676.969 453.221 676.914 453.495 676.914 453.779C676.914 454.172 677.014 454.501 677.206 454.766C677.252 454.766 677.389 454.766 677.617 454.748C677.845 454.739 678.001 454.729 678.092 454.729C680.393 454.729 682.22 455.141 683.572 455.963C684.932 456.786 685.608 457.965 685.608 459.501C685.608 461.036 684.932 462.142 683.572 462.965C682.211 463.788 680.384 464.199 678.092 464.199C675.8 464.199 673.936 463.797 672.594 463.002C671.251 462.197 670.576 461.036 670.576 459.501V459.519ZM683.152 459.519C683.152 458.706 682.704 458.066 681.809 457.6C680.914 457.133 679.672 456.896 678.101 456.896C676.53 456.896 675.288 457.133 674.393 457.6C673.498 458.075 673.051 458.715 673.051 459.519C673.051 460.323 673.498 460.963 674.393 461.411C675.288 461.859 676.53 462.088 678.101 462.088C679.672 462.088 680.914 461.868 681.809 461.429C682.704 460.991 683.152 460.36 683.152 459.528V459.519ZM674.484 447.691C674.484 448.614 674.822 449.373 675.489 449.976C676.156 450.58 677.014 450.881 678.065 450.881C679.115 450.881 679.964 450.589 680.622 449.995C681.298 449.4 681.635 448.633 681.635 447.691C681.635 446.75 681.307 445.973 680.649 445.36C679.973 444.73 679.106 444.41 678.055 444.41C677.005 444.41 676.147 444.721 675.48 445.342C674.813 445.964 674.475 446.75 674.475 447.691H674.484Z" fill="#243976"/>
<path d="M550.984 600.402L581.119 624.068L572.098 635.575C569.086 639.416 563.527 640.087 559.688 637.072L543.454 624.323C539.615 621.308 538.943 615.744 541.955 611.903L550.976 600.396L550.984 600.402Z" fill="#E63950"/>
<path d="M559.715 637.071L550.839 630.105C554.679 633.117 560.231 632.447 563.239 628.605L572.264 617.1L581.14 624.066L572.115 635.571C569.106 639.413 563.545 640.082 559.715 637.071Z" fill="#9B2942"/>
<path d="M632.753 496.151L551.015 600.414L581.153 624.081L662.89 519.819L632.753 496.151Z" fill="#243976"/>
<path d="M653.778 512.656L572.038 616.921L581.147 624.074L662.887 519.809L653.778 512.656Z" fill="#243976"/>
<path d="M557.978 591.537L551.014 600.42L581.148 624.084L588.112 615.201L557.978 591.537Z" fill="white"/>
<path d="M662.881 519.79L676.923 472.318C677.036 471.93 676.901 471.507 676.59 471.264C676.269 471.011 675.831 470.987 675.484 471.193L632.753 496.134L662.89 519.801L662.881 519.79Z" fill="#243976"/>
<path d="M670.448 494.198L662.88 519.79L632.743 496.134L655.778 482.684L670.448 494.198Z" fill="#F8E8C4"/>
<path d="M662.879 519.79L670.448 494.197L665.878 490.616L653.77 512.631L662.879 519.79Z" fill="#EACC8F"/>
<path d="M670.448 494.195L676.923 472.315C677.036 471.927 676.901 471.504 676.579 471.26L665.878 490.614L670.448 494.195Z" fill="#2A3449"/>
</g>
<defs>
<clipPath id="clip0_80_2790">
<rect width="718" height="664.158" fill="white" transform="translate(0 0.764099)"/>
</clipPath>
<clipPath id="clip1_80_2790">
<rect width="296" height="217" fill="white" transform="translate(272 447.922)"/>
</clipPath>
</defs>
</svg>
