<svg width="724" height="724" viewBox="0 0 724 724" fill="none" xmlns="http://www.w3.org/2000/svg">
<path d="M621.434 141.799C589.911 95.2377 538.578 80.0547 490.426 70.5111C391.231 50.7009 286.107 72.6801 204.552 143.679C139.482 200.506 69.3511 307.077 92.0533 407.863C112.153 496.647 149.459 608.712 226.387 648.333C272.659 672.192 328.763 671.179 378.072 664.383C426.513 657.732 475.532 642.693 519.057 616.087C562.871 589.191 594.249 549.571 613.625 496.503C632.857 443.868 652.089 380.967 648.619 322.983C642.112 216.702 558.822 146.281 474.376 132.255C381.687 116.928 275.406 151.776 212.65 235.933C156.834 310.836 139.771 422.323 189.803 507.203C242.003 595.987 361.298 620.136 445.889 595.843C525.564 572.851 596.273 495.346 601.045 395.861C605.962 292.906 542.482 215.834 456.879 205.567C370.553 195.156 259.355 234.343 231.158 341.636C207.589 430.999 268.465 525.423 344.091 540.75C419.717 556.078 511.827 496.936 535.686 409.309C565.184 301.437 450.95 244.899 377.638 261.817C340.042 270.493 302.157 296.81 287.552 340.045C275.84 374.46 279.021 417.551 299.12 447.049C344.091 512.842 466.712 481.32 484.787 400.344C506.188 304.474 391.809 283.651 348.574 344.239C327.751 373.448 339.175 408.586 371.565 412.779C392.821 415.527 436.49 409.453 441.696 378.509C444.01 364.627 436.057 352.626 425.646 347.275C409.595 338.889 392.821 348.577 378.506 357.108C373.011 360.434 377.927 369.978 383.278 366.652C387.182 364.338 391.086 362.025 395.28 360.145C412.053 352.481 423.043 349.011 428.104 371.713C432.442 391.234 424.633 390.945 411.909 396.15C409.161 397.307 406.414 398.03 403.522 398.753C395.279 401.211 386.603 402.368 378.217 402.223C360.575 401.79 345.826 383.859 349.875 363.181C354.358 340.624 382.988 327.61 400.196 322.983C420.44 317.632 444.877 318.934 461.073 335.563C501.705 377.208 463.675 441.41 424.055 458.617C390.797 473.077 339.898 478.283 312.279 447.483C287.552 420.009 284.082 370.99 299.41 336.575C317.195 296.521 355.804 275.12 392.821 270.493C431.863 265.576 474.954 277 503.73 309.535C539.446 350.023 534.24 405.26 506.332 448.785C464.398 513.855 385.88 553.62 318.497 520.506C248.366 485.947 211.637 386.462 254.728 308.378C298.397 229.137 394.99 203.398 470.472 218.871C546.531 234.487 596.997 309.246 591.068 399.765C585.428 485.079 526.721 554.198 459.337 579.792C385.88 607.7 282.347 594.397 222.338 533.665C163.775 474.234 156.111 373.593 189.514 295.509C224.507 213.52 296.518 163.923 371.565 147.149C446.757 130.375 532.794 142.088 589.911 206.869C616.807 237.524 636.183 278.88 638.786 323.127C641.678 370.122 627.796 417.406 614.782 461.22C601.479 506.335 583.549 547.98 551.303 578.635C519.346 609.001 479.581 627.076 440.105 639.512C368.529 662.07 268.61 674.939 204.407 621.437C149.315 575.454 124.154 490.863 104.489 418.708C80.4853 329.779 128.637 238.392 183.007 179.106C238.822 118.229 311.556 83.3805 387.327 76.0059C464.254 68.4867 572.27 80.0547 620.566 159.151C643.558 196.602 667.128 238.536 671.755 285.097C672.478 292.038 682.021 292.183 681.298 285.097C675.948 232.318 649.197 182.865 621.434 141.799Z" fill="#F2F6FF" stroke="#F2F6FF" stroke-width="4.8176" stroke-miterlimit="10"/>
</svg>
